%TF.GenerationSoftware,KiCad,Pcbnew,8.0.4*%
%TF.CreationDate,2025-07-14T14:52:45+02:00*%
%TF.ProjectId,syzygy_gpx2_2_1,73797a79-6779-45f6-9770-78325f325f31,rev?*%
%TF.SameCoordinates,Original*%
%TF.FileFunction,Legend,Bot*%
%TF.FilePolarity,Positive*%
%FSLAX46Y46*%
G04 Gerber Fmt 4.6, Leading zero omitted, Abs format (unit mm)*
G04 Created by KiCad (PCBNEW 8.0.4) date 2025-07-14 14:52:45*
%MOMM*%
%LPD*%
G01*
G04 APERTURE LIST*
%ADD10C,0.100000*%
%ADD11C,0.150000*%
%ADD12C,0.300000*%
%ADD13C,0.400000*%
%ADD14C,0.190500*%
%ADD15C,0.120000*%
G04 APERTURE END LIST*
D10*
D11*
X177002200Y-166007200D02*
X285002200Y-166007200D01*
X285002200Y-198007200D01*
X177002200Y-198007200D01*
X177002200Y-166007200D01*
D10*
D11*
X10000000Y-10000000D02*
X287002200Y-10000000D01*
X287002200Y-200007200D01*
X10000000Y-200007200D01*
X10000000Y-10000000D01*
D10*
D11*
X12000000Y-12000000D02*
X285002200Y-12000000D01*
X285002200Y-198007200D01*
X12000000Y-198007200D01*
X12000000Y-12000000D01*
D10*
D11*
X60000000Y-12000000D02*
X60000000Y-10000000D01*
D10*
D11*
X110000000Y-12000000D02*
X110000000Y-10000000D01*
D10*
D11*
X160000000Y-12000000D02*
X160000000Y-10000000D01*
D10*
D11*
X210000000Y-12000000D02*
X210000000Y-10000000D01*
D10*
D11*
X260000000Y-12000000D02*
X260000000Y-10000000D01*
D10*
D11*
X36089160Y-11593604D02*
X35346303Y-11593604D01*
X35717731Y-11593604D02*
X35717731Y-10293604D01*
X35717731Y-10293604D02*
X35593922Y-10479319D01*
X35593922Y-10479319D02*
X35470112Y-10603128D01*
X35470112Y-10603128D02*
X35346303Y-10665033D01*
D10*
D11*
X85346303Y-10417414D02*
X85408207Y-10355509D01*
X85408207Y-10355509D02*
X85532017Y-10293604D01*
X85532017Y-10293604D02*
X85841541Y-10293604D01*
X85841541Y-10293604D02*
X85965350Y-10355509D01*
X85965350Y-10355509D02*
X86027255Y-10417414D01*
X86027255Y-10417414D02*
X86089160Y-10541223D01*
X86089160Y-10541223D02*
X86089160Y-10665033D01*
X86089160Y-10665033D02*
X86027255Y-10850747D01*
X86027255Y-10850747D02*
X85284398Y-11593604D01*
X85284398Y-11593604D02*
X86089160Y-11593604D01*
D10*
D11*
X135284398Y-10293604D02*
X136089160Y-10293604D01*
X136089160Y-10293604D02*
X135655826Y-10788842D01*
X135655826Y-10788842D02*
X135841541Y-10788842D01*
X135841541Y-10788842D02*
X135965350Y-10850747D01*
X135965350Y-10850747D02*
X136027255Y-10912652D01*
X136027255Y-10912652D02*
X136089160Y-11036461D01*
X136089160Y-11036461D02*
X136089160Y-11345985D01*
X136089160Y-11345985D02*
X136027255Y-11469795D01*
X136027255Y-11469795D02*
X135965350Y-11531700D01*
X135965350Y-11531700D02*
X135841541Y-11593604D01*
X135841541Y-11593604D02*
X135470112Y-11593604D01*
X135470112Y-11593604D02*
X135346303Y-11531700D01*
X135346303Y-11531700D02*
X135284398Y-11469795D01*
D10*
D11*
X185965350Y-10726938D02*
X185965350Y-11593604D01*
X185655826Y-10231700D02*
X185346303Y-11160271D01*
X185346303Y-11160271D02*
X186151064Y-11160271D01*
D10*
D11*
X236027255Y-10293604D02*
X235408207Y-10293604D01*
X235408207Y-10293604D02*
X235346303Y-10912652D01*
X235346303Y-10912652D02*
X235408207Y-10850747D01*
X235408207Y-10850747D02*
X235532017Y-10788842D01*
X235532017Y-10788842D02*
X235841541Y-10788842D01*
X235841541Y-10788842D02*
X235965350Y-10850747D01*
X235965350Y-10850747D02*
X236027255Y-10912652D01*
X236027255Y-10912652D02*
X236089160Y-11036461D01*
X236089160Y-11036461D02*
X236089160Y-11345985D01*
X236089160Y-11345985D02*
X236027255Y-11469795D01*
X236027255Y-11469795D02*
X235965350Y-11531700D01*
X235965350Y-11531700D02*
X235841541Y-11593604D01*
X235841541Y-11593604D02*
X235532017Y-11593604D01*
X235532017Y-11593604D02*
X235408207Y-11531700D01*
X235408207Y-11531700D02*
X235346303Y-11469795D01*
D10*
D11*
X285965350Y-10293604D02*
X285717731Y-10293604D01*
X285717731Y-10293604D02*
X285593922Y-10355509D01*
X285593922Y-10355509D02*
X285532017Y-10417414D01*
X285532017Y-10417414D02*
X285408207Y-10603128D01*
X285408207Y-10603128D02*
X285346303Y-10850747D01*
X285346303Y-10850747D02*
X285346303Y-11345985D01*
X285346303Y-11345985D02*
X285408207Y-11469795D01*
X285408207Y-11469795D02*
X285470112Y-11531700D01*
X285470112Y-11531700D02*
X285593922Y-11593604D01*
X285593922Y-11593604D02*
X285841541Y-11593604D01*
X285841541Y-11593604D02*
X285965350Y-11531700D01*
X285965350Y-11531700D02*
X286027255Y-11469795D01*
X286027255Y-11469795D02*
X286089160Y-11345985D01*
X286089160Y-11345985D02*
X286089160Y-11036461D01*
X286089160Y-11036461D02*
X286027255Y-10912652D01*
X286027255Y-10912652D02*
X285965350Y-10850747D01*
X285965350Y-10850747D02*
X285841541Y-10788842D01*
X285841541Y-10788842D02*
X285593922Y-10788842D01*
X285593922Y-10788842D02*
X285470112Y-10850747D01*
X285470112Y-10850747D02*
X285408207Y-10912652D01*
X285408207Y-10912652D02*
X285346303Y-11036461D01*
D10*
D11*
X60000000Y-198007200D02*
X60000000Y-200007200D01*
D10*
D11*
X110000000Y-198007200D02*
X110000000Y-200007200D01*
D10*
D11*
X160000000Y-198007200D02*
X160000000Y-200007200D01*
D10*
D11*
X210000000Y-198007200D02*
X210000000Y-200007200D01*
D10*
D11*
X260000000Y-198007200D02*
X260000000Y-200007200D01*
D10*
D11*
X36089160Y-199600804D02*
X35346303Y-199600804D01*
X35717731Y-199600804D02*
X35717731Y-198300804D01*
X35717731Y-198300804D02*
X35593922Y-198486519D01*
X35593922Y-198486519D02*
X35470112Y-198610328D01*
X35470112Y-198610328D02*
X35346303Y-198672233D01*
D10*
D11*
X85346303Y-198424614D02*
X85408207Y-198362709D01*
X85408207Y-198362709D02*
X85532017Y-198300804D01*
X85532017Y-198300804D02*
X85841541Y-198300804D01*
X85841541Y-198300804D02*
X85965350Y-198362709D01*
X85965350Y-198362709D02*
X86027255Y-198424614D01*
X86027255Y-198424614D02*
X86089160Y-198548423D01*
X86089160Y-198548423D02*
X86089160Y-198672233D01*
X86089160Y-198672233D02*
X86027255Y-198857947D01*
X86027255Y-198857947D02*
X85284398Y-199600804D01*
X85284398Y-199600804D02*
X86089160Y-199600804D01*
D10*
D11*
X135284398Y-198300804D02*
X136089160Y-198300804D01*
X136089160Y-198300804D02*
X135655826Y-198796042D01*
X135655826Y-198796042D02*
X135841541Y-198796042D01*
X135841541Y-198796042D02*
X135965350Y-198857947D01*
X135965350Y-198857947D02*
X136027255Y-198919852D01*
X136027255Y-198919852D02*
X136089160Y-199043661D01*
X136089160Y-199043661D02*
X136089160Y-199353185D01*
X136089160Y-199353185D02*
X136027255Y-199476995D01*
X136027255Y-199476995D02*
X135965350Y-199538900D01*
X135965350Y-199538900D02*
X135841541Y-199600804D01*
X135841541Y-199600804D02*
X135470112Y-199600804D01*
X135470112Y-199600804D02*
X135346303Y-199538900D01*
X135346303Y-199538900D02*
X135284398Y-199476995D01*
D10*
D11*
X185965350Y-198734138D02*
X185965350Y-199600804D01*
X185655826Y-198238900D02*
X185346303Y-199167471D01*
X185346303Y-199167471D02*
X186151064Y-199167471D01*
D10*
D11*
X236027255Y-198300804D02*
X235408207Y-198300804D01*
X235408207Y-198300804D02*
X235346303Y-198919852D01*
X235346303Y-198919852D02*
X235408207Y-198857947D01*
X235408207Y-198857947D02*
X235532017Y-198796042D01*
X235532017Y-198796042D02*
X235841541Y-198796042D01*
X235841541Y-198796042D02*
X235965350Y-198857947D01*
X235965350Y-198857947D02*
X236027255Y-198919852D01*
X236027255Y-198919852D02*
X236089160Y-199043661D01*
X236089160Y-199043661D02*
X236089160Y-199353185D01*
X236089160Y-199353185D02*
X236027255Y-199476995D01*
X236027255Y-199476995D02*
X235965350Y-199538900D01*
X235965350Y-199538900D02*
X235841541Y-199600804D01*
X235841541Y-199600804D02*
X235532017Y-199600804D01*
X235532017Y-199600804D02*
X235408207Y-199538900D01*
X235408207Y-199538900D02*
X235346303Y-199476995D01*
D10*
D11*
X285965350Y-198300804D02*
X285717731Y-198300804D01*
X285717731Y-198300804D02*
X285593922Y-198362709D01*
X285593922Y-198362709D02*
X285532017Y-198424614D01*
X285532017Y-198424614D02*
X285408207Y-198610328D01*
X285408207Y-198610328D02*
X285346303Y-198857947D01*
X285346303Y-198857947D02*
X285346303Y-199353185D01*
X285346303Y-199353185D02*
X285408207Y-199476995D01*
X285408207Y-199476995D02*
X285470112Y-199538900D01*
X285470112Y-199538900D02*
X285593922Y-199600804D01*
X285593922Y-199600804D02*
X285841541Y-199600804D01*
X285841541Y-199600804D02*
X285965350Y-199538900D01*
X285965350Y-199538900D02*
X286027255Y-199476995D01*
X286027255Y-199476995D02*
X286089160Y-199353185D01*
X286089160Y-199353185D02*
X286089160Y-199043661D01*
X286089160Y-199043661D02*
X286027255Y-198919852D01*
X286027255Y-198919852D02*
X285965350Y-198857947D01*
X285965350Y-198857947D02*
X285841541Y-198796042D01*
X285841541Y-198796042D02*
X285593922Y-198796042D01*
X285593922Y-198796042D02*
X285470112Y-198857947D01*
X285470112Y-198857947D02*
X285408207Y-198919852D01*
X285408207Y-198919852D02*
X285346303Y-199043661D01*
D10*
D11*
X10000000Y-60000000D02*
X12000000Y-60000000D01*
D10*
D11*
X10000000Y-110000000D02*
X12000000Y-110000000D01*
D10*
D11*
X10000000Y-160000000D02*
X12000000Y-160000000D01*
D10*
D11*
X10690476Y-35222176D02*
X11309523Y-35222176D01*
X10566666Y-35593604D02*
X10999999Y-34293604D01*
X10999999Y-34293604D02*
X11433333Y-35593604D01*
D10*
D11*
X11092857Y-84912652D02*
X11278571Y-84974557D01*
X11278571Y-84974557D02*
X11340476Y-85036461D01*
X11340476Y-85036461D02*
X11402380Y-85160271D01*
X11402380Y-85160271D02*
X11402380Y-85345985D01*
X11402380Y-85345985D02*
X11340476Y-85469795D01*
X11340476Y-85469795D02*
X11278571Y-85531700D01*
X11278571Y-85531700D02*
X11154761Y-85593604D01*
X11154761Y-85593604D02*
X10659523Y-85593604D01*
X10659523Y-85593604D02*
X10659523Y-84293604D01*
X10659523Y-84293604D02*
X11092857Y-84293604D01*
X11092857Y-84293604D02*
X11216666Y-84355509D01*
X11216666Y-84355509D02*
X11278571Y-84417414D01*
X11278571Y-84417414D02*
X11340476Y-84541223D01*
X11340476Y-84541223D02*
X11340476Y-84665033D01*
X11340476Y-84665033D02*
X11278571Y-84788842D01*
X11278571Y-84788842D02*
X11216666Y-84850747D01*
X11216666Y-84850747D02*
X11092857Y-84912652D01*
X11092857Y-84912652D02*
X10659523Y-84912652D01*
D10*
D11*
X11402380Y-135469795D02*
X11340476Y-135531700D01*
X11340476Y-135531700D02*
X11154761Y-135593604D01*
X11154761Y-135593604D02*
X11030952Y-135593604D01*
X11030952Y-135593604D02*
X10845238Y-135531700D01*
X10845238Y-135531700D02*
X10721428Y-135407890D01*
X10721428Y-135407890D02*
X10659523Y-135284080D01*
X10659523Y-135284080D02*
X10597619Y-135036461D01*
X10597619Y-135036461D02*
X10597619Y-134850747D01*
X10597619Y-134850747D02*
X10659523Y-134603128D01*
X10659523Y-134603128D02*
X10721428Y-134479319D01*
X10721428Y-134479319D02*
X10845238Y-134355509D01*
X10845238Y-134355509D02*
X11030952Y-134293604D01*
X11030952Y-134293604D02*
X11154761Y-134293604D01*
X11154761Y-134293604D02*
X11340476Y-134355509D01*
X11340476Y-134355509D02*
X11402380Y-134417414D01*
D10*
D11*
X10659523Y-185593604D02*
X10659523Y-184293604D01*
X10659523Y-184293604D02*
X10969047Y-184293604D01*
X10969047Y-184293604D02*
X11154761Y-184355509D01*
X11154761Y-184355509D02*
X11278571Y-184479319D01*
X11278571Y-184479319D02*
X11340476Y-184603128D01*
X11340476Y-184603128D02*
X11402380Y-184850747D01*
X11402380Y-184850747D02*
X11402380Y-185036461D01*
X11402380Y-185036461D02*
X11340476Y-185284080D01*
X11340476Y-185284080D02*
X11278571Y-185407890D01*
X11278571Y-185407890D02*
X11154761Y-185531700D01*
X11154761Y-185531700D02*
X10969047Y-185593604D01*
X10969047Y-185593604D02*
X10659523Y-185593604D01*
D10*
D11*
X287002200Y-60000000D02*
X285002200Y-60000000D01*
D10*
D11*
X287002200Y-110000000D02*
X285002200Y-110000000D01*
D10*
D11*
X287002200Y-160000000D02*
X285002200Y-160000000D01*
D10*
D11*
X285692676Y-35222176D02*
X286311723Y-35222176D01*
X285568866Y-35593604D02*
X286002199Y-34293604D01*
X286002199Y-34293604D02*
X286435533Y-35593604D01*
D10*
D11*
X286095057Y-84912652D02*
X286280771Y-84974557D01*
X286280771Y-84974557D02*
X286342676Y-85036461D01*
X286342676Y-85036461D02*
X286404580Y-85160271D01*
X286404580Y-85160271D02*
X286404580Y-85345985D01*
X286404580Y-85345985D02*
X286342676Y-85469795D01*
X286342676Y-85469795D02*
X286280771Y-85531700D01*
X286280771Y-85531700D02*
X286156961Y-85593604D01*
X286156961Y-85593604D02*
X285661723Y-85593604D01*
X285661723Y-85593604D02*
X285661723Y-84293604D01*
X285661723Y-84293604D02*
X286095057Y-84293604D01*
X286095057Y-84293604D02*
X286218866Y-84355509D01*
X286218866Y-84355509D02*
X286280771Y-84417414D01*
X286280771Y-84417414D02*
X286342676Y-84541223D01*
X286342676Y-84541223D02*
X286342676Y-84665033D01*
X286342676Y-84665033D02*
X286280771Y-84788842D01*
X286280771Y-84788842D02*
X286218866Y-84850747D01*
X286218866Y-84850747D02*
X286095057Y-84912652D01*
X286095057Y-84912652D02*
X285661723Y-84912652D01*
D10*
D11*
X286404580Y-135469795D02*
X286342676Y-135531700D01*
X286342676Y-135531700D02*
X286156961Y-135593604D01*
X286156961Y-135593604D02*
X286033152Y-135593604D01*
X286033152Y-135593604D02*
X285847438Y-135531700D01*
X285847438Y-135531700D02*
X285723628Y-135407890D01*
X285723628Y-135407890D02*
X285661723Y-135284080D01*
X285661723Y-135284080D02*
X285599819Y-135036461D01*
X285599819Y-135036461D02*
X285599819Y-134850747D01*
X285599819Y-134850747D02*
X285661723Y-134603128D01*
X285661723Y-134603128D02*
X285723628Y-134479319D01*
X285723628Y-134479319D02*
X285847438Y-134355509D01*
X285847438Y-134355509D02*
X286033152Y-134293604D01*
X286033152Y-134293604D02*
X286156961Y-134293604D01*
X286156961Y-134293604D02*
X286342676Y-134355509D01*
X286342676Y-134355509D02*
X286404580Y-134417414D01*
D10*
D11*
X285661723Y-185593604D02*
X285661723Y-184293604D01*
X285661723Y-184293604D02*
X285971247Y-184293604D01*
X285971247Y-184293604D02*
X286156961Y-184355509D01*
X286156961Y-184355509D02*
X286280771Y-184479319D01*
X286280771Y-184479319D02*
X286342676Y-184603128D01*
X286342676Y-184603128D02*
X286404580Y-184850747D01*
X286404580Y-184850747D02*
X286404580Y-185036461D01*
X286404580Y-185036461D02*
X286342676Y-185284080D01*
X286342676Y-185284080D02*
X286280771Y-185407890D01*
X286280771Y-185407890D02*
X286156961Y-185531700D01*
X286156961Y-185531700D02*
X285971247Y-185593604D01*
X285971247Y-185593604D02*
X285661723Y-185593604D01*
D10*
D11*
X200458026Y-193793328D02*
X200458026Y-192293328D01*
X200458026Y-192293328D02*
X200815169Y-192293328D01*
X200815169Y-192293328D02*
X201029455Y-192364757D01*
X201029455Y-192364757D02*
X201172312Y-192507614D01*
X201172312Y-192507614D02*
X201243741Y-192650471D01*
X201243741Y-192650471D02*
X201315169Y-192936185D01*
X201315169Y-192936185D02*
X201315169Y-193150471D01*
X201315169Y-193150471D02*
X201243741Y-193436185D01*
X201243741Y-193436185D02*
X201172312Y-193579042D01*
X201172312Y-193579042D02*
X201029455Y-193721900D01*
X201029455Y-193721900D02*
X200815169Y-193793328D01*
X200815169Y-193793328D02*
X200458026Y-193793328D01*
X202600884Y-193793328D02*
X202600884Y-193007614D01*
X202600884Y-193007614D02*
X202529455Y-192864757D01*
X202529455Y-192864757D02*
X202386598Y-192793328D01*
X202386598Y-192793328D02*
X202100884Y-192793328D01*
X202100884Y-192793328D02*
X201958026Y-192864757D01*
X202600884Y-193721900D02*
X202458026Y-193793328D01*
X202458026Y-193793328D02*
X202100884Y-193793328D01*
X202100884Y-193793328D02*
X201958026Y-193721900D01*
X201958026Y-193721900D02*
X201886598Y-193579042D01*
X201886598Y-193579042D02*
X201886598Y-193436185D01*
X201886598Y-193436185D02*
X201958026Y-193293328D01*
X201958026Y-193293328D02*
X202100884Y-193221900D01*
X202100884Y-193221900D02*
X202458026Y-193221900D01*
X202458026Y-193221900D02*
X202600884Y-193150471D01*
X203100884Y-192793328D02*
X203672312Y-192793328D01*
X203315169Y-192293328D02*
X203315169Y-193579042D01*
X203315169Y-193579042D02*
X203386598Y-193721900D01*
X203386598Y-193721900D02*
X203529455Y-193793328D01*
X203529455Y-193793328D02*
X203672312Y-193793328D01*
X204743741Y-193721900D02*
X204600884Y-193793328D01*
X204600884Y-193793328D02*
X204315170Y-193793328D01*
X204315170Y-193793328D02*
X204172312Y-193721900D01*
X204172312Y-193721900D02*
X204100884Y-193579042D01*
X204100884Y-193579042D02*
X204100884Y-193007614D01*
X204100884Y-193007614D02*
X204172312Y-192864757D01*
X204172312Y-192864757D02*
X204315170Y-192793328D01*
X204315170Y-192793328D02*
X204600884Y-192793328D01*
X204600884Y-192793328D02*
X204743741Y-192864757D01*
X204743741Y-192864757D02*
X204815170Y-193007614D01*
X204815170Y-193007614D02*
X204815170Y-193150471D01*
X204815170Y-193150471D02*
X204100884Y-193293328D01*
X205458026Y-193650471D02*
X205529455Y-193721900D01*
X205529455Y-193721900D02*
X205458026Y-193793328D01*
X205458026Y-193793328D02*
X205386598Y-193721900D01*
X205386598Y-193721900D02*
X205458026Y-193650471D01*
X205458026Y-193650471D02*
X205458026Y-193793328D01*
X205458026Y-192864757D02*
X205529455Y-192936185D01*
X205529455Y-192936185D02*
X205458026Y-193007614D01*
X205458026Y-193007614D02*
X205386598Y-192936185D01*
X205386598Y-192936185D02*
X205458026Y-192864757D01*
X205458026Y-192864757D02*
X205458026Y-193007614D01*
D10*
D11*
X177002200Y-194507200D02*
X285002200Y-194507200D01*
D10*
D11*
X178458026Y-196593328D02*
X178458026Y-195093328D01*
X179315169Y-196593328D02*
X178672312Y-195736185D01*
X179315169Y-195093328D02*
X178458026Y-195950471D01*
X179958026Y-196593328D02*
X179958026Y-195593328D01*
X179958026Y-195093328D02*
X179886598Y-195164757D01*
X179886598Y-195164757D02*
X179958026Y-195236185D01*
X179958026Y-195236185D02*
X180029455Y-195164757D01*
X180029455Y-195164757D02*
X179958026Y-195093328D01*
X179958026Y-195093328D02*
X179958026Y-195236185D01*
X181529455Y-196450471D02*
X181458027Y-196521900D01*
X181458027Y-196521900D02*
X181243741Y-196593328D01*
X181243741Y-196593328D02*
X181100884Y-196593328D01*
X181100884Y-196593328D02*
X180886598Y-196521900D01*
X180886598Y-196521900D02*
X180743741Y-196379042D01*
X180743741Y-196379042D02*
X180672312Y-196236185D01*
X180672312Y-196236185D02*
X180600884Y-195950471D01*
X180600884Y-195950471D02*
X180600884Y-195736185D01*
X180600884Y-195736185D02*
X180672312Y-195450471D01*
X180672312Y-195450471D02*
X180743741Y-195307614D01*
X180743741Y-195307614D02*
X180886598Y-195164757D01*
X180886598Y-195164757D02*
X181100884Y-195093328D01*
X181100884Y-195093328D02*
X181243741Y-195093328D01*
X181243741Y-195093328D02*
X181458027Y-195164757D01*
X181458027Y-195164757D02*
X181529455Y-195236185D01*
X182815170Y-196593328D02*
X182815170Y-195807614D01*
X182815170Y-195807614D02*
X182743741Y-195664757D01*
X182743741Y-195664757D02*
X182600884Y-195593328D01*
X182600884Y-195593328D02*
X182315170Y-195593328D01*
X182315170Y-195593328D02*
X182172312Y-195664757D01*
X182815170Y-196521900D02*
X182672312Y-196593328D01*
X182672312Y-196593328D02*
X182315170Y-196593328D01*
X182315170Y-196593328D02*
X182172312Y-196521900D01*
X182172312Y-196521900D02*
X182100884Y-196379042D01*
X182100884Y-196379042D02*
X182100884Y-196236185D01*
X182100884Y-196236185D02*
X182172312Y-196093328D01*
X182172312Y-196093328D02*
X182315170Y-196021900D01*
X182315170Y-196021900D02*
X182672312Y-196021900D01*
X182672312Y-196021900D02*
X182815170Y-195950471D01*
X184172313Y-196593328D02*
X184172313Y-195093328D01*
X184172313Y-196521900D02*
X184029455Y-196593328D01*
X184029455Y-196593328D02*
X183743741Y-196593328D01*
X183743741Y-196593328D02*
X183600884Y-196521900D01*
X183600884Y-196521900D02*
X183529455Y-196450471D01*
X183529455Y-196450471D02*
X183458027Y-196307614D01*
X183458027Y-196307614D02*
X183458027Y-195879042D01*
X183458027Y-195879042D02*
X183529455Y-195736185D01*
X183529455Y-195736185D02*
X183600884Y-195664757D01*
X183600884Y-195664757D02*
X183743741Y-195593328D01*
X183743741Y-195593328D02*
X184029455Y-195593328D01*
X184029455Y-195593328D02*
X184172313Y-195664757D01*
X186029455Y-195807614D02*
X186529455Y-195807614D01*
X186743741Y-196593328D02*
X186029455Y-196593328D01*
X186029455Y-196593328D02*
X186029455Y-195093328D01*
X186029455Y-195093328D02*
X186743741Y-195093328D01*
X187386598Y-196450471D02*
X187458027Y-196521900D01*
X187458027Y-196521900D02*
X187386598Y-196593328D01*
X187386598Y-196593328D02*
X187315170Y-196521900D01*
X187315170Y-196521900D02*
X187386598Y-196450471D01*
X187386598Y-196450471D02*
X187386598Y-196593328D01*
X188100884Y-196593328D02*
X188100884Y-195093328D01*
X188100884Y-195093328D02*
X188458027Y-195093328D01*
X188458027Y-195093328D02*
X188672313Y-195164757D01*
X188672313Y-195164757D02*
X188815170Y-195307614D01*
X188815170Y-195307614D02*
X188886599Y-195450471D01*
X188886599Y-195450471D02*
X188958027Y-195736185D01*
X188958027Y-195736185D02*
X188958027Y-195950471D01*
X188958027Y-195950471D02*
X188886599Y-196236185D01*
X188886599Y-196236185D02*
X188815170Y-196379042D01*
X188815170Y-196379042D02*
X188672313Y-196521900D01*
X188672313Y-196521900D02*
X188458027Y-196593328D01*
X188458027Y-196593328D02*
X188100884Y-196593328D01*
X189600884Y-196450471D02*
X189672313Y-196521900D01*
X189672313Y-196521900D02*
X189600884Y-196593328D01*
X189600884Y-196593328D02*
X189529456Y-196521900D01*
X189529456Y-196521900D02*
X189600884Y-196450471D01*
X189600884Y-196450471D02*
X189600884Y-196593328D01*
X190243742Y-196164757D02*
X190958028Y-196164757D01*
X190100885Y-196593328D02*
X190600885Y-195093328D01*
X190600885Y-195093328D02*
X191100885Y-196593328D01*
X191600884Y-196450471D02*
X191672313Y-196521900D01*
X191672313Y-196521900D02*
X191600884Y-196593328D01*
X191600884Y-196593328D02*
X191529456Y-196521900D01*
X191529456Y-196521900D02*
X191600884Y-196450471D01*
X191600884Y-196450471D02*
X191600884Y-196593328D01*
X193672313Y-195736185D02*
X193529456Y-195664757D01*
X193529456Y-195664757D02*
X193458027Y-195593328D01*
X193458027Y-195593328D02*
X193386599Y-195450471D01*
X193386599Y-195450471D02*
X193386599Y-195379042D01*
X193386599Y-195379042D02*
X193458027Y-195236185D01*
X193458027Y-195236185D02*
X193529456Y-195164757D01*
X193529456Y-195164757D02*
X193672313Y-195093328D01*
X193672313Y-195093328D02*
X193958027Y-195093328D01*
X193958027Y-195093328D02*
X194100885Y-195164757D01*
X194100885Y-195164757D02*
X194172313Y-195236185D01*
X194172313Y-195236185D02*
X194243742Y-195379042D01*
X194243742Y-195379042D02*
X194243742Y-195450471D01*
X194243742Y-195450471D02*
X194172313Y-195593328D01*
X194172313Y-195593328D02*
X194100885Y-195664757D01*
X194100885Y-195664757D02*
X193958027Y-195736185D01*
X193958027Y-195736185D02*
X193672313Y-195736185D01*
X193672313Y-195736185D02*
X193529456Y-195807614D01*
X193529456Y-195807614D02*
X193458027Y-195879042D01*
X193458027Y-195879042D02*
X193386599Y-196021900D01*
X193386599Y-196021900D02*
X193386599Y-196307614D01*
X193386599Y-196307614D02*
X193458027Y-196450471D01*
X193458027Y-196450471D02*
X193529456Y-196521900D01*
X193529456Y-196521900D02*
X193672313Y-196593328D01*
X193672313Y-196593328D02*
X193958027Y-196593328D01*
X193958027Y-196593328D02*
X194100885Y-196521900D01*
X194100885Y-196521900D02*
X194172313Y-196450471D01*
X194172313Y-196450471D02*
X194243742Y-196307614D01*
X194243742Y-196307614D02*
X194243742Y-196021900D01*
X194243742Y-196021900D02*
X194172313Y-195879042D01*
X194172313Y-195879042D02*
X194100885Y-195807614D01*
X194100885Y-195807614D02*
X193958027Y-195736185D01*
X194886598Y-196450471D02*
X194958027Y-196521900D01*
X194958027Y-196521900D02*
X194886598Y-196593328D01*
X194886598Y-196593328D02*
X194815170Y-196521900D01*
X194815170Y-196521900D02*
X194886598Y-196450471D01*
X194886598Y-196450471D02*
X194886598Y-196593328D01*
X195886599Y-195093328D02*
X196029456Y-195093328D01*
X196029456Y-195093328D02*
X196172313Y-195164757D01*
X196172313Y-195164757D02*
X196243742Y-195236185D01*
X196243742Y-195236185D02*
X196315170Y-195379042D01*
X196315170Y-195379042D02*
X196386599Y-195664757D01*
X196386599Y-195664757D02*
X196386599Y-196021900D01*
X196386599Y-196021900D02*
X196315170Y-196307614D01*
X196315170Y-196307614D02*
X196243742Y-196450471D01*
X196243742Y-196450471D02*
X196172313Y-196521900D01*
X196172313Y-196521900D02*
X196029456Y-196593328D01*
X196029456Y-196593328D02*
X195886599Y-196593328D01*
X195886599Y-196593328D02*
X195743742Y-196521900D01*
X195743742Y-196521900D02*
X195672313Y-196450471D01*
X195672313Y-196450471D02*
X195600884Y-196307614D01*
X195600884Y-196307614D02*
X195529456Y-196021900D01*
X195529456Y-196021900D02*
X195529456Y-195664757D01*
X195529456Y-195664757D02*
X195600884Y-195379042D01*
X195600884Y-195379042D02*
X195672313Y-195236185D01*
X195672313Y-195236185D02*
X195743742Y-195164757D01*
X195743742Y-195164757D02*
X195886599Y-195093328D01*
X197029455Y-196450471D02*
X197100884Y-196521900D01*
X197100884Y-196521900D02*
X197029455Y-196593328D01*
X197029455Y-196593328D02*
X196958027Y-196521900D01*
X196958027Y-196521900D02*
X197029455Y-196450471D01*
X197029455Y-196450471D02*
X197029455Y-196593328D01*
X198386599Y-195593328D02*
X198386599Y-196593328D01*
X198029456Y-195021900D02*
X197672313Y-196093328D01*
X197672313Y-196093328D02*
X198600884Y-196093328D01*
D10*
D11*
X177002200Y-191507200D02*
X285002200Y-191507200D01*
D10*
D12*
X264413853Y-193785528D02*
X263913853Y-193071242D01*
X263556710Y-193785528D02*
X263556710Y-192285528D01*
X263556710Y-192285528D02*
X264128139Y-192285528D01*
X264128139Y-192285528D02*
X264270996Y-192356957D01*
X264270996Y-192356957D02*
X264342425Y-192428385D01*
X264342425Y-192428385D02*
X264413853Y-192571242D01*
X264413853Y-192571242D02*
X264413853Y-192785528D01*
X264413853Y-192785528D02*
X264342425Y-192928385D01*
X264342425Y-192928385D02*
X264270996Y-192999814D01*
X264270996Y-192999814D02*
X264128139Y-193071242D01*
X264128139Y-193071242D02*
X263556710Y-193071242D01*
X265628139Y-193714100D02*
X265485282Y-193785528D01*
X265485282Y-193785528D02*
X265199568Y-193785528D01*
X265199568Y-193785528D02*
X265056710Y-193714100D01*
X265056710Y-193714100D02*
X264985282Y-193571242D01*
X264985282Y-193571242D02*
X264985282Y-192999814D01*
X264985282Y-192999814D02*
X265056710Y-192856957D01*
X265056710Y-192856957D02*
X265199568Y-192785528D01*
X265199568Y-192785528D02*
X265485282Y-192785528D01*
X265485282Y-192785528D02*
X265628139Y-192856957D01*
X265628139Y-192856957D02*
X265699568Y-192999814D01*
X265699568Y-192999814D02*
X265699568Y-193142671D01*
X265699568Y-193142671D02*
X264985282Y-193285528D01*
X266199567Y-192785528D02*
X266556710Y-193785528D01*
X266556710Y-193785528D02*
X266913853Y-192785528D01*
X267485281Y-193642671D02*
X267556710Y-193714100D01*
X267556710Y-193714100D02*
X267485281Y-193785528D01*
X267485281Y-193785528D02*
X267413853Y-193714100D01*
X267413853Y-193714100D02*
X267485281Y-193642671D01*
X267485281Y-193642671D02*
X267485281Y-193785528D01*
X267485281Y-192856957D02*
X267556710Y-192928385D01*
X267556710Y-192928385D02*
X267485281Y-192999814D01*
X267485281Y-192999814D02*
X267413853Y-192928385D01*
X267413853Y-192928385D02*
X267485281Y-192856957D01*
X267485281Y-192856957D02*
X267485281Y-192999814D01*
D10*
D11*
X178386598Y-193721900D02*
X178600884Y-193793328D01*
X178600884Y-193793328D02*
X178958026Y-193793328D01*
X178958026Y-193793328D02*
X179100884Y-193721900D01*
X179100884Y-193721900D02*
X179172312Y-193650471D01*
X179172312Y-193650471D02*
X179243741Y-193507614D01*
X179243741Y-193507614D02*
X179243741Y-193364757D01*
X179243741Y-193364757D02*
X179172312Y-193221900D01*
X179172312Y-193221900D02*
X179100884Y-193150471D01*
X179100884Y-193150471D02*
X178958026Y-193079042D01*
X178958026Y-193079042D02*
X178672312Y-193007614D01*
X178672312Y-193007614D02*
X178529455Y-192936185D01*
X178529455Y-192936185D02*
X178458026Y-192864757D01*
X178458026Y-192864757D02*
X178386598Y-192721900D01*
X178386598Y-192721900D02*
X178386598Y-192579042D01*
X178386598Y-192579042D02*
X178458026Y-192436185D01*
X178458026Y-192436185D02*
X178529455Y-192364757D01*
X178529455Y-192364757D02*
X178672312Y-192293328D01*
X178672312Y-192293328D02*
X179029455Y-192293328D01*
X179029455Y-192293328D02*
X179243741Y-192364757D01*
X179886597Y-193793328D02*
X179886597Y-192793328D01*
X179886597Y-192293328D02*
X179815169Y-192364757D01*
X179815169Y-192364757D02*
X179886597Y-192436185D01*
X179886597Y-192436185D02*
X179958026Y-192364757D01*
X179958026Y-192364757D02*
X179886597Y-192293328D01*
X179886597Y-192293328D02*
X179886597Y-192436185D01*
X180458026Y-192793328D02*
X181243741Y-192793328D01*
X181243741Y-192793328D02*
X180458026Y-193793328D01*
X180458026Y-193793328D02*
X181243741Y-193793328D01*
X182386598Y-193721900D02*
X182243741Y-193793328D01*
X182243741Y-193793328D02*
X181958027Y-193793328D01*
X181958027Y-193793328D02*
X181815169Y-193721900D01*
X181815169Y-193721900D02*
X181743741Y-193579042D01*
X181743741Y-193579042D02*
X181743741Y-193007614D01*
X181743741Y-193007614D02*
X181815169Y-192864757D01*
X181815169Y-192864757D02*
X181958027Y-192793328D01*
X181958027Y-192793328D02*
X182243741Y-192793328D01*
X182243741Y-192793328D02*
X182386598Y-192864757D01*
X182386598Y-192864757D02*
X182458027Y-193007614D01*
X182458027Y-193007614D02*
X182458027Y-193150471D01*
X182458027Y-193150471D02*
X181743741Y-193293328D01*
X183100883Y-193650471D02*
X183172312Y-193721900D01*
X183172312Y-193721900D02*
X183100883Y-193793328D01*
X183100883Y-193793328D02*
X183029455Y-193721900D01*
X183029455Y-193721900D02*
X183100883Y-193650471D01*
X183100883Y-193650471D02*
X183100883Y-193793328D01*
X183100883Y-192864757D02*
X183172312Y-192936185D01*
X183172312Y-192936185D02*
X183100883Y-193007614D01*
X183100883Y-193007614D02*
X183029455Y-192936185D01*
X183029455Y-192936185D02*
X183100883Y-192864757D01*
X183100883Y-192864757D02*
X183100883Y-193007614D01*
X184886598Y-193364757D02*
X185600884Y-193364757D01*
X184743741Y-193793328D02*
X185243741Y-192293328D01*
X185243741Y-192293328D02*
X185743741Y-193793328D01*
X186886598Y-192793328D02*
X186886598Y-193793328D01*
X186529455Y-192221900D02*
X186172312Y-193293328D01*
X186172312Y-193293328D02*
X187100883Y-193293328D01*
D10*
D11*
X263458026Y-196593328D02*
X263458026Y-195093328D01*
X264815170Y-196593328D02*
X264815170Y-195093328D01*
X264815170Y-196521900D02*
X264672312Y-196593328D01*
X264672312Y-196593328D02*
X264386598Y-196593328D01*
X264386598Y-196593328D02*
X264243741Y-196521900D01*
X264243741Y-196521900D02*
X264172312Y-196450471D01*
X264172312Y-196450471D02*
X264100884Y-196307614D01*
X264100884Y-196307614D02*
X264100884Y-195879042D01*
X264100884Y-195879042D02*
X264172312Y-195736185D01*
X264172312Y-195736185D02*
X264243741Y-195664757D01*
X264243741Y-195664757D02*
X264386598Y-195593328D01*
X264386598Y-195593328D02*
X264672312Y-195593328D01*
X264672312Y-195593328D02*
X264815170Y-195664757D01*
X265529455Y-196450471D02*
X265600884Y-196521900D01*
X265600884Y-196521900D02*
X265529455Y-196593328D01*
X265529455Y-196593328D02*
X265458027Y-196521900D01*
X265458027Y-196521900D02*
X265529455Y-196450471D01*
X265529455Y-196450471D02*
X265529455Y-196593328D01*
X265529455Y-195664757D02*
X265600884Y-195736185D01*
X265600884Y-195736185D02*
X265529455Y-195807614D01*
X265529455Y-195807614D02*
X265458027Y-195736185D01*
X265458027Y-195736185D02*
X265529455Y-195664757D01*
X265529455Y-195664757D02*
X265529455Y-195807614D01*
X268172313Y-196593328D02*
X267315170Y-196593328D01*
X267743741Y-196593328D02*
X267743741Y-195093328D01*
X267743741Y-195093328D02*
X267600884Y-195307614D01*
X267600884Y-195307614D02*
X267458027Y-195450471D01*
X267458027Y-195450471D02*
X267315170Y-195521900D01*
X269886598Y-195021900D02*
X268600884Y-196950471D01*
X271172313Y-196593328D02*
X270315170Y-196593328D01*
X270743741Y-196593328D02*
X270743741Y-195093328D01*
X270743741Y-195093328D02*
X270600884Y-195307614D01*
X270600884Y-195307614D02*
X270458027Y-195450471D01*
X270458027Y-195450471D02*
X270315170Y-195521900D01*
D10*
D11*
X177002200Y-187507200D02*
X285002200Y-187507200D01*
D10*
D13*
X178693928Y-188211638D02*
X179836785Y-188211638D01*
X179015357Y-190211638D02*
X179265357Y-188211638D01*
X180253452Y-190211638D02*
X180420119Y-188878304D01*
X180503452Y-188211638D02*
X180396309Y-188306876D01*
X180396309Y-188306876D02*
X180479643Y-188402114D01*
X180479643Y-188402114D02*
X180586786Y-188306876D01*
X180586786Y-188306876D02*
X180503452Y-188211638D01*
X180503452Y-188211638D02*
X180479643Y-188402114D01*
X181086786Y-188878304D02*
X181848690Y-188878304D01*
X181455833Y-188211638D02*
X181241548Y-189925923D01*
X181241548Y-189925923D02*
X181312976Y-190116400D01*
X181312976Y-190116400D02*
X181491548Y-190211638D01*
X181491548Y-190211638D02*
X181682024Y-190211638D01*
X182634405Y-190211638D02*
X182455833Y-190116400D01*
X182455833Y-190116400D02*
X182384405Y-189925923D01*
X182384405Y-189925923D02*
X182598690Y-188211638D01*
X184170119Y-190116400D02*
X183967738Y-190211638D01*
X183967738Y-190211638D02*
X183586785Y-190211638D01*
X183586785Y-190211638D02*
X183408214Y-190116400D01*
X183408214Y-190116400D02*
X183336785Y-189925923D01*
X183336785Y-189925923D02*
X183432024Y-189164019D01*
X183432024Y-189164019D02*
X183551071Y-188973542D01*
X183551071Y-188973542D02*
X183753452Y-188878304D01*
X183753452Y-188878304D02*
X184134404Y-188878304D01*
X184134404Y-188878304D02*
X184312976Y-188973542D01*
X184312976Y-188973542D02*
X184384404Y-189164019D01*
X184384404Y-189164019D02*
X184360595Y-189354495D01*
X184360595Y-189354495D02*
X183384404Y-189544971D01*
X185134405Y-190021161D02*
X185217738Y-190116400D01*
X185217738Y-190116400D02*
X185110595Y-190211638D01*
X185110595Y-190211638D02*
X185027262Y-190116400D01*
X185027262Y-190116400D02*
X185134405Y-190021161D01*
X185134405Y-190021161D02*
X185110595Y-190211638D01*
X185265357Y-188973542D02*
X185348690Y-189068780D01*
X185348690Y-189068780D02*
X185241548Y-189164019D01*
X185241548Y-189164019D02*
X185158214Y-189068780D01*
X185158214Y-189068780D02*
X185265357Y-188973542D01*
X185265357Y-188973542D02*
X185241548Y-189164019D01*
D10*
D11*
X178958026Y-185607614D02*
X178458026Y-185607614D01*
X178458026Y-186393328D02*
X178458026Y-184893328D01*
X178458026Y-184893328D02*
X179172312Y-184893328D01*
X179743740Y-186393328D02*
X179743740Y-185393328D01*
X179743740Y-184893328D02*
X179672312Y-184964757D01*
X179672312Y-184964757D02*
X179743740Y-185036185D01*
X179743740Y-185036185D02*
X179815169Y-184964757D01*
X179815169Y-184964757D02*
X179743740Y-184893328D01*
X179743740Y-184893328D02*
X179743740Y-185036185D01*
X180672312Y-186393328D02*
X180529455Y-186321900D01*
X180529455Y-186321900D02*
X180458026Y-186179042D01*
X180458026Y-186179042D02*
X180458026Y-184893328D01*
X181815169Y-186321900D02*
X181672312Y-186393328D01*
X181672312Y-186393328D02*
X181386598Y-186393328D01*
X181386598Y-186393328D02*
X181243740Y-186321900D01*
X181243740Y-186321900D02*
X181172312Y-186179042D01*
X181172312Y-186179042D02*
X181172312Y-185607614D01*
X181172312Y-185607614D02*
X181243740Y-185464757D01*
X181243740Y-185464757D02*
X181386598Y-185393328D01*
X181386598Y-185393328D02*
X181672312Y-185393328D01*
X181672312Y-185393328D02*
X181815169Y-185464757D01*
X181815169Y-185464757D02*
X181886598Y-185607614D01*
X181886598Y-185607614D02*
X181886598Y-185750471D01*
X181886598Y-185750471D02*
X181172312Y-185893328D01*
X182529454Y-186250471D02*
X182600883Y-186321900D01*
X182600883Y-186321900D02*
X182529454Y-186393328D01*
X182529454Y-186393328D02*
X182458026Y-186321900D01*
X182458026Y-186321900D02*
X182529454Y-186250471D01*
X182529454Y-186250471D02*
X182529454Y-186393328D01*
X182529454Y-185464757D02*
X182600883Y-185536185D01*
X182600883Y-185536185D02*
X182529454Y-185607614D01*
X182529454Y-185607614D02*
X182458026Y-185536185D01*
X182458026Y-185536185D02*
X182529454Y-185464757D01*
X182529454Y-185464757D02*
X182529454Y-185607614D01*
X184315169Y-186321900D02*
X184458026Y-186393328D01*
X184458026Y-186393328D02*
X184743740Y-186393328D01*
X184743740Y-186393328D02*
X184886597Y-186321900D01*
X184886597Y-186321900D02*
X184958026Y-186179042D01*
X184958026Y-186179042D02*
X184958026Y-186107614D01*
X184958026Y-186107614D02*
X184886597Y-185964757D01*
X184886597Y-185964757D02*
X184743740Y-185893328D01*
X184743740Y-185893328D02*
X184529455Y-185893328D01*
X184529455Y-185893328D02*
X184386597Y-185821900D01*
X184386597Y-185821900D02*
X184315169Y-185679042D01*
X184315169Y-185679042D02*
X184315169Y-185607614D01*
X184315169Y-185607614D02*
X184386597Y-185464757D01*
X184386597Y-185464757D02*
X184529455Y-185393328D01*
X184529455Y-185393328D02*
X184743740Y-185393328D01*
X184743740Y-185393328D02*
X184886597Y-185464757D01*
X185458026Y-185393328D02*
X185815169Y-186393328D01*
X186172312Y-185393328D02*
X185815169Y-186393328D01*
X185815169Y-186393328D02*
X185672312Y-186750471D01*
X185672312Y-186750471D02*
X185600883Y-186821900D01*
X185600883Y-186821900D02*
X185458026Y-186893328D01*
X186600883Y-185393328D02*
X187386598Y-185393328D01*
X187386598Y-185393328D02*
X186600883Y-186393328D01*
X186600883Y-186393328D02*
X187386598Y-186393328D01*
X187815169Y-185393328D02*
X188172312Y-186393328D01*
X188529455Y-185393328D02*
X188172312Y-186393328D01*
X188172312Y-186393328D02*
X188029455Y-186750471D01*
X188029455Y-186750471D02*
X187958026Y-186821900D01*
X187958026Y-186821900D02*
X187815169Y-186893328D01*
X189743741Y-185393328D02*
X189743741Y-186607614D01*
X189743741Y-186607614D02*
X189672312Y-186750471D01*
X189672312Y-186750471D02*
X189600883Y-186821900D01*
X189600883Y-186821900D02*
X189458026Y-186893328D01*
X189458026Y-186893328D02*
X189243741Y-186893328D01*
X189243741Y-186893328D02*
X189100883Y-186821900D01*
X189743741Y-186321900D02*
X189600883Y-186393328D01*
X189600883Y-186393328D02*
X189315169Y-186393328D01*
X189315169Y-186393328D02*
X189172312Y-186321900D01*
X189172312Y-186321900D02*
X189100883Y-186250471D01*
X189100883Y-186250471D02*
X189029455Y-186107614D01*
X189029455Y-186107614D02*
X189029455Y-185679042D01*
X189029455Y-185679042D02*
X189100883Y-185536185D01*
X189100883Y-185536185D02*
X189172312Y-185464757D01*
X189172312Y-185464757D02*
X189315169Y-185393328D01*
X189315169Y-185393328D02*
X189600883Y-185393328D01*
X189600883Y-185393328D02*
X189743741Y-185464757D01*
X190315169Y-185393328D02*
X190672312Y-186393328D01*
X191029455Y-185393328D02*
X190672312Y-186393328D01*
X190672312Y-186393328D02*
X190529455Y-186750471D01*
X190529455Y-186750471D02*
X190458026Y-186821900D01*
X190458026Y-186821900D02*
X190315169Y-186893328D01*
X191243741Y-186536185D02*
X192386598Y-186536185D01*
X193386598Y-185393328D02*
X193386598Y-186607614D01*
X193386598Y-186607614D02*
X193315169Y-186750471D01*
X193315169Y-186750471D02*
X193243740Y-186821900D01*
X193243740Y-186821900D02*
X193100883Y-186893328D01*
X193100883Y-186893328D02*
X192886598Y-186893328D01*
X192886598Y-186893328D02*
X192743740Y-186821900D01*
X193386598Y-186321900D02*
X193243740Y-186393328D01*
X193243740Y-186393328D02*
X192958026Y-186393328D01*
X192958026Y-186393328D02*
X192815169Y-186321900D01*
X192815169Y-186321900D02*
X192743740Y-186250471D01*
X192743740Y-186250471D02*
X192672312Y-186107614D01*
X192672312Y-186107614D02*
X192672312Y-185679042D01*
X192672312Y-185679042D02*
X192743740Y-185536185D01*
X192743740Y-185536185D02*
X192815169Y-185464757D01*
X192815169Y-185464757D02*
X192958026Y-185393328D01*
X192958026Y-185393328D02*
X193243740Y-185393328D01*
X193243740Y-185393328D02*
X193386598Y-185464757D01*
X194100883Y-185393328D02*
X194100883Y-186893328D01*
X194100883Y-185464757D02*
X194243741Y-185393328D01*
X194243741Y-185393328D02*
X194529455Y-185393328D01*
X194529455Y-185393328D02*
X194672312Y-185464757D01*
X194672312Y-185464757D02*
X194743741Y-185536185D01*
X194743741Y-185536185D02*
X194815169Y-185679042D01*
X194815169Y-185679042D02*
X194815169Y-186107614D01*
X194815169Y-186107614D02*
X194743741Y-186250471D01*
X194743741Y-186250471D02*
X194672312Y-186321900D01*
X194672312Y-186321900D02*
X194529455Y-186393328D01*
X194529455Y-186393328D02*
X194243741Y-186393328D01*
X194243741Y-186393328D02*
X194100883Y-186321900D01*
X195315169Y-186393328D02*
X196100884Y-185393328D01*
X195315169Y-185393328D02*
X196100884Y-186393328D01*
X196600884Y-185036185D02*
X196672312Y-184964757D01*
X196672312Y-184964757D02*
X196815170Y-184893328D01*
X196815170Y-184893328D02*
X197172312Y-184893328D01*
X197172312Y-184893328D02*
X197315170Y-184964757D01*
X197315170Y-184964757D02*
X197386598Y-185036185D01*
X197386598Y-185036185D02*
X197458027Y-185179042D01*
X197458027Y-185179042D02*
X197458027Y-185321900D01*
X197458027Y-185321900D02*
X197386598Y-185536185D01*
X197386598Y-185536185D02*
X196529455Y-186393328D01*
X196529455Y-186393328D02*
X197458027Y-186393328D01*
X197743741Y-186536185D02*
X198886598Y-186536185D01*
X199172312Y-185036185D02*
X199243740Y-184964757D01*
X199243740Y-184964757D02*
X199386598Y-184893328D01*
X199386598Y-184893328D02*
X199743740Y-184893328D01*
X199743740Y-184893328D02*
X199886598Y-184964757D01*
X199886598Y-184964757D02*
X199958026Y-185036185D01*
X199958026Y-185036185D02*
X200029455Y-185179042D01*
X200029455Y-185179042D02*
X200029455Y-185321900D01*
X200029455Y-185321900D02*
X199958026Y-185536185D01*
X199958026Y-185536185D02*
X199100883Y-186393328D01*
X199100883Y-186393328D02*
X200029455Y-186393328D01*
X200315169Y-186536185D02*
X201458026Y-186536185D01*
X202600883Y-186393328D02*
X201743740Y-186393328D01*
X202172311Y-186393328D02*
X202172311Y-184893328D01*
X202172311Y-184893328D02*
X202029454Y-185107614D01*
X202029454Y-185107614D02*
X201886597Y-185250471D01*
X201886597Y-185250471D02*
X201743740Y-185321900D01*
X203243739Y-186250471D02*
X203315168Y-186321900D01*
X203315168Y-186321900D02*
X203243739Y-186393328D01*
X203243739Y-186393328D02*
X203172311Y-186321900D01*
X203172311Y-186321900D02*
X203243739Y-186250471D01*
X203243739Y-186250471D02*
X203243739Y-186393328D01*
X203958025Y-186393328D02*
X203958025Y-184893328D01*
X204100883Y-185821900D02*
X204529454Y-186393328D01*
X204529454Y-185393328D02*
X203958025Y-185964757D01*
X205172311Y-186393328D02*
X205172311Y-185393328D01*
X205172311Y-184893328D02*
X205100883Y-184964757D01*
X205100883Y-184964757D02*
X205172311Y-185036185D01*
X205172311Y-185036185D02*
X205243740Y-184964757D01*
X205243740Y-184964757D02*
X205172311Y-184893328D01*
X205172311Y-184893328D02*
X205172311Y-185036185D01*
X206529455Y-186321900D02*
X206386597Y-186393328D01*
X206386597Y-186393328D02*
X206100883Y-186393328D01*
X206100883Y-186393328D02*
X205958026Y-186321900D01*
X205958026Y-186321900D02*
X205886597Y-186250471D01*
X205886597Y-186250471D02*
X205815169Y-186107614D01*
X205815169Y-186107614D02*
X205815169Y-185679042D01*
X205815169Y-185679042D02*
X205886597Y-185536185D01*
X205886597Y-185536185D02*
X205958026Y-185464757D01*
X205958026Y-185464757D02*
X206100883Y-185393328D01*
X206100883Y-185393328D02*
X206386597Y-185393328D01*
X206386597Y-185393328D02*
X206529455Y-185464757D01*
X207815169Y-186393328D02*
X207815169Y-185607614D01*
X207815169Y-185607614D02*
X207743740Y-185464757D01*
X207743740Y-185464757D02*
X207600883Y-185393328D01*
X207600883Y-185393328D02*
X207315169Y-185393328D01*
X207315169Y-185393328D02*
X207172311Y-185464757D01*
X207815169Y-186321900D02*
X207672311Y-186393328D01*
X207672311Y-186393328D02*
X207315169Y-186393328D01*
X207315169Y-186393328D02*
X207172311Y-186321900D01*
X207172311Y-186321900D02*
X207100883Y-186179042D01*
X207100883Y-186179042D02*
X207100883Y-186036185D01*
X207100883Y-186036185D02*
X207172311Y-185893328D01*
X207172311Y-185893328D02*
X207315169Y-185821900D01*
X207315169Y-185821900D02*
X207672311Y-185821900D01*
X207672311Y-185821900D02*
X207815169Y-185750471D01*
X209172312Y-186393328D02*
X209172312Y-184893328D01*
X209172312Y-186321900D02*
X209029454Y-186393328D01*
X209029454Y-186393328D02*
X208743740Y-186393328D01*
X208743740Y-186393328D02*
X208600883Y-186321900D01*
X208600883Y-186321900D02*
X208529454Y-186250471D01*
X208529454Y-186250471D02*
X208458026Y-186107614D01*
X208458026Y-186107614D02*
X208458026Y-185679042D01*
X208458026Y-185679042D02*
X208529454Y-185536185D01*
X208529454Y-185536185D02*
X208600883Y-185464757D01*
X208600883Y-185464757D02*
X208743740Y-185393328D01*
X208743740Y-185393328D02*
X209029454Y-185393328D01*
X209029454Y-185393328D02*
X209172312Y-185464757D01*
X209529455Y-186536185D02*
X210672312Y-186536185D01*
X211029454Y-185393328D02*
X211029454Y-186893328D01*
X211029454Y-185464757D02*
X211172312Y-185393328D01*
X211172312Y-185393328D02*
X211458026Y-185393328D01*
X211458026Y-185393328D02*
X211600883Y-185464757D01*
X211600883Y-185464757D02*
X211672312Y-185536185D01*
X211672312Y-185536185D02*
X211743740Y-185679042D01*
X211743740Y-185679042D02*
X211743740Y-186107614D01*
X211743740Y-186107614D02*
X211672312Y-186250471D01*
X211672312Y-186250471D02*
X211600883Y-186321900D01*
X211600883Y-186321900D02*
X211458026Y-186393328D01*
X211458026Y-186393328D02*
X211172312Y-186393328D01*
X211172312Y-186393328D02*
X211029454Y-186321900D01*
X213029455Y-186321900D02*
X212886597Y-186393328D01*
X212886597Y-186393328D02*
X212600883Y-186393328D01*
X212600883Y-186393328D02*
X212458026Y-186321900D01*
X212458026Y-186321900D02*
X212386597Y-186250471D01*
X212386597Y-186250471D02*
X212315169Y-186107614D01*
X212315169Y-186107614D02*
X212315169Y-185679042D01*
X212315169Y-185679042D02*
X212386597Y-185536185D01*
X212386597Y-185536185D02*
X212458026Y-185464757D01*
X212458026Y-185464757D02*
X212600883Y-185393328D01*
X212600883Y-185393328D02*
X212886597Y-185393328D01*
X212886597Y-185393328D02*
X213029455Y-185464757D01*
X213672311Y-186393328D02*
X213672311Y-184893328D01*
X213672311Y-185464757D02*
X213815169Y-185393328D01*
X213815169Y-185393328D02*
X214100883Y-185393328D01*
X214100883Y-185393328D02*
X214243740Y-185464757D01*
X214243740Y-185464757D02*
X214315169Y-185536185D01*
X214315169Y-185536185D02*
X214386597Y-185679042D01*
X214386597Y-185679042D02*
X214386597Y-186107614D01*
X214386597Y-186107614D02*
X214315169Y-186250471D01*
X214315169Y-186250471D02*
X214243740Y-186321900D01*
X214243740Y-186321900D02*
X214100883Y-186393328D01*
X214100883Y-186393328D02*
X213815169Y-186393328D01*
X213815169Y-186393328D02*
X213672311Y-186321900D01*
D10*
D11*
X177002200Y-181507200D02*
X285002200Y-181507200D01*
D10*
D11*
X178386598Y-183621900D02*
X178600884Y-183693328D01*
X178600884Y-183693328D02*
X178958026Y-183693328D01*
X178958026Y-183693328D02*
X179100884Y-183621900D01*
X179100884Y-183621900D02*
X179172312Y-183550471D01*
X179172312Y-183550471D02*
X179243741Y-183407614D01*
X179243741Y-183407614D02*
X179243741Y-183264757D01*
X179243741Y-183264757D02*
X179172312Y-183121900D01*
X179172312Y-183121900D02*
X179100884Y-183050471D01*
X179100884Y-183050471D02*
X178958026Y-182979042D01*
X178958026Y-182979042D02*
X178672312Y-182907614D01*
X178672312Y-182907614D02*
X178529455Y-182836185D01*
X178529455Y-182836185D02*
X178458026Y-182764757D01*
X178458026Y-182764757D02*
X178386598Y-182621900D01*
X178386598Y-182621900D02*
X178386598Y-182479042D01*
X178386598Y-182479042D02*
X178458026Y-182336185D01*
X178458026Y-182336185D02*
X178529455Y-182264757D01*
X178529455Y-182264757D02*
X178672312Y-182193328D01*
X178672312Y-182193328D02*
X179029455Y-182193328D01*
X179029455Y-182193328D02*
X179243741Y-182264757D01*
X179886597Y-183693328D02*
X179886597Y-182193328D01*
X180529455Y-183693328D02*
X180529455Y-182907614D01*
X180529455Y-182907614D02*
X180458026Y-182764757D01*
X180458026Y-182764757D02*
X180315169Y-182693328D01*
X180315169Y-182693328D02*
X180100883Y-182693328D01*
X180100883Y-182693328D02*
X179958026Y-182764757D01*
X179958026Y-182764757D02*
X179886597Y-182836185D01*
X181815169Y-183621900D02*
X181672312Y-183693328D01*
X181672312Y-183693328D02*
X181386598Y-183693328D01*
X181386598Y-183693328D02*
X181243740Y-183621900D01*
X181243740Y-183621900D02*
X181172312Y-183479042D01*
X181172312Y-183479042D02*
X181172312Y-182907614D01*
X181172312Y-182907614D02*
X181243740Y-182764757D01*
X181243740Y-182764757D02*
X181386598Y-182693328D01*
X181386598Y-182693328D02*
X181672312Y-182693328D01*
X181672312Y-182693328D02*
X181815169Y-182764757D01*
X181815169Y-182764757D02*
X181886598Y-182907614D01*
X181886598Y-182907614D02*
X181886598Y-183050471D01*
X181886598Y-183050471D02*
X181172312Y-183193328D01*
X183100883Y-183621900D02*
X182958026Y-183693328D01*
X182958026Y-183693328D02*
X182672312Y-183693328D01*
X182672312Y-183693328D02*
X182529454Y-183621900D01*
X182529454Y-183621900D02*
X182458026Y-183479042D01*
X182458026Y-183479042D02*
X182458026Y-182907614D01*
X182458026Y-182907614D02*
X182529454Y-182764757D01*
X182529454Y-182764757D02*
X182672312Y-182693328D01*
X182672312Y-182693328D02*
X182958026Y-182693328D01*
X182958026Y-182693328D02*
X183100883Y-182764757D01*
X183100883Y-182764757D02*
X183172312Y-182907614D01*
X183172312Y-182907614D02*
X183172312Y-183050471D01*
X183172312Y-183050471D02*
X182458026Y-183193328D01*
X183600883Y-182693328D02*
X184172311Y-182693328D01*
X183815168Y-182193328D02*
X183815168Y-183479042D01*
X183815168Y-183479042D02*
X183886597Y-183621900D01*
X183886597Y-183621900D02*
X184029454Y-183693328D01*
X184029454Y-183693328D02*
X184172311Y-183693328D01*
X184672311Y-183550471D02*
X184743740Y-183621900D01*
X184743740Y-183621900D02*
X184672311Y-183693328D01*
X184672311Y-183693328D02*
X184600883Y-183621900D01*
X184600883Y-183621900D02*
X184672311Y-183550471D01*
X184672311Y-183550471D02*
X184672311Y-183693328D01*
X184672311Y-182764757D02*
X184743740Y-182836185D01*
X184743740Y-182836185D02*
X184672311Y-182907614D01*
X184672311Y-182907614D02*
X184600883Y-182836185D01*
X184600883Y-182836185D02*
X184672311Y-182764757D01*
X184672311Y-182764757D02*
X184672311Y-182907614D01*
D10*
D11*
X197002200Y-191507200D02*
X197002200Y-194507200D01*
D10*
D11*
X261002200Y-191507200D02*
X261002200Y-198007200D01*
D10*
X169603734Y-91137800D02*
X169460877Y-91185419D01*
X169460877Y-91185419D02*
X169222782Y-91185419D01*
X169222782Y-91185419D02*
X169127544Y-91137800D01*
X169127544Y-91137800D02*
X169079925Y-91090180D01*
X169079925Y-91090180D02*
X169032306Y-90994942D01*
X169032306Y-90994942D02*
X169032306Y-90899704D01*
X169032306Y-90899704D02*
X169079925Y-90804466D01*
X169079925Y-90804466D02*
X169127544Y-90756847D01*
X169127544Y-90756847D02*
X169222782Y-90709228D01*
X169222782Y-90709228D02*
X169413258Y-90661609D01*
X169413258Y-90661609D02*
X169508496Y-90613990D01*
X169508496Y-90613990D02*
X169556115Y-90566371D01*
X169556115Y-90566371D02*
X169603734Y-90471133D01*
X169603734Y-90471133D02*
X169603734Y-90375895D01*
X169603734Y-90375895D02*
X169556115Y-90280657D01*
X169556115Y-90280657D02*
X169508496Y-90233038D01*
X169508496Y-90233038D02*
X169413258Y-90185419D01*
X169413258Y-90185419D02*
X169175163Y-90185419D01*
X169175163Y-90185419D02*
X169032306Y-90233038D01*
X168746591Y-90185419D02*
X168175163Y-90185419D01*
X168460877Y-91185419D02*
X168460877Y-90185419D01*
X167651353Y-90185419D02*
X167460877Y-90185419D01*
X167460877Y-90185419D02*
X167365639Y-90233038D01*
X167365639Y-90233038D02*
X167270401Y-90328276D01*
X167270401Y-90328276D02*
X167222782Y-90518752D01*
X167222782Y-90518752D02*
X167222782Y-90852085D01*
X167222782Y-90852085D02*
X167270401Y-91042561D01*
X167270401Y-91042561D02*
X167365639Y-91137800D01*
X167365639Y-91137800D02*
X167460877Y-91185419D01*
X167460877Y-91185419D02*
X167651353Y-91185419D01*
X167651353Y-91185419D02*
X167746591Y-91137800D01*
X167746591Y-91137800D02*
X167841829Y-91042561D01*
X167841829Y-91042561D02*
X167889448Y-90852085D01*
X167889448Y-90852085D02*
X167889448Y-90518752D01*
X167889448Y-90518752D02*
X167841829Y-90328276D01*
X167841829Y-90328276D02*
X167746591Y-90233038D01*
X167746591Y-90233038D02*
X167651353Y-90185419D01*
X166794210Y-91185419D02*
X166794210Y-90185419D01*
X166794210Y-90185419D02*
X166413258Y-90185419D01*
X166413258Y-90185419D02*
X166318020Y-90233038D01*
X166318020Y-90233038D02*
X166270401Y-90280657D01*
X166270401Y-90280657D02*
X166222782Y-90375895D01*
X166222782Y-90375895D02*
X166222782Y-90518752D01*
X166222782Y-90518752D02*
X166270401Y-90613990D01*
X166270401Y-90613990D02*
X166318020Y-90661609D01*
X166318020Y-90661609D02*
X166413258Y-90709228D01*
X166413258Y-90709228D02*
X166794210Y-90709228D01*
X165841829Y-90280657D02*
X165794210Y-90233038D01*
X165794210Y-90233038D02*
X165698972Y-90185419D01*
X165698972Y-90185419D02*
X165460877Y-90185419D01*
X165460877Y-90185419D02*
X165365639Y-90233038D01*
X165365639Y-90233038D02*
X165318020Y-90280657D01*
X165318020Y-90280657D02*
X165270401Y-90375895D01*
X165270401Y-90375895D02*
X165270401Y-90471133D01*
X165270401Y-90471133D02*
X165318020Y-90613990D01*
X165318020Y-90613990D02*
X165889448Y-91185419D01*
X165889448Y-91185419D02*
X165270401Y-91185419D01*
D11*
X133220419Y-79096666D02*
X133172800Y-79144285D01*
X133172800Y-79144285D02*
X133125180Y-79287142D01*
X133125180Y-79287142D02*
X133125180Y-79382380D01*
X133125180Y-79382380D02*
X133172800Y-79525237D01*
X133172800Y-79525237D02*
X133268038Y-79620475D01*
X133268038Y-79620475D02*
X133363276Y-79668094D01*
X133363276Y-79668094D02*
X133553752Y-79715713D01*
X133553752Y-79715713D02*
X133696609Y-79715713D01*
X133696609Y-79715713D02*
X133887085Y-79668094D01*
X133887085Y-79668094D02*
X133982323Y-79620475D01*
X133982323Y-79620475D02*
X134077561Y-79525237D01*
X134077561Y-79525237D02*
X134125180Y-79382380D01*
X134125180Y-79382380D02*
X134125180Y-79287142D01*
X134125180Y-79287142D02*
X134077561Y-79144285D01*
X134077561Y-79144285D02*
X134029942Y-79096666D01*
X133125180Y-78144285D02*
X133125180Y-78715713D01*
X133125180Y-78429999D02*
X134125180Y-78429999D01*
X134125180Y-78429999D02*
X133982323Y-78525237D01*
X133982323Y-78525237D02*
X133887085Y-78620475D01*
X133887085Y-78620475D02*
X133839466Y-78715713D01*
D10*
X170043734Y-117384856D02*
X169900877Y-117432475D01*
X169900877Y-117432475D02*
X169662782Y-117432475D01*
X169662782Y-117432475D02*
X169567544Y-117384856D01*
X169567544Y-117384856D02*
X169519925Y-117337236D01*
X169519925Y-117337236D02*
X169472306Y-117241998D01*
X169472306Y-117241998D02*
X169472306Y-117146760D01*
X169472306Y-117146760D02*
X169519925Y-117051522D01*
X169519925Y-117051522D02*
X169567544Y-117003903D01*
X169567544Y-117003903D02*
X169662782Y-116956284D01*
X169662782Y-116956284D02*
X169853258Y-116908665D01*
X169853258Y-116908665D02*
X169948496Y-116861046D01*
X169948496Y-116861046D02*
X169996115Y-116813427D01*
X169996115Y-116813427D02*
X170043734Y-116718189D01*
X170043734Y-116718189D02*
X170043734Y-116622951D01*
X170043734Y-116622951D02*
X169996115Y-116527713D01*
X169996115Y-116527713D02*
X169948496Y-116480094D01*
X169948496Y-116480094D02*
X169853258Y-116432475D01*
X169853258Y-116432475D02*
X169615163Y-116432475D01*
X169615163Y-116432475D02*
X169472306Y-116480094D01*
X169186591Y-116432475D02*
X168615163Y-116432475D01*
X168900877Y-117432475D02*
X168900877Y-116432475D01*
X168091353Y-116432475D02*
X167900877Y-116432475D01*
X167900877Y-116432475D02*
X167805639Y-116480094D01*
X167805639Y-116480094D02*
X167710401Y-116575332D01*
X167710401Y-116575332D02*
X167662782Y-116765808D01*
X167662782Y-116765808D02*
X167662782Y-117099141D01*
X167662782Y-117099141D02*
X167710401Y-117289617D01*
X167710401Y-117289617D02*
X167805639Y-117384856D01*
X167805639Y-117384856D02*
X167900877Y-117432475D01*
X167900877Y-117432475D02*
X168091353Y-117432475D01*
X168091353Y-117432475D02*
X168186591Y-117384856D01*
X168186591Y-117384856D02*
X168281829Y-117289617D01*
X168281829Y-117289617D02*
X168329448Y-117099141D01*
X168329448Y-117099141D02*
X168329448Y-116765808D01*
X168329448Y-116765808D02*
X168281829Y-116575332D01*
X168281829Y-116575332D02*
X168186591Y-116480094D01*
X168186591Y-116480094D02*
X168091353Y-116432475D01*
X167234210Y-117432475D02*
X167234210Y-116432475D01*
X167234210Y-116432475D02*
X166853258Y-116432475D01*
X166853258Y-116432475D02*
X166758020Y-116480094D01*
X166758020Y-116480094D02*
X166710401Y-116527713D01*
X166710401Y-116527713D02*
X166662782Y-116622951D01*
X166662782Y-116622951D02*
X166662782Y-116765808D01*
X166662782Y-116765808D02*
X166710401Y-116861046D01*
X166710401Y-116861046D02*
X166758020Y-116908665D01*
X166758020Y-116908665D02*
X166853258Y-116956284D01*
X166853258Y-116956284D02*
X167234210Y-116956284D01*
X165805639Y-116765808D02*
X165805639Y-117432475D01*
X166043734Y-116384856D02*
X166281829Y-117099141D01*
X166281829Y-117099141D02*
X165662782Y-117099141D01*
X131009925Y-87445750D02*
X130476591Y-87445750D01*
X130476591Y-87445750D02*
X131009925Y-88245750D01*
X131009925Y-88245750D02*
X130476591Y-88245750D01*
X130248020Y-87445750D02*
X129752782Y-87445750D01*
X129752782Y-87445750D02*
X130019448Y-87750512D01*
X130019448Y-87750512D02*
X129905163Y-87750512D01*
X129905163Y-87750512D02*
X129828972Y-87788607D01*
X129828972Y-87788607D02*
X129790877Y-87826702D01*
X129790877Y-87826702D02*
X129752782Y-87902893D01*
X129752782Y-87902893D02*
X129752782Y-88093369D01*
X129752782Y-88093369D02*
X129790877Y-88169559D01*
X129790877Y-88169559D02*
X129828972Y-88207655D01*
X129828972Y-88207655D02*
X129905163Y-88245750D01*
X129905163Y-88245750D02*
X130133734Y-88245750D01*
X130133734Y-88245750D02*
X130209925Y-88207655D01*
X130209925Y-88207655D02*
X130248020Y-88169559D01*
X129486115Y-87445750D02*
X128990877Y-87445750D01*
X128990877Y-87445750D02*
X129257543Y-87750512D01*
X129257543Y-87750512D02*
X129143258Y-87750512D01*
X129143258Y-87750512D02*
X129067067Y-87788607D01*
X129067067Y-87788607D02*
X129028972Y-87826702D01*
X129028972Y-87826702D02*
X128990877Y-87902893D01*
X128990877Y-87902893D02*
X128990877Y-88093369D01*
X128990877Y-88093369D02*
X129028972Y-88169559D01*
X129028972Y-88169559D02*
X129067067Y-88207655D01*
X129067067Y-88207655D02*
X129143258Y-88245750D01*
X129143258Y-88245750D02*
X129371829Y-88245750D01*
X129371829Y-88245750D02*
X129448020Y-88207655D01*
X129448020Y-88207655D02*
X129486115Y-88169559D01*
X131009925Y-89533705D02*
X130590877Y-89000371D01*
X131009925Y-89000371D02*
X130590877Y-89533705D01*
X130476591Y-90745469D02*
X130514687Y-90783565D01*
X130514687Y-90783565D02*
X130628972Y-90821660D01*
X130628972Y-90821660D02*
X130705163Y-90821660D01*
X130705163Y-90821660D02*
X130819449Y-90783565D01*
X130819449Y-90783565D02*
X130895639Y-90707374D01*
X130895639Y-90707374D02*
X130933734Y-90631184D01*
X130933734Y-90631184D02*
X130971830Y-90478803D01*
X130971830Y-90478803D02*
X130971830Y-90364517D01*
X130971830Y-90364517D02*
X130933734Y-90212136D01*
X130933734Y-90212136D02*
X130895639Y-90135945D01*
X130895639Y-90135945D02*
X130819449Y-90059755D01*
X130819449Y-90059755D02*
X130705163Y-90021660D01*
X130705163Y-90021660D02*
X130628972Y-90021660D01*
X130628972Y-90021660D02*
X130514687Y-90059755D01*
X130514687Y-90059755D02*
X130476591Y-90097850D01*
X130133734Y-90821660D02*
X130133734Y-90021660D01*
X129752782Y-90821660D02*
X129752782Y-90021660D01*
X129752782Y-90021660D02*
X129295639Y-90821660D01*
X129295639Y-90821660D02*
X129295639Y-90021660D01*
X130476591Y-92033424D02*
X130514687Y-92071520D01*
X130514687Y-92071520D02*
X130628972Y-92109615D01*
X130628972Y-92109615D02*
X130705163Y-92109615D01*
X130705163Y-92109615D02*
X130819449Y-92071520D01*
X130819449Y-92071520D02*
X130895639Y-91995329D01*
X130895639Y-91995329D02*
X130933734Y-91919139D01*
X130933734Y-91919139D02*
X130971830Y-91766758D01*
X130971830Y-91766758D02*
X130971830Y-91652472D01*
X130971830Y-91652472D02*
X130933734Y-91500091D01*
X130933734Y-91500091D02*
X130895639Y-91423900D01*
X130895639Y-91423900D02*
X130819449Y-91347710D01*
X130819449Y-91347710D02*
X130705163Y-91309615D01*
X130705163Y-91309615D02*
X130628972Y-91309615D01*
X130628972Y-91309615D02*
X130514687Y-91347710D01*
X130514687Y-91347710D02*
X130476591Y-91385805D01*
X130133734Y-92109615D02*
X130133734Y-91309615D01*
X129752782Y-92109615D02*
X129752782Y-91309615D01*
X129752782Y-91309615D02*
X129448020Y-91309615D01*
X129448020Y-91309615D02*
X129371830Y-91347710D01*
X129371830Y-91347710D02*
X129333735Y-91385805D01*
X129333735Y-91385805D02*
X129295639Y-91461996D01*
X129295639Y-91461996D02*
X129295639Y-91576281D01*
X129295639Y-91576281D02*
X129333735Y-91652472D01*
X129333735Y-91652472D02*
X129371830Y-91690567D01*
X129371830Y-91690567D02*
X129448020Y-91728662D01*
X129448020Y-91728662D02*
X129752782Y-91728662D01*
X131009925Y-93397570D02*
X130590877Y-92864236D01*
X131009925Y-92864236D02*
X130590877Y-93397570D01*
X131009925Y-94685525D02*
X130590877Y-94152191D01*
X131009925Y-94152191D02*
X130590877Y-94685525D01*
X131009925Y-95973480D02*
X130590877Y-95440146D01*
X131009925Y-95440146D02*
X130590877Y-95973480D01*
X131009925Y-97261435D02*
X130590877Y-96728101D01*
X131009925Y-96728101D02*
X130590877Y-97261435D01*
X130933734Y-98549390D02*
X130933734Y-97749390D01*
X130933734Y-97749390D02*
X130743258Y-97749390D01*
X130743258Y-97749390D02*
X130628972Y-97787485D01*
X130628972Y-97787485D02*
X130552782Y-97863675D01*
X130552782Y-97863675D02*
X130514687Y-97939866D01*
X130514687Y-97939866D02*
X130476591Y-98092247D01*
X130476591Y-98092247D02*
X130476591Y-98206533D01*
X130476591Y-98206533D02*
X130514687Y-98358914D01*
X130514687Y-98358914D02*
X130552782Y-98435104D01*
X130552782Y-98435104D02*
X130628972Y-98511295D01*
X130628972Y-98511295D02*
X130743258Y-98549390D01*
X130743258Y-98549390D02*
X130933734Y-98549390D01*
X130133734Y-98549390D02*
X130133734Y-97749390D01*
X129790878Y-98511295D02*
X129676592Y-98549390D01*
X129676592Y-98549390D02*
X129486116Y-98549390D01*
X129486116Y-98549390D02*
X129409925Y-98511295D01*
X129409925Y-98511295D02*
X129371830Y-98473199D01*
X129371830Y-98473199D02*
X129333735Y-98397009D01*
X129333735Y-98397009D02*
X129333735Y-98320818D01*
X129333735Y-98320818D02*
X129371830Y-98244628D01*
X129371830Y-98244628D02*
X129409925Y-98206533D01*
X129409925Y-98206533D02*
X129486116Y-98168437D01*
X129486116Y-98168437D02*
X129638497Y-98130342D01*
X129638497Y-98130342D02*
X129714687Y-98092247D01*
X129714687Y-98092247D02*
X129752782Y-98054152D01*
X129752782Y-98054152D02*
X129790878Y-97977961D01*
X129790878Y-97977961D02*
X129790878Y-97901771D01*
X129790878Y-97901771D02*
X129752782Y-97825580D01*
X129752782Y-97825580D02*
X129714687Y-97787485D01*
X129714687Y-97787485D02*
X129638497Y-97749390D01*
X129638497Y-97749390D02*
X129448020Y-97749390D01*
X129448020Y-97749390D02*
X129333735Y-97787485D01*
X130476591Y-99837345D02*
X130743258Y-99456392D01*
X130933734Y-99837345D02*
X130933734Y-99037345D01*
X130933734Y-99037345D02*
X130628972Y-99037345D01*
X130628972Y-99037345D02*
X130552782Y-99075440D01*
X130552782Y-99075440D02*
X130514687Y-99113535D01*
X130514687Y-99113535D02*
X130476591Y-99189726D01*
X130476591Y-99189726D02*
X130476591Y-99304011D01*
X130476591Y-99304011D02*
X130514687Y-99380202D01*
X130514687Y-99380202D02*
X130552782Y-99418297D01*
X130552782Y-99418297D02*
X130628972Y-99456392D01*
X130628972Y-99456392D02*
X130933734Y-99456392D01*
X130133734Y-99418297D02*
X129867068Y-99418297D01*
X129752782Y-99837345D02*
X130133734Y-99837345D01*
X130133734Y-99837345D02*
X130133734Y-99037345D01*
X130133734Y-99037345D02*
X129752782Y-99037345D01*
X129448020Y-99799250D02*
X129333734Y-99837345D01*
X129333734Y-99837345D02*
X129143258Y-99837345D01*
X129143258Y-99837345D02*
X129067067Y-99799250D01*
X129067067Y-99799250D02*
X129028972Y-99761154D01*
X129028972Y-99761154D02*
X128990877Y-99684964D01*
X128990877Y-99684964D02*
X128990877Y-99608773D01*
X128990877Y-99608773D02*
X129028972Y-99532583D01*
X129028972Y-99532583D02*
X129067067Y-99494488D01*
X129067067Y-99494488D02*
X129143258Y-99456392D01*
X129143258Y-99456392D02*
X129295639Y-99418297D01*
X129295639Y-99418297D02*
X129371829Y-99380202D01*
X129371829Y-99380202D02*
X129409924Y-99342107D01*
X129409924Y-99342107D02*
X129448020Y-99265916D01*
X129448020Y-99265916D02*
X129448020Y-99189726D01*
X129448020Y-99189726D02*
X129409924Y-99113535D01*
X129409924Y-99113535D02*
X129371829Y-99075440D01*
X129371829Y-99075440D02*
X129295639Y-99037345D01*
X129295639Y-99037345D02*
X129105162Y-99037345D01*
X129105162Y-99037345D02*
X128990877Y-99075440D01*
X130667068Y-100706252D02*
X130933734Y-100706252D01*
X130933734Y-101125300D02*
X130933734Y-100325300D01*
X130933734Y-100325300D02*
X130552782Y-100325300D01*
X129828973Y-101125300D02*
X130286116Y-101125300D01*
X130057544Y-101125300D02*
X130057544Y-100325300D01*
X130057544Y-100325300D02*
X130133735Y-100439585D01*
X130133735Y-100439585D02*
X130209925Y-100515776D01*
X130209925Y-100515776D02*
X130286116Y-100553871D01*
X129486115Y-101125300D02*
X129486115Y-100325300D01*
X129486115Y-100325300D02*
X129028972Y-101125300D01*
X129028972Y-101125300D02*
X129028972Y-100325300D01*
X130667068Y-101994207D02*
X130933734Y-101994207D01*
X130933734Y-102413255D02*
X130933734Y-101613255D01*
X130933734Y-101613255D02*
X130552782Y-101613255D01*
X129828973Y-102413255D02*
X130286116Y-102413255D01*
X130057544Y-102413255D02*
X130057544Y-101613255D01*
X130057544Y-101613255D02*
X130133735Y-101727540D01*
X130133735Y-101727540D02*
X130209925Y-101803731D01*
X130209925Y-101803731D02*
X130286116Y-101841826D01*
X129486115Y-102413255D02*
X129486115Y-101613255D01*
X129486115Y-101613255D02*
X129181353Y-101613255D01*
X129181353Y-101613255D02*
X129105163Y-101651350D01*
X129105163Y-101651350D02*
X129067068Y-101689445D01*
X129067068Y-101689445D02*
X129028972Y-101765636D01*
X129028972Y-101765636D02*
X129028972Y-101879921D01*
X129028972Y-101879921D02*
X129067068Y-101956112D01*
X129067068Y-101956112D02*
X129105163Y-101994207D01*
X129105163Y-101994207D02*
X129181353Y-102032302D01*
X129181353Y-102032302D02*
X129486115Y-102032302D01*
X130933734Y-103701210D02*
X130933734Y-102901210D01*
X130933734Y-102901210D02*
X130743258Y-102901210D01*
X130743258Y-102901210D02*
X130628972Y-102939305D01*
X130628972Y-102939305D02*
X130552782Y-103015495D01*
X130552782Y-103015495D02*
X130514687Y-103091686D01*
X130514687Y-103091686D02*
X130476591Y-103244067D01*
X130476591Y-103244067D02*
X130476591Y-103358353D01*
X130476591Y-103358353D02*
X130514687Y-103510734D01*
X130514687Y-103510734D02*
X130552782Y-103586924D01*
X130552782Y-103586924D02*
X130628972Y-103663115D01*
X130628972Y-103663115D02*
X130743258Y-103701210D01*
X130743258Y-103701210D02*
X130933734Y-103701210D01*
X129714687Y-103701210D02*
X130171830Y-103701210D01*
X129943258Y-103701210D02*
X129943258Y-102901210D01*
X129943258Y-102901210D02*
X130019449Y-103015495D01*
X130019449Y-103015495D02*
X130095639Y-103091686D01*
X130095639Y-103091686D02*
X130171830Y-103129781D01*
X129371829Y-103701210D02*
X129371829Y-102901210D01*
X129371829Y-102901210D02*
X128914686Y-103701210D01*
X128914686Y-103701210D02*
X128914686Y-102901210D01*
X130933734Y-104989165D02*
X130933734Y-104189165D01*
X130933734Y-104189165D02*
X130743258Y-104189165D01*
X130743258Y-104189165D02*
X130628972Y-104227260D01*
X130628972Y-104227260D02*
X130552782Y-104303450D01*
X130552782Y-104303450D02*
X130514687Y-104379641D01*
X130514687Y-104379641D02*
X130476591Y-104532022D01*
X130476591Y-104532022D02*
X130476591Y-104646308D01*
X130476591Y-104646308D02*
X130514687Y-104798689D01*
X130514687Y-104798689D02*
X130552782Y-104874879D01*
X130552782Y-104874879D02*
X130628972Y-104951070D01*
X130628972Y-104951070D02*
X130743258Y-104989165D01*
X130743258Y-104989165D02*
X130933734Y-104989165D01*
X129714687Y-104989165D02*
X130171830Y-104989165D01*
X129943258Y-104989165D02*
X129943258Y-104189165D01*
X129943258Y-104189165D02*
X130019449Y-104303450D01*
X130019449Y-104303450D02*
X130095639Y-104379641D01*
X130095639Y-104379641D02*
X130171830Y-104417736D01*
X129371829Y-104989165D02*
X129371829Y-104189165D01*
X129371829Y-104189165D02*
X129067067Y-104189165D01*
X129067067Y-104189165D02*
X128990877Y-104227260D01*
X128990877Y-104227260D02*
X128952782Y-104265355D01*
X128952782Y-104265355D02*
X128914686Y-104341546D01*
X128914686Y-104341546D02*
X128914686Y-104455831D01*
X128914686Y-104455831D02*
X128952782Y-104532022D01*
X128952782Y-104532022D02*
X128990877Y-104570117D01*
X128990877Y-104570117D02*
X129067067Y-104608212D01*
X129067067Y-104608212D02*
X129371829Y-104608212D01*
X130667068Y-105858072D02*
X130933734Y-105858072D01*
X130933734Y-106277120D02*
X130933734Y-105477120D01*
X130933734Y-105477120D02*
X130552782Y-105477120D01*
X130286116Y-105553310D02*
X130248020Y-105515215D01*
X130248020Y-105515215D02*
X130171830Y-105477120D01*
X130171830Y-105477120D02*
X129981354Y-105477120D01*
X129981354Y-105477120D02*
X129905163Y-105515215D01*
X129905163Y-105515215D02*
X129867068Y-105553310D01*
X129867068Y-105553310D02*
X129828973Y-105629501D01*
X129828973Y-105629501D02*
X129828973Y-105705691D01*
X129828973Y-105705691D02*
X129867068Y-105819977D01*
X129867068Y-105819977D02*
X130324211Y-106277120D01*
X130324211Y-106277120D02*
X129828973Y-106277120D01*
X129486115Y-106277120D02*
X129486115Y-105477120D01*
X129486115Y-105477120D02*
X129028972Y-106277120D01*
X129028972Y-106277120D02*
X129028972Y-105477120D01*
X130667068Y-107146027D02*
X130933734Y-107146027D01*
X130933734Y-107565075D02*
X130933734Y-106765075D01*
X130933734Y-106765075D02*
X130552782Y-106765075D01*
X130286116Y-106841265D02*
X130248020Y-106803170D01*
X130248020Y-106803170D02*
X130171830Y-106765075D01*
X130171830Y-106765075D02*
X129981354Y-106765075D01*
X129981354Y-106765075D02*
X129905163Y-106803170D01*
X129905163Y-106803170D02*
X129867068Y-106841265D01*
X129867068Y-106841265D02*
X129828973Y-106917456D01*
X129828973Y-106917456D02*
X129828973Y-106993646D01*
X129828973Y-106993646D02*
X129867068Y-107107932D01*
X129867068Y-107107932D02*
X130324211Y-107565075D01*
X130324211Y-107565075D02*
X129828973Y-107565075D01*
X129486115Y-107565075D02*
X129486115Y-106765075D01*
X129486115Y-106765075D02*
X129181353Y-106765075D01*
X129181353Y-106765075D02*
X129105163Y-106803170D01*
X129105163Y-106803170D02*
X129067068Y-106841265D01*
X129067068Y-106841265D02*
X129028972Y-106917456D01*
X129028972Y-106917456D02*
X129028972Y-107031741D01*
X129028972Y-107031741D02*
X129067068Y-107107932D01*
X129067068Y-107107932D02*
X129105163Y-107146027D01*
X129105163Y-107146027D02*
X129181353Y-107184122D01*
X129181353Y-107184122D02*
X129486115Y-107184122D01*
X130933734Y-108853030D02*
X130933734Y-108053030D01*
X130933734Y-108053030D02*
X130743258Y-108053030D01*
X130743258Y-108053030D02*
X130628972Y-108091125D01*
X130628972Y-108091125D02*
X130552782Y-108167315D01*
X130552782Y-108167315D02*
X130514687Y-108243506D01*
X130514687Y-108243506D02*
X130476591Y-108395887D01*
X130476591Y-108395887D02*
X130476591Y-108510173D01*
X130476591Y-108510173D02*
X130514687Y-108662554D01*
X130514687Y-108662554D02*
X130552782Y-108738744D01*
X130552782Y-108738744D02*
X130628972Y-108814935D01*
X130628972Y-108814935D02*
X130743258Y-108853030D01*
X130743258Y-108853030D02*
X130933734Y-108853030D01*
X130171830Y-108129220D02*
X130133734Y-108091125D01*
X130133734Y-108091125D02*
X130057544Y-108053030D01*
X130057544Y-108053030D02*
X129867068Y-108053030D01*
X129867068Y-108053030D02*
X129790877Y-108091125D01*
X129790877Y-108091125D02*
X129752782Y-108129220D01*
X129752782Y-108129220D02*
X129714687Y-108205411D01*
X129714687Y-108205411D02*
X129714687Y-108281601D01*
X129714687Y-108281601D02*
X129752782Y-108395887D01*
X129752782Y-108395887D02*
X130209925Y-108853030D01*
X130209925Y-108853030D02*
X129714687Y-108853030D01*
X129371829Y-108853030D02*
X129371829Y-108053030D01*
X129371829Y-108053030D02*
X128914686Y-108853030D01*
X128914686Y-108853030D02*
X128914686Y-108053030D01*
X130933734Y-110140985D02*
X130933734Y-109340985D01*
X130933734Y-109340985D02*
X130743258Y-109340985D01*
X130743258Y-109340985D02*
X130628972Y-109379080D01*
X130628972Y-109379080D02*
X130552782Y-109455270D01*
X130552782Y-109455270D02*
X130514687Y-109531461D01*
X130514687Y-109531461D02*
X130476591Y-109683842D01*
X130476591Y-109683842D02*
X130476591Y-109798128D01*
X130476591Y-109798128D02*
X130514687Y-109950509D01*
X130514687Y-109950509D02*
X130552782Y-110026699D01*
X130552782Y-110026699D02*
X130628972Y-110102890D01*
X130628972Y-110102890D02*
X130743258Y-110140985D01*
X130743258Y-110140985D02*
X130933734Y-110140985D01*
X130171830Y-109417175D02*
X130133734Y-109379080D01*
X130133734Y-109379080D02*
X130057544Y-109340985D01*
X130057544Y-109340985D02*
X129867068Y-109340985D01*
X129867068Y-109340985D02*
X129790877Y-109379080D01*
X129790877Y-109379080D02*
X129752782Y-109417175D01*
X129752782Y-109417175D02*
X129714687Y-109493366D01*
X129714687Y-109493366D02*
X129714687Y-109569556D01*
X129714687Y-109569556D02*
X129752782Y-109683842D01*
X129752782Y-109683842D02*
X130209925Y-110140985D01*
X130209925Y-110140985D02*
X129714687Y-110140985D01*
X129371829Y-110140985D02*
X129371829Y-109340985D01*
X129371829Y-109340985D02*
X129067067Y-109340985D01*
X129067067Y-109340985D02*
X128990877Y-109379080D01*
X128990877Y-109379080D02*
X128952782Y-109417175D01*
X128952782Y-109417175D02*
X128914686Y-109493366D01*
X128914686Y-109493366D02*
X128914686Y-109607651D01*
X128914686Y-109607651D02*
X128952782Y-109683842D01*
X128952782Y-109683842D02*
X128990877Y-109721937D01*
X128990877Y-109721937D02*
X129067067Y-109760032D01*
X129067067Y-109760032D02*
X129371829Y-109760032D01*
X130476591Y-111428940D02*
X130743258Y-111047987D01*
X130933734Y-111428940D02*
X130933734Y-110628940D01*
X130933734Y-110628940D02*
X130628972Y-110628940D01*
X130628972Y-110628940D02*
X130552782Y-110667035D01*
X130552782Y-110667035D02*
X130514687Y-110705130D01*
X130514687Y-110705130D02*
X130476591Y-110781321D01*
X130476591Y-110781321D02*
X130476591Y-110895606D01*
X130476591Y-110895606D02*
X130514687Y-110971797D01*
X130514687Y-110971797D02*
X130552782Y-111009892D01*
X130552782Y-111009892D02*
X130628972Y-111047987D01*
X130628972Y-111047987D02*
X130933734Y-111047987D01*
X129714687Y-110667035D02*
X129790877Y-110628940D01*
X129790877Y-110628940D02*
X129905163Y-110628940D01*
X129905163Y-110628940D02*
X130019449Y-110667035D01*
X130019449Y-110667035D02*
X130095639Y-110743225D01*
X130095639Y-110743225D02*
X130133734Y-110819416D01*
X130133734Y-110819416D02*
X130171830Y-110971797D01*
X130171830Y-110971797D02*
X130171830Y-111086083D01*
X130171830Y-111086083D02*
X130133734Y-111238464D01*
X130133734Y-111238464D02*
X130095639Y-111314654D01*
X130095639Y-111314654D02*
X130019449Y-111390845D01*
X130019449Y-111390845D02*
X129905163Y-111428940D01*
X129905163Y-111428940D02*
X129828972Y-111428940D01*
X129828972Y-111428940D02*
X129714687Y-111390845D01*
X129714687Y-111390845D02*
X129676591Y-111352749D01*
X129676591Y-111352749D02*
X129676591Y-111086083D01*
X129676591Y-111086083D02*
X129828972Y-111086083D01*
X129371830Y-111200368D02*
X128990877Y-111200368D01*
X129448020Y-111428940D02*
X129181353Y-110628940D01*
X129181353Y-110628940D02*
X128914687Y-111428940D01*
X131009925Y-111916895D02*
X130476591Y-111916895D01*
X130476591Y-111916895D02*
X131009925Y-112716895D01*
X131009925Y-112716895D02*
X130476591Y-112716895D01*
X129790877Y-111916895D02*
X130171829Y-111916895D01*
X130171829Y-111916895D02*
X130209925Y-112297847D01*
X130209925Y-112297847D02*
X130171829Y-112259752D01*
X130171829Y-112259752D02*
X130095639Y-112221657D01*
X130095639Y-112221657D02*
X129905163Y-112221657D01*
X129905163Y-112221657D02*
X129828972Y-112259752D01*
X129828972Y-112259752D02*
X129790877Y-112297847D01*
X129790877Y-112297847D02*
X129752782Y-112374038D01*
X129752782Y-112374038D02*
X129752782Y-112564514D01*
X129752782Y-112564514D02*
X129790877Y-112640704D01*
X129790877Y-112640704D02*
X129828972Y-112678800D01*
X129828972Y-112678800D02*
X129905163Y-112716895D01*
X129905163Y-112716895D02*
X130095639Y-112716895D01*
X130095639Y-112716895D02*
X130171829Y-112678800D01*
X130171829Y-112678800D02*
X130209925Y-112640704D01*
X129524210Y-111916895D02*
X129257543Y-112716895D01*
X129257543Y-112716895D02*
X128990877Y-111916895D01*
X170103734Y-82374800D02*
X169960877Y-82422419D01*
X169960877Y-82422419D02*
X169722782Y-82422419D01*
X169722782Y-82422419D02*
X169627544Y-82374800D01*
X169627544Y-82374800D02*
X169579925Y-82327180D01*
X169579925Y-82327180D02*
X169532306Y-82231942D01*
X169532306Y-82231942D02*
X169532306Y-82136704D01*
X169532306Y-82136704D02*
X169579925Y-82041466D01*
X169579925Y-82041466D02*
X169627544Y-81993847D01*
X169627544Y-81993847D02*
X169722782Y-81946228D01*
X169722782Y-81946228D02*
X169913258Y-81898609D01*
X169913258Y-81898609D02*
X170008496Y-81850990D01*
X170008496Y-81850990D02*
X170056115Y-81803371D01*
X170056115Y-81803371D02*
X170103734Y-81708133D01*
X170103734Y-81708133D02*
X170103734Y-81612895D01*
X170103734Y-81612895D02*
X170056115Y-81517657D01*
X170056115Y-81517657D02*
X170008496Y-81470038D01*
X170008496Y-81470038D02*
X169913258Y-81422419D01*
X169913258Y-81422419D02*
X169675163Y-81422419D01*
X169675163Y-81422419D02*
X169532306Y-81470038D01*
X169246591Y-81422419D02*
X168675163Y-81422419D01*
X168960877Y-82422419D02*
X168960877Y-81422419D01*
X168151353Y-81422419D02*
X167960877Y-81422419D01*
X167960877Y-81422419D02*
X167865639Y-81470038D01*
X167865639Y-81470038D02*
X167770401Y-81565276D01*
X167770401Y-81565276D02*
X167722782Y-81755752D01*
X167722782Y-81755752D02*
X167722782Y-82089085D01*
X167722782Y-82089085D02*
X167770401Y-82279561D01*
X167770401Y-82279561D02*
X167865639Y-82374800D01*
X167865639Y-82374800D02*
X167960877Y-82422419D01*
X167960877Y-82422419D02*
X168151353Y-82422419D01*
X168151353Y-82422419D02*
X168246591Y-82374800D01*
X168246591Y-82374800D02*
X168341829Y-82279561D01*
X168341829Y-82279561D02*
X168389448Y-82089085D01*
X168389448Y-82089085D02*
X168389448Y-81755752D01*
X168389448Y-81755752D02*
X168341829Y-81565276D01*
X168341829Y-81565276D02*
X168246591Y-81470038D01*
X168246591Y-81470038D02*
X168151353Y-81422419D01*
X167294210Y-82422419D02*
X167294210Y-81422419D01*
X167294210Y-81422419D02*
X166913258Y-81422419D01*
X166913258Y-81422419D02*
X166818020Y-81470038D01*
X166818020Y-81470038D02*
X166770401Y-81517657D01*
X166770401Y-81517657D02*
X166722782Y-81612895D01*
X166722782Y-81612895D02*
X166722782Y-81755752D01*
X166722782Y-81755752D02*
X166770401Y-81850990D01*
X166770401Y-81850990D02*
X166818020Y-81898609D01*
X166818020Y-81898609D02*
X166913258Y-81946228D01*
X166913258Y-81946228D02*
X167294210Y-81946228D01*
X165770401Y-82422419D02*
X166341829Y-82422419D01*
X166056115Y-82422419D02*
X166056115Y-81422419D01*
X166056115Y-81422419D02*
X166151353Y-81565276D01*
X166151353Y-81565276D02*
X166246591Y-81660514D01*
X166246591Y-81660514D02*
X166341829Y-81708133D01*
X169084687Y-99932419D02*
X169418020Y-99456228D01*
X169656115Y-99932419D02*
X169656115Y-98932419D01*
X169656115Y-98932419D02*
X169275163Y-98932419D01*
X169275163Y-98932419D02*
X169179925Y-98980038D01*
X169179925Y-98980038D02*
X169132306Y-99027657D01*
X169132306Y-99027657D02*
X169084687Y-99122895D01*
X169084687Y-99122895D02*
X169084687Y-99265752D01*
X169084687Y-99265752D02*
X169132306Y-99360990D01*
X169132306Y-99360990D02*
X169179925Y-99408609D01*
X169179925Y-99408609D02*
X169275163Y-99456228D01*
X169275163Y-99456228D02*
X169656115Y-99456228D01*
X168656115Y-99408609D02*
X168322782Y-99408609D01*
X168179925Y-99932419D02*
X168656115Y-99932419D01*
X168656115Y-99932419D02*
X168656115Y-98932419D01*
X168656115Y-98932419D02*
X168179925Y-98932419D01*
X167418020Y-99408609D02*
X167751353Y-99408609D01*
X167751353Y-99932419D02*
X167751353Y-98932419D01*
X167751353Y-98932419D02*
X167275163Y-98932419D01*
X166322782Y-99837180D02*
X166370401Y-99884800D01*
X166370401Y-99884800D02*
X166513258Y-99932419D01*
X166513258Y-99932419D02*
X166608496Y-99932419D01*
X166608496Y-99932419D02*
X166751353Y-99884800D01*
X166751353Y-99884800D02*
X166846591Y-99789561D01*
X166846591Y-99789561D02*
X166894210Y-99694323D01*
X166894210Y-99694323D02*
X166941829Y-99503847D01*
X166941829Y-99503847D02*
X166941829Y-99360990D01*
X166941829Y-99360990D02*
X166894210Y-99170514D01*
X166894210Y-99170514D02*
X166846591Y-99075276D01*
X166846591Y-99075276D02*
X166751353Y-98980038D01*
X166751353Y-98980038D02*
X166608496Y-98932419D01*
X166608496Y-98932419D02*
X166513258Y-98932419D01*
X166513258Y-98932419D02*
X166370401Y-98980038D01*
X166370401Y-98980038D02*
X166322782Y-99027657D01*
X165418020Y-99932419D02*
X165894210Y-99932419D01*
X165894210Y-99932419D02*
X165894210Y-98932419D01*
X165084686Y-99932419D02*
X165084686Y-98932419D01*
X164513258Y-99932419D02*
X164941829Y-99360990D01*
X164513258Y-98932419D02*
X165084686Y-99503847D01*
X169953734Y-108536800D02*
X169810877Y-108584419D01*
X169810877Y-108584419D02*
X169572782Y-108584419D01*
X169572782Y-108584419D02*
X169477544Y-108536800D01*
X169477544Y-108536800D02*
X169429925Y-108489180D01*
X169429925Y-108489180D02*
X169382306Y-108393942D01*
X169382306Y-108393942D02*
X169382306Y-108298704D01*
X169382306Y-108298704D02*
X169429925Y-108203466D01*
X169429925Y-108203466D02*
X169477544Y-108155847D01*
X169477544Y-108155847D02*
X169572782Y-108108228D01*
X169572782Y-108108228D02*
X169763258Y-108060609D01*
X169763258Y-108060609D02*
X169858496Y-108012990D01*
X169858496Y-108012990D02*
X169906115Y-107965371D01*
X169906115Y-107965371D02*
X169953734Y-107870133D01*
X169953734Y-107870133D02*
X169953734Y-107774895D01*
X169953734Y-107774895D02*
X169906115Y-107679657D01*
X169906115Y-107679657D02*
X169858496Y-107632038D01*
X169858496Y-107632038D02*
X169763258Y-107584419D01*
X169763258Y-107584419D02*
X169525163Y-107584419D01*
X169525163Y-107584419D02*
X169382306Y-107632038D01*
X169096591Y-107584419D02*
X168525163Y-107584419D01*
X168810877Y-108584419D02*
X168810877Y-107584419D01*
X168001353Y-107584419D02*
X167810877Y-107584419D01*
X167810877Y-107584419D02*
X167715639Y-107632038D01*
X167715639Y-107632038D02*
X167620401Y-107727276D01*
X167620401Y-107727276D02*
X167572782Y-107917752D01*
X167572782Y-107917752D02*
X167572782Y-108251085D01*
X167572782Y-108251085D02*
X167620401Y-108441561D01*
X167620401Y-108441561D02*
X167715639Y-108536800D01*
X167715639Y-108536800D02*
X167810877Y-108584419D01*
X167810877Y-108584419D02*
X168001353Y-108584419D01*
X168001353Y-108584419D02*
X168096591Y-108536800D01*
X168096591Y-108536800D02*
X168191829Y-108441561D01*
X168191829Y-108441561D02*
X168239448Y-108251085D01*
X168239448Y-108251085D02*
X168239448Y-107917752D01*
X168239448Y-107917752D02*
X168191829Y-107727276D01*
X168191829Y-107727276D02*
X168096591Y-107632038D01*
X168096591Y-107632038D02*
X168001353Y-107584419D01*
X167144210Y-108584419D02*
X167144210Y-107584419D01*
X167144210Y-107584419D02*
X166763258Y-107584419D01*
X166763258Y-107584419D02*
X166668020Y-107632038D01*
X166668020Y-107632038D02*
X166620401Y-107679657D01*
X166620401Y-107679657D02*
X166572782Y-107774895D01*
X166572782Y-107774895D02*
X166572782Y-107917752D01*
X166572782Y-107917752D02*
X166620401Y-108012990D01*
X166620401Y-108012990D02*
X166668020Y-108060609D01*
X166668020Y-108060609D02*
X166763258Y-108108228D01*
X166763258Y-108108228D02*
X167144210Y-108108228D01*
X166239448Y-107584419D02*
X165620401Y-107584419D01*
X165620401Y-107584419D02*
X165953734Y-107965371D01*
X165953734Y-107965371D02*
X165810877Y-107965371D01*
X165810877Y-107965371D02*
X165715639Y-108012990D01*
X165715639Y-108012990D02*
X165668020Y-108060609D01*
X165668020Y-108060609D02*
X165620401Y-108155847D01*
X165620401Y-108155847D02*
X165620401Y-108393942D01*
X165620401Y-108393942D02*
X165668020Y-108489180D01*
X165668020Y-108489180D02*
X165715639Y-108536800D01*
X165715639Y-108536800D02*
X165810877Y-108584419D01*
X165810877Y-108584419D02*
X166096591Y-108584419D01*
X166096591Y-108584419D02*
X166191829Y-108536800D01*
X166191829Y-108536800D02*
X166239448Y-108489180D01*
X137508020Y-87445750D02*
X137241353Y-88245750D01*
X137241353Y-88245750D02*
X136974687Y-87445750D01*
X136708020Y-88245750D02*
X136708020Y-87445750D01*
X136174687Y-87445750D02*
X136022306Y-87445750D01*
X136022306Y-87445750D02*
X135946116Y-87483845D01*
X135946116Y-87483845D02*
X135869925Y-87560035D01*
X135869925Y-87560035D02*
X135831830Y-87712416D01*
X135831830Y-87712416D02*
X135831830Y-87979083D01*
X135831830Y-87979083D02*
X135869925Y-88131464D01*
X135869925Y-88131464D02*
X135946116Y-88207655D01*
X135946116Y-88207655D02*
X136022306Y-88245750D01*
X136022306Y-88245750D02*
X136174687Y-88245750D01*
X136174687Y-88245750D02*
X136250878Y-88207655D01*
X136250878Y-88207655D02*
X136327068Y-88131464D01*
X136327068Y-88131464D02*
X136365164Y-87979083D01*
X136365164Y-87979083D02*
X136365164Y-87712416D01*
X136365164Y-87712416D02*
X136327068Y-87560035D01*
X136327068Y-87560035D02*
X136250878Y-87483845D01*
X136250878Y-87483845D02*
X136174687Y-87445750D01*
X137469925Y-89533705D02*
X137050877Y-89000371D01*
X137469925Y-89000371D02*
X137050877Y-89533705D01*
X136936591Y-90745469D02*
X136974687Y-90783565D01*
X136974687Y-90783565D02*
X137088972Y-90821660D01*
X137088972Y-90821660D02*
X137165163Y-90821660D01*
X137165163Y-90821660D02*
X137279449Y-90783565D01*
X137279449Y-90783565D02*
X137355639Y-90707374D01*
X137355639Y-90707374D02*
X137393734Y-90631184D01*
X137393734Y-90631184D02*
X137431830Y-90478803D01*
X137431830Y-90478803D02*
X137431830Y-90364517D01*
X137431830Y-90364517D02*
X137393734Y-90212136D01*
X137393734Y-90212136D02*
X137355639Y-90135945D01*
X137355639Y-90135945D02*
X137279449Y-90059755D01*
X137279449Y-90059755D02*
X137165163Y-90021660D01*
X137165163Y-90021660D02*
X137088972Y-90021660D01*
X137088972Y-90021660D02*
X136974687Y-90059755D01*
X136974687Y-90059755D02*
X136936591Y-90097850D01*
X136441353Y-90021660D02*
X136288972Y-90021660D01*
X136288972Y-90021660D02*
X136212782Y-90059755D01*
X136212782Y-90059755D02*
X136136591Y-90135945D01*
X136136591Y-90135945D02*
X136098496Y-90288326D01*
X136098496Y-90288326D02*
X136098496Y-90554993D01*
X136098496Y-90554993D02*
X136136591Y-90707374D01*
X136136591Y-90707374D02*
X136212782Y-90783565D01*
X136212782Y-90783565D02*
X136288972Y-90821660D01*
X136288972Y-90821660D02*
X136441353Y-90821660D01*
X136441353Y-90821660D02*
X136517544Y-90783565D01*
X136517544Y-90783565D02*
X136593734Y-90707374D01*
X136593734Y-90707374D02*
X136631830Y-90554993D01*
X136631830Y-90554993D02*
X136631830Y-90288326D01*
X136631830Y-90288326D02*
X136593734Y-90135945D01*
X136593734Y-90135945D02*
X136517544Y-90059755D01*
X136517544Y-90059755D02*
X136441353Y-90021660D01*
X135755639Y-90821660D02*
X135755639Y-90021660D01*
X135755639Y-90021660D02*
X135298496Y-90821660D01*
X135298496Y-90821660D02*
X135298496Y-90021660D01*
X136936591Y-92033424D02*
X136974687Y-92071520D01*
X136974687Y-92071520D02*
X137088972Y-92109615D01*
X137088972Y-92109615D02*
X137165163Y-92109615D01*
X137165163Y-92109615D02*
X137279449Y-92071520D01*
X137279449Y-92071520D02*
X137355639Y-91995329D01*
X137355639Y-91995329D02*
X137393734Y-91919139D01*
X137393734Y-91919139D02*
X137431830Y-91766758D01*
X137431830Y-91766758D02*
X137431830Y-91652472D01*
X137431830Y-91652472D02*
X137393734Y-91500091D01*
X137393734Y-91500091D02*
X137355639Y-91423900D01*
X137355639Y-91423900D02*
X137279449Y-91347710D01*
X137279449Y-91347710D02*
X137165163Y-91309615D01*
X137165163Y-91309615D02*
X137088972Y-91309615D01*
X137088972Y-91309615D02*
X136974687Y-91347710D01*
X136974687Y-91347710D02*
X136936591Y-91385805D01*
X136441353Y-91309615D02*
X136288972Y-91309615D01*
X136288972Y-91309615D02*
X136212782Y-91347710D01*
X136212782Y-91347710D02*
X136136591Y-91423900D01*
X136136591Y-91423900D02*
X136098496Y-91576281D01*
X136098496Y-91576281D02*
X136098496Y-91842948D01*
X136098496Y-91842948D02*
X136136591Y-91995329D01*
X136136591Y-91995329D02*
X136212782Y-92071520D01*
X136212782Y-92071520D02*
X136288972Y-92109615D01*
X136288972Y-92109615D02*
X136441353Y-92109615D01*
X136441353Y-92109615D02*
X136517544Y-92071520D01*
X136517544Y-92071520D02*
X136593734Y-91995329D01*
X136593734Y-91995329D02*
X136631830Y-91842948D01*
X136631830Y-91842948D02*
X136631830Y-91576281D01*
X136631830Y-91576281D02*
X136593734Y-91423900D01*
X136593734Y-91423900D02*
X136517544Y-91347710D01*
X136517544Y-91347710D02*
X136441353Y-91309615D01*
X135755639Y-92109615D02*
X135755639Y-91309615D01*
X135755639Y-91309615D02*
X135450877Y-91309615D01*
X135450877Y-91309615D02*
X135374687Y-91347710D01*
X135374687Y-91347710D02*
X135336592Y-91385805D01*
X135336592Y-91385805D02*
X135298496Y-91461996D01*
X135298496Y-91461996D02*
X135298496Y-91576281D01*
X135298496Y-91576281D02*
X135336592Y-91652472D01*
X135336592Y-91652472D02*
X135374687Y-91690567D01*
X135374687Y-91690567D02*
X135450877Y-91728662D01*
X135450877Y-91728662D02*
X135755639Y-91728662D01*
X137393734Y-93397570D02*
X137393734Y-92597570D01*
X137393734Y-92597570D02*
X137127068Y-93168998D01*
X137127068Y-93168998D02*
X136860401Y-92597570D01*
X136860401Y-92597570D02*
X136860401Y-93397570D01*
X136479448Y-93397570D02*
X136479448Y-92597570D01*
X136136592Y-93359475D02*
X136022306Y-93397570D01*
X136022306Y-93397570D02*
X135831830Y-93397570D01*
X135831830Y-93397570D02*
X135755639Y-93359475D01*
X135755639Y-93359475D02*
X135717544Y-93321379D01*
X135717544Y-93321379D02*
X135679449Y-93245189D01*
X135679449Y-93245189D02*
X135679449Y-93168998D01*
X135679449Y-93168998D02*
X135717544Y-93092808D01*
X135717544Y-93092808D02*
X135755639Y-93054713D01*
X135755639Y-93054713D02*
X135831830Y-93016617D01*
X135831830Y-93016617D02*
X135984211Y-92978522D01*
X135984211Y-92978522D02*
X136060401Y-92940427D01*
X136060401Y-92940427D02*
X136098496Y-92902332D01*
X136098496Y-92902332D02*
X136136592Y-92826141D01*
X136136592Y-92826141D02*
X136136592Y-92749951D01*
X136136592Y-92749951D02*
X136098496Y-92673760D01*
X136098496Y-92673760D02*
X136060401Y-92635665D01*
X136060401Y-92635665D02*
X135984211Y-92597570D01*
X135984211Y-92597570D02*
X135793734Y-92597570D01*
X135793734Y-92597570D02*
X135679449Y-92635665D01*
X137393734Y-94685525D02*
X137393734Y-93885525D01*
X137393734Y-93885525D02*
X137127068Y-94456953D01*
X137127068Y-94456953D02*
X136860401Y-93885525D01*
X136860401Y-93885525D02*
X136860401Y-94685525D01*
X136327067Y-93885525D02*
X136174686Y-93885525D01*
X136174686Y-93885525D02*
X136098496Y-93923620D01*
X136098496Y-93923620D02*
X136022305Y-93999810D01*
X136022305Y-93999810D02*
X135984210Y-94152191D01*
X135984210Y-94152191D02*
X135984210Y-94418858D01*
X135984210Y-94418858D02*
X136022305Y-94571239D01*
X136022305Y-94571239D02*
X136098496Y-94647430D01*
X136098496Y-94647430D02*
X136174686Y-94685525D01*
X136174686Y-94685525D02*
X136327067Y-94685525D01*
X136327067Y-94685525D02*
X136403258Y-94647430D01*
X136403258Y-94647430D02*
X136479448Y-94571239D01*
X136479448Y-94571239D02*
X136517544Y-94418858D01*
X136517544Y-94418858D02*
X136517544Y-94152191D01*
X136517544Y-94152191D02*
X136479448Y-93999810D01*
X136479448Y-93999810D02*
X136403258Y-93923620D01*
X136403258Y-93923620D02*
X136327067Y-93885525D01*
X135679449Y-94647430D02*
X135565163Y-94685525D01*
X135565163Y-94685525D02*
X135374687Y-94685525D01*
X135374687Y-94685525D02*
X135298496Y-94647430D01*
X135298496Y-94647430D02*
X135260401Y-94609334D01*
X135260401Y-94609334D02*
X135222306Y-94533144D01*
X135222306Y-94533144D02*
X135222306Y-94456953D01*
X135222306Y-94456953D02*
X135260401Y-94380763D01*
X135260401Y-94380763D02*
X135298496Y-94342668D01*
X135298496Y-94342668D02*
X135374687Y-94304572D01*
X135374687Y-94304572D02*
X135527068Y-94266477D01*
X135527068Y-94266477D02*
X135603258Y-94228382D01*
X135603258Y-94228382D02*
X135641353Y-94190287D01*
X135641353Y-94190287D02*
X135679449Y-94114096D01*
X135679449Y-94114096D02*
X135679449Y-94037906D01*
X135679449Y-94037906D02*
X135641353Y-93961715D01*
X135641353Y-93961715D02*
X135603258Y-93923620D01*
X135603258Y-93923620D02*
X135527068Y-93885525D01*
X135527068Y-93885525D02*
X135336591Y-93885525D01*
X135336591Y-93885525D02*
X135222306Y-93923620D01*
X137431830Y-95935385D02*
X137317544Y-95973480D01*
X137317544Y-95973480D02*
X137127068Y-95973480D01*
X137127068Y-95973480D02*
X137050877Y-95935385D01*
X137050877Y-95935385D02*
X137012782Y-95897289D01*
X137012782Y-95897289D02*
X136974687Y-95821099D01*
X136974687Y-95821099D02*
X136974687Y-95744908D01*
X136974687Y-95744908D02*
X137012782Y-95668718D01*
X137012782Y-95668718D02*
X137050877Y-95630623D01*
X137050877Y-95630623D02*
X137127068Y-95592527D01*
X137127068Y-95592527D02*
X137279449Y-95554432D01*
X137279449Y-95554432D02*
X137355639Y-95516337D01*
X137355639Y-95516337D02*
X137393734Y-95478242D01*
X137393734Y-95478242D02*
X137431830Y-95402051D01*
X137431830Y-95402051D02*
X137431830Y-95325861D01*
X137431830Y-95325861D02*
X137393734Y-95249670D01*
X137393734Y-95249670D02*
X137355639Y-95211575D01*
X137355639Y-95211575D02*
X137279449Y-95173480D01*
X137279449Y-95173480D02*
X137088972Y-95173480D01*
X137088972Y-95173480D02*
X136974687Y-95211575D01*
X136174686Y-95897289D02*
X136212782Y-95935385D01*
X136212782Y-95935385D02*
X136327067Y-95973480D01*
X136327067Y-95973480D02*
X136403258Y-95973480D01*
X136403258Y-95973480D02*
X136517544Y-95935385D01*
X136517544Y-95935385D02*
X136593734Y-95859194D01*
X136593734Y-95859194D02*
X136631829Y-95783004D01*
X136631829Y-95783004D02*
X136669925Y-95630623D01*
X136669925Y-95630623D02*
X136669925Y-95516337D01*
X136669925Y-95516337D02*
X136631829Y-95363956D01*
X136631829Y-95363956D02*
X136593734Y-95287765D01*
X136593734Y-95287765D02*
X136517544Y-95211575D01*
X136517544Y-95211575D02*
X136403258Y-95173480D01*
X136403258Y-95173480D02*
X136327067Y-95173480D01*
X136327067Y-95173480D02*
X136212782Y-95211575D01*
X136212782Y-95211575D02*
X136174686Y-95249670D01*
X135831829Y-95973480D02*
X135831829Y-95173480D01*
X135374686Y-95973480D02*
X135717544Y-95516337D01*
X135374686Y-95173480D02*
X135831829Y-95630623D01*
X137431830Y-97223340D02*
X137317544Y-97261435D01*
X137317544Y-97261435D02*
X137127068Y-97261435D01*
X137127068Y-97261435D02*
X137050877Y-97223340D01*
X137050877Y-97223340D02*
X137012782Y-97185244D01*
X137012782Y-97185244D02*
X136974687Y-97109054D01*
X136974687Y-97109054D02*
X136974687Y-97032863D01*
X136974687Y-97032863D02*
X137012782Y-96956673D01*
X137012782Y-96956673D02*
X137050877Y-96918578D01*
X137050877Y-96918578D02*
X137127068Y-96880482D01*
X137127068Y-96880482D02*
X137279449Y-96842387D01*
X137279449Y-96842387D02*
X137355639Y-96804292D01*
X137355639Y-96804292D02*
X137393734Y-96766197D01*
X137393734Y-96766197D02*
X137431830Y-96690006D01*
X137431830Y-96690006D02*
X137431830Y-96613816D01*
X137431830Y-96613816D02*
X137393734Y-96537625D01*
X137393734Y-96537625D02*
X137355639Y-96499530D01*
X137355639Y-96499530D02*
X137279449Y-96461435D01*
X137279449Y-96461435D02*
X137088972Y-96461435D01*
X137088972Y-96461435D02*
X136974687Y-96499530D01*
X136669925Y-97223340D02*
X136555639Y-97261435D01*
X136555639Y-97261435D02*
X136365163Y-97261435D01*
X136365163Y-97261435D02*
X136288972Y-97223340D01*
X136288972Y-97223340D02*
X136250877Y-97185244D01*
X136250877Y-97185244D02*
X136212782Y-97109054D01*
X136212782Y-97109054D02*
X136212782Y-97032863D01*
X136212782Y-97032863D02*
X136250877Y-96956673D01*
X136250877Y-96956673D02*
X136288972Y-96918578D01*
X136288972Y-96918578D02*
X136365163Y-96880482D01*
X136365163Y-96880482D02*
X136517544Y-96842387D01*
X136517544Y-96842387D02*
X136593734Y-96804292D01*
X136593734Y-96804292D02*
X136631829Y-96766197D01*
X136631829Y-96766197D02*
X136669925Y-96690006D01*
X136669925Y-96690006D02*
X136669925Y-96613816D01*
X136669925Y-96613816D02*
X136631829Y-96537625D01*
X136631829Y-96537625D02*
X136593734Y-96499530D01*
X136593734Y-96499530D02*
X136517544Y-96461435D01*
X136517544Y-96461435D02*
X136327067Y-96461435D01*
X136327067Y-96461435D02*
X136212782Y-96499530D01*
X135869924Y-97261435D02*
X135869924Y-96461435D01*
X135869924Y-96461435D02*
X135412781Y-97261435D01*
X135412781Y-97261435D02*
X135412781Y-96461435D01*
X137393734Y-98549390D02*
X137393734Y-97749390D01*
X137012782Y-98549390D02*
X137012782Y-97749390D01*
X137012782Y-97749390D02*
X136555639Y-98549390D01*
X136555639Y-98549390D02*
X136555639Y-97749390D01*
X136288973Y-97749390D02*
X135831830Y-97749390D01*
X136060402Y-98549390D02*
X136060402Y-97749390D01*
X137393734Y-99837345D02*
X137393734Y-99037345D01*
X137393734Y-99037345D02*
X137088972Y-99037345D01*
X137088972Y-99037345D02*
X137012782Y-99075440D01*
X137012782Y-99075440D02*
X136974687Y-99113535D01*
X136974687Y-99113535D02*
X136936591Y-99189726D01*
X136936591Y-99189726D02*
X136936591Y-99304011D01*
X136936591Y-99304011D02*
X136974687Y-99380202D01*
X136974687Y-99380202D02*
X137012782Y-99418297D01*
X137012782Y-99418297D02*
X137088972Y-99456392D01*
X137088972Y-99456392D02*
X137393734Y-99456392D01*
X136631830Y-99608773D02*
X136250877Y-99608773D01*
X136708020Y-99837345D02*
X136441353Y-99037345D01*
X136441353Y-99037345D02*
X136174687Y-99837345D01*
X135450877Y-99837345D02*
X135717544Y-99456392D01*
X135908020Y-99837345D02*
X135908020Y-99037345D01*
X135908020Y-99037345D02*
X135603258Y-99037345D01*
X135603258Y-99037345D02*
X135527068Y-99075440D01*
X135527068Y-99075440D02*
X135488973Y-99113535D01*
X135488973Y-99113535D02*
X135450877Y-99189726D01*
X135450877Y-99189726D02*
X135450877Y-99304011D01*
X135450877Y-99304011D02*
X135488973Y-99380202D01*
X135488973Y-99380202D02*
X135527068Y-99418297D01*
X135527068Y-99418297D02*
X135603258Y-99456392D01*
X135603258Y-99456392D02*
X135908020Y-99456392D01*
X137127068Y-100706252D02*
X137393734Y-100706252D01*
X137393734Y-101125300D02*
X137393734Y-100325300D01*
X137393734Y-100325300D02*
X137012782Y-100325300D01*
X136784211Y-100325300D02*
X136288973Y-100325300D01*
X136288973Y-100325300D02*
X136555639Y-100630062D01*
X136555639Y-100630062D02*
X136441354Y-100630062D01*
X136441354Y-100630062D02*
X136365163Y-100668157D01*
X136365163Y-100668157D02*
X136327068Y-100706252D01*
X136327068Y-100706252D02*
X136288973Y-100782443D01*
X136288973Y-100782443D02*
X136288973Y-100972919D01*
X136288973Y-100972919D02*
X136327068Y-101049109D01*
X136327068Y-101049109D02*
X136365163Y-101087205D01*
X136365163Y-101087205D02*
X136441354Y-101125300D01*
X136441354Y-101125300D02*
X136669925Y-101125300D01*
X136669925Y-101125300D02*
X136746116Y-101087205D01*
X136746116Y-101087205D02*
X136784211Y-101049109D01*
X135946115Y-101125300D02*
X135946115Y-100325300D01*
X135946115Y-100325300D02*
X135488972Y-101125300D01*
X135488972Y-101125300D02*
X135488972Y-100325300D01*
X137127068Y-101994207D02*
X137393734Y-101994207D01*
X137393734Y-102413255D02*
X137393734Y-101613255D01*
X137393734Y-101613255D02*
X137012782Y-101613255D01*
X136784211Y-101613255D02*
X136288973Y-101613255D01*
X136288973Y-101613255D02*
X136555639Y-101918017D01*
X136555639Y-101918017D02*
X136441354Y-101918017D01*
X136441354Y-101918017D02*
X136365163Y-101956112D01*
X136365163Y-101956112D02*
X136327068Y-101994207D01*
X136327068Y-101994207D02*
X136288973Y-102070398D01*
X136288973Y-102070398D02*
X136288973Y-102260874D01*
X136288973Y-102260874D02*
X136327068Y-102337064D01*
X136327068Y-102337064D02*
X136365163Y-102375160D01*
X136365163Y-102375160D02*
X136441354Y-102413255D01*
X136441354Y-102413255D02*
X136669925Y-102413255D01*
X136669925Y-102413255D02*
X136746116Y-102375160D01*
X136746116Y-102375160D02*
X136784211Y-102337064D01*
X135946115Y-102413255D02*
X135946115Y-101613255D01*
X135946115Y-101613255D02*
X135641353Y-101613255D01*
X135641353Y-101613255D02*
X135565163Y-101651350D01*
X135565163Y-101651350D02*
X135527068Y-101689445D01*
X135527068Y-101689445D02*
X135488972Y-101765636D01*
X135488972Y-101765636D02*
X135488972Y-101879921D01*
X135488972Y-101879921D02*
X135527068Y-101956112D01*
X135527068Y-101956112D02*
X135565163Y-101994207D01*
X135565163Y-101994207D02*
X135641353Y-102032302D01*
X135641353Y-102032302D02*
X135946115Y-102032302D01*
X137393734Y-103701210D02*
X137393734Y-102901210D01*
X137393734Y-102901210D02*
X137203258Y-102901210D01*
X137203258Y-102901210D02*
X137088972Y-102939305D01*
X137088972Y-102939305D02*
X137012782Y-103015495D01*
X137012782Y-103015495D02*
X136974687Y-103091686D01*
X136974687Y-103091686D02*
X136936591Y-103244067D01*
X136936591Y-103244067D02*
X136936591Y-103358353D01*
X136936591Y-103358353D02*
X136974687Y-103510734D01*
X136974687Y-103510734D02*
X137012782Y-103586924D01*
X137012782Y-103586924D02*
X137088972Y-103663115D01*
X137088972Y-103663115D02*
X137203258Y-103701210D01*
X137203258Y-103701210D02*
X137393734Y-103701210D01*
X136669925Y-102901210D02*
X136174687Y-102901210D01*
X136174687Y-102901210D02*
X136441353Y-103205972D01*
X136441353Y-103205972D02*
X136327068Y-103205972D01*
X136327068Y-103205972D02*
X136250877Y-103244067D01*
X136250877Y-103244067D02*
X136212782Y-103282162D01*
X136212782Y-103282162D02*
X136174687Y-103358353D01*
X136174687Y-103358353D02*
X136174687Y-103548829D01*
X136174687Y-103548829D02*
X136212782Y-103625019D01*
X136212782Y-103625019D02*
X136250877Y-103663115D01*
X136250877Y-103663115D02*
X136327068Y-103701210D01*
X136327068Y-103701210D02*
X136555639Y-103701210D01*
X136555639Y-103701210D02*
X136631830Y-103663115D01*
X136631830Y-103663115D02*
X136669925Y-103625019D01*
X135831829Y-103701210D02*
X135831829Y-102901210D01*
X135831829Y-102901210D02*
X135374686Y-103701210D01*
X135374686Y-103701210D02*
X135374686Y-102901210D01*
X137393734Y-104989165D02*
X137393734Y-104189165D01*
X137393734Y-104189165D02*
X137203258Y-104189165D01*
X137203258Y-104189165D02*
X137088972Y-104227260D01*
X137088972Y-104227260D02*
X137012782Y-104303450D01*
X137012782Y-104303450D02*
X136974687Y-104379641D01*
X136974687Y-104379641D02*
X136936591Y-104532022D01*
X136936591Y-104532022D02*
X136936591Y-104646308D01*
X136936591Y-104646308D02*
X136974687Y-104798689D01*
X136974687Y-104798689D02*
X137012782Y-104874879D01*
X137012782Y-104874879D02*
X137088972Y-104951070D01*
X137088972Y-104951070D02*
X137203258Y-104989165D01*
X137203258Y-104989165D02*
X137393734Y-104989165D01*
X136669925Y-104189165D02*
X136174687Y-104189165D01*
X136174687Y-104189165D02*
X136441353Y-104493927D01*
X136441353Y-104493927D02*
X136327068Y-104493927D01*
X136327068Y-104493927D02*
X136250877Y-104532022D01*
X136250877Y-104532022D02*
X136212782Y-104570117D01*
X136212782Y-104570117D02*
X136174687Y-104646308D01*
X136174687Y-104646308D02*
X136174687Y-104836784D01*
X136174687Y-104836784D02*
X136212782Y-104912974D01*
X136212782Y-104912974D02*
X136250877Y-104951070D01*
X136250877Y-104951070D02*
X136327068Y-104989165D01*
X136327068Y-104989165D02*
X136555639Y-104989165D01*
X136555639Y-104989165D02*
X136631830Y-104951070D01*
X136631830Y-104951070D02*
X136669925Y-104912974D01*
X135831829Y-104989165D02*
X135831829Y-104189165D01*
X135831829Y-104189165D02*
X135527067Y-104189165D01*
X135527067Y-104189165D02*
X135450877Y-104227260D01*
X135450877Y-104227260D02*
X135412782Y-104265355D01*
X135412782Y-104265355D02*
X135374686Y-104341546D01*
X135374686Y-104341546D02*
X135374686Y-104455831D01*
X135374686Y-104455831D02*
X135412782Y-104532022D01*
X135412782Y-104532022D02*
X135450877Y-104570117D01*
X135450877Y-104570117D02*
X135527067Y-104608212D01*
X135527067Y-104608212D02*
X135831829Y-104608212D01*
X137127068Y-105858072D02*
X137393734Y-105858072D01*
X137393734Y-106277120D02*
X137393734Y-105477120D01*
X137393734Y-105477120D02*
X137012782Y-105477120D01*
X136365163Y-105743786D02*
X136365163Y-106277120D01*
X136555639Y-105439025D02*
X136746116Y-106010453D01*
X136746116Y-106010453D02*
X136250877Y-106010453D01*
X135946115Y-106277120D02*
X135946115Y-105477120D01*
X135946115Y-105477120D02*
X135488972Y-106277120D01*
X135488972Y-106277120D02*
X135488972Y-105477120D01*
X137127068Y-107146027D02*
X137393734Y-107146027D01*
X137393734Y-107565075D02*
X137393734Y-106765075D01*
X137393734Y-106765075D02*
X137012782Y-106765075D01*
X136365163Y-107031741D02*
X136365163Y-107565075D01*
X136555639Y-106726980D02*
X136746116Y-107298408D01*
X136746116Y-107298408D02*
X136250877Y-107298408D01*
X135946115Y-107565075D02*
X135946115Y-106765075D01*
X135946115Y-106765075D02*
X135641353Y-106765075D01*
X135641353Y-106765075D02*
X135565163Y-106803170D01*
X135565163Y-106803170D02*
X135527068Y-106841265D01*
X135527068Y-106841265D02*
X135488972Y-106917456D01*
X135488972Y-106917456D02*
X135488972Y-107031741D01*
X135488972Y-107031741D02*
X135527068Y-107107932D01*
X135527068Y-107107932D02*
X135565163Y-107146027D01*
X135565163Y-107146027D02*
X135641353Y-107184122D01*
X135641353Y-107184122D02*
X135946115Y-107184122D01*
X137393734Y-108853030D02*
X137393734Y-108053030D01*
X137393734Y-108053030D02*
X137203258Y-108053030D01*
X137203258Y-108053030D02*
X137088972Y-108091125D01*
X137088972Y-108091125D02*
X137012782Y-108167315D01*
X137012782Y-108167315D02*
X136974687Y-108243506D01*
X136974687Y-108243506D02*
X136936591Y-108395887D01*
X136936591Y-108395887D02*
X136936591Y-108510173D01*
X136936591Y-108510173D02*
X136974687Y-108662554D01*
X136974687Y-108662554D02*
X137012782Y-108738744D01*
X137012782Y-108738744D02*
X137088972Y-108814935D01*
X137088972Y-108814935D02*
X137203258Y-108853030D01*
X137203258Y-108853030D02*
X137393734Y-108853030D01*
X136250877Y-108319696D02*
X136250877Y-108853030D01*
X136441353Y-108014935D02*
X136631830Y-108586363D01*
X136631830Y-108586363D02*
X136136591Y-108586363D01*
X135831829Y-108853030D02*
X135831829Y-108053030D01*
X135831829Y-108053030D02*
X135374686Y-108853030D01*
X135374686Y-108853030D02*
X135374686Y-108053030D01*
X137393734Y-110140985D02*
X137393734Y-109340985D01*
X137393734Y-109340985D02*
X137203258Y-109340985D01*
X137203258Y-109340985D02*
X137088972Y-109379080D01*
X137088972Y-109379080D02*
X137012782Y-109455270D01*
X137012782Y-109455270D02*
X136974687Y-109531461D01*
X136974687Y-109531461D02*
X136936591Y-109683842D01*
X136936591Y-109683842D02*
X136936591Y-109798128D01*
X136936591Y-109798128D02*
X136974687Y-109950509D01*
X136974687Y-109950509D02*
X137012782Y-110026699D01*
X137012782Y-110026699D02*
X137088972Y-110102890D01*
X137088972Y-110102890D02*
X137203258Y-110140985D01*
X137203258Y-110140985D02*
X137393734Y-110140985D01*
X136250877Y-109607651D02*
X136250877Y-110140985D01*
X136441353Y-109302890D02*
X136631830Y-109874318D01*
X136631830Y-109874318D02*
X136136591Y-109874318D01*
X135831829Y-110140985D02*
X135831829Y-109340985D01*
X135831829Y-109340985D02*
X135527067Y-109340985D01*
X135527067Y-109340985D02*
X135450877Y-109379080D01*
X135450877Y-109379080D02*
X135412782Y-109417175D01*
X135412782Y-109417175D02*
X135374686Y-109493366D01*
X135374686Y-109493366D02*
X135374686Y-109607651D01*
X135374686Y-109607651D02*
X135412782Y-109683842D01*
X135412782Y-109683842D02*
X135450877Y-109721937D01*
X135450877Y-109721937D02*
X135527067Y-109760032D01*
X135527067Y-109760032D02*
X135831829Y-109760032D01*
X137393734Y-110895606D02*
X137393734Y-111695606D01*
X137012782Y-111314654D02*
X136974687Y-111390845D01*
X136974687Y-111390845D02*
X136898496Y-111428940D01*
X137393734Y-111314654D02*
X137355639Y-111390845D01*
X137355639Y-111390845D02*
X137279449Y-111428940D01*
X137279449Y-111428940D02*
X137127068Y-111428940D01*
X137127068Y-111428940D02*
X137050877Y-111390845D01*
X137050877Y-111390845D02*
X137012782Y-111314654D01*
X137012782Y-111314654D02*
X137012782Y-110895606D01*
X136555639Y-111428940D02*
X136555639Y-110628940D01*
X136555639Y-110628940D02*
X136288973Y-111200368D01*
X136288973Y-111200368D02*
X136022306Y-110628940D01*
X136022306Y-110628940D02*
X136022306Y-111428940D01*
X135488972Y-110628940D02*
X135336591Y-110628940D01*
X135336591Y-110628940D02*
X135260401Y-110667035D01*
X135260401Y-110667035D02*
X135184210Y-110743225D01*
X135184210Y-110743225D02*
X135146115Y-110895606D01*
X135146115Y-110895606D02*
X135146115Y-111162273D01*
X135146115Y-111162273D02*
X135184210Y-111314654D01*
X135184210Y-111314654D02*
X135260401Y-111390845D01*
X135260401Y-111390845D02*
X135336591Y-111428940D01*
X135336591Y-111428940D02*
X135488972Y-111428940D01*
X135488972Y-111428940D02*
X135565163Y-111390845D01*
X135565163Y-111390845D02*
X135641353Y-111314654D01*
X135641353Y-111314654D02*
X135679449Y-111162273D01*
X135679449Y-111162273D02*
X135679449Y-110895606D01*
X135679449Y-110895606D02*
X135641353Y-110743225D01*
X135641353Y-110743225D02*
X135565163Y-110667035D01*
X135565163Y-110667035D02*
X135488972Y-110628940D01*
X137393734Y-112183561D02*
X137393734Y-112983561D01*
X137012782Y-112602609D02*
X136974687Y-112678800D01*
X136974687Y-112678800D02*
X136898496Y-112716895D01*
X137393734Y-112602609D02*
X137355639Y-112678800D01*
X137355639Y-112678800D02*
X137279449Y-112716895D01*
X137279449Y-112716895D02*
X137127068Y-112716895D01*
X137127068Y-112716895D02*
X137050877Y-112678800D01*
X137050877Y-112678800D02*
X137012782Y-112602609D01*
X137012782Y-112602609D02*
X137012782Y-112183561D01*
X136098496Y-112640704D02*
X136136592Y-112678800D01*
X136136592Y-112678800D02*
X136250877Y-112716895D01*
X136250877Y-112716895D02*
X136327068Y-112716895D01*
X136327068Y-112716895D02*
X136441354Y-112678800D01*
X136441354Y-112678800D02*
X136517544Y-112602609D01*
X136517544Y-112602609D02*
X136555639Y-112526419D01*
X136555639Y-112526419D02*
X136593735Y-112374038D01*
X136593735Y-112374038D02*
X136593735Y-112259752D01*
X136593735Y-112259752D02*
X136555639Y-112107371D01*
X136555639Y-112107371D02*
X136517544Y-112031180D01*
X136517544Y-112031180D02*
X136441354Y-111954990D01*
X136441354Y-111954990D02*
X136327068Y-111916895D01*
X136327068Y-111916895D02*
X136250877Y-111916895D01*
X136250877Y-111916895D02*
X136136592Y-111954990D01*
X136136592Y-111954990D02*
X136098496Y-111993085D01*
X135755639Y-112716895D02*
X135755639Y-111916895D01*
X135298496Y-112716895D02*
X135641354Y-112259752D01*
X135298496Y-111916895D02*
X135755639Y-112374038D01*
D11*
X156344857Y-110722580D02*
X156392476Y-110770200D01*
X156392476Y-110770200D02*
X156535333Y-110817819D01*
X156535333Y-110817819D02*
X156630571Y-110817819D01*
X156630571Y-110817819D02*
X156773428Y-110770200D01*
X156773428Y-110770200D02*
X156868666Y-110674961D01*
X156868666Y-110674961D02*
X156916285Y-110579723D01*
X156916285Y-110579723D02*
X156963904Y-110389247D01*
X156963904Y-110389247D02*
X156963904Y-110246390D01*
X156963904Y-110246390D02*
X156916285Y-110055914D01*
X156916285Y-110055914D02*
X156868666Y-109960676D01*
X156868666Y-109960676D02*
X156773428Y-109865438D01*
X156773428Y-109865438D02*
X156630571Y-109817819D01*
X156630571Y-109817819D02*
X156535333Y-109817819D01*
X156535333Y-109817819D02*
X156392476Y-109865438D01*
X156392476Y-109865438D02*
X156344857Y-109913057D01*
X155392476Y-110817819D02*
X155963904Y-110817819D01*
X155678190Y-110817819D02*
X155678190Y-109817819D01*
X155678190Y-109817819D02*
X155773428Y-109960676D01*
X155773428Y-109960676D02*
X155868666Y-110055914D01*
X155868666Y-110055914D02*
X155963904Y-110103533D01*
X154535333Y-109817819D02*
X154725809Y-109817819D01*
X154725809Y-109817819D02*
X154821047Y-109865438D01*
X154821047Y-109865438D02*
X154868666Y-109913057D01*
X154868666Y-109913057D02*
X154963904Y-110055914D01*
X154963904Y-110055914D02*
X155011523Y-110246390D01*
X155011523Y-110246390D02*
X155011523Y-110627342D01*
X155011523Y-110627342D02*
X154963904Y-110722580D01*
X154963904Y-110722580D02*
X154916285Y-110770200D01*
X154916285Y-110770200D02*
X154821047Y-110817819D01*
X154821047Y-110817819D02*
X154630571Y-110817819D01*
X154630571Y-110817819D02*
X154535333Y-110770200D01*
X154535333Y-110770200D02*
X154487714Y-110722580D01*
X154487714Y-110722580D02*
X154440095Y-110627342D01*
X154440095Y-110627342D02*
X154440095Y-110389247D01*
X154440095Y-110389247D02*
X154487714Y-110294009D01*
X154487714Y-110294009D02*
X154535333Y-110246390D01*
X154535333Y-110246390D02*
X154630571Y-110198771D01*
X154630571Y-110198771D02*
X154821047Y-110198771D01*
X154821047Y-110198771D02*
X154916285Y-110246390D01*
X154916285Y-110246390D02*
X154963904Y-110294009D01*
X154963904Y-110294009D02*
X155011523Y-110389247D01*
X152915857Y-110595580D02*
X152963476Y-110643200D01*
X152963476Y-110643200D02*
X153106333Y-110690819D01*
X153106333Y-110690819D02*
X153201571Y-110690819D01*
X153201571Y-110690819D02*
X153344428Y-110643200D01*
X153344428Y-110643200D02*
X153439666Y-110547961D01*
X153439666Y-110547961D02*
X153487285Y-110452723D01*
X153487285Y-110452723D02*
X153534904Y-110262247D01*
X153534904Y-110262247D02*
X153534904Y-110119390D01*
X153534904Y-110119390D02*
X153487285Y-109928914D01*
X153487285Y-109928914D02*
X153439666Y-109833676D01*
X153439666Y-109833676D02*
X153344428Y-109738438D01*
X153344428Y-109738438D02*
X153201571Y-109690819D01*
X153201571Y-109690819D02*
X153106333Y-109690819D01*
X153106333Y-109690819D02*
X152963476Y-109738438D01*
X152963476Y-109738438D02*
X152915857Y-109786057D01*
X151963476Y-110690819D02*
X152534904Y-110690819D01*
X152249190Y-110690819D02*
X152249190Y-109690819D01*
X152249190Y-109690819D02*
X152344428Y-109833676D01*
X152344428Y-109833676D02*
X152439666Y-109928914D01*
X152439666Y-109928914D02*
X152534904Y-109976533D01*
X151058714Y-109690819D02*
X151534904Y-109690819D01*
X151534904Y-109690819D02*
X151582523Y-110167009D01*
X151582523Y-110167009D02*
X151534904Y-110119390D01*
X151534904Y-110119390D02*
X151439666Y-110071771D01*
X151439666Y-110071771D02*
X151201571Y-110071771D01*
X151201571Y-110071771D02*
X151106333Y-110119390D01*
X151106333Y-110119390D02*
X151058714Y-110167009D01*
X151058714Y-110167009D02*
X151011095Y-110262247D01*
X151011095Y-110262247D02*
X151011095Y-110500342D01*
X151011095Y-110500342D02*
X151058714Y-110595580D01*
X151058714Y-110595580D02*
X151106333Y-110643200D01*
X151106333Y-110643200D02*
X151201571Y-110690819D01*
X151201571Y-110690819D02*
X151439666Y-110690819D01*
X151439666Y-110690819D02*
X151534904Y-110643200D01*
X151534904Y-110643200D02*
X151582523Y-110595580D01*
D14*
X124634713Y-88785476D02*
X125348998Y-88785476D01*
X125348998Y-88785476D02*
X125491855Y-88737857D01*
X125491855Y-88737857D02*
X125587094Y-88642619D01*
X125587094Y-88642619D02*
X125634713Y-88499762D01*
X125634713Y-88499762D02*
X125634713Y-88404524D01*
X125634713Y-89785476D02*
X125634713Y-89214048D01*
X125634713Y-89499762D02*
X124634713Y-89499762D01*
X124634713Y-89499762D02*
X124777570Y-89404524D01*
X124777570Y-89404524D02*
X124872808Y-89309286D01*
X124872808Y-89309286D02*
X124920427Y-89214048D01*
X124634713Y-90690238D02*
X124634713Y-90214048D01*
X124634713Y-90214048D02*
X125110903Y-90166429D01*
X125110903Y-90166429D02*
X125063284Y-90214048D01*
X125063284Y-90214048D02*
X125015665Y-90309286D01*
X125015665Y-90309286D02*
X125015665Y-90547381D01*
X125015665Y-90547381D02*
X125063284Y-90642619D01*
X125063284Y-90642619D02*
X125110903Y-90690238D01*
X125110903Y-90690238D02*
X125206141Y-90737857D01*
X125206141Y-90737857D02*
X125444236Y-90737857D01*
X125444236Y-90737857D02*
X125539474Y-90690238D01*
X125539474Y-90690238D02*
X125587094Y-90642619D01*
X125587094Y-90642619D02*
X125634713Y-90547381D01*
X125634713Y-90547381D02*
X125634713Y-90309286D01*
X125634713Y-90309286D02*
X125587094Y-90214048D01*
X125587094Y-90214048D02*
X125539474Y-90166429D01*
D15*
%TO.C,J15*%
X118334000Y-89462000D02*
X118334000Y-91247000D01*
X118334000Y-109553400D02*
X118334000Y-107743000D01*
X119832000Y-87945000D02*
X118334000Y-89462000D01*
X119832000Y-111045000D02*
X118334000Y-109553400D01*
X121382000Y-87945000D02*
X119832000Y-87945000D01*
X121382000Y-111045000D02*
X119832000Y-111045000D01*
X123414000Y-87945000D02*
X122398000Y-87945000D01*
X123414000Y-111045000D02*
X122398000Y-111045000D01*
X124430000Y-87945000D02*
X123414000Y-87945000D01*
X124430000Y-91247000D02*
X124430000Y-87945000D01*
X124430000Y-107743000D02*
X124430000Y-111045000D01*
X124430000Y-111045000D02*
X123414000Y-111045000D01*
%TD*%
M02*
