%TF.GenerationSoftware,KiCad,Pcbnew,8.0.4*%
%TF.CreationDate,2025-07-14T14:52:45+02:00*%
%TF.ProjectId,syzygy_gpx2_2_1,73797a79-6779-45f6-9770-78325f325f31,rev?*%
%TF.SameCoordinates,Original*%
%TF.FileFunction,Copper,L4,Bot*%
%TF.FilePolarity,Positive*%
%FSLAX46Y46*%
G04 Gerber Fmt 4.6, Leading zero omitted, Abs format (unit mm)*
G04 Created by KiCad (PCBNEW 8.0.4) date 2025-07-14 14:52:45*
%MOMM*%
%LPD*%
G01*
G04 APERTURE LIST*
%ADD10C,0.100000*%
%ADD11C,0.150000*%
%ADD12C,0.300000*%
%ADD13C,0.400000*%
%TA.AperFunction,ComponentPad*%
%ADD14R,1.700000X1.700000*%
%TD*%
%TA.AperFunction,ComponentPad*%
%ADD15O,1.700000X1.700000*%
%TD*%
%TA.AperFunction,ComponentPad*%
%ADD16C,2.240000*%
%TD*%
%TA.AperFunction,ComponentPad*%
%ADD17C,2.740000*%
%TD*%
%TA.AperFunction,ComponentPad*%
%ADD18R,1.600000X1.600000*%
%TD*%
%TA.AperFunction,ComponentPad*%
%ADD19C,1.600000*%
%TD*%
%TA.AperFunction,SMDPad,CuDef*%
%ADD20R,0.640000X2.540000*%
%TD*%
%TA.AperFunction,SMDPad,CuDef*%
%ADD21R,0.640000X4.700000*%
%TD*%
%TA.AperFunction,SMDPad,CuDef*%
%ADD22R,1.450000X0.460000*%
%TD*%
%TA.AperFunction,ComponentPad*%
%ADD23C,1.200000*%
%TD*%
%TA.AperFunction,ViaPad*%
%ADD24C,0.600000*%
%TD*%
%TA.AperFunction,Conductor*%
%ADD25C,0.200000*%
%TD*%
%TA.AperFunction,Conductor*%
%ADD26C,0.400000*%
%TD*%
%TA.AperFunction,Conductor*%
%ADD27C,0.500000*%
%TD*%
%TA.AperFunction,Conductor*%
%ADD28C,0.650000*%
%TD*%
%TA.AperFunction,Conductor*%
%ADD29C,0.300000*%
%TD*%
%TA.AperFunction,Conductor*%
%ADD30C,0.120000*%
%TD*%
G04 APERTURE END LIST*
D10*
D11*
X177002200Y-166007200D02*
X285002200Y-166007200D01*
X285002200Y-198007200D01*
X177002200Y-198007200D01*
X177002200Y-166007200D01*
D10*
D11*
X10000000Y-10000000D02*
X287002200Y-10000000D01*
X287002200Y-200007200D01*
X10000000Y-200007200D01*
X10000000Y-10000000D01*
D10*
D11*
X12000000Y-12000000D02*
X285002200Y-12000000D01*
X285002200Y-198007200D01*
X12000000Y-198007200D01*
X12000000Y-12000000D01*
D10*
D11*
X60000000Y-12000000D02*
X60000000Y-10000000D01*
D10*
D11*
X110000000Y-12000000D02*
X110000000Y-10000000D01*
D10*
D11*
X160000000Y-12000000D02*
X160000000Y-10000000D01*
D10*
D11*
X210000000Y-12000000D02*
X210000000Y-10000000D01*
D10*
D11*
X260000000Y-12000000D02*
X260000000Y-10000000D01*
D10*
D11*
X36089160Y-11593604D02*
X35346303Y-11593604D01*
X35717731Y-11593604D02*
X35717731Y-10293604D01*
X35717731Y-10293604D02*
X35593922Y-10479319D01*
X35593922Y-10479319D02*
X35470112Y-10603128D01*
X35470112Y-10603128D02*
X35346303Y-10665033D01*
D10*
D11*
X85346303Y-10417414D02*
X85408207Y-10355509D01*
X85408207Y-10355509D02*
X85532017Y-10293604D01*
X85532017Y-10293604D02*
X85841541Y-10293604D01*
X85841541Y-10293604D02*
X85965350Y-10355509D01*
X85965350Y-10355509D02*
X86027255Y-10417414D01*
X86027255Y-10417414D02*
X86089160Y-10541223D01*
X86089160Y-10541223D02*
X86089160Y-10665033D01*
X86089160Y-10665033D02*
X86027255Y-10850747D01*
X86027255Y-10850747D02*
X85284398Y-11593604D01*
X85284398Y-11593604D02*
X86089160Y-11593604D01*
D10*
D11*
X135284398Y-10293604D02*
X136089160Y-10293604D01*
X136089160Y-10293604D02*
X135655826Y-10788842D01*
X135655826Y-10788842D02*
X135841541Y-10788842D01*
X135841541Y-10788842D02*
X135965350Y-10850747D01*
X135965350Y-10850747D02*
X136027255Y-10912652D01*
X136027255Y-10912652D02*
X136089160Y-11036461D01*
X136089160Y-11036461D02*
X136089160Y-11345985D01*
X136089160Y-11345985D02*
X136027255Y-11469795D01*
X136027255Y-11469795D02*
X135965350Y-11531700D01*
X135965350Y-11531700D02*
X135841541Y-11593604D01*
X135841541Y-11593604D02*
X135470112Y-11593604D01*
X135470112Y-11593604D02*
X135346303Y-11531700D01*
X135346303Y-11531700D02*
X135284398Y-11469795D01*
D10*
D11*
X185965350Y-10726938D02*
X185965350Y-11593604D01*
X185655826Y-10231700D02*
X185346303Y-11160271D01*
X185346303Y-11160271D02*
X186151064Y-11160271D01*
D10*
D11*
X236027255Y-10293604D02*
X235408207Y-10293604D01*
X235408207Y-10293604D02*
X235346303Y-10912652D01*
X235346303Y-10912652D02*
X235408207Y-10850747D01*
X235408207Y-10850747D02*
X235532017Y-10788842D01*
X235532017Y-10788842D02*
X235841541Y-10788842D01*
X235841541Y-10788842D02*
X235965350Y-10850747D01*
X235965350Y-10850747D02*
X236027255Y-10912652D01*
X236027255Y-10912652D02*
X236089160Y-11036461D01*
X236089160Y-11036461D02*
X236089160Y-11345985D01*
X236089160Y-11345985D02*
X236027255Y-11469795D01*
X236027255Y-11469795D02*
X235965350Y-11531700D01*
X235965350Y-11531700D02*
X235841541Y-11593604D01*
X235841541Y-11593604D02*
X235532017Y-11593604D01*
X235532017Y-11593604D02*
X235408207Y-11531700D01*
X235408207Y-11531700D02*
X235346303Y-11469795D01*
D10*
D11*
X285965350Y-10293604D02*
X285717731Y-10293604D01*
X285717731Y-10293604D02*
X285593922Y-10355509D01*
X285593922Y-10355509D02*
X285532017Y-10417414D01*
X285532017Y-10417414D02*
X285408207Y-10603128D01*
X285408207Y-10603128D02*
X285346303Y-10850747D01*
X285346303Y-10850747D02*
X285346303Y-11345985D01*
X285346303Y-11345985D02*
X285408207Y-11469795D01*
X285408207Y-11469795D02*
X285470112Y-11531700D01*
X285470112Y-11531700D02*
X285593922Y-11593604D01*
X285593922Y-11593604D02*
X285841541Y-11593604D01*
X285841541Y-11593604D02*
X285965350Y-11531700D01*
X285965350Y-11531700D02*
X286027255Y-11469795D01*
X286027255Y-11469795D02*
X286089160Y-11345985D01*
X286089160Y-11345985D02*
X286089160Y-11036461D01*
X286089160Y-11036461D02*
X286027255Y-10912652D01*
X286027255Y-10912652D02*
X285965350Y-10850747D01*
X285965350Y-10850747D02*
X285841541Y-10788842D01*
X285841541Y-10788842D02*
X285593922Y-10788842D01*
X285593922Y-10788842D02*
X285470112Y-10850747D01*
X285470112Y-10850747D02*
X285408207Y-10912652D01*
X285408207Y-10912652D02*
X285346303Y-11036461D01*
D10*
D11*
X60000000Y-198007200D02*
X60000000Y-200007200D01*
D10*
D11*
X110000000Y-198007200D02*
X110000000Y-200007200D01*
D10*
D11*
X160000000Y-198007200D02*
X160000000Y-200007200D01*
D10*
D11*
X210000000Y-198007200D02*
X210000000Y-200007200D01*
D10*
D11*
X260000000Y-198007200D02*
X260000000Y-200007200D01*
D10*
D11*
X36089160Y-199600804D02*
X35346303Y-199600804D01*
X35717731Y-199600804D02*
X35717731Y-198300804D01*
X35717731Y-198300804D02*
X35593922Y-198486519D01*
X35593922Y-198486519D02*
X35470112Y-198610328D01*
X35470112Y-198610328D02*
X35346303Y-198672233D01*
D10*
D11*
X85346303Y-198424614D02*
X85408207Y-198362709D01*
X85408207Y-198362709D02*
X85532017Y-198300804D01*
X85532017Y-198300804D02*
X85841541Y-198300804D01*
X85841541Y-198300804D02*
X85965350Y-198362709D01*
X85965350Y-198362709D02*
X86027255Y-198424614D01*
X86027255Y-198424614D02*
X86089160Y-198548423D01*
X86089160Y-198548423D02*
X86089160Y-198672233D01*
X86089160Y-198672233D02*
X86027255Y-198857947D01*
X86027255Y-198857947D02*
X85284398Y-199600804D01*
X85284398Y-199600804D02*
X86089160Y-199600804D01*
D10*
D11*
X135284398Y-198300804D02*
X136089160Y-198300804D01*
X136089160Y-198300804D02*
X135655826Y-198796042D01*
X135655826Y-198796042D02*
X135841541Y-198796042D01*
X135841541Y-198796042D02*
X135965350Y-198857947D01*
X135965350Y-198857947D02*
X136027255Y-198919852D01*
X136027255Y-198919852D02*
X136089160Y-199043661D01*
X136089160Y-199043661D02*
X136089160Y-199353185D01*
X136089160Y-199353185D02*
X136027255Y-199476995D01*
X136027255Y-199476995D02*
X135965350Y-199538900D01*
X135965350Y-199538900D02*
X135841541Y-199600804D01*
X135841541Y-199600804D02*
X135470112Y-199600804D01*
X135470112Y-199600804D02*
X135346303Y-199538900D01*
X135346303Y-199538900D02*
X135284398Y-199476995D01*
D10*
D11*
X185965350Y-198734138D02*
X185965350Y-199600804D01*
X185655826Y-198238900D02*
X185346303Y-199167471D01*
X185346303Y-199167471D02*
X186151064Y-199167471D01*
D10*
D11*
X236027255Y-198300804D02*
X235408207Y-198300804D01*
X235408207Y-198300804D02*
X235346303Y-198919852D01*
X235346303Y-198919852D02*
X235408207Y-198857947D01*
X235408207Y-198857947D02*
X235532017Y-198796042D01*
X235532017Y-198796042D02*
X235841541Y-198796042D01*
X235841541Y-198796042D02*
X235965350Y-198857947D01*
X235965350Y-198857947D02*
X236027255Y-198919852D01*
X236027255Y-198919852D02*
X236089160Y-199043661D01*
X236089160Y-199043661D02*
X236089160Y-199353185D01*
X236089160Y-199353185D02*
X236027255Y-199476995D01*
X236027255Y-199476995D02*
X235965350Y-199538900D01*
X235965350Y-199538900D02*
X235841541Y-199600804D01*
X235841541Y-199600804D02*
X235532017Y-199600804D01*
X235532017Y-199600804D02*
X235408207Y-199538900D01*
X235408207Y-199538900D02*
X235346303Y-199476995D01*
D10*
D11*
X285965350Y-198300804D02*
X285717731Y-198300804D01*
X285717731Y-198300804D02*
X285593922Y-198362709D01*
X285593922Y-198362709D02*
X285532017Y-198424614D01*
X285532017Y-198424614D02*
X285408207Y-198610328D01*
X285408207Y-198610328D02*
X285346303Y-198857947D01*
X285346303Y-198857947D02*
X285346303Y-199353185D01*
X285346303Y-199353185D02*
X285408207Y-199476995D01*
X285408207Y-199476995D02*
X285470112Y-199538900D01*
X285470112Y-199538900D02*
X285593922Y-199600804D01*
X285593922Y-199600804D02*
X285841541Y-199600804D01*
X285841541Y-199600804D02*
X285965350Y-199538900D01*
X285965350Y-199538900D02*
X286027255Y-199476995D01*
X286027255Y-199476995D02*
X286089160Y-199353185D01*
X286089160Y-199353185D02*
X286089160Y-199043661D01*
X286089160Y-199043661D02*
X286027255Y-198919852D01*
X286027255Y-198919852D02*
X285965350Y-198857947D01*
X285965350Y-198857947D02*
X285841541Y-198796042D01*
X285841541Y-198796042D02*
X285593922Y-198796042D01*
X285593922Y-198796042D02*
X285470112Y-198857947D01*
X285470112Y-198857947D02*
X285408207Y-198919852D01*
X285408207Y-198919852D02*
X285346303Y-199043661D01*
D10*
D11*
X10000000Y-60000000D02*
X12000000Y-60000000D01*
D10*
D11*
X10000000Y-110000000D02*
X12000000Y-110000000D01*
D10*
D11*
X10000000Y-160000000D02*
X12000000Y-160000000D01*
D10*
D11*
X10690476Y-35222176D02*
X11309523Y-35222176D01*
X10566666Y-35593604D02*
X10999999Y-34293604D01*
X10999999Y-34293604D02*
X11433333Y-35593604D01*
D10*
D11*
X11092857Y-84912652D02*
X11278571Y-84974557D01*
X11278571Y-84974557D02*
X11340476Y-85036461D01*
X11340476Y-85036461D02*
X11402380Y-85160271D01*
X11402380Y-85160271D02*
X11402380Y-85345985D01*
X11402380Y-85345985D02*
X11340476Y-85469795D01*
X11340476Y-85469795D02*
X11278571Y-85531700D01*
X11278571Y-85531700D02*
X11154761Y-85593604D01*
X11154761Y-85593604D02*
X10659523Y-85593604D01*
X10659523Y-85593604D02*
X10659523Y-84293604D01*
X10659523Y-84293604D02*
X11092857Y-84293604D01*
X11092857Y-84293604D02*
X11216666Y-84355509D01*
X11216666Y-84355509D02*
X11278571Y-84417414D01*
X11278571Y-84417414D02*
X11340476Y-84541223D01*
X11340476Y-84541223D02*
X11340476Y-84665033D01*
X11340476Y-84665033D02*
X11278571Y-84788842D01*
X11278571Y-84788842D02*
X11216666Y-84850747D01*
X11216666Y-84850747D02*
X11092857Y-84912652D01*
X11092857Y-84912652D02*
X10659523Y-84912652D01*
D10*
D11*
X11402380Y-135469795D02*
X11340476Y-135531700D01*
X11340476Y-135531700D02*
X11154761Y-135593604D01*
X11154761Y-135593604D02*
X11030952Y-135593604D01*
X11030952Y-135593604D02*
X10845238Y-135531700D01*
X10845238Y-135531700D02*
X10721428Y-135407890D01*
X10721428Y-135407890D02*
X10659523Y-135284080D01*
X10659523Y-135284080D02*
X10597619Y-135036461D01*
X10597619Y-135036461D02*
X10597619Y-134850747D01*
X10597619Y-134850747D02*
X10659523Y-134603128D01*
X10659523Y-134603128D02*
X10721428Y-134479319D01*
X10721428Y-134479319D02*
X10845238Y-134355509D01*
X10845238Y-134355509D02*
X11030952Y-134293604D01*
X11030952Y-134293604D02*
X11154761Y-134293604D01*
X11154761Y-134293604D02*
X11340476Y-134355509D01*
X11340476Y-134355509D02*
X11402380Y-134417414D01*
D10*
D11*
X10659523Y-185593604D02*
X10659523Y-184293604D01*
X10659523Y-184293604D02*
X10969047Y-184293604D01*
X10969047Y-184293604D02*
X11154761Y-184355509D01*
X11154761Y-184355509D02*
X11278571Y-184479319D01*
X11278571Y-184479319D02*
X11340476Y-184603128D01*
X11340476Y-184603128D02*
X11402380Y-184850747D01*
X11402380Y-184850747D02*
X11402380Y-185036461D01*
X11402380Y-185036461D02*
X11340476Y-185284080D01*
X11340476Y-185284080D02*
X11278571Y-185407890D01*
X11278571Y-185407890D02*
X11154761Y-185531700D01*
X11154761Y-185531700D02*
X10969047Y-185593604D01*
X10969047Y-185593604D02*
X10659523Y-185593604D01*
D10*
D11*
X287002200Y-60000000D02*
X285002200Y-60000000D01*
D10*
D11*
X287002200Y-110000000D02*
X285002200Y-110000000D01*
D10*
D11*
X287002200Y-160000000D02*
X285002200Y-160000000D01*
D10*
D11*
X285692676Y-35222176D02*
X286311723Y-35222176D01*
X285568866Y-35593604D02*
X286002199Y-34293604D01*
X286002199Y-34293604D02*
X286435533Y-35593604D01*
D10*
D11*
X286095057Y-84912652D02*
X286280771Y-84974557D01*
X286280771Y-84974557D02*
X286342676Y-85036461D01*
X286342676Y-85036461D02*
X286404580Y-85160271D01*
X286404580Y-85160271D02*
X286404580Y-85345985D01*
X286404580Y-85345985D02*
X286342676Y-85469795D01*
X286342676Y-85469795D02*
X286280771Y-85531700D01*
X286280771Y-85531700D02*
X286156961Y-85593604D01*
X286156961Y-85593604D02*
X285661723Y-85593604D01*
X285661723Y-85593604D02*
X285661723Y-84293604D01*
X285661723Y-84293604D02*
X286095057Y-84293604D01*
X286095057Y-84293604D02*
X286218866Y-84355509D01*
X286218866Y-84355509D02*
X286280771Y-84417414D01*
X286280771Y-84417414D02*
X286342676Y-84541223D01*
X286342676Y-84541223D02*
X286342676Y-84665033D01*
X286342676Y-84665033D02*
X286280771Y-84788842D01*
X286280771Y-84788842D02*
X286218866Y-84850747D01*
X286218866Y-84850747D02*
X286095057Y-84912652D01*
X286095057Y-84912652D02*
X285661723Y-84912652D01*
D10*
D11*
X286404580Y-135469795D02*
X286342676Y-135531700D01*
X286342676Y-135531700D02*
X286156961Y-135593604D01*
X286156961Y-135593604D02*
X286033152Y-135593604D01*
X286033152Y-135593604D02*
X285847438Y-135531700D01*
X285847438Y-135531700D02*
X285723628Y-135407890D01*
X285723628Y-135407890D02*
X285661723Y-135284080D01*
X285661723Y-135284080D02*
X285599819Y-135036461D01*
X285599819Y-135036461D02*
X285599819Y-134850747D01*
X285599819Y-134850747D02*
X285661723Y-134603128D01*
X285661723Y-134603128D02*
X285723628Y-134479319D01*
X285723628Y-134479319D02*
X285847438Y-134355509D01*
X285847438Y-134355509D02*
X286033152Y-134293604D01*
X286033152Y-134293604D02*
X286156961Y-134293604D01*
X286156961Y-134293604D02*
X286342676Y-134355509D01*
X286342676Y-134355509D02*
X286404580Y-134417414D01*
D10*
D11*
X285661723Y-185593604D02*
X285661723Y-184293604D01*
X285661723Y-184293604D02*
X285971247Y-184293604D01*
X285971247Y-184293604D02*
X286156961Y-184355509D01*
X286156961Y-184355509D02*
X286280771Y-184479319D01*
X286280771Y-184479319D02*
X286342676Y-184603128D01*
X286342676Y-184603128D02*
X286404580Y-184850747D01*
X286404580Y-184850747D02*
X286404580Y-185036461D01*
X286404580Y-185036461D02*
X286342676Y-185284080D01*
X286342676Y-185284080D02*
X286280771Y-185407890D01*
X286280771Y-185407890D02*
X286156961Y-185531700D01*
X286156961Y-185531700D02*
X285971247Y-185593604D01*
X285971247Y-185593604D02*
X285661723Y-185593604D01*
D10*
D11*
X200458026Y-193793328D02*
X200458026Y-192293328D01*
X200458026Y-192293328D02*
X200815169Y-192293328D01*
X200815169Y-192293328D02*
X201029455Y-192364757D01*
X201029455Y-192364757D02*
X201172312Y-192507614D01*
X201172312Y-192507614D02*
X201243741Y-192650471D01*
X201243741Y-192650471D02*
X201315169Y-192936185D01*
X201315169Y-192936185D02*
X201315169Y-193150471D01*
X201315169Y-193150471D02*
X201243741Y-193436185D01*
X201243741Y-193436185D02*
X201172312Y-193579042D01*
X201172312Y-193579042D02*
X201029455Y-193721900D01*
X201029455Y-193721900D02*
X200815169Y-193793328D01*
X200815169Y-193793328D02*
X200458026Y-193793328D01*
X202600884Y-193793328D02*
X202600884Y-193007614D01*
X202600884Y-193007614D02*
X202529455Y-192864757D01*
X202529455Y-192864757D02*
X202386598Y-192793328D01*
X202386598Y-192793328D02*
X202100884Y-192793328D01*
X202100884Y-192793328D02*
X201958026Y-192864757D01*
X202600884Y-193721900D02*
X202458026Y-193793328D01*
X202458026Y-193793328D02*
X202100884Y-193793328D01*
X202100884Y-193793328D02*
X201958026Y-193721900D01*
X201958026Y-193721900D02*
X201886598Y-193579042D01*
X201886598Y-193579042D02*
X201886598Y-193436185D01*
X201886598Y-193436185D02*
X201958026Y-193293328D01*
X201958026Y-193293328D02*
X202100884Y-193221900D01*
X202100884Y-193221900D02*
X202458026Y-193221900D01*
X202458026Y-193221900D02*
X202600884Y-193150471D01*
X203100884Y-192793328D02*
X203672312Y-192793328D01*
X203315169Y-192293328D02*
X203315169Y-193579042D01*
X203315169Y-193579042D02*
X203386598Y-193721900D01*
X203386598Y-193721900D02*
X203529455Y-193793328D01*
X203529455Y-193793328D02*
X203672312Y-193793328D01*
X204743741Y-193721900D02*
X204600884Y-193793328D01*
X204600884Y-193793328D02*
X204315170Y-193793328D01*
X204315170Y-193793328D02*
X204172312Y-193721900D01*
X204172312Y-193721900D02*
X204100884Y-193579042D01*
X204100884Y-193579042D02*
X204100884Y-193007614D01*
X204100884Y-193007614D02*
X204172312Y-192864757D01*
X204172312Y-192864757D02*
X204315170Y-192793328D01*
X204315170Y-192793328D02*
X204600884Y-192793328D01*
X204600884Y-192793328D02*
X204743741Y-192864757D01*
X204743741Y-192864757D02*
X204815170Y-193007614D01*
X204815170Y-193007614D02*
X204815170Y-193150471D01*
X204815170Y-193150471D02*
X204100884Y-193293328D01*
X205458026Y-193650471D02*
X205529455Y-193721900D01*
X205529455Y-193721900D02*
X205458026Y-193793328D01*
X205458026Y-193793328D02*
X205386598Y-193721900D01*
X205386598Y-193721900D02*
X205458026Y-193650471D01*
X205458026Y-193650471D02*
X205458026Y-193793328D01*
X205458026Y-192864757D02*
X205529455Y-192936185D01*
X205529455Y-192936185D02*
X205458026Y-193007614D01*
X205458026Y-193007614D02*
X205386598Y-192936185D01*
X205386598Y-192936185D02*
X205458026Y-192864757D01*
X205458026Y-192864757D02*
X205458026Y-193007614D01*
D10*
D11*
X177002200Y-194507200D02*
X285002200Y-194507200D01*
D10*
D11*
X178458026Y-196593328D02*
X178458026Y-195093328D01*
X179315169Y-196593328D02*
X178672312Y-195736185D01*
X179315169Y-195093328D02*
X178458026Y-195950471D01*
X179958026Y-196593328D02*
X179958026Y-195593328D01*
X179958026Y-195093328D02*
X179886598Y-195164757D01*
X179886598Y-195164757D02*
X179958026Y-195236185D01*
X179958026Y-195236185D02*
X180029455Y-195164757D01*
X180029455Y-195164757D02*
X179958026Y-195093328D01*
X179958026Y-195093328D02*
X179958026Y-195236185D01*
X181529455Y-196450471D02*
X181458027Y-196521900D01*
X181458027Y-196521900D02*
X181243741Y-196593328D01*
X181243741Y-196593328D02*
X181100884Y-196593328D01*
X181100884Y-196593328D02*
X180886598Y-196521900D01*
X180886598Y-196521900D02*
X180743741Y-196379042D01*
X180743741Y-196379042D02*
X180672312Y-196236185D01*
X180672312Y-196236185D02*
X180600884Y-195950471D01*
X180600884Y-195950471D02*
X180600884Y-195736185D01*
X180600884Y-195736185D02*
X180672312Y-195450471D01*
X180672312Y-195450471D02*
X180743741Y-195307614D01*
X180743741Y-195307614D02*
X180886598Y-195164757D01*
X180886598Y-195164757D02*
X181100884Y-195093328D01*
X181100884Y-195093328D02*
X181243741Y-195093328D01*
X181243741Y-195093328D02*
X181458027Y-195164757D01*
X181458027Y-195164757D02*
X181529455Y-195236185D01*
X182815170Y-196593328D02*
X182815170Y-195807614D01*
X182815170Y-195807614D02*
X182743741Y-195664757D01*
X182743741Y-195664757D02*
X182600884Y-195593328D01*
X182600884Y-195593328D02*
X182315170Y-195593328D01*
X182315170Y-195593328D02*
X182172312Y-195664757D01*
X182815170Y-196521900D02*
X182672312Y-196593328D01*
X182672312Y-196593328D02*
X182315170Y-196593328D01*
X182315170Y-196593328D02*
X182172312Y-196521900D01*
X182172312Y-196521900D02*
X182100884Y-196379042D01*
X182100884Y-196379042D02*
X182100884Y-196236185D01*
X182100884Y-196236185D02*
X182172312Y-196093328D01*
X182172312Y-196093328D02*
X182315170Y-196021900D01*
X182315170Y-196021900D02*
X182672312Y-196021900D01*
X182672312Y-196021900D02*
X182815170Y-195950471D01*
X184172313Y-196593328D02*
X184172313Y-195093328D01*
X184172313Y-196521900D02*
X184029455Y-196593328D01*
X184029455Y-196593328D02*
X183743741Y-196593328D01*
X183743741Y-196593328D02*
X183600884Y-196521900D01*
X183600884Y-196521900D02*
X183529455Y-196450471D01*
X183529455Y-196450471D02*
X183458027Y-196307614D01*
X183458027Y-196307614D02*
X183458027Y-195879042D01*
X183458027Y-195879042D02*
X183529455Y-195736185D01*
X183529455Y-195736185D02*
X183600884Y-195664757D01*
X183600884Y-195664757D02*
X183743741Y-195593328D01*
X183743741Y-195593328D02*
X184029455Y-195593328D01*
X184029455Y-195593328D02*
X184172313Y-195664757D01*
X186029455Y-195807614D02*
X186529455Y-195807614D01*
X186743741Y-196593328D02*
X186029455Y-196593328D01*
X186029455Y-196593328D02*
X186029455Y-195093328D01*
X186029455Y-195093328D02*
X186743741Y-195093328D01*
X187386598Y-196450471D02*
X187458027Y-196521900D01*
X187458027Y-196521900D02*
X187386598Y-196593328D01*
X187386598Y-196593328D02*
X187315170Y-196521900D01*
X187315170Y-196521900D02*
X187386598Y-196450471D01*
X187386598Y-196450471D02*
X187386598Y-196593328D01*
X188100884Y-196593328D02*
X188100884Y-195093328D01*
X188100884Y-195093328D02*
X188458027Y-195093328D01*
X188458027Y-195093328D02*
X188672313Y-195164757D01*
X188672313Y-195164757D02*
X188815170Y-195307614D01*
X188815170Y-195307614D02*
X188886599Y-195450471D01*
X188886599Y-195450471D02*
X188958027Y-195736185D01*
X188958027Y-195736185D02*
X188958027Y-195950471D01*
X188958027Y-195950471D02*
X188886599Y-196236185D01*
X188886599Y-196236185D02*
X188815170Y-196379042D01*
X188815170Y-196379042D02*
X188672313Y-196521900D01*
X188672313Y-196521900D02*
X188458027Y-196593328D01*
X188458027Y-196593328D02*
X188100884Y-196593328D01*
X189600884Y-196450471D02*
X189672313Y-196521900D01*
X189672313Y-196521900D02*
X189600884Y-196593328D01*
X189600884Y-196593328D02*
X189529456Y-196521900D01*
X189529456Y-196521900D02*
X189600884Y-196450471D01*
X189600884Y-196450471D02*
X189600884Y-196593328D01*
X190243742Y-196164757D02*
X190958028Y-196164757D01*
X190100885Y-196593328D02*
X190600885Y-195093328D01*
X190600885Y-195093328D02*
X191100885Y-196593328D01*
X191600884Y-196450471D02*
X191672313Y-196521900D01*
X191672313Y-196521900D02*
X191600884Y-196593328D01*
X191600884Y-196593328D02*
X191529456Y-196521900D01*
X191529456Y-196521900D02*
X191600884Y-196450471D01*
X191600884Y-196450471D02*
X191600884Y-196593328D01*
X193672313Y-195736185D02*
X193529456Y-195664757D01*
X193529456Y-195664757D02*
X193458027Y-195593328D01*
X193458027Y-195593328D02*
X193386599Y-195450471D01*
X193386599Y-195450471D02*
X193386599Y-195379042D01*
X193386599Y-195379042D02*
X193458027Y-195236185D01*
X193458027Y-195236185D02*
X193529456Y-195164757D01*
X193529456Y-195164757D02*
X193672313Y-195093328D01*
X193672313Y-195093328D02*
X193958027Y-195093328D01*
X193958027Y-195093328D02*
X194100885Y-195164757D01*
X194100885Y-195164757D02*
X194172313Y-195236185D01*
X194172313Y-195236185D02*
X194243742Y-195379042D01*
X194243742Y-195379042D02*
X194243742Y-195450471D01*
X194243742Y-195450471D02*
X194172313Y-195593328D01*
X194172313Y-195593328D02*
X194100885Y-195664757D01*
X194100885Y-195664757D02*
X193958027Y-195736185D01*
X193958027Y-195736185D02*
X193672313Y-195736185D01*
X193672313Y-195736185D02*
X193529456Y-195807614D01*
X193529456Y-195807614D02*
X193458027Y-195879042D01*
X193458027Y-195879042D02*
X193386599Y-196021900D01*
X193386599Y-196021900D02*
X193386599Y-196307614D01*
X193386599Y-196307614D02*
X193458027Y-196450471D01*
X193458027Y-196450471D02*
X193529456Y-196521900D01*
X193529456Y-196521900D02*
X193672313Y-196593328D01*
X193672313Y-196593328D02*
X193958027Y-196593328D01*
X193958027Y-196593328D02*
X194100885Y-196521900D01*
X194100885Y-196521900D02*
X194172313Y-196450471D01*
X194172313Y-196450471D02*
X194243742Y-196307614D01*
X194243742Y-196307614D02*
X194243742Y-196021900D01*
X194243742Y-196021900D02*
X194172313Y-195879042D01*
X194172313Y-195879042D02*
X194100885Y-195807614D01*
X194100885Y-195807614D02*
X193958027Y-195736185D01*
X194886598Y-196450471D02*
X194958027Y-196521900D01*
X194958027Y-196521900D02*
X194886598Y-196593328D01*
X194886598Y-196593328D02*
X194815170Y-196521900D01*
X194815170Y-196521900D02*
X194886598Y-196450471D01*
X194886598Y-196450471D02*
X194886598Y-196593328D01*
X195886599Y-195093328D02*
X196029456Y-195093328D01*
X196029456Y-195093328D02*
X196172313Y-195164757D01*
X196172313Y-195164757D02*
X196243742Y-195236185D01*
X196243742Y-195236185D02*
X196315170Y-195379042D01*
X196315170Y-195379042D02*
X196386599Y-195664757D01*
X196386599Y-195664757D02*
X196386599Y-196021900D01*
X196386599Y-196021900D02*
X196315170Y-196307614D01*
X196315170Y-196307614D02*
X196243742Y-196450471D01*
X196243742Y-196450471D02*
X196172313Y-196521900D01*
X196172313Y-196521900D02*
X196029456Y-196593328D01*
X196029456Y-196593328D02*
X195886599Y-196593328D01*
X195886599Y-196593328D02*
X195743742Y-196521900D01*
X195743742Y-196521900D02*
X195672313Y-196450471D01*
X195672313Y-196450471D02*
X195600884Y-196307614D01*
X195600884Y-196307614D02*
X195529456Y-196021900D01*
X195529456Y-196021900D02*
X195529456Y-195664757D01*
X195529456Y-195664757D02*
X195600884Y-195379042D01*
X195600884Y-195379042D02*
X195672313Y-195236185D01*
X195672313Y-195236185D02*
X195743742Y-195164757D01*
X195743742Y-195164757D02*
X195886599Y-195093328D01*
X197029455Y-196450471D02*
X197100884Y-196521900D01*
X197100884Y-196521900D02*
X197029455Y-196593328D01*
X197029455Y-196593328D02*
X196958027Y-196521900D01*
X196958027Y-196521900D02*
X197029455Y-196450471D01*
X197029455Y-196450471D02*
X197029455Y-196593328D01*
X198386599Y-195593328D02*
X198386599Y-196593328D01*
X198029456Y-195021900D02*
X197672313Y-196093328D01*
X197672313Y-196093328D02*
X198600884Y-196093328D01*
D10*
D11*
X177002200Y-191507200D02*
X285002200Y-191507200D01*
D10*
D12*
X264413853Y-193785528D02*
X263913853Y-193071242D01*
X263556710Y-193785528D02*
X263556710Y-192285528D01*
X263556710Y-192285528D02*
X264128139Y-192285528D01*
X264128139Y-192285528D02*
X264270996Y-192356957D01*
X264270996Y-192356957D02*
X264342425Y-192428385D01*
X264342425Y-192428385D02*
X264413853Y-192571242D01*
X264413853Y-192571242D02*
X264413853Y-192785528D01*
X264413853Y-192785528D02*
X264342425Y-192928385D01*
X264342425Y-192928385D02*
X264270996Y-192999814D01*
X264270996Y-192999814D02*
X264128139Y-193071242D01*
X264128139Y-193071242D02*
X263556710Y-193071242D01*
X265628139Y-193714100D02*
X265485282Y-193785528D01*
X265485282Y-193785528D02*
X265199568Y-193785528D01*
X265199568Y-193785528D02*
X265056710Y-193714100D01*
X265056710Y-193714100D02*
X264985282Y-193571242D01*
X264985282Y-193571242D02*
X264985282Y-192999814D01*
X264985282Y-192999814D02*
X265056710Y-192856957D01*
X265056710Y-192856957D02*
X265199568Y-192785528D01*
X265199568Y-192785528D02*
X265485282Y-192785528D01*
X265485282Y-192785528D02*
X265628139Y-192856957D01*
X265628139Y-192856957D02*
X265699568Y-192999814D01*
X265699568Y-192999814D02*
X265699568Y-193142671D01*
X265699568Y-193142671D02*
X264985282Y-193285528D01*
X266199567Y-192785528D02*
X266556710Y-193785528D01*
X266556710Y-193785528D02*
X266913853Y-192785528D01*
X267485281Y-193642671D02*
X267556710Y-193714100D01*
X267556710Y-193714100D02*
X267485281Y-193785528D01*
X267485281Y-193785528D02*
X267413853Y-193714100D01*
X267413853Y-193714100D02*
X267485281Y-193642671D01*
X267485281Y-193642671D02*
X267485281Y-193785528D01*
X267485281Y-192856957D02*
X267556710Y-192928385D01*
X267556710Y-192928385D02*
X267485281Y-192999814D01*
X267485281Y-192999814D02*
X267413853Y-192928385D01*
X267413853Y-192928385D02*
X267485281Y-192856957D01*
X267485281Y-192856957D02*
X267485281Y-192999814D01*
D10*
D11*
X178386598Y-193721900D02*
X178600884Y-193793328D01*
X178600884Y-193793328D02*
X178958026Y-193793328D01*
X178958026Y-193793328D02*
X179100884Y-193721900D01*
X179100884Y-193721900D02*
X179172312Y-193650471D01*
X179172312Y-193650471D02*
X179243741Y-193507614D01*
X179243741Y-193507614D02*
X179243741Y-193364757D01*
X179243741Y-193364757D02*
X179172312Y-193221900D01*
X179172312Y-193221900D02*
X179100884Y-193150471D01*
X179100884Y-193150471D02*
X178958026Y-193079042D01*
X178958026Y-193079042D02*
X178672312Y-193007614D01*
X178672312Y-193007614D02*
X178529455Y-192936185D01*
X178529455Y-192936185D02*
X178458026Y-192864757D01*
X178458026Y-192864757D02*
X178386598Y-192721900D01*
X178386598Y-192721900D02*
X178386598Y-192579042D01*
X178386598Y-192579042D02*
X178458026Y-192436185D01*
X178458026Y-192436185D02*
X178529455Y-192364757D01*
X178529455Y-192364757D02*
X178672312Y-192293328D01*
X178672312Y-192293328D02*
X179029455Y-192293328D01*
X179029455Y-192293328D02*
X179243741Y-192364757D01*
X179886597Y-193793328D02*
X179886597Y-192793328D01*
X179886597Y-192293328D02*
X179815169Y-192364757D01*
X179815169Y-192364757D02*
X179886597Y-192436185D01*
X179886597Y-192436185D02*
X179958026Y-192364757D01*
X179958026Y-192364757D02*
X179886597Y-192293328D01*
X179886597Y-192293328D02*
X179886597Y-192436185D01*
X180458026Y-192793328D02*
X181243741Y-192793328D01*
X181243741Y-192793328D02*
X180458026Y-193793328D01*
X180458026Y-193793328D02*
X181243741Y-193793328D01*
X182386598Y-193721900D02*
X182243741Y-193793328D01*
X182243741Y-193793328D02*
X181958027Y-193793328D01*
X181958027Y-193793328D02*
X181815169Y-193721900D01*
X181815169Y-193721900D02*
X181743741Y-193579042D01*
X181743741Y-193579042D02*
X181743741Y-193007614D01*
X181743741Y-193007614D02*
X181815169Y-192864757D01*
X181815169Y-192864757D02*
X181958027Y-192793328D01*
X181958027Y-192793328D02*
X182243741Y-192793328D01*
X182243741Y-192793328D02*
X182386598Y-192864757D01*
X182386598Y-192864757D02*
X182458027Y-193007614D01*
X182458027Y-193007614D02*
X182458027Y-193150471D01*
X182458027Y-193150471D02*
X181743741Y-193293328D01*
X183100883Y-193650471D02*
X183172312Y-193721900D01*
X183172312Y-193721900D02*
X183100883Y-193793328D01*
X183100883Y-193793328D02*
X183029455Y-193721900D01*
X183029455Y-193721900D02*
X183100883Y-193650471D01*
X183100883Y-193650471D02*
X183100883Y-193793328D01*
X183100883Y-192864757D02*
X183172312Y-192936185D01*
X183172312Y-192936185D02*
X183100883Y-193007614D01*
X183100883Y-193007614D02*
X183029455Y-192936185D01*
X183029455Y-192936185D02*
X183100883Y-192864757D01*
X183100883Y-192864757D02*
X183100883Y-193007614D01*
X184886598Y-193364757D02*
X185600884Y-193364757D01*
X184743741Y-193793328D02*
X185243741Y-192293328D01*
X185243741Y-192293328D02*
X185743741Y-193793328D01*
X186886598Y-192793328D02*
X186886598Y-193793328D01*
X186529455Y-192221900D02*
X186172312Y-193293328D01*
X186172312Y-193293328D02*
X187100883Y-193293328D01*
D10*
D11*
X263458026Y-196593328D02*
X263458026Y-195093328D01*
X264815170Y-196593328D02*
X264815170Y-195093328D01*
X264815170Y-196521900D02*
X264672312Y-196593328D01*
X264672312Y-196593328D02*
X264386598Y-196593328D01*
X264386598Y-196593328D02*
X264243741Y-196521900D01*
X264243741Y-196521900D02*
X264172312Y-196450471D01*
X264172312Y-196450471D02*
X264100884Y-196307614D01*
X264100884Y-196307614D02*
X264100884Y-195879042D01*
X264100884Y-195879042D02*
X264172312Y-195736185D01*
X264172312Y-195736185D02*
X264243741Y-195664757D01*
X264243741Y-195664757D02*
X264386598Y-195593328D01*
X264386598Y-195593328D02*
X264672312Y-195593328D01*
X264672312Y-195593328D02*
X264815170Y-195664757D01*
X265529455Y-196450471D02*
X265600884Y-196521900D01*
X265600884Y-196521900D02*
X265529455Y-196593328D01*
X265529455Y-196593328D02*
X265458027Y-196521900D01*
X265458027Y-196521900D02*
X265529455Y-196450471D01*
X265529455Y-196450471D02*
X265529455Y-196593328D01*
X265529455Y-195664757D02*
X265600884Y-195736185D01*
X265600884Y-195736185D02*
X265529455Y-195807614D01*
X265529455Y-195807614D02*
X265458027Y-195736185D01*
X265458027Y-195736185D02*
X265529455Y-195664757D01*
X265529455Y-195664757D02*
X265529455Y-195807614D01*
X268172313Y-196593328D02*
X267315170Y-196593328D01*
X267743741Y-196593328D02*
X267743741Y-195093328D01*
X267743741Y-195093328D02*
X267600884Y-195307614D01*
X267600884Y-195307614D02*
X267458027Y-195450471D01*
X267458027Y-195450471D02*
X267315170Y-195521900D01*
X269886598Y-195021900D02*
X268600884Y-196950471D01*
X271172313Y-196593328D02*
X270315170Y-196593328D01*
X270743741Y-196593328D02*
X270743741Y-195093328D01*
X270743741Y-195093328D02*
X270600884Y-195307614D01*
X270600884Y-195307614D02*
X270458027Y-195450471D01*
X270458027Y-195450471D02*
X270315170Y-195521900D01*
D10*
D11*
X177002200Y-187507200D02*
X285002200Y-187507200D01*
D10*
D13*
X178693928Y-188211638D02*
X179836785Y-188211638D01*
X179015357Y-190211638D02*
X179265357Y-188211638D01*
X180253452Y-190211638D02*
X180420119Y-188878304D01*
X180503452Y-188211638D02*
X180396309Y-188306876D01*
X180396309Y-188306876D02*
X180479643Y-188402114D01*
X180479643Y-188402114D02*
X180586786Y-188306876D01*
X180586786Y-188306876D02*
X180503452Y-188211638D01*
X180503452Y-188211638D02*
X180479643Y-188402114D01*
X181086786Y-188878304D02*
X181848690Y-188878304D01*
X181455833Y-188211638D02*
X181241548Y-189925923D01*
X181241548Y-189925923D02*
X181312976Y-190116400D01*
X181312976Y-190116400D02*
X181491548Y-190211638D01*
X181491548Y-190211638D02*
X181682024Y-190211638D01*
X182634405Y-190211638D02*
X182455833Y-190116400D01*
X182455833Y-190116400D02*
X182384405Y-189925923D01*
X182384405Y-189925923D02*
X182598690Y-188211638D01*
X184170119Y-190116400D02*
X183967738Y-190211638D01*
X183967738Y-190211638D02*
X183586785Y-190211638D01*
X183586785Y-190211638D02*
X183408214Y-190116400D01*
X183408214Y-190116400D02*
X183336785Y-189925923D01*
X183336785Y-189925923D02*
X183432024Y-189164019D01*
X183432024Y-189164019D02*
X183551071Y-188973542D01*
X183551071Y-188973542D02*
X183753452Y-188878304D01*
X183753452Y-188878304D02*
X184134404Y-188878304D01*
X184134404Y-188878304D02*
X184312976Y-188973542D01*
X184312976Y-188973542D02*
X184384404Y-189164019D01*
X184384404Y-189164019D02*
X184360595Y-189354495D01*
X184360595Y-189354495D02*
X183384404Y-189544971D01*
X185134405Y-190021161D02*
X185217738Y-190116400D01*
X185217738Y-190116400D02*
X185110595Y-190211638D01*
X185110595Y-190211638D02*
X185027262Y-190116400D01*
X185027262Y-190116400D02*
X185134405Y-190021161D01*
X185134405Y-190021161D02*
X185110595Y-190211638D01*
X185265357Y-188973542D02*
X185348690Y-189068780D01*
X185348690Y-189068780D02*
X185241548Y-189164019D01*
X185241548Y-189164019D02*
X185158214Y-189068780D01*
X185158214Y-189068780D02*
X185265357Y-188973542D01*
X185265357Y-188973542D02*
X185241548Y-189164019D01*
D10*
D11*
X178958026Y-185607614D02*
X178458026Y-185607614D01*
X178458026Y-186393328D02*
X178458026Y-184893328D01*
X178458026Y-184893328D02*
X179172312Y-184893328D01*
X179743740Y-186393328D02*
X179743740Y-185393328D01*
X179743740Y-184893328D02*
X179672312Y-184964757D01*
X179672312Y-184964757D02*
X179743740Y-185036185D01*
X179743740Y-185036185D02*
X179815169Y-184964757D01*
X179815169Y-184964757D02*
X179743740Y-184893328D01*
X179743740Y-184893328D02*
X179743740Y-185036185D01*
X180672312Y-186393328D02*
X180529455Y-186321900D01*
X180529455Y-186321900D02*
X180458026Y-186179042D01*
X180458026Y-186179042D02*
X180458026Y-184893328D01*
X181815169Y-186321900D02*
X181672312Y-186393328D01*
X181672312Y-186393328D02*
X181386598Y-186393328D01*
X181386598Y-186393328D02*
X181243740Y-186321900D01*
X181243740Y-186321900D02*
X181172312Y-186179042D01*
X181172312Y-186179042D02*
X181172312Y-185607614D01*
X181172312Y-185607614D02*
X181243740Y-185464757D01*
X181243740Y-185464757D02*
X181386598Y-185393328D01*
X181386598Y-185393328D02*
X181672312Y-185393328D01*
X181672312Y-185393328D02*
X181815169Y-185464757D01*
X181815169Y-185464757D02*
X181886598Y-185607614D01*
X181886598Y-185607614D02*
X181886598Y-185750471D01*
X181886598Y-185750471D02*
X181172312Y-185893328D01*
X182529454Y-186250471D02*
X182600883Y-186321900D01*
X182600883Y-186321900D02*
X182529454Y-186393328D01*
X182529454Y-186393328D02*
X182458026Y-186321900D01*
X182458026Y-186321900D02*
X182529454Y-186250471D01*
X182529454Y-186250471D02*
X182529454Y-186393328D01*
X182529454Y-185464757D02*
X182600883Y-185536185D01*
X182600883Y-185536185D02*
X182529454Y-185607614D01*
X182529454Y-185607614D02*
X182458026Y-185536185D01*
X182458026Y-185536185D02*
X182529454Y-185464757D01*
X182529454Y-185464757D02*
X182529454Y-185607614D01*
X184315169Y-186321900D02*
X184458026Y-186393328D01*
X184458026Y-186393328D02*
X184743740Y-186393328D01*
X184743740Y-186393328D02*
X184886597Y-186321900D01*
X184886597Y-186321900D02*
X184958026Y-186179042D01*
X184958026Y-186179042D02*
X184958026Y-186107614D01*
X184958026Y-186107614D02*
X184886597Y-185964757D01*
X184886597Y-185964757D02*
X184743740Y-185893328D01*
X184743740Y-185893328D02*
X184529455Y-185893328D01*
X184529455Y-185893328D02*
X184386597Y-185821900D01*
X184386597Y-185821900D02*
X184315169Y-185679042D01*
X184315169Y-185679042D02*
X184315169Y-185607614D01*
X184315169Y-185607614D02*
X184386597Y-185464757D01*
X184386597Y-185464757D02*
X184529455Y-185393328D01*
X184529455Y-185393328D02*
X184743740Y-185393328D01*
X184743740Y-185393328D02*
X184886597Y-185464757D01*
X185458026Y-185393328D02*
X185815169Y-186393328D01*
X186172312Y-185393328D02*
X185815169Y-186393328D01*
X185815169Y-186393328D02*
X185672312Y-186750471D01*
X185672312Y-186750471D02*
X185600883Y-186821900D01*
X185600883Y-186821900D02*
X185458026Y-186893328D01*
X186600883Y-185393328D02*
X187386598Y-185393328D01*
X187386598Y-185393328D02*
X186600883Y-186393328D01*
X186600883Y-186393328D02*
X187386598Y-186393328D01*
X187815169Y-185393328D02*
X188172312Y-186393328D01*
X188529455Y-185393328D02*
X188172312Y-186393328D01*
X188172312Y-186393328D02*
X188029455Y-186750471D01*
X188029455Y-186750471D02*
X187958026Y-186821900D01*
X187958026Y-186821900D02*
X187815169Y-186893328D01*
X189743741Y-185393328D02*
X189743741Y-186607614D01*
X189743741Y-186607614D02*
X189672312Y-186750471D01*
X189672312Y-186750471D02*
X189600883Y-186821900D01*
X189600883Y-186821900D02*
X189458026Y-186893328D01*
X189458026Y-186893328D02*
X189243741Y-186893328D01*
X189243741Y-186893328D02*
X189100883Y-186821900D01*
X189743741Y-186321900D02*
X189600883Y-186393328D01*
X189600883Y-186393328D02*
X189315169Y-186393328D01*
X189315169Y-186393328D02*
X189172312Y-186321900D01*
X189172312Y-186321900D02*
X189100883Y-186250471D01*
X189100883Y-186250471D02*
X189029455Y-186107614D01*
X189029455Y-186107614D02*
X189029455Y-185679042D01*
X189029455Y-185679042D02*
X189100883Y-185536185D01*
X189100883Y-185536185D02*
X189172312Y-185464757D01*
X189172312Y-185464757D02*
X189315169Y-185393328D01*
X189315169Y-185393328D02*
X189600883Y-185393328D01*
X189600883Y-185393328D02*
X189743741Y-185464757D01*
X190315169Y-185393328D02*
X190672312Y-186393328D01*
X191029455Y-185393328D02*
X190672312Y-186393328D01*
X190672312Y-186393328D02*
X190529455Y-186750471D01*
X190529455Y-186750471D02*
X190458026Y-186821900D01*
X190458026Y-186821900D02*
X190315169Y-186893328D01*
X191243741Y-186536185D02*
X192386598Y-186536185D01*
X193386598Y-185393328D02*
X193386598Y-186607614D01*
X193386598Y-186607614D02*
X193315169Y-186750471D01*
X193315169Y-186750471D02*
X193243740Y-186821900D01*
X193243740Y-186821900D02*
X193100883Y-186893328D01*
X193100883Y-186893328D02*
X192886598Y-186893328D01*
X192886598Y-186893328D02*
X192743740Y-186821900D01*
X193386598Y-186321900D02*
X193243740Y-186393328D01*
X193243740Y-186393328D02*
X192958026Y-186393328D01*
X192958026Y-186393328D02*
X192815169Y-186321900D01*
X192815169Y-186321900D02*
X192743740Y-186250471D01*
X192743740Y-186250471D02*
X192672312Y-186107614D01*
X192672312Y-186107614D02*
X192672312Y-185679042D01*
X192672312Y-185679042D02*
X192743740Y-185536185D01*
X192743740Y-185536185D02*
X192815169Y-185464757D01*
X192815169Y-185464757D02*
X192958026Y-185393328D01*
X192958026Y-185393328D02*
X193243740Y-185393328D01*
X193243740Y-185393328D02*
X193386598Y-185464757D01*
X194100883Y-185393328D02*
X194100883Y-186893328D01*
X194100883Y-185464757D02*
X194243741Y-185393328D01*
X194243741Y-185393328D02*
X194529455Y-185393328D01*
X194529455Y-185393328D02*
X194672312Y-185464757D01*
X194672312Y-185464757D02*
X194743741Y-185536185D01*
X194743741Y-185536185D02*
X194815169Y-185679042D01*
X194815169Y-185679042D02*
X194815169Y-186107614D01*
X194815169Y-186107614D02*
X194743741Y-186250471D01*
X194743741Y-186250471D02*
X194672312Y-186321900D01*
X194672312Y-186321900D02*
X194529455Y-186393328D01*
X194529455Y-186393328D02*
X194243741Y-186393328D01*
X194243741Y-186393328D02*
X194100883Y-186321900D01*
X195315169Y-186393328D02*
X196100884Y-185393328D01*
X195315169Y-185393328D02*
X196100884Y-186393328D01*
X196600884Y-185036185D02*
X196672312Y-184964757D01*
X196672312Y-184964757D02*
X196815170Y-184893328D01*
X196815170Y-184893328D02*
X197172312Y-184893328D01*
X197172312Y-184893328D02*
X197315170Y-184964757D01*
X197315170Y-184964757D02*
X197386598Y-185036185D01*
X197386598Y-185036185D02*
X197458027Y-185179042D01*
X197458027Y-185179042D02*
X197458027Y-185321900D01*
X197458027Y-185321900D02*
X197386598Y-185536185D01*
X197386598Y-185536185D02*
X196529455Y-186393328D01*
X196529455Y-186393328D02*
X197458027Y-186393328D01*
X197743741Y-186536185D02*
X198886598Y-186536185D01*
X199172312Y-185036185D02*
X199243740Y-184964757D01*
X199243740Y-184964757D02*
X199386598Y-184893328D01*
X199386598Y-184893328D02*
X199743740Y-184893328D01*
X199743740Y-184893328D02*
X199886598Y-184964757D01*
X199886598Y-184964757D02*
X199958026Y-185036185D01*
X199958026Y-185036185D02*
X200029455Y-185179042D01*
X200029455Y-185179042D02*
X200029455Y-185321900D01*
X200029455Y-185321900D02*
X199958026Y-185536185D01*
X199958026Y-185536185D02*
X199100883Y-186393328D01*
X199100883Y-186393328D02*
X200029455Y-186393328D01*
X200315169Y-186536185D02*
X201458026Y-186536185D01*
X202600883Y-186393328D02*
X201743740Y-186393328D01*
X202172311Y-186393328D02*
X202172311Y-184893328D01*
X202172311Y-184893328D02*
X202029454Y-185107614D01*
X202029454Y-185107614D02*
X201886597Y-185250471D01*
X201886597Y-185250471D02*
X201743740Y-185321900D01*
X203243739Y-186250471D02*
X203315168Y-186321900D01*
X203315168Y-186321900D02*
X203243739Y-186393328D01*
X203243739Y-186393328D02*
X203172311Y-186321900D01*
X203172311Y-186321900D02*
X203243739Y-186250471D01*
X203243739Y-186250471D02*
X203243739Y-186393328D01*
X203958025Y-186393328D02*
X203958025Y-184893328D01*
X204100883Y-185821900D02*
X204529454Y-186393328D01*
X204529454Y-185393328D02*
X203958025Y-185964757D01*
X205172311Y-186393328D02*
X205172311Y-185393328D01*
X205172311Y-184893328D02*
X205100883Y-184964757D01*
X205100883Y-184964757D02*
X205172311Y-185036185D01*
X205172311Y-185036185D02*
X205243740Y-184964757D01*
X205243740Y-184964757D02*
X205172311Y-184893328D01*
X205172311Y-184893328D02*
X205172311Y-185036185D01*
X206529455Y-186321900D02*
X206386597Y-186393328D01*
X206386597Y-186393328D02*
X206100883Y-186393328D01*
X206100883Y-186393328D02*
X205958026Y-186321900D01*
X205958026Y-186321900D02*
X205886597Y-186250471D01*
X205886597Y-186250471D02*
X205815169Y-186107614D01*
X205815169Y-186107614D02*
X205815169Y-185679042D01*
X205815169Y-185679042D02*
X205886597Y-185536185D01*
X205886597Y-185536185D02*
X205958026Y-185464757D01*
X205958026Y-185464757D02*
X206100883Y-185393328D01*
X206100883Y-185393328D02*
X206386597Y-185393328D01*
X206386597Y-185393328D02*
X206529455Y-185464757D01*
X207815169Y-186393328D02*
X207815169Y-185607614D01*
X207815169Y-185607614D02*
X207743740Y-185464757D01*
X207743740Y-185464757D02*
X207600883Y-185393328D01*
X207600883Y-185393328D02*
X207315169Y-185393328D01*
X207315169Y-185393328D02*
X207172311Y-185464757D01*
X207815169Y-186321900D02*
X207672311Y-186393328D01*
X207672311Y-186393328D02*
X207315169Y-186393328D01*
X207315169Y-186393328D02*
X207172311Y-186321900D01*
X207172311Y-186321900D02*
X207100883Y-186179042D01*
X207100883Y-186179042D02*
X207100883Y-186036185D01*
X207100883Y-186036185D02*
X207172311Y-185893328D01*
X207172311Y-185893328D02*
X207315169Y-185821900D01*
X207315169Y-185821900D02*
X207672311Y-185821900D01*
X207672311Y-185821900D02*
X207815169Y-185750471D01*
X209172312Y-186393328D02*
X209172312Y-184893328D01*
X209172312Y-186321900D02*
X209029454Y-186393328D01*
X209029454Y-186393328D02*
X208743740Y-186393328D01*
X208743740Y-186393328D02*
X208600883Y-186321900D01*
X208600883Y-186321900D02*
X208529454Y-186250471D01*
X208529454Y-186250471D02*
X208458026Y-186107614D01*
X208458026Y-186107614D02*
X208458026Y-185679042D01*
X208458026Y-185679042D02*
X208529454Y-185536185D01*
X208529454Y-185536185D02*
X208600883Y-185464757D01*
X208600883Y-185464757D02*
X208743740Y-185393328D01*
X208743740Y-185393328D02*
X209029454Y-185393328D01*
X209029454Y-185393328D02*
X209172312Y-185464757D01*
X209529455Y-186536185D02*
X210672312Y-186536185D01*
X211029454Y-185393328D02*
X211029454Y-186893328D01*
X211029454Y-185464757D02*
X211172312Y-185393328D01*
X211172312Y-185393328D02*
X211458026Y-185393328D01*
X211458026Y-185393328D02*
X211600883Y-185464757D01*
X211600883Y-185464757D02*
X211672312Y-185536185D01*
X211672312Y-185536185D02*
X211743740Y-185679042D01*
X211743740Y-185679042D02*
X211743740Y-186107614D01*
X211743740Y-186107614D02*
X211672312Y-186250471D01*
X211672312Y-186250471D02*
X211600883Y-186321900D01*
X211600883Y-186321900D02*
X211458026Y-186393328D01*
X211458026Y-186393328D02*
X211172312Y-186393328D01*
X211172312Y-186393328D02*
X211029454Y-186321900D01*
X213029455Y-186321900D02*
X212886597Y-186393328D01*
X212886597Y-186393328D02*
X212600883Y-186393328D01*
X212600883Y-186393328D02*
X212458026Y-186321900D01*
X212458026Y-186321900D02*
X212386597Y-186250471D01*
X212386597Y-186250471D02*
X212315169Y-186107614D01*
X212315169Y-186107614D02*
X212315169Y-185679042D01*
X212315169Y-185679042D02*
X212386597Y-185536185D01*
X212386597Y-185536185D02*
X212458026Y-185464757D01*
X212458026Y-185464757D02*
X212600883Y-185393328D01*
X212600883Y-185393328D02*
X212886597Y-185393328D01*
X212886597Y-185393328D02*
X213029455Y-185464757D01*
X213672311Y-186393328D02*
X213672311Y-184893328D01*
X213672311Y-185464757D02*
X213815169Y-185393328D01*
X213815169Y-185393328D02*
X214100883Y-185393328D01*
X214100883Y-185393328D02*
X214243740Y-185464757D01*
X214243740Y-185464757D02*
X214315169Y-185536185D01*
X214315169Y-185536185D02*
X214386597Y-185679042D01*
X214386597Y-185679042D02*
X214386597Y-186107614D01*
X214386597Y-186107614D02*
X214315169Y-186250471D01*
X214315169Y-186250471D02*
X214243740Y-186321900D01*
X214243740Y-186321900D02*
X214100883Y-186393328D01*
X214100883Y-186393328D02*
X213815169Y-186393328D01*
X213815169Y-186393328D02*
X213672311Y-186321900D01*
D10*
D11*
X177002200Y-181507200D02*
X285002200Y-181507200D01*
D10*
D11*
X178386598Y-183621900D02*
X178600884Y-183693328D01*
X178600884Y-183693328D02*
X178958026Y-183693328D01*
X178958026Y-183693328D02*
X179100884Y-183621900D01*
X179100884Y-183621900D02*
X179172312Y-183550471D01*
X179172312Y-183550471D02*
X179243741Y-183407614D01*
X179243741Y-183407614D02*
X179243741Y-183264757D01*
X179243741Y-183264757D02*
X179172312Y-183121900D01*
X179172312Y-183121900D02*
X179100884Y-183050471D01*
X179100884Y-183050471D02*
X178958026Y-182979042D01*
X178958026Y-182979042D02*
X178672312Y-182907614D01*
X178672312Y-182907614D02*
X178529455Y-182836185D01*
X178529455Y-182836185D02*
X178458026Y-182764757D01*
X178458026Y-182764757D02*
X178386598Y-182621900D01*
X178386598Y-182621900D02*
X178386598Y-182479042D01*
X178386598Y-182479042D02*
X178458026Y-182336185D01*
X178458026Y-182336185D02*
X178529455Y-182264757D01*
X178529455Y-182264757D02*
X178672312Y-182193328D01*
X178672312Y-182193328D02*
X179029455Y-182193328D01*
X179029455Y-182193328D02*
X179243741Y-182264757D01*
X179886597Y-183693328D02*
X179886597Y-182193328D01*
X180529455Y-183693328D02*
X180529455Y-182907614D01*
X180529455Y-182907614D02*
X180458026Y-182764757D01*
X180458026Y-182764757D02*
X180315169Y-182693328D01*
X180315169Y-182693328D02*
X180100883Y-182693328D01*
X180100883Y-182693328D02*
X179958026Y-182764757D01*
X179958026Y-182764757D02*
X179886597Y-182836185D01*
X181815169Y-183621900D02*
X181672312Y-183693328D01*
X181672312Y-183693328D02*
X181386598Y-183693328D01*
X181386598Y-183693328D02*
X181243740Y-183621900D01*
X181243740Y-183621900D02*
X181172312Y-183479042D01*
X181172312Y-183479042D02*
X181172312Y-182907614D01*
X181172312Y-182907614D02*
X181243740Y-182764757D01*
X181243740Y-182764757D02*
X181386598Y-182693328D01*
X181386598Y-182693328D02*
X181672312Y-182693328D01*
X181672312Y-182693328D02*
X181815169Y-182764757D01*
X181815169Y-182764757D02*
X181886598Y-182907614D01*
X181886598Y-182907614D02*
X181886598Y-183050471D01*
X181886598Y-183050471D02*
X181172312Y-183193328D01*
X183100883Y-183621900D02*
X182958026Y-183693328D01*
X182958026Y-183693328D02*
X182672312Y-183693328D01*
X182672312Y-183693328D02*
X182529454Y-183621900D01*
X182529454Y-183621900D02*
X182458026Y-183479042D01*
X182458026Y-183479042D02*
X182458026Y-182907614D01*
X182458026Y-182907614D02*
X182529454Y-182764757D01*
X182529454Y-182764757D02*
X182672312Y-182693328D01*
X182672312Y-182693328D02*
X182958026Y-182693328D01*
X182958026Y-182693328D02*
X183100883Y-182764757D01*
X183100883Y-182764757D02*
X183172312Y-182907614D01*
X183172312Y-182907614D02*
X183172312Y-183050471D01*
X183172312Y-183050471D02*
X182458026Y-183193328D01*
X183600883Y-182693328D02*
X184172311Y-182693328D01*
X183815168Y-182193328D02*
X183815168Y-183479042D01*
X183815168Y-183479042D02*
X183886597Y-183621900D01*
X183886597Y-183621900D02*
X184029454Y-183693328D01*
X184029454Y-183693328D02*
X184172311Y-183693328D01*
X184672311Y-183550471D02*
X184743740Y-183621900D01*
X184743740Y-183621900D02*
X184672311Y-183693328D01*
X184672311Y-183693328D02*
X184600883Y-183621900D01*
X184600883Y-183621900D02*
X184672311Y-183550471D01*
X184672311Y-183550471D02*
X184672311Y-183693328D01*
X184672311Y-182764757D02*
X184743740Y-182836185D01*
X184743740Y-182836185D02*
X184672311Y-182907614D01*
X184672311Y-182907614D02*
X184600883Y-182836185D01*
X184600883Y-182836185D02*
X184672311Y-182764757D01*
X184672311Y-182764757D02*
X184672311Y-182907614D01*
D10*
D11*
X197002200Y-191507200D02*
X197002200Y-194507200D01*
D10*
D11*
X261002200Y-191507200D02*
X261002200Y-198007200D01*
D14*
%TO.P,J1,1,Pin_1*%
%TO.N,SZG5V*%
X126520000Y-114960000D03*
D15*
%TO.P,J1,2,Pin_2*%
%TO.N,GND*%
X126520000Y-117500000D03*
%TD*%
D16*
%TO.P,J13,1,In*%
%TO.N,Net-(J13-In)*%
X179672000Y-116843200D03*
D17*
%TO.P,J13,2,Ext*%
%TO.N,GND*%
X177132000Y-114303200D03*
X177132000Y-119383200D03*
X182212000Y-114303200D03*
X182212000Y-119383200D03*
%TD*%
D14*
%TO.P,J8,1,Pin_1*%
%TO.N,/Inputs/STOP4P*%
X171818000Y-118118200D03*
D15*
%TO.P,J8,2,Pin_2*%
%TO.N,/Inputs/STOP4N*%
X171818000Y-115578200D03*
%TD*%
D14*
%TO.P,J7,1,Pin_1*%
%TO.N,/Inputs/STOP3P*%
X171818000Y-109444100D03*
D15*
%TO.P,J7,2,Pin_2*%
%TO.N,/Inputs/STOP3N*%
X171818000Y-106904100D03*
%TD*%
D16*
%TO.P,J11,1,In*%
%TO.N,Net-(J11-In)*%
X179672000Y-90820900D03*
D17*
%TO.P,J11,2,Ext*%
%TO.N,GND*%
X177132000Y-88280900D03*
X177132000Y-93360900D03*
X182212000Y-88280900D03*
X182212000Y-93360900D03*
%TD*%
D14*
%TO.P,J2,1,Pin_1*%
%TO.N,/SYZYGY/MOSI_B*%
X153642000Y-86035000D03*
D15*
%TO.P,J2,2,Pin_2*%
%TO.N,/SYZYGY/MISO_B*%
X153642000Y-83495000D03*
%TO.P,J2,3,Pin_3*%
%TO.N,/SYZYGY/SS_N_B*%
X156182000Y-86035000D03*
%TO.P,J2,4,Pin_4*%
%TO.N,/SYZYGY/SCK_B*%
X156182000Y-83495000D03*
%TO.P,J2,5,Pin_5*%
%TO.N,GND*%
X158722000Y-86035000D03*
%TO.P,J2,6,Pin_6*%
%TO.N,/SYZYGY/INTERRUPT_N_B*%
X158722000Y-83495000D03*
%TD*%
D18*
%TO.P,C13,1*%
%TO.N,SZG5V*%
X133000000Y-114997349D03*
D19*
%TO.P,C13,2*%
%TO.N,GND*%
X133000000Y-119997349D03*
%TD*%
D14*
%TO.P,J16,1,Pin_1*%
%TO.N,GND*%
X116500000Y-117260000D03*
D15*
%TO.P,J16,2,Pin_2*%
X116500000Y-119800000D03*
%TD*%
D14*
%TO.P,J14,1,Pin_1*%
%TO.N,GND*%
X157480000Y-118600000D03*
D15*
%TO.P,J14,2,Pin_2*%
%TO.N,/SYZYGY/MCU_RESET_B*%
X157480000Y-116060000D03*
%TO.P,J14,3,Pin_3*%
%TO.N,/SYZYGY/MCU_SDA_MOSI*%
X160020000Y-118600000D03*
%TO.P,J14,4,Pin_4*%
%TO.N,/SYZYGY/MCU_SCL_USCK*%
X160020000Y-116060000D03*
%TO.P,J14,5,Pin_5*%
%TO.N,SZG33*%
X162560000Y-118600000D03*
%TO.P,J14,6,Pin_6*%
%TO.N,/SYZYGY/MCU_MISO*%
X162560000Y-116060000D03*
%TD*%
D14*
%TO.P,J4,1,Pin_1*%
%TO.N,/Inputs/REFCLKP*%
X171818000Y-100770000D03*
D15*
%TO.P,J4,2,Pin_2*%
%TO.N,/Inputs/REFCLKN*%
X171818000Y-98230000D03*
%TD*%
D14*
%TO.P,J3,1,Pin_1*%
%TO.N,Net-(J15-S21)*%
X116480000Y-84945000D03*
D15*
%TO.P,J3,2,Pin_2*%
%TO.N,Net-(J15-S23)*%
X116480000Y-82405000D03*
%TO.P,J3,3,Pin_3*%
%TO.N,Net-(J15-S25)*%
X116480000Y-79865000D03*
%TD*%
D14*
%TO.P,J5,1,Pin_1*%
%TO.N,/Inputs/STOP1P*%
X171818000Y-83421800D03*
D15*
%TO.P,J5,2,Pin_2*%
%TO.N,/Inputs/STOP1N*%
X171818000Y-80881800D03*
%TD*%
D16*
%TO.P,J10,1,In*%
%TO.N,Net-(J10-In)*%
X179705000Y-82169000D03*
D17*
%TO.P,J10,2,Ext*%
%TO.N,GND*%
X177165000Y-79629000D03*
X177165000Y-84709000D03*
X182245000Y-79629000D03*
X182245000Y-84709000D03*
%TD*%
D16*
%TO.P,J9,1,In*%
%TO.N,Net-(J9-In)*%
X179672000Y-99495000D03*
D17*
%TO.P,J9,2,Ext*%
%TO.N,GND*%
X177132000Y-96955000D03*
X177132000Y-102035000D03*
X182212000Y-96955000D03*
X182212000Y-102035000D03*
%TD*%
D16*
%TO.P,J12,1,In*%
%TO.N,Net-(J12-In)*%
X179672000Y-108169100D03*
D17*
%TO.P,J12,2,Ext*%
%TO.N,GND*%
X177132000Y-105629100D03*
X177132000Y-110709100D03*
X182212000Y-105629100D03*
X182212000Y-110709100D03*
%TD*%
D14*
%TO.P,J6,1,Pin_1*%
%TO.N,/Inputs/STOP2P*%
X171818000Y-92095900D03*
D15*
%TO.P,J6,2,Pin_2*%
%TO.N,/Inputs/STOP2N*%
X171818000Y-89555900D03*
%TD*%
D20*
%TO.P,J15,0,GND*%
%TO.N,GND*%
X121382000Y-107940000D03*
D21*
X121382000Y-102670000D03*
X121382000Y-96320000D03*
D20*
X121382000Y-91050000D03*
D22*
%TO.P,J15,1,SCL*%
%TO.N,/SYZYGY/MCU_SCL_USCK*%
X124472000Y-107095000D03*
%TO.P,J15,2,5V*%
%TO.N,SZG5V*%
X118292000Y-107095000D03*
%TO.P,J15,3,SDA*%
%TO.N,/SYZYGY/MCU_SDA_MOSI*%
X124472000Y-106295000D03*
%TO.P,J15,4,R_GA*%
%TO.N,/SYZYGY/R_GA*%
X118292000Y-106295000D03*
%TO.P,J15,5,S0_D0P*%
%TO.N,/SYZYGY/SDO4P*%
X124472000Y-105495000D03*
%TO.P,J15,6,S1_D1P*%
%TO.N,/SYZYGY/SDO2P*%
X118292000Y-105495000D03*
%TO.P,J15,7,S2_D0N*%
%TO.N,/SYZYGY/SDO4N*%
X124472000Y-104695000D03*
%TO.P,J15,8,S3_D1N*%
%TO.N,/SYZYGY/SDO2N*%
X118292000Y-104695000D03*
%TO.P,J15,9,S4_D2P*%
%TO.N,/SYZYGY/FRAME4P*%
X124472000Y-103895000D03*
%TO.P,J15,10,S5_D3P*%
%TO.N,/SYZYGY/FRAME2P*%
X118292000Y-103895000D03*
%TO.P,J15,11,S6_D2N*%
%TO.N,/SYZYGY/FRAME4N*%
X124472000Y-103095000D03*
%TO.P,J15,12,S7_D3N*%
%TO.N,/SYZYGY/FRAME2N*%
X118292000Y-103095000D03*
%TO.P,J15,13,S8_D4P*%
%TO.N,/SYZYGY/SDO3P*%
X124472000Y-102295000D03*
%TO.P,J15,14,S9_D5P*%
%TO.N,/SYZYGY/SDO1P*%
X118292000Y-102295000D03*
%TO.P,J15,15,S10_D4N*%
%TO.N,/SYZYGY/SDO3N*%
X124472000Y-101495000D03*
%TO.P,J15,16,S11_D5N*%
%TO.N,/SYZYGY/SDO1N*%
X118292000Y-101495000D03*
%TO.P,J15,17,S12_D6P*%
%TO.N,/SYZYGY/FRAME3P*%
X124472000Y-100695000D03*
%TO.P,J15,18,S13_D7P*%
%TO.N,/SYZYGY/FRAME1P*%
X118292000Y-100695000D03*
%TO.P,J15,19,S14_D6N*%
%TO.N,/SYZYGY/FRAME3N*%
X124472000Y-99895000D03*
%TO.P,J15,20,S15_D7N*%
%TO.N,/SYZYGY/FRAME1N*%
X118292000Y-99895000D03*
%TO.P,J15,21,S16*%
%TO.N,/SYZYGY/PARITY_A*%
X124472000Y-99095000D03*
%TO.P,J15,22,S17*%
%TO.N,/SYZYGY/REFRESP_A*%
X118292000Y-99095000D03*
%TO.P,J15,23,S18*%
%TO.N,/SYZYGY/INTERRUPT_A*%
X124472000Y-98295000D03*
%TO.P,J15,24,S19*%
%TO.N,/SYZYGY/DISABLEP_A*%
X118292000Y-98295000D03*
%TO.P,J15,25,S20*%
%TO.N,/SYZYGY/SS_N_A*%
X124472000Y-97495000D03*
%TO.P,J15,26,S21*%
%TO.N,Net-(J15-S21)*%
X118292000Y-97495000D03*
%TO.P,J15,27,S22*%
%TO.N,/SYZYGY/SCK_A*%
X124472000Y-96695000D03*
%TO.P,J15,28,S23*%
%TO.N,Net-(J15-S23)*%
X118292000Y-96695000D03*
%TO.P,J15,29,S24*%
%TO.N,/SYZYGY/MOSI_A*%
X124472000Y-95895000D03*
%TO.P,J15,30,S25*%
%TO.N,Net-(J15-S25)*%
X118292000Y-95895000D03*
%TO.P,J15,31,S26*%
%TO.N,/SYZYGY/MISO_A*%
X124472000Y-95095000D03*
%TO.P,J15,32,S27*%
%TO.N,Net-(J15-S27)*%
X118292000Y-95095000D03*
%TO.P,J15,33,P2C_CLKp*%
%TO.N,/SYZYGY/LCLKOUTP*%
X124472000Y-94295000D03*
%TO.P,J15,34,C2P_CLKp*%
%TO.N,/SYZYGY/LCLKINP*%
X118292000Y-94295000D03*
%TO.P,J15,35,P2C_CLKn*%
%TO.N,/SYZYGY/LCLKOUTN*%
X124472000Y-93495000D03*
%TO.P,J15,36,C2P_CLKn*%
%TO.N,/SYZYGY/LCLKINN*%
X118292000Y-93495000D03*
%TO.P,J15,37,RSVD*%
%TO.N,/SYZYGY/RSVD_37*%
X124472000Y-92695000D03*
%TO.P,J15,38,RSVD*%
%TO.N,/SYZYGY/RSVD_38*%
X118292000Y-92695000D03*
%TO.P,J15,39,VIO*%
%TO.N,/SYZYGY/VIO*%
X124472000Y-91895000D03*
%TO.P,J15,40,+3.3V*%
%TO.N,SZG33*%
X118292000Y-91895000D03*
D23*
%TO.P,J15,MH*%
%TO.N,N/C*%
X121882000Y-110340000D03*
X121882000Y-88650000D03*
%TD*%
D24*
%TO.N,Net-(J15-S21)*%
X115930000Y-99270000D03*
%TO.N,SZG5V*%
X117900000Y-107940000D03*
%TO.N,Net-(J15-S21)*%
X172390000Y-95770000D03*
%TO.N,Net-(J15-S23)*%
X167530000Y-103710000D03*
%TO.N,TVDD33*%
X169278000Y-120937000D03*
X158242000Y-106795000D03*
X161200000Y-83200000D03*
X155022000Y-97696000D03*
X169278000Y-112428000D03*
X169024000Y-86520000D03*
X169024000Y-95156000D03*
X156367000Y-91920000D03*
X169278000Y-103792000D03*
X165900000Y-85600000D03*
%TO.N,GND*%
X152482000Y-103792000D03*
X125250000Y-82070000D03*
X159647000Y-110228000D03*
X120640000Y-96000000D03*
X150962778Y-101305778D03*
X121981920Y-89745454D03*
X157308000Y-113493000D03*
X125765000Y-84745765D03*
X129890000Y-86930000D03*
X141900000Y-117200000D03*
X137430000Y-87520000D03*
X148400000Y-95200000D03*
X138850000Y-85250000D03*
X152700000Y-112800000D03*
X154100000Y-116900000D03*
X136160000Y-79140000D03*
X120097000Y-108618000D03*
X130665500Y-78800000D03*
X146700000Y-87500000D03*
X121390000Y-105830000D03*
X149200000Y-85800000D03*
X130160000Y-93030000D03*
X145900000Y-113600000D03*
X125520000Y-86406249D03*
X137380000Y-84720000D03*
%TO.N,DVDD33*%
X147612000Y-107445000D03*
X137620000Y-89360000D03*
X133110000Y-83730000D03*
X149142000Y-90585000D03*
%TO.N,SZG33*%
X129600000Y-110600000D03*
X117610000Y-89890000D03*
%TO.N,/SYZYGY/R_GA*%
X116200000Y-108340000D03*
%TO.N,/SYZYGY/MCU_SCL_USCK*%
X142000000Y-110695000D03*
X135782000Y-107895000D03*
%TO.N,/SYZYGY/MCU_MISO*%
X141052860Y-110596390D03*
%TO.N,/SYZYGY/MCU_SDA_MOSI*%
X141100000Y-111395000D03*
%TO.N,/SYZYGY/MCU_RESET_B*%
X141600000Y-112195000D03*
%TO.N,/SYZYGY/SDO4N*%
X126000000Y-104700000D03*
%TO.N,/SYZYGY/SDO1N*%
X119500000Y-101500000D03*
%TO.N,/SYZYGY/SDO2N*%
X119500000Y-104700000D03*
%TO.N,/SYZYGY/LCLKINN*%
X119360000Y-93510000D03*
%TO.N,/SYZYGY/FRAME2N*%
X119500000Y-103100000D03*
%TO.N,/SYZYGY/FRAME3P*%
X126000000Y-100700000D03*
%TO.N,/SYZYGY/SDO2P*%
X119500000Y-105500000D03*
%TO.N,/SYZYGY/FRAME1P*%
X119500000Y-100700000D03*
%TO.N,/SYZYGY/FRAME1N*%
X119500000Y-99900000D03*
%TO.N,/SYZYGY/LCLKOUTN*%
X146292576Y-101672662D03*
%TO.N,/SYZYGY/LCLKOUTP*%
X146892576Y-102291823D03*
%TO.N,/SYZYGY/SDO3N*%
X126000000Y-101500000D03*
%TO.N,/SYZYGY/FRAME4N*%
X126000000Y-103100000D03*
%TO.N,/SYZYGY/SDO1P*%
X119500000Y-102300000D03*
%TO.N,/SYZYGY/VIO*%
X130110000Y-88170000D03*
%TO.N,/SYZYGY/FRAME2P*%
X119500000Y-103900000D03*
%TO.N,/SYZYGY/FRAME3N*%
X126000000Y-99900000D03*
%TO.N,Net-(D3-K)*%
X123620000Y-84710000D03*
X122710000Y-86390000D03*
%TO.N,/SYZYGY/SDO3P*%
X126000000Y-102300000D03*
%TO.N,/SYZYGY/FRAME4P*%
X126000000Y-103900000D03*
%TO.N,/SYZYGY/SDO4P*%
X126000000Y-105500000D03*
%TO.N,/SYZYGY/LCLKINP*%
X119360000Y-94270000D03*
%TO.N,Net-(U1-RSTIDXN)*%
X158757001Y-97820000D03*
X161882000Y-85295000D03*
%TO.N,Net-(U1-DISABLEN)*%
X163782000Y-85295000D03*
X158882000Y-100395000D03*
%TO.N,Net-(U1-REFOSCO)*%
X152411090Y-92711090D03*
X147600000Y-90400000D03*
%TO.N,Net-(U1-REFOSCI)*%
X153015100Y-91973490D03*
X147600000Y-89600000D03*
%TO.N,/gpx2/TVDD18*%
X156162000Y-87905000D03*
X159732000Y-112045000D03*
%TO.N,/gpx2/DVDD18*%
X148762000Y-108005000D03*
X150000000Y-90500000D03*
%TO.N,/gpx2/TVDD18O*%
X154006000Y-107475000D03*
X155276000Y-103919000D03*
%TO.N,/SYZYGY/MISO_A*%
X123246998Y-92830000D03*
%TO.N,/SYZYGY/SS_N_A*%
X121447000Y-93202340D03*
%TO.N,/SYZYGY/DISABLEP_A*%
X119570000Y-98295000D03*
%TO.N,/SYZYGY/PARITY_A*%
X119640000Y-92420000D03*
%TO.N,/SYZYGY/SCK_A*%
X123278784Y-91489570D03*
%TO.N,/SYZYGY/REFRESP_A*%
X119520000Y-99099361D03*
%TO.N,/SYZYGY/MOSI_A*%
X122646999Y-92093912D03*
%TO.N,/SYZYGY/MOSI_B*%
X133020000Y-90900000D03*
%TO.N,/SYZYGY/REFRESP_B*%
X162882000Y-85295000D03*
X158332000Y-98670000D03*
%TO.N,/SYZYGY/SS_N_B*%
X148442000Y-96220000D03*
X144210000Y-91469461D03*
%TO.N,/SYZYGY/SCK_B*%
X133000000Y-89930000D03*
%TO.N,/SYZYGY/DISABLEP_B*%
X158310000Y-101160000D03*
X164640000Y-85450000D03*
%TO.N,/SYZYGY/PARITY_B*%
X146620000Y-91000000D03*
X152070000Y-95410000D03*
%TO.N,Net-(J15-S27)*%
X132930000Y-87370000D03*
%TO.N,/SYZYGY/INTERRUPT_A*%
X120340000Y-91380000D03*
%TD*%
D25*
%TO.N,Net-(J15-S23)*%
X115330000Y-83555000D02*
X116480000Y-82405000D01*
X115330000Y-95090000D02*
X115330000Y-83555000D01*
X118292000Y-96695000D02*
X116935000Y-96695000D01*
X116935000Y-96695000D02*
X115330000Y-95090000D01*
%TO.N,Net-(J15-S25)*%
X117700000Y-81085000D02*
X116480000Y-79865000D01*
X116570000Y-87155000D02*
X117700000Y-86025000D01*
X117700000Y-86025000D02*
X117700000Y-81085000D01*
X116570000Y-95098000D02*
X116570000Y-87155000D01*
X117367000Y-95895000D02*
X116570000Y-95098000D01*
X118292000Y-95895000D02*
X117367000Y-95895000D01*
%TO.N,Net-(J15-S21)*%
X166440000Y-101720000D02*
X172390000Y-95770000D01*
X166440000Y-116346346D02*
X166440000Y-101720000D01*
X145889412Y-120850000D02*
X161936346Y-120850000D01*
X143240000Y-118200588D02*
X145889412Y-120850000D01*
X124250000Y-116200000D02*
X142449462Y-116200000D01*
X115991471Y-108980000D02*
X117030000Y-108980000D01*
X115600000Y-99580000D02*
X115600000Y-108588529D01*
X117685000Y-97495000D02*
X115600000Y-99580000D01*
X118292000Y-97495000D02*
X117685000Y-97495000D01*
X115600000Y-108588529D02*
X115991471Y-108980000D01*
X143240000Y-116990538D02*
X143240000Y-118200588D01*
X117030000Y-108980000D02*
X124250000Y-116200000D01*
X142449462Y-116200000D02*
X143240000Y-116990538D01*
X161936346Y-120850000D02*
X166440000Y-116346346D01*
%TO.N,Net-(J15-S23)*%
X115160000Y-113030716D02*
X115160000Y-98902000D01*
X123379284Y-121250000D02*
X115160000Y-113030716D01*
X115160000Y-98902000D02*
X117367000Y-96695000D01*
X163080000Y-121250000D02*
X123379284Y-121250000D01*
X167530000Y-116800000D02*
X163080000Y-121250000D01*
X167530000Y-103710000D02*
X167530000Y-116800000D01*
X117367000Y-96695000D02*
X118292000Y-96695000D01*
D26*
%TO.N,SZG33*%
X148130000Y-120160000D02*
X161000000Y-120160000D01*
X139915000Y-111945000D02*
X148130000Y-120160000D01*
X130945000Y-111945000D02*
X139915000Y-111945000D01*
X161000000Y-120160000D02*
X162560000Y-118600000D01*
X129600000Y-110600000D02*
X130945000Y-111945000D01*
D25*
%TO.N,/SYZYGY/R_GA*%
X117537000Y-106295000D02*
X118292000Y-106295000D01*
X116200000Y-107632000D02*
X117537000Y-106295000D01*
X116200000Y-108340000D02*
X116200000Y-107632000D01*
%TO.N,Net-(J15-S27)*%
X117267000Y-94995000D02*
X117367000Y-95095000D01*
X117010000Y-89460000D02*
X117010000Y-91390817D01*
X118940000Y-87530000D02*
X117010000Y-89460000D01*
X117010000Y-91390817D02*
X117267000Y-91647817D01*
X132770000Y-87530000D02*
X118940000Y-87530000D01*
X117267000Y-91647817D02*
X117267000Y-94995000D01*
X132930000Y-87370000D02*
X132770000Y-87530000D01*
X117367000Y-95095000D02*
X118292000Y-95095000D01*
D27*
%TO.N,SZG33*%
X117610000Y-91213000D02*
X118292000Y-91895000D01*
X117610000Y-89890000D02*
X117610000Y-91213000D01*
D28*
%TO.N,SZG5V*%
X124956000Y-115050000D02*
X126520000Y-115050000D01*
X119272000Y-109366000D02*
X124956000Y-115050000D01*
X117900000Y-107940000D02*
X118397000Y-107910000D01*
X119272000Y-108785000D02*
X119272000Y-109366000D01*
X118397000Y-107910000D02*
X119272000Y-108785000D01*
X118230000Y-107743000D02*
X118282000Y-107795000D01*
X117900000Y-107940000D02*
X118230000Y-107743000D01*
D27*
%TO.N,TVDD33*%
X161132000Y-83268000D02*
X161200000Y-83200000D01*
X161200000Y-83200000D02*
X162545000Y-84545000D01*
D26*
X156367000Y-93833000D02*
X155022000Y-95178000D01*
D27*
X156367000Y-91920000D02*
X156417000Y-91920000D01*
D26*
X156367000Y-91920000D02*
X156367000Y-93833000D01*
D27*
X162545000Y-84545000D02*
X164892661Y-84545000D01*
X165900000Y-85600000D02*
X165947661Y-85600000D01*
X164892661Y-84545000D02*
X165900000Y-85552339D01*
X165947661Y-85600000D02*
X166867661Y-86520000D01*
X165900000Y-85552339D02*
X165900000Y-85600000D01*
D29*
X158242000Y-106795000D02*
X158202000Y-106755000D01*
D26*
X155022000Y-97696000D02*
X155022000Y-102675050D01*
D27*
X161132000Y-87205000D02*
X161132000Y-83268000D01*
D26*
X155022000Y-102675050D02*
X158242000Y-105895050D01*
X155022000Y-95178000D02*
X155022000Y-97696000D01*
D27*
X156417000Y-91920000D02*
X161132000Y-87205000D01*
D26*
X158242000Y-105895050D02*
X158242000Y-106795000D01*
D27*
X166867661Y-86520000D02*
X169024000Y-86520000D01*
D29*
%TO.N,GND*%
X121382000Y-90345374D02*
X121981920Y-89745454D01*
D26*
X121382000Y-107940000D02*
X121382000Y-105838000D01*
X121382000Y-105838000D02*
X121390000Y-105830000D01*
X120775000Y-107940000D02*
X120097000Y-108618000D01*
D27*
X121062000Y-96000000D02*
X121382000Y-96320000D01*
X121382000Y-91050000D02*
X121382000Y-90648000D01*
D26*
X121390000Y-105830000D02*
X121382000Y-105822000D01*
X121382000Y-105822000D02*
X121382000Y-102670000D01*
D29*
X121382000Y-91050000D02*
X121382000Y-90345374D01*
D27*
X120640000Y-96000000D02*
X121062000Y-96000000D01*
D26*
X121382000Y-107940000D02*
X120775000Y-107940000D01*
D25*
X121382000Y-96320000D02*
X121382000Y-96642000D01*
D26*
%TO.N,DVDD33*%
X135360000Y-91620000D02*
X137620000Y-89360000D01*
X149142000Y-90585000D02*
X149142000Y-105915000D01*
X132750050Y-91620000D02*
X135360000Y-91620000D01*
X145680000Y-91700000D02*
X144510000Y-90530000D01*
X131820000Y-90689950D02*
X132750050Y-91620000D01*
X149142000Y-90585000D02*
X148027000Y-91700000D01*
X133630000Y-87659950D02*
X131820000Y-89469950D01*
X137620000Y-89360000D02*
X137600000Y-89360000D01*
X138770000Y-90530000D02*
X137620000Y-89380000D01*
X133110000Y-86430000D02*
X133630000Y-86950000D01*
X148027000Y-91700000D02*
X145680000Y-91700000D01*
X144510000Y-90530000D02*
X138770000Y-90530000D01*
X131820000Y-89469950D02*
X131820000Y-90689950D01*
X137600000Y-89360000D02*
X137640000Y-89400000D01*
X133110000Y-83730000D02*
X133110000Y-86430000D01*
X133630000Y-86950000D02*
X133630000Y-87659950D01*
X137620000Y-89380000D02*
X137620000Y-89360000D01*
X149142000Y-105915000D02*
X147612000Y-107445000D01*
D27*
%TO.N,SZG5V*%
X118292000Y-107095000D02*
X118292000Y-107785000D01*
D25*
%TO.N,/SYZYGY/MCU_SCL_USCK*%
X158820000Y-114860000D02*
X160020000Y-116060000D01*
X158820000Y-113970000D02*
X158820000Y-114860000D01*
D29*
X135782000Y-107895000D02*
X135882000Y-107995000D01*
D25*
X134982000Y-107095000D02*
X135782000Y-107895000D01*
X124472000Y-107095000D02*
X134982000Y-107095000D01*
X142000000Y-110695000D02*
X155545000Y-110695000D01*
X155545000Y-110695000D02*
X158820000Y-113970000D01*
%TO.N,/SYZYGY/MCU_MISO*%
X141052860Y-110596390D02*
X141604250Y-110045000D01*
X156545000Y-110045000D02*
X162560000Y-116060000D01*
X141604250Y-110045000D02*
X156545000Y-110045000D01*
%TO.N,/SYZYGY/MCU_SDA_MOSI*%
X135595000Y-106295000D02*
X124472000Y-106295000D01*
X141100000Y-111395000D02*
X140695000Y-111395000D01*
X153795000Y-111395000D02*
X157260000Y-114860000D01*
X157260000Y-114860000D02*
X157977057Y-114860000D01*
X141100000Y-111395000D02*
X153795000Y-111395000D01*
X158820000Y-117400000D02*
X160020000Y-118600000D01*
X158820000Y-115702943D02*
X158820000Y-117400000D01*
X157977057Y-114860000D02*
X158820000Y-115702943D01*
X140695000Y-111395000D02*
X135595000Y-106295000D01*
%TO.N,/SYZYGY/MCU_RESET_B*%
X154560000Y-116060000D02*
X157480000Y-116060000D01*
X150695000Y-112195000D02*
X154560000Y-116060000D01*
X141600000Y-112195000D02*
X149482000Y-112195000D01*
X149482000Y-112195000D02*
X150695000Y-112195000D01*
D30*
%TO.N,/SYZYGY/SDO4N*%
X124472000Y-104695000D02*
X125995000Y-104695000D01*
X125995000Y-104695000D02*
X126000000Y-104700000D01*
%TO.N,/SYZYGY/SDO1N*%
X119495000Y-101495000D02*
X119500000Y-101500000D01*
X118292000Y-101495000D02*
X119495000Y-101495000D01*
%TO.N,/SYZYGY/SDO2N*%
X119500000Y-104745000D02*
X119500000Y-104745000D01*
X119450000Y-104695000D02*
X119455000Y-104700000D01*
X119455000Y-104700000D02*
X119500000Y-104700000D01*
D25*
X118342000Y-104745000D02*
X118292000Y-104695000D01*
D30*
X118292000Y-104695000D02*
X119450000Y-104695000D01*
X119500000Y-104700000D02*
X119500000Y-104745000D01*
D25*
%TO.N,/SYZYGY/LCLKINN*%
X119360000Y-93495000D02*
X119360000Y-93510000D01*
X119360000Y-93510000D02*
X118292000Y-93495000D01*
D30*
%TO.N,/SYZYGY/FRAME2N*%
X118292000Y-103095000D02*
X119500000Y-103095000D01*
%TO.N,/SYZYGY/FRAME3P*%
X124472000Y-100695000D02*
X125995000Y-100695000D01*
X125995000Y-100695000D02*
X126000000Y-100700000D01*
%TO.N,/SYZYGY/SDO2P*%
X118292000Y-105495000D02*
X119500000Y-105495000D01*
%TO.N,/SYZYGY/FRAME1P*%
X119495000Y-100695000D02*
X119500000Y-100700000D01*
X118292000Y-100695000D02*
X119495000Y-100695000D01*
%TO.N,/SYZYGY/FRAME1N*%
X118292000Y-99895000D02*
X119495000Y-99895000D01*
X119495000Y-99895000D02*
X119500000Y-99900000D01*
%TO.N,/SYZYGY/LCLKOUTN*%
X125430000Y-93510000D02*
X124472000Y-93495000D01*
X146292576Y-101672662D02*
X125430000Y-93510000D01*
D25*
X146292576Y-101672662D02*
X146292576Y-101478340D01*
D30*
%TO.N,/SYZYGY/LCLKOUTP*%
X146892576Y-102291823D02*
X146100000Y-102119800D01*
X126024197Y-93994831D02*
X124472000Y-94295000D01*
X145620000Y-101670000D02*
X126024197Y-93994831D01*
D25*
X146892576Y-102291823D02*
X146873415Y-102272662D01*
D30*
X146059081Y-102110919D02*
X146100000Y-102119800D01*
X146059081Y-102110919D02*
X145620000Y-101670000D01*
%TO.N,/SYZYGY/SDO3N*%
X125995000Y-101495000D02*
X126000000Y-101500000D01*
X124472000Y-101495000D02*
X125995000Y-101495000D01*
%TO.N,/SYZYGY/FRAME4N*%
X124472000Y-103095000D02*
X125995000Y-103095000D01*
X125995000Y-103095000D02*
X126000000Y-103100000D01*
%TO.N,/SYZYGY/SDO1P*%
X118292000Y-102295000D02*
X119495000Y-102295000D01*
X119495000Y-102295000D02*
X119500000Y-102300000D01*
D27*
%TO.N,/SYZYGY/VIO*%
X130110000Y-88170000D02*
X126385000Y-91895000D01*
D26*
X124497000Y-91870000D02*
X124472000Y-91895000D01*
D27*
X126385000Y-91895000D02*
X124472000Y-91895000D01*
D30*
%TO.N,/SYZYGY/FRAME2P*%
X118292000Y-103895000D02*
X119500000Y-103895000D01*
%TO.N,/SYZYGY/FRAME3N*%
X125995000Y-99895000D02*
X126000000Y-99900000D01*
X124472000Y-99895000D02*
X125995000Y-99895000D01*
D25*
%TO.N,Net-(D3-K)*%
X122710000Y-85620000D02*
X123620000Y-84710000D01*
X122710000Y-86390000D02*
X122710000Y-85620000D01*
D30*
%TO.N,/SYZYGY/SDO3P*%
X124472000Y-102295000D02*
X125995000Y-102295000D01*
X125995000Y-102295000D02*
X126000000Y-102300000D01*
%TO.N,/SYZYGY/FRAME4P*%
X124472000Y-103895000D02*
X125995000Y-103895000D01*
X125995000Y-103895000D02*
X126000000Y-103900000D01*
%TO.N,/SYZYGY/SDO4P*%
X124472000Y-105495000D02*
X125995000Y-105495000D01*
X125995000Y-105495000D02*
X126000000Y-105500000D01*
D25*
%TO.N,/SYZYGY/LCLKINP*%
X119360000Y-94270000D02*
X118292000Y-94295000D01*
X119360000Y-94295000D02*
X119360000Y-94270000D01*
%TO.N,Net-(U1-RSTIDXN)*%
X158757001Y-97820000D02*
X158959000Y-97618001D01*
X158959000Y-91104000D02*
X161882000Y-88181000D01*
X161882000Y-88181000D02*
X161882000Y-85295000D01*
X158959000Y-97618001D02*
X158959000Y-91104000D01*
%TO.N,Net-(U1-DISABLEN)*%
X163982000Y-85495000D02*
X163782000Y-85295000D01*
X163982000Y-95295000D02*
X163982000Y-85495000D01*
X158882000Y-100395000D02*
X163982000Y-95295000D01*
%TO.N,Net-(U1-REFOSCO)*%
X147648529Y-90400000D02*
X147600000Y-90400000D01*
X152411090Y-91625561D02*
X150685529Y-89900000D01*
X152411090Y-92711090D02*
X152411090Y-91625561D01*
X148148529Y-89900000D02*
X147648529Y-90400000D01*
X150685529Y-89900000D02*
X148148529Y-89900000D01*
%TO.N,Net-(U1-REFOSCI)*%
X147700000Y-89500000D02*
X147600000Y-89600000D01*
X150851214Y-89500000D02*
X147700000Y-89500000D01*
X153015100Y-91663886D02*
X150851214Y-89500000D01*
X153015100Y-91973490D02*
X153015100Y-91663886D01*
D26*
%TO.N,/gpx2/TVDD18*%
X155200000Y-88867000D02*
X156162000Y-87905000D01*
X155200000Y-93700000D02*
X155200000Y-88867000D01*
X159732000Y-112045000D02*
X157132000Y-109445000D01*
X153306000Y-95594000D02*
X155200000Y-93700000D01*
X154986050Y-109445000D02*
X153306000Y-107764950D01*
X157132000Y-109445000D02*
X154986050Y-109445000D01*
X153306000Y-107764950D02*
X153306000Y-95594000D01*
%TO.N,/gpx2/DVDD18*%
X149842000Y-90658000D02*
X149842000Y-106925000D01*
X149842000Y-106925000D02*
X148762000Y-108005000D01*
X150000000Y-90500000D02*
X149842000Y-90658000D01*
%TO.N,/gpx2/TVDD18O*%
X155276000Y-106205000D02*
X155276000Y-103919000D01*
X154006000Y-107475000D02*
X155276000Y-106205000D01*
D25*
%TO.N,/SYZYGY/MISO_A*%
X123246998Y-92830000D02*
X123447000Y-93030002D01*
X123717000Y-95095000D02*
X124472000Y-95095000D01*
X123447000Y-94825000D02*
X123717000Y-95095000D01*
X123447000Y-93030002D02*
X123447000Y-94825000D01*
%TO.N,/SYZYGY/SS_N_A*%
X121452340Y-93202340D02*
X122050000Y-93800000D01*
X121447000Y-93202340D02*
X121452340Y-93202340D01*
X123547000Y-97495000D02*
X124472000Y-97495000D01*
X122050000Y-93800000D02*
X122050000Y-95998000D01*
X122050000Y-95998000D02*
X123547000Y-97495000D01*
%TO.N,/SYZYGY/DISABLEP_A*%
X119570000Y-98295000D02*
X118292000Y-98295000D01*
%TO.N,/SYZYGY/PARITY_A*%
X120170000Y-98543529D02*
X120110000Y-98603529D01*
X120110000Y-98603529D02*
X120110000Y-98990000D01*
X119640000Y-92420000D02*
X119740000Y-92520000D01*
X124202000Y-99365000D02*
X124472000Y-99095000D01*
X123447000Y-99365000D02*
X124202000Y-99365000D01*
X119640000Y-92420000D02*
X119640000Y-92926471D01*
X120170000Y-98046471D02*
X120170000Y-98543529D01*
X119640000Y-94863529D02*
X119640000Y-97516471D01*
X123192000Y-99620000D02*
X123447000Y-99365000D01*
X119960000Y-93246471D02*
X119960000Y-94543529D01*
X120110000Y-98990000D02*
X120740000Y-99620000D01*
X119640000Y-97516471D02*
X120170000Y-98046471D01*
X119960000Y-94543529D02*
X119640000Y-94863529D01*
X119640000Y-92926471D02*
X119960000Y-93246471D01*
X120740000Y-99620000D02*
X123192000Y-99620000D01*
%TO.N,/SYZYGY/SCK_A*%
X123278784Y-91489570D02*
X122402812Y-91489570D01*
X122450000Y-95832314D02*
X123312686Y-96695000D01*
X122047000Y-91845382D02*
X122047000Y-93231314D01*
X122402812Y-91489570D02*
X122047000Y-91845382D01*
X123312686Y-96695000D02*
X124472000Y-96695000D01*
X122047000Y-93231314D02*
X122450000Y-93634314D01*
X122450000Y-93634314D02*
X122450000Y-95832314D01*
%TO.N,/SYZYGY/REFRESP_A*%
X118292000Y-99095000D02*
X119515639Y-99095000D01*
X119515639Y-99095000D02*
X119520000Y-99099361D01*
X119520000Y-99099361D02*
X119690639Y-99099361D01*
X119690639Y-99099361D02*
X119695000Y-99095000D01*
%TO.N,/SYZYGY/MOSI_A*%
X123717000Y-95895000D02*
X124472000Y-95895000D01*
X122646999Y-92093912D02*
X122646999Y-93265627D01*
X123047000Y-95225000D02*
X123717000Y-95895000D01*
X122646999Y-93265627D02*
X123047000Y-93665628D01*
X123047000Y-93665628D02*
X123047000Y-95225000D01*
%TO.N,/SYZYGY/MOSI_B*%
X133881471Y-88200000D02*
X151477000Y-88200000D01*
X132400000Y-89681471D02*
X133881471Y-88200000D01*
X151477000Y-88200000D02*
X153642000Y-86035000D01*
X133020000Y-90900000D02*
X132400000Y-90280000D01*
X132400000Y-90280000D02*
X132400000Y-89681471D01*
%TO.N,/SYZYGY/REFRESP_B*%
X162882000Y-94543529D02*
X162882000Y-85295000D01*
X158332000Y-98670000D02*
X158755529Y-98670000D01*
X158755529Y-98670000D02*
X162882000Y-94543529D01*
%TO.N,/SYZYGY/SS_N_B*%
X147800000Y-92900000D02*
X147800000Y-95578000D01*
X144210000Y-91469461D02*
X144940539Y-92200000D01*
X144940539Y-92200000D02*
X147100000Y-92200000D01*
X147800000Y-95578000D02*
X148442000Y-96220000D01*
X147100000Y-92200000D02*
X147800000Y-92900000D01*
%TO.N,/SYZYGY/SCK_B*%
X133000000Y-89930000D02*
X134330000Y-88600000D01*
X155032000Y-86945000D02*
X155032000Y-84645000D01*
X134330000Y-88600000D02*
X153377000Y-88600000D01*
X153377000Y-88600000D02*
X155032000Y-86945000D01*
X155032000Y-84645000D02*
X156182000Y-83495000D01*
%TO.N,/SYZYGY/DISABLEP_B*%
X164640000Y-95485529D02*
X164640000Y-85450000D01*
X164640000Y-85450000D02*
X164640000Y-85380000D01*
X158965529Y-101160000D02*
X164640000Y-95485529D01*
X158310000Y-101160000D02*
X158965529Y-101160000D01*
%TO.N,/SYZYGY/PARITY_B*%
X147351471Y-89000000D02*
X150916900Y-89000000D01*
X146620000Y-91000000D02*
X146620000Y-89731471D01*
X150916900Y-89000000D02*
X153615100Y-91698200D01*
X153615100Y-91698200D02*
X153615100Y-93864900D01*
X146620000Y-89731471D02*
X147351471Y-89000000D01*
X153615100Y-93864900D02*
X152070000Y-95410000D01*
%TO.N,/SYZYGY/INTERRUPT_A*%
X120570000Y-98710000D02*
X120570000Y-97880786D01*
X120040000Y-97350786D02*
X120040000Y-95029215D01*
X120340000Y-91380000D02*
X120290000Y-91380000D01*
X120040000Y-95029215D02*
X120360000Y-94709215D01*
X120360000Y-94709215D02*
X120360000Y-91400000D01*
X120290000Y-91380000D02*
X120300000Y-91390000D01*
X122677000Y-98295000D02*
X122002000Y-98970000D01*
X122002000Y-98970000D02*
X120830000Y-98970000D01*
X120570000Y-97880786D02*
X120040000Y-97350786D01*
X124472000Y-98295000D02*
X122677000Y-98295000D01*
X120360000Y-91400000D02*
X120340000Y-91380000D01*
X120830000Y-98970000D02*
X120570000Y-98710000D01*
%TD*%
M02*
