%TF.GenerationSoftware,KiCad,Pcbnew,8.0.4*%
%TF.CreationDate,2025-07-14T14:53:05+02:00*%
%TF.ProjectId,syzygy_gpx2_2_1,73797a79-6779-45f6-9770-78325f325f31,rev?*%
%TF.SameCoordinates,Original*%
%TF.FileFunction,Drillmap*%
%TF.FilePolarity,Positive*%
%FSLAX45Y45*%
G04 Gerber Fmt 4.5, Leading zero omitted, Abs format (unit mm)*
G04 Created by KiCad (PCBNEW 8.0.4) date 2025-07-14 14:53:05*
%MOMM*%
%LPD*%
G01*
G04 APERTURE LIST*
%ADD10C,0.050000*%
%ADD11C,0.200000*%
%ADD12C,0.102000*%
%ADD13C,0.320000*%
G04 APERTURE END LIST*
D10*
X11438200Y-7699500D02*
X18438200Y-7699500D01*
X18438200Y-12199500D01*
X11438200Y-12199500D01*
X11438200Y-7699500D01*
D11*
D12*
X12291200Y-8974500D02*
X12393200Y-9076500D01*
X12393200Y-8974500D02*
X12291200Y-9076500D01*
X12291200Y-10822500D02*
X12393200Y-10924500D01*
X12393200Y-10822500D02*
X12291200Y-10924500D01*
D13*
X12298200Y-8249500D02*
G75*
G02*
X11978200Y-8249500I-160000J0D01*
G01*
X11978200Y-8249500D02*
G75*
G02*
X12298200Y-8249500I160000J0D01*
G01*
X12298200Y-11649500D02*
G75*
G02*
X11978200Y-11649500I-160000J0D01*
G01*
X11978200Y-11649500D02*
G75*
G02*
X12298200Y-11649500I160000J0D01*
G01*
D11*
X11696477Y-12513484D02*
X11696477Y-12313484D01*
X11696477Y-12313484D02*
X11744096Y-12313484D01*
X11744096Y-12313484D02*
X11772667Y-12323008D01*
X11772667Y-12323008D02*
X11791715Y-12342055D01*
X11791715Y-12342055D02*
X11801239Y-12361103D01*
X11801239Y-12361103D02*
X11810762Y-12399198D01*
X11810762Y-12399198D02*
X11810762Y-12427769D01*
X11810762Y-12427769D02*
X11801239Y-12465865D01*
X11801239Y-12465865D02*
X11791715Y-12484912D01*
X11791715Y-12484912D02*
X11772667Y-12503960D01*
X11772667Y-12503960D02*
X11744096Y-12513484D01*
X11744096Y-12513484D02*
X11696477Y-12513484D01*
X11896477Y-12513484D02*
X11896477Y-12380150D01*
X11896477Y-12418246D02*
X11906001Y-12399198D01*
X11906001Y-12399198D02*
X11915524Y-12389674D01*
X11915524Y-12389674D02*
X11934572Y-12380150D01*
X11934572Y-12380150D02*
X11953620Y-12380150D01*
X12020286Y-12513484D02*
X12020286Y-12380150D01*
X12020286Y-12313484D02*
X12010762Y-12323008D01*
X12010762Y-12323008D02*
X12020286Y-12332531D01*
X12020286Y-12332531D02*
X12029810Y-12323008D01*
X12029810Y-12323008D02*
X12020286Y-12313484D01*
X12020286Y-12313484D02*
X12020286Y-12332531D01*
X12144096Y-12513484D02*
X12125048Y-12503960D01*
X12125048Y-12503960D02*
X12115524Y-12484912D01*
X12115524Y-12484912D02*
X12115524Y-12313484D01*
X12248858Y-12513484D02*
X12229810Y-12503960D01*
X12229810Y-12503960D02*
X12220286Y-12484912D01*
X12220286Y-12484912D02*
X12220286Y-12313484D01*
X12477429Y-12513484D02*
X12477429Y-12313484D01*
X12477429Y-12313484D02*
X12544096Y-12456341D01*
X12544096Y-12456341D02*
X12610762Y-12313484D01*
X12610762Y-12313484D02*
X12610762Y-12513484D01*
X12791715Y-12513484D02*
X12791715Y-12408722D01*
X12791715Y-12408722D02*
X12782191Y-12389674D01*
X12782191Y-12389674D02*
X12763143Y-12380150D01*
X12763143Y-12380150D02*
X12725048Y-12380150D01*
X12725048Y-12380150D02*
X12706001Y-12389674D01*
X12791715Y-12503960D02*
X12772667Y-12513484D01*
X12772667Y-12513484D02*
X12725048Y-12513484D01*
X12725048Y-12513484D02*
X12706001Y-12503960D01*
X12706001Y-12503960D02*
X12696477Y-12484912D01*
X12696477Y-12484912D02*
X12696477Y-12465865D01*
X12696477Y-12465865D02*
X12706001Y-12446817D01*
X12706001Y-12446817D02*
X12725048Y-12437293D01*
X12725048Y-12437293D02*
X12772667Y-12437293D01*
X12772667Y-12437293D02*
X12791715Y-12427769D01*
X12886953Y-12380150D02*
X12886953Y-12580150D01*
X12886953Y-12389674D02*
X12906001Y-12380150D01*
X12906001Y-12380150D02*
X12944096Y-12380150D01*
X12944096Y-12380150D02*
X12963143Y-12389674D01*
X12963143Y-12389674D02*
X12972667Y-12399198D01*
X12972667Y-12399198D02*
X12982191Y-12418246D01*
X12982191Y-12418246D02*
X12982191Y-12475388D01*
X12982191Y-12475388D02*
X12972667Y-12494436D01*
X12972667Y-12494436D02*
X12963143Y-12503960D01*
X12963143Y-12503960D02*
X12944096Y-12513484D01*
X12944096Y-12513484D02*
X12906001Y-12513484D01*
X12906001Y-12513484D02*
X12886953Y-12503960D01*
X13067905Y-12494436D02*
X13077429Y-12503960D01*
X13077429Y-12503960D02*
X13067905Y-12513484D01*
X13067905Y-12513484D02*
X13058382Y-12503960D01*
X13058382Y-12503960D02*
X13067905Y-12494436D01*
X13067905Y-12494436D02*
X13067905Y-12513484D01*
X13067905Y-12389674D02*
X13077429Y-12399198D01*
X13077429Y-12399198D02*
X13067905Y-12408722D01*
X13067905Y-12408722D02*
X13058382Y-12399198D01*
X13058382Y-12399198D02*
X13067905Y-12389674D01*
X13067905Y-12389674D02*
X13067905Y-12408722D01*
D12*
X11333700Y-12791000D02*
X11435700Y-12893000D01*
X11435700Y-12791000D02*
X11333700Y-12893000D01*
D11*
X11801239Y-12933484D02*
X11686953Y-12933484D01*
X11744096Y-12933484D02*
X11744096Y-12733484D01*
X11744096Y-12733484D02*
X11725048Y-12762055D01*
X11725048Y-12762055D02*
X11706001Y-12781103D01*
X11706001Y-12781103D02*
X11686953Y-12790627D01*
X11886953Y-12914436D02*
X11896477Y-12923960D01*
X11896477Y-12923960D02*
X11886953Y-12933484D01*
X11886953Y-12933484D02*
X11877429Y-12923960D01*
X11877429Y-12923960D02*
X11886953Y-12914436D01*
X11886953Y-12914436D02*
X11886953Y-12933484D01*
X12020286Y-12733484D02*
X12039334Y-12733484D01*
X12039334Y-12733484D02*
X12058382Y-12743008D01*
X12058382Y-12743008D02*
X12067905Y-12752531D01*
X12067905Y-12752531D02*
X12077429Y-12771579D01*
X12077429Y-12771579D02*
X12086953Y-12809674D01*
X12086953Y-12809674D02*
X12086953Y-12857293D01*
X12086953Y-12857293D02*
X12077429Y-12895388D01*
X12077429Y-12895388D02*
X12067905Y-12914436D01*
X12067905Y-12914436D02*
X12058382Y-12923960D01*
X12058382Y-12923960D02*
X12039334Y-12933484D01*
X12039334Y-12933484D02*
X12020286Y-12933484D01*
X12020286Y-12933484D02*
X12001239Y-12923960D01*
X12001239Y-12923960D02*
X11991715Y-12914436D01*
X11991715Y-12914436D02*
X11982191Y-12895388D01*
X11982191Y-12895388D02*
X11972667Y-12857293D01*
X11972667Y-12857293D02*
X11972667Y-12809674D01*
X11972667Y-12809674D02*
X11982191Y-12771579D01*
X11982191Y-12771579D02*
X11991715Y-12752531D01*
X11991715Y-12752531D02*
X12001239Y-12743008D01*
X12001239Y-12743008D02*
X12020286Y-12733484D01*
X12163143Y-12752531D02*
X12172667Y-12743008D01*
X12172667Y-12743008D02*
X12191715Y-12733484D01*
X12191715Y-12733484D02*
X12239334Y-12733484D01*
X12239334Y-12733484D02*
X12258382Y-12743008D01*
X12258382Y-12743008D02*
X12267905Y-12752531D01*
X12267905Y-12752531D02*
X12277429Y-12771579D01*
X12277429Y-12771579D02*
X12277429Y-12790627D01*
X12277429Y-12790627D02*
X12267905Y-12819198D01*
X12267905Y-12819198D02*
X12153620Y-12933484D01*
X12153620Y-12933484D02*
X12277429Y-12933484D01*
X12401239Y-12733484D02*
X12420286Y-12733484D01*
X12420286Y-12733484D02*
X12439334Y-12743008D01*
X12439334Y-12743008D02*
X12448858Y-12752531D01*
X12448858Y-12752531D02*
X12458382Y-12771579D01*
X12458382Y-12771579D02*
X12467905Y-12809674D01*
X12467905Y-12809674D02*
X12467905Y-12857293D01*
X12467905Y-12857293D02*
X12458382Y-12895388D01*
X12458382Y-12895388D02*
X12448858Y-12914436D01*
X12448858Y-12914436D02*
X12439334Y-12923960D01*
X12439334Y-12923960D02*
X12420286Y-12933484D01*
X12420286Y-12933484D02*
X12401239Y-12933484D01*
X12401239Y-12933484D02*
X12382191Y-12923960D01*
X12382191Y-12923960D02*
X12372667Y-12914436D01*
X12372667Y-12914436D02*
X12363143Y-12895388D01*
X12363143Y-12895388D02*
X12353620Y-12857293D01*
X12353620Y-12857293D02*
X12353620Y-12809674D01*
X12353620Y-12809674D02*
X12363143Y-12771579D01*
X12363143Y-12771579D02*
X12372667Y-12752531D01*
X12372667Y-12752531D02*
X12382191Y-12743008D01*
X12382191Y-12743008D02*
X12401239Y-12733484D01*
X12553620Y-12933484D02*
X12553620Y-12800150D01*
X12553620Y-12819198D02*
X12563143Y-12809674D01*
X12563143Y-12809674D02*
X12582191Y-12800150D01*
X12582191Y-12800150D02*
X12610763Y-12800150D01*
X12610763Y-12800150D02*
X12629810Y-12809674D01*
X12629810Y-12809674D02*
X12639334Y-12828722D01*
X12639334Y-12828722D02*
X12639334Y-12933484D01*
X12639334Y-12828722D02*
X12648858Y-12809674D01*
X12648858Y-12809674D02*
X12667905Y-12800150D01*
X12667905Y-12800150D02*
X12696477Y-12800150D01*
X12696477Y-12800150D02*
X12715524Y-12809674D01*
X12715524Y-12809674D02*
X12725048Y-12828722D01*
X12725048Y-12828722D02*
X12725048Y-12933484D01*
X12820286Y-12933484D02*
X12820286Y-12800150D01*
X12820286Y-12819198D02*
X12829810Y-12809674D01*
X12829810Y-12809674D02*
X12848858Y-12800150D01*
X12848858Y-12800150D02*
X12877429Y-12800150D01*
X12877429Y-12800150D02*
X12896477Y-12809674D01*
X12896477Y-12809674D02*
X12906001Y-12828722D01*
X12906001Y-12828722D02*
X12906001Y-12933484D01*
X12906001Y-12828722D02*
X12915524Y-12809674D01*
X12915524Y-12809674D02*
X12934572Y-12800150D01*
X12934572Y-12800150D02*
X12963143Y-12800150D01*
X12963143Y-12800150D02*
X12982191Y-12809674D01*
X12982191Y-12809674D02*
X12991715Y-12828722D01*
X12991715Y-12828722D02*
X12991715Y-12933484D01*
X13382191Y-12723960D02*
X13210763Y-12981103D01*
X13639334Y-12733484D02*
X13658382Y-12733484D01*
X13658382Y-12733484D02*
X13677429Y-12743008D01*
X13677429Y-12743008D02*
X13686953Y-12752531D01*
X13686953Y-12752531D02*
X13696477Y-12771579D01*
X13696477Y-12771579D02*
X13706001Y-12809674D01*
X13706001Y-12809674D02*
X13706001Y-12857293D01*
X13706001Y-12857293D02*
X13696477Y-12895388D01*
X13696477Y-12895388D02*
X13686953Y-12914436D01*
X13686953Y-12914436D02*
X13677429Y-12923960D01*
X13677429Y-12923960D02*
X13658382Y-12933484D01*
X13658382Y-12933484D02*
X13639334Y-12933484D01*
X13639334Y-12933484D02*
X13620286Y-12923960D01*
X13620286Y-12923960D02*
X13610763Y-12914436D01*
X13610763Y-12914436D02*
X13601239Y-12895388D01*
X13601239Y-12895388D02*
X13591715Y-12857293D01*
X13591715Y-12857293D02*
X13591715Y-12809674D01*
X13591715Y-12809674D02*
X13601239Y-12771579D01*
X13601239Y-12771579D02*
X13610763Y-12752531D01*
X13610763Y-12752531D02*
X13620286Y-12743008D01*
X13620286Y-12743008D02*
X13639334Y-12733484D01*
X13791715Y-12914436D02*
X13801239Y-12923960D01*
X13801239Y-12923960D02*
X13791715Y-12933484D01*
X13791715Y-12933484D02*
X13782191Y-12923960D01*
X13782191Y-12923960D02*
X13791715Y-12914436D01*
X13791715Y-12914436D02*
X13791715Y-12933484D01*
X13925048Y-12733484D02*
X13944096Y-12733484D01*
X13944096Y-12733484D02*
X13963144Y-12743008D01*
X13963144Y-12743008D02*
X13972667Y-12752531D01*
X13972667Y-12752531D02*
X13982191Y-12771579D01*
X13982191Y-12771579D02*
X13991715Y-12809674D01*
X13991715Y-12809674D02*
X13991715Y-12857293D01*
X13991715Y-12857293D02*
X13982191Y-12895388D01*
X13982191Y-12895388D02*
X13972667Y-12914436D01*
X13972667Y-12914436D02*
X13963144Y-12923960D01*
X13963144Y-12923960D02*
X13944096Y-12933484D01*
X13944096Y-12933484D02*
X13925048Y-12933484D01*
X13925048Y-12933484D02*
X13906001Y-12923960D01*
X13906001Y-12923960D02*
X13896477Y-12914436D01*
X13896477Y-12914436D02*
X13886953Y-12895388D01*
X13886953Y-12895388D02*
X13877429Y-12857293D01*
X13877429Y-12857293D02*
X13877429Y-12809674D01*
X13877429Y-12809674D02*
X13886953Y-12771579D01*
X13886953Y-12771579D02*
X13896477Y-12752531D01*
X13896477Y-12752531D02*
X13906001Y-12743008D01*
X13906001Y-12743008D02*
X13925048Y-12733484D01*
X14163144Y-12800150D02*
X14163144Y-12933484D01*
X14115525Y-12723960D02*
X14067906Y-12866817D01*
X14067906Y-12866817D02*
X14191715Y-12866817D01*
X14306001Y-12733484D02*
X14325048Y-12733484D01*
X14325048Y-12733484D02*
X14344096Y-12743008D01*
X14344096Y-12743008D02*
X14353620Y-12752531D01*
X14353620Y-12752531D02*
X14363144Y-12771579D01*
X14363144Y-12771579D02*
X14372667Y-12809674D01*
X14372667Y-12809674D02*
X14372667Y-12857293D01*
X14372667Y-12857293D02*
X14363144Y-12895388D01*
X14363144Y-12895388D02*
X14353620Y-12914436D01*
X14353620Y-12914436D02*
X14344096Y-12923960D01*
X14344096Y-12923960D02*
X14325048Y-12933484D01*
X14325048Y-12933484D02*
X14306001Y-12933484D01*
X14306001Y-12933484D02*
X14286953Y-12923960D01*
X14286953Y-12923960D02*
X14277429Y-12914436D01*
X14277429Y-12914436D02*
X14267906Y-12895388D01*
X14267906Y-12895388D02*
X14258382Y-12857293D01*
X14258382Y-12857293D02*
X14258382Y-12809674D01*
X14258382Y-12809674D02*
X14267906Y-12771579D01*
X14267906Y-12771579D02*
X14277429Y-12752531D01*
X14277429Y-12752531D02*
X14286953Y-12743008D01*
X14286953Y-12743008D02*
X14306001Y-12733484D01*
X14448858Y-12752531D02*
X14458382Y-12743008D01*
X14458382Y-12743008D02*
X14477429Y-12733484D01*
X14477429Y-12733484D02*
X14525048Y-12733484D01*
X14525048Y-12733484D02*
X14544096Y-12743008D01*
X14544096Y-12743008D02*
X14553620Y-12752531D01*
X14553620Y-12752531D02*
X14563144Y-12771579D01*
X14563144Y-12771579D02*
X14563144Y-12790627D01*
X14563144Y-12790627D02*
X14553620Y-12819198D01*
X14553620Y-12819198D02*
X14439334Y-12933484D01*
X14439334Y-12933484D02*
X14563144Y-12933484D01*
X14639334Y-12733484D02*
X14639334Y-12771579D01*
X14715525Y-12733484D02*
X14715525Y-12771579D01*
X15010763Y-13009674D02*
X15001239Y-13000150D01*
X15001239Y-13000150D02*
X14982191Y-12971579D01*
X14982191Y-12971579D02*
X14972668Y-12952531D01*
X14972668Y-12952531D02*
X14963144Y-12923960D01*
X14963144Y-12923960D02*
X14953620Y-12876341D01*
X14953620Y-12876341D02*
X14953620Y-12838246D01*
X14953620Y-12838246D02*
X14963144Y-12790627D01*
X14963144Y-12790627D02*
X14972668Y-12762055D01*
X14972668Y-12762055D02*
X14982191Y-12743008D01*
X14982191Y-12743008D02*
X15001239Y-12714436D01*
X15001239Y-12714436D02*
X15010763Y-12704912D01*
X15077429Y-12752531D02*
X15086953Y-12743008D01*
X15086953Y-12743008D02*
X15106001Y-12733484D01*
X15106001Y-12733484D02*
X15153620Y-12733484D01*
X15153620Y-12733484D02*
X15172668Y-12743008D01*
X15172668Y-12743008D02*
X15182191Y-12752531D01*
X15182191Y-12752531D02*
X15191715Y-12771579D01*
X15191715Y-12771579D02*
X15191715Y-12790627D01*
X15191715Y-12790627D02*
X15182191Y-12819198D01*
X15182191Y-12819198D02*
X15067906Y-12933484D01*
X15067906Y-12933484D02*
X15191715Y-12933484D01*
X15429810Y-12933484D02*
X15429810Y-12733484D01*
X15515525Y-12933484D02*
X15515525Y-12828722D01*
X15515525Y-12828722D02*
X15506001Y-12809674D01*
X15506001Y-12809674D02*
X15486953Y-12800150D01*
X15486953Y-12800150D02*
X15458382Y-12800150D01*
X15458382Y-12800150D02*
X15439334Y-12809674D01*
X15439334Y-12809674D02*
X15429810Y-12819198D01*
X15639334Y-12933484D02*
X15620287Y-12923960D01*
X15620287Y-12923960D02*
X15610763Y-12914436D01*
X15610763Y-12914436D02*
X15601239Y-12895388D01*
X15601239Y-12895388D02*
X15601239Y-12838246D01*
X15601239Y-12838246D02*
X15610763Y-12819198D01*
X15610763Y-12819198D02*
X15620287Y-12809674D01*
X15620287Y-12809674D02*
X15639334Y-12800150D01*
X15639334Y-12800150D02*
X15667906Y-12800150D01*
X15667906Y-12800150D02*
X15686953Y-12809674D01*
X15686953Y-12809674D02*
X15696477Y-12819198D01*
X15696477Y-12819198D02*
X15706001Y-12838246D01*
X15706001Y-12838246D02*
X15706001Y-12895388D01*
X15706001Y-12895388D02*
X15696477Y-12914436D01*
X15696477Y-12914436D02*
X15686953Y-12923960D01*
X15686953Y-12923960D02*
X15667906Y-12933484D01*
X15667906Y-12933484D02*
X15639334Y-12933484D01*
X15820287Y-12933484D02*
X15801239Y-12923960D01*
X15801239Y-12923960D02*
X15791715Y-12904912D01*
X15791715Y-12904912D02*
X15791715Y-12733484D01*
X15972668Y-12923960D02*
X15953620Y-12933484D01*
X15953620Y-12933484D02*
X15915525Y-12933484D01*
X15915525Y-12933484D02*
X15896477Y-12923960D01*
X15896477Y-12923960D02*
X15886953Y-12904912D01*
X15886953Y-12904912D02*
X15886953Y-12828722D01*
X15886953Y-12828722D02*
X15896477Y-12809674D01*
X15896477Y-12809674D02*
X15915525Y-12800150D01*
X15915525Y-12800150D02*
X15953620Y-12800150D01*
X15953620Y-12800150D02*
X15972668Y-12809674D01*
X15972668Y-12809674D02*
X15982191Y-12828722D01*
X15982191Y-12828722D02*
X15982191Y-12847769D01*
X15982191Y-12847769D02*
X15886953Y-12866817D01*
X16058382Y-12923960D02*
X16077430Y-12933484D01*
X16077430Y-12933484D02*
X16115525Y-12933484D01*
X16115525Y-12933484D02*
X16134572Y-12923960D01*
X16134572Y-12923960D02*
X16144096Y-12904912D01*
X16144096Y-12904912D02*
X16144096Y-12895388D01*
X16144096Y-12895388D02*
X16134572Y-12876341D01*
X16134572Y-12876341D02*
X16115525Y-12866817D01*
X16115525Y-12866817D02*
X16086953Y-12866817D01*
X16086953Y-12866817D02*
X16067906Y-12857293D01*
X16067906Y-12857293D02*
X16058382Y-12838246D01*
X16058382Y-12838246D02*
X16058382Y-12828722D01*
X16058382Y-12828722D02*
X16067906Y-12809674D01*
X16067906Y-12809674D02*
X16086953Y-12800150D01*
X16086953Y-12800150D02*
X16115525Y-12800150D01*
X16115525Y-12800150D02*
X16134572Y-12809674D01*
X16210763Y-13009674D02*
X16220287Y-13000150D01*
X16220287Y-13000150D02*
X16239334Y-12971579D01*
X16239334Y-12971579D02*
X16248858Y-12952531D01*
X16248858Y-12952531D02*
X16258382Y-12923960D01*
X16258382Y-12923960D02*
X16267906Y-12876341D01*
X16267906Y-12876341D02*
X16267906Y-12838246D01*
X16267906Y-12838246D02*
X16258382Y-12790627D01*
X16258382Y-12790627D02*
X16248858Y-12762055D01*
X16248858Y-12762055D02*
X16239334Y-12743008D01*
X16239334Y-12743008D02*
X16220287Y-12714436D01*
X16220287Y-12714436D02*
X16210763Y-12704912D01*
X16572668Y-13009674D02*
X16563144Y-13000150D01*
X16563144Y-13000150D02*
X16544096Y-12971579D01*
X16544096Y-12971579D02*
X16534572Y-12952531D01*
X16534572Y-12952531D02*
X16525049Y-12923960D01*
X16525049Y-12923960D02*
X16515525Y-12876341D01*
X16515525Y-12876341D02*
X16515525Y-12838246D01*
X16515525Y-12838246D02*
X16525049Y-12790627D01*
X16525049Y-12790627D02*
X16534572Y-12762055D01*
X16534572Y-12762055D02*
X16544096Y-12743008D01*
X16544096Y-12743008D02*
X16563144Y-12714436D01*
X16563144Y-12714436D02*
X16572668Y-12704912D01*
X16648858Y-12800150D02*
X16648858Y-12933484D01*
X16648858Y-12819198D02*
X16658382Y-12809674D01*
X16658382Y-12809674D02*
X16677430Y-12800150D01*
X16677430Y-12800150D02*
X16706001Y-12800150D01*
X16706001Y-12800150D02*
X16725049Y-12809674D01*
X16725049Y-12809674D02*
X16734572Y-12828722D01*
X16734572Y-12828722D02*
X16734572Y-12933484D01*
X16858382Y-12933484D02*
X16839334Y-12923960D01*
X16839334Y-12923960D02*
X16829811Y-12914436D01*
X16829811Y-12914436D02*
X16820287Y-12895388D01*
X16820287Y-12895388D02*
X16820287Y-12838246D01*
X16820287Y-12838246D02*
X16829811Y-12819198D01*
X16829811Y-12819198D02*
X16839334Y-12809674D01*
X16839334Y-12809674D02*
X16858382Y-12800150D01*
X16858382Y-12800150D02*
X16886954Y-12800150D01*
X16886954Y-12800150D02*
X16906001Y-12809674D01*
X16906001Y-12809674D02*
X16915525Y-12819198D01*
X16915525Y-12819198D02*
X16925049Y-12838246D01*
X16925049Y-12838246D02*
X16925049Y-12895388D01*
X16925049Y-12895388D02*
X16915525Y-12914436D01*
X16915525Y-12914436D02*
X16906001Y-12923960D01*
X16906001Y-12923960D02*
X16886954Y-12933484D01*
X16886954Y-12933484D02*
X16858382Y-12933484D01*
X16982192Y-12800150D02*
X17058382Y-12800150D01*
X17010763Y-12733484D02*
X17010763Y-12904912D01*
X17010763Y-12904912D02*
X17020287Y-12923960D01*
X17020287Y-12923960D02*
X17039334Y-12933484D01*
X17039334Y-12933484D02*
X17058382Y-12933484D01*
X17277430Y-12800150D02*
X17277430Y-13000150D01*
X17277430Y-12809674D02*
X17296477Y-12800150D01*
X17296477Y-12800150D02*
X17334573Y-12800150D01*
X17334573Y-12800150D02*
X17353620Y-12809674D01*
X17353620Y-12809674D02*
X17363144Y-12819198D01*
X17363144Y-12819198D02*
X17372668Y-12838246D01*
X17372668Y-12838246D02*
X17372668Y-12895388D01*
X17372668Y-12895388D02*
X17363144Y-12914436D01*
X17363144Y-12914436D02*
X17353620Y-12923960D01*
X17353620Y-12923960D02*
X17334573Y-12933484D01*
X17334573Y-12933484D02*
X17296477Y-12933484D01*
X17296477Y-12933484D02*
X17277430Y-12923960D01*
X17486954Y-12933484D02*
X17467906Y-12923960D01*
X17467906Y-12923960D02*
X17458382Y-12904912D01*
X17458382Y-12904912D02*
X17458382Y-12733484D01*
X17648858Y-12933484D02*
X17648858Y-12828722D01*
X17648858Y-12828722D02*
X17639335Y-12809674D01*
X17639335Y-12809674D02*
X17620287Y-12800150D01*
X17620287Y-12800150D02*
X17582192Y-12800150D01*
X17582192Y-12800150D02*
X17563144Y-12809674D01*
X17648858Y-12923960D02*
X17629811Y-12933484D01*
X17629811Y-12933484D02*
X17582192Y-12933484D01*
X17582192Y-12933484D02*
X17563144Y-12923960D01*
X17563144Y-12923960D02*
X17553620Y-12904912D01*
X17553620Y-12904912D02*
X17553620Y-12885865D01*
X17553620Y-12885865D02*
X17563144Y-12866817D01*
X17563144Y-12866817D02*
X17582192Y-12857293D01*
X17582192Y-12857293D02*
X17629811Y-12857293D01*
X17629811Y-12857293D02*
X17648858Y-12847769D01*
X17715525Y-12800150D02*
X17791715Y-12800150D01*
X17744096Y-12733484D02*
X17744096Y-12904912D01*
X17744096Y-12904912D02*
X17753620Y-12923960D01*
X17753620Y-12923960D02*
X17772668Y-12933484D01*
X17772668Y-12933484D02*
X17791715Y-12933484D01*
X17934573Y-12923960D02*
X17915525Y-12933484D01*
X17915525Y-12933484D02*
X17877430Y-12933484D01*
X17877430Y-12933484D02*
X17858382Y-12923960D01*
X17858382Y-12923960D02*
X17848858Y-12904912D01*
X17848858Y-12904912D02*
X17848858Y-12828722D01*
X17848858Y-12828722D02*
X17858382Y-12809674D01*
X17858382Y-12809674D02*
X17877430Y-12800150D01*
X17877430Y-12800150D02*
X17915525Y-12800150D01*
X17915525Y-12800150D02*
X17934573Y-12809674D01*
X17934573Y-12809674D02*
X17944096Y-12828722D01*
X17944096Y-12828722D02*
X17944096Y-12847769D01*
X17944096Y-12847769D02*
X17848858Y-12866817D01*
X18115525Y-12933484D02*
X18115525Y-12733484D01*
X18115525Y-12923960D02*
X18096477Y-12933484D01*
X18096477Y-12933484D02*
X18058382Y-12933484D01*
X18058382Y-12933484D02*
X18039335Y-12923960D01*
X18039335Y-12923960D02*
X18029811Y-12914436D01*
X18029811Y-12914436D02*
X18020287Y-12895388D01*
X18020287Y-12895388D02*
X18020287Y-12838246D01*
X18020287Y-12838246D02*
X18029811Y-12819198D01*
X18029811Y-12819198D02*
X18039335Y-12809674D01*
X18039335Y-12809674D02*
X18058382Y-12800150D01*
X18058382Y-12800150D02*
X18096477Y-12800150D01*
X18096477Y-12800150D02*
X18115525Y-12809674D01*
X18191716Y-13009674D02*
X18201239Y-13000150D01*
X18201239Y-13000150D02*
X18220287Y-12971579D01*
X18220287Y-12971579D02*
X18229811Y-12952531D01*
X18229811Y-12952531D02*
X18239335Y-12923960D01*
X18239335Y-12923960D02*
X18248858Y-12876341D01*
X18248858Y-12876341D02*
X18248858Y-12838246D01*
X18248858Y-12838246D02*
X18239335Y-12790627D01*
X18239335Y-12790627D02*
X18229811Y-12762055D01*
X18229811Y-12762055D02*
X18220287Y-12743008D01*
X18220287Y-12743008D02*
X18201239Y-12714436D01*
X18201239Y-12714436D02*
X18191716Y-12704912D01*
X11435700Y-13106000D02*
G75*
G02*
X11235700Y-13106000I-100000J0D01*
G01*
X11235700Y-13106000D02*
G75*
G02*
X11435700Y-13106000I100000J0D01*
G01*
X11677429Y-12997484D02*
X11801239Y-12997484D01*
X11801239Y-12997484D02*
X11734572Y-13073674D01*
X11734572Y-13073674D02*
X11763143Y-13073674D01*
X11763143Y-13073674D02*
X11782191Y-13083198D01*
X11782191Y-13083198D02*
X11791715Y-13092722D01*
X11791715Y-13092722D02*
X11801239Y-13111769D01*
X11801239Y-13111769D02*
X11801239Y-13159388D01*
X11801239Y-13159388D02*
X11791715Y-13178436D01*
X11791715Y-13178436D02*
X11782191Y-13187960D01*
X11782191Y-13187960D02*
X11763143Y-13197484D01*
X11763143Y-13197484D02*
X11706001Y-13197484D01*
X11706001Y-13197484D02*
X11686953Y-13187960D01*
X11686953Y-13187960D02*
X11677429Y-13178436D01*
X11886953Y-13178436D02*
X11896477Y-13187960D01*
X11896477Y-13187960D02*
X11886953Y-13197484D01*
X11886953Y-13197484D02*
X11877429Y-13187960D01*
X11877429Y-13187960D02*
X11886953Y-13178436D01*
X11886953Y-13178436D02*
X11886953Y-13197484D01*
X11972667Y-13016531D02*
X11982191Y-13007008D01*
X11982191Y-13007008D02*
X12001239Y-12997484D01*
X12001239Y-12997484D02*
X12048858Y-12997484D01*
X12048858Y-12997484D02*
X12067905Y-13007008D01*
X12067905Y-13007008D02*
X12077429Y-13016531D01*
X12077429Y-13016531D02*
X12086953Y-13035579D01*
X12086953Y-13035579D02*
X12086953Y-13054627D01*
X12086953Y-13054627D02*
X12077429Y-13083198D01*
X12077429Y-13083198D02*
X11963143Y-13197484D01*
X11963143Y-13197484D02*
X12086953Y-13197484D01*
X12210762Y-12997484D02*
X12229810Y-12997484D01*
X12229810Y-12997484D02*
X12248858Y-13007008D01*
X12248858Y-13007008D02*
X12258382Y-13016531D01*
X12258382Y-13016531D02*
X12267905Y-13035579D01*
X12267905Y-13035579D02*
X12277429Y-13073674D01*
X12277429Y-13073674D02*
X12277429Y-13121293D01*
X12277429Y-13121293D02*
X12267905Y-13159388D01*
X12267905Y-13159388D02*
X12258382Y-13178436D01*
X12258382Y-13178436D02*
X12248858Y-13187960D01*
X12248858Y-13187960D02*
X12229810Y-13197484D01*
X12229810Y-13197484D02*
X12210762Y-13197484D01*
X12210762Y-13197484D02*
X12191715Y-13187960D01*
X12191715Y-13187960D02*
X12182191Y-13178436D01*
X12182191Y-13178436D02*
X12172667Y-13159388D01*
X12172667Y-13159388D02*
X12163143Y-13121293D01*
X12163143Y-13121293D02*
X12163143Y-13073674D01*
X12163143Y-13073674D02*
X12172667Y-13035579D01*
X12172667Y-13035579D02*
X12182191Y-13016531D01*
X12182191Y-13016531D02*
X12191715Y-13007008D01*
X12191715Y-13007008D02*
X12210762Y-12997484D01*
X12401239Y-12997484D02*
X12420286Y-12997484D01*
X12420286Y-12997484D02*
X12439334Y-13007008D01*
X12439334Y-13007008D02*
X12448858Y-13016531D01*
X12448858Y-13016531D02*
X12458382Y-13035579D01*
X12458382Y-13035579D02*
X12467905Y-13073674D01*
X12467905Y-13073674D02*
X12467905Y-13121293D01*
X12467905Y-13121293D02*
X12458382Y-13159388D01*
X12458382Y-13159388D02*
X12448858Y-13178436D01*
X12448858Y-13178436D02*
X12439334Y-13187960D01*
X12439334Y-13187960D02*
X12420286Y-13197484D01*
X12420286Y-13197484D02*
X12401239Y-13197484D01*
X12401239Y-13197484D02*
X12382191Y-13187960D01*
X12382191Y-13187960D02*
X12372667Y-13178436D01*
X12372667Y-13178436D02*
X12363143Y-13159388D01*
X12363143Y-13159388D02*
X12353620Y-13121293D01*
X12353620Y-13121293D02*
X12353620Y-13073674D01*
X12353620Y-13073674D02*
X12363143Y-13035579D01*
X12363143Y-13035579D02*
X12372667Y-13016531D01*
X12372667Y-13016531D02*
X12382191Y-13007008D01*
X12382191Y-13007008D02*
X12401239Y-12997484D01*
X12553620Y-13197484D02*
X12553620Y-13064150D01*
X12553620Y-13083198D02*
X12563143Y-13073674D01*
X12563143Y-13073674D02*
X12582191Y-13064150D01*
X12582191Y-13064150D02*
X12610763Y-13064150D01*
X12610763Y-13064150D02*
X12629810Y-13073674D01*
X12629810Y-13073674D02*
X12639334Y-13092722D01*
X12639334Y-13092722D02*
X12639334Y-13197484D01*
X12639334Y-13092722D02*
X12648858Y-13073674D01*
X12648858Y-13073674D02*
X12667905Y-13064150D01*
X12667905Y-13064150D02*
X12696477Y-13064150D01*
X12696477Y-13064150D02*
X12715524Y-13073674D01*
X12715524Y-13073674D02*
X12725048Y-13092722D01*
X12725048Y-13092722D02*
X12725048Y-13197484D01*
X12820286Y-13197484D02*
X12820286Y-13064150D01*
X12820286Y-13083198D02*
X12829810Y-13073674D01*
X12829810Y-13073674D02*
X12848858Y-13064150D01*
X12848858Y-13064150D02*
X12877429Y-13064150D01*
X12877429Y-13064150D02*
X12896477Y-13073674D01*
X12896477Y-13073674D02*
X12906001Y-13092722D01*
X12906001Y-13092722D02*
X12906001Y-13197484D01*
X12906001Y-13092722D02*
X12915524Y-13073674D01*
X12915524Y-13073674D02*
X12934572Y-13064150D01*
X12934572Y-13064150D02*
X12963143Y-13064150D01*
X12963143Y-13064150D02*
X12982191Y-13073674D01*
X12982191Y-13073674D02*
X12991715Y-13092722D01*
X12991715Y-13092722D02*
X12991715Y-13197484D01*
X13382191Y-12987960D02*
X13210763Y-13245103D01*
X13639334Y-12997484D02*
X13658382Y-12997484D01*
X13658382Y-12997484D02*
X13677429Y-13007008D01*
X13677429Y-13007008D02*
X13686953Y-13016531D01*
X13686953Y-13016531D02*
X13696477Y-13035579D01*
X13696477Y-13035579D02*
X13706001Y-13073674D01*
X13706001Y-13073674D02*
X13706001Y-13121293D01*
X13706001Y-13121293D02*
X13696477Y-13159388D01*
X13696477Y-13159388D02*
X13686953Y-13178436D01*
X13686953Y-13178436D02*
X13677429Y-13187960D01*
X13677429Y-13187960D02*
X13658382Y-13197484D01*
X13658382Y-13197484D02*
X13639334Y-13197484D01*
X13639334Y-13197484D02*
X13620286Y-13187960D01*
X13620286Y-13187960D02*
X13610763Y-13178436D01*
X13610763Y-13178436D02*
X13601239Y-13159388D01*
X13601239Y-13159388D02*
X13591715Y-13121293D01*
X13591715Y-13121293D02*
X13591715Y-13073674D01*
X13591715Y-13073674D02*
X13601239Y-13035579D01*
X13601239Y-13035579D02*
X13610763Y-13016531D01*
X13610763Y-13016531D02*
X13620286Y-13007008D01*
X13620286Y-13007008D02*
X13639334Y-12997484D01*
X13791715Y-13178436D02*
X13801239Y-13187960D01*
X13801239Y-13187960D02*
X13791715Y-13197484D01*
X13791715Y-13197484D02*
X13782191Y-13187960D01*
X13782191Y-13187960D02*
X13791715Y-13178436D01*
X13791715Y-13178436D02*
X13791715Y-13197484D01*
X13991715Y-13197484D02*
X13877429Y-13197484D01*
X13934572Y-13197484D02*
X13934572Y-12997484D01*
X13934572Y-12997484D02*
X13915525Y-13026055D01*
X13915525Y-13026055D02*
X13896477Y-13045103D01*
X13896477Y-13045103D02*
X13877429Y-13054627D01*
X14067906Y-13016531D02*
X14077429Y-13007008D01*
X14077429Y-13007008D02*
X14096477Y-12997484D01*
X14096477Y-12997484D02*
X14144096Y-12997484D01*
X14144096Y-12997484D02*
X14163144Y-13007008D01*
X14163144Y-13007008D02*
X14172667Y-13016531D01*
X14172667Y-13016531D02*
X14182191Y-13035579D01*
X14182191Y-13035579D02*
X14182191Y-13054627D01*
X14182191Y-13054627D02*
X14172667Y-13083198D01*
X14172667Y-13083198D02*
X14058382Y-13197484D01*
X14058382Y-13197484D02*
X14182191Y-13197484D01*
X14353620Y-12997484D02*
X14315525Y-12997484D01*
X14315525Y-12997484D02*
X14296477Y-13007008D01*
X14296477Y-13007008D02*
X14286953Y-13016531D01*
X14286953Y-13016531D02*
X14267906Y-13045103D01*
X14267906Y-13045103D02*
X14258382Y-13083198D01*
X14258382Y-13083198D02*
X14258382Y-13159388D01*
X14258382Y-13159388D02*
X14267906Y-13178436D01*
X14267906Y-13178436D02*
X14277429Y-13187960D01*
X14277429Y-13187960D02*
X14296477Y-13197484D01*
X14296477Y-13197484D02*
X14334572Y-13197484D01*
X14334572Y-13197484D02*
X14353620Y-13187960D01*
X14353620Y-13187960D02*
X14363144Y-13178436D01*
X14363144Y-13178436D02*
X14372667Y-13159388D01*
X14372667Y-13159388D02*
X14372667Y-13111769D01*
X14372667Y-13111769D02*
X14363144Y-13092722D01*
X14363144Y-13092722D02*
X14353620Y-13083198D01*
X14353620Y-13083198D02*
X14334572Y-13073674D01*
X14334572Y-13073674D02*
X14296477Y-13073674D01*
X14296477Y-13073674D02*
X14277429Y-13083198D01*
X14277429Y-13083198D02*
X14267906Y-13092722D01*
X14267906Y-13092722D02*
X14258382Y-13111769D01*
X14496477Y-12997484D02*
X14515525Y-12997484D01*
X14515525Y-12997484D02*
X14534572Y-13007008D01*
X14534572Y-13007008D02*
X14544096Y-13016531D01*
X14544096Y-13016531D02*
X14553620Y-13035579D01*
X14553620Y-13035579D02*
X14563144Y-13073674D01*
X14563144Y-13073674D02*
X14563144Y-13121293D01*
X14563144Y-13121293D02*
X14553620Y-13159388D01*
X14553620Y-13159388D02*
X14544096Y-13178436D01*
X14544096Y-13178436D02*
X14534572Y-13187960D01*
X14534572Y-13187960D02*
X14515525Y-13197484D01*
X14515525Y-13197484D02*
X14496477Y-13197484D01*
X14496477Y-13197484D02*
X14477429Y-13187960D01*
X14477429Y-13187960D02*
X14467906Y-13178436D01*
X14467906Y-13178436D02*
X14458382Y-13159388D01*
X14458382Y-13159388D02*
X14448858Y-13121293D01*
X14448858Y-13121293D02*
X14448858Y-13073674D01*
X14448858Y-13073674D02*
X14458382Y-13035579D01*
X14458382Y-13035579D02*
X14467906Y-13016531D01*
X14467906Y-13016531D02*
X14477429Y-13007008D01*
X14477429Y-13007008D02*
X14496477Y-12997484D01*
X14639334Y-12997484D02*
X14639334Y-13035579D01*
X14715525Y-12997484D02*
X14715525Y-13035579D01*
X15010763Y-13273674D02*
X15001239Y-13264150D01*
X15001239Y-13264150D02*
X14982191Y-13235579D01*
X14982191Y-13235579D02*
X14972668Y-13216531D01*
X14972668Y-13216531D02*
X14963144Y-13187960D01*
X14963144Y-13187960D02*
X14953620Y-13140341D01*
X14953620Y-13140341D02*
X14953620Y-13102246D01*
X14953620Y-13102246D02*
X14963144Y-13054627D01*
X14963144Y-13054627D02*
X14972668Y-13026055D01*
X14972668Y-13026055D02*
X14982191Y-13007008D01*
X14982191Y-13007008D02*
X15001239Y-12978436D01*
X15001239Y-12978436D02*
X15010763Y-12968912D01*
X15077429Y-13016531D02*
X15086953Y-13007008D01*
X15086953Y-13007008D02*
X15106001Y-12997484D01*
X15106001Y-12997484D02*
X15153620Y-12997484D01*
X15153620Y-12997484D02*
X15172668Y-13007008D01*
X15172668Y-13007008D02*
X15182191Y-13016531D01*
X15182191Y-13016531D02*
X15191715Y-13035579D01*
X15191715Y-13035579D02*
X15191715Y-13054627D01*
X15191715Y-13054627D02*
X15182191Y-13083198D01*
X15182191Y-13083198D02*
X15067906Y-13197484D01*
X15067906Y-13197484D02*
X15191715Y-13197484D01*
X15429810Y-13197484D02*
X15429810Y-12997484D01*
X15515525Y-13197484D02*
X15515525Y-13092722D01*
X15515525Y-13092722D02*
X15506001Y-13073674D01*
X15506001Y-13073674D02*
X15486953Y-13064150D01*
X15486953Y-13064150D02*
X15458382Y-13064150D01*
X15458382Y-13064150D02*
X15439334Y-13073674D01*
X15439334Y-13073674D02*
X15429810Y-13083198D01*
X15639334Y-13197484D02*
X15620287Y-13187960D01*
X15620287Y-13187960D02*
X15610763Y-13178436D01*
X15610763Y-13178436D02*
X15601239Y-13159388D01*
X15601239Y-13159388D02*
X15601239Y-13102246D01*
X15601239Y-13102246D02*
X15610763Y-13083198D01*
X15610763Y-13083198D02*
X15620287Y-13073674D01*
X15620287Y-13073674D02*
X15639334Y-13064150D01*
X15639334Y-13064150D02*
X15667906Y-13064150D01*
X15667906Y-13064150D02*
X15686953Y-13073674D01*
X15686953Y-13073674D02*
X15696477Y-13083198D01*
X15696477Y-13083198D02*
X15706001Y-13102246D01*
X15706001Y-13102246D02*
X15706001Y-13159388D01*
X15706001Y-13159388D02*
X15696477Y-13178436D01*
X15696477Y-13178436D02*
X15686953Y-13187960D01*
X15686953Y-13187960D02*
X15667906Y-13197484D01*
X15667906Y-13197484D02*
X15639334Y-13197484D01*
X15820287Y-13197484D02*
X15801239Y-13187960D01*
X15801239Y-13187960D02*
X15791715Y-13168912D01*
X15791715Y-13168912D02*
X15791715Y-12997484D01*
X15972668Y-13187960D02*
X15953620Y-13197484D01*
X15953620Y-13197484D02*
X15915525Y-13197484D01*
X15915525Y-13197484D02*
X15896477Y-13187960D01*
X15896477Y-13187960D02*
X15886953Y-13168912D01*
X15886953Y-13168912D02*
X15886953Y-13092722D01*
X15886953Y-13092722D02*
X15896477Y-13073674D01*
X15896477Y-13073674D02*
X15915525Y-13064150D01*
X15915525Y-13064150D02*
X15953620Y-13064150D01*
X15953620Y-13064150D02*
X15972668Y-13073674D01*
X15972668Y-13073674D02*
X15982191Y-13092722D01*
X15982191Y-13092722D02*
X15982191Y-13111769D01*
X15982191Y-13111769D02*
X15886953Y-13130817D01*
X16058382Y-13187960D02*
X16077430Y-13197484D01*
X16077430Y-13197484D02*
X16115525Y-13197484D01*
X16115525Y-13197484D02*
X16134572Y-13187960D01*
X16134572Y-13187960D02*
X16144096Y-13168912D01*
X16144096Y-13168912D02*
X16144096Y-13159388D01*
X16144096Y-13159388D02*
X16134572Y-13140341D01*
X16134572Y-13140341D02*
X16115525Y-13130817D01*
X16115525Y-13130817D02*
X16086953Y-13130817D01*
X16086953Y-13130817D02*
X16067906Y-13121293D01*
X16067906Y-13121293D02*
X16058382Y-13102246D01*
X16058382Y-13102246D02*
X16058382Y-13092722D01*
X16058382Y-13092722D02*
X16067906Y-13073674D01*
X16067906Y-13073674D02*
X16086953Y-13064150D01*
X16086953Y-13064150D02*
X16115525Y-13064150D01*
X16115525Y-13064150D02*
X16134572Y-13073674D01*
X16210763Y-13273674D02*
X16220287Y-13264150D01*
X16220287Y-13264150D02*
X16239334Y-13235579D01*
X16239334Y-13235579D02*
X16248858Y-13216531D01*
X16248858Y-13216531D02*
X16258382Y-13187960D01*
X16258382Y-13187960D02*
X16267906Y-13140341D01*
X16267906Y-13140341D02*
X16267906Y-13102246D01*
X16267906Y-13102246D02*
X16258382Y-13054627D01*
X16258382Y-13054627D02*
X16248858Y-13026055D01*
X16248858Y-13026055D02*
X16239334Y-13007008D01*
X16239334Y-13007008D02*
X16220287Y-12978436D01*
X16220287Y-12978436D02*
X16210763Y-12968912D01*
X16572668Y-13273674D02*
X16563144Y-13264150D01*
X16563144Y-13264150D02*
X16544096Y-13235579D01*
X16544096Y-13235579D02*
X16534572Y-13216531D01*
X16534572Y-13216531D02*
X16525049Y-13187960D01*
X16525049Y-13187960D02*
X16515525Y-13140341D01*
X16515525Y-13140341D02*
X16515525Y-13102246D01*
X16515525Y-13102246D02*
X16525049Y-13054627D01*
X16525049Y-13054627D02*
X16534572Y-13026055D01*
X16534572Y-13026055D02*
X16544096Y-13007008D01*
X16544096Y-13007008D02*
X16563144Y-12978436D01*
X16563144Y-12978436D02*
X16572668Y-12968912D01*
X16648858Y-13064150D02*
X16648858Y-13197484D01*
X16648858Y-13083198D02*
X16658382Y-13073674D01*
X16658382Y-13073674D02*
X16677430Y-13064150D01*
X16677430Y-13064150D02*
X16706001Y-13064150D01*
X16706001Y-13064150D02*
X16725049Y-13073674D01*
X16725049Y-13073674D02*
X16734572Y-13092722D01*
X16734572Y-13092722D02*
X16734572Y-13197484D01*
X16858382Y-13197484D02*
X16839334Y-13187960D01*
X16839334Y-13187960D02*
X16829811Y-13178436D01*
X16829811Y-13178436D02*
X16820287Y-13159388D01*
X16820287Y-13159388D02*
X16820287Y-13102246D01*
X16820287Y-13102246D02*
X16829811Y-13083198D01*
X16829811Y-13083198D02*
X16839334Y-13073674D01*
X16839334Y-13073674D02*
X16858382Y-13064150D01*
X16858382Y-13064150D02*
X16886954Y-13064150D01*
X16886954Y-13064150D02*
X16906001Y-13073674D01*
X16906001Y-13073674D02*
X16915525Y-13083198D01*
X16915525Y-13083198D02*
X16925049Y-13102246D01*
X16925049Y-13102246D02*
X16925049Y-13159388D01*
X16925049Y-13159388D02*
X16915525Y-13178436D01*
X16915525Y-13178436D02*
X16906001Y-13187960D01*
X16906001Y-13187960D02*
X16886954Y-13197484D01*
X16886954Y-13197484D02*
X16858382Y-13197484D01*
X16982192Y-13064150D02*
X17058382Y-13064150D01*
X17010763Y-12997484D02*
X17010763Y-13168912D01*
X17010763Y-13168912D02*
X17020287Y-13187960D01*
X17020287Y-13187960D02*
X17039334Y-13197484D01*
X17039334Y-13197484D02*
X17058382Y-13197484D01*
X17277430Y-13064150D02*
X17277430Y-13264150D01*
X17277430Y-13073674D02*
X17296477Y-13064150D01*
X17296477Y-13064150D02*
X17334573Y-13064150D01*
X17334573Y-13064150D02*
X17353620Y-13073674D01*
X17353620Y-13073674D02*
X17363144Y-13083198D01*
X17363144Y-13083198D02*
X17372668Y-13102246D01*
X17372668Y-13102246D02*
X17372668Y-13159388D01*
X17372668Y-13159388D02*
X17363144Y-13178436D01*
X17363144Y-13178436D02*
X17353620Y-13187960D01*
X17353620Y-13187960D02*
X17334573Y-13197484D01*
X17334573Y-13197484D02*
X17296477Y-13197484D01*
X17296477Y-13197484D02*
X17277430Y-13187960D01*
X17486954Y-13197484D02*
X17467906Y-13187960D01*
X17467906Y-13187960D02*
X17458382Y-13168912D01*
X17458382Y-13168912D02*
X17458382Y-12997484D01*
X17648858Y-13197484D02*
X17648858Y-13092722D01*
X17648858Y-13092722D02*
X17639335Y-13073674D01*
X17639335Y-13073674D02*
X17620287Y-13064150D01*
X17620287Y-13064150D02*
X17582192Y-13064150D01*
X17582192Y-13064150D02*
X17563144Y-13073674D01*
X17648858Y-13187960D02*
X17629811Y-13197484D01*
X17629811Y-13197484D02*
X17582192Y-13197484D01*
X17582192Y-13197484D02*
X17563144Y-13187960D01*
X17563144Y-13187960D02*
X17553620Y-13168912D01*
X17553620Y-13168912D02*
X17553620Y-13149865D01*
X17553620Y-13149865D02*
X17563144Y-13130817D01*
X17563144Y-13130817D02*
X17582192Y-13121293D01*
X17582192Y-13121293D02*
X17629811Y-13121293D01*
X17629811Y-13121293D02*
X17648858Y-13111769D01*
X17715525Y-13064150D02*
X17791715Y-13064150D01*
X17744096Y-12997484D02*
X17744096Y-13168912D01*
X17744096Y-13168912D02*
X17753620Y-13187960D01*
X17753620Y-13187960D02*
X17772668Y-13197484D01*
X17772668Y-13197484D02*
X17791715Y-13197484D01*
X17934573Y-13187960D02*
X17915525Y-13197484D01*
X17915525Y-13197484D02*
X17877430Y-13197484D01*
X17877430Y-13197484D02*
X17858382Y-13187960D01*
X17858382Y-13187960D02*
X17848858Y-13168912D01*
X17848858Y-13168912D02*
X17848858Y-13092722D01*
X17848858Y-13092722D02*
X17858382Y-13073674D01*
X17858382Y-13073674D02*
X17877430Y-13064150D01*
X17877430Y-13064150D02*
X17915525Y-13064150D01*
X17915525Y-13064150D02*
X17934573Y-13073674D01*
X17934573Y-13073674D02*
X17944096Y-13092722D01*
X17944096Y-13092722D02*
X17944096Y-13111769D01*
X17944096Y-13111769D02*
X17848858Y-13130817D01*
X18115525Y-13197484D02*
X18115525Y-12997484D01*
X18115525Y-13187960D02*
X18096477Y-13197484D01*
X18096477Y-13197484D02*
X18058382Y-13197484D01*
X18058382Y-13197484D02*
X18039335Y-13187960D01*
X18039335Y-13187960D02*
X18029811Y-13178436D01*
X18029811Y-13178436D02*
X18020287Y-13159388D01*
X18020287Y-13159388D02*
X18020287Y-13102246D01*
X18020287Y-13102246D02*
X18029811Y-13083198D01*
X18029811Y-13083198D02*
X18039335Y-13073674D01*
X18039335Y-13073674D02*
X18058382Y-13064150D01*
X18058382Y-13064150D02*
X18096477Y-13064150D01*
X18096477Y-13064150D02*
X18115525Y-13073674D01*
X18191716Y-13273674D02*
X18201239Y-13264150D01*
X18201239Y-13264150D02*
X18220287Y-13235579D01*
X18220287Y-13235579D02*
X18229811Y-13216531D01*
X18229811Y-13216531D02*
X18239335Y-13187960D01*
X18239335Y-13187960D02*
X18248858Y-13140341D01*
X18248858Y-13140341D02*
X18248858Y-13102246D01*
X18248858Y-13102246D02*
X18239335Y-13054627D01*
X18239335Y-13054627D02*
X18229811Y-13026055D01*
X18229811Y-13026055D02*
X18220287Y-13007008D01*
X18220287Y-13007008D02*
X18201239Y-12978436D01*
X18201239Y-12978436D02*
X18191716Y-12968912D01*
M02*
