%TF.GenerationSoftware,KiCad,Pcbnew,8.0.4*%
%TF.CreationDate,2025-07-14T14:52:45+02:00*%
%TF.ProjectId,syzygy_gpx2_2_1,73797a79-6779-45f6-9770-78325f325f31,rev?*%
%TF.SameCoordinates,Original*%
%TF.FileFunction,Copper,L3,Inr*%
%TF.FilePolarity,Positive*%
%FSLAX46Y46*%
G04 Gerber Fmt 4.6, Leading zero omitted, Abs format (unit mm)*
G04 Created by KiCad (PCBNEW 8.0.4) date 2025-07-14 14:52:45*
%MOMM*%
%LPD*%
G01*
G04 APERTURE LIST*
%ADD10C,0.100000*%
%ADD11C,0.150000*%
%ADD12C,0.300000*%
%ADD13C,0.400000*%
%TA.AperFunction,ComponentPad*%
%ADD14R,1.700000X1.700000*%
%TD*%
%TA.AperFunction,ComponentPad*%
%ADD15O,1.700000X1.700000*%
%TD*%
%TA.AperFunction,ComponentPad*%
%ADD16C,2.240000*%
%TD*%
%TA.AperFunction,ComponentPad*%
%ADD17C,2.740000*%
%TD*%
%TA.AperFunction,ComponentPad*%
%ADD18R,1.600000X1.600000*%
%TD*%
%TA.AperFunction,ComponentPad*%
%ADD19C,1.600000*%
%TD*%
%TA.AperFunction,ComponentPad*%
%ADD20C,1.200000*%
%TD*%
%TA.AperFunction,ViaPad*%
%ADD21C,0.600000*%
%TD*%
G04 APERTURE END LIST*
D10*
D11*
X177002200Y-166007200D02*
X285002200Y-166007200D01*
X285002200Y-198007200D01*
X177002200Y-198007200D01*
X177002200Y-166007200D01*
D10*
D11*
X10000000Y-10000000D02*
X287002200Y-10000000D01*
X287002200Y-200007200D01*
X10000000Y-200007200D01*
X10000000Y-10000000D01*
D10*
D11*
X12000000Y-12000000D02*
X285002200Y-12000000D01*
X285002200Y-198007200D01*
X12000000Y-198007200D01*
X12000000Y-12000000D01*
D10*
D11*
X60000000Y-12000000D02*
X60000000Y-10000000D01*
D10*
D11*
X110000000Y-12000000D02*
X110000000Y-10000000D01*
D10*
D11*
X160000000Y-12000000D02*
X160000000Y-10000000D01*
D10*
D11*
X210000000Y-12000000D02*
X210000000Y-10000000D01*
D10*
D11*
X260000000Y-12000000D02*
X260000000Y-10000000D01*
D10*
D11*
X36089160Y-11593604D02*
X35346303Y-11593604D01*
X35717731Y-11593604D02*
X35717731Y-10293604D01*
X35717731Y-10293604D02*
X35593922Y-10479319D01*
X35593922Y-10479319D02*
X35470112Y-10603128D01*
X35470112Y-10603128D02*
X35346303Y-10665033D01*
D10*
D11*
X85346303Y-10417414D02*
X85408207Y-10355509D01*
X85408207Y-10355509D02*
X85532017Y-10293604D01*
X85532017Y-10293604D02*
X85841541Y-10293604D01*
X85841541Y-10293604D02*
X85965350Y-10355509D01*
X85965350Y-10355509D02*
X86027255Y-10417414D01*
X86027255Y-10417414D02*
X86089160Y-10541223D01*
X86089160Y-10541223D02*
X86089160Y-10665033D01*
X86089160Y-10665033D02*
X86027255Y-10850747D01*
X86027255Y-10850747D02*
X85284398Y-11593604D01*
X85284398Y-11593604D02*
X86089160Y-11593604D01*
D10*
D11*
X135284398Y-10293604D02*
X136089160Y-10293604D01*
X136089160Y-10293604D02*
X135655826Y-10788842D01*
X135655826Y-10788842D02*
X135841541Y-10788842D01*
X135841541Y-10788842D02*
X135965350Y-10850747D01*
X135965350Y-10850747D02*
X136027255Y-10912652D01*
X136027255Y-10912652D02*
X136089160Y-11036461D01*
X136089160Y-11036461D02*
X136089160Y-11345985D01*
X136089160Y-11345985D02*
X136027255Y-11469795D01*
X136027255Y-11469795D02*
X135965350Y-11531700D01*
X135965350Y-11531700D02*
X135841541Y-11593604D01*
X135841541Y-11593604D02*
X135470112Y-11593604D01*
X135470112Y-11593604D02*
X135346303Y-11531700D01*
X135346303Y-11531700D02*
X135284398Y-11469795D01*
D10*
D11*
X185965350Y-10726938D02*
X185965350Y-11593604D01*
X185655826Y-10231700D02*
X185346303Y-11160271D01*
X185346303Y-11160271D02*
X186151064Y-11160271D01*
D10*
D11*
X236027255Y-10293604D02*
X235408207Y-10293604D01*
X235408207Y-10293604D02*
X235346303Y-10912652D01*
X235346303Y-10912652D02*
X235408207Y-10850747D01*
X235408207Y-10850747D02*
X235532017Y-10788842D01*
X235532017Y-10788842D02*
X235841541Y-10788842D01*
X235841541Y-10788842D02*
X235965350Y-10850747D01*
X235965350Y-10850747D02*
X236027255Y-10912652D01*
X236027255Y-10912652D02*
X236089160Y-11036461D01*
X236089160Y-11036461D02*
X236089160Y-11345985D01*
X236089160Y-11345985D02*
X236027255Y-11469795D01*
X236027255Y-11469795D02*
X235965350Y-11531700D01*
X235965350Y-11531700D02*
X235841541Y-11593604D01*
X235841541Y-11593604D02*
X235532017Y-11593604D01*
X235532017Y-11593604D02*
X235408207Y-11531700D01*
X235408207Y-11531700D02*
X235346303Y-11469795D01*
D10*
D11*
X285965350Y-10293604D02*
X285717731Y-10293604D01*
X285717731Y-10293604D02*
X285593922Y-10355509D01*
X285593922Y-10355509D02*
X285532017Y-10417414D01*
X285532017Y-10417414D02*
X285408207Y-10603128D01*
X285408207Y-10603128D02*
X285346303Y-10850747D01*
X285346303Y-10850747D02*
X285346303Y-11345985D01*
X285346303Y-11345985D02*
X285408207Y-11469795D01*
X285408207Y-11469795D02*
X285470112Y-11531700D01*
X285470112Y-11531700D02*
X285593922Y-11593604D01*
X285593922Y-11593604D02*
X285841541Y-11593604D01*
X285841541Y-11593604D02*
X285965350Y-11531700D01*
X285965350Y-11531700D02*
X286027255Y-11469795D01*
X286027255Y-11469795D02*
X286089160Y-11345985D01*
X286089160Y-11345985D02*
X286089160Y-11036461D01*
X286089160Y-11036461D02*
X286027255Y-10912652D01*
X286027255Y-10912652D02*
X285965350Y-10850747D01*
X285965350Y-10850747D02*
X285841541Y-10788842D01*
X285841541Y-10788842D02*
X285593922Y-10788842D01*
X285593922Y-10788842D02*
X285470112Y-10850747D01*
X285470112Y-10850747D02*
X285408207Y-10912652D01*
X285408207Y-10912652D02*
X285346303Y-11036461D01*
D10*
D11*
X60000000Y-198007200D02*
X60000000Y-200007200D01*
D10*
D11*
X110000000Y-198007200D02*
X110000000Y-200007200D01*
D10*
D11*
X160000000Y-198007200D02*
X160000000Y-200007200D01*
D10*
D11*
X210000000Y-198007200D02*
X210000000Y-200007200D01*
D10*
D11*
X260000000Y-198007200D02*
X260000000Y-200007200D01*
D10*
D11*
X36089160Y-199600804D02*
X35346303Y-199600804D01*
X35717731Y-199600804D02*
X35717731Y-198300804D01*
X35717731Y-198300804D02*
X35593922Y-198486519D01*
X35593922Y-198486519D02*
X35470112Y-198610328D01*
X35470112Y-198610328D02*
X35346303Y-198672233D01*
D10*
D11*
X85346303Y-198424614D02*
X85408207Y-198362709D01*
X85408207Y-198362709D02*
X85532017Y-198300804D01*
X85532017Y-198300804D02*
X85841541Y-198300804D01*
X85841541Y-198300804D02*
X85965350Y-198362709D01*
X85965350Y-198362709D02*
X86027255Y-198424614D01*
X86027255Y-198424614D02*
X86089160Y-198548423D01*
X86089160Y-198548423D02*
X86089160Y-198672233D01*
X86089160Y-198672233D02*
X86027255Y-198857947D01*
X86027255Y-198857947D02*
X85284398Y-199600804D01*
X85284398Y-199600804D02*
X86089160Y-199600804D01*
D10*
D11*
X135284398Y-198300804D02*
X136089160Y-198300804D01*
X136089160Y-198300804D02*
X135655826Y-198796042D01*
X135655826Y-198796042D02*
X135841541Y-198796042D01*
X135841541Y-198796042D02*
X135965350Y-198857947D01*
X135965350Y-198857947D02*
X136027255Y-198919852D01*
X136027255Y-198919852D02*
X136089160Y-199043661D01*
X136089160Y-199043661D02*
X136089160Y-199353185D01*
X136089160Y-199353185D02*
X136027255Y-199476995D01*
X136027255Y-199476995D02*
X135965350Y-199538900D01*
X135965350Y-199538900D02*
X135841541Y-199600804D01*
X135841541Y-199600804D02*
X135470112Y-199600804D01*
X135470112Y-199600804D02*
X135346303Y-199538900D01*
X135346303Y-199538900D02*
X135284398Y-199476995D01*
D10*
D11*
X185965350Y-198734138D02*
X185965350Y-199600804D01*
X185655826Y-198238900D02*
X185346303Y-199167471D01*
X185346303Y-199167471D02*
X186151064Y-199167471D01*
D10*
D11*
X236027255Y-198300804D02*
X235408207Y-198300804D01*
X235408207Y-198300804D02*
X235346303Y-198919852D01*
X235346303Y-198919852D02*
X235408207Y-198857947D01*
X235408207Y-198857947D02*
X235532017Y-198796042D01*
X235532017Y-198796042D02*
X235841541Y-198796042D01*
X235841541Y-198796042D02*
X235965350Y-198857947D01*
X235965350Y-198857947D02*
X236027255Y-198919852D01*
X236027255Y-198919852D02*
X236089160Y-199043661D01*
X236089160Y-199043661D02*
X236089160Y-199353185D01*
X236089160Y-199353185D02*
X236027255Y-199476995D01*
X236027255Y-199476995D02*
X235965350Y-199538900D01*
X235965350Y-199538900D02*
X235841541Y-199600804D01*
X235841541Y-199600804D02*
X235532017Y-199600804D01*
X235532017Y-199600804D02*
X235408207Y-199538900D01*
X235408207Y-199538900D02*
X235346303Y-199476995D01*
D10*
D11*
X285965350Y-198300804D02*
X285717731Y-198300804D01*
X285717731Y-198300804D02*
X285593922Y-198362709D01*
X285593922Y-198362709D02*
X285532017Y-198424614D01*
X285532017Y-198424614D02*
X285408207Y-198610328D01*
X285408207Y-198610328D02*
X285346303Y-198857947D01*
X285346303Y-198857947D02*
X285346303Y-199353185D01*
X285346303Y-199353185D02*
X285408207Y-199476995D01*
X285408207Y-199476995D02*
X285470112Y-199538900D01*
X285470112Y-199538900D02*
X285593922Y-199600804D01*
X285593922Y-199600804D02*
X285841541Y-199600804D01*
X285841541Y-199600804D02*
X285965350Y-199538900D01*
X285965350Y-199538900D02*
X286027255Y-199476995D01*
X286027255Y-199476995D02*
X286089160Y-199353185D01*
X286089160Y-199353185D02*
X286089160Y-199043661D01*
X286089160Y-199043661D02*
X286027255Y-198919852D01*
X286027255Y-198919852D02*
X285965350Y-198857947D01*
X285965350Y-198857947D02*
X285841541Y-198796042D01*
X285841541Y-198796042D02*
X285593922Y-198796042D01*
X285593922Y-198796042D02*
X285470112Y-198857947D01*
X285470112Y-198857947D02*
X285408207Y-198919852D01*
X285408207Y-198919852D02*
X285346303Y-199043661D01*
D10*
D11*
X10000000Y-60000000D02*
X12000000Y-60000000D01*
D10*
D11*
X10000000Y-110000000D02*
X12000000Y-110000000D01*
D10*
D11*
X10000000Y-160000000D02*
X12000000Y-160000000D01*
D10*
D11*
X10690476Y-35222176D02*
X11309523Y-35222176D01*
X10566666Y-35593604D02*
X10999999Y-34293604D01*
X10999999Y-34293604D02*
X11433333Y-35593604D01*
D10*
D11*
X11092857Y-84912652D02*
X11278571Y-84974557D01*
X11278571Y-84974557D02*
X11340476Y-85036461D01*
X11340476Y-85036461D02*
X11402380Y-85160271D01*
X11402380Y-85160271D02*
X11402380Y-85345985D01*
X11402380Y-85345985D02*
X11340476Y-85469795D01*
X11340476Y-85469795D02*
X11278571Y-85531700D01*
X11278571Y-85531700D02*
X11154761Y-85593604D01*
X11154761Y-85593604D02*
X10659523Y-85593604D01*
X10659523Y-85593604D02*
X10659523Y-84293604D01*
X10659523Y-84293604D02*
X11092857Y-84293604D01*
X11092857Y-84293604D02*
X11216666Y-84355509D01*
X11216666Y-84355509D02*
X11278571Y-84417414D01*
X11278571Y-84417414D02*
X11340476Y-84541223D01*
X11340476Y-84541223D02*
X11340476Y-84665033D01*
X11340476Y-84665033D02*
X11278571Y-84788842D01*
X11278571Y-84788842D02*
X11216666Y-84850747D01*
X11216666Y-84850747D02*
X11092857Y-84912652D01*
X11092857Y-84912652D02*
X10659523Y-84912652D01*
D10*
D11*
X11402380Y-135469795D02*
X11340476Y-135531700D01*
X11340476Y-135531700D02*
X11154761Y-135593604D01*
X11154761Y-135593604D02*
X11030952Y-135593604D01*
X11030952Y-135593604D02*
X10845238Y-135531700D01*
X10845238Y-135531700D02*
X10721428Y-135407890D01*
X10721428Y-135407890D02*
X10659523Y-135284080D01*
X10659523Y-135284080D02*
X10597619Y-135036461D01*
X10597619Y-135036461D02*
X10597619Y-134850747D01*
X10597619Y-134850747D02*
X10659523Y-134603128D01*
X10659523Y-134603128D02*
X10721428Y-134479319D01*
X10721428Y-134479319D02*
X10845238Y-134355509D01*
X10845238Y-134355509D02*
X11030952Y-134293604D01*
X11030952Y-134293604D02*
X11154761Y-134293604D01*
X11154761Y-134293604D02*
X11340476Y-134355509D01*
X11340476Y-134355509D02*
X11402380Y-134417414D01*
D10*
D11*
X10659523Y-185593604D02*
X10659523Y-184293604D01*
X10659523Y-184293604D02*
X10969047Y-184293604D01*
X10969047Y-184293604D02*
X11154761Y-184355509D01*
X11154761Y-184355509D02*
X11278571Y-184479319D01*
X11278571Y-184479319D02*
X11340476Y-184603128D01*
X11340476Y-184603128D02*
X11402380Y-184850747D01*
X11402380Y-184850747D02*
X11402380Y-185036461D01*
X11402380Y-185036461D02*
X11340476Y-185284080D01*
X11340476Y-185284080D02*
X11278571Y-185407890D01*
X11278571Y-185407890D02*
X11154761Y-185531700D01*
X11154761Y-185531700D02*
X10969047Y-185593604D01*
X10969047Y-185593604D02*
X10659523Y-185593604D01*
D10*
D11*
X287002200Y-60000000D02*
X285002200Y-60000000D01*
D10*
D11*
X287002200Y-110000000D02*
X285002200Y-110000000D01*
D10*
D11*
X287002200Y-160000000D02*
X285002200Y-160000000D01*
D10*
D11*
X285692676Y-35222176D02*
X286311723Y-35222176D01*
X285568866Y-35593604D02*
X286002199Y-34293604D01*
X286002199Y-34293604D02*
X286435533Y-35593604D01*
D10*
D11*
X286095057Y-84912652D02*
X286280771Y-84974557D01*
X286280771Y-84974557D02*
X286342676Y-85036461D01*
X286342676Y-85036461D02*
X286404580Y-85160271D01*
X286404580Y-85160271D02*
X286404580Y-85345985D01*
X286404580Y-85345985D02*
X286342676Y-85469795D01*
X286342676Y-85469795D02*
X286280771Y-85531700D01*
X286280771Y-85531700D02*
X286156961Y-85593604D01*
X286156961Y-85593604D02*
X285661723Y-85593604D01*
X285661723Y-85593604D02*
X285661723Y-84293604D01*
X285661723Y-84293604D02*
X286095057Y-84293604D01*
X286095057Y-84293604D02*
X286218866Y-84355509D01*
X286218866Y-84355509D02*
X286280771Y-84417414D01*
X286280771Y-84417414D02*
X286342676Y-84541223D01*
X286342676Y-84541223D02*
X286342676Y-84665033D01*
X286342676Y-84665033D02*
X286280771Y-84788842D01*
X286280771Y-84788842D02*
X286218866Y-84850747D01*
X286218866Y-84850747D02*
X286095057Y-84912652D01*
X286095057Y-84912652D02*
X285661723Y-84912652D01*
D10*
D11*
X286404580Y-135469795D02*
X286342676Y-135531700D01*
X286342676Y-135531700D02*
X286156961Y-135593604D01*
X286156961Y-135593604D02*
X286033152Y-135593604D01*
X286033152Y-135593604D02*
X285847438Y-135531700D01*
X285847438Y-135531700D02*
X285723628Y-135407890D01*
X285723628Y-135407890D02*
X285661723Y-135284080D01*
X285661723Y-135284080D02*
X285599819Y-135036461D01*
X285599819Y-135036461D02*
X285599819Y-134850747D01*
X285599819Y-134850747D02*
X285661723Y-134603128D01*
X285661723Y-134603128D02*
X285723628Y-134479319D01*
X285723628Y-134479319D02*
X285847438Y-134355509D01*
X285847438Y-134355509D02*
X286033152Y-134293604D01*
X286033152Y-134293604D02*
X286156961Y-134293604D01*
X286156961Y-134293604D02*
X286342676Y-134355509D01*
X286342676Y-134355509D02*
X286404580Y-134417414D01*
D10*
D11*
X285661723Y-185593604D02*
X285661723Y-184293604D01*
X285661723Y-184293604D02*
X285971247Y-184293604D01*
X285971247Y-184293604D02*
X286156961Y-184355509D01*
X286156961Y-184355509D02*
X286280771Y-184479319D01*
X286280771Y-184479319D02*
X286342676Y-184603128D01*
X286342676Y-184603128D02*
X286404580Y-184850747D01*
X286404580Y-184850747D02*
X286404580Y-185036461D01*
X286404580Y-185036461D02*
X286342676Y-185284080D01*
X286342676Y-185284080D02*
X286280771Y-185407890D01*
X286280771Y-185407890D02*
X286156961Y-185531700D01*
X286156961Y-185531700D02*
X285971247Y-185593604D01*
X285971247Y-185593604D02*
X285661723Y-185593604D01*
D10*
D11*
X200458026Y-193793328D02*
X200458026Y-192293328D01*
X200458026Y-192293328D02*
X200815169Y-192293328D01*
X200815169Y-192293328D02*
X201029455Y-192364757D01*
X201029455Y-192364757D02*
X201172312Y-192507614D01*
X201172312Y-192507614D02*
X201243741Y-192650471D01*
X201243741Y-192650471D02*
X201315169Y-192936185D01*
X201315169Y-192936185D02*
X201315169Y-193150471D01*
X201315169Y-193150471D02*
X201243741Y-193436185D01*
X201243741Y-193436185D02*
X201172312Y-193579042D01*
X201172312Y-193579042D02*
X201029455Y-193721900D01*
X201029455Y-193721900D02*
X200815169Y-193793328D01*
X200815169Y-193793328D02*
X200458026Y-193793328D01*
X202600884Y-193793328D02*
X202600884Y-193007614D01*
X202600884Y-193007614D02*
X202529455Y-192864757D01*
X202529455Y-192864757D02*
X202386598Y-192793328D01*
X202386598Y-192793328D02*
X202100884Y-192793328D01*
X202100884Y-192793328D02*
X201958026Y-192864757D01*
X202600884Y-193721900D02*
X202458026Y-193793328D01*
X202458026Y-193793328D02*
X202100884Y-193793328D01*
X202100884Y-193793328D02*
X201958026Y-193721900D01*
X201958026Y-193721900D02*
X201886598Y-193579042D01*
X201886598Y-193579042D02*
X201886598Y-193436185D01*
X201886598Y-193436185D02*
X201958026Y-193293328D01*
X201958026Y-193293328D02*
X202100884Y-193221900D01*
X202100884Y-193221900D02*
X202458026Y-193221900D01*
X202458026Y-193221900D02*
X202600884Y-193150471D01*
X203100884Y-192793328D02*
X203672312Y-192793328D01*
X203315169Y-192293328D02*
X203315169Y-193579042D01*
X203315169Y-193579042D02*
X203386598Y-193721900D01*
X203386598Y-193721900D02*
X203529455Y-193793328D01*
X203529455Y-193793328D02*
X203672312Y-193793328D01*
X204743741Y-193721900D02*
X204600884Y-193793328D01*
X204600884Y-193793328D02*
X204315170Y-193793328D01*
X204315170Y-193793328D02*
X204172312Y-193721900D01*
X204172312Y-193721900D02*
X204100884Y-193579042D01*
X204100884Y-193579042D02*
X204100884Y-193007614D01*
X204100884Y-193007614D02*
X204172312Y-192864757D01*
X204172312Y-192864757D02*
X204315170Y-192793328D01*
X204315170Y-192793328D02*
X204600884Y-192793328D01*
X204600884Y-192793328D02*
X204743741Y-192864757D01*
X204743741Y-192864757D02*
X204815170Y-193007614D01*
X204815170Y-193007614D02*
X204815170Y-193150471D01*
X204815170Y-193150471D02*
X204100884Y-193293328D01*
X205458026Y-193650471D02*
X205529455Y-193721900D01*
X205529455Y-193721900D02*
X205458026Y-193793328D01*
X205458026Y-193793328D02*
X205386598Y-193721900D01*
X205386598Y-193721900D02*
X205458026Y-193650471D01*
X205458026Y-193650471D02*
X205458026Y-193793328D01*
X205458026Y-192864757D02*
X205529455Y-192936185D01*
X205529455Y-192936185D02*
X205458026Y-193007614D01*
X205458026Y-193007614D02*
X205386598Y-192936185D01*
X205386598Y-192936185D02*
X205458026Y-192864757D01*
X205458026Y-192864757D02*
X205458026Y-193007614D01*
D10*
D11*
X177002200Y-194507200D02*
X285002200Y-194507200D01*
D10*
D11*
X178458026Y-196593328D02*
X178458026Y-195093328D01*
X179315169Y-196593328D02*
X178672312Y-195736185D01*
X179315169Y-195093328D02*
X178458026Y-195950471D01*
X179958026Y-196593328D02*
X179958026Y-195593328D01*
X179958026Y-195093328D02*
X179886598Y-195164757D01*
X179886598Y-195164757D02*
X179958026Y-195236185D01*
X179958026Y-195236185D02*
X180029455Y-195164757D01*
X180029455Y-195164757D02*
X179958026Y-195093328D01*
X179958026Y-195093328D02*
X179958026Y-195236185D01*
X181529455Y-196450471D02*
X181458027Y-196521900D01*
X181458027Y-196521900D02*
X181243741Y-196593328D01*
X181243741Y-196593328D02*
X181100884Y-196593328D01*
X181100884Y-196593328D02*
X180886598Y-196521900D01*
X180886598Y-196521900D02*
X180743741Y-196379042D01*
X180743741Y-196379042D02*
X180672312Y-196236185D01*
X180672312Y-196236185D02*
X180600884Y-195950471D01*
X180600884Y-195950471D02*
X180600884Y-195736185D01*
X180600884Y-195736185D02*
X180672312Y-195450471D01*
X180672312Y-195450471D02*
X180743741Y-195307614D01*
X180743741Y-195307614D02*
X180886598Y-195164757D01*
X180886598Y-195164757D02*
X181100884Y-195093328D01*
X181100884Y-195093328D02*
X181243741Y-195093328D01*
X181243741Y-195093328D02*
X181458027Y-195164757D01*
X181458027Y-195164757D02*
X181529455Y-195236185D01*
X182815170Y-196593328D02*
X182815170Y-195807614D01*
X182815170Y-195807614D02*
X182743741Y-195664757D01*
X182743741Y-195664757D02*
X182600884Y-195593328D01*
X182600884Y-195593328D02*
X182315170Y-195593328D01*
X182315170Y-195593328D02*
X182172312Y-195664757D01*
X182815170Y-196521900D02*
X182672312Y-196593328D01*
X182672312Y-196593328D02*
X182315170Y-196593328D01*
X182315170Y-196593328D02*
X182172312Y-196521900D01*
X182172312Y-196521900D02*
X182100884Y-196379042D01*
X182100884Y-196379042D02*
X182100884Y-196236185D01*
X182100884Y-196236185D02*
X182172312Y-196093328D01*
X182172312Y-196093328D02*
X182315170Y-196021900D01*
X182315170Y-196021900D02*
X182672312Y-196021900D01*
X182672312Y-196021900D02*
X182815170Y-195950471D01*
X184172313Y-196593328D02*
X184172313Y-195093328D01*
X184172313Y-196521900D02*
X184029455Y-196593328D01*
X184029455Y-196593328D02*
X183743741Y-196593328D01*
X183743741Y-196593328D02*
X183600884Y-196521900D01*
X183600884Y-196521900D02*
X183529455Y-196450471D01*
X183529455Y-196450471D02*
X183458027Y-196307614D01*
X183458027Y-196307614D02*
X183458027Y-195879042D01*
X183458027Y-195879042D02*
X183529455Y-195736185D01*
X183529455Y-195736185D02*
X183600884Y-195664757D01*
X183600884Y-195664757D02*
X183743741Y-195593328D01*
X183743741Y-195593328D02*
X184029455Y-195593328D01*
X184029455Y-195593328D02*
X184172313Y-195664757D01*
X186029455Y-195807614D02*
X186529455Y-195807614D01*
X186743741Y-196593328D02*
X186029455Y-196593328D01*
X186029455Y-196593328D02*
X186029455Y-195093328D01*
X186029455Y-195093328D02*
X186743741Y-195093328D01*
X187386598Y-196450471D02*
X187458027Y-196521900D01*
X187458027Y-196521900D02*
X187386598Y-196593328D01*
X187386598Y-196593328D02*
X187315170Y-196521900D01*
X187315170Y-196521900D02*
X187386598Y-196450471D01*
X187386598Y-196450471D02*
X187386598Y-196593328D01*
X188100884Y-196593328D02*
X188100884Y-195093328D01*
X188100884Y-195093328D02*
X188458027Y-195093328D01*
X188458027Y-195093328D02*
X188672313Y-195164757D01*
X188672313Y-195164757D02*
X188815170Y-195307614D01*
X188815170Y-195307614D02*
X188886599Y-195450471D01*
X188886599Y-195450471D02*
X188958027Y-195736185D01*
X188958027Y-195736185D02*
X188958027Y-195950471D01*
X188958027Y-195950471D02*
X188886599Y-196236185D01*
X188886599Y-196236185D02*
X188815170Y-196379042D01*
X188815170Y-196379042D02*
X188672313Y-196521900D01*
X188672313Y-196521900D02*
X188458027Y-196593328D01*
X188458027Y-196593328D02*
X188100884Y-196593328D01*
X189600884Y-196450471D02*
X189672313Y-196521900D01*
X189672313Y-196521900D02*
X189600884Y-196593328D01*
X189600884Y-196593328D02*
X189529456Y-196521900D01*
X189529456Y-196521900D02*
X189600884Y-196450471D01*
X189600884Y-196450471D02*
X189600884Y-196593328D01*
X190243742Y-196164757D02*
X190958028Y-196164757D01*
X190100885Y-196593328D02*
X190600885Y-195093328D01*
X190600885Y-195093328D02*
X191100885Y-196593328D01*
X191600884Y-196450471D02*
X191672313Y-196521900D01*
X191672313Y-196521900D02*
X191600884Y-196593328D01*
X191600884Y-196593328D02*
X191529456Y-196521900D01*
X191529456Y-196521900D02*
X191600884Y-196450471D01*
X191600884Y-196450471D02*
X191600884Y-196593328D01*
X193672313Y-195736185D02*
X193529456Y-195664757D01*
X193529456Y-195664757D02*
X193458027Y-195593328D01*
X193458027Y-195593328D02*
X193386599Y-195450471D01*
X193386599Y-195450471D02*
X193386599Y-195379042D01*
X193386599Y-195379042D02*
X193458027Y-195236185D01*
X193458027Y-195236185D02*
X193529456Y-195164757D01*
X193529456Y-195164757D02*
X193672313Y-195093328D01*
X193672313Y-195093328D02*
X193958027Y-195093328D01*
X193958027Y-195093328D02*
X194100885Y-195164757D01*
X194100885Y-195164757D02*
X194172313Y-195236185D01*
X194172313Y-195236185D02*
X194243742Y-195379042D01*
X194243742Y-195379042D02*
X194243742Y-195450471D01*
X194243742Y-195450471D02*
X194172313Y-195593328D01*
X194172313Y-195593328D02*
X194100885Y-195664757D01*
X194100885Y-195664757D02*
X193958027Y-195736185D01*
X193958027Y-195736185D02*
X193672313Y-195736185D01*
X193672313Y-195736185D02*
X193529456Y-195807614D01*
X193529456Y-195807614D02*
X193458027Y-195879042D01*
X193458027Y-195879042D02*
X193386599Y-196021900D01*
X193386599Y-196021900D02*
X193386599Y-196307614D01*
X193386599Y-196307614D02*
X193458027Y-196450471D01*
X193458027Y-196450471D02*
X193529456Y-196521900D01*
X193529456Y-196521900D02*
X193672313Y-196593328D01*
X193672313Y-196593328D02*
X193958027Y-196593328D01*
X193958027Y-196593328D02*
X194100885Y-196521900D01*
X194100885Y-196521900D02*
X194172313Y-196450471D01*
X194172313Y-196450471D02*
X194243742Y-196307614D01*
X194243742Y-196307614D02*
X194243742Y-196021900D01*
X194243742Y-196021900D02*
X194172313Y-195879042D01*
X194172313Y-195879042D02*
X194100885Y-195807614D01*
X194100885Y-195807614D02*
X193958027Y-195736185D01*
X194886598Y-196450471D02*
X194958027Y-196521900D01*
X194958027Y-196521900D02*
X194886598Y-196593328D01*
X194886598Y-196593328D02*
X194815170Y-196521900D01*
X194815170Y-196521900D02*
X194886598Y-196450471D01*
X194886598Y-196450471D02*
X194886598Y-196593328D01*
X195886599Y-195093328D02*
X196029456Y-195093328D01*
X196029456Y-195093328D02*
X196172313Y-195164757D01*
X196172313Y-195164757D02*
X196243742Y-195236185D01*
X196243742Y-195236185D02*
X196315170Y-195379042D01*
X196315170Y-195379042D02*
X196386599Y-195664757D01*
X196386599Y-195664757D02*
X196386599Y-196021900D01*
X196386599Y-196021900D02*
X196315170Y-196307614D01*
X196315170Y-196307614D02*
X196243742Y-196450471D01*
X196243742Y-196450471D02*
X196172313Y-196521900D01*
X196172313Y-196521900D02*
X196029456Y-196593328D01*
X196029456Y-196593328D02*
X195886599Y-196593328D01*
X195886599Y-196593328D02*
X195743742Y-196521900D01*
X195743742Y-196521900D02*
X195672313Y-196450471D01*
X195672313Y-196450471D02*
X195600884Y-196307614D01*
X195600884Y-196307614D02*
X195529456Y-196021900D01*
X195529456Y-196021900D02*
X195529456Y-195664757D01*
X195529456Y-195664757D02*
X195600884Y-195379042D01*
X195600884Y-195379042D02*
X195672313Y-195236185D01*
X195672313Y-195236185D02*
X195743742Y-195164757D01*
X195743742Y-195164757D02*
X195886599Y-195093328D01*
X197029455Y-196450471D02*
X197100884Y-196521900D01*
X197100884Y-196521900D02*
X197029455Y-196593328D01*
X197029455Y-196593328D02*
X196958027Y-196521900D01*
X196958027Y-196521900D02*
X197029455Y-196450471D01*
X197029455Y-196450471D02*
X197029455Y-196593328D01*
X198386599Y-195593328D02*
X198386599Y-196593328D01*
X198029456Y-195021900D02*
X197672313Y-196093328D01*
X197672313Y-196093328D02*
X198600884Y-196093328D01*
D10*
D11*
X177002200Y-191507200D02*
X285002200Y-191507200D01*
D10*
D12*
X264413853Y-193785528D02*
X263913853Y-193071242D01*
X263556710Y-193785528D02*
X263556710Y-192285528D01*
X263556710Y-192285528D02*
X264128139Y-192285528D01*
X264128139Y-192285528D02*
X264270996Y-192356957D01*
X264270996Y-192356957D02*
X264342425Y-192428385D01*
X264342425Y-192428385D02*
X264413853Y-192571242D01*
X264413853Y-192571242D02*
X264413853Y-192785528D01*
X264413853Y-192785528D02*
X264342425Y-192928385D01*
X264342425Y-192928385D02*
X264270996Y-192999814D01*
X264270996Y-192999814D02*
X264128139Y-193071242D01*
X264128139Y-193071242D02*
X263556710Y-193071242D01*
X265628139Y-193714100D02*
X265485282Y-193785528D01*
X265485282Y-193785528D02*
X265199568Y-193785528D01*
X265199568Y-193785528D02*
X265056710Y-193714100D01*
X265056710Y-193714100D02*
X264985282Y-193571242D01*
X264985282Y-193571242D02*
X264985282Y-192999814D01*
X264985282Y-192999814D02*
X265056710Y-192856957D01*
X265056710Y-192856957D02*
X265199568Y-192785528D01*
X265199568Y-192785528D02*
X265485282Y-192785528D01*
X265485282Y-192785528D02*
X265628139Y-192856957D01*
X265628139Y-192856957D02*
X265699568Y-192999814D01*
X265699568Y-192999814D02*
X265699568Y-193142671D01*
X265699568Y-193142671D02*
X264985282Y-193285528D01*
X266199567Y-192785528D02*
X266556710Y-193785528D01*
X266556710Y-193785528D02*
X266913853Y-192785528D01*
X267485281Y-193642671D02*
X267556710Y-193714100D01*
X267556710Y-193714100D02*
X267485281Y-193785528D01*
X267485281Y-193785528D02*
X267413853Y-193714100D01*
X267413853Y-193714100D02*
X267485281Y-193642671D01*
X267485281Y-193642671D02*
X267485281Y-193785528D01*
X267485281Y-192856957D02*
X267556710Y-192928385D01*
X267556710Y-192928385D02*
X267485281Y-192999814D01*
X267485281Y-192999814D02*
X267413853Y-192928385D01*
X267413853Y-192928385D02*
X267485281Y-192856957D01*
X267485281Y-192856957D02*
X267485281Y-192999814D01*
D10*
D11*
X178386598Y-193721900D02*
X178600884Y-193793328D01*
X178600884Y-193793328D02*
X178958026Y-193793328D01*
X178958026Y-193793328D02*
X179100884Y-193721900D01*
X179100884Y-193721900D02*
X179172312Y-193650471D01*
X179172312Y-193650471D02*
X179243741Y-193507614D01*
X179243741Y-193507614D02*
X179243741Y-193364757D01*
X179243741Y-193364757D02*
X179172312Y-193221900D01*
X179172312Y-193221900D02*
X179100884Y-193150471D01*
X179100884Y-193150471D02*
X178958026Y-193079042D01*
X178958026Y-193079042D02*
X178672312Y-193007614D01*
X178672312Y-193007614D02*
X178529455Y-192936185D01*
X178529455Y-192936185D02*
X178458026Y-192864757D01*
X178458026Y-192864757D02*
X178386598Y-192721900D01*
X178386598Y-192721900D02*
X178386598Y-192579042D01*
X178386598Y-192579042D02*
X178458026Y-192436185D01*
X178458026Y-192436185D02*
X178529455Y-192364757D01*
X178529455Y-192364757D02*
X178672312Y-192293328D01*
X178672312Y-192293328D02*
X179029455Y-192293328D01*
X179029455Y-192293328D02*
X179243741Y-192364757D01*
X179886597Y-193793328D02*
X179886597Y-192793328D01*
X179886597Y-192293328D02*
X179815169Y-192364757D01*
X179815169Y-192364757D02*
X179886597Y-192436185D01*
X179886597Y-192436185D02*
X179958026Y-192364757D01*
X179958026Y-192364757D02*
X179886597Y-192293328D01*
X179886597Y-192293328D02*
X179886597Y-192436185D01*
X180458026Y-192793328D02*
X181243741Y-192793328D01*
X181243741Y-192793328D02*
X180458026Y-193793328D01*
X180458026Y-193793328D02*
X181243741Y-193793328D01*
X182386598Y-193721900D02*
X182243741Y-193793328D01*
X182243741Y-193793328D02*
X181958027Y-193793328D01*
X181958027Y-193793328D02*
X181815169Y-193721900D01*
X181815169Y-193721900D02*
X181743741Y-193579042D01*
X181743741Y-193579042D02*
X181743741Y-193007614D01*
X181743741Y-193007614D02*
X181815169Y-192864757D01*
X181815169Y-192864757D02*
X181958027Y-192793328D01*
X181958027Y-192793328D02*
X182243741Y-192793328D01*
X182243741Y-192793328D02*
X182386598Y-192864757D01*
X182386598Y-192864757D02*
X182458027Y-193007614D01*
X182458027Y-193007614D02*
X182458027Y-193150471D01*
X182458027Y-193150471D02*
X181743741Y-193293328D01*
X183100883Y-193650471D02*
X183172312Y-193721900D01*
X183172312Y-193721900D02*
X183100883Y-193793328D01*
X183100883Y-193793328D02*
X183029455Y-193721900D01*
X183029455Y-193721900D02*
X183100883Y-193650471D01*
X183100883Y-193650471D02*
X183100883Y-193793328D01*
X183100883Y-192864757D02*
X183172312Y-192936185D01*
X183172312Y-192936185D02*
X183100883Y-193007614D01*
X183100883Y-193007614D02*
X183029455Y-192936185D01*
X183029455Y-192936185D02*
X183100883Y-192864757D01*
X183100883Y-192864757D02*
X183100883Y-193007614D01*
X184886598Y-193364757D02*
X185600884Y-193364757D01*
X184743741Y-193793328D02*
X185243741Y-192293328D01*
X185243741Y-192293328D02*
X185743741Y-193793328D01*
X186886598Y-192793328D02*
X186886598Y-193793328D01*
X186529455Y-192221900D02*
X186172312Y-193293328D01*
X186172312Y-193293328D02*
X187100883Y-193293328D01*
D10*
D11*
X263458026Y-196593328D02*
X263458026Y-195093328D01*
X264815170Y-196593328D02*
X264815170Y-195093328D01*
X264815170Y-196521900D02*
X264672312Y-196593328D01*
X264672312Y-196593328D02*
X264386598Y-196593328D01*
X264386598Y-196593328D02*
X264243741Y-196521900D01*
X264243741Y-196521900D02*
X264172312Y-196450471D01*
X264172312Y-196450471D02*
X264100884Y-196307614D01*
X264100884Y-196307614D02*
X264100884Y-195879042D01*
X264100884Y-195879042D02*
X264172312Y-195736185D01*
X264172312Y-195736185D02*
X264243741Y-195664757D01*
X264243741Y-195664757D02*
X264386598Y-195593328D01*
X264386598Y-195593328D02*
X264672312Y-195593328D01*
X264672312Y-195593328D02*
X264815170Y-195664757D01*
X265529455Y-196450471D02*
X265600884Y-196521900D01*
X265600884Y-196521900D02*
X265529455Y-196593328D01*
X265529455Y-196593328D02*
X265458027Y-196521900D01*
X265458027Y-196521900D02*
X265529455Y-196450471D01*
X265529455Y-196450471D02*
X265529455Y-196593328D01*
X265529455Y-195664757D02*
X265600884Y-195736185D01*
X265600884Y-195736185D02*
X265529455Y-195807614D01*
X265529455Y-195807614D02*
X265458027Y-195736185D01*
X265458027Y-195736185D02*
X265529455Y-195664757D01*
X265529455Y-195664757D02*
X265529455Y-195807614D01*
X268172313Y-196593328D02*
X267315170Y-196593328D01*
X267743741Y-196593328D02*
X267743741Y-195093328D01*
X267743741Y-195093328D02*
X267600884Y-195307614D01*
X267600884Y-195307614D02*
X267458027Y-195450471D01*
X267458027Y-195450471D02*
X267315170Y-195521900D01*
X269886598Y-195021900D02*
X268600884Y-196950471D01*
X271172313Y-196593328D02*
X270315170Y-196593328D01*
X270743741Y-196593328D02*
X270743741Y-195093328D01*
X270743741Y-195093328D02*
X270600884Y-195307614D01*
X270600884Y-195307614D02*
X270458027Y-195450471D01*
X270458027Y-195450471D02*
X270315170Y-195521900D01*
D10*
D11*
X177002200Y-187507200D02*
X285002200Y-187507200D01*
D10*
D13*
X178693928Y-188211638D02*
X179836785Y-188211638D01*
X179015357Y-190211638D02*
X179265357Y-188211638D01*
X180253452Y-190211638D02*
X180420119Y-188878304D01*
X180503452Y-188211638D02*
X180396309Y-188306876D01*
X180396309Y-188306876D02*
X180479643Y-188402114D01*
X180479643Y-188402114D02*
X180586786Y-188306876D01*
X180586786Y-188306876D02*
X180503452Y-188211638D01*
X180503452Y-188211638D02*
X180479643Y-188402114D01*
X181086786Y-188878304D02*
X181848690Y-188878304D01*
X181455833Y-188211638D02*
X181241548Y-189925923D01*
X181241548Y-189925923D02*
X181312976Y-190116400D01*
X181312976Y-190116400D02*
X181491548Y-190211638D01*
X181491548Y-190211638D02*
X181682024Y-190211638D01*
X182634405Y-190211638D02*
X182455833Y-190116400D01*
X182455833Y-190116400D02*
X182384405Y-189925923D01*
X182384405Y-189925923D02*
X182598690Y-188211638D01*
X184170119Y-190116400D02*
X183967738Y-190211638D01*
X183967738Y-190211638D02*
X183586785Y-190211638D01*
X183586785Y-190211638D02*
X183408214Y-190116400D01*
X183408214Y-190116400D02*
X183336785Y-189925923D01*
X183336785Y-189925923D02*
X183432024Y-189164019D01*
X183432024Y-189164019D02*
X183551071Y-188973542D01*
X183551071Y-188973542D02*
X183753452Y-188878304D01*
X183753452Y-188878304D02*
X184134404Y-188878304D01*
X184134404Y-188878304D02*
X184312976Y-188973542D01*
X184312976Y-188973542D02*
X184384404Y-189164019D01*
X184384404Y-189164019D02*
X184360595Y-189354495D01*
X184360595Y-189354495D02*
X183384404Y-189544971D01*
X185134405Y-190021161D02*
X185217738Y-190116400D01*
X185217738Y-190116400D02*
X185110595Y-190211638D01*
X185110595Y-190211638D02*
X185027262Y-190116400D01*
X185027262Y-190116400D02*
X185134405Y-190021161D01*
X185134405Y-190021161D02*
X185110595Y-190211638D01*
X185265357Y-188973542D02*
X185348690Y-189068780D01*
X185348690Y-189068780D02*
X185241548Y-189164019D01*
X185241548Y-189164019D02*
X185158214Y-189068780D01*
X185158214Y-189068780D02*
X185265357Y-188973542D01*
X185265357Y-188973542D02*
X185241548Y-189164019D01*
D10*
D11*
X178958026Y-185607614D02*
X178458026Y-185607614D01*
X178458026Y-186393328D02*
X178458026Y-184893328D01*
X178458026Y-184893328D02*
X179172312Y-184893328D01*
X179743740Y-186393328D02*
X179743740Y-185393328D01*
X179743740Y-184893328D02*
X179672312Y-184964757D01*
X179672312Y-184964757D02*
X179743740Y-185036185D01*
X179743740Y-185036185D02*
X179815169Y-184964757D01*
X179815169Y-184964757D02*
X179743740Y-184893328D01*
X179743740Y-184893328D02*
X179743740Y-185036185D01*
X180672312Y-186393328D02*
X180529455Y-186321900D01*
X180529455Y-186321900D02*
X180458026Y-186179042D01*
X180458026Y-186179042D02*
X180458026Y-184893328D01*
X181815169Y-186321900D02*
X181672312Y-186393328D01*
X181672312Y-186393328D02*
X181386598Y-186393328D01*
X181386598Y-186393328D02*
X181243740Y-186321900D01*
X181243740Y-186321900D02*
X181172312Y-186179042D01*
X181172312Y-186179042D02*
X181172312Y-185607614D01*
X181172312Y-185607614D02*
X181243740Y-185464757D01*
X181243740Y-185464757D02*
X181386598Y-185393328D01*
X181386598Y-185393328D02*
X181672312Y-185393328D01*
X181672312Y-185393328D02*
X181815169Y-185464757D01*
X181815169Y-185464757D02*
X181886598Y-185607614D01*
X181886598Y-185607614D02*
X181886598Y-185750471D01*
X181886598Y-185750471D02*
X181172312Y-185893328D01*
X182529454Y-186250471D02*
X182600883Y-186321900D01*
X182600883Y-186321900D02*
X182529454Y-186393328D01*
X182529454Y-186393328D02*
X182458026Y-186321900D01*
X182458026Y-186321900D02*
X182529454Y-186250471D01*
X182529454Y-186250471D02*
X182529454Y-186393328D01*
X182529454Y-185464757D02*
X182600883Y-185536185D01*
X182600883Y-185536185D02*
X182529454Y-185607614D01*
X182529454Y-185607614D02*
X182458026Y-185536185D01*
X182458026Y-185536185D02*
X182529454Y-185464757D01*
X182529454Y-185464757D02*
X182529454Y-185607614D01*
X184315169Y-186321900D02*
X184458026Y-186393328D01*
X184458026Y-186393328D02*
X184743740Y-186393328D01*
X184743740Y-186393328D02*
X184886597Y-186321900D01*
X184886597Y-186321900D02*
X184958026Y-186179042D01*
X184958026Y-186179042D02*
X184958026Y-186107614D01*
X184958026Y-186107614D02*
X184886597Y-185964757D01*
X184886597Y-185964757D02*
X184743740Y-185893328D01*
X184743740Y-185893328D02*
X184529455Y-185893328D01*
X184529455Y-185893328D02*
X184386597Y-185821900D01*
X184386597Y-185821900D02*
X184315169Y-185679042D01*
X184315169Y-185679042D02*
X184315169Y-185607614D01*
X184315169Y-185607614D02*
X184386597Y-185464757D01*
X184386597Y-185464757D02*
X184529455Y-185393328D01*
X184529455Y-185393328D02*
X184743740Y-185393328D01*
X184743740Y-185393328D02*
X184886597Y-185464757D01*
X185458026Y-185393328D02*
X185815169Y-186393328D01*
X186172312Y-185393328D02*
X185815169Y-186393328D01*
X185815169Y-186393328D02*
X185672312Y-186750471D01*
X185672312Y-186750471D02*
X185600883Y-186821900D01*
X185600883Y-186821900D02*
X185458026Y-186893328D01*
X186600883Y-185393328D02*
X187386598Y-185393328D01*
X187386598Y-185393328D02*
X186600883Y-186393328D01*
X186600883Y-186393328D02*
X187386598Y-186393328D01*
X187815169Y-185393328D02*
X188172312Y-186393328D01*
X188529455Y-185393328D02*
X188172312Y-186393328D01*
X188172312Y-186393328D02*
X188029455Y-186750471D01*
X188029455Y-186750471D02*
X187958026Y-186821900D01*
X187958026Y-186821900D02*
X187815169Y-186893328D01*
X189743741Y-185393328D02*
X189743741Y-186607614D01*
X189743741Y-186607614D02*
X189672312Y-186750471D01*
X189672312Y-186750471D02*
X189600883Y-186821900D01*
X189600883Y-186821900D02*
X189458026Y-186893328D01*
X189458026Y-186893328D02*
X189243741Y-186893328D01*
X189243741Y-186893328D02*
X189100883Y-186821900D01*
X189743741Y-186321900D02*
X189600883Y-186393328D01*
X189600883Y-186393328D02*
X189315169Y-186393328D01*
X189315169Y-186393328D02*
X189172312Y-186321900D01*
X189172312Y-186321900D02*
X189100883Y-186250471D01*
X189100883Y-186250471D02*
X189029455Y-186107614D01*
X189029455Y-186107614D02*
X189029455Y-185679042D01*
X189029455Y-185679042D02*
X189100883Y-185536185D01*
X189100883Y-185536185D02*
X189172312Y-185464757D01*
X189172312Y-185464757D02*
X189315169Y-185393328D01*
X189315169Y-185393328D02*
X189600883Y-185393328D01*
X189600883Y-185393328D02*
X189743741Y-185464757D01*
X190315169Y-185393328D02*
X190672312Y-186393328D01*
X191029455Y-185393328D02*
X190672312Y-186393328D01*
X190672312Y-186393328D02*
X190529455Y-186750471D01*
X190529455Y-186750471D02*
X190458026Y-186821900D01*
X190458026Y-186821900D02*
X190315169Y-186893328D01*
X191243741Y-186536185D02*
X192386598Y-186536185D01*
X193386598Y-185393328D02*
X193386598Y-186607614D01*
X193386598Y-186607614D02*
X193315169Y-186750471D01*
X193315169Y-186750471D02*
X193243740Y-186821900D01*
X193243740Y-186821900D02*
X193100883Y-186893328D01*
X193100883Y-186893328D02*
X192886598Y-186893328D01*
X192886598Y-186893328D02*
X192743740Y-186821900D01*
X193386598Y-186321900D02*
X193243740Y-186393328D01*
X193243740Y-186393328D02*
X192958026Y-186393328D01*
X192958026Y-186393328D02*
X192815169Y-186321900D01*
X192815169Y-186321900D02*
X192743740Y-186250471D01*
X192743740Y-186250471D02*
X192672312Y-186107614D01*
X192672312Y-186107614D02*
X192672312Y-185679042D01*
X192672312Y-185679042D02*
X192743740Y-185536185D01*
X192743740Y-185536185D02*
X192815169Y-185464757D01*
X192815169Y-185464757D02*
X192958026Y-185393328D01*
X192958026Y-185393328D02*
X193243740Y-185393328D01*
X193243740Y-185393328D02*
X193386598Y-185464757D01*
X194100883Y-185393328D02*
X194100883Y-186893328D01*
X194100883Y-185464757D02*
X194243741Y-185393328D01*
X194243741Y-185393328D02*
X194529455Y-185393328D01*
X194529455Y-185393328D02*
X194672312Y-185464757D01*
X194672312Y-185464757D02*
X194743741Y-185536185D01*
X194743741Y-185536185D02*
X194815169Y-185679042D01*
X194815169Y-185679042D02*
X194815169Y-186107614D01*
X194815169Y-186107614D02*
X194743741Y-186250471D01*
X194743741Y-186250471D02*
X194672312Y-186321900D01*
X194672312Y-186321900D02*
X194529455Y-186393328D01*
X194529455Y-186393328D02*
X194243741Y-186393328D01*
X194243741Y-186393328D02*
X194100883Y-186321900D01*
X195315169Y-186393328D02*
X196100884Y-185393328D01*
X195315169Y-185393328D02*
X196100884Y-186393328D01*
X196600884Y-185036185D02*
X196672312Y-184964757D01*
X196672312Y-184964757D02*
X196815170Y-184893328D01*
X196815170Y-184893328D02*
X197172312Y-184893328D01*
X197172312Y-184893328D02*
X197315170Y-184964757D01*
X197315170Y-184964757D02*
X197386598Y-185036185D01*
X197386598Y-185036185D02*
X197458027Y-185179042D01*
X197458027Y-185179042D02*
X197458027Y-185321900D01*
X197458027Y-185321900D02*
X197386598Y-185536185D01*
X197386598Y-185536185D02*
X196529455Y-186393328D01*
X196529455Y-186393328D02*
X197458027Y-186393328D01*
X197743741Y-186536185D02*
X198886598Y-186536185D01*
X199172312Y-185036185D02*
X199243740Y-184964757D01*
X199243740Y-184964757D02*
X199386598Y-184893328D01*
X199386598Y-184893328D02*
X199743740Y-184893328D01*
X199743740Y-184893328D02*
X199886598Y-184964757D01*
X199886598Y-184964757D02*
X199958026Y-185036185D01*
X199958026Y-185036185D02*
X200029455Y-185179042D01*
X200029455Y-185179042D02*
X200029455Y-185321900D01*
X200029455Y-185321900D02*
X199958026Y-185536185D01*
X199958026Y-185536185D02*
X199100883Y-186393328D01*
X199100883Y-186393328D02*
X200029455Y-186393328D01*
X200315169Y-186536185D02*
X201458026Y-186536185D01*
X202600883Y-186393328D02*
X201743740Y-186393328D01*
X202172311Y-186393328D02*
X202172311Y-184893328D01*
X202172311Y-184893328D02*
X202029454Y-185107614D01*
X202029454Y-185107614D02*
X201886597Y-185250471D01*
X201886597Y-185250471D02*
X201743740Y-185321900D01*
X203243739Y-186250471D02*
X203315168Y-186321900D01*
X203315168Y-186321900D02*
X203243739Y-186393328D01*
X203243739Y-186393328D02*
X203172311Y-186321900D01*
X203172311Y-186321900D02*
X203243739Y-186250471D01*
X203243739Y-186250471D02*
X203243739Y-186393328D01*
X203958025Y-186393328D02*
X203958025Y-184893328D01*
X204100883Y-185821900D02*
X204529454Y-186393328D01*
X204529454Y-185393328D02*
X203958025Y-185964757D01*
X205172311Y-186393328D02*
X205172311Y-185393328D01*
X205172311Y-184893328D02*
X205100883Y-184964757D01*
X205100883Y-184964757D02*
X205172311Y-185036185D01*
X205172311Y-185036185D02*
X205243740Y-184964757D01*
X205243740Y-184964757D02*
X205172311Y-184893328D01*
X205172311Y-184893328D02*
X205172311Y-185036185D01*
X206529455Y-186321900D02*
X206386597Y-186393328D01*
X206386597Y-186393328D02*
X206100883Y-186393328D01*
X206100883Y-186393328D02*
X205958026Y-186321900D01*
X205958026Y-186321900D02*
X205886597Y-186250471D01*
X205886597Y-186250471D02*
X205815169Y-186107614D01*
X205815169Y-186107614D02*
X205815169Y-185679042D01*
X205815169Y-185679042D02*
X205886597Y-185536185D01*
X205886597Y-185536185D02*
X205958026Y-185464757D01*
X205958026Y-185464757D02*
X206100883Y-185393328D01*
X206100883Y-185393328D02*
X206386597Y-185393328D01*
X206386597Y-185393328D02*
X206529455Y-185464757D01*
X207815169Y-186393328D02*
X207815169Y-185607614D01*
X207815169Y-185607614D02*
X207743740Y-185464757D01*
X207743740Y-185464757D02*
X207600883Y-185393328D01*
X207600883Y-185393328D02*
X207315169Y-185393328D01*
X207315169Y-185393328D02*
X207172311Y-185464757D01*
X207815169Y-186321900D02*
X207672311Y-186393328D01*
X207672311Y-186393328D02*
X207315169Y-186393328D01*
X207315169Y-186393328D02*
X207172311Y-186321900D01*
X207172311Y-186321900D02*
X207100883Y-186179042D01*
X207100883Y-186179042D02*
X207100883Y-186036185D01*
X207100883Y-186036185D02*
X207172311Y-185893328D01*
X207172311Y-185893328D02*
X207315169Y-185821900D01*
X207315169Y-185821900D02*
X207672311Y-185821900D01*
X207672311Y-185821900D02*
X207815169Y-185750471D01*
X209172312Y-186393328D02*
X209172312Y-184893328D01*
X209172312Y-186321900D02*
X209029454Y-186393328D01*
X209029454Y-186393328D02*
X208743740Y-186393328D01*
X208743740Y-186393328D02*
X208600883Y-186321900D01*
X208600883Y-186321900D02*
X208529454Y-186250471D01*
X208529454Y-186250471D02*
X208458026Y-186107614D01*
X208458026Y-186107614D02*
X208458026Y-185679042D01*
X208458026Y-185679042D02*
X208529454Y-185536185D01*
X208529454Y-185536185D02*
X208600883Y-185464757D01*
X208600883Y-185464757D02*
X208743740Y-185393328D01*
X208743740Y-185393328D02*
X209029454Y-185393328D01*
X209029454Y-185393328D02*
X209172312Y-185464757D01*
X209529455Y-186536185D02*
X210672312Y-186536185D01*
X211029454Y-185393328D02*
X211029454Y-186893328D01*
X211029454Y-185464757D02*
X211172312Y-185393328D01*
X211172312Y-185393328D02*
X211458026Y-185393328D01*
X211458026Y-185393328D02*
X211600883Y-185464757D01*
X211600883Y-185464757D02*
X211672312Y-185536185D01*
X211672312Y-185536185D02*
X211743740Y-185679042D01*
X211743740Y-185679042D02*
X211743740Y-186107614D01*
X211743740Y-186107614D02*
X211672312Y-186250471D01*
X211672312Y-186250471D02*
X211600883Y-186321900D01*
X211600883Y-186321900D02*
X211458026Y-186393328D01*
X211458026Y-186393328D02*
X211172312Y-186393328D01*
X211172312Y-186393328D02*
X211029454Y-186321900D01*
X213029455Y-186321900D02*
X212886597Y-186393328D01*
X212886597Y-186393328D02*
X212600883Y-186393328D01*
X212600883Y-186393328D02*
X212458026Y-186321900D01*
X212458026Y-186321900D02*
X212386597Y-186250471D01*
X212386597Y-186250471D02*
X212315169Y-186107614D01*
X212315169Y-186107614D02*
X212315169Y-185679042D01*
X212315169Y-185679042D02*
X212386597Y-185536185D01*
X212386597Y-185536185D02*
X212458026Y-185464757D01*
X212458026Y-185464757D02*
X212600883Y-185393328D01*
X212600883Y-185393328D02*
X212886597Y-185393328D01*
X212886597Y-185393328D02*
X213029455Y-185464757D01*
X213672311Y-186393328D02*
X213672311Y-184893328D01*
X213672311Y-185464757D02*
X213815169Y-185393328D01*
X213815169Y-185393328D02*
X214100883Y-185393328D01*
X214100883Y-185393328D02*
X214243740Y-185464757D01*
X214243740Y-185464757D02*
X214315169Y-185536185D01*
X214315169Y-185536185D02*
X214386597Y-185679042D01*
X214386597Y-185679042D02*
X214386597Y-186107614D01*
X214386597Y-186107614D02*
X214315169Y-186250471D01*
X214315169Y-186250471D02*
X214243740Y-186321900D01*
X214243740Y-186321900D02*
X214100883Y-186393328D01*
X214100883Y-186393328D02*
X213815169Y-186393328D01*
X213815169Y-186393328D02*
X213672311Y-186321900D01*
D10*
D11*
X177002200Y-181507200D02*
X285002200Y-181507200D01*
D10*
D11*
X178386598Y-183621900D02*
X178600884Y-183693328D01*
X178600884Y-183693328D02*
X178958026Y-183693328D01*
X178958026Y-183693328D02*
X179100884Y-183621900D01*
X179100884Y-183621900D02*
X179172312Y-183550471D01*
X179172312Y-183550471D02*
X179243741Y-183407614D01*
X179243741Y-183407614D02*
X179243741Y-183264757D01*
X179243741Y-183264757D02*
X179172312Y-183121900D01*
X179172312Y-183121900D02*
X179100884Y-183050471D01*
X179100884Y-183050471D02*
X178958026Y-182979042D01*
X178958026Y-182979042D02*
X178672312Y-182907614D01*
X178672312Y-182907614D02*
X178529455Y-182836185D01*
X178529455Y-182836185D02*
X178458026Y-182764757D01*
X178458026Y-182764757D02*
X178386598Y-182621900D01*
X178386598Y-182621900D02*
X178386598Y-182479042D01*
X178386598Y-182479042D02*
X178458026Y-182336185D01*
X178458026Y-182336185D02*
X178529455Y-182264757D01*
X178529455Y-182264757D02*
X178672312Y-182193328D01*
X178672312Y-182193328D02*
X179029455Y-182193328D01*
X179029455Y-182193328D02*
X179243741Y-182264757D01*
X179886597Y-183693328D02*
X179886597Y-182193328D01*
X180529455Y-183693328D02*
X180529455Y-182907614D01*
X180529455Y-182907614D02*
X180458026Y-182764757D01*
X180458026Y-182764757D02*
X180315169Y-182693328D01*
X180315169Y-182693328D02*
X180100883Y-182693328D01*
X180100883Y-182693328D02*
X179958026Y-182764757D01*
X179958026Y-182764757D02*
X179886597Y-182836185D01*
X181815169Y-183621900D02*
X181672312Y-183693328D01*
X181672312Y-183693328D02*
X181386598Y-183693328D01*
X181386598Y-183693328D02*
X181243740Y-183621900D01*
X181243740Y-183621900D02*
X181172312Y-183479042D01*
X181172312Y-183479042D02*
X181172312Y-182907614D01*
X181172312Y-182907614D02*
X181243740Y-182764757D01*
X181243740Y-182764757D02*
X181386598Y-182693328D01*
X181386598Y-182693328D02*
X181672312Y-182693328D01*
X181672312Y-182693328D02*
X181815169Y-182764757D01*
X181815169Y-182764757D02*
X181886598Y-182907614D01*
X181886598Y-182907614D02*
X181886598Y-183050471D01*
X181886598Y-183050471D02*
X181172312Y-183193328D01*
X183100883Y-183621900D02*
X182958026Y-183693328D01*
X182958026Y-183693328D02*
X182672312Y-183693328D01*
X182672312Y-183693328D02*
X182529454Y-183621900D01*
X182529454Y-183621900D02*
X182458026Y-183479042D01*
X182458026Y-183479042D02*
X182458026Y-182907614D01*
X182458026Y-182907614D02*
X182529454Y-182764757D01*
X182529454Y-182764757D02*
X182672312Y-182693328D01*
X182672312Y-182693328D02*
X182958026Y-182693328D01*
X182958026Y-182693328D02*
X183100883Y-182764757D01*
X183100883Y-182764757D02*
X183172312Y-182907614D01*
X183172312Y-182907614D02*
X183172312Y-183050471D01*
X183172312Y-183050471D02*
X182458026Y-183193328D01*
X183600883Y-182693328D02*
X184172311Y-182693328D01*
X183815168Y-182193328D02*
X183815168Y-183479042D01*
X183815168Y-183479042D02*
X183886597Y-183621900D01*
X183886597Y-183621900D02*
X184029454Y-183693328D01*
X184029454Y-183693328D02*
X184172311Y-183693328D01*
X184672311Y-183550471D02*
X184743740Y-183621900D01*
X184743740Y-183621900D02*
X184672311Y-183693328D01*
X184672311Y-183693328D02*
X184600883Y-183621900D01*
X184600883Y-183621900D02*
X184672311Y-183550471D01*
X184672311Y-183550471D02*
X184672311Y-183693328D01*
X184672311Y-182764757D02*
X184743740Y-182836185D01*
X184743740Y-182836185D02*
X184672311Y-182907614D01*
X184672311Y-182907614D02*
X184600883Y-182836185D01*
X184600883Y-182836185D02*
X184672311Y-182764757D01*
X184672311Y-182764757D02*
X184672311Y-182907614D01*
D10*
D11*
X197002200Y-191507200D02*
X197002200Y-194507200D01*
D10*
D11*
X261002200Y-191507200D02*
X261002200Y-198007200D01*
D14*
%TO.N,SZG5V*%
%TO.C,J1*%
X126520000Y-114960000D03*
D15*
%TO.N,GND*%
X126520000Y-117500000D03*
%TD*%
D16*
%TO.N,Net-(J13-In)*%
%TO.C,J13*%
X179672000Y-116843200D03*
D17*
%TO.N,GND*%
X177132000Y-114303200D03*
X177132000Y-119383200D03*
X182212000Y-114303200D03*
X182212000Y-119383200D03*
%TD*%
D14*
%TO.N,/Inputs/STOP4P*%
%TO.C,J8*%
X171818000Y-118118200D03*
D15*
%TO.N,/Inputs/STOP4N*%
X171818000Y-115578200D03*
%TD*%
D14*
%TO.N,/Inputs/STOP3P*%
%TO.C,J7*%
X171818000Y-109444100D03*
D15*
%TO.N,/Inputs/STOP3N*%
X171818000Y-106904100D03*
%TD*%
D16*
%TO.N,Net-(J11-In)*%
%TO.C,J11*%
X179672000Y-90820900D03*
D17*
%TO.N,GND*%
X177132000Y-88280900D03*
X177132000Y-93360900D03*
X182212000Y-88280900D03*
X182212000Y-93360900D03*
%TD*%
D14*
%TO.N,/SYZYGY/MOSI_B*%
%TO.C,J2*%
X153642000Y-86035000D03*
D15*
%TO.N,/SYZYGY/MISO_B*%
X153642000Y-83495000D03*
%TO.N,/SYZYGY/SS_N_B*%
X156182000Y-86035000D03*
%TO.N,/SYZYGY/SCK_B*%
X156182000Y-83495000D03*
%TO.N,GND*%
X158722000Y-86035000D03*
%TO.N,/SYZYGY/INTERRUPT_N_B*%
X158722000Y-83495000D03*
%TD*%
D18*
%TO.N,SZG5V*%
%TO.C,C13*%
X133000000Y-114997349D03*
D19*
%TO.N,GND*%
X133000000Y-119997349D03*
%TD*%
D14*
%TO.N,GND*%
%TO.C,J16*%
X116500000Y-117260000D03*
D15*
X116500000Y-119800000D03*
%TD*%
D14*
%TO.N,GND*%
%TO.C,J14*%
X157480000Y-118600000D03*
D15*
%TO.N,/SYZYGY/MCU_RESET_B*%
X157480000Y-116060000D03*
%TO.N,/SYZYGY/MCU_SDA_MOSI*%
X160020000Y-118600000D03*
%TO.N,/SYZYGY/MCU_SCL_USCK*%
X160020000Y-116060000D03*
%TO.N,SZG33*%
X162560000Y-118600000D03*
%TO.N,/SYZYGY/MCU_MISO*%
X162560000Y-116060000D03*
%TD*%
D14*
%TO.N,/Inputs/REFCLKP*%
%TO.C,J4*%
X171818000Y-100770000D03*
D15*
%TO.N,/Inputs/REFCLKN*%
X171818000Y-98230000D03*
%TD*%
D14*
%TO.N,Net-(J15-S21)*%
%TO.C,J3*%
X116480000Y-84945000D03*
D15*
%TO.N,Net-(J15-S23)*%
X116480000Y-82405000D03*
%TO.N,Net-(J15-S25)*%
X116480000Y-79865000D03*
%TD*%
D14*
%TO.N,/Inputs/STOP1P*%
%TO.C,J5*%
X171818000Y-83421800D03*
D15*
%TO.N,/Inputs/STOP1N*%
X171818000Y-80881800D03*
%TD*%
D16*
%TO.N,Net-(J10-In)*%
%TO.C,J10*%
X179705000Y-82169000D03*
D17*
%TO.N,GND*%
X177165000Y-79629000D03*
X177165000Y-84709000D03*
X182245000Y-79629000D03*
X182245000Y-84709000D03*
%TD*%
D16*
%TO.N,Net-(J9-In)*%
%TO.C,J9*%
X179672000Y-99495000D03*
D17*
%TO.N,GND*%
X177132000Y-96955000D03*
X177132000Y-102035000D03*
X182212000Y-96955000D03*
X182212000Y-102035000D03*
%TD*%
D16*
%TO.N,Net-(J12-In)*%
%TO.C,J12*%
X179672000Y-108169100D03*
D17*
%TO.N,GND*%
X177132000Y-105629100D03*
X177132000Y-110709100D03*
X182212000Y-105629100D03*
X182212000Y-110709100D03*
%TD*%
D14*
%TO.N,/Inputs/STOP2P*%
%TO.C,J6*%
X171818000Y-92095900D03*
D15*
%TO.N,/Inputs/STOP2N*%
X171818000Y-89555900D03*
%TD*%
D20*
%TO.N,N/C*%
%TO.C,J15*%
X121882000Y-110340000D03*
X121882000Y-88650000D03*
%TD*%
D21*
%TO.N,Net-(J15-S21)*%
X115930000Y-99270000D03*
%TO.N,SZG5V*%
X117900000Y-107940000D03*
%TO.N,Net-(J15-S21)*%
X172390000Y-95770000D03*
%TO.N,Net-(J15-S23)*%
X167530000Y-103710000D03*
%TO.N,TVDD33*%
X169278000Y-120937000D03*
X158242000Y-106795000D03*
X161200000Y-83200000D03*
X155022000Y-97696000D03*
X169278000Y-112428000D03*
X169024000Y-86520000D03*
X169024000Y-95156000D03*
X156367000Y-91920000D03*
X169278000Y-103792000D03*
X165900000Y-85600000D03*
%TO.N,GND*%
X152482000Y-103792000D03*
X125250000Y-82070000D03*
X159647000Y-110228000D03*
X120640000Y-96000000D03*
X150962778Y-101305778D03*
X121981920Y-89745454D03*
X157308000Y-113493000D03*
X125765000Y-84745765D03*
X129890000Y-86930000D03*
X141900000Y-117200000D03*
X137430000Y-87520000D03*
X148400000Y-95200000D03*
X138850000Y-85250000D03*
X152700000Y-112800000D03*
X154100000Y-116900000D03*
X136160000Y-79140000D03*
X120097000Y-108618000D03*
X130665500Y-78800000D03*
X146700000Y-87500000D03*
X121390000Y-105830000D03*
X149200000Y-85800000D03*
X130160000Y-93030000D03*
X145900000Y-113600000D03*
X125520000Y-86406249D03*
X137380000Y-84720000D03*
%TO.N,DVDD33*%
X147612000Y-107445000D03*
X137620000Y-89360000D03*
X133110000Y-83730000D03*
X149142000Y-90585000D03*
%TO.N,SZG33*%
X129600000Y-110600000D03*
X117610000Y-89890000D03*
%TO.N,/SYZYGY/R_GA*%
X116200000Y-108340000D03*
%TO.N,/SYZYGY/MCU_SCL_USCK*%
X142000000Y-110695000D03*
X135782000Y-107895000D03*
%TO.N,/SYZYGY/MCU_MISO*%
X141052860Y-110596390D03*
%TO.N,/SYZYGY/MCU_SDA_MOSI*%
X141100000Y-111395000D03*
%TO.N,/SYZYGY/MCU_RESET_B*%
X141600000Y-112195000D03*
%TO.N,/SYZYGY/SDO4N*%
X126000000Y-104700000D03*
%TO.N,/SYZYGY/SDO1N*%
X119500000Y-101500000D03*
%TO.N,/SYZYGY/SDO2N*%
X119500000Y-104700000D03*
%TO.N,/SYZYGY/LCLKINN*%
X119360000Y-93510000D03*
%TO.N,/SYZYGY/FRAME2N*%
X119500000Y-103100000D03*
%TO.N,/SYZYGY/FRAME3P*%
X126000000Y-100700000D03*
%TO.N,/SYZYGY/SDO2P*%
X119500000Y-105500000D03*
%TO.N,/SYZYGY/FRAME1P*%
X119500000Y-100700000D03*
%TO.N,/SYZYGY/FRAME1N*%
X119500000Y-99900000D03*
%TO.N,/SYZYGY/LCLKOUTN*%
X146292576Y-101672662D03*
%TO.N,/SYZYGY/LCLKOUTP*%
X146892576Y-102291823D03*
%TO.N,/SYZYGY/SDO3N*%
X126000000Y-101500000D03*
%TO.N,/SYZYGY/FRAME4N*%
X126000000Y-103100000D03*
%TO.N,/SYZYGY/SDO1P*%
X119500000Y-102300000D03*
%TO.N,/SYZYGY/VIO*%
X130110000Y-88170000D03*
%TO.N,/SYZYGY/FRAME2P*%
X119500000Y-103900000D03*
%TO.N,/SYZYGY/FRAME3N*%
X126000000Y-99900000D03*
%TO.N,Net-(D3-K)*%
X123620000Y-84710000D03*
X122710000Y-86390000D03*
%TO.N,/SYZYGY/SDO3P*%
X126000000Y-102300000D03*
%TO.N,/SYZYGY/FRAME4P*%
X126000000Y-103900000D03*
%TO.N,/SYZYGY/SDO4P*%
X126000000Y-105500000D03*
%TO.N,/SYZYGY/LCLKINP*%
X119360000Y-94270000D03*
%TO.N,Net-(U1-RSTIDXN)*%
X158757001Y-97820000D03*
X161882000Y-85295000D03*
%TO.N,Net-(U1-DISABLEN)*%
X163782000Y-85295000D03*
X158882000Y-100395000D03*
%TO.N,Net-(U1-REFOSCO)*%
X152411090Y-92711090D03*
X147600000Y-90400000D03*
%TO.N,Net-(U1-REFOSCI)*%
X153015100Y-91973490D03*
X147600000Y-89600000D03*
%TO.N,/gpx2/TVDD18*%
X156162000Y-87905000D03*
X159732000Y-112045000D03*
%TO.N,/gpx2/DVDD18*%
X148762000Y-108005000D03*
X150000000Y-90500000D03*
%TO.N,/gpx2/TVDD18O*%
X154006000Y-107475000D03*
X155276000Y-103919000D03*
%TO.N,/SYZYGY/MISO_A*%
X123246998Y-92830000D03*
%TO.N,/SYZYGY/SS_N_A*%
X121447000Y-93202340D03*
%TO.N,/SYZYGY/DISABLEP_A*%
X119570000Y-98295000D03*
%TO.N,/SYZYGY/PARITY_A*%
X119640000Y-92420000D03*
%TO.N,/SYZYGY/SCK_A*%
X123278784Y-91489570D03*
%TO.N,/SYZYGY/REFRESP_A*%
X119520000Y-99099361D03*
%TO.N,/SYZYGY/MOSI_A*%
X122646999Y-92093912D03*
%TO.N,/SYZYGY/MOSI_B*%
X133020000Y-90900000D03*
%TO.N,/SYZYGY/REFRESP_B*%
X162882000Y-85295000D03*
X158332000Y-98670000D03*
%TO.N,/SYZYGY/SS_N_B*%
X148442000Y-96220000D03*
X144210000Y-91469461D03*
%TO.N,/SYZYGY/SCK_B*%
X133000000Y-89930000D03*
%TO.N,/SYZYGY/DISABLEP_B*%
X158310000Y-101160000D03*
X164640000Y-85450000D03*
%TO.N,/SYZYGY/PARITY_B*%
X146620000Y-91000000D03*
X152070000Y-95410000D03*
%TO.N,Net-(J15-S27)*%
X132930000Y-87370000D03*
%TO.N,/SYZYGY/INTERRUPT_A*%
X120340000Y-91380000D03*
%TD*%
%TA.AperFunction,Conductor*%
%TO.N,GND*%
G36*
X116750000Y-119366988D02*
G01*
X116692993Y-119334075D01*
X116565826Y-119300000D01*
X116434174Y-119300000D01*
X116307007Y-119334075D01*
X116250000Y-119366988D01*
X116250000Y-117693012D01*
X116307007Y-117725925D01*
X116434174Y-117760000D01*
X116565826Y-117760000D01*
X116692993Y-117725925D01*
X116750000Y-117693012D01*
X116750000Y-119366988D01*
G37*
%TD.AperFunction*%
%TA.AperFunction,Conductor*%
G36*
X164027039Y-77515185D02*
G01*
X164072794Y-77567989D01*
X164084000Y-77619500D01*
X164084000Y-84384705D01*
X164064315Y-84451744D01*
X164011511Y-84497499D01*
X163946117Y-84507925D01*
X163782004Y-84489435D01*
X163781996Y-84489435D01*
X163602750Y-84509630D01*
X163602737Y-84509633D01*
X163432480Y-84569209D01*
X163397970Y-84590893D01*
X163330733Y-84609892D01*
X163266030Y-84590893D01*
X163231519Y-84569209D01*
X163061262Y-84509633D01*
X163061249Y-84509630D01*
X162882004Y-84489435D01*
X162881996Y-84489435D01*
X162702750Y-84509630D01*
X162702737Y-84509633D01*
X162532479Y-84569209D01*
X162447971Y-84622309D01*
X162380734Y-84641309D01*
X162316029Y-84622309D01*
X162231520Y-84569209D01*
X162061262Y-84509633D01*
X162061249Y-84509630D01*
X161882004Y-84489435D01*
X161881996Y-84489435D01*
X161702750Y-84509630D01*
X161702745Y-84509631D01*
X161532476Y-84569211D01*
X161379737Y-84665184D01*
X161252184Y-84792737D01*
X161156211Y-84945476D01*
X161096631Y-85115745D01*
X161096630Y-85115750D01*
X161076435Y-85294996D01*
X161076435Y-85295003D01*
X161096630Y-85474249D01*
X161096631Y-85474254D01*
X161156211Y-85644523D01*
X161168582Y-85664211D01*
X161252184Y-85797262D01*
X161379738Y-85924816D01*
X161532478Y-86020789D01*
X161701167Y-86079816D01*
X161702745Y-86080368D01*
X161702750Y-86080369D01*
X161881996Y-86100565D01*
X161882000Y-86100565D01*
X161882004Y-86100565D01*
X162061249Y-86080369D01*
X162061252Y-86080368D01*
X162061255Y-86080368D01*
X162231522Y-86020789D01*
X162313667Y-85969174D01*
X162316027Y-85967691D01*
X162383264Y-85948690D01*
X162447973Y-85967691D01*
X162532475Y-86020788D01*
X162702745Y-86080368D01*
X162702750Y-86080369D01*
X162881996Y-86100565D01*
X162882000Y-86100565D01*
X162882004Y-86100565D01*
X163061249Y-86080369D01*
X163061252Y-86080368D01*
X163061255Y-86080368D01*
X163231522Y-86020789D01*
X163266027Y-85999108D01*
X163333263Y-85980107D01*
X163397973Y-85999108D01*
X163432475Y-86020788D01*
X163602745Y-86080368D01*
X163602750Y-86080369D01*
X163781996Y-86100565D01*
X163782000Y-86100565D01*
X163782003Y-86100565D01*
X163946116Y-86082074D01*
X164014938Y-86094128D01*
X164066318Y-86141478D01*
X164084000Y-86205294D01*
X164084000Y-115587837D01*
X164064315Y-115654876D01*
X164011511Y-115700631D01*
X163942353Y-115710575D01*
X163878797Y-115681550D01*
X163841023Y-115622772D01*
X163840225Y-115619930D01*
X163833905Y-115596344D01*
X163833904Y-115596343D01*
X163833903Y-115596337D01*
X163734035Y-115382171D01*
X163728425Y-115374158D01*
X163598494Y-115188597D01*
X163431402Y-115021506D01*
X163431395Y-115021501D01*
X163237834Y-114885967D01*
X163237830Y-114885965D01*
X163237828Y-114885964D01*
X163023663Y-114786097D01*
X163023659Y-114786096D01*
X163023655Y-114786094D01*
X162795413Y-114724938D01*
X162795403Y-114724936D01*
X162560001Y-114704341D01*
X162559999Y-114704341D01*
X162324596Y-114724936D01*
X162324586Y-114724938D01*
X162096344Y-114786094D01*
X162096335Y-114786098D01*
X161882171Y-114885964D01*
X161882169Y-114885965D01*
X161688597Y-115021505D01*
X161521505Y-115188597D01*
X161391575Y-115374158D01*
X161336998Y-115417783D01*
X161267500Y-115424977D01*
X161205145Y-115393454D01*
X161188425Y-115374158D01*
X161058494Y-115188597D01*
X160891402Y-115021506D01*
X160891395Y-115021501D01*
X160697834Y-114885967D01*
X160697830Y-114885965D01*
X160697828Y-114885964D01*
X160483663Y-114786097D01*
X160483659Y-114786096D01*
X160483655Y-114786094D01*
X160255413Y-114724938D01*
X160255403Y-114724936D01*
X160020001Y-114704341D01*
X160019999Y-114704341D01*
X159784596Y-114724936D01*
X159784586Y-114724938D01*
X159556344Y-114786094D01*
X159556335Y-114786098D01*
X159342171Y-114885964D01*
X159342169Y-114885965D01*
X159148597Y-115021505D01*
X158981505Y-115188597D01*
X158851575Y-115374158D01*
X158796998Y-115417783D01*
X158727500Y-115424977D01*
X158665145Y-115393454D01*
X158648425Y-115374158D01*
X158518494Y-115188597D01*
X158351402Y-115021506D01*
X158351395Y-115021501D01*
X158157834Y-114885967D01*
X158157830Y-114885965D01*
X158157828Y-114885964D01*
X157943663Y-114786097D01*
X157943659Y-114786096D01*
X157943655Y-114786094D01*
X157715413Y-114724938D01*
X157715403Y-114724936D01*
X157480001Y-114704341D01*
X157479999Y-114704341D01*
X157244596Y-114724936D01*
X157244586Y-114724938D01*
X157016344Y-114786094D01*
X157016335Y-114786098D01*
X156802171Y-114885964D01*
X156802169Y-114885965D01*
X156608597Y-115021505D01*
X156441505Y-115188597D01*
X156305965Y-115382169D01*
X156305964Y-115382171D01*
X156206098Y-115596335D01*
X156206094Y-115596344D01*
X156144938Y-115824586D01*
X156144936Y-115824596D01*
X156124341Y-116059999D01*
X156124341Y-116060000D01*
X156144936Y-116295403D01*
X156144938Y-116295413D01*
X156206094Y-116523655D01*
X156206096Y-116523659D01*
X156206097Y-116523663D01*
X156255182Y-116628926D01*
X156305965Y-116737830D01*
X156305967Y-116737834D01*
X156365197Y-116822422D01*
X156441501Y-116931396D01*
X156441506Y-116931402D01*
X156563818Y-117053714D01*
X156597303Y-117115037D01*
X156592319Y-117184729D01*
X156550447Y-117240662D01*
X156519471Y-117257577D01*
X156387912Y-117306646D01*
X156387906Y-117306649D01*
X156272812Y-117392809D01*
X156272809Y-117392812D01*
X156186649Y-117507906D01*
X156186645Y-117507913D01*
X156136403Y-117642620D01*
X156136401Y-117642627D01*
X156130000Y-117702155D01*
X156130000Y-118350000D01*
X157046988Y-118350000D01*
X157014075Y-118407007D01*
X156980000Y-118534174D01*
X156980000Y-118665826D01*
X157014075Y-118792993D01*
X157046988Y-118850000D01*
X156130000Y-118850000D01*
X156130000Y-119497844D01*
X156136401Y-119557372D01*
X156136403Y-119557379D01*
X156186645Y-119692086D01*
X156186649Y-119692093D01*
X156272809Y-119807187D01*
X156272812Y-119807190D01*
X156387906Y-119893350D01*
X156387913Y-119893354D01*
X156522620Y-119943596D01*
X156522627Y-119943598D01*
X156582155Y-119949999D01*
X156582172Y-119950000D01*
X157230000Y-119950000D01*
X157230000Y-119033012D01*
X157287007Y-119065925D01*
X157414174Y-119100000D01*
X157545826Y-119100000D01*
X157672993Y-119065925D01*
X157730000Y-119033012D01*
X157730000Y-119950000D01*
X158377828Y-119950000D01*
X158377844Y-119949999D01*
X158437372Y-119943598D01*
X158437379Y-119943596D01*
X158572086Y-119893354D01*
X158572093Y-119893350D01*
X158687187Y-119807190D01*
X158687190Y-119807187D01*
X158773350Y-119692093D01*
X158773354Y-119692086D01*
X158822422Y-119560529D01*
X158864293Y-119504595D01*
X158929757Y-119480178D01*
X158998030Y-119495030D01*
X159026285Y-119516181D01*
X159148599Y-119638495D01*
X159156170Y-119643796D01*
X159342165Y-119774032D01*
X159342167Y-119774033D01*
X159342170Y-119774035D01*
X159556337Y-119873903D01*
X159784592Y-119935063D01*
X159955319Y-119950000D01*
X160019999Y-119955659D01*
X160020000Y-119955659D01*
X160020001Y-119955659D01*
X160084681Y-119950000D01*
X160255408Y-119935063D01*
X160483663Y-119873903D01*
X160697830Y-119774035D01*
X160891401Y-119638495D01*
X161058495Y-119471401D01*
X161188425Y-119285842D01*
X161243002Y-119242217D01*
X161312500Y-119235023D01*
X161374855Y-119266546D01*
X161391575Y-119285842D01*
X161521500Y-119471395D01*
X161521505Y-119471401D01*
X161688599Y-119638495D01*
X161696170Y-119643796D01*
X161882165Y-119774032D01*
X161882167Y-119774033D01*
X161882170Y-119774035D01*
X162096337Y-119873903D01*
X162324592Y-119935063D01*
X162495319Y-119950000D01*
X162559999Y-119955659D01*
X162560000Y-119955659D01*
X162560001Y-119955659D01*
X162624681Y-119950000D01*
X162795408Y-119935063D01*
X163023663Y-119873903D01*
X163237830Y-119774035D01*
X163431401Y-119638495D01*
X163598495Y-119471401D01*
X163734035Y-119277830D01*
X163833903Y-119063663D01*
X163840225Y-119040070D01*
X163876589Y-118980409D01*
X163939436Y-118949879D01*
X164008811Y-118958173D01*
X164062690Y-119002658D01*
X164083965Y-119069210D01*
X164084000Y-119072162D01*
X164084000Y-121370500D01*
X164064315Y-121437539D01*
X164011511Y-121483294D01*
X163960000Y-121494500D01*
X133377247Y-121494500D01*
X133310208Y-121474815D01*
X133264453Y-121422011D01*
X133254509Y-121352853D01*
X133283534Y-121289297D01*
X133342312Y-121251523D01*
X133345154Y-121250725D01*
X133446317Y-121223618D01*
X133446331Y-121223613D01*
X133652478Y-121127485D01*
X133725471Y-121076373D01*
X133046447Y-120397349D01*
X133052661Y-120397349D01*
X133154394Y-120370090D01*
X133245606Y-120317429D01*
X133320080Y-120242955D01*
X133372741Y-120151743D01*
X133400000Y-120050010D01*
X133400000Y-120043796D01*
X134079024Y-120722820D01*
X134130136Y-120649827D01*
X134226264Y-120443680D01*
X134226269Y-120443666D01*
X134285139Y-120223959D01*
X134285141Y-120223948D01*
X134304966Y-119997351D01*
X134304966Y-119997346D01*
X134285141Y-119770749D01*
X134285139Y-119770738D01*
X134226269Y-119551031D01*
X134226264Y-119551017D01*
X134130136Y-119344870D01*
X134130132Y-119344862D01*
X134079025Y-119271875D01*
X133400000Y-119950900D01*
X133400000Y-119944688D01*
X133372741Y-119842955D01*
X133320080Y-119751743D01*
X133245606Y-119677269D01*
X133154394Y-119624608D01*
X133052661Y-119597349D01*
X133046448Y-119597349D01*
X133725472Y-118918323D01*
X133652478Y-118867212D01*
X133446331Y-118771084D01*
X133446317Y-118771079D01*
X133226610Y-118712209D01*
X133226599Y-118712207D01*
X133000002Y-118692383D01*
X132999998Y-118692383D01*
X132773400Y-118712207D01*
X132773389Y-118712209D01*
X132553682Y-118771079D01*
X132553673Y-118771083D01*
X132347516Y-118867215D01*
X132347512Y-118867217D01*
X132274526Y-118918322D01*
X132274526Y-118918323D01*
X132953553Y-119597349D01*
X132947339Y-119597349D01*
X132845606Y-119624608D01*
X132754394Y-119677269D01*
X132679920Y-119751743D01*
X132627259Y-119842955D01*
X132600000Y-119944688D01*
X132600000Y-119950901D01*
X131920974Y-119271875D01*
X131920973Y-119271875D01*
X131869868Y-119344861D01*
X131869866Y-119344865D01*
X131773734Y-119551022D01*
X131773730Y-119551031D01*
X131714860Y-119770738D01*
X131714858Y-119770749D01*
X131695034Y-119997346D01*
X131695034Y-119997351D01*
X131714858Y-120223948D01*
X131714860Y-120223959D01*
X131773730Y-120443666D01*
X131773735Y-120443680D01*
X131869863Y-120649827D01*
X131920974Y-120722821D01*
X132600000Y-120043795D01*
X132600000Y-120050010D01*
X132627259Y-120151743D01*
X132679920Y-120242955D01*
X132754394Y-120317429D01*
X132845606Y-120370090D01*
X132947339Y-120397349D01*
X132953553Y-120397349D01*
X132274526Y-121076374D01*
X132347513Y-121127481D01*
X132347521Y-121127485D01*
X132553668Y-121223613D01*
X132553682Y-121223618D01*
X132654846Y-121250725D01*
X132714507Y-121287090D01*
X132745036Y-121349937D01*
X132736741Y-121419313D01*
X132692256Y-121473190D01*
X132625704Y-121494465D01*
X132622753Y-121494500D01*
X115006500Y-121494500D01*
X114939461Y-121474815D01*
X114893706Y-121422011D01*
X114882500Y-121370500D01*
X114882500Y-116362155D01*
X115150000Y-116362155D01*
X115150000Y-117010000D01*
X116066988Y-117010000D01*
X116034075Y-117067007D01*
X116000000Y-117194174D01*
X116000000Y-117325826D01*
X116034075Y-117452993D01*
X116066988Y-117510000D01*
X115150000Y-117510000D01*
X115150000Y-118157844D01*
X115156401Y-118217372D01*
X115156403Y-118217379D01*
X115206645Y-118352086D01*
X115206649Y-118352093D01*
X115292809Y-118467187D01*
X115292812Y-118467190D01*
X115407906Y-118553350D01*
X115407913Y-118553354D01*
X115539986Y-118602614D01*
X115595920Y-118644485D01*
X115620337Y-118709949D01*
X115605486Y-118778222D01*
X115584335Y-118806477D01*
X115461886Y-118928926D01*
X115326400Y-119122420D01*
X115326399Y-119122422D01*
X115226570Y-119336507D01*
X115226567Y-119336513D01*
X115169364Y-119549999D01*
X115169364Y-119550000D01*
X116066988Y-119550000D01*
X116034075Y-119607007D01*
X116000000Y-119734174D01*
X116000000Y-119865826D01*
X116034075Y-119992993D01*
X116066988Y-120050000D01*
X115169364Y-120050000D01*
X115226567Y-120263486D01*
X115226570Y-120263492D01*
X115326399Y-120477578D01*
X115461894Y-120671082D01*
X115628917Y-120838105D01*
X115822421Y-120973600D01*
X116036507Y-121073429D01*
X116036516Y-121073433D01*
X116250000Y-121130634D01*
X116250000Y-120233012D01*
X116307007Y-120265925D01*
X116434174Y-120300000D01*
X116565826Y-120300000D01*
X116692993Y-120265925D01*
X116750000Y-120233012D01*
X116750000Y-121130633D01*
X116963483Y-121073433D01*
X116963492Y-121073429D01*
X117177578Y-120973600D01*
X117371082Y-120838105D01*
X117538105Y-120671082D01*
X117673600Y-120477578D01*
X117773429Y-120263492D01*
X117773432Y-120263486D01*
X117830636Y-120050000D01*
X116933012Y-120050000D01*
X116965925Y-119992993D01*
X117000000Y-119865826D01*
X117000000Y-119734174D01*
X116965925Y-119607007D01*
X116933012Y-119550000D01*
X117830636Y-119550000D01*
X117830635Y-119549999D01*
X117773432Y-119336513D01*
X117773429Y-119336507D01*
X117673600Y-119122422D01*
X117673599Y-119122420D01*
X117538113Y-118928926D01*
X117538108Y-118928920D01*
X117415665Y-118806477D01*
X117382180Y-118745154D01*
X117387164Y-118675462D01*
X117429036Y-118619529D01*
X117460013Y-118602614D01*
X117592086Y-118553354D01*
X117592093Y-118553350D01*
X117707187Y-118467190D01*
X117707190Y-118467187D01*
X117793350Y-118352093D01*
X117793354Y-118352086D01*
X117843596Y-118217379D01*
X117843598Y-118217372D01*
X117849999Y-118157844D01*
X117850000Y-118157827D01*
X117850000Y-117510000D01*
X116933012Y-117510000D01*
X116965925Y-117452993D01*
X117000000Y-117325826D01*
X117000000Y-117194174D01*
X116965925Y-117067007D01*
X116933012Y-117010000D01*
X117850000Y-117010000D01*
X117850000Y-116373711D01*
X119531500Y-116373711D01*
X119531500Y-116616288D01*
X119563161Y-116856785D01*
X119625947Y-117091104D01*
X119718773Y-117315205D01*
X119718776Y-117315212D01*
X119840064Y-117525289D01*
X119840066Y-117525292D01*
X119840067Y-117525293D01*
X119987733Y-117717736D01*
X119987739Y-117717743D01*
X120159256Y-117889260D01*
X120159262Y-117889265D01*
X120351711Y-118036936D01*
X120561788Y-118158224D01*
X120704601Y-118217379D01*
X120784743Y-118250575D01*
X120785900Y-118251054D01*
X121020211Y-118313838D01*
X121200586Y-118337584D01*
X121260711Y-118345500D01*
X121260712Y-118345500D01*
X121503289Y-118345500D01*
X121551388Y-118339167D01*
X121743789Y-118313838D01*
X121978100Y-118251054D01*
X122202212Y-118158224D01*
X122412289Y-118036936D01*
X122604738Y-117889265D01*
X122776265Y-117717738D01*
X122923936Y-117525289D01*
X123045224Y-117315212D01*
X123138054Y-117091100D01*
X123200838Y-116856789D01*
X123232500Y-116616288D01*
X123232500Y-116373712D01*
X123200838Y-116133211D01*
X123138054Y-115898900D01*
X123045224Y-115674788D01*
X122923936Y-115464711D01*
X122776265Y-115272262D01*
X122776260Y-115272256D01*
X122604743Y-115100739D01*
X122604736Y-115100733D01*
X122412293Y-114953067D01*
X122412292Y-114953066D01*
X122412289Y-114953064D01*
X122202212Y-114831776D01*
X122202205Y-114831773D01*
X121978104Y-114738947D01*
X121860944Y-114707554D01*
X121743789Y-114676162D01*
X121743788Y-114676161D01*
X121743785Y-114676161D01*
X121503289Y-114644500D01*
X121503288Y-114644500D01*
X121260712Y-114644500D01*
X121260711Y-114644500D01*
X121020214Y-114676161D01*
X120785895Y-114738947D01*
X120561794Y-114831773D01*
X120561785Y-114831777D01*
X120351706Y-114953067D01*
X120159263Y-115100733D01*
X120159256Y-115100739D01*
X119987739Y-115272256D01*
X119987733Y-115272263D01*
X119840067Y-115464706D01*
X119718777Y-115674785D01*
X119718773Y-115674794D01*
X119625947Y-115898895D01*
X119563161Y-116133214D01*
X119531500Y-116373711D01*
X117850000Y-116373711D01*
X117850000Y-116362172D01*
X117849999Y-116362155D01*
X117843598Y-116302627D01*
X117843596Y-116302620D01*
X117793354Y-116167913D01*
X117793350Y-116167906D01*
X117707190Y-116052812D01*
X117707187Y-116052809D01*
X117592093Y-115966649D01*
X117592086Y-115966645D01*
X117457379Y-115916403D01*
X117457372Y-115916401D01*
X117397844Y-115910000D01*
X116750000Y-115910000D01*
X116750000Y-116826988D01*
X116692993Y-116794075D01*
X116565826Y-116760000D01*
X116434174Y-116760000D01*
X116307007Y-116794075D01*
X116250000Y-116826988D01*
X116250000Y-115910000D01*
X115602155Y-115910000D01*
X115542627Y-115916401D01*
X115542620Y-115916403D01*
X115407913Y-115966645D01*
X115407906Y-115966649D01*
X115292812Y-116052809D01*
X115292809Y-116052812D01*
X115206649Y-116167906D01*
X115206645Y-116167913D01*
X115156403Y-116302620D01*
X115156401Y-116302627D01*
X115150000Y-116362155D01*
X114882500Y-116362155D01*
X114882500Y-114062135D01*
X125169500Y-114062135D01*
X125169500Y-115857870D01*
X125169501Y-115857876D01*
X125175908Y-115917483D01*
X125226202Y-116052328D01*
X125226206Y-116052335D01*
X125312452Y-116167544D01*
X125312455Y-116167547D01*
X125427664Y-116253793D01*
X125427671Y-116253797D01*
X125427674Y-116253798D01*
X125559598Y-116303002D01*
X125615531Y-116344873D01*
X125639949Y-116410337D01*
X125625098Y-116478610D01*
X125603947Y-116506865D01*
X125481886Y-116628926D01*
X125346400Y-116822420D01*
X125346399Y-116822422D01*
X125246570Y-117036507D01*
X125246567Y-117036513D01*
X125189364Y-117249999D01*
X125189364Y-117250000D01*
X126086988Y-117250000D01*
X126054075Y-117307007D01*
X126020000Y-117434174D01*
X126020000Y-117565826D01*
X126054075Y-117692993D01*
X126086988Y-117750000D01*
X125189364Y-117750000D01*
X125246567Y-117963486D01*
X125246570Y-117963492D01*
X125346399Y-118177578D01*
X125481894Y-118371082D01*
X125648917Y-118538105D01*
X125842421Y-118673600D01*
X126056507Y-118773429D01*
X126056516Y-118773433D01*
X126270000Y-118830634D01*
X126270000Y-117933012D01*
X126327007Y-117965925D01*
X126454174Y-118000000D01*
X126585826Y-118000000D01*
X126712993Y-117965925D01*
X126770000Y-117933012D01*
X126770000Y-118830633D01*
X126983483Y-118773433D01*
X126983492Y-118773429D01*
X127197578Y-118673600D01*
X127391082Y-118538105D01*
X127558105Y-118371082D01*
X127693600Y-118177578D01*
X127793429Y-117963492D01*
X127793432Y-117963486D01*
X127850636Y-117750000D01*
X126953012Y-117750000D01*
X126985925Y-117692993D01*
X127020000Y-117565826D01*
X127020000Y-117434174D01*
X126985925Y-117307007D01*
X126953012Y-117250000D01*
X127850636Y-117250000D01*
X127850635Y-117249999D01*
X127793432Y-117036513D01*
X127793429Y-117036507D01*
X127693600Y-116822422D01*
X127693599Y-116822420D01*
X127558113Y-116628926D01*
X127558108Y-116628920D01*
X127436053Y-116506865D01*
X127402568Y-116445542D01*
X127407552Y-116375850D01*
X127449424Y-116319917D01*
X127480400Y-116303002D01*
X127612331Y-116253796D01*
X127727546Y-116167546D01*
X127813796Y-116052331D01*
X127864091Y-115917483D01*
X127870500Y-115857873D01*
X127870499Y-114149484D01*
X131699500Y-114149484D01*
X131699500Y-115845219D01*
X131699501Y-115845225D01*
X131705908Y-115904832D01*
X131756202Y-116039677D01*
X131756206Y-116039684D01*
X131842452Y-116154893D01*
X131842455Y-116154896D01*
X131957664Y-116241142D01*
X131957671Y-116241146D01*
X132092517Y-116291440D01*
X132092516Y-116291440D01*
X132099444Y-116292184D01*
X132152127Y-116297849D01*
X133847872Y-116297848D01*
X133907483Y-116291440D01*
X134042331Y-116241145D01*
X134157546Y-116154895D01*
X134243796Y-116039680D01*
X134294091Y-115904832D01*
X134300500Y-115845222D01*
X134300499Y-114149477D01*
X134294091Y-114089866D01*
X134283745Y-114062128D01*
X134243797Y-113955020D01*
X134243793Y-113955013D01*
X134157547Y-113839804D01*
X134157544Y-113839801D01*
X134042335Y-113753555D01*
X134042328Y-113753551D01*
X133907482Y-113703257D01*
X133907483Y-113703257D01*
X133847883Y-113696850D01*
X133847881Y-113696849D01*
X133847873Y-113696849D01*
X133847864Y-113696849D01*
X132152129Y-113696849D01*
X132152123Y-113696850D01*
X132092516Y-113703257D01*
X131957671Y-113753551D01*
X131957664Y-113753555D01*
X131842455Y-113839801D01*
X131842452Y-113839804D01*
X131756206Y-113955013D01*
X131756202Y-113955020D01*
X131705908Y-114089866D01*
X131699501Y-114149465D01*
X131699501Y-114149472D01*
X131699500Y-114149484D01*
X127870499Y-114149484D01*
X127870499Y-114062128D01*
X127864091Y-114002517D01*
X127846373Y-113955013D01*
X127813797Y-113867671D01*
X127813793Y-113867664D01*
X127727547Y-113752455D01*
X127727544Y-113752452D01*
X127612335Y-113666206D01*
X127612328Y-113666202D01*
X127477482Y-113615908D01*
X127477483Y-113615908D01*
X127417883Y-113609501D01*
X127417881Y-113609500D01*
X127417873Y-113609500D01*
X127417864Y-113609500D01*
X125622129Y-113609500D01*
X125622123Y-113609501D01*
X125562516Y-113615908D01*
X125427671Y-113666202D01*
X125427664Y-113666206D01*
X125312455Y-113752452D01*
X125312452Y-113752455D01*
X125226206Y-113867664D01*
X125226202Y-113867671D01*
X125175908Y-114002517D01*
X125169501Y-114062116D01*
X125169501Y-114062123D01*
X125169500Y-114062135D01*
X114882500Y-114062135D01*
X114882500Y-110339999D01*
X120776785Y-110339999D01*
X120776785Y-110340000D01*
X120795602Y-110543082D01*
X120851417Y-110739247D01*
X120851422Y-110739260D01*
X120942327Y-110921821D01*
X121065237Y-111084581D01*
X121215958Y-111221980D01*
X121215960Y-111221982D01*
X121315141Y-111283392D01*
X121389363Y-111329348D01*
X121579544Y-111403024D01*
X121780024Y-111440500D01*
X121780026Y-111440500D01*
X121983974Y-111440500D01*
X121983976Y-111440500D01*
X122184456Y-111403024D01*
X122374637Y-111329348D01*
X122548041Y-111221981D01*
X122698764Y-111084579D01*
X122821673Y-110921821D01*
X122912582Y-110739250D01*
X122952204Y-110599996D01*
X128794435Y-110599996D01*
X128794435Y-110600003D01*
X128814630Y-110779249D01*
X128814631Y-110779254D01*
X128874211Y-110949523D01*
X128933904Y-111044523D01*
X128970184Y-111102262D01*
X129097738Y-111229816D01*
X129145190Y-111259632D01*
X129248927Y-111324815D01*
X129250478Y-111325789D01*
X129420745Y-111385368D01*
X129420750Y-111385369D01*
X129599996Y-111405565D01*
X129600000Y-111405565D01*
X129600004Y-111405565D01*
X129779249Y-111385369D01*
X129779252Y-111385368D01*
X129779255Y-111385368D01*
X129949522Y-111325789D01*
X130102262Y-111229816D01*
X130229816Y-111102262D01*
X130325789Y-110949522D01*
X130385368Y-110779255D01*
X130385775Y-110775645D01*
X130405565Y-110600003D01*
X130405565Y-110599996D01*
X130405158Y-110596386D01*
X140247295Y-110596386D01*
X140247295Y-110596393D01*
X140267490Y-110775639D01*
X140267493Y-110775652D01*
X140327069Y-110945909D01*
X140347957Y-110979153D01*
X140366956Y-111046390D01*
X140360004Y-111086077D01*
X140314632Y-111215742D01*
X140314630Y-111215750D01*
X140294435Y-111394996D01*
X140294435Y-111395003D01*
X140314630Y-111574249D01*
X140314631Y-111574254D01*
X140374211Y-111744523D01*
X140450384Y-111865750D01*
X140470184Y-111897262D01*
X140597738Y-112024816D01*
X140738224Y-112113089D01*
X140784514Y-112165423D01*
X140795471Y-112204199D01*
X140814630Y-112374249D01*
X140814631Y-112374254D01*
X140874211Y-112544523D01*
X140956080Y-112674815D01*
X140970184Y-112697262D01*
X141097738Y-112824816D01*
X141250478Y-112920789D01*
X141420745Y-112980368D01*
X141420750Y-112980369D01*
X141599996Y-113000565D01*
X141600000Y-113000565D01*
X141600004Y-113000565D01*
X141779249Y-112980369D01*
X141779252Y-112980368D01*
X141779255Y-112980368D01*
X141949522Y-112920789D01*
X142102262Y-112824816D01*
X142229816Y-112697262D01*
X142325789Y-112544522D01*
X142385368Y-112374255D01*
X142402269Y-112224254D01*
X142405565Y-112195003D01*
X142405565Y-112194996D01*
X142388664Y-112044996D01*
X158926435Y-112044996D01*
X158926435Y-112045003D01*
X158946630Y-112224249D01*
X158946631Y-112224254D01*
X159006211Y-112394523D01*
X159100462Y-112544522D01*
X159102184Y-112547262D01*
X159229738Y-112674816D01*
X159382478Y-112770789D01*
X159536878Y-112824816D01*
X159552745Y-112830368D01*
X159552750Y-112830369D01*
X159731996Y-112850565D01*
X159732000Y-112850565D01*
X159732004Y-112850565D01*
X159911249Y-112830369D01*
X159911252Y-112830368D01*
X159911255Y-112830368D01*
X160081522Y-112770789D01*
X160234262Y-112674816D01*
X160361816Y-112547262D01*
X160457789Y-112394522D01*
X160517368Y-112224255D01*
X160520664Y-112195003D01*
X160537565Y-112045003D01*
X160537565Y-112044996D01*
X160517369Y-111865750D01*
X160517368Y-111865745D01*
X160510276Y-111845476D01*
X160457789Y-111695478D01*
X160456067Y-111692738D01*
X160381619Y-111574254D01*
X160361816Y-111542738D01*
X160234262Y-111415184D01*
X160081523Y-111319211D01*
X159911254Y-111259631D01*
X159911249Y-111259630D01*
X159732004Y-111239435D01*
X159731996Y-111239435D01*
X159552750Y-111259630D01*
X159552745Y-111259631D01*
X159382476Y-111319211D01*
X159229737Y-111415184D01*
X159102184Y-111542737D01*
X159006211Y-111695476D01*
X158946631Y-111865745D01*
X158946630Y-111865750D01*
X158926435Y-112044996D01*
X142388664Y-112044996D01*
X142385369Y-112015750D01*
X142385368Y-112015745D01*
X142332882Y-111865750D01*
X142325789Y-111845478D01*
X142229816Y-111692738D01*
X142198933Y-111661855D01*
X142165448Y-111600532D01*
X142170432Y-111530840D01*
X142212304Y-111474907D01*
X142245660Y-111457132D01*
X142293191Y-111440500D01*
X142349522Y-111420789D01*
X142502262Y-111324816D01*
X142629816Y-111197262D01*
X142725789Y-111044522D01*
X142785368Y-110874255D01*
X142796479Y-110775645D01*
X142805565Y-110695003D01*
X142805565Y-110694996D01*
X142785369Y-110515750D01*
X142785368Y-110515745D01*
X142752126Y-110420745D01*
X142725789Y-110345478D01*
X142722346Y-110339999D01*
X142629815Y-110192737D01*
X142502262Y-110065184D01*
X142349523Y-109969211D01*
X142179254Y-109909631D01*
X142179249Y-109909630D01*
X142000004Y-109889435D01*
X141999996Y-109889435D01*
X141820750Y-109909630D01*
X141820742Y-109909632D01*
X141648289Y-109969976D01*
X141578510Y-109973537D01*
X141541363Y-109957928D01*
X141402383Y-109870601D01*
X141232114Y-109811021D01*
X141232109Y-109811020D01*
X141052864Y-109790825D01*
X141052856Y-109790825D01*
X140873610Y-109811020D01*
X140873605Y-109811021D01*
X140703336Y-109870601D01*
X140550597Y-109966574D01*
X140423044Y-110094127D01*
X140327071Y-110246866D01*
X140267491Y-110417135D01*
X140267490Y-110417140D01*
X140247295Y-110596386D01*
X130405158Y-110596386D01*
X130385369Y-110420750D01*
X130385368Y-110420745D01*
X130325788Y-110250476D01*
X130229815Y-110097737D01*
X130102262Y-109970184D01*
X129949523Y-109874211D01*
X129779254Y-109814631D01*
X129779249Y-109814630D01*
X129600004Y-109794435D01*
X129599996Y-109794435D01*
X129420750Y-109814630D01*
X129420745Y-109814631D01*
X129250476Y-109874211D01*
X129097737Y-109970184D01*
X128970184Y-110097737D01*
X128874211Y-110250476D01*
X128814631Y-110420745D01*
X128814630Y-110420750D01*
X128794435Y-110599996D01*
X122952204Y-110599996D01*
X122968397Y-110543083D01*
X122987215Y-110340000D01*
X122968397Y-110136917D01*
X122912582Y-109940750D01*
X122887030Y-109889435D01*
X122849783Y-109814632D01*
X122821673Y-109758179D01*
X122698764Y-109595421D01*
X122698762Y-109595418D01*
X122548041Y-109458019D01*
X122548039Y-109458017D01*
X122374642Y-109350655D01*
X122374635Y-109350651D01*
X122279546Y-109313814D01*
X122184456Y-109276976D01*
X121983976Y-109239500D01*
X121780024Y-109239500D01*
X121579544Y-109276976D01*
X121579541Y-109276976D01*
X121579541Y-109276977D01*
X121389364Y-109350651D01*
X121389357Y-109350655D01*
X121215960Y-109458017D01*
X121215958Y-109458019D01*
X121065237Y-109595418D01*
X120942327Y-109758178D01*
X120851422Y-109940739D01*
X120851417Y-109940752D01*
X120795602Y-110136917D01*
X120776785Y-110339999D01*
X114882500Y-110339999D01*
X114882500Y-108339996D01*
X115394435Y-108339996D01*
X115394435Y-108340003D01*
X115414630Y-108519249D01*
X115414631Y-108519254D01*
X115474211Y-108689523D01*
X115509425Y-108745565D01*
X115570184Y-108842262D01*
X115697738Y-108969816D01*
X115850478Y-109065789D01*
X116020745Y-109125368D01*
X116020750Y-109125369D01*
X116199996Y-109145565D01*
X116200000Y-109145565D01*
X116200004Y-109145565D01*
X116379249Y-109125369D01*
X116379252Y-109125368D01*
X116379255Y-109125368D01*
X116549522Y-109065789D01*
X116702262Y-108969816D01*
X116829816Y-108842262D01*
X116925789Y-108689522D01*
X116985368Y-108519255D01*
X116986720Y-108507262D01*
X116996354Y-108421753D01*
X117023420Y-108357339D01*
X117081015Y-108317784D01*
X117150852Y-108315646D01*
X117210758Y-108351604D01*
X117224565Y-108369661D01*
X117270184Y-108442262D01*
X117397738Y-108569816D01*
X117478859Y-108620788D01*
X117541417Y-108660096D01*
X117550478Y-108665789D01*
X117618306Y-108689523D01*
X117720745Y-108725368D01*
X117720750Y-108725369D01*
X117899996Y-108745565D01*
X117900000Y-108745565D01*
X117900004Y-108745565D01*
X118079249Y-108725369D01*
X118079252Y-108725368D01*
X118079255Y-108725368D01*
X118249522Y-108665789D01*
X118258589Y-108660092D01*
X122661500Y-108660092D01*
X122661500Y-108809907D01*
X122690723Y-108956822D01*
X122690725Y-108956830D01*
X122748051Y-109095229D01*
X122748056Y-109095238D01*
X122831280Y-109219790D01*
X122831283Y-109219794D01*
X122937205Y-109325716D01*
X122937209Y-109325719D01*
X123061761Y-109408943D01*
X123061767Y-109408946D01*
X123061768Y-109408947D01*
X123200170Y-109466275D01*
X123347092Y-109495499D01*
X123347096Y-109495500D01*
X123347097Y-109495500D01*
X123496904Y-109495500D01*
X123496905Y-109495499D01*
X123643830Y-109466275D01*
X123782232Y-109408947D01*
X123906791Y-109325719D01*
X124012719Y-109219791D01*
X124095947Y-109095232D01*
X124153275Y-108956830D01*
X124182500Y-108809903D01*
X124182500Y-108660097D01*
X124153275Y-108513170D01*
X124095947Y-108374768D01*
X124095946Y-108374767D01*
X124095943Y-108374761D01*
X124012719Y-108250209D01*
X124012716Y-108250205D01*
X123906794Y-108144283D01*
X123906790Y-108144280D01*
X123782238Y-108061056D01*
X123782229Y-108061051D01*
X123643830Y-108003725D01*
X123643822Y-108003723D01*
X123496907Y-107974500D01*
X123496903Y-107974500D01*
X123347097Y-107974500D01*
X123347092Y-107974500D01*
X123200177Y-108003723D01*
X123200169Y-108003725D01*
X123061770Y-108061051D01*
X123061761Y-108061056D01*
X122937209Y-108144280D01*
X122937205Y-108144283D01*
X122831283Y-108250205D01*
X122831280Y-108250209D01*
X122748056Y-108374761D01*
X122748051Y-108374770D01*
X122690725Y-108513169D01*
X122690723Y-108513177D01*
X122661500Y-108660092D01*
X118258589Y-108660092D01*
X118402262Y-108569816D01*
X118529816Y-108442262D01*
X118625789Y-108289522D01*
X118685368Y-108119255D01*
X118690375Y-108074815D01*
X118705565Y-107940003D01*
X118705565Y-107939996D01*
X118700495Y-107894996D01*
X134976435Y-107894996D01*
X134976435Y-107895003D01*
X134996630Y-108074249D01*
X134996631Y-108074254D01*
X135056211Y-108244523D01*
X135125329Y-108354523D01*
X135152184Y-108397262D01*
X135279738Y-108524816D01*
X135432478Y-108620789D01*
X135544800Y-108660092D01*
X135602745Y-108680368D01*
X135602750Y-108680369D01*
X135781996Y-108700565D01*
X135782000Y-108700565D01*
X135782004Y-108700565D01*
X135961249Y-108680369D01*
X135961252Y-108680368D01*
X135961255Y-108680368D01*
X136131522Y-108620789D01*
X136284262Y-108524816D01*
X136411816Y-108397262D01*
X136507789Y-108244522D01*
X136567368Y-108074255D01*
X136568855Y-108061056D01*
X136587565Y-107895003D01*
X136587565Y-107894996D01*
X136567369Y-107715750D01*
X136567368Y-107715745D01*
X136519998Y-107580369D01*
X136507789Y-107545478D01*
X136444652Y-107444996D01*
X146806435Y-107444996D01*
X146806435Y-107445003D01*
X146826630Y-107624249D01*
X146826631Y-107624254D01*
X146886211Y-107794523D01*
X146949347Y-107895003D01*
X146982184Y-107947262D01*
X147109738Y-108074816D01*
X147157481Y-108104815D01*
X147249782Y-108162812D01*
X147262478Y-108170789D01*
X147432739Y-108230366D01*
X147432745Y-108230368D01*
X147432750Y-108230369D01*
X147611996Y-108250565D01*
X147612000Y-108250565D01*
X147612004Y-108250565D01*
X147791249Y-108230369D01*
X147791251Y-108230368D01*
X147791255Y-108230368D01*
X147791258Y-108230366D01*
X147791262Y-108230366D01*
X147853743Y-108208503D01*
X147923521Y-108204940D01*
X147984149Y-108239669D01*
X148011739Y-108284589D01*
X148036209Y-108354519D01*
X148036211Y-108354522D01*
X148132184Y-108507262D01*
X148259738Y-108634816D01*
X148309030Y-108665788D01*
X148403850Y-108725368D01*
X148412478Y-108730789D01*
X148582745Y-108790368D01*
X148582750Y-108790369D01*
X148761996Y-108810565D01*
X148762000Y-108810565D01*
X148762004Y-108810565D01*
X148941249Y-108790369D01*
X148941252Y-108790368D01*
X148941255Y-108790368D01*
X149111522Y-108730789D01*
X149264262Y-108634816D01*
X149391816Y-108507262D01*
X149487789Y-108354522D01*
X149547368Y-108184255D01*
X149547369Y-108184249D01*
X149567565Y-108005003D01*
X149567565Y-108004996D01*
X149547369Y-107825750D01*
X149547368Y-107825745D01*
X149524625Y-107760749D01*
X149487789Y-107655478D01*
X149468166Y-107624249D01*
X149424423Y-107554632D01*
X149391816Y-107502738D01*
X149364074Y-107474996D01*
X153200435Y-107474996D01*
X153200435Y-107475003D01*
X153220630Y-107654249D01*
X153220631Y-107654254D01*
X153280211Y-107824523D01*
X153357334Y-107947262D01*
X153376184Y-107977262D01*
X153503738Y-108104816D01*
X153526708Y-108119249D01*
X153630162Y-108184254D01*
X153656478Y-108200789D01*
X153741010Y-108230368D01*
X153826745Y-108260368D01*
X153826750Y-108260369D01*
X154005996Y-108280565D01*
X154006000Y-108280565D01*
X154006004Y-108280565D01*
X154185249Y-108260369D01*
X154185252Y-108260368D01*
X154185255Y-108260368D01*
X154355522Y-108200789D01*
X154508262Y-108104816D01*
X154635816Y-107977262D01*
X154731789Y-107824522D01*
X154791368Y-107654255D01*
X154794748Y-107624255D01*
X154811565Y-107475003D01*
X154811565Y-107474996D01*
X154791369Y-107295750D01*
X154791368Y-107295745D01*
X154788373Y-107287187D01*
X154731789Y-107125478D01*
X154712937Y-107095476D01*
X154636769Y-106974255D01*
X154635816Y-106972738D01*
X154508262Y-106845184D01*
X154428389Y-106794996D01*
X157436435Y-106794996D01*
X157436435Y-106795003D01*
X157456630Y-106974249D01*
X157456631Y-106974254D01*
X157516211Y-107144523D01*
X157592384Y-107265750D01*
X157612184Y-107297262D01*
X157739738Y-107424816D01*
X157892478Y-107520789D01*
X157989190Y-107554630D01*
X158062745Y-107580368D01*
X158062750Y-107580369D01*
X158241996Y-107600565D01*
X158242000Y-107600565D01*
X158242004Y-107600565D01*
X158421249Y-107580369D01*
X158421252Y-107580368D01*
X158421255Y-107580368D01*
X158591522Y-107520789D01*
X158744262Y-107424816D01*
X158871816Y-107297262D01*
X158967789Y-107144522D01*
X159027368Y-106974255D01*
X159030919Y-106942738D01*
X159047565Y-106795003D01*
X159047565Y-106794996D01*
X159027369Y-106615750D01*
X159027368Y-106615745D01*
X158967788Y-106445476D01*
X158928582Y-106383080D01*
X158871816Y-106292738D01*
X158744262Y-106165184D01*
X158591523Y-106069211D01*
X158421254Y-106009631D01*
X158421249Y-106009630D01*
X158242004Y-105989435D01*
X158241996Y-105989435D01*
X158062750Y-106009630D01*
X158062745Y-106009631D01*
X157892476Y-106069211D01*
X157739737Y-106165184D01*
X157612184Y-106292737D01*
X157516211Y-106445476D01*
X157456631Y-106615745D01*
X157456630Y-106615750D01*
X157436435Y-106794996D01*
X154428389Y-106794996D01*
X154355523Y-106749211D01*
X154185254Y-106689631D01*
X154185249Y-106689630D01*
X154006004Y-106669435D01*
X154005996Y-106669435D01*
X153826750Y-106689630D01*
X153826745Y-106689631D01*
X153656476Y-106749211D01*
X153503737Y-106845184D01*
X153376184Y-106972737D01*
X153280211Y-107125476D01*
X153220631Y-107295745D01*
X153220630Y-107295750D01*
X153200435Y-107474996D01*
X149364074Y-107474996D01*
X149264262Y-107375184D01*
X149111523Y-107279211D01*
X148941254Y-107219631D01*
X148941249Y-107219630D01*
X148762004Y-107199435D01*
X148761996Y-107199435D01*
X148582750Y-107219630D01*
X148582739Y-107219633D01*
X148520254Y-107241497D01*
X148450475Y-107245058D01*
X148389849Y-107210328D01*
X148362259Y-107165409D01*
X148337789Y-107095478D01*
X148261619Y-106974254D01*
X148241816Y-106942738D01*
X148114262Y-106815184D01*
X148082144Y-106795003D01*
X147961523Y-106719211D01*
X147791254Y-106659631D01*
X147791249Y-106659630D01*
X147612004Y-106639435D01*
X147611996Y-106639435D01*
X147432750Y-106659630D01*
X147432745Y-106659631D01*
X147262476Y-106719211D01*
X147109737Y-106815184D01*
X146982184Y-106942737D01*
X146886211Y-107095476D01*
X146826631Y-107265745D01*
X146826630Y-107265750D01*
X146806435Y-107444996D01*
X136444652Y-107444996D01*
X136411816Y-107392738D01*
X136284262Y-107265184D01*
X136252232Y-107245058D01*
X136131523Y-107169211D01*
X135961254Y-107109631D01*
X135961249Y-107109630D01*
X135782004Y-107089435D01*
X135781996Y-107089435D01*
X135602750Y-107109630D01*
X135602745Y-107109631D01*
X135432476Y-107169211D01*
X135279737Y-107265184D01*
X135152184Y-107392737D01*
X135056211Y-107545476D01*
X134996631Y-107715745D01*
X134996630Y-107715750D01*
X134976435Y-107894996D01*
X118700495Y-107894996D01*
X118685369Y-107760750D01*
X118685368Y-107760745D01*
X118625789Y-107590478D01*
X118619436Y-107580368D01*
X118534379Y-107445000D01*
X118529816Y-107437738D01*
X118402262Y-107310184D01*
X118381697Y-107297262D01*
X118249523Y-107214211D01*
X118079254Y-107154631D01*
X118079249Y-107154630D01*
X117900004Y-107134435D01*
X117899996Y-107134435D01*
X117720750Y-107154630D01*
X117720745Y-107154631D01*
X117550476Y-107214211D01*
X117397737Y-107310184D01*
X117270184Y-107437737D01*
X117174211Y-107590476D01*
X117114631Y-107760745D01*
X117114630Y-107760749D01*
X117103645Y-107858247D01*
X117076578Y-107922661D01*
X117018983Y-107962216D01*
X116949146Y-107964353D01*
X116889240Y-107928394D01*
X116875435Y-107910340D01*
X116829816Y-107837738D01*
X116702262Y-107710184D01*
X116549523Y-107614211D01*
X116379254Y-107554631D01*
X116379249Y-107554630D01*
X116200004Y-107534435D01*
X116199996Y-107534435D01*
X116020750Y-107554630D01*
X116020745Y-107554631D01*
X115850476Y-107614211D01*
X115697737Y-107710184D01*
X115570184Y-107837737D01*
X115474211Y-107990476D01*
X115414631Y-108160745D01*
X115414630Y-108160750D01*
X115394435Y-108339996D01*
X114882500Y-108339996D01*
X114882500Y-99330793D01*
X114900033Y-99271081D01*
X115109554Y-99271081D01*
X115125477Y-99295858D01*
X115129720Y-99316910D01*
X115144630Y-99449249D01*
X115144631Y-99449254D01*
X115204211Y-99619523D01*
X115267817Y-99720750D01*
X115300184Y-99772262D01*
X115427738Y-99899816D01*
X115580478Y-99995789D01*
X115722475Y-100045476D01*
X115750745Y-100055368D01*
X115750750Y-100055369D01*
X115929996Y-100075565D01*
X115930000Y-100075565D01*
X115930004Y-100075565D01*
X116109249Y-100055369D01*
X116109252Y-100055368D01*
X116109255Y-100055368D01*
X116279522Y-99995789D01*
X116431976Y-99899996D01*
X118694435Y-99899996D01*
X118694435Y-99900003D01*
X118714630Y-100079249D01*
X118714633Y-100079262D01*
X118776510Y-100256094D01*
X118774364Y-100256844D01*
X118783962Y-100315144D01*
X118775609Y-100343590D01*
X118776510Y-100343906D01*
X118714633Y-100520737D01*
X118714630Y-100520750D01*
X118694435Y-100699996D01*
X118694435Y-100700003D01*
X118714630Y-100879249D01*
X118714633Y-100879262D01*
X118776510Y-101056094D01*
X118774364Y-101056844D01*
X118783962Y-101115144D01*
X118775609Y-101143590D01*
X118776510Y-101143906D01*
X118714633Y-101320737D01*
X118714630Y-101320750D01*
X118694435Y-101499996D01*
X118694435Y-101500003D01*
X118714630Y-101679249D01*
X118714633Y-101679262D01*
X118776510Y-101856094D01*
X118774364Y-101856844D01*
X118783962Y-101915144D01*
X118775609Y-101943590D01*
X118776510Y-101943906D01*
X118714633Y-102120737D01*
X118714630Y-102120750D01*
X118694435Y-102299996D01*
X118694435Y-102300003D01*
X118714630Y-102479249D01*
X118714633Y-102479262D01*
X118776510Y-102656094D01*
X118774364Y-102656844D01*
X118783962Y-102715144D01*
X118775609Y-102743590D01*
X118776510Y-102743906D01*
X118714633Y-102920737D01*
X118714630Y-102920750D01*
X118694435Y-103099996D01*
X118694435Y-103100003D01*
X118714630Y-103279249D01*
X118714633Y-103279262D01*
X118776510Y-103456094D01*
X118774364Y-103456844D01*
X118783962Y-103515144D01*
X118775609Y-103543590D01*
X118776510Y-103543906D01*
X118714633Y-103720737D01*
X118714630Y-103720750D01*
X118694435Y-103899996D01*
X118694435Y-103900003D01*
X118714630Y-104079249D01*
X118714633Y-104079262D01*
X118776510Y-104256094D01*
X118774364Y-104256844D01*
X118783962Y-104315144D01*
X118775609Y-104343590D01*
X118776510Y-104343906D01*
X118714633Y-104520737D01*
X118714630Y-104520750D01*
X118694435Y-104699996D01*
X118694435Y-104700003D01*
X118714630Y-104879249D01*
X118714633Y-104879262D01*
X118776510Y-105056094D01*
X118774364Y-105056844D01*
X118783962Y-105115144D01*
X118775609Y-105143590D01*
X118776510Y-105143906D01*
X118714633Y-105320737D01*
X118714630Y-105320750D01*
X118694435Y-105499996D01*
X118694435Y-105500003D01*
X118714630Y-105679249D01*
X118714631Y-105679254D01*
X118774211Y-105849523D01*
X118862124Y-105989435D01*
X118870184Y-106002262D01*
X118997738Y-106129816D01*
X119150478Y-106225789D01*
X119320745Y-106285368D01*
X119320750Y-106285369D01*
X119499996Y-106305565D01*
X119500000Y-106305565D01*
X119500004Y-106305565D01*
X119679249Y-106285369D01*
X119679252Y-106285368D01*
X119679255Y-106285368D01*
X119849522Y-106225789D01*
X120002262Y-106129816D01*
X120129816Y-106002262D01*
X120225789Y-105849522D01*
X120285368Y-105679255D01*
X120305565Y-105500000D01*
X120285368Y-105320745D01*
X120285367Y-105320743D01*
X120285366Y-105320737D01*
X120223489Y-105143905D01*
X120225637Y-105143153D01*
X120216035Y-105084872D01*
X120224392Y-105056411D01*
X120223489Y-105056095D01*
X120285366Y-104879262D01*
X120285369Y-104879249D01*
X120305565Y-104700003D01*
X120305565Y-104699996D01*
X120285369Y-104520750D01*
X120285366Y-104520737D01*
X120223489Y-104343905D01*
X120225637Y-104343153D01*
X120216035Y-104284872D01*
X120224392Y-104256411D01*
X120223489Y-104256095D01*
X120285366Y-104079262D01*
X120285369Y-104079249D01*
X120305565Y-103900003D01*
X120305565Y-103899996D01*
X120285369Y-103720750D01*
X120285366Y-103720737D01*
X120223489Y-103543905D01*
X120225637Y-103543153D01*
X120216035Y-103484872D01*
X120224392Y-103456411D01*
X120223489Y-103456095D01*
X120285366Y-103279262D01*
X120285369Y-103279249D01*
X120305565Y-103100003D01*
X120305565Y-103099996D01*
X120285369Y-102920750D01*
X120285366Y-102920737D01*
X120223489Y-102743905D01*
X120225637Y-102743153D01*
X120216035Y-102684872D01*
X120224392Y-102656411D01*
X120223489Y-102656095D01*
X120285366Y-102479262D01*
X120285369Y-102479249D01*
X120305565Y-102300003D01*
X120305565Y-102299996D01*
X120285369Y-102120750D01*
X120285366Y-102120737D01*
X120223489Y-101943905D01*
X120225637Y-101943153D01*
X120216035Y-101884872D01*
X120224392Y-101856411D01*
X120223489Y-101856095D01*
X120285366Y-101679262D01*
X120285369Y-101679249D01*
X120305565Y-101500003D01*
X120305565Y-101499996D01*
X120285369Y-101320750D01*
X120285366Y-101320737D01*
X120223489Y-101143905D01*
X120225637Y-101143153D01*
X120216035Y-101084872D01*
X120224392Y-101056411D01*
X120223489Y-101056095D01*
X120285366Y-100879262D01*
X120285369Y-100879249D01*
X120305565Y-100700003D01*
X120305565Y-100699996D01*
X120285369Y-100520750D01*
X120285366Y-100520737D01*
X120223489Y-100343905D01*
X120225637Y-100343153D01*
X120216035Y-100284872D01*
X120224392Y-100256411D01*
X120223489Y-100256095D01*
X120285366Y-100079262D01*
X120285369Y-100079249D01*
X120305565Y-99900003D01*
X120305565Y-99899996D01*
X125194435Y-99899996D01*
X125194435Y-99900003D01*
X125214630Y-100079249D01*
X125214633Y-100079262D01*
X125276510Y-100256094D01*
X125274364Y-100256844D01*
X125283962Y-100315144D01*
X125275609Y-100343590D01*
X125276510Y-100343906D01*
X125214633Y-100520737D01*
X125214630Y-100520750D01*
X125194435Y-100699996D01*
X125194435Y-100700003D01*
X125214630Y-100879249D01*
X125214633Y-100879262D01*
X125276510Y-101056094D01*
X125274364Y-101056844D01*
X125283962Y-101115144D01*
X125275609Y-101143590D01*
X125276510Y-101143906D01*
X125214633Y-101320737D01*
X125214630Y-101320750D01*
X125194435Y-101499996D01*
X125194435Y-101500003D01*
X125214630Y-101679249D01*
X125214633Y-101679262D01*
X125276510Y-101856094D01*
X125274364Y-101856844D01*
X125283962Y-101915144D01*
X125275609Y-101943590D01*
X125276510Y-101943906D01*
X125214633Y-102120737D01*
X125214630Y-102120750D01*
X125194435Y-102299996D01*
X125194435Y-102300003D01*
X125214630Y-102479249D01*
X125214633Y-102479262D01*
X125276510Y-102656094D01*
X125274364Y-102656844D01*
X125283962Y-102715144D01*
X125275609Y-102743590D01*
X125276510Y-102743906D01*
X125214633Y-102920737D01*
X125214630Y-102920750D01*
X125194435Y-103099996D01*
X125194435Y-103100003D01*
X125214630Y-103279249D01*
X125214633Y-103279262D01*
X125276510Y-103456094D01*
X125274364Y-103456844D01*
X125283962Y-103515144D01*
X125275609Y-103543590D01*
X125276510Y-103543906D01*
X125214633Y-103720737D01*
X125214630Y-103720750D01*
X125194435Y-103899996D01*
X125194435Y-103900003D01*
X125214630Y-104079249D01*
X125214633Y-104079262D01*
X125276510Y-104256094D01*
X125274364Y-104256844D01*
X125283962Y-104315144D01*
X125275609Y-104343590D01*
X125276510Y-104343906D01*
X125214633Y-104520737D01*
X125214630Y-104520750D01*
X125194435Y-104699996D01*
X125194435Y-104700003D01*
X125214630Y-104879249D01*
X125214633Y-104879262D01*
X125276510Y-105056094D01*
X125274364Y-105056844D01*
X125283962Y-105115144D01*
X125275609Y-105143590D01*
X125276510Y-105143906D01*
X125214633Y-105320737D01*
X125214630Y-105320750D01*
X125194435Y-105499996D01*
X125194435Y-105500003D01*
X125214630Y-105679249D01*
X125214631Y-105679254D01*
X125274211Y-105849523D01*
X125362124Y-105989435D01*
X125370184Y-106002262D01*
X125497738Y-106129816D01*
X125650478Y-106225789D01*
X125820745Y-106285368D01*
X125820750Y-106285369D01*
X125999996Y-106305565D01*
X126000000Y-106305565D01*
X126000004Y-106305565D01*
X126179249Y-106285369D01*
X126179252Y-106285368D01*
X126179255Y-106285368D01*
X126349522Y-106225789D01*
X126502262Y-106129816D01*
X126629816Y-106002262D01*
X126725789Y-105849522D01*
X126785368Y-105679255D01*
X126805565Y-105500000D01*
X126785368Y-105320745D01*
X126785367Y-105320743D01*
X126785366Y-105320737D01*
X126723489Y-105143905D01*
X126725637Y-105143153D01*
X126716035Y-105084872D01*
X126724392Y-105056411D01*
X126723489Y-105056095D01*
X126785366Y-104879262D01*
X126785369Y-104879249D01*
X126805565Y-104700003D01*
X126805565Y-104699996D01*
X126785369Y-104520750D01*
X126785366Y-104520737D01*
X126723489Y-104343905D01*
X126725637Y-104343153D01*
X126716035Y-104284872D01*
X126724392Y-104256411D01*
X126723489Y-104256095D01*
X126785366Y-104079262D01*
X126785369Y-104079249D01*
X126803425Y-103918996D01*
X154470435Y-103918996D01*
X154470435Y-103919003D01*
X154490630Y-104098249D01*
X154490631Y-104098254D01*
X154550211Y-104268523D01*
X154597379Y-104343590D01*
X154646184Y-104421262D01*
X154773738Y-104548816D01*
X154926478Y-104644789D01*
X155084251Y-104699996D01*
X155096745Y-104704368D01*
X155096750Y-104704369D01*
X155275996Y-104724565D01*
X155276000Y-104724565D01*
X155276004Y-104724565D01*
X155455249Y-104704369D01*
X155455252Y-104704368D01*
X155455255Y-104704368D01*
X155625522Y-104644789D01*
X155778262Y-104548816D01*
X155905816Y-104421262D01*
X156001789Y-104268522D01*
X156061368Y-104098255D01*
X156063509Y-104079255D01*
X156081565Y-103919003D01*
X156081565Y-103918996D01*
X156061369Y-103739750D01*
X156061368Y-103739745D01*
X156001788Y-103569476D01*
X155930744Y-103456411D01*
X155905816Y-103416738D01*
X155778262Y-103289184D01*
X155762451Y-103279249D01*
X155625523Y-103193211D01*
X155455254Y-103133631D01*
X155455249Y-103133630D01*
X155276004Y-103113435D01*
X155275996Y-103113435D01*
X155096750Y-103133630D01*
X155096745Y-103133631D01*
X154926476Y-103193211D01*
X154773737Y-103289184D01*
X154646184Y-103416737D01*
X154550211Y-103569476D01*
X154490631Y-103739745D01*
X154490630Y-103739750D01*
X154470435Y-103918996D01*
X126803425Y-103918996D01*
X126805565Y-103900003D01*
X126805565Y-103899996D01*
X126785369Y-103720750D01*
X126785366Y-103720737D01*
X126723489Y-103543905D01*
X126725637Y-103543153D01*
X126716035Y-103484872D01*
X126724392Y-103456411D01*
X126723489Y-103456095D01*
X126785366Y-103279262D01*
X126785369Y-103279249D01*
X126805565Y-103100003D01*
X126805565Y-103099996D01*
X126785369Y-102920750D01*
X126785366Y-102920737D01*
X126723489Y-102743905D01*
X126725637Y-102743153D01*
X126716035Y-102684872D01*
X126724392Y-102656411D01*
X126723489Y-102656095D01*
X126785366Y-102479262D01*
X126785369Y-102479249D01*
X126805565Y-102300003D01*
X126805565Y-102299996D01*
X126785369Y-102120750D01*
X126785366Y-102120737D01*
X126723489Y-101943905D01*
X126725637Y-101943153D01*
X126716035Y-101884872D01*
X126724392Y-101856411D01*
X126723489Y-101856095D01*
X126785366Y-101679262D01*
X126785369Y-101679249D01*
X126786112Y-101672658D01*
X145487011Y-101672658D01*
X145487011Y-101672665D01*
X145507206Y-101851911D01*
X145507207Y-101851916D01*
X145566787Y-102022185D01*
X145623579Y-102112568D01*
X145662760Y-102174924D01*
X145790314Y-102302478D01*
X145943054Y-102398451D01*
X146044788Y-102434049D01*
X146101563Y-102474769D01*
X146120875Y-102510136D01*
X146166786Y-102641344D01*
X146194137Y-102684872D01*
X146262760Y-102794085D01*
X146390314Y-102921639D01*
X146543054Y-103017612D01*
X146713321Y-103077191D01*
X146713326Y-103077192D01*
X146892572Y-103097388D01*
X146892576Y-103097388D01*
X146892580Y-103097388D01*
X147071825Y-103077192D01*
X147071828Y-103077191D01*
X147071831Y-103077191D01*
X147242098Y-103017612D01*
X147394838Y-102921639D01*
X147522392Y-102794085D01*
X147618365Y-102641345D01*
X147677944Y-102471078D01*
X147677945Y-102471072D01*
X147698141Y-102291826D01*
X147698141Y-102291819D01*
X147677945Y-102112573D01*
X147677944Y-102112568D01*
X147618365Y-101942301D01*
X147591785Y-101900000D01*
X147522552Y-101789816D01*
X147522392Y-101789561D01*
X147394838Y-101662007D01*
X147242097Y-101566033D01*
X147179728Y-101544210D01*
X147140362Y-101530435D01*
X147083588Y-101489714D01*
X147064277Y-101454351D01*
X147018365Y-101323140D01*
X146922392Y-101170400D01*
X146911988Y-101159996D01*
X157504435Y-101159996D01*
X157504435Y-101160003D01*
X157524630Y-101339249D01*
X157524631Y-101339254D01*
X157584211Y-101509523D01*
X157680024Y-101662007D01*
X157680184Y-101662262D01*
X157807738Y-101789816D01*
X157898080Y-101846582D01*
X157959018Y-101884872D01*
X157960478Y-101885789D01*
X158001091Y-101900000D01*
X158130745Y-101945368D01*
X158130750Y-101945369D01*
X158309996Y-101965565D01*
X158310000Y-101965565D01*
X158310004Y-101965565D01*
X158489249Y-101945369D01*
X158489252Y-101945368D01*
X158489255Y-101945368D01*
X158659522Y-101885789D01*
X158812262Y-101789816D01*
X158939816Y-101662262D01*
X159035789Y-101509522D01*
X159095368Y-101339255D01*
X159095368Y-101339253D01*
X159095369Y-101339251D01*
X159106681Y-101238846D01*
X159133747Y-101174431D01*
X159188948Y-101135686D01*
X159231522Y-101120789D01*
X159384262Y-101024816D01*
X159511816Y-100897262D01*
X159607789Y-100744522D01*
X159667368Y-100574255D01*
X159687565Y-100395000D01*
X159681808Y-100343906D01*
X159667369Y-100215750D01*
X159667368Y-100215745D01*
X159607789Y-100045478D01*
X159511816Y-99892738D01*
X159384262Y-99765184D01*
X159313538Y-99720745D01*
X159231523Y-99669211D01*
X159061254Y-99609631D01*
X159061249Y-99609630D01*
X158882004Y-99589435D01*
X158881995Y-99589435D01*
X158802056Y-99598441D01*
X158733234Y-99586386D01*
X158681856Y-99539036D01*
X158664232Y-99471426D01*
X158685959Y-99405020D01*
X158722198Y-99370229D01*
X158834262Y-99299816D01*
X158961816Y-99172262D01*
X159057789Y-99019522D01*
X159117368Y-98849255D01*
X159128570Y-98749840D01*
X159137565Y-98670002D01*
X159137565Y-98669998D01*
X159131166Y-98613211D01*
X159143220Y-98544389D01*
X159188415Y-98494332D01*
X159194124Y-98490745D01*
X159259263Y-98449816D01*
X159386817Y-98322262D01*
X159482790Y-98169522D01*
X159542369Y-97999255D01*
X159542370Y-97999249D01*
X159562566Y-97820003D01*
X159562566Y-97819996D01*
X159542370Y-97640750D01*
X159542369Y-97640745D01*
X159498981Y-97516750D01*
X159482790Y-97470478D01*
X159386817Y-97317738D01*
X159259263Y-97190184D01*
X159106524Y-97094211D01*
X158936255Y-97034631D01*
X158936250Y-97034630D01*
X158757005Y-97014435D01*
X158756997Y-97014435D01*
X158577751Y-97034630D01*
X158577746Y-97034631D01*
X158407477Y-97094211D01*
X158254738Y-97190184D01*
X158127185Y-97317737D01*
X158031212Y-97470476D01*
X157971632Y-97640745D01*
X157971631Y-97640750D01*
X157951436Y-97819996D01*
X157951436Y-97820003D01*
X157957834Y-97876790D01*
X157945779Y-97945612D01*
X157900587Y-97995666D01*
X157829739Y-98040182D01*
X157702184Y-98167737D01*
X157606211Y-98320476D01*
X157546631Y-98490745D01*
X157546630Y-98490750D01*
X157526435Y-98669996D01*
X157526435Y-98670003D01*
X157546630Y-98849249D01*
X157546631Y-98849254D01*
X157606211Y-99019523D01*
X157702184Y-99172262D01*
X157829738Y-99299816D01*
X157982478Y-99395789D01*
X158134203Y-99448880D01*
X158152745Y-99455368D01*
X158152750Y-99455369D01*
X158331996Y-99475565D01*
X158332000Y-99475565D01*
X158332003Y-99475565D01*
X158411941Y-99466558D01*
X158480763Y-99478612D01*
X158532143Y-99525961D01*
X158549767Y-99593572D01*
X158528041Y-99659977D01*
X158491798Y-99694771D01*
X158379739Y-99765182D01*
X158252184Y-99892737D01*
X158156210Y-100045478D01*
X158096631Y-100215747D01*
X158096630Y-100215752D01*
X158085318Y-100316155D01*
X158058252Y-100380568D01*
X158003056Y-100419311D01*
X157960478Y-100434211D01*
X157960477Y-100434211D01*
X157960473Y-100434213D01*
X157807737Y-100530184D01*
X157680184Y-100657737D01*
X157584211Y-100810476D01*
X157524631Y-100980745D01*
X157524630Y-100980750D01*
X157504435Y-101159996D01*
X146911988Y-101159996D01*
X146794838Y-101042846D01*
X146642099Y-100946873D01*
X146471830Y-100887293D01*
X146471825Y-100887292D01*
X146292580Y-100867097D01*
X146292572Y-100867097D01*
X146113326Y-100887292D01*
X146113321Y-100887293D01*
X145943052Y-100946873D01*
X145790313Y-101042846D01*
X145662760Y-101170399D01*
X145566787Y-101323138D01*
X145507207Y-101493407D01*
X145507206Y-101493412D01*
X145487011Y-101672658D01*
X126786112Y-101672658D01*
X126805565Y-101500003D01*
X126805565Y-101499996D01*
X126785369Y-101320750D01*
X126785366Y-101320737D01*
X126723489Y-101143905D01*
X126725637Y-101143153D01*
X126716035Y-101084872D01*
X126724392Y-101056411D01*
X126723489Y-101056095D01*
X126785366Y-100879262D01*
X126785369Y-100879249D01*
X126805565Y-100700003D01*
X126805565Y-100699996D01*
X126785369Y-100520750D01*
X126785366Y-100520737D01*
X126723489Y-100343905D01*
X126725637Y-100343153D01*
X126716035Y-100284872D01*
X126724392Y-100256411D01*
X126723489Y-100256095D01*
X126785366Y-100079262D01*
X126785369Y-100079249D01*
X126805565Y-99900003D01*
X126805565Y-99899996D01*
X126785369Y-99720750D01*
X126785368Y-99720745D01*
X126749949Y-99619523D01*
X126725789Y-99550478D01*
X126721876Y-99544251D01*
X126676117Y-99471426D01*
X126629816Y-99397738D01*
X126502262Y-99270184D01*
X126494936Y-99265581D01*
X126349523Y-99174211D01*
X126179254Y-99114631D01*
X126179249Y-99114630D01*
X126000004Y-99094435D01*
X125999996Y-99094435D01*
X125820750Y-99114630D01*
X125820745Y-99114631D01*
X125650476Y-99174211D01*
X125497737Y-99270184D01*
X125370184Y-99397737D01*
X125274211Y-99550476D01*
X125214631Y-99720745D01*
X125214630Y-99720750D01*
X125194435Y-99899996D01*
X120305565Y-99899996D01*
X120285369Y-99720750D01*
X120285366Y-99720737D01*
X120229832Y-99562032D01*
X120226270Y-99492253D01*
X120241881Y-99455103D01*
X120245786Y-99448888D01*
X120245786Y-99448887D01*
X120245789Y-99448883D01*
X120305368Y-99278616D01*
X120306318Y-99270184D01*
X120325565Y-99099364D01*
X120325565Y-99099357D01*
X120305369Y-98920111D01*
X120305366Y-98920098D01*
X120259726Y-98789667D01*
X120256164Y-98719888D01*
X120271773Y-98682742D01*
X120295789Y-98644522D01*
X120348343Y-98494332D01*
X120355366Y-98474262D01*
X120355369Y-98474249D01*
X120375565Y-98295003D01*
X120375565Y-98294996D01*
X120355369Y-98115750D01*
X120355368Y-98115745D01*
X120314604Y-97999249D01*
X120295789Y-97945478D01*
X120199816Y-97792738D01*
X120103074Y-97695996D01*
X154216435Y-97695996D01*
X154216435Y-97696003D01*
X154236630Y-97875249D01*
X154236631Y-97875254D01*
X154296211Y-98045523D01*
X154340335Y-98115745D01*
X154392184Y-98198262D01*
X154519738Y-98325816D01*
X154672478Y-98421789D01*
X154822400Y-98474249D01*
X154842745Y-98481368D01*
X154842750Y-98481369D01*
X155021996Y-98501565D01*
X155022000Y-98501565D01*
X155022004Y-98501565D01*
X155201249Y-98481369D01*
X155201252Y-98481368D01*
X155201255Y-98481368D01*
X155371522Y-98421789D01*
X155524262Y-98325816D01*
X155651816Y-98198262D01*
X155747789Y-98045522D01*
X155807368Y-97875255D01*
X155807369Y-97875249D01*
X155827565Y-97696003D01*
X155827565Y-97695996D01*
X155807369Y-97516750D01*
X155807368Y-97516745D01*
X155747788Y-97346476D01*
X155651815Y-97193737D01*
X155524262Y-97066184D01*
X155371523Y-96970211D01*
X155201254Y-96910631D01*
X155201249Y-96910630D01*
X155022004Y-96890435D01*
X155021996Y-96890435D01*
X154842750Y-96910630D01*
X154842745Y-96910631D01*
X154672476Y-96970211D01*
X154519737Y-97066184D01*
X154392184Y-97193737D01*
X154296211Y-97346476D01*
X154236631Y-97516745D01*
X154236630Y-97516750D01*
X154216435Y-97695996D01*
X120103074Y-97695996D01*
X120072262Y-97665184D01*
X120033368Y-97640745D01*
X119919523Y-97569211D01*
X119749254Y-97509631D01*
X119749249Y-97509630D01*
X119570004Y-97489435D01*
X119569996Y-97489435D01*
X119390750Y-97509630D01*
X119390745Y-97509631D01*
X119220476Y-97569211D01*
X119067737Y-97665184D01*
X118940184Y-97792737D01*
X118844211Y-97945476D01*
X118784631Y-98115745D01*
X118784630Y-98115750D01*
X118764435Y-98294996D01*
X118764435Y-98295003D01*
X118784630Y-98474249D01*
X118784633Y-98474262D01*
X118830273Y-98604692D01*
X118833835Y-98674471D01*
X118818226Y-98711618D01*
X118794209Y-98749840D01*
X118734633Y-98920098D01*
X118734630Y-98920111D01*
X118714435Y-99099357D01*
X118714435Y-99099364D01*
X118734630Y-99278610D01*
X118734631Y-99278615D01*
X118790168Y-99437329D01*
X118793729Y-99507108D01*
X118778123Y-99544251D01*
X118774209Y-99550479D01*
X118714633Y-99720737D01*
X118714630Y-99720750D01*
X118694435Y-99899996D01*
X116431976Y-99899996D01*
X116432262Y-99899816D01*
X116559816Y-99772262D01*
X116655789Y-99619522D01*
X116715368Y-99449255D01*
X116715369Y-99449249D01*
X116735565Y-99270003D01*
X116735565Y-99269996D01*
X116715369Y-99090750D01*
X116715368Y-99090745D01*
X116655788Y-98920476D01*
X116559815Y-98767737D01*
X116432262Y-98640184D01*
X116279523Y-98544211D01*
X116109254Y-98484631D01*
X116109249Y-98484630D01*
X115930004Y-98464435D01*
X115929996Y-98464435D01*
X115750750Y-98484630D01*
X115750745Y-98484631D01*
X115580476Y-98544211D01*
X115427737Y-98640184D01*
X115300184Y-98767737D01*
X115204211Y-98920476D01*
X115144631Y-99090745D01*
X115144630Y-99090750D01*
X115129720Y-99223089D01*
X115109554Y-99271081D01*
X114900033Y-99271081D01*
X114901648Y-99265581D01*
X114884360Y-99230600D01*
X114882500Y-99209206D01*
X114882500Y-96219996D01*
X147636435Y-96219996D01*
X147636435Y-96220003D01*
X147656630Y-96399249D01*
X147656631Y-96399254D01*
X147716211Y-96569523D01*
X147812184Y-96722262D01*
X147939738Y-96849816D01*
X148092478Y-96945789D01*
X148262745Y-97005368D01*
X148262750Y-97005369D01*
X148441996Y-97025565D01*
X148442000Y-97025565D01*
X148442004Y-97025565D01*
X148621249Y-97005369D01*
X148621252Y-97005368D01*
X148621255Y-97005368D01*
X148791522Y-96945789D01*
X148944262Y-96849816D01*
X149071816Y-96722262D01*
X149167789Y-96569522D01*
X149227368Y-96399255D01*
X149247565Y-96220000D01*
X149247065Y-96215565D01*
X149227369Y-96040750D01*
X149227368Y-96040745D01*
X149167788Y-95870476D01*
X149098071Y-95759523D01*
X149071816Y-95717738D01*
X148944262Y-95590184D01*
X148942774Y-95589249D01*
X148791523Y-95494211D01*
X148621254Y-95434631D01*
X148621249Y-95434630D01*
X148442004Y-95414435D01*
X148441996Y-95414435D01*
X148262750Y-95434630D01*
X148262745Y-95434631D01*
X148092476Y-95494211D01*
X147939737Y-95590184D01*
X147812184Y-95717737D01*
X147716211Y-95870476D01*
X147656631Y-96040745D01*
X147656630Y-96040750D01*
X147636435Y-96219996D01*
X114882500Y-96219996D01*
X114882500Y-95409996D01*
X151264435Y-95409996D01*
X151264435Y-95410003D01*
X151284630Y-95589249D01*
X151284631Y-95589254D01*
X151344211Y-95759523D01*
X151413928Y-95870476D01*
X151440184Y-95912262D01*
X151567738Y-96039816D01*
X151720478Y-96135789D01*
X151890745Y-96195368D01*
X151890750Y-96195369D01*
X152069996Y-96215565D01*
X152070000Y-96215565D01*
X152070004Y-96215565D01*
X152249249Y-96195369D01*
X152249252Y-96195368D01*
X152249255Y-96195368D01*
X152419522Y-96135789D01*
X152572262Y-96039816D01*
X152699816Y-95912262D01*
X152795789Y-95759522D01*
X152855368Y-95589255D01*
X152872790Y-95434630D01*
X152875565Y-95410003D01*
X152875565Y-95409996D01*
X152855369Y-95230750D01*
X152855368Y-95230745D01*
X152795788Y-95060476D01*
X152699815Y-94907737D01*
X152572262Y-94780184D01*
X152419523Y-94684211D01*
X152249254Y-94624631D01*
X152249249Y-94624630D01*
X152070004Y-94604435D01*
X152069996Y-94604435D01*
X151890750Y-94624630D01*
X151890745Y-94624631D01*
X151720476Y-94684211D01*
X151567737Y-94780184D01*
X151440184Y-94907737D01*
X151344211Y-95060476D01*
X151284631Y-95230745D01*
X151284630Y-95230750D01*
X151264435Y-95409996D01*
X114882500Y-95409996D01*
X114882500Y-93509996D01*
X118554435Y-93509996D01*
X118554435Y-93510003D01*
X118574630Y-93689249D01*
X118574631Y-93689254D01*
X118630545Y-93849045D01*
X118634106Y-93918824D01*
X118630545Y-93930955D01*
X118574631Y-94090745D01*
X118574630Y-94090750D01*
X118554435Y-94269996D01*
X118554435Y-94270003D01*
X118574630Y-94449249D01*
X118574631Y-94449254D01*
X118634211Y-94619523D01*
X118730184Y-94772262D01*
X118857738Y-94899816D01*
X119010478Y-94995789D01*
X119180745Y-95055368D01*
X119180750Y-95055369D01*
X119359996Y-95075565D01*
X119360000Y-95075565D01*
X119360004Y-95075565D01*
X119539249Y-95055369D01*
X119539252Y-95055368D01*
X119539255Y-95055368D01*
X119709522Y-94995789D01*
X119862262Y-94899816D01*
X119989816Y-94772262D01*
X120085789Y-94619522D01*
X120145368Y-94449255D01*
X120165565Y-94270000D01*
X120145368Y-94090745D01*
X120145367Y-94090743D01*
X120145366Y-94090737D01*
X120089455Y-93930955D01*
X120085893Y-93861176D01*
X120089455Y-93849045D01*
X120145366Y-93689262D01*
X120145369Y-93689249D01*
X120165565Y-93510003D01*
X120165565Y-93509996D01*
X120145369Y-93330750D01*
X120145366Y-93330737D01*
X120100436Y-93202336D01*
X120641435Y-93202336D01*
X120641435Y-93202343D01*
X120661630Y-93381589D01*
X120661631Y-93381594D01*
X120721211Y-93551863D01*
X120761115Y-93615369D01*
X120817184Y-93704602D01*
X120944738Y-93832156D01*
X120971617Y-93849045D01*
X121085301Y-93920478D01*
X121097478Y-93928129D01*
X121267745Y-93987708D01*
X121267750Y-93987709D01*
X121446996Y-94007905D01*
X121447000Y-94007905D01*
X121447004Y-94007905D01*
X121626249Y-93987709D01*
X121626252Y-93987708D01*
X121626255Y-93987708D01*
X121796522Y-93928129D01*
X121949262Y-93832156D01*
X122076816Y-93704602D01*
X122172789Y-93551862D01*
X122232368Y-93381595D01*
X122236953Y-93340905D01*
X122252565Y-93202343D01*
X122252565Y-93202337D01*
X122244407Y-93129935D01*
X122256461Y-93061113D01*
X122303810Y-93009733D01*
X122371420Y-92992109D01*
X122437826Y-93013835D01*
X122481944Y-93068014D01*
X122484669Y-93075097D01*
X122521208Y-93179521D01*
X122535548Y-93202343D01*
X122617182Y-93332262D01*
X122744736Y-93459816D01*
X122803053Y-93496459D01*
X122891227Y-93551863D01*
X122897476Y-93555789D01*
X123067743Y-93615368D01*
X123067748Y-93615369D01*
X123246994Y-93635565D01*
X123246998Y-93635565D01*
X123247002Y-93635565D01*
X123426247Y-93615369D01*
X123426250Y-93615368D01*
X123426253Y-93615368D01*
X123596520Y-93555789D01*
X123749260Y-93459816D01*
X123876814Y-93332262D01*
X123972787Y-93179522D01*
X124032366Y-93009255D01*
X124045764Y-92890344D01*
X124052563Y-92830003D01*
X124052563Y-92829996D01*
X124039165Y-92711086D01*
X151605525Y-92711086D01*
X151605525Y-92711093D01*
X151625720Y-92890339D01*
X151625721Y-92890344D01*
X151685301Y-93060613D01*
X151760017Y-93179522D01*
X151781274Y-93213352D01*
X151908828Y-93340906D01*
X152061568Y-93436879D01*
X152231835Y-93496458D01*
X152231840Y-93496459D01*
X152411086Y-93516655D01*
X152411090Y-93516655D01*
X152411094Y-93516655D01*
X152590339Y-93496459D01*
X152590342Y-93496458D01*
X152590345Y-93496458D01*
X152760612Y-93436879D01*
X152913352Y-93340906D01*
X153040906Y-93213352D01*
X153136879Y-93060612D01*
X153196458Y-92890345D01*
X153203243Y-92830117D01*
X153230308Y-92765707D01*
X153285507Y-92726962D01*
X153364622Y-92699279D01*
X153517362Y-92603306D01*
X153644916Y-92475752D01*
X153740889Y-92323012D01*
X153800468Y-92152745D01*
X153805759Y-92105789D01*
X153820665Y-91973493D01*
X153820665Y-91973486D01*
X153814638Y-91919996D01*
X155561435Y-91919996D01*
X155561435Y-91920003D01*
X155581630Y-92099249D01*
X155581631Y-92099254D01*
X155641211Y-92269523D01*
X155699046Y-92361566D01*
X155737184Y-92422262D01*
X155864738Y-92549816D01*
X156017478Y-92645789D01*
X156170341Y-92699278D01*
X156187745Y-92705368D01*
X156187750Y-92705369D01*
X156366996Y-92725565D01*
X156367000Y-92725565D01*
X156367004Y-92725565D01*
X156546249Y-92705369D01*
X156546252Y-92705368D01*
X156546255Y-92705368D01*
X156716522Y-92645789D01*
X156869262Y-92549816D01*
X156996816Y-92422262D01*
X157092789Y-92269522D01*
X157152368Y-92099255D01*
X157152970Y-92093912D01*
X157172565Y-91920003D01*
X157172565Y-91919996D01*
X157152369Y-91740750D01*
X157152368Y-91740745D01*
X157127200Y-91668819D01*
X157092789Y-91570478D01*
X157085736Y-91559254D01*
X157041951Y-91489570D01*
X156996816Y-91417738D01*
X156869262Y-91290184D01*
X156847974Y-91276808D01*
X156716523Y-91194211D01*
X156546254Y-91134631D01*
X156546249Y-91134630D01*
X156367004Y-91114435D01*
X156366996Y-91114435D01*
X156187750Y-91134630D01*
X156187745Y-91134631D01*
X156017476Y-91194211D01*
X155864737Y-91290184D01*
X155737184Y-91417737D01*
X155641211Y-91570476D01*
X155581631Y-91740745D01*
X155581630Y-91740750D01*
X155561435Y-91919996D01*
X153814638Y-91919996D01*
X153800469Y-91794240D01*
X153800468Y-91794235D01*
X153756583Y-91668819D01*
X153740889Y-91623968D01*
X153644916Y-91471228D01*
X153517362Y-91343674D01*
X153465026Y-91310789D01*
X153364623Y-91247701D01*
X153194354Y-91188121D01*
X153194349Y-91188120D01*
X153015104Y-91167925D01*
X153015096Y-91167925D01*
X152835850Y-91188120D01*
X152835845Y-91188121D01*
X152665576Y-91247701D01*
X152512837Y-91343674D01*
X152385284Y-91471227D01*
X152289310Y-91623968D01*
X152229730Y-91794240D01*
X152222945Y-91854461D01*
X152195878Y-91918874D01*
X152140681Y-91957617D01*
X152061567Y-91985301D01*
X152061565Y-91985302D01*
X151908827Y-92081274D01*
X151781274Y-92208827D01*
X151685301Y-92361566D01*
X151625721Y-92531835D01*
X151625720Y-92531840D01*
X151605525Y-92711086D01*
X124039165Y-92711086D01*
X124032367Y-92650750D01*
X124032366Y-92650745D01*
X124015766Y-92603305D01*
X123972787Y-92480478D01*
X123970319Y-92476551D01*
X123898071Y-92361568D01*
X123876814Y-92327738D01*
X123812435Y-92263359D01*
X123778950Y-92202036D01*
X123783934Y-92132344D01*
X123812435Y-92087997D01*
X123829956Y-92070476D01*
X123908600Y-91991832D01*
X124004573Y-91839092D01*
X124064152Y-91668825D01*
X124066418Y-91648715D01*
X124084349Y-91489573D01*
X124084349Y-91489566D01*
X124064153Y-91310320D01*
X124064152Y-91310315D01*
X124004572Y-91140045D01*
X123905877Y-90982975D01*
X123886876Y-90915738D01*
X123907243Y-90848903D01*
X123923184Y-90829325D01*
X124012719Y-90739791D01*
X124095947Y-90615232D01*
X124153275Y-90476830D01*
X124182500Y-90329903D01*
X124182500Y-90180097D01*
X124153275Y-90033170D01*
X124110539Y-89929996D01*
X132194435Y-89929996D01*
X132194435Y-89930003D01*
X132214630Y-90109249D01*
X132214631Y-90109254D01*
X132274211Y-90279523D01*
X132327884Y-90364942D01*
X132346884Y-90432178D01*
X132327885Y-90496884D01*
X132294209Y-90550480D01*
X132234633Y-90720737D01*
X132234630Y-90720750D01*
X132214435Y-90899996D01*
X132214435Y-90900003D01*
X132234630Y-91079249D01*
X132234631Y-91079254D01*
X132294211Y-91249523D01*
X132357045Y-91349522D01*
X132390184Y-91402262D01*
X132517738Y-91529816D01*
X132564590Y-91559255D01*
X132667576Y-91623966D01*
X132670478Y-91625789D01*
X132735997Y-91648715D01*
X132840745Y-91685368D01*
X132840750Y-91685369D01*
X133019996Y-91705565D01*
X133020000Y-91705565D01*
X133020004Y-91705565D01*
X133199249Y-91685369D01*
X133199252Y-91685368D01*
X133199255Y-91685368D01*
X133369522Y-91625789D01*
X133522262Y-91529816D01*
X133582621Y-91469457D01*
X143404435Y-91469457D01*
X143404435Y-91469464D01*
X143424630Y-91648710D01*
X143424631Y-91648715D01*
X143484211Y-91818984D01*
X143506503Y-91854461D01*
X143580184Y-91971723D01*
X143707738Y-92099277D01*
X143860478Y-92195250D01*
X143899279Y-92208827D01*
X144030745Y-92254829D01*
X144030750Y-92254830D01*
X144209996Y-92275026D01*
X144210000Y-92275026D01*
X144210004Y-92275026D01*
X144389249Y-92254830D01*
X144389252Y-92254829D01*
X144389255Y-92254829D01*
X144559522Y-92195250D01*
X144712262Y-92099277D01*
X144839816Y-91971723D01*
X144935789Y-91818983D01*
X144995368Y-91648716D01*
X144996955Y-91634632D01*
X145015565Y-91469464D01*
X145015565Y-91469457D01*
X144995369Y-91290211D01*
X144995368Y-91290206D01*
X144975434Y-91233237D01*
X144935789Y-91119939D01*
X144915255Y-91087260D01*
X144879576Y-91030476D01*
X144860424Y-90999996D01*
X145814435Y-90999996D01*
X145814435Y-91000003D01*
X145834630Y-91179249D01*
X145834631Y-91179254D01*
X145894211Y-91349523D01*
X145970683Y-91471227D01*
X145990184Y-91502262D01*
X146117738Y-91629816D01*
X146270478Y-91725789D01*
X146323631Y-91744388D01*
X146440745Y-91785368D01*
X146440750Y-91785369D01*
X146619996Y-91805565D01*
X146620000Y-91805565D01*
X146620004Y-91805565D01*
X146799249Y-91785369D01*
X146799252Y-91785368D01*
X146799255Y-91785368D01*
X146969522Y-91725789D01*
X147122262Y-91629816D01*
X147249816Y-91502262D01*
X147345789Y-91349522D01*
X147371232Y-91276807D01*
X147411953Y-91220031D01*
X147476905Y-91194283D01*
X147502158Y-91194541D01*
X147599997Y-91205565D01*
X147600000Y-91205565D01*
X147600004Y-91205565D01*
X147779249Y-91185369D01*
X147779252Y-91185368D01*
X147779255Y-91185368D01*
X147949522Y-91125789D01*
X148102262Y-91029816D01*
X148221890Y-90910187D01*
X148283209Y-90876705D01*
X148352901Y-90881689D01*
X148408835Y-90923560D01*
X148414561Y-90931898D01*
X148512182Y-91087260D01*
X148512184Y-91087262D01*
X148639738Y-91214816D01*
X148682519Y-91241697D01*
X148791731Y-91310320D01*
X148792478Y-91310789D01*
X148956323Y-91368121D01*
X148962745Y-91370368D01*
X148962750Y-91370369D01*
X149141996Y-91390565D01*
X149142000Y-91390565D01*
X149142004Y-91390565D01*
X149321249Y-91370369D01*
X149321252Y-91370368D01*
X149321255Y-91370368D01*
X149491522Y-91310789D01*
X149491524Y-91310788D01*
X149584705Y-91252238D01*
X149651942Y-91233237D01*
X149691633Y-91240190D01*
X149820737Y-91285366D01*
X149820743Y-91285367D01*
X149820745Y-91285368D01*
X149820746Y-91285368D01*
X149820750Y-91285369D01*
X149999996Y-91305565D01*
X150000000Y-91305565D01*
X150000004Y-91305565D01*
X150179249Y-91285369D01*
X150179252Y-91285368D01*
X150179255Y-91285368D01*
X150349522Y-91225789D01*
X150502262Y-91129816D01*
X150629816Y-91002262D01*
X150725789Y-90849522D01*
X150785368Y-90679255D01*
X150788190Y-90654211D01*
X150805565Y-90500003D01*
X150805565Y-90499996D01*
X150785369Y-90320750D01*
X150785368Y-90320745D01*
X150725789Y-90150478D01*
X150629816Y-89997738D01*
X150502262Y-89870184D01*
X150461880Y-89844810D01*
X150349523Y-89774211D01*
X150179254Y-89714631D01*
X150179249Y-89714630D01*
X150000004Y-89694435D01*
X149999996Y-89694435D01*
X149820750Y-89714630D01*
X149820737Y-89714633D01*
X149650478Y-89774209D01*
X149557292Y-89832762D01*
X149490055Y-89851762D01*
X149450366Y-89844810D01*
X149321254Y-89799631D01*
X149321249Y-89799630D01*
X149142004Y-89779435D01*
X149141996Y-89779435D01*
X148962750Y-89799630D01*
X148962745Y-89799631D01*
X148792476Y-89859211D01*
X148639739Y-89955183D01*
X148537910Y-90057012D01*
X148476587Y-90090496D01*
X148406895Y-90085512D01*
X148350962Y-90043640D01*
X148326545Y-89978175D01*
X148333187Y-89928378D01*
X148378238Y-89799631D01*
X148385367Y-89779259D01*
X148385369Y-89779249D01*
X148405565Y-89600003D01*
X148405565Y-89599996D01*
X148385369Y-89420750D01*
X148385368Y-89420745D01*
X148325788Y-89250476D01*
X148246591Y-89124435D01*
X148229816Y-89097738D01*
X148102262Y-88970184D01*
X148078684Y-88955369D01*
X147949523Y-88874211D01*
X147779254Y-88814631D01*
X147779249Y-88814630D01*
X147600004Y-88794435D01*
X147599996Y-88794435D01*
X147420750Y-88814630D01*
X147420745Y-88814631D01*
X147250476Y-88874211D01*
X147097737Y-88970184D01*
X146970184Y-89097737D01*
X146874211Y-89250476D01*
X146814631Y-89420745D01*
X146814630Y-89420750D01*
X146794435Y-89599996D01*
X146794435Y-89600003D01*
X146814630Y-89779249D01*
X146814633Y-89779262D01*
X146876510Y-89956094D01*
X146874366Y-89956843D01*
X146883959Y-90015161D01*
X146875612Y-90043592D01*
X146876510Y-90043906D01*
X146848765Y-90123194D01*
X146808043Y-90179969D01*
X146743090Y-90205716D01*
X146717841Y-90205458D01*
X146620004Y-90194435D01*
X146619996Y-90194435D01*
X146440750Y-90214630D01*
X146440745Y-90214631D01*
X146270476Y-90274211D01*
X146117737Y-90370184D01*
X145990184Y-90497737D01*
X145894211Y-90650476D01*
X145834631Y-90820745D01*
X145834630Y-90820750D01*
X145814435Y-90999996D01*
X144860424Y-90999996D01*
X144839816Y-90967199D01*
X144712262Y-90839645D01*
X144592280Y-90764255D01*
X144559523Y-90743672D01*
X144389254Y-90684092D01*
X144389249Y-90684091D01*
X144210004Y-90663896D01*
X144209996Y-90663896D01*
X144030750Y-90684091D01*
X144030745Y-90684092D01*
X143860476Y-90743672D01*
X143707737Y-90839645D01*
X143580184Y-90967198D01*
X143484211Y-91119937D01*
X143424631Y-91290206D01*
X143424630Y-91290211D01*
X143404435Y-91469457D01*
X133582621Y-91469457D01*
X133649816Y-91402262D01*
X133745789Y-91249522D01*
X133805368Y-91079255D01*
X133810864Y-91030476D01*
X133825565Y-90900003D01*
X133825565Y-90899996D01*
X133805369Y-90720750D01*
X133805368Y-90720745D01*
X133745788Y-90550475D01*
X133692116Y-90465058D01*
X133673115Y-90397821D01*
X133692116Y-90333112D01*
X133725788Y-90279524D01*
X133739785Y-90239523D01*
X133785368Y-90109255D01*
X133789876Y-90069249D01*
X133805565Y-89930003D01*
X133805565Y-89929996D01*
X133785369Y-89750750D01*
X133785368Y-89750745D01*
X133772732Y-89714633D01*
X133725789Y-89580478D01*
X133629816Y-89427738D01*
X133562074Y-89359996D01*
X136814435Y-89359996D01*
X136814435Y-89360003D01*
X136834630Y-89539249D01*
X136834631Y-89539254D01*
X136894211Y-89709523D01*
X136950830Y-89799631D01*
X136990184Y-89862262D01*
X137117738Y-89989816D01*
X137186747Y-90033177D01*
X137244162Y-90069254D01*
X137270478Y-90085789D01*
X137440745Y-90145368D01*
X137440750Y-90145369D01*
X137619996Y-90165565D01*
X137620000Y-90165565D01*
X137620004Y-90165565D01*
X137799249Y-90145369D01*
X137799252Y-90145368D01*
X137799255Y-90145368D01*
X137969522Y-90085789D01*
X138122262Y-89989816D01*
X138249816Y-89862262D01*
X138345789Y-89709522D01*
X138405368Y-89539255D01*
X138405369Y-89539249D01*
X138425565Y-89360003D01*
X138425565Y-89359996D01*
X138405369Y-89180750D01*
X138405368Y-89180745D01*
X138345789Y-89010478D01*
X138249816Y-88857738D01*
X138122262Y-88730184D01*
X138058897Y-88690369D01*
X137969523Y-88634211D01*
X137799254Y-88574631D01*
X137799249Y-88574630D01*
X137620004Y-88554435D01*
X137619996Y-88554435D01*
X137440750Y-88574630D01*
X137440745Y-88574631D01*
X137270476Y-88634211D01*
X137117737Y-88730184D01*
X136990184Y-88857737D01*
X136894211Y-89010476D01*
X136834631Y-89180745D01*
X136834630Y-89180750D01*
X136814435Y-89359996D01*
X133562074Y-89359996D01*
X133502262Y-89300184D01*
X133349523Y-89204211D01*
X133179254Y-89144631D01*
X133179249Y-89144630D01*
X133000004Y-89124435D01*
X132999996Y-89124435D01*
X132820750Y-89144630D01*
X132820745Y-89144631D01*
X132650476Y-89204211D01*
X132497737Y-89300184D01*
X132370184Y-89427737D01*
X132274211Y-89580476D01*
X132214631Y-89750745D01*
X132214630Y-89750750D01*
X132194435Y-89929996D01*
X124110539Y-89929996D01*
X124095947Y-89894768D01*
X124095946Y-89894767D01*
X124095943Y-89894761D01*
X124012719Y-89770209D01*
X124012716Y-89770205D01*
X123906794Y-89664283D01*
X123906790Y-89664280D01*
X123782238Y-89581056D01*
X123782229Y-89581051D01*
X123643830Y-89523725D01*
X123643822Y-89523723D01*
X123496907Y-89494500D01*
X123496903Y-89494500D01*
X123347097Y-89494500D01*
X123347092Y-89494500D01*
X123200177Y-89523723D01*
X123200169Y-89523725D01*
X123061770Y-89581051D01*
X123061761Y-89581056D01*
X122937209Y-89664280D01*
X122937205Y-89664283D01*
X122831283Y-89770205D01*
X122831280Y-89770209D01*
X122748056Y-89894761D01*
X122748051Y-89894770D01*
X122690725Y-90033169D01*
X122690723Y-90033177D01*
X122661500Y-90180092D01*
X122661500Y-90329907D01*
X122690723Y-90476822D01*
X122690725Y-90476830D01*
X122748051Y-90615229D01*
X122748056Y-90615238D01*
X122801212Y-90694791D01*
X122822090Y-90761469D01*
X122803605Y-90828849D01*
X122780982Y-90854366D01*
X122781446Y-90854830D01*
X122648968Y-90987307D01*
X122552996Y-91140045D01*
X122552995Y-91140046D01*
X122517425Y-91241697D01*
X122476702Y-91298473D01*
X122441339Y-91317782D01*
X122297479Y-91368121D01*
X122144736Y-91464096D01*
X122017183Y-91591649D01*
X121921210Y-91744388D01*
X121861630Y-91914657D01*
X121861629Y-91914662D01*
X121841434Y-92093908D01*
X121841434Y-92093915D01*
X121861629Y-92273161D01*
X121861631Y-92273169D01*
X121866768Y-92287849D01*
X121870329Y-92357628D01*
X121835600Y-92418255D01*
X121773607Y-92450482D01*
X121708772Y-92445845D01*
X121626257Y-92416972D01*
X121626249Y-92416970D01*
X121447004Y-92396775D01*
X121446996Y-92396775D01*
X121267750Y-92416970D01*
X121267745Y-92416971D01*
X121097476Y-92476551D01*
X120944737Y-92572524D01*
X120817184Y-92700077D01*
X120721211Y-92852816D01*
X120661631Y-93023085D01*
X120661630Y-93023090D01*
X120641435Y-93202336D01*
X120100436Y-93202336D01*
X120096885Y-93192188D01*
X120093323Y-93122409D01*
X120128051Y-93061782D01*
X120137200Y-93054641D01*
X120136816Y-93054159D01*
X120142256Y-93049819D01*
X120142262Y-93049816D01*
X120269816Y-92922262D01*
X120365789Y-92769522D01*
X120425368Y-92599255D01*
X120428380Y-92572524D01*
X120445565Y-92420003D01*
X120445565Y-92419997D01*
X120435170Y-92327738D01*
X120431830Y-92298098D01*
X120443884Y-92229277D01*
X120491233Y-92177897D01*
X120514096Y-92167173D01*
X120519254Y-92165368D01*
X120519255Y-92165368D01*
X120689522Y-92105789D01*
X120842262Y-92009816D01*
X120969816Y-91882262D01*
X121065789Y-91729522D01*
X121125368Y-91559255D01*
X121131830Y-91501902D01*
X121145565Y-91380003D01*
X121145565Y-91379996D01*
X121125369Y-91200750D01*
X121125368Y-91200745D01*
X121104129Y-91140048D01*
X121065789Y-91030478D01*
X121046638Y-91000000D01*
X121026028Y-90967199D01*
X120969816Y-90877738D01*
X120842262Y-90750184D01*
X120825722Y-90739791D01*
X120689523Y-90654211D01*
X120519254Y-90594631D01*
X120519249Y-90594630D01*
X120340004Y-90574435D01*
X120339996Y-90574435D01*
X120160750Y-90594630D01*
X120160745Y-90594631D01*
X119990476Y-90654211D01*
X119837737Y-90750184D01*
X119710184Y-90877737D01*
X119614211Y-91030476D01*
X119554631Y-91200745D01*
X119554630Y-91200750D01*
X119534435Y-91379996D01*
X119534435Y-91380003D01*
X119548169Y-91501902D01*
X119536114Y-91570724D01*
X119488765Y-91622103D01*
X119465903Y-91632827D01*
X119290478Y-91694210D01*
X119137737Y-91790184D01*
X119010184Y-91917737D01*
X118914211Y-92070476D01*
X118854631Y-92240745D01*
X118854630Y-92240750D01*
X118834435Y-92419996D01*
X118834435Y-92420003D01*
X118854630Y-92599249D01*
X118854632Y-92599257D01*
X118903115Y-92737813D01*
X118906676Y-92807591D01*
X118871947Y-92868219D01*
X118862809Y-92875375D01*
X118863182Y-92875843D01*
X118857735Y-92880186D01*
X118730184Y-93007737D01*
X118634211Y-93160476D01*
X118574631Y-93330745D01*
X118574630Y-93330750D01*
X118554435Y-93509996D01*
X114882500Y-93509996D01*
X114882500Y-89889996D01*
X116804435Y-89889996D01*
X116804435Y-89890003D01*
X116824630Y-90069249D01*
X116824631Y-90069254D01*
X116884211Y-90239523D01*
X116963018Y-90364942D01*
X116980184Y-90392262D01*
X117107738Y-90519816D01*
X117194664Y-90574435D01*
X117259591Y-90615232D01*
X117260478Y-90615789D01*
X117370282Y-90654211D01*
X117430745Y-90675368D01*
X117430750Y-90675369D01*
X117609996Y-90695565D01*
X117610000Y-90695565D01*
X117610004Y-90695565D01*
X117789249Y-90675369D01*
X117789252Y-90675368D01*
X117789255Y-90675368D01*
X117959522Y-90615789D01*
X118112262Y-90519816D01*
X118239816Y-90392262D01*
X118335789Y-90239522D01*
X118395368Y-90069255D01*
X118395369Y-90069249D01*
X118415565Y-89890003D01*
X118415565Y-89889996D01*
X118395369Y-89710750D01*
X118395368Y-89710745D01*
X118379110Y-89664283D01*
X118335789Y-89540478D01*
X118330449Y-89531980D01*
X118296582Y-89478080D01*
X118239816Y-89387738D01*
X118112262Y-89260184D01*
X117985844Y-89180750D01*
X117959523Y-89164211D01*
X117789254Y-89104631D01*
X117789249Y-89104630D01*
X117610004Y-89084435D01*
X117609996Y-89084435D01*
X117430750Y-89104630D01*
X117430745Y-89104631D01*
X117260476Y-89164211D01*
X117107737Y-89260184D01*
X116980184Y-89387737D01*
X116884211Y-89540476D01*
X116824631Y-89710745D01*
X116824630Y-89710750D01*
X116804435Y-89889996D01*
X114882500Y-89889996D01*
X114882500Y-88649999D01*
X120776785Y-88649999D01*
X120776785Y-88650000D01*
X120795602Y-88853082D01*
X120851417Y-89049247D01*
X120851422Y-89049260D01*
X120942327Y-89231821D01*
X121065237Y-89394581D01*
X121215958Y-89531980D01*
X121215960Y-89531982D01*
X121229682Y-89540478D01*
X121389363Y-89639348D01*
X121579544Y-89713024D01*
X121780024Y-89750500D01*
X121780026Y-89750500D01*
X121983974Y-89750500D01*
X121983976Y-89750500D01*
X122184456Y-89713024D01*
X122374637Y-89639348D01*
X122548041Y-89531981D01*
X122698764Y-89394579D01*
X122821673Y-89231821D01*
X122912582Y-89049250D01*
X122968397Y-88853083D01*
X122987215Y-88650000D01*
X122968397Y-88446917D01*
X122912582Y-88250750D01*
X122872372Y-88169996D01*
X129304435Y-88169996D01*
X129304435Y-88170003D01*
X129324630Y-88349249D01*
X129324631Y-88349254D01*
X129384211Y-88519523D01*
X129418838Y-88574631D01*
X129480184Y-88672262D01*
X129607738Y-88799816D01*
X129760478Y-88895789D01*
X129930745Y-88955368D01*
X129930750Y-88955369D01*
X130109996Y-88975565D01*
X130110000Y-88975565D01*
X130110004Y-88975565D01*
X130289249Y-88955369D01*
X130289252Y-88955368D01*
X130289255Y-88955368D01*
X130459522Y-88895789D01*
X130612262Y-88799816D01*
X130739816Y-88672262D01*
X130835789Y-88519522D01*
X130895368Y-88349255D01*
X130915565Y-88170000D01*
X130913916Y-88155369D01*
X130895369Y-87990750D01*
X130895368Y-87990745D01*
X130865511Y-87905418D01*
X130835789Y-87820478D01*
X130739816Y-87667738D01*
X130612262Y-87540184D01*
X130459523Y-87444211D01*
X130289254Y-87384631D01*
X130289249Y-87384630D01*
X130159362Y-87369996D01*
X132124435Y-87369996D01*
X132124435Y-87370003D01*
X132144630Y-87549249D01*
X132144631Y-87549254D01*
X132204211Y-87719523D01*
X132267646Y-87820478D01*
X132300184Y-87872262D01*
X132427738Y-87999816D01*
X132518080Y-88056582D01*
X132562121Y-88084255D01*
X132580478Y-88095789D01*
X132750745Y-88155368D01*
X132750750Y-88155369D01*
X132929996Y-88175565D01*
X132930000Y-88175565D01*
X132930004Y-88175565D01*
X133109249Y-88155369D01*
X133109252Y-88155368D01*
X133109255Y-88155368D01*
X133279522Y-88095789D01*
X133432262Y-87999816D01*
X133559816Y-87872262D01*
X133655789Y-87719522D01*
X133715368Y-87549255D01*
X133727204Y-87444211D01*
X133735565Y-87370003D01*
X133735565Y-87369996D01*
X133715369Y-87190750D01*
X133715368Y-87190745D01*
X133689139Y-87115788D01*
X133655789Y-87020478D01*
X133655372Y-87019815D01*
X133584110Y-86906402D01*
X133559816Y-86867738D01*
X133432262Y-86740184D01*
X133400784Y-86720405D01*
X133279523Y-86644211D01*
X133109254Y-86584631D01*
X133109249Y-86584630D01*
X132930004Y-86564435D01*
X132929996Y-86564435D01*
X132750750Y-86584630D01*
X132750745Y-86584631D01*
X132580476Y-86644211D01*
X132427737Y-86740184D01*
X132300184Y-86867737D01*
X132204211Y-87020476D01*
X132144631Y-87190745D01*
X132144630Y-87190750D01*
X132124435Y-87369996D01*
X130159362Y-87369996D01*
X130110004Y-87364435D01*
X130109996Y-87364435D01*
X129930750Y-87384630D01*
X129930745Y-87384631D01*
X129760476Y-87444211D01*
X129607737Y-87540184D01*
X129480184Y-87667737D01*
X129384211Y-87820476D01*
X129324631Y-87990745D01*
X129324630Y-87990750D01*
X129304435Y-88169996D01*
X122872372Y-88169996D01*
X122821673Y-88068179D01*
X122698764Y-87905421D01*
X122698762Y-87905418D01*
X122548041Y-87768019D01*
X122548039Y-87768017D01*
X122374642Y-87660655D01*
X122374635Y-87660651D01*
X122279546Y-87623814D01*
X122184456Y-87586976D01*
X121983976Y-87549500D01*
X121780024Y-87549500D01*
X121579544Y-87586976D01*
X121579541Y-87586976D01*
X121579541Y-87586977D01*
X121389364Y-87660651D01*
X121389357Y-87660655D01*
X121215960Y-87768017D01*
X121215958Y-87768019D01*
X121065237Y-87905418D01*
X120942327Y-88068178D01*
X120851422Y-88250739D01*
X120851417Y-88250752D01*
X120795602Y-88446917D01*
X120776785Y-88649999D01*
X114882500Y-88649999D01*
X114882500Y-86389996D01*
X121904435Y-86389996D01*
X121904435Y-86390003D01*
X121924630Y-86569249D01*
X121924631Y-86569254D01*
X121984211Y-86739523D01*
X122080184Y-86892262D01*
X122207738Y-87019816D01*
X122360478Y-87115789D01*
X122393475Y-87127335D01*
X122530745Y-87175368D01*
X122530750Y-87175369D01*
X122709996Y-87195565D01*
X122710000Y-87195565D01*
X122710004Y-87195565D01*
X122889249Y-87175369D01*
X122889252Y-87175368D01*
X122889255Y-87175368D01*
X123059522Y-87115789D01*
X123212262Y-87019816D01*
X123339816Y-86892262D01*
X123435789Y-86739522D01*
X123495368Y-86569255D01*
X123515565Y-86390000D01*
X123504917Y-86295499D01*
X123495369Y-86210750D01*
X123495368Y-86210745D01*
X123475003Y-86152546D01*
X123435789Y-86040478D01*
X123409794Y-85999108D01*
X123378115Y-85948690D01*
X123339816Y-85887738D01*
X123212262Y-85760184D01*
X123189720Y-85746020D01*
X123059523Y-85664211D01*
X122889254Y-85604631D01*
X122889249Y-85604630D01*
X122710004Y-85584435D01*
X122709996Y-85584435D01*
X122530750Y-85604630D01*
X122530745Y-85604631D01*
X122360476Y-85664211D01*
X122207737Y-85760184D01*
X122080184Y-85887737D01*
X121984211Y-86040476D01*
X121924631Y-86210745D01*
X121924630Y-86210750D01*
X121904435Y-86389996D01*
X114882500Y-86389996D01*
X114882500Y-85858814D01*
X114902185Y-85791775D01*
X114954989Y-85746020D01*
X115024147Y-85736076D01*
X115087703Y-85765101D01*
X115125477Y-85823879D01*
X115129790Y-85845561D01*
X115135908Y-85902483D01*
X115186202Y-86037328D01*
X115186206Y-86037335D01*
X115272452Y-86152544D01*
X115272455Y-86152547D01*
X115387664Y-86238793D01*
X115387671Y-86238797D01*
X115522517Y-86289091D01*
X115522516Y-86289091D01*
X115529444Y-86289835D01*
X115582127Y-86295500D01*
X117377872Y-86295499D01*
X117437483Y-86289091D01*
X117572331Y-86238796D01*
X117687546Y-86152546D01*
X117773796Y-86037331D01*
X117824091Y-85902483D01*
X117830500Y-85842873D01*
X117830499Y-84709996D01*
X122814435Y-84709996D01*
X122814435Y-84710003D01*
X122834630Y-84889249D01*
X122834631Y-84889254D01*
X122894211Y-85059523D01*
X122959810Y-85163922D01*
X122990184Y-85212262D01*
X123117738Y-85339816D01*
X123270478Y-85435789D01*
X123380405Y-85474254D01*
X123440745Y-85495368D01*
X123440750Y-85495369D01*
X123619996Y-85515565D01*
X123620000Y-85515565D01*
X123620004Y-85515565D01*
X123799249Y-85495369D01*
X123799252Y-85495368D01*
X123799255Y-85495368D01*
X123969522Y-85435789D01*
X124122262Y-85339816D01*
X124249816Y-85212262D01*
X124345789Y-85059522D01*
X124405368Y-84889255D01*
X124407889Y-84866879D01*
X124425565Y-84710003D01*
X124425565Y-84709996D01*
X124405369Y-84530750D01*
X124405368Y-84530745D01*
X124347862Y-84366402D01*
X124345789Y-84360478D01*
X124345372Y-84359815D01*
X124249815Y-84207737D01*
X124122262Y-84080184D01*
X123969523Y-83984211D01*
X123799254Y-83924631D01*
X123799249Y-83924630D01*
X123620004Y-83904435D01*
X123619996Y-83904435D01*
X123440750Y-83924630D01*
X123440745Y-83924631D01*
X123270476Y-83984211D01*
X123117737Y-84080184D01*
X122990184Y-84207737D01*
X122894211Y-84360476D01*
X122834631Y-84530745D01*
X122834630Y-84530750D01*
X122814435Y-84709996D01*
X117830499Y-84709996D01*
X117830499Y-84047128D01*
X117824091Y-83987517D01*
X117823289Y-83985368D01*
X117773797Y-83852671D01*
X117773793Y-83852664D01*
X117687547Y-83737455D01*
X117687544Y-83737452D01*
X117572335Y-83651206D01*
X117572328Y-83651202D01*
X117440917Y-83602189D01*
X117384983Y-83560318D01*
X117360566Y-83494853D01*
X117375418Y-83426580D01*
X117396563Y-83398332D01*
X117518495Y-83276401D01*
X117654035Y-83082830D01*
X117753903Y-82868663D01*
X117815063Y-82640408D01*
X117835659Y-82405000D01*
X117832922Y-82373711D01*
X119531500Y-82373711D01*
X119531500Y-82616288D01*
X119563161Y-82856785D01*
X119625947Y-83091104D01*
X119702698Y-83276396D01*
X119718776Y-83315212D01*
X119840064Y-83525289D01*
X119840066Y-83525292D01*
X119840067Y-83525293D01*
X119987733Y-83717736D01*
X119987739Y-83717743D01*
X120159256Y-83889260D01*
X120159263Y-83889266D01*
X120205352Y-83924631D01*
X120351711Y-84036936D01*
X120561788Y-84158224D01*
X120785900Y-84251054D01*
X121020211Y-84313838D01*
X121200586Y-84337584D01*
X121260711Y-84345500D01*
X121260712Y-84345500D01*
X121503289Y-84345500D01*
X121551388Y-84339167D01*
X121743789Y-84313838D01*
X121978100Y-84251054D01*
X122202212Y-84158224D01*
X122412289Y-84036936D01*
X122604738Y-83889265D01*
X122764007Y-83729996D01*
X132304435Y-83729996D01*
X132304435Y-83730003D01*
X132324630Y-83909249D01*
X132324631Y-83909254D01*
X132384211Y-84079523D01*
X132480184Y-84232262D01*
X132607738Y-84359816D01*
X132760478Y-84455789D01*
X132914355Y-84509633D01*
X132930745Y-84515368D01*
X132930750Y-84515369D01*
X133109996Y-84535565D01*
X133110000Y-84535565D01*
X133110004Y-84535565D01*
X133289249Y-84515369D01*
X133289252Y-84515368D01*
X133289255Y-84515368D01*
X133459522Y-84455789D01*
X133612262Y-84359816D01*
X133739816Y-84232262D01*
X133835789Y-84079522D01*
X133895368Y-83909255D01*
X133895911Y-83904435D01*
X133915565Y-83730003D01*
X133915565Y-83729996D01*
X133895369Y-83550750D01*
X133895368Y-83550745D01*
X133875862Y-83494999D01*
X152286341Y-83494999D01*
X152286341Y-83495000D01*
X152306936Y-83730403D01*
X152306938Y-83730413D01*
X152368094Y-83958655D01*
X152368096Y-83958659D01*
X152368097Y-83958663D01*
X152441315Y-84115679D01*
X152467965Y-84172830D01*
X152467967Y-84172834D01*
X152522738Y-84251054D01*
X152603501Y-84366396D01*
X152603506Y-84366402D01*
X152725430Y-84488326D01*
X152758915Y-84549649D01*
X152753931Y-84619341D01*
X152712059Y-84675274D01*
X152681083Y-84692189D01*
X152549669Y-84741203D01*
X152549664Y-84741206D01*
X152434455Y-84827452D01*
X152434452Y-84827455D01*
X152348206Y-84942664D01*
X152348202Y-84942671D01*
X152297908Y-85077517D01*
X152291501Y-85137116D01*
X152291500Y-85137135D01*
X152291500Y-86932870D01*
X152291501Y-86932876D01*
X152297908Y-86992483D01*
X152348202Y-87127328D01*
X152348206Y-87127335D01*
X152434452Y-87242544D01*
X152434455Y-87242547D01*
X152549664Y-87328793D01*
X152549671Y-87328797D01*
X152684517Y-87379091D01*
X152684516Y-87379091D01*
X152691444Y-87379835D01*
X152744127Y-87385500D01*
X154539872Y-87385499D01*
X154599483Y-87379091D01*
X154734331Y-87328796D01*
X154849546Y-87242546D01*
X154935796Y-87127331D01*
X154984810Y-86995916D01*
X155026681Y-86939984D01*
X155092145Y-86915566D01*
X155160418Y-86930417D01*
X155188673Y-86951569D01*
X155310599Y-87073495D01*
X155371000Y-87115788D01*
X155504159Y-87209028D01*
X155504164Y-87209031D01*
X155504170Y-87209035D01*
X155504175Y-87209037D01*
X155504766Y-87209378D01*
X155504980Y-87209602D01*
X155508604Y-87212140D01*
X155508094Y-87212867D01*
X155552990Y-87259938D01*
X155566223Y-87328543D01*
X155540266Y-87393411D01*
X155533896Y-87400589D01*
X155532186Y-87402734D01*
X155436211Y-87555476D01*
X155376631Y-87725745D01*
X155376630Y-87725750D01*
X155356435Y-87904996D01*
X155356435Y-87905003D01*
X155376630Y-88084249D01*
X155376631Y-88084254D01*
X155436211Y-88254523D01*
X155495732Y-88349249D01*
X155532184Y-88407262D01*
X155659738Y-88534816D01*
X155812478Y-88630789D01*
X155867380Y-88650000D01*
X155982745Y-88690368D01*
X155982750Y-88690369D01*
X156161996Y-88710565D01*
X156162000Y-88710565D01*
X156162004Y-88710565D01*
X156341249Y-88690369D01*
X156341252Y-88690368D01*
X156341255Y-88690368D01*
X156511522Y-88630789D01*
X156664262Y-88534816D01*
X156791816Y-88407262D01*
X156887789Y-88254522D01*
X156947368Y-88084255D01*
X156947369Y-88084249D01*
X156967565Y-87905003D01*
X156967565Y-87904996D01*
X156947369Y-87725750D01*
X156947368Y-87725745D01*
X156898811Y-87586977D01*
X156887789Y-87555478D01*
X156791816Y-87402738D01*
X156791815Y-87402737D01*
X156788111Y-87396842D01*
X156790704Y-87395212D01*
X156769435Y-87343065D01*
X156782215Y-87274374D01*
X156830103Y-87223497D01*
X156840382Y-87218103D01*
X156859830Y-87209035D01*
X157053401Y-87073495D01*
X157220495Y-86906401D01*
X157350730Y-86720405D01*
X157405307Y-86676781D01*
X157474805Y-86669587D01*
X157537160Y-86701110D01*
X157553879Y-86720405D01*
X157683890Y-86906078D01*
X157850917Y-87073105D01*
X158044421Y-87208600D01*
X158258507Y-87308429D01*
X158258516Y-87308433D01*
X158472000Y-87365634D01*
X158472000Y-86468012D01*
X158529007Y-86500925D01*
X158656174Y-86535000D01*
X158787826Y-86535000D01*
X158914993Y-86500925D01*
X158972000Y-86468012D01*
X158972000Y-87365633D01*
X159185483Y-87308433D01*
X159185492Y-87308429D01*
X159399578Y-87208600D01*
X159593082Y-87073105D01*
X159760105Y-86906082D01*
X159895600Y-86712578D01*
X159995429Y-86498492D01*
X159995432Y-86498486D01*
X160052636Y-86285000D01*
X159155012Y-86285000D01*
X159187925Y-86227993D01*
X159222000Y-86100826D01*
X159222000Y-85969174D01*
X159187925Y-85842007D01*
X159155012Y-85785000D01*
X160052636Y-85785000D01*
X160052635Y-85784999D01*
X159995432Y-85571513D01*
X159995429Y-85571507D01*
X159895600Y-85357422D01*
X159895599Y-85357420D01*
X159760113Y-85163926D01*
X159760108Y-85163920D01*
X159593078Y-84996890D01*
X159407405Y-84866879D01*
X159363780Y-84812302D01*
X159356588Y-84742804D01*
X159388110Y-84680449D01*
X159407406Y-84663730D01*
X159407842Y-84663425D01*
X159593401Y-84533495D01*
X159760495Y-84366401D01*
X159896035Y-84172830D01*
X159995903Y-83958663D01*
X160057063Y-83730408D01*
X160077659Y-83495000D01*
X160057063Y-83259592D01*
X160041094Y-83199996D01*
X160394435Y-83199996D01*
X160394435Y-83200003D01*
X160414630Y-83379249D01*
X160414631Y-83379254D01*
X160474211Y-83549523D01*
X160538101Y-83651202D01*
X160570184Y-83702262D01*
X160697738Y-83829816D01*
X160788080Y-83886582D01*
X160848636Y-83924632D01*
X160850478Y-83925789D01*
X161020745Y-83985368D01*
X161020750Y-83985369D01*
X161199996Y-84005565D01*
X161200000Y-84005565D01*
X161200004Y-84005565D01*
X161379249Y-83985369D01*
X161379252Y-83985368D01*
X161379255Y-83985368D01*
X161549522Y-83925789D01*
X161702262Y-83829816D01*
X161829816Y-83702262D01*
X161925789Y-83549522D01*
X161985368Y-83379255D01*
X161996957Y-83276401D01*
X162005565Y-83200003D01*
X162005565Y-83199996D01*
X161985369Y-83020750D01*
X161985368Y-83020745D01*
X161925789Y-82850478D01*
X161911950Y-82828454D01*
X161829815Y-82697737D01*
X161702262Y-82570184D01*
X161549523Y-82474211D01*
X161379254Y-82414631D01*
X161379249Y-82414630D01*
X161200004Y-82394435D01*
X161199996Y-82394435D01*
X161020750Y-82414630D01*
X161020745Y-82414631D01*
X160850476Y-82474211D01*
X160697737Y-82570184D01*
X160570184Y-82697737D01*
X160474211Y-82850476D01*
X160414631Y-83020745D01*
X160414630Y-83020750D01*
X160394435Y-83199996D01*
X160041094Y-83199996D01*
X159995903Y-83031337D01*
X159896035Y-82817171D01*
X159890425Y-82809158D01*
X159760494Y-82623597D01*
X159593402Y-82456506D01*
X159593395Y-82456501D01*
X159399834Y-82320967D01*
X159399830Y-82320965D01*
X159399828Y-82320964D01*
X159185663Y-82221097D01*
X159185659Y-82221096D01*
X159185655Y-82221094D01*
X158957413Y-82159938D01*
X158957403Y-82159936D01*
X158722001Y-82139341D01*
X158721999Y-82139341D01*
X158486596Y-82159936D01*
X158486586Y-82159938D01*
X158258344Y-82221094D01*
X158258335Y-82221098D01*
X158044171Y-82320964D01*
X158044169Y-82320965D01*
X157850597Y-82456505D01*
X157683505Y-82623597D01*
X157553575Y-82809158D01*
X157498998Y-82852783D01*
X157429500Y-82859977D01*
X157367145Y-82828454D01*
X157350425Y-82809158D01*
X157220494Y-82623597D01*
X157053402Y-82456506D01*
X157053395Y-82456501D01*
X156859834Y-82320967D01*
X156859830Y-82320965D01*
X156859828Y-82320964D01*
X156645663Y-82221097D01*
X156645659Y-82221096D01*
X156645655Y-82221094D01*
X156417413Y-82159938D01*
X156417403Y-82159936D01*
X156182001Y-82139341D01*
X156181999Y-82139341D01*
X155946596Y-82159936D01*
X155946586Y-82159938D01*
X155718344Y-82221094D01*
X155718335Y-82221098D01*
X155504171Y-82320964D01*
X155504169Y-82320965D01*
X155310597Y-82456505D01*
X155143505Y-82623597D01*
X155013575Y-82809158D01*
X154958998Y-82852783D01*
X154889500Y-82859977D01*
X154827145Y-82828454D01*
X154810425Y-82809158D01*
X154680494Y-82623597D01*
X154513402Y-82456506D01*
X154513395Y-82456501D01*
X154319834Y-82320967D01*
X154319830Y-82320965D01*
X154319828Y-82320964D01*
X154105663Y-82221097D01*
X154105659Y-82221096D01*
X154105655Y-82221094D01*
X153877413Y-82159938D01*
X153877403Y-82159936D01*
X153642001Y-82139341D01*
X153641999Y-82139341D01*
X153406596Y-82159936D01*
X153406586Y-82159938D01*
X153178344Y-82221094D01*
X153178335Y-82221098D01*
X152964171Y-82320964D01*
X152964169Y-82320965D01*
X152770597Y-82456505D01*
X152603505Y-82623597D01*
X152467965Y-82817169D01*
X152467964Y-82817171D01*
X152368098Y-83031335D01*
X152368094Y-83031344D01*
X152306938Y-83259586D01*
X152306936Y-83259596D01*
X152286341Y-83494999D01*
X133875862Y-83494999D01*
X133835789Y-83380478D01*
X133739816Y-83227738D01*
X133612262Y-83100184D01*
X133584643Y-83082830D01*
X133459523Y-83004211D01*
X133289254Y-82944631D01*
X133289249Y-82944630D01*
X133110004Y-82924435D01*
X133109996Y-82924435D01*
X132930750Y-82944630D01*
X132930745Y-82944631D01*
X132760476Y-83004211D01*
X132607737Y-83100184D01*
X132480184Y-83227737D01*
X132384211Y-83380476D01*
X132324631Y-83550745D01*
X132324630Y-83550750D01*
X132304435Y-83729996D01*
X122764007Y-83729996D01*
X122776265Y-83717738D01*
X122923936Y-83525289D01*
X123045224Y-83315212D01*
X123138054Y-83091100D01*
X123200838Y-82856789D01*
X123232500Y-82616288D01*
X123232500Y-82373712D01*
X123200838Y-82133211D01*
X123138054Y-81898900D01*
X123045224Y-81674788D01*
X122923936Y-81464711D01*
X122776265Y-81272262D01*
X122776260Y-81272256D01*
X122604743Y-81100739D01*
X122604736Y-81100733D01*
X122412293Y-80953067D01*
X122412292Y-80953066D01*
X122412289Y-80953064D01*
X122202212Y-80831776D01*
X122202205Y-80831773D01*
X121978104Y-80738947D01*
X121743785Y-80676161D01*
X121503289Y-80644500D01*
X121503288Y-80644500D01*
X121260712Y-80644500D01*
X121260711Y-80644500D01*
X121020214Y-80676161D01*
X120785895Y-80738947D01*
X120561794Y-80831773D01*
X120561785Y-80831777D01*
X120351706Y-80953067D01*
X120159263Y-81100733D01*
X120159256Y-81100739D01*
X119987739Y-81272256D01*
X119987733Y-81272263D01*
X119840067Y-81464706D01*
X119718777Y-81674785D01*
X119718773Y-81674794D01*
X119625947Y-81898895D01*
X119563161Y-82133214D01*
X119531500Y-82373711D01*
X117832922Y-82373711D01*
X117815063Y-82169592D01*
X117753903Y-81941337D01*
X117654035Y-81727171D01*
X117617361Y-81674794D01*
X117518494Y-81533597D01*
X117351402Y-81366506D01*
X117351396Y-81366501D01*
X117165842Y-81236575D01*
X117122217Y-81181998D01*
X117115023Y-81112500D01*
X117146546Y-81050145D01*
X117165842Y-81033425D01*
X117280609Y-80953064D01*
X117351401Y-80903495D01*
X117518495Y-80736401D01*
X117654035Y-80542830D01*
X117753903Y-80328663D01*
X117815063Y-80100408D01*
X117835659Y-79865000D01*
X117815063Y-79629592D01*
X117753903Y-79401337D01*
X117654035Y-79187171D01*
X117518495Y-78993599D01*
X117518494Y-78993597D01*
X117351402Y-78826506D01*
X117351395Y-78826501D01*
X117157834Y-78690967D01*
X117157830Y-78690965D01*
X117157828Y-78690964D01*
X116943663Y-78591097D01*
X116943659Y-78591096D01*
X116943655Y-78591094D01*
X116715413Y-78529938D01*
X116715403Y-78529936D01*
X116480001Y-78509341D01*
X116479999Y-78509341D01*
X116244596Y-78529936D01*
X116244586Y-78529938D01*
X116016344Y-78591094D01*
X116016335Y-78591098D01*
X115802171Y-78690964D01*
X115802169Y-78690965D01*
X115608597Y-78826505D01*
X115441505Y-78993597D01*
X115305965Y-79187169D01*
X115305964Y-79187171D01*
X115206098Y-79401335D01*
X115206094Y-79401344D01*
X115144938Y-79629586D01*
X115144936Y-79629596D01*
X115130028Y-79799998D01*
X115104575Y-79865066D01*
X115100942Y-79867696D01*
X115125477Y-79905874D01*
X115130028Y-79930001D01*
X115144936Y-80100403D01*
X115144938Y-80100413D01*
X115206094Y-80328655D01*
X115206096Y-80328659D01*
X115206097Y-80328663D01*
X115305965Y-80542830D01*
X115305967Y-80542834D01*
X115441501Y-80736395D01*
X115441506Y-80736402D01*
X115608597Y-80903493D01*
X115608603Y-80903498D01*
X115794158Y-81033425D01*
X115837783Y-81088002D01*
X115844977Y-81157500D01*
X115813454Y-81219855D01*
X115794158Y-81236575D01*
X115608597Y-81366505D01*
X115441505Y-81533597D01*
X115305965Y-81727169D01*
X115305964Y-81727171D01*
X115206098Y-81941335D01*
X115206094Y-81941344D01*
X115144938Y-82169586D01*
X115144936Y-82169596D01*
X115130028Y-82339998D01*
X115104575Y-82405066D01*
X115100942Y-82407696D01*
X115125477Y-82445874D01*
X115130028Y-82470001D01*
X115144936Y-82640403D01*
X115144938Y-82640413D01*
X115206094Y-82868655D01*
X115206096Y-82868659D01*
X115206097Y-82868663D01*
X115281953Y-83031337D01*
X115305965Y-83082830D01*
X115305967Y-83082834D01*
X115388008Y-83200000D01*
X115441501Y-83276396D01*
X115441506Y-83276402D01*
X115563430Y-83398326D01*
X115596915Y-83459649D01*
X115591931Y-83529341D01*
X115550059Y-83585274D01*
X115519083Y-83602189D01*
X115387669Y-83651203D01*
X115387664Y-83651206D01*
X115272455Y-83737452D01*
X115272452Y-83737455D01*
X115186206Y-83852664D01*
X115186202Y-83852671D01*
X115135908Y-83987517D01*
X115129789Y-84044438D01*
X115103051Y-84108989D01*
X115045659Y-84148837D01*
X114975834Y-84151331D01*
X114915745Y-84115679D01*
X114884470Y-84053199D01*
X114882500Y-84031183D01*
X114882500Y-82480809D01*
X114902185Y-82413770D01*
X114912051Y-82405220D01*
X114884931Y-82353622D01*
X114882500Y-82329190D01*
X114882500Y-79940809D01*
X114902185Y-79873770D01*
X114912051Y-79865220D01*
X114884931Y-79813622D01*
X114882500Y-79789190D01*
X114882500Y-77619500D01*
X114902185Y-77552461D01*
X114954989Y-77506706D01*
X115006500Y-77495500D01*
X163960000Y-77495500D01*
X164027039Y-77515185D01*
G37*
%TD.AperFunction*%
%TD*%
%TA.AperFunction,Conductor*%
%TO.N,TVDD33*%
G36*
X183824539Y-77515185D02*
G01*
X183870294Y-77567989D01*
X183881500Y-77619500D01*
X183881500Y-78321535D01*
X183861815Y-78388574D01*
X183809011Y-78434329D01*
X183739853Y-78444273D01*
X183676297Y-78415248D01*
X183663787Y-78402737D01*
X183662242Y-78400954D01*
X183473056Y-78211768D01*
X183473038Y-78211752D01*
X183258854Y-78051417D01*
X183258846Y-78051412D01*
X183024024Y-77923189D01*
X183024020Y-77923187D01*
X182773322Y-77829682D01*
X182511888Y-77772811D01*
X182511881Y-77772810D01*
X182245001Y-77753722D01*
X182244999Y-77753722D01*
X181978118Y-77772810D01*
X181978111Y-77772811D01*
X181716677Y-77829682D01*
X181465979Y-77923187D01*
X181465975Y-77923189D01*
X181231153Y-78051412D01*
X181231145Y-78051417D01*
X181016961Y-78211752D01*
X181016943Y-78211768D01*
X180827768Y-78400943D01*
X180827752Y-78400961D01*
X180667417Y-78615145D01*
X180667412Y-78615153D01*
X180539189Y-78849975D01*
X180539187Y-78849979D01*
X180445682Y-79100677D01*
X180388811Y-79362111D01*
X180388810Y-79362118D01*
X180369722Y-79628998D01*
X180369722Y-79629001D01*
X180388810Y-79895881D01*
X180388811Y-79895888D01*
X180445682Y-80157322D01*
X180539187Y-80408020D01*
X180539189Y-80408024D01*
X180621294Y-80558388D01*
X180636146Y-80626661D01*
X180611729Y-80692126D01*
X180555795Y-80733997D01*
X180486104Y-80738981D01*
X180447670Y-80723541D01*
X180442963Y-80720656D01*
X180207318Y-80623049D01*
X180207301Y-80623044D01*
X179959289Y-80563502D01*
X179705000Y-80543489D01*
X179450710Y-80563502D01*
X179202698Y-80623044D01*
X179202681Y-80623049D01*
X178967036Y-80720656D01*
X178962323Y-80723545D01*
X178894877Y-80741786D01*
X178828275Y-80720668D01*
X178783664Y-80666895D01*
X178775206Y-80597539D01*
X178788705Y-80558388D01*
X178870813Y-80408019D01*
X178964316Y-80157327D01*
X179021190Y-79895880D01*
X179040278Y-79629000D01*
X179038768Y-79607894D01*
X179032921Y-79526141D01*
X179021190Y-79362120D01*
X178964316Y-79100673D01*
X178870813Y-78849981D01*
X178742584Y-78615148D01*
X178742582Y-78615145D01*
X178582247Y-78400961D01*
X178582231Y-78400943D01*
X178393056Y-78211768D01*
X178393038Y-78211752D01*
X178178854Y-78051417D01*
X178178846Y-78051412D01*
X177944024Y-77923189D01*
X177944020Y-77923187D01*
X177693322Y-77829682D01*
X177431888Y-77772811D01*
X177431881Y-77772810D01*
X177165001Y-77753722D01*
X177164999Y-77753722D01*
X176898118Y-77772810D01*
X176898111Y-77772811D01*
X176636677Y-77829682D01*
X176385979Y-77923187D01*
X176385975Y-77923189D01*
X176151153Y-78051412D01*
X176151145Y-78051417D01*
X175936961Y-78211752D01*
X175936943Y-78211768D01*
X175747768Y-78400943D01*
X175747752Y-78400961D01*
X175587417Y-78615145D01*
X175587412Y-78615153D01*
X175459189Y-78849975D01*
X175459187Y-78849979D01*
X175365682Y-79100677D01*
X175308811Y-79362111D01*
X175308810Y-79362118D01*
X175289722Y-79628998D01*
X175289722Y-79629001D01*
X175308810Y-79895881D01*
X175308811Y-79895888D01*
X175365682Y-80157322D01*
X175459187Y-80408020D01*
X175459189Y-80408024D01*
X175587412Y-80642846D01*
X175587417Y-80642854D01*
X175747752Y-80857038D01*
X175747768Y-80857056D01*
X175936943Y-81046231D01*
X175936961Y-81046247D01*
X176151145Y-81206582D01*
X176151153Y-81206587D01*
X176385975Y-81334810D01*
X176385979Y-81334812D01*
X176385981Y-81334813D01*
X176636673Y-81428316D01*
X176636676Y-81428316D01*
X176636677Y-81428317D01*
X176834012Y-81471244D01*
X176898120Y-81485190D01*
X177144440Y-81502807D01*
X177164999Y-81504278D01*
X177165000Y-81504278D01*
X177165001Y-81504278D01*
X177184089Y-81502912D01*
X177431880Y-81485190D01*
X177693327Y-81428316D01*
X177944019Y-81334813D01*
X178094388Y-81252704D01*
X178162661Y-81237853D01*
X178228125Y-81262270D01*
X178269997Y-81318203D01*
X178274981Y-81387895D01*
X178259545Y-81426323D01*
X178256656Y-81431036D01*
X178159049Y-81666681D01*
X178159044Y-81666698D01*
X178099502Y-81914710D01*
X178079489Y-82169000D01*
X178099502Y-82423289D01*
X178159044Y-82671301D01*
X178159049Y-82671318D01*
X178256656Y-82906963D01*
X178259541Y-82911670D01*
X178277787Y-82979116D01*
X178256672Y-83045719D01*
X178202901Y-83090333D01*
X178133545Y-83098794D01*
X178094388Y-83085294D01*
X177944024Y-83003189D01*
X177944020Y-83003187D01*
X177693322Y-82909682D01*
X177431888Y-82852811D01*
X177431881Y-82852810D01*
X177165001Y-82833722D01*
X177164999Y-82833722D01*
X176898118Y-82852810D01*
X176898111Y-82852811D01*
X176636677Y-82909682D01*
X176385979Y-83003187D01*
X176385975Y-83003189D01*
X176151153Y-83131412D01*
X176151145Y-83131417D01*
X175936961Y-83291752D01*
X175936943Y-83291768D01*
X175747768Y-83480943D01*
X175747752Y-83480961D01*
X175587417Y-83695145D01*
X175587412Y-83695153D01*
X175459189Y-83929975D01*
X175459187Y-83929979D01*
X175365682Y-84180677D01*
X175308811Y-84442111D01*
X175308810Y-84442118D01*
X175289722Y-84708998D01*
X175289722Y-84709001D01*
X175308810Y-84975881D01*
X175308811Y-84975888D01*
X175365682Y-85237322D01*
X175459187Y-85488020D01*
X175459189Y-85488024D01*
X175587412Y-85722846D01*
X175587417Y-85722854D01*
X175747752Y-85937038D01*
X175747768Y-85937056D01*
X175936943Y-86126231D01*
X175936961Y-86126247D01*
X176151145Y-86286582D01*
X176151153Y-86286587D01*
X176316929Y-86377108D01*
X176366334Y-86426513D01*
X176381186Y-86494786D01*
X176356769Y-86560251D01*
X176316929Y-86594772D01*
X176118153Y-86703312D01*
X176118145Y-86703317D01*
X175903961Y-86863652D01*
X175903943Y-86863668D01*
X175714768Y-87052843D01*
X175714752Y-87052861D01*
X175554417Y-87267045D01*
X175554412Y-87267053D01*
X175426189Y-87501875D01*
X175426187Y-87501879D01*
X175332682Y-87752577D01*
X175275811Y-88014011D01*
X175275810Y-88014018D01*
X175256722Y-88280898D01*
X175256722Y-88280901D01*
X175275810Y-88547781D01*
X175275811Y-88547788D01*
X175332682Y-88809222D01*
X175426187Y-89059920D01*
X175426189Y-89059924D01*
X175554412Y-89294746D01*
X175554417Y-89294754D01*
X175714752Y-89508938D01*
X175714768Y-89508956D01*
X175903943Y-89698131D01*
X175903961Y-89698147D01*
X176118145Y-89858482D01*
X176118153Y-89858487D01*
X176352975Y-89986710D01*
X176352979Y-89986712D01*
X176352981Y-89986713D01*
X176603673Y-90080216D01*
X176603676Y-90080216D01*
X176603677Y-90080217D01*
X176801012Y-90123144D01*
X176865120Y-90137090D01*
X177111440Y-90154707D01*
X177131999Y-90156178D01*
X177132000Y-90156178D01*
X177132001Y-90156178D01*
X177151089Y-90154812D01*
X177398880Y-90137090D01*
X177660327Y-90080216D01*
X177911019Y-89986713D01*
X178061388Y-89904604D01*
X178129661Y-89889753D01*
X178195125Y-89914170D01*
X178236997Y-89970103D01*
X178241981Y-90039795D01*
X178226545Y-90078223D01*
X178223656Y-90082936D01*
X178126049Y-90318581D01*
X178126044Y-90318598D01*
X178066502Y-90566610D01*
X178046489Y-90820900D01*
X178066502Y-91075189D01*
X178126044Y-91323201D01*
X178126049Y-91323218D01*
X178223656Y-91558863D01*
X178226541Y-91563570D01*
X178244787Y-91631016D01*
X178223672Y-91697619D01*
X178169901Y-91742233D01*
X178100545Y-91750694D01*
X178061388Y-91737194D01*
X177911024Y-91655089D01*
X177911020Y-91655087D01*
X177660322Y-91561582D01*
X177398888Y-91504711D01*
X177398881Y-91504710D01*
X177132001Y-91485622D01*
X177131999Y-91485622D01*
X176865118Y-91504710D01*
X176865111Y-91504711D01*
X176603677Y-91561582D01*
X176352979Y-91655087D01*
X176352975Y-91655089D01*
X176118153Y-91783312D01*
X176118145Y-91783317D01*
X175903961Y-91943652D01*
X175903943Y-91943668D01*
X175714768Y-92132843D01*
X175714752Y-92132861D01*
X175554417Y-92347045D01*
X175554412Y-92347053D01*
X175426189Y-92581875D01*
X175426187Y-92581879D01*
X175332682Y-92832577D01*
X175275811Y-93094011D01*
X175275810Y-93094018D01*
X175256722Y-93360898D01*
X175256722Y-93360901D01*
X175275810Y-93627781D01*
X175275811Y-93627788D01*
X175332682Y-93889222D01*
X175426187Y-94139920D01*
X175426189Y-94139924D01*
X175554412Y-94374746D01*
X175554417Y-94374754D01*
X175714752Y-94588938D01*
X175714768Y-94588956D01*
X175903943Y-94778131D01*
X175903961Y-94778147D01*
X176118145Y-94938482D01*
X176118153Y-94938487D01*
X176320757Y-95049118D01*
X176370162Y-95098523D01*
X176385014Y-95166796D01*
X176360597Y-95232261D01*
X176320757Y-95266782D01*
X176118153Y-95377412D01*
X176118145Y-95377417D01*
X175903961Y-95537752D01*
X175903943Y-95537768D01*
X175714768Y-95726943D01*
X175714752Y-95726961D01*
X175554417Y-95941145D01*
X175554412Y-95941153D01*
X175426189Y-96175975D01*
X175426187Y-96175979D01*
X175332682Y-96426677D01*
X175275811Y-96688111D01*
X175275810Y-96688118D01*
X175256722Y-96954998D01*
X175256722Y-96955001D01*
X175275810Y-97221881D01*
X175275811Y-97221888D01*
X175332682Y-97483322D01*
X175426187Y-97734020D01*
X175426189Y-97734024D01*
X175554412Y-97968846D01*
X175554417Y-97968854D01*
X175714752Y-98183038D01*
X175714768Y-98183056D01*
X175903943Y-98372231D01*
X175903961Y-98372247D01*
X176118145Y-98532582D01*
X176118153Y-98532587D01*
X176352975Y-98660810D01*
X176352979Y-98660812D01*
X176352981Y-98660813D01*
X176603673Y-98754316D01*
X176603676Y-98754316D01*
X176603677Y-98754317D01*
X176801012Y-98797244D01*
X176865120Y-98811190D01*
X177111440Y-98828807D01*
X177131999Y-98830278D01*
X177132000Y-98830278D01*
X177132001Y-98830278D01*
X177151089Y-98828912D01*
X177398880Y-98811190D01*
X177660327Y-98754316D01*
X177911019Y-98660813D01*
X178061388Y-98578704D01*
X178129661Y-98563853D01*
X178195125Y-98588270D01*
X178236997Y-98644203D01*
X178241981Y-98713895D01*
X178226545Y-98752323D01*
X178223656Y-98757036D01*
X178126049Y-98992681D01*
X178126044Y-98992698D01*
X178066502Y-99240710D01*
X178046489Y-99495000D01*
X178066502Y-99749289D01*
X178126044Y-99997301D01*
X178126049Y-99997318D01*
X178223656Y-100232963D01*
X178226541Y-100237670D01*
X178244787Y-100305116D01*
X178223672Y-100371719D01*
X178169901Y-100416333D01*
X178100545Y-100424794D01*
X178061388Y-100411294D01*
X177911024Y-100329189D01*
X177911020Y-100329187D01*
X177660322Y-100235682D01*
X177398888Y-100178811D01*
X177398881Y-100178810D01*
X177132001Y-100159722D01*
X177131999Y-100159722D01*
X176865118Y-100178810D01*
X176865111Y-100178811D01*
X176603677Y-100235682D01*
X176352979Y-100329187D01*
X176352975Y-100329189D01*
X176118153Y-100457412D01*
X176118145Y-100457417D01*
X175903961Y-100617752D01*
X175903943Y-100617768D01*
X175714768Y-100806943D01*
X175714752Y-100806961D01*
X175554417Y-101021145D01*
X175554412Y-101021153D01*
X175426189Y-101255975D01*
X175426187Y-101255979D01*
X175332682Y-101506677D01*
X175275811Y-101768111D01*
X175275810Y-101768118D01*
X175256722Y-102034998D01*
X175256722Y-102035001D01*
X175275810Y-102301881D01*
X175275811Y-102301888D01*
X175332682Y-102563322D01*
X175426187Y-102814020D01*
X175426189Y-102814024D01*
X175554412Y-103048846D01*
X175554417Y-103048854D01*
X175714752Y-103263038D01*
X175714768Y-103263056D01*
X175903943Y-103452231D01*
X175903961Y-103452247D01*
X176118145Y-103612582D01*
X176118153Y-103612587D01*
X176320757Y-103723218D01*
X176370162Y-103772623D01*
X176385014Y-103840896D01*
X176360597Y-103906361D01*
X176320757Y-103940882D01*
X176118153Y-104051512D01*
X176118145Y-104051517D01*
X175903961Y-104211852D01*
X175903943Y-104211868D01*
X175714768Y-104401043D01*
X175714752Y-104401061D01*
X175554417Y-104615245D01*
X175554412Y-104615253D01*
X175426189Y-104850075D01*
X175426187Y-104850079D01*
X175332682Y-105100777D01*
X175275811Y-105362211D01*
X175275810Y-105362218D01*
X175256722Y-105629098D01*
X175256722Y-105629101D01*
X175275810Y-105895981D01*
X175275811Y-105895988D01*
X175332682Y-106157422D01*
X175426187Y-106408120D01*
X175426189Y-106408124D01*
X175554412Y-106642946D01*
X175554417Y-106642954D01*
X175714752Y-106857138D01*
X175714768Y-106857156D01*
X175903943Y-107046331D01*
X175903961Y-107046347D01*
X176118145Y-107206682D01*
X176118153Y-107206687D01*
X176352975Y-107334910D01*
X176352979Y-107334912D01*
X176352981Y-107334913D01*
X176603673Y-107428416D01*
X176603676Y-107428416D01*
X176603677Y-107428417D01*
X176801012Y-107471344D01*
X176865120Y-107485290D01*
X177111440Y-107502907D01*
X177131999Y-107504378D01*
X177132000Y-107504378D01*
X177132001Y-107504378D01*
X177151089Y-107503012D01*
X177398880Y-107485290D01*
X177660327Y-107428416D01*
X177911019Y-107334913D01*
X178061388Y-107252804D01*
X178129661Y-107237953D01*
X178195125Y-107262370D01*
X178236997Y-107318303D01*
X178241981Y-107387995D01*
X178226545Y-107426423D01*
X178223656Y-107431136D01*
X178126049Y-107666781D01*
X178126044Y-107666798D01*
X178066502Y-107914810D01*
X178046489Y-108169100D01*
X178066502Y-108423389D01*
X178126044Y-108671401D01*
X178126049Y-108671418D01*
X178223656Y-108907063D01*
X178226541Y-108911770D01*
X178244787Y-108979216D01*
X178223672Y-109045819D01*
X178169901Y-109090433D01*
X178100545Y-109098894D01*
X178061388Y-109085394D01*
X177911024Y-109003289D01*
X177911020Y-109003287D01*
X177660322Y-108909782D01*
X177398888Y-108852911D01*
X177398881Y-108852910D01*
X177132001Y-108833822D01*
X177131999Y-108833822D01*
X176865118Y-108852910D01*
X176865111Y-108852911D01*
X176603677Y-108909782D01*
X176352979Y-109003287D01*
X176352975Y-109003289D01*
X176118153Y-109131512D01*
X176118145Y-109131517D01*
X175903961Y-109291852D01*
X175903943Y-109291868D01*
X175714768Y-109481043D01*
X175714752Y-109481061D01*
X175554417Y-109695245D01*
X175554412Y-109695253D01*
X175426189Y-109930075D01*
X175426187Y-109930079D01*
X175332682Y-110180777D01*
X175275811Y-110442211D01*
X175275810Y-110442218D01*
X175256722Y-110709098D01*
X175256722Y-110709101D01*
X175275810Y-110975981D01*
X175275811Y-110975988D01*
X175332682Y-111237422D01*
X175426187Y-111488120D01*
X175426189Y-111488124D01*
X175554412Y-111722946D01*
X175554417Y-111722954D01*
X175714752Y-111937138D01*
X175714768Y-111937156D01*
X175903943Y-112126331D01*
X175903961Y-112126347D01*
X176118145Y-112286682D01*
X176118153Y-112286687D01*
X176320757Y-112397318D01*
X176370162Y-112446723D01*
X176385014Y-112514996D01*
X176360597Y-112580461D01*
X176320757Y-112614982D01*
X176118153Y-112725612D01*
X176118145Y-112725617D01*
X175903961Y-112885952D01*
X175903943Y-112885968D01*
X175714768Y-113075143D01*
X175714752Y-113075161D01*
X175554417Y-113289345D01*
X175554412Y-113289353D01*
X175426189Y-113524175D01*
X175426187Y-113524179D01*
X175332682Y-113774877D01*
X175275811Y-114036311D01*
X175275810Y-114036318D01*
X175256722Y-114303198D01*
X175256722Y-114303201D01*
X175275810Y-114570081D01*
X175275811Y-114570088D01*
X175332682Y-114831522D01*
X175426187Y-115082220D01*
X175426189Y-115082224D01*
X175554412Y-115317046D01*
X175554417Y-115317054D01*
X175714752Y-115531238D01*
X175714768Y-115531256D01*
X175903943Y-115720431D01*
X175903961Y-115720447D01*
X176118145Y-115880782D01*
X176118153Y-115880787D01*
X176352975Y-116009010D01*
X176352979Y-116009012D01*
X176352981Y-116009013D01*
X176603673Y-116102516D01*
X176603676Y-116102516D01*
X176603677Y-116102517D01*
X176801012Y-116145444D01*
X176865120Y-116159390D01*
X177111440Y-116177007D01*
X177131999Y-116178478D01*
X177132000Y-116178478D01*
X177132001Y-116178478D01*
X177151089Y-116177112D01*
X177398880Y-116159390D01*
X177660327Y-116102516D01*
X177911019Y-116009013D01*
X178061388Y-115926904D01*
X178129661Y-115912053D01*
X178195125Y-115936470D01*
X178236997Y-115992403D01*
X178241981Y-116062095D01*
X178226545Y-116100523D01*
X178223656Y-116105236D01*
X178126049Y-116340881D01*
X178126044Y-116340898D01*
X178066502Y-116588910D01*
X178046489Y-116843200D01*
X178066502Y-117097489D01*
X178126044Y-117345501D01*
X178126049Y-117345518D01*
X178223656Y-117581163D01*
X178226541Y-117585870D01*
X178244787Y-117653316D01*
X178223672Y-117719919D01*
X178169901Y-117764533D01*
X178100545Y-117772994D01*
X178061388Y-117759494D01*
X177911024Y-117677389D01*
X177911020Y-117677387D01*
X177660322Y-117583882D01*
X177398888Y-117527011D01*
X177398881Y-117527010D01*
X177132001Y-117507922D01*
X177131999Y-117507922D01*
X176865118Y-117527010D01*
X176865111Y-117527011D01*
X176603677Y-117583882D01*
X176352979Y-117677387D01*
X176352975Y-117677389D01*
X176118153Y-117805612D01*
X176118145Y-117805617D01*
X175903961Y-117965952D01*
X175903943Y-117965968D01*
X175714768Y-118155143D01*
X175714752Y-118155161D01*
X175554417Y-118369345D01*
X175554412Y-118369353D01*
X175426189Y-118604175D01*
X175426187Y-118604179D01*
X175332682Y-118854877D01*
X175275811Y-119116311D01*
X175275810Y-119116318D01*
X175256722Y-119383198D01*
X175256722Y-119383201D01*
X175275810Y-119650081D01*
X175275811Y-119650088D01*
X175332682Y-119911522D01*
X175426187Y-120162220D01*
X175426189Y-120162224D01*
X175554412Y-120397046D01*
X175554417Y-120397054D01*
X175714752Y-120611238D01*
X175714768Y-120611256D01*
X175903943Y-120800431D01*
X175903961Y-120800447D01*
X176118145Y-120960782D01*
X176118153Y-120960787D01*
X176352975Y-121089010D01*
X176352979Y-121089012D01*
X176352981Y-121089013D01*
X176603673Y-121182516D01*
X176603676Y-121182516D01*
X176603677Y-121182517D01*
X176801012Y-121225444D01*
X176865120Y-121239390D01*
X176968448Y-121246780D01*
X176968947Y-121246816D01*
X177034412Y-121271233D01*
X177076283Y-121327167D01*
X177081267Y-121396858D01*
X177047782Y-121458181D01*
X176986459Y-121491666D01*
X176960101Y-121494500D01*
X165560000Y-121494500D01*
X165492961Y-121474815D01*
X165447206Y-121422011D01*
X165436000Y-121370500D01*
X165436000Y-115578199D01*
X170462341Y-115578199D01*
X170462341Y-115578200D01*
X170482936Y-115813603D01*
X170482938Y-115813613D01*
X170544094Y-116041855D01*
X170544096Y-116041859D01*
X170544097Y-116041863D01*
X170598901Y-116159390D01*
X170643965Y-116256030D01*
X170643967Y-116256034D01*
X170703378Y-116340881D01*
X170779501Y-116449596D01*
X170779506Y-116449602D01*
X170901430Y-116571526D01*
X170934915Y-116632849D01*
X170929931Y-116702541D01*
X170888059Y-116758474D01*
X170857083Y-116775389D01*
X170725669Y-116824403D01*
X170725664Y-116824406D01*
X170610455Y-116910652D01*
X170610452Y-116910655D01*
X170524206Y-117025864D01*
X170524202Y-117025871D01*
X170473908Y-117160717D01*
X170467501Y-117220316D01*
X170467501Y-117220323D01*
X170467500Y-117220335D01*
X170467500Y-119016070D01*
X170467501Y-119016076D01*
X170473908Y-119075683D01*
X170524202Y-119210528D01*
X170524206Y-119210535D01*
X170610452Y-119325744D01*
X170610455Y-119325747D01*
X170725664Y-119411993D01*
X170725671Y-119411997D01*
X170860517Y-119462291D01*
X170860516Y-119462291D01*
X170867444Y-119463035D01*
X170920127Y-119468700D01*
X172715872Y-119468699D01*
X172775483Y-119462291D01*
X172910331Y-119411996D01*
X173025546Y-119325746D01*
X173111796Y-119210531D01*
X173162091Y-119075683D01*
X173168500Y-119016073D01*
X173168499Y-117220328D01*
X173162091Y-117160717D01*
X173138507Y-117097486D01*
X173111797Y-117025871D01*
X173111793Y-117025864D01*
X173025547Y-116910655D01*
X173025544Y-116910652D01*
X172910335Y-116824406D01*
X172910328Y-116824402D01*
X172778917Y-116775389D01*
X172722983Y-116733518D01*
X172698566Y-116668053D01*
X172713418Y-116599780D01*
X172734563Y-116571532D01*
X172856495Y-116449601D01*
X172992035Y-116256030D01*
X173091903Y-116041863D01*
X173153063Y-115813608D01*
X173173659Y-115578200D01*
X173153063Y-115342792D01*
X173106626Y-115169485D01*
X173091905Y-115114544D01*
X173091904Y-115114543D01*
X173091903Y-115114537D01*
X172992035Y-114900371D01*
X172943831Y-114831527D01*
X172856494Y-114706797D01*
X172689402Y-114539706D01*
X172689395Y-114539701D01*
X172495834Y-114404167D01*
X172495830Y-114404165D01*
X172495828Y-114404164D01*
X172281663Y-114304297D01*
X172281659Y-114304296D01*
X172281655Y-114304294D01*
X172053413Y-114243138D01*
X172053403Y-114243136D01*
X171818001Y-114222541D01*
X171817999Y-114222541D01*
X171582596Y-114243136D01*
X171582586Y-114243138D01*
X171354344Y-114304294D01*
X171354335Y-114304298D01*
X171140171Y-114404164D01*
X171140169Y-114404165D01*
X170946597Y-114539705D01*
X170779505Y-114706797D01*
X170643965Y-114900369D01*
X170643964Y-114900371D01*
X170544098Y-115114535D01*
X170544094Y-115114544D01*
X170482938Y-115342786D01*
X170482936Y-115342796D01*
X170462341Y-115578199D01*
X165436000Y-115578199D01*
X165436000Y-106904099D01*
X170462341Y-106904099D01*
X170462341Y-106904100D01*
X170482936Y-107139503D01*
X170482938Y-107139513D01*
X170544094Y-107367755D01*
X170544096Y-107367759D01*
X170544097Y-107367763D01*
X170598901Y-107485290D01*
X170643965Y-107581930D01*
X170643967Y-107581934D01*
X170703378Y-107666781D01*
X170779501Y-107775496D01*
X170779506Y-107775502D01*
X170901430Y-107897426D01*
X170934915Y-107958749D01*
X170929931Y-108028441D01*
X170888059Y-108084374D01*
X170857083Y-108101289D01*
X170725669Y-108150303D01*
X170725664Y-108150306D01*
X170610455Y-108236552D01*
X170610452Y-108236555D01*
X170524206Y-108351764D01*
X170524202Y-108351771D01*
X170473908Y-108486617D01*
X170467501Y-108546216D01*
X170467501Y-108546223D01*
X170467500Y-108546235D01*
X170467500Y-110341970D01*
X170467501Y-110341976D01*
X170473908Y-110401583D01*
X170524202Y-110536428D01*
X170524206Y-110536435D01*
X170610452Y-110651644D01*
X170610455Y-110651647D01*
X170725664Y-110737893D01*
X170725671Y-110737897D01*
X170860517Y-110788191D01*
X170860516Y-110788191D01*
X170867444Y-110788935D01*
X170920127Y-110794600D01*
X172715872Y-110794599D01*
X172775483Y-110788191D01*
X172910331Y-110737896D01*
X173025546Y-110651646D01*
X173111796Y-110536431D01*
X173162091Y-110401583D01*
X173168500Y-110341973D01*
X173168499Y-108546228D01*
X173162091Y-108486617D01*
X173138507Y-108423386D01*
X173111797Y-108351771D01*
X173111793Y-108351764D01*
X173025547Y-108236555D01*
X173025544Y-108236552D01*
X172910335Y-108150306D01*
X172910328Y-108150302D01*
X172778917Y-108101289D01*
X172722983Y-108059418D01*
X172698566Y-107993953D01*
X172713418Y-107925680D01*
X172734563Y-107897432D01*
X172856495Y-107775501D01*
X172992035Y-107581930D01*
X173091903Y-107367763D01*
X173153063Y-107139508D01*
X173173659Y-106904100D01*
X173153063Y-106668692D01*
X173106626Y-106495385D01*
X173091905Y-106440444D01*
X173091904Y-106440443D01*
X173091903Y-106440437D01*
X172992035Y-106226271D01*
X172943831Y-106157427D01*
X172856494Y-106032697D01*
X172689402Y-105865606D01*
X172689395Y-105865601D01*
X172495834Y-105730067D01*
X172495830Y-105730065D01*
X172495828Y-105730064D01*
X172281663Y-105630197D01*
X172281659Y-105630196D01*
X172281655Y-105630194D01*
X172053413Y-105569038D01*
X172053403Y-105569036D01*
X171818001Y-105548441D01*
X171817999Y-105548441D01*
X171582596Y-105569036D01*
X171582586Y-105569038D01*
X171354344Y-105630194D01*
X171354335Y-105630198D01*
X171140171Y-105730064D01*
X171140169Y-105730065D01*
X170946597Y-105865605D01*
X170779505Y-106032697D01*
X170643965Y-106226269D01*
X170643964Y-106226271D01*
X170544098Y-106440435D01*
X170544094Y-106440444D01*
X170482938Y-106668686D01*
X170482936Y-106668696D01*
X170462341Y-106904099D01*
X165436000Y-106904099D01*
X165436000Y-103709996D01*
X166724435Y-103709996D01*
X166724435Y-103710003D01*
X166744630Y-103889249D01*
X166744631Y-103889254D01*
X166804211Y-104059523D01*
X166899926Y-104211852D01*
X166900184Y-104212262D01*
X167027738Y-104339816D01*
X167180478Y-104435789D01*
X167330289Y-104488210D01*
X167350745Y-104495368D01*
X167350750Y-104495369D01*
X167529996Y-104515565D01*
X167530000Y-104515565D01*
X167530004Y-104515565D01*
X167709249Y-104495369D01*
X167709252Y-104495368D01*
X167709255Y-104495368D01*
X167879522Y-104435789D01*
X168032262Y-104339816D01*
X168159816Y-104212262D01*
X168255789Y-104059522D01*
X168315368Y-103889255D01*
X168320817Y-103840896D01*
X168335565Y-103710003D01*
X168335565Y-103709996D01*
X168315369Y-103530750D01*
X168315368Y-103530745D01*
X168255788Y-103360476D01*
X168200363Y-103272268D01*
X168159816Y-103207738D01*
X168032262Y-103080184D01*
X167982401Y-103048854D01*
X167879523Y-102984211D01*
X167709254Y-102924631D01*
X167709249Y-102924630D01*
X167530004Y-102904435D01*
X167529996Y-102904435D01*
X167350750Y-102924630D01*
X167350745Y-102924631D01*
X167180476Y-102984211D01*
X167027737Y-103080184D01*
X166900184Y-103207737D01*
X166804211Y-103360476D01*
X166744631Y-103530745D01*
X166744630Y-103530750D01*
X166724435Y-103709996D01*
X165436000Y-103709996D01*
X165436000Y-98229999D01*
X170462341Y-98229999D01*
X170462341Y-98230000D01*
X170482936Y-98465403D01*
X170482938Y-98465413D01*
X170544094Y-98693655D01*
X170544096Y-98693659D01*
X170544097Y-98693663D01*
X170598901Y-98811190D01*
X170643965Y-98907830D01*
X170643967Y-98907834D01*
X170703378Y-98992681D01*
X170779501Y-99101396D01*
X170779506Y-99101402D01*
X170901430Y-99223326D01*
X170934915Y-99284649D01*
X170929931Y-99354341D01*
X170888059Y-99410274D01*
X170857083Y-99427189D01*
X170725669Y-99476203D01*
X170725664Y-99476206D01*
X170610455Y-99562452D01*
X170610452Y-99562455D01*
X170524206Y-99677664D01*
X170524202Y-99677671D01*
X170473908Y-99812517D01*
X170467501Y-99872116D01*
X170467501Y-99872123D01*
X170467500Y-99872135D01*
X170467500Y-101667870D01*
X170467501Y-101667876D01*
X170473908Y-101727483D01*
X170524202Y-101862328D01*
X170524206Y-101862335D01*
X170610452Y-101977544D01*
X170610455Y-101977547D01*
X170725664Y-102063793D01*
X170725671Y-102063797D01*
X170860517Y-102114091D01*
X170860516Y-102114091D01*
X170867444Y-102114835D01*
X170920127Y-102120500D01*
X172715872Y-102120499D01*
X172775483Y-102114091D01*
X172910331Y-102063796D01*
X173025546Y-101977546D01*
X173111796Y-101862331D01*
X173162091Y-101727483D01*
X173168500Y-101667873D01*
X173168499Y-99872128D01*
X173162091Y-99812517D01*
X173138507Y-99749286D01*
X173111797Y-99677671D01*
X173111793Y-99677664D01*
X173025547Y-99562455D01*
X173025544Y-99562452D01*
X172910335Y-99476206D01*
X172910328Y-99476202D01*
X172778917Y-99427189D01*
X172722983Y-99385318D01*
X172698566Y-99319853D01*
X172713418Y-99251580D01*
X172734563Y-99223332D01*
X172856495Y-99101401D01*
X172992035Y-98907830D01*
X173091903Y-98693663D01*
X173153063Y-98465408D01*
X173173659Y-98230000D01*
X173153063Y-97994592D01*
X173106626Y-97821285D01*
X173091905Y-97766344D01*
X173091904Y-97766343D01*
X173091903Y-97766337D01*
X172992035Y-97552171D01*
X172943831Y-97483327D01*
X172856494Y-97358597D01*
X172689402Y-97191506D01*
X172689395Y-97191501D01*
X172495834Y-97055967D01*
X172495830Y-97055965D01*
X172495828Y-97055964D01*
X172281663Y-96956097D01*
X172281659Y-96956096D01*
X172281655Y-96956094D01*
X172053413Y-96894938D01*
X172053403Y-96894936D01*
X171818001Y-96874341D01*
X171817999Y-96874341D01*
X171582596Y-96894936D01*
X171582586Y-96894938D01*
X171354344Y-96956094D01*
X171354335Y-96956098D01*
X171140171Y-97055964D01*
X171140169Y-97055965D01*
X170946597Y-97191505D01*
X170779505Y-97358597D01*
X170643965Y-97552169D01*
X170643964Y-97552171D01*
X170544098Y-97766335D01*
X170544094Y-97766344D01*
X170482938Y-97994586D01*
X170482936Y-97994596D01*
X170462341Y-98229999D01*
X165436000Y-98229999D01*
X165436000Y-95769996D01*
X171584435Y-95769996D01*
X171584435Y-95770003D01*
X171604630Y-95949249D01*
X171604631Y-95949254D01*
X171664211Y-96119523D01*
X171760184Y-96272262D01*
X171887738Y-96399816D01*
X172040478Y-96495789D01*
X172210745Y-96555368D01*
X172210750Y-96555369D01*
X172389996Y-96575565D01*
X172390000Y-96575565D01*
X172390004Y-96575565D01*
X172569249Y-96555369D01*
X172569252Y-96555368D01*
X172569255Y-96555368D01*
X172739522Y-96495789D01*
X172892262Y-96399816D01*
X173019816Y-96272262D01*
X173115789Y-96119522D01*
X173175368Y-95949255D01*
X173176281Y-95941153D01*
X173195565Y-95770003D01*
X173195565Y-95769996D01*
X173175369Y-95590750D01*
X173175368Y-95590745D01*
X173115789Y-95420478D01*
X173019816Y-95267738D01*
X172892262Y-95140184D01*
X172775334Y-95066713D01*
X172739523Y-95044211D01*
X172569254Y-94984631D01*
X172569249Y-94984630D01*
X172390004Y-94964435D01*
X172389996Y-94964435D01*
X172210750Y-94984630D01*
X172210745Y-94984631D01*
X172040476Y-95044211D01*
X171887737Y-95140184D01*
X171760184Y-95267737D01*
X171664211Y-95420476D01*
X171604631Y-95590745D01*
X171604630Y-95590750D01*
X171584435Y-95769996D01*
X165436000Y-95769996D01*
X165436000Y-89555899D01*
X170462341Y-89555899D01*
X170462341Y-89555900D01*
X170482936Y-89791303D01*
X170482938Y-89791313D01*
X170544094Y-90019555D01*
X170544096Y-90019559D01*
X170544097Y-90019563D01*
X170598901Y-90137090D01*
X170643965Y-90233730D01*
X170643967Y-90233734D01*
X170703378Y-90318581D01*
X170779501Y-90427296D01*
X170779506Y-90427302D01*
X170901430Y-90549226D01*
X170934915Y-90610549D01*
X170929931Y-90680241D01*
X170888059Y-90736174D01*
X170857083Y-90753089D01*
X170725669Y-90802103D01*
X170725664Y-90802106D01*
X170610455Y-90888352D01*
X170610452Y-90888355D01*
X170524206Y-91003564D01*
X170524202Y-91003571D01*
X170473908Y-91138417D01*
X170467501Y-91198016D01*
X170467501Y-91198023D01*
X170467500Y-91198035D01*
X170467500Y-92993770D01*
X170467501Y-92993776D01*
X170473908Y-93053383D01*
X170524202Y-93188228D01*
X170524206Y-93188235D01*
X170610452Y-93303444D01*
X170610455Y-93303447D01*
X170725664Y-93389693D01*
X170725671Y-93389697D01*
X170860517Y-93439991D01*
X170860516Y-93439991D01*
X170867444Y-93440735D01*
X170920127Y-93446400D01*
X172715872Y-93446399D01*
X172775483Y-93439991D01*
X172910331Y-93389696D01*
X173025546Y-93303446D01*
X173111796Y-93188231D01*
X173162091Y-93053383D01*
X173168500Y-92993773D01*
X173168499Y-91198028D01*
X173162091Y-91138417D01*
X173138507Y-91075186D01*
X173111797Y-91003571D01*
X173111793Y-91003564D01*
X173025547Y-90888355D01*
X173025544Y-90888352D01*
X172910335Y-90802106D01*
X172910328Y-90802102D01*
X172778917Y-90753089D01*
X172722983Y-90711218D01*
X172698566Y-90645753D01*
X172713418Y-90577480D01*
X172734563Y-90549232D01*
X172856495Y-90427301D01*
X172992035Y-90233730D01*
X173091903Y-90019563D01*
X173153063Y-89791308D01*
X173173659Y-89555900D01*
X173153063Y-89320492D01*
X173106626Y-89147185D01*
X173091905Y-89092244D01*
X173091904Y-89092243D01*
X173091903Y-89092237D01*
X172992035Y-88878071D01*
X172943831Y-88809227D01*
X172856494Y-88684497D01*
X172689402Y-88517406D01*
X172689395Y-88517401D01*
X172495834Y-88381867D01*
X172495830Y-88381865D01*
X172495828Y-88381864D01*
X172281663Y-88281997D01*
X172281659Y-88281996D01*
X172281655Y-88281994D01*
X172053413Y-88220838D01*
X172053403Y-88220836D01*
X171818001Y-88200241D01*
X171817999Y-88200241D01*
X171582596Y-88220836D01*
X171582586Y-88220838D01*
X171354344Y-88281994D01*
X171354335Y-88281998D01*
X171140171Y-88381864D01*
X171140169Y-88381865D01*
X170946597Y-88517405D01*
X170779505Y-88684497D01*
X170643965Y-88878069D01*
X170643964Y-88878071D01*
X170544098Y-89092235D01*
X170544094Y-89092244D01*
X170482938Y-89320486D01*
X170482936Y-89320496D01*
X170462341Y-89555899D01*
X165436000Y-89555899D01*
X165436000Y-85541853D01*
X165436780Y-85527969D01*
X165445565Y-85450002D01*
X165445565Y-85449997D01*
X165436780Y-85372030D01*
X165436000Y-85358146D01*
X165436000Y-80881799D01*
X170462341Y-80881799D01*
X170462341Y-80881800D01*
X170482936Y-81117203D01*
X170482938Y-81117213D01*
X170544094Y-81345455D01*
X170544096Y-81345459D01*
X170544097Y-81345463D01*
X170609253Y-81485190D01*
X170643965Y-81559630D01*
X170643967Y-81559634D01*
X170718935Y-81666698D01*
X170779501Y-81753196D01*
X170779506Y-81753202D01*
X170901430Y-81875126D01*
X170934915Y-81936449D01*
X170929931Y-82006141D01*
X170888059Y-82062074D01*
X170857083Y-82078989D01*
X170725669Y-82128003D01*
X170725664Y-82128006D01*
X170610455Y-82214252D01*
X170610452Y-82214255D01*
X170524206Y-82329464D01*
X170524202Y-82329471D01*
X170473908Y-82464317D01*
X170467501Y-82523916D01*
X170467501Y-82523923D01*
X170467500Y-82523935D01*
X170467500Y-84319670D01*
X170467501Y-84319676D01*
X170473908Y-84379283D01*
X170524202Y-84514128D01*
X170524206Y-84514135D01*
X170610452Y-84629344D01*
X170610455Y-84629347D01*
X170725664Y-84715593D01*
X170725671Y-84715597D01*
X170860517Y-84765891D01*
X170860516Y-84765891D01*
X170867444Y-84766635D01*
X170920127Y-84772300D01*
X172715872Y-84772299D01*
X172775483Y-84765891D01*
X172910331Y-84715596D01*
X173025546Y-84629346D01*
X173111796Y-84514131D01*
X173162091Y-84379283D01*
X173168500Y-84319673D01*
X173168499Y-82523928D01*
X173162091Y-82464317D01*
X173146787Y-82423286D01*
X173111797Y-82329471D01*
X173111793Y-82329464D01*
X173025547Y-82214255D01*
X173025544Y-82214252D01*
X172910335Y-82128006D01*
X172910328Y-82128002D01*
X172778917Y-82078989D01*
X172722983Y-82037118D01*
X172698566Y-81971653D01*
X172713418Y-81903380D01*
X172734563Y-81875132D01*
X172856495Y-81753201D01*
X172992035Y-81559630D01*
X173091903Y-81345463D01*
X173153063Y-81117208D01*
X173173659Y-80881800D01*
X173153063Y-80646392D01*
X173091903Y-80418137D01*
X172992035Y-80203971D01*
X172959372Y-80157322D01*
X172856494Y-80010397D01*
X172689402Y-79843306D01*
X172689395Y-79843301D01*
X172495834Y-79707767D01*
X172495830Y-79707765D01*
X172495828Y-79707764D01*
X172281663Y-79607897D01*
X172281659Y-79607896D01*
X172281655Y-79607894D01*
X172053413Y-79546738D01*
X172053403Y-79546736D01*
X171818001Y-79526141D01*
X171817999Y-79526141D01*
X171582596Y-79546736D01*
X171582586Y-79546738D01*
X171354344Y-79607894D01*
X171354335Y-79607898D01*
X171140171Y-79707764D01*
X171140169Y-79707765D01*
X170946597Y-79843305D01*
X170779505Y-80010397D01*
X170643965Y-80203969D01*
X170643964Y-80203971D01*
X170544098Y-80418135D01*
X170544094Y-80418144D01*
X170482938Y-80646386D01*
X170482936Y-80646396D01*
X170462341Y-80881799D01*
X165436000Y-80881799D01*
X165436000Y-77619500D01*
X165455685Y-77552461D01*
X165508489Y-77506706D01*
X165560000Y-77495500D01*
X183757500Y-77495500D01*
X183824539Y-77515185D01*
G37*
%TD.AperFunction*%
%TD*%
M02*
