%TF.GenerationSoftware,KiCad,Pcbnew,8.0.4*%
%TF.CreationDate,2025-07-14T14:52:45+02:00*%
%TF.ProjectId,syzygy_gpx2_2_1,73797a79-6779-45f6-9770-78325f325f31,rev?*%
%TF.SameCoordinates,Original*%
%TF.FileFunction,Copper,L1,Top*%
%TF.FilePolarity,Positive*%
%FSLAX46Y46*%
G04 Gerber Fmt 4.6, Leading zero omitted, Abs format (unit mm)*
G04 Created by KiCad (PCBNEW 8.0.4) date 2025-07-14 14:52:45*
%MOMM*%
%LPD*%
G01*
G04 APERTURE LIST*
G04 Aperture macros list*
%AMRoundRect*
0 Rectangle with rounded corners*
0 $1 Rounding radius*
0 $2 $3 $4 $5 $6 $7 $8 $9 X,Y pos of 4 corners*
0 Add a 4 corners polygon primitive as box body*
4,1,4,$2,$3,$4,$5,$6,$7,$8,$9,$2,$3,0*
0 Add four circle primitives for the rounded corners*
1,1,$1+$1,$2,$3*
1,1,$1+$1,$4,$5*
1,1,$1+$1,$6,$7*
1,1,$1+$1,$8,$9*
0 Add four rect primitives between the rounded corners*
20,1,$1+$1,$2,$3,$4,$5,0*
20,1,$1+$1,$4,$5,$6,$7,0*
20,1,$1+$1,$6,$7,$8,$9,0*
20,1,$1+$1,$8,$9,$2,$3,0*%
G04 Aperture macros list end*
%ADD10C,0.100000*%
%ADD11C,0.150000*%
%ADD12C,0.300000*%
%ADD13C,0.400000*%
%TA.AperFunction,SMDPad,CuDef*%
%ADD14R,1.000000X1.000000*%
%TD*%
%TA.AperFunction,ComponentPad*%
%ADD15R,1.700000X1.700000*%
%TD*%
%TA.AperFunction,ComponentPad*%
%ADD16O,1.700000X1.700000*%
%TD*%
%TA.AperFunction,ComponentPad*%
%ADD17C,2.240000*%
%TD*%
%TA.AperFunction,ComponentPad*%
%ADD18C,2.740000*%
%TD*%
%TA.AperFunction,SMDPad,CuDef*%
%ADD19RoundRect,0.237500X0.237500X-0.250000X0.237500X0.250000X-0.237500X0.250000X-0.237500X-0.250000X0*%
%TD*%
%TA.AperFunction,SMDPad,CuDef*%
%ADD20RoundRect,0.237500X-0.250000X-0.237500X0.250000X-0.237500X0.250000X0.237500X-0.250000X0.237500X0*%
%TD*%
%TA.AperFunction,SMDPad,CuDef*%
%ADD21RoundRect,0.237500X-0.237500X0.250000X-0.237500X-0.250000X0.237500X-0.250000X0.237500X0.250000X0*%
%TD*%
%TA.AperFunction,SMDPad,CuDef*%
%ADD22RoundRect,0.237500X0.300000X0.237500X-0.300000X0.237500X-0.300000X-0.237500X0.300000X-0.237500X0*%
%TD*%
%TA.AperFunction,SMDPad,CuDef*%
%ADD23RoundRect,0.237500X-0.300000X-0.237500X0.300000X-0.237500X0.300000X0.237500X-0.300000X0.237500X0*%
%TD*%
%TA.AperFunction,SMDPad,CuDef*%
%ADD24R,0.950000X2.150000*%
%TD*%
%TA.AperFunction,SMDPad,CuDef*%
%ADD25R,3.250000X2.150000*%
%TD*%
%TA.AperFunction,SMDPad,CuDef*%
%ADD26RoundRect,0.237500X0.237500X-0.300000X0.237500X0.300000X-0.237500X0.300000X-0.237500X-0.300000X0*%
%TD*%
%TA.AperFunction,SMDPad,CuDef*%
%ADD27RoundRect,0.237500X-0.237500X0.300000X-0.237500X-0.300000X0.237500X-0.300000X0.237500X0.300000X0*%
%TD*%
%TA.AperFunction,SMDPad,CuDef*%
%ADD28RoundRect,0.250000X0.400000X0.275000X-0.400000X0.275000X-0.400000X-0.275000X0.400000X-0.275000X0*%
%TD*%
%TA.AperFunction,ComponentPad*%
%ADD29R,1.600000X1.600000*%
%TD*%
%TA.AperFunction,ComponentPad*%
%ADD30C,1.600000*%
%TD*%
%TA.AperFunction,SMDPad,CuDef*%
%ADD31O,0.250000X0.800000*%
%TD*%
%TA.AperFunction,SMDPad,CuDef*%
%ADD32O,0.800000X0.250000*%
%TD*%
%TA.AperFunction,SMDPad,CuDef*%
%ADD33R,2.700000X2.700000*%
%TD*%
%TA.AperFunction,SMDPad,CuDef*%
%ADD34RoundRect,0.250001X0.499999X0.924999X-0.499999X0.924999X-0.499999X-0.924999X0.499999X-0.924999X0*%
%TD*%
%TA.AperFunction,SMDPad,CuDef*%
%ADD35RoundRect,0.250000X0.275000X-0.400000X0.275000X0.400000X-0.275000X0.400000X-0.275000X-0.400000X0*%
%TD*%
%TA.AperFunction,SMDPad,CuDef*%
%ADD36RoundRect,0.250000X-0.450000X0.325000X-0.450000X-0.325000X0.450000X-0.325000X0.450000X0.325000X0*%
%TD*%
%TA.AperFunction,SMDPad,CuDef*%
%ADD37RoundRect,0.035000X-0.700000X-0.105000X0.700000X-0.105000X0.700000X0.105000X-0.700000X0.105000X0*%
%TD*%
%TA.AperFunction,SMDPad,CuDef*%
%ADD38RoundRect,0.035000X-0.105000X-0.700000X0.105000X-0.700000X0.105000X0.700000X-0.105000X0.700000X0*%
%TD*%
%TA.AperFunction,SMDPad,CuDef*%
%ADD39RoundRect,0.250000X-0.400000X-0.275000X0.400000X-0.275000X0.400000X0.275000X-0.400000X0.275000X0*%
%TD*%
%TA.AperFunction,SMDPad,CuDef*%
%ADD40RoundRect,0.100000X-1.100000X-0.900000X1.100000X-0.900000X1.100000X0.900000X-1.100000X0.900000X0*%
%TD*%
%TA.AperFunction,SMDPad,CuDef*%
%ADD41RoundRect,0.101600X-1.098400X-0.898400X1.098400X-0.898400X1.098400X0.898400X-1.098400X0.898400X0*%
%TD*%
%TA.AperFunction,SMDPad,CuDef*%
%ADD42RoundRect,0.237500X0.250000X0.237500X-0.250000X0.237500X-0.250000X-0.237500X0.250000X-0.237500X0*%
%TD*%
%TA.AperFunction,SMDPad,CuDef*%
%ADD43RoundRect,0.250000X0.325000X0.450000X-0.325000X0.450000X-0.325000X-0.450000X0.325000X-0.450000X0*%
%TD*%
%TA.AperFunction,SMDPad,CuDef*%
%ADD44R,1.404099X0.354800*%
%TD*%
%TA.AperFunction,SMDPad,CuDef*%
%ADD45RoundRect,0.150000X-0.512500X-0.150000X0.512500X-0.150000X0.512500X0.150000X-0.512500X0.150000X0*%
%TD*%
%TA.AperFunction,SMDPad,CuDef*%
%ADD46RoundRect,0.250000X-0.275000X0.400000X-0.275000X-0.400000X0.275000X-0.400000X0.275000X0.400000X0*%
%TD*%
%TA.AperFunction,ComponentPad*%
%ADD47C,1.200000*%
%TD*%
%TA.AperFunction,ViaPad*%
%ADD48C,0.600000*%
%TD*%
%TA.AperFunction,Conductor*%
%ADD49C,0.200000*%
%TD*%
%TA.AperFunction,Conductor*%
%ADD50C,0.500000*%
%TD*%
%TA.AperFunction,Conductor*%
%ADD51C,0.120000*%
%TD*%
%TA.AperFunction,Conductor*%
%ADD52C,0.650000*%
%TD*%
%TA.AperFunction,Conductor*%
%ADD53C,0.400000*%
%TD*%
%TA.AperFunction,Conductor*%
%ADD54C,0.300000*%
%TD*%
G04 APERTURE END LIST*
D10*
D11*
X177002200Y-166007200D02*
X285002200Y-166007200D01*
X285002200Y-198007200D01*
X177002200Y-198007200D01*
X177002200Y-166007200D01*
D10*
D11*
X10000000Y-10000000D02*
X287002200Y-10000000D01*
X287002200Y-200007200D01*
X10000000Y-200007200D01*
X10000000Y-10000000D01*
D10*
D11*
X12000000Y-12000000D02*
X285002200Y-12000000D01*
X285002200Y-198007200D01*
X12000000Y-198007200D01*
X12000000Y-12000000D01*
D10*
D11*
X60000000Y-12000000D02*
X60000000Y-10000000D01*
D10*
D11*
X110000000Y-12000000D02*
X110000000Y-10000000D01*
D10*
D11*
X160000000Y-12000000D02*
X160000000Y-10000000D01*
D10*
D11*
X210000000Y-12000000D02*
X210000000Y-10000000D01*
D10*
D11*
X260000000Y-12000000D02*
X260000000Y-10000000D01*
D10*
D11*
X36089160Y-11593604D02*
X35346303Y-11593604D01*
X35717731Y-11593604D02*
X35717731Y-10293604D01*
X35717731Y-10293604D02*
X35593922Y-10479319D01*
X35593922Y-10479319D02*
X35470112Y-10603128D01*
X35470112Y-10603128D02*
X35346303Y-10665033D01*
D10*
D11*
X85346303Y-10417414D02*
X85408207Y-10355509D01*
X85408207Y-10355509D02*
X85532017Y-10293604D01*
X85532017Y-10293604D02*
X85841541Y-10293604D01*
X85841541Y-10293604D02*
X85965350Y-10355509D01*
X85965350Y-10355509D02*
X86027255Y-10417414D01*
X86027255Y-10417414D02*
X86089160Y-10541223D01*
X86089160Y-10541223D02*
X86089160Y-10665033D01*
X86089160Y-10665033D02*
X86027255Y-10850747D01*
X86027255Y-10850747D02*
X85284398Y-11593604D01*
X85284398Y-11593604D02*
X86089160Y-11593604D01*
D10*
D11*
X135284398Y-10293604D02*
X136089160Y-10293604D01*
X136089160Y-10293604D02*
X135655826Y-10788842D01*
X135655826Y-10788842D02*
X135841541Y-10788842D01*
X135841541Y-10788842D02*
X135965350Y-10850747D01*
X135965350Y-10850747D02*
X136027255Y-10912652D01*
X136027255Y-10912652D02*
X136089160Y-11036461D01*
X136089160Y-11036461D02*
X136089160Y-11345985D01*
X136089160Y-11345985D02*
X136027255Y-11469795D01*
X136027255Y-11469795D02*
X135965350Y-11531700D01*
X135965350Y-11531700D02*
X135841541Y-11593604D01*
X135841541Y-11593604D02*
X135470112Y-11593604D01*
X135470112Y-11593604D02*
X135346303Y-11531700D01*
X135346303Y-11531700D02*
X135284398Y-11469795D01*
D10*
D11*
X185965350Y-10726938D02*
X185965350Y-11593604D01*
X185655826Y-10231700D02*
X185346303Y-11160271D01*
X185346303Y-11160271D02*
X186151064Y-11160271D01*
D10*
D11*
X236027255Y-10293604D02*
X235408207Y-10293604D01*
X235408207Y-10293604D02*
X235346303Y-10912652D01*
X235346303Y-10912652D02*
X235408207Y-10850747D01*
X235408207Y-10850747D02*
X235532017Y-10788842D01*
X235532017Y-10788842D02*
X235841541Y-10788842D01*
X235841541Y-10788842D02*
X235965350Y-10850747D01*
X235965350Y-10850747D02*
X236027255Y-10912652D01*
X236027255Y-10912652D02*
X236089160Y-11036461D01*
X236089160Y-11036461D02*
X236089160Y-11345985D01*
X236089160Y-11345985D02*
X236027255Y-11469795D01*
X236027255Y-11469795D02*
X235965350Y-11531700D01*
X235965350Y-11531700D02*
X235841541Y-11593604D01*
X235841541Y-11593604D02*
X235532017Y-11593604D01*
X235532017Y-11593604D02*
X235408207Y-11531700D01*
X235408207Y-11531700D02*
X235346303Y-11469795D01*
D10*
D11*
X285965350Y-10293604D02*
X285717731Y-10293604D01*
X285717731Y-10293604D02*
X285593922Y-10355509D01*
X285593922Y-10355509D02*
X285532017Y-10417414D01*
X285532017Y-10417414D02*
X285408207Y-10603128D01*
X285408207Y-10603128D02*
X285346303Y-10850747D01*
X285346303Y-10850747D02*
X285346303Y-11345985D01*
X285346303Y-11345985D02*
X285408207Y-11469795D01*
X285408207Y-11469795D02*
X285470112Y-11531700D01*
X285470112Y-11531700D02*
X285593922Y-11593604D01*
X285593922Y-11593604D02*
X285841541Y-11593604D01*
X285841541Y-11593604D02*
X285965350Y-11531700D01*
X285965350Y-11531700D02*
X286027255Y-11469795D01*
X286027255Y-11469795D02*
X286089160Y-11345985D01*
X286089160Y-11345985D02*
X286089160Y-11036461D01*
X286089160Y-11036461D02*
X286027255Y-10912652D01*
X286027255Y-10912652D02*
X285965350Y-10850747D01*
X285965350Y-10850747D02*
X285841541Y-10788842D01*
X285841541Y-10788842D02*
X285593922Y-10788842D01*
X285593922Y-10788842D02*
X285470112Y-10850747D01*
X285470112Y-10850747D02*
X285408207Y-10912652D01*
X285408207Y-10912652D02*
X285346303Y-11036461D01*
D10*
D11*
X60000000Y-198007200D02*
X60000000Y-200007200D01*
D10*
D11*
X110000000Y-198007200D02*
X110000000Y-200007200D01*
D10*
D11*
X160000000Y-198007200D02*
X160000000Y-200007200D01*
D10*
D11*
X210000000Y-198007200D02*
X210000000Y-200007200D01*
D10*
D11*
X260000000Y-198007200D02*
X260000000Y-200007200D01*
D10*
D11*
X36089160Y-199600804D02*
X35346303Y-199600804D01*
X35717731Y-199600804D02*
X35717731Y-198300804D01*
X35717731Y-198300804D02*
X35593922Y-198486519D01*
X35593922Y-198486519D02*
X35470112Y-198610328D01*
X35470112Y-198610328D02*
X35346303Y-198672233D01*
D10*
D11*
X85346303Y-198424614D02*
X85408207Y-198362709D01*
X85408207Y-198362709D02*
X85532017Y-198300804D01*
X85532017Y-198300804D02*
X85841541Y-198300804D01*
X85841541Y-198300804D02*
X85965350Y-198362709D01*
X85965350Y-198362709D02*
X86027255Y-198424614D01*
X86027255Y-198424614D02*
X86089160Y-198548423D01*
X86089160Y-198548423D02*
X86089160Y-198672233D01*
X86089160Y-198672233D02*
X86027255Y-198857947D01*
X86027255Y-198857947D02*
X85284398Y-199600804D01*
X85284398Y-199600804D02*
X86089160Y-199600804D01*
D10*
D11*
X135284398Y-198300804D02*
X136089160Y-198300804D01*
X136089160Y-198300804D02*
X135655826Y-198796042D01*
X135655826Y-198796042D02*
X135841541Y-198796042D01*
X135841541Y-198796042D02*
X135965350Y-198857947D01*
X135965350Y-198857947D02*
X136027255Y-198919852D01*
X136027255Y-198919852D02*
X136089160Y-199043661D01*
X136089160Y-199043661D02*
X136089160Y-199353185D01*
X136089160Y-199353185D02*
X136027255Y-199476995D01*
X136027255Y-199476995D02*
X135965350Y-199538900D01*
X135965350Y-199538900D02*
X135841541Y-199600804D01*
X135841541Y-199600804D02*
X135470112Y-199600804D01*
X135470112Y-199600804D02*
X135346303Y-199538900D01*
X135346303Y-199538900D02*
X135284398Y-199476995D01*
D10*
D11*
X185965350Y-198734138D02*
X185965350Y-199600804D01*
X185655826Y-198238900D02*
X185346303Y-199167471D01*
X185346303Y-199167471D02*
X186151064Y-199167471D01*
D10*
D11*
X236027255Y-198300804D02*
X235408207Y-198300804D01*
X235408207Y-198300804D02*
X235346303Y-198919852D01*
X235346303Y-198919852D02*
X235408207Y-198857947D01*
X235408207Y-198857947D02*
X235532017Y-198796042D01*
X235532017Y-198796042D02*
X235841541Y-198796042D01*
X235841541Y-198796042D02*
X235965350Y-198857947D01*
X235965350Y-198857947D02*
X236027255Y-198919852D01*
X236027255Y-198919852D02*
X236089160Y-199043661D01*
X236089160Y-199043661D02*
X236089160Y-199353185D01*
X236089160Y-199353185D02*
X236027255Y-199476995D01*
X236027255Y-199476995D02*
X235965350Y-199538900D01*
X235965350Y-199538900D02*
X235841541Y-199600804D01*
X235841541Y-199600804D02*
X235532017Y-199600804D01*
X235532017Y-199600804D02*
X235408207Y-199538900D01*
X235408207Y-199538900D02*
X235346303Y-199476995D01*
D10*
D11*
X285965350Y-198300804D02*
X285717731Y-198300804D01*
X285717731Y-198300804D02*
X285593922Y-198362709D01*
X285593922Y-198362709D02*
X285532017Y-198424614D01*
X285532017Y-198424614D02*
X285408207Y-198610328D01*
X285408207Y-198610328D02*
X285346303Y-198857947D01*
X285346303Y-198857947D02*
X285346303Y-199353185D01*
X285346303Y-199353185D02*
X285408207Y-199476995D01*
X285408207Y-199476995D02*
X285470112Y-199538900D01*
X285470112Y-199538900D02*
X285593922Y-199600804D01*
X285593922Y-199600804D02*
X285841541Y-199600804D01*
X285841541Y-199600804D02*
X285965350Y-199538900D01*
X285965350Y-199538900D02*
X286027255Y-199476995D01*
X286027255Y-199476995D02*
X286089160Y-199353185D01*
X286089160Y-199353185D02*
X286089160Y-199043661D01*
X286089160Y-199043661D02*
X286027255Y-198919852D01*
X286027255Y-198919852D02*
X285965350Y-198857947D01*
X285965350Y-198857947D02*
X285841541Y-198796042D01*
X285841541Y-198796042D02*
X285593922Y-198796042D01*
X285593922Y-198796042D02*
X285470112Y-198857947D01*
X285470112Y-198857947D02*
X285408207Y-198919852D01*
X285408207Y-198919852D02*
X285346303Y-199043661D01*
D10*
D11*
X10000000Y-60000000D02*
X12000000Y-60000000D01*
D10*
D11*
X10000000Y-110000000D02*
X12000000Y-110000000D01*
D10*
D11*
X10000000Y-160000000D02*
X12000000Y-160000000D01*
D10*
D11*
X10690476Y-35222176D02*
X11309523Y-35222176D01*
X10566666Y-35593604D02*
X10999999Y-34293604D01*
X10999999Y-34293604D02*
X11433333Y-35593604D01*
D10*
D11*
X11092857Y-84912652D02*
X11278571Y-84974557D01*
X11278571Y-84974557D02*
X11340476Y-85036461D01*
X11340476Y-85036461D02*
X11402380Y-85160271D01*
X11402380Y-85160271D02*
X11402380Y-85345985D01*
X11402380Y-85345985D02*
X11340476Y-85469795D01*
X11340476Y-85469795D02*
X11278571Y-85531700D01*
X11278571Y-85531700D02*
X11154761Y-85593604D01*
X11154761Y-85593604D02*
X10659523Y-85593604D01*
X10659523Y-85593604D02*
X10659523Y-84293604D01*
X10659523Y-84293604D02*
X11092857Y-84293604D01*
X11092857Y-84293604D02*
X11216666Y-84355509D01*
X11216666Y-84355509D02*
X11278571Y-84417414D01*
X11278571Y-84417414D02*
X11340476Y-84541223D01*
X11340476Y-84541223D02*
X11340476Y-84665033D01*
X11340476Y-84665033D02*
X11278571Y-84788842D01*
X11278571Y-84788842D02*
X11216666Y-84850747D01*
X11216666Y-84850747D02*
X11092857Y-84912652D01*
X11092857Y-84912652D02*
X10659523Y-84912652D01*
D10*
D11*
X11402380Y-135469795D02*
X11340476Y-135531700D01*
X11340476Y-135531700D02*
X11154761Y-135593604D01*
X11154761Y-135593604D02*
X11030952Y-135593604D01*
X11030952Y-135593604D02*
X10845238Y-135531700D01*
X10845238Y-135531700D02*
X10721428Y-135407890D01*
X10721428Y-135407890D02*
X10659523Y-135284080D01*
X10659523Y-135284080D02*
X10597619Y-135036461D01*
X10597619Y-135036461D02*
X10597619Y-134850747D01*
X10597619Y-134850747D02*
X10659523Y-134603128D01*
X10659523Y-134603128D02*
X10721428Y-134479319D01*
X10721428Y-134479319D02*
X10845238Y-134355509D01*
X10845238Y-134355509D02*
X11030952Y-134293604D01*
X11030952Y-134293604D02*
X11154761Y-134293604D01*
X11154761Y-134293604D02*
X11340476Y-134355509D01*
X11340476Y-134355509D02*
X11402380Y-134417414D01*
D10*
D11*
X10659523Y-185593604D02*
X10659523Y-184293604D01*
X10659523Y-184293604D02*
X10969047Y-184293604D01*
X10969047Y-184293604D02*
X11154761Y-184355509D01*
X11154761Y-184355509D02*
X11278571Y-184479319D01*
X11278571Y-184479319D02*
X11340476Y-184603128D01*
X11340476Y-184603128D02*
X11402380Y-184850747D01*
X11402380Y-184850747D02*
X11402380Y-185036461D01*
X11402380Y-185036461D02*
X11340476Y-185284080D01*
X11340476Y-185284080D02*
X11278571Y-185407890D01*
X11278571Y-185407890D02*
X11154761Y-185531700D01*
X11154761Y-185531700D02*
X10969047Y-185593604D01*
X10969047Y-185593604D02*
X10659523Y-185593604D01*
D10*
D11*
X287002200Y-60000000D02*
X285002200Y-60000000D01*
D10*
D11*
X287002200Y-110000000D02*
X285002200Y-110000000D01*
D10*
D11*
X287002200Y-160000000D02*
X285002200Y-160000000D01*
D10*
D11*
X285692676Y-35222176D02*
X286311723Y-35222176D01*
X285568866Y-35593604D02*
X286002199Y-34293604D01*
X286002199Y-34293604D02*
X286435533Y-35593604D01*
D10*
D11*
X286095057Y-84912652D02*
X286280771Y-84974557D01*
X286280771Y-84974557D02*
X286342676Y-85036461D01*
X286342676Y-85036461D02*
X286404580Y-85160271D01*
X286404580Y-85160271D02*
X286404580Y-85345985D01*
X286404580Y-85345985D02*
X286342676Y-85469795D01*
X286342676Y-85469795D02*
X286280771Y-85531700D01*
X286280771Y-85531700D02*
X286156961Y-85593604D01*
X286156961Y-85593604D02*
X285661723Y-85593604D01*
X285661723Y-85593604D02*
X285661723Y-84293604D01*
X285661723Y-84293604D02*
X286095057Y-84293604D01*
X286095057Y-84293604D02*
X286218866Y-84355509D01*
X286218866Y-84355509D02*
X286280771Y-84417414D01*
X286280771Y-84417414D02*
X286342676Y-84541223D01*
X286342676Y-84541223D02*
X286342676Y-84665033D01*
X286342676Y-84665033D02*
X286280771Y-84788842D01*
X286280771Y-84788842D02*
X286218866Y-84850747D01*
X286218866Y-84850747D02*
X286095057Y-84912652D01*
X286095057Y-84912652D02*
X285661723Y-84912652D01*
D10*
D11*
X286404580Y-135469795D02*
X286342676Y-135531700D01*
X286342676Y-135531700D02*
X286156961Y-135593604D01*
X286156961Y-135593604D02*
X286033152Y-135593604D01*
X286033152Y-135593604D02*
X285847438Y-135531700D01*
X285847438Y-135531700D02*
X285723628Y-135407890D01*
X285723628Y-135407890D02*
X285661723Y-135284080D01*
X285661723Y-135284080D02*
X285599819Y-135036461D01*
X285599819Y-135036461D02*
X285599819Y-134850747D01*
X285599819Y-134850747D02*
X285661723Y-134603128D01*
X285661723Y-134603128D02*
X285723628Y-134479319D01*
X285723628Y-134479319D02*
X285847438Y-134355509D01*
X285847438Y-134355509D02*
X286033152Y-134293604D01*
X286033152Y-134293604D02*
X286156961Y-134293604D01*
X286156961Y-134293604D02*
X286342676Y-134355509D01*
X286342676Y-134355509D02*
X286404580Y-134417414D01*
D10*
D11*
X285661723Y-185593604D02*
X285661723Y-184293604D01*
X285661723Y-184293604D02*
X285971247Y-184293604D01*
X285971247Y-184293604D02*
X286156961Y-184355509D01*
X286156961Y-184355509D02*
X286280771Y-184479319D01*
X286280771Y-184479319D02*
X286342676Y-184603128D01*
X286342676Y-184603128D02*
X286404580Y-184850747D01*
X286404580Y-184850747D02*
X286404580Y-185036461D01*
X286404580Y-185036461D02*
X286342676Y-185284080D01*
X286342676Y-185284080D02*
X286280771Y-185407890D01*
X286280771Y-185407890D02*
X286156961Y-185531700D01*
X286156961Y-185531700D02*
X285971247Y-185593604D01*
X285971247Y-185593604D02*
X285661723Y-185593604D01*
D10*
D11*
X200458026Y-193793328D02*
X200458026Y-192293328D01*
X200458026Y-192293328D02*
X200815169Y-192293328D01*
X200815169Y-192293328D02*
X201029455Y-192364757D01*
X201029455Y-192364757D02*
X201172312Y-192507614D01*
X201172312Y-192507614D02*
X201243741Y-192650471D01*
X201243741Y-192650471D02*
X201315169Y-192936185D01*
X201315169Y-192936185D02*
X201315169Y-193150471D01*
X201315169Y-193150471D02*
X201243741Y-193436185D01*
X201243741Y-193436185D02*
X201172312Y-193579042D01*
X201172312Y-193579042D02*
X201029455Y-193721900D01*
X201029455Y-193721900D02*
X200815169Y-193793328D01*
X200815169Y-193793328D02*
X200458026Y-193793328D01*
X202600884Y-193793328D02*
X202600884Y-193007614D01*
X202600884Y-193007614D02*
X202529455Y-192864757D01*
X202529455Y-192864757D02*
X202386598Y-192793328D01*
X202386598Y-192793328D02*
X202100884Y-192793328D01*
X202100884Y-192793328D02*
X201958026Y-192864757D01*
X202600884Y-193721900D02*
X202458026Y-193793328D01*
X202458026Y-193793328D02*
X202100884Y-193793328D01*
X202100884Y-193793328D02*
X201958026Y-193721900D01*
X201958026Y-193721900D02*
X201886598Y-193579042D01*
X201886598Y-193579042D02*
X201886598Y-193436185D01*
X201886598Y-193436185D02*
X201958026Y-193293328D01*
X201958026Y-193293328D02*
X202100884Y-193221900D01*
X202100884Y-193221900D02*
X202458026Y-193221900D01*
X202458026Y-193221900D02*
X202600884Y-193150471D01*
X203100884Y-192793328D02*
X203672312Y-192793328D01*
X203315169Y-192293328D02*
X203315169Y-193579042D01*
X203315169Y-193579042D02*
X203386598Y-193721900D01*
X203386598Y-193721900D02*
X203529455Y-193793328D01*
X203529455Y-193793328D02*
X203672312Y-193793328D01*
X204743741Y-193721900D02*
X204600884Y-193793328D01*
X204600884Y-193793328D02*
X204315170Y-193793328D01*
X204315170Y-193793328D02*
X204172312Y-193721900D01*
X204172312Y-193721900D02*
X204100884Y-193579042D01*
X204100884Y-193579042D02*
X204100884Y-193007614D01*
X204100884Y-193007614D02*
X204172312Y-192864757D01*
X204172312Y-192864757D02*
X204315170Y-192793328D01*
X204315170Y-192793328D02*
X204600884Y-192793328D01*
X204600884Y-192793328D02*
X204743741Y-192864757D01*
X204743741Y-192864757D02*
X204815170Y-193007614D01*
X204815170Y-193007614D02*
X204815170Y-193150471D01*
X204815170Y-193150471D02*
X204100884Y-193293328D01*
X205458026Y-193650471D02*
X205529455Y-193721900D01*
X205529455Y-193721900D02*
X205458026Y-193793328D01*
X205458026Y-193793328D02*
X205386598Y-193721900D01*
X205386598Y-193721900D02*
X205458026Y-193650471D01*
X205458026Y-193650471D02*
X205458026Y-193793328D01*
X205458026Y-192864757D02*
X205529455Y-192936185D01*
X205529455Y-192936185D02*
X205458026Y-193007614D01*
X205458026Y-193007614D02*
X205386598Y-192936185D01*
X205386598Y-192936185D02*
X205458026Y-192864757D01*
X205458026Y-192864757D02*
X205458026Y-193007614D01*
D10*
D11*
X177002200Y-194507200D02*
X285002200Y-194507200D01*
D10*
D11*
X178458026Y-196593328D02*
X178458026Y-195093328D01*
X179315169Y-196593328D02*
X178672312Y-195736185D01*
X179315169Y-195093328D02*
X178458026Y-195950471D01*
X179958026Y-196593328D02*
X179958026Y-195593328D01*
X179958026Y-195093328D02*
X179886598Y-195164757D01*
X179886598Y-195164757D02*
X179958026Y-195236185D01*
X179958026Y-195236185D02*
X180029455Y-195164757D01*
X180029455Y-195164757D02*
X179958026Y-195093328D01*
X179958026Y-195093328D02*
X179958026Y-195236185D01*
X181529455Y-196450471D02*
X181458027Y-196521900D01*
X181458027Y-196521900D02*
X181243741Y-196593328D01*
X181243741Y-196593328D02*
X181100884Y-196593328D01*
X181100884Y-196593328D02*
X180886598Y-196521900D01*
X180886598Y-196521900D02*
X180743741Y-196379042D01*
X180743741Y-196379042D02*
X180672312Y-196236185D01*
X180672312Y-196236185D02*
X180600884Y-195950471D01*
X180600884Y-195950471D02*
X180600884Y-195736185D01*
X180600884Y-195736185D02*
X180672312Y-195450471D01*
X180672312Y-195450471D02*
X180743741Y-195307614D01*
X180743741Y-195307614D02*
X180886598Y-195164757D01*
X180886598Y-195164757D02*
X181100884Y-195093328D01*
X181100884Y-195093328D02*
X181243741Y-195093328D01*
X181243741Y-195093328D02*
X181458027Y-195164757D01*
X181458027Y-195164757D02*
X181529455Y-195236185D01*
X182815170Y-196593328D02*
X182815170Y-195807614D01*
X182815170Y-195807614D02*
X182743741Y-195664757D01*
X182743741Y-195664757D02*
X182600884Y-195593328D01*
X182600884Y-195593328D02*
X182315170Y-195593328D01*
X182315170Y-195593328D02*
X182172312Y-195664757D01*
X182815170Y-196521900D02*
X182672312Y-196593328D01*
X182672312Y-196593328D02*
X182315170Y-196593328D01*
X182315170Y-196593328D02*
X182172312Y-196521900D01*
X182172312Y-196521900D02*
X182100884Y-196379042D01*
X182100884Y-196379042D02*
X182100884Y-196236185D01*
X182100884Y-196236185D02*
X182172312Y-196093328D01*
X182172312Y-196093328D02*
X182315170Y-196021900D01*
X182315170Y-196021900D02*
X182672312Y-196021900D01*
X182672312Y-196021900D02*
X182815170Y-195950471D01*
X184172313Y-196593328D02*
X184172313Y-195093328D01*
X184172313Y-196521900D02*
X184029455Y-196593328D01*
X184029455Y-196593328D02*
X183743741Y-196593328D01*
X183743741Y-196593328D02*
X183600884Y-196521900D01*
X183600884Y-196521900D02*
X183529455Y-196450471D01*
X183529455Y-196450471D02*
X183458027Y-196307614D01*
X183458027Y-196307614D02*
X183458027Y-195879042D01*
X183458027Y-195879042D02*
X183529455Y-195736185D01*
X183529455Y-195736185D02*
X183600884Y-195664757D01*
X183600884Y-195664757D02*
X183743741Y-195593328D01*
X183743741Y-195593328D02*
X184029455Y-195593328D01*
X184029455Y-195593328D02*
X184172313Y-195664757D01*
X186029455Y-195807614D02*
X186529455Y-195807614D01*
X186743741Y-196593328D02*
X186029455Y-196593328D01*
X186029455Y-196593328D02*
X186029455Y-195093328D01*
X186029455Y-195093328D02*
X186743741Y-195093328D01*
X187386598Y-196450471D02*
X187458027Y-196521900D01*
X187458027Y-196521900D02*
X187386598Y-196593328D01*
X187386598Y-196593328D02*
X187315170Y-196521900D01*
X187315170Y-196521900D02*
X187386598Y-196450471D01*
X187386598Y-196450471D02*
X187386598Y-196593328D01*
X188100884Y-196593328D02*
X188100884Y-195093328D01*
X188100884Y-195093328D02*
X188458027Y-195093328D01*
X188458027Y-195093328D02*
X188672313Y-195164757D01*
X188672313Y-195164757D02*
X188815170Y-195307614D01*
X188815170Y-195307614D02*
X188886599Y-195450471D01*
X188886599Y-195450471D02*
X188958027Y-195736185D01*
X188958027Y-195736185D02*
X188958027Y-195950471D01*
X188958027Y-195950471D02*
X188886599Y-196236185D01*
X188886599Y-196236185D02*
X188815170Y-196379042D01*
X188815170Y-196379042D02*
X188672313Y-196521900D01*
X188672313Y-196521900D02*
X188458027Y-196593328D01*
X188458027Y-196593328D02*
X188100884Y-196593328D01*
X189600884Y-196450471D02*
X189672313Y-196521900D01*
X189672313Y-196521900D02*
X189600884Y-196593328D01*
X189600884Y-196593328D02*
X189529456Y-196521900D01*
X189529456Y-196521900D02*
X189600884Y-196450471D01*
X189600884Y-196450471D02*
X189600884Y-196593328D01*
X190243742Y-196164757D02*
X190958028Y-196164757D01*
X190100885Y-196593328D02*
X190600885Y-195093328D01*
X190600885Y-195093328D02*
X191100885Y-196593328D01*
X191600884Y-196450471D02*
X191672313Y-196521900D01*
X191672313Y-196521900D02*
X191600884Y-196593328D01*
X191600884Y-196593328D02*
X191529456Y-196521900D01*
X191529456Y-196521900D02*
X191600884Y-196450471D01*
X191600884Y-196450471D02*
X191600884Y-196593328D01*
X193672313Y-195736185D02*
X193529456Y-195664757D01*
X193529456Y-195664757D02*
X193458027Y-195593328D01*
X193458027Y-195593328D02*
X193386599Y-195450471D01*
X193386599Y-195450471D02*
X193386599Y-195379042D01*
X193386599Y-195379042D02*
X193458027Y-195236185D01*
X193458027Y-195236185D02*
X193529456Y-195164757D01*
X193529456Y-195164757D02*
X193672313Y-195093328D01*
X193672313Y-195093328D02*
X193958027Y-195093328D01*
X193958027Y-195093328D02*
X194100885Y-195164757D01*
X194100885Y-195164757D02*
X194172313Y-195236185D01*
X194172313Y-195236185D02*
X194243742Y-195379042D01*
X194243742Y-195379042D02*
X194243742Y-195450471D01*
X194243742Y-195450471D02*
X194172313Y-195593328D01*
X194172313Y-195593328D02*
X194100885Y-195664757D01*
X194100885Y-195664757D02*
X193958027Y-195736185D01*
X193958027Y-195736185D02*
X193672313Y-195736185D01*
X193672313Y-195736185D02*
X193529456Y-195807614D01*
X193529456Y-195807614D02*
X193458027Y-195879042D01*
X193458027Y-195879042D02*
X193386599Y-196021900D01*
X193386599Y-196021900D02*
X193386599Y-196307614D01*
X193386599Y-196307614D02*
X193458027Y-196450471D01*
X193458027Y-196450471D02*
X193529456Y-196521900D01*
X193529456Y-196521900D02*
X193672313Y-196593328D01*
X193672313Y-196593328D02*
X193958027Y-196593328D01*
X193958027Y-196593328D02*
X194100885Y-196521900D01*
X194100885Y-196521900D02*
X194172313Y-196450471D01*
X194172313Y-196450471D02*
X194243742Y-196307614D01*
X194243742Y-196307614D02*
X194243742Y-196021900D01*
X194243742Y-196021900D02*
X194172313Y-195879042D01*
X194172313Y-195879042D02*
X194100885Y-195807614D01*
X194100885Y-195807614D02*
X193958027Y-195736185D01*
X194886598Y-196450471D02*
X194958027Y-196521900D01*
X194958027Y-196521900D02*
X194886598Y-196593328D01*
X194886598Y-196593328D02*
X194815170Y-196521900D01*
X194815170Y-196521900D02*
X194886598Y-196450471D01*
X194886598Y-196450471D02*
X194886598Y-196593328D01*
X195886599Y-195093328D02*
X196029456Y-195093328D01*
X196029456Y-195093328D02*
X196172313Y-195164757D01*
X196172313Y-195164757D02*
X196243742Y-195236185D01*
X196243742Y-195236185D02*
X196315170Y-195379042D01*
X196315170Y-195379042D02*
X196386599Y-195664757D01*
X196386599Y-195664757D02*
X196386599Y-196021900D01*
X196386599Y-196021900D02*
X196315170Y-196307614D01*
X196315170Y-196307614D02*
X196243742Y-196450471D01*
X196243742Y-196450471D02*
X196172313Y-196521900D01*
X196172313Y-196521900D02*
X196029456Y-196593328D01*
X196029456Y-196593328D02*
X195886599Y-196593328D01*
X195886599Y-196593328D02*
X195743742Y-196521900D01*
X195743742Y-196521900D02*
X195672313Y-196450471D01*
X195672313Y-196450471D02*
X195600884Y-196307614D01*
X195600884Y-196307614D02*
X195529456Y-196021900D01*
X195529456Y-196021900D02*
X195529456Y-195664757D01*
X195529456Y-195664757D02*
X195600884Y-195379042D01*
X195600884Y-195379042D02*
X195672313Y-195236185D01*
X195672313Y-195236185D02*
X195743742Y-195164757D01*
X195743742Y-195164757D02*
X195886599Y-195093328D01*
X197029455Y-196450471D02*
X197100884Y-196521900D01*
X197100884Y-196521900D02*
X197029455Y-196593328D01*
X197029455Y-196593328D02*
X196958027Y-196521900D01*
X196958027Y-196521900D02*
X197029455Y-196450471D01*
X197029455Y-196450471D02*
X197029455Y-196593328D01*
X198386599Y-195593328D02*
X198386599Y-196593328D01*
X198029456Y-195021900D02*
X197672313Y-196093328D01*
X197672313Y-196093328D02*
X198600884Y-196093328D01*
D10*
D11*
X177002200Y-191507200D02*
X285002200Y-191507200D01*
D10*
D12*
X264413853Y-193785528D02*
X263913853Y-193071242D01*
X263556710Y-193785528D02*
X263556710Y-192285528D01*
X263556710Y-192285528D02*
X264128139Y-192285528D01*
X264128139Y-192285528D02*
X264270996Y-192356957D01*
X264270996Y-192356957D02*
X264342425Y-192428385D01*
X264342425Y-192428385D02*
X264413853Y-192571242D01*
X264413853Y-192571242D02*
X264413853Y-192785528D01*
X264413853Y-192785528D02*
X264342425Y-192928385D01*
X264342425Y-192928385D02*
X264270996Y-192999814D01*
X264270996Y-192999814D02*
X264128139Y-193071242D01*
X264128139Y-193071242D02*
X263556710Y-193071242D01*
X265628139Y-193714100D02*
X265485282Y-193785528D01*
X265485282Y-193785528D02*
X265199568Y-193785528D01*
X265199568Y-193785528D02*
X265056710Y-193714100D01*
X265056710Y-193714100D02*
X264985282Y-193571242D01*
X264985282Y-193571242D02*
X264985282Y-192999814D01*
X264985282Y-192999814D02*
X265056710Y-192856957D01*
X265056710Y-192856957D02*
X265199568Y-192785528D01*
X265199568Y-192785528D02*
X265485282Y-192785528D01*
X265485282Y-192785528D02*
X265628139Y-192856957D01*
X265628139Y-192856957D02*
X265699568Y-192999814D01*
X265699568Y-192999814D02*
X265699568Y-193142671D01*
X265699568Y-193142671D02*
X264985282Y-193285528D01*
X266199567Y-192785528D02*
X266556710Y-193785528D01*
X266556710Y-193785528D02*
X266913853Y-192785528D01*
X267485281Y-193642671D02*
X267556710Y-193714100D01*
X267556710Y-193714100D02*
X267485281Y-193785528D01*
X267485281Y-193785528D02*
X267413853Y-193714100D01*
X267413853Y-193714100D02*
X267485281Y-193642671D01*
X267485281Y-193642671D02*
X267485281Y-193785528D01*
X267485281Y-192856957D02*
X267556710Y-192928385D01*
X267556710Y-192928385D02*
X267485281Y-192999814D01*
X267485281Y-192999814D02*
X267413853Y-192928385D01*
X267413853Y-192928385D02*
X267485281Y-192856957D01*
X267485281Y-192856957D02*
X267485281Y-192999814D01*
D10*
D11*
X178386598Y-193721900D02*
X178600884Y-193793328D01*
X178600884Y-193793328D02*
X178958026Y-193793328D01*
X178958026Y-193793328D02*
X179100884Y-193721900D01*
X179100884Y-193721900D02*
X179172312Y-193650471D01*
X179172312Y-193650471D02*
X179243741Y-193507614D01*
X179243741Y-193507614D02*
X179243741Y-193364757D01*
X179243741Y-193364757D02*
X179172312Y-193221900D01*
X179172312Y-193221900D02*
X179100884Y-193150471D01*
X179100884Y-193150471D02*
X178958026Y-193079042D01*
X178958026Y-193079042D02*
X178672312Y-193007614D01*
X178672312Y-193007614D02*
X178529455Y-192936185D01*
X178529455Y-192936185D02*
X178458026Y-192864757D01*
X178458026Y-192864757D02*
X178386598Y-192721900D01*
X178386598Y-192721900D02*
X178386598Y-192579042D01*
X178386598Y-192579042D02*
X178458026Y-192436185D01*
X178458026Y-192436185D02*
X178529455Y-192364757D01*
X178529455Y-192364757D02*
X178672312Y-192293328D01*
X178672312Y-192293328D02*
X179029455Y-192293328D01*
X179029455Y-192293328D02*
X179243741Y-192364757D01*
X179886597Y-193793328D02*
X179886597Y-192793328D01*
X179886597Y-192293328D02*
X179815169Y-192364757D01*
X179815169Y-192364757D02*
X179886597Y-192436185D01*
X179886597Y-192436185D02*
X179958026Y-192364757D01*
X179958026Y-192364757D02*
X179886597Y-192293328D01*
X179886597Y-192293328D02*
X179886597Y-192436185D01*
X180458026Y-192793328D02*
X181243741Y-192793328D01*
X181243741Y-192793328D02*
X180458026Y-193793328D01*
X180458026Y-193793328D02*
X181243741Y-193793328D01*
X182386598Y-193721900D02*
X182243741Y-193793328D01*
X182243741Y-193793328D02*
X181958027Y-193793328D01*
X181958027Y-193793328D02*
X181815169Y-193721900D01*
X181815169Y-193721900D02*
X181743741Y-193579042D01*
X181743741Y-193579042D02*
X181743741Y-193007614D01*
X181743741Y-193007614D02*
X181815169Y-192864757D01*
X181815169Y-192864757D02*
X181958027Y-192793328D01*
X181958027Y-192793328D02*
X182243741Y-192793328D01*
X182243741Y-192793328D02*
X182386598Y-192864757D01*
X182386598Y-192864757D02*
X182458027Y-193007614D01*
X182458027Y-193007614D02*
X182458027Y-193150471D01*
X182458027Y-193150471D02*
X181743741Y-193293328D01*
X183100883Y-193650471D02*
X183172312Y-193721900D01*
X183172312Y-193721900D02*
X183100883Y-193793328D01*
X183100883Y-193793328D02*
X183029455Y-193721900D01*
X183029455Y-193721900D02*
X183100883Y-193650471D01*
X183100883Y-193650471D02*
X183100883Y-193793328D01*
X183100883Y-192864757D02*
X183172312Y-192936185D01*
X183172312Y-192936185D02*
X183100883Y-193007614D01*
X183100883Y-193007614D02*
X183029455Y-192936185D01*
X183029455Y-192936185D02*
X183100883Y-192864757D01*
X183100883Y-192864757D02*
X183100883Y-193007614D01*
X184886598Y-193364757D02*
X185600884Y-193364757D01*
X184743741Y-193793328D02*
X185243741Y-192293328D01*
X185243741Y-192293328D02*
X185743741Y-193793328D01*
X186886598Y-192793328D02*
X186886598Y-193793328D01*
X186529455Y-192221900D02*
X186172312Y-193293328D01*
X186172312Y-193293328D02*
X187100883Y-193293328D01*
D10*
D11*
X263458026Y-196593328D02*
X263458026Y-195093328D01*
X264815170Y-196593328D02*
X264815170Y-195093328D01*
X264815170Y-196521900D02*
X264672312Y-196593328D01*
X264672312Y-196593328D02*
X264386598Y-196593328D01*
X264386598Y-196593328D02*
X264243741Y-196521900D01*
X264243741Y-196521900D02*
X264172312Y-196450471D01*
X264172312Y-196450471D02*
X264100884Y-196307614D01*
X264100884Y-196307614D02*
X264100884Y-195879042D01*
X264100884Y-195879042D02*
X264172312Y-195736185D01*
X264172312Y-195736185D02*
X264243741Y-195664757D01*
X264243741Y-195664757D02*
X264386598Y-195593328D01*
X264386598Y-195593328D02*
X264672312Y-195593328D01*
X264672312Y-195593328D02*
X264815170Y-195664757D01*
X265529455Y-196450471D02*
X265600884Y-196521900D01*
X265600884Y-196521900D02*
X265529455Y-196593328D01*
X265529455Y-196593328D02*
X265458027Y-196521900D01*
X265458027Y-196521900D02*
X265529455Y-196450471D01*
X265529455Y-196450471D02*
X265529455Y-196593328D01*
X265529455Y-195664757D02*
X265600884Y-195736185D01*
X265600884Y-195736185D02*
X265529455Y-195807614D01*
X265529455Y-195807614D02*
X265458027Y-195736185D01*
X265458027Y-195736185D02*
X265529455Y-195664757D01*
X265529455Y-195664757D02*
X265529455Y-195807614D01*
X268172313Y-196593328D02*
X267315170Y-196593328D01*
X267743741Y-196593328D02*
X267743741Y-195093328D01*
X267743741Y-195093328D02*
X267600884Y-195307614D01*
X267600884Y-195307614D02*
X267458027Y-195450471D01*
X267458027Y-195450471D02*
X267315170Y-195521900D01*
X269886598Y-195021900D02*
X268600884Y-196950471D01*
X271172313Y-196593328D02*
X270315170Y-196593328D01*
X270743741Y-196593328D02*
X270743741Y-195093328D01*
X270743741Y-195093328D02*
X270600884Y-195307614D01*
X270600884Y-195307614D02*
X270458027Y-195450471D01*
X270458027Y-195450471D02*
X270315170Y-195521900D01*
D10*
D11*
X177002200Y-187507200D02*
X285002200Y-187507200D01*
D10*
D13*
X178693928Y-188211638D02*
X179836785Y-188211638D01*
X179015357Y-190211638D02*
X179265357Y-188211638D01*
X180253452Y-190211638D02*
X180420119Y-188878304D01*
X180503452Y-188211638D02*
X180396309Y-188306876D01*
X180396309Y-188306876D02*
X180479643Y-188402114D01*
X180479643Y-188402114D02*
X180586786Y-188306876D01*
X180586786Y-188306876D02*
X180503452Y-188211638D01*
X180503452Y-188211638D02*
X180479643Y-188402114D01*
X181086786Y-188878304D02*
X181848690Y-188878304D01*
X181455833Y-188211638D02*
X181241548Y-189925923D01*
X181241548Y-189925923D02*
X181312976Y-190116400D01*
X181312976Y-190116400D02*
X181491548Y-190211638D01*
X181491548Y-190211638D02*
X181682024Y-190211638D01*
X182634405Y-190211638D02*
X182455833Y-190116400D01*
X182455833Y-190116400D02*
X182384405Y-189925923D01*
X182384405Y-189925923D02*
X182598690Y-188211638D01*
X184170119Y-190116400D02*
X183967738Y-190211638D01*
X183967738Y-190211638D02*
X183586785Y-190211638D01*
X183586785Y-190211638D02*
X183408214Y-190116400D01*
X183408214Y-190116400D02*
X183336785Y-189925923D01*
X183336785Y-189925923D02*
X183432024Y-189164019D01*
X183432024Y-189164019D02*
X183551071Y-188973542D01*
X183551071Y-188973542D02*
X183753452Y-188878304D01*
X183753452Y-188878304D02*
X184134404Y-188878304D01*
X184134404Y-188878304D02*
X184312976Y-188973542D01*
X184312976Y-188973542D02*
X184384404Y-189164019D01*
X184384404Y-189164019D02*
X184360595Y-189354495D01*
X184360595Y-189354495D02*
X183384404Y-189544971D01*
X185134405Y-190021161D02*
X185217738Y-190116400D01*
X185217738Y-190116400D02*
X185110595Y-190211638D01*
X185110595Y-190211638D02*
X185027262Y-190116400D01*
X185027262Y-190116400D02*
X185134405Y-190021161D01*
X185134405Y-190021161D02*
X185110595Y-190211638D01*
X185265357Y-188973542D02*
X185348690Y-189068780D01*
X185348690Y-189068780D02*
X185241548Y-189164019D01*
X185241548Y-189164019D02*
X185158214Y-189068780D01*
X185158214Y-189068780D02*
X185265357Y-188973542D01*
X185265357Y-188973542D02*
X185241548Y-189164019D01*
D10*
D11*
X178958026Y-185607614D02*
X178458026Y-185607614D01*
X178458026Y-186393328D02*
X178458026Y-184893328D01*
X178458026Y-184893328D02*
X179172312Y-184893328D01*
X179743740Y-186393328D02*
X179743740Y-185393328D01*
X179743740Y-184893328D02*
X179672312Y-184964757D01*
X179672312Y-184964757D02*
X179743740Y-185036185D01*
X179743740Y-185036185D02*
X179815169Y-184964757D01*
X179815169Y-184964757D02*
X179743740Y-184893328D01*
X179743740Y-184893328D02*
X179743740Y-185036185D01*
X180672312Y-186393328D02*
X180529455Y-186321900D01*
X180529455Y-186321900D02*
X180458026Y-186179042D01*
X180458026Y-186179042D02*
X180458026Y-184893328D01*
X181815169Y-186321900D02*
X181672312Y-186393328D01*
X181672312Y-186393328D02*
X181386598Y-186393328D01*
X181386598Y-186393328D02*
X181243740Y-186321900D01*
X181243740Y-186321900D02*
X181172312Y-186179042D01*
X181172312Y-186179042D02*
X181172312Y-185607614D01*
X181172312Y-185607614D02*
X181243740Y-185464757D01*
X181243740Y-185464757D02*
X181386598Y-185393328D01*
X181386598Y-185393328D02*
X181672312Y-185393328D01*
X181672312Y-185393328D02*
X181815169Y-185464757D01*
X181815169Y-185464757D02*
X181886598Y-185607614D01*
X181886598Y-185607614D02*
X181886598Y-185750471D01*
X181886598Y-185750471D02*
X181172312Y-185893328D01*
X182529454Y-186250471D02*
X182600883Y-186321900D01*
X182600883Y-186321900D02*
X182529454Y-186393328D01*
X182529454Y-186393328D02*
X182458026Y-186321900D01*
X182458026Y-186321900D02*
X182529454Y-186250471D01*
X182529454Y-186250471D02*
X182529454Y-186393328D01*
X182529454Y-185464757D02*
X182600883Y-185536185D01*
X182600883Y-185536185D02*
X182529454Y-185607614D01*
X182529454Y-185607614D02*
X182458026Y-185536185D01*
X182458026Y-185536185D02*
X182529454Y-185464757D01*
X182529454Y-185464757D02*
X182529454Y-185607614D01*
X184315169Y-186321900D02*
X184458026Y-186393328D01*
X184458026Y-186393328D02*
X184743740Y-186393328D01*
X184743740Y-186393328D02*
X184886597Y-186321900D01*
X184886597Y-186321900D02*
X184958026Y-186179042D01*
X184958026Y-186179042D02*
X184958026Y-186107614D01*
X184958026Y-186107614D02*
X184886597Y-185964757D01*
X184886597Y-185964757D02*
X184743740Y-185893328D01*
X184743740Y-185893328D02*
X184529455Y-185893328D01*
X184529455Y-185893328D02*
X184386597Y-185821900D01*
X184386597Y-185821900D02*
X184315169Y-185679042D01*
X184315169Y-185679042D02*
X184315169Y-185607614D01*
X184315169Y-185607614D02*
X184386597Y-185464757D01*
X184386597Y-185464757D02*
X184529455Y-185393328D01*
X184529455Y-185393328D02*
X184743740Y-185393328D01*
X184743740Y-185393328D02*
X184886597Y-185464757D01*
X185458026Y-185393328D02*
X185815169Y-186393328D01*
X186172312Y-185393328D02*
X185815169Y-186393328D01*
X185815169Y-186393328D02*
X185672312Y-186750471D01*
X185672312Y-186750471D02*
X185600883Y-186821900D01*
X185600883Y-186821900D02*
X185458026Y-186893328D01*
X186600883Y-185393328D02*
X187386598Y-185393328D01*
X187386598Y-185393328D02*
X186600883Y-186393328D01*
X186600883Y-186393328D02*
X187386598Y-186393328D01*
X187815169Y-185393328D02*
X188172312Y-186393328D01*
X188529455Y-185393328D02*
X188172312Y-186393328D01*
X188172312Y-186393328D02*
X188029455Y-186750471D01*
X188029455Y-186750471D02*
X187958026Y-186821900D01*
X187958026Y-186821900D02*
X187815169Y-186893328D01*
X189743741Y-185393328D02*
X189743741Y-186607614D01*
X189743741Y-186607614D02*
X189672312Y-186750471D01*
X189672312Y-186750471D02*
X189600883Y-186821900D01*
X189600883Y-186821900D02*
X189458026Y-186893328D01*
X189458026Y-186893328D02*
X189243741Y-186893328D01*
X189243741Y-186893328D02*
X189100883Y-186821900D01*
X189743741Y-186321900D02*
X189600883Y-186393328D01*
X189600883Y-186393328D02*
X189315169Y-186393328D01*
X189315169Y-186393328D02*
X189172312Y-186321900D01*
X189172312Y-186321900D02*
X189100883Y-186250471D01*
X189100883Y-186250471D02*
X189029455Y-186107614D01*
X189029455Y-186107614D02*
X189029455Y-185679042D01*
X189029455Y-185679042D02*
X189100883Y-185536185D01*
X189100883Y-185536185D02*
X189172312Y-185464757D01*
X189172312Y-185464757D02*
X189315169Y-185393328D01*
X189315169Y-185393328D02*
X189600883Y-185393328D01*
X189600883Y-185393328D02*
X189743741Y-185464757D01*
X190315169Y-185393328D02*
X190672312Y-186393328D01*
X191029455Y-185393328D02*
X190672312Y-186393328D01*
X190672312Y-186393328D02*
X190529455Y-186750471D01*
X190529455Y-186750471D02*
X190458026Y-186821900D01*
X190458026Y-186821900D02*
X190315169Y-186893328D01*
X191243741Y-186536185D02*
X192386598Y-186536185D01*
X193386598Y-185393328D02*
X193386598Y-186607614D01*
X193386598Y-186607614D02*
X193315169Y-186750471D01*
X193315169Y-186750471D02*
X193243740Y-186821900D01*
X193243740Y-186821900D02*
X193100883Y-186893328D01*
X193100883Y-186893328D02*
X192886598Y-186893328D01*
X192886598Y-186893328D02*
X192743740Y-186821900D01*
X193386598Y-186321900D02*
X193243740Y-186393328D01*
X193243740Y-186393328D02*
X192958026Y-186393328D01*
X192958026Y-186393328D02*
X192815169Y-186321900D01*
X192815169Y-186321900D02*
X192743740Y-186250471D01*
X192743740Y-186250471D02*
X192672312Y-186107614D01*
X192672312Y-186107614D02*
X192672312Y-185679042D01*
X192672312Y-185679042D02*
X192743740Y-185536185D01*
X192743740Y-185536185D02*
X192815169Y-185464757D01*
X192815169Y-185464757D02*
X192958026Y-185393328D01*
X192958026Y-185393328D02*
X193243740Y-185393328D01*
X193243740Y-185393328D02*
X193386598Y-185464757D01*
X194100883Y-185393328D02*
X194100883Y-186893328D01*
X194100883Y-185464757D02*
X194243741Y-185393328D01*
X194243741Y-185393328D02*
X194529455Y-185393328D01*
X194529455Y-185393328D02*
X194672312Y-185464757D01*
X194672312Y-185464757D02*
X194743741Y-185536185D01*
X194743741Y-185536185D02*
X194815169Y-185679042D01*
X194815169Y-185679042D02*
X194815169Y-186107614D01*
X194815169Y-186107614D02*
X194743741Y-186250471D01*
X194743741Y-186250471D02*
X194672312Y-186321900D01*
X194672312Y-186321900D02*
X194529455Y-186393328D01*
X194529455Y-186393328D02*
X194243741Y-186393328D01*
X194243741Y-186393328D02*
X194100883Y-186321900D01*
X195315169Y-186393328D02*
X196100884Y-185393328D01*
X195315169Y-185393328D02*
X196100884Y-186393328D01*
X196600884Y-185036185D02*
X196672312Y-184964757D01*
X196672312Y-184964757D02*
X196815170Y-184893328D01*
X196815170Y-184893328D02*
X197172312Y-184893328D01*
X197172312Y-184893328D02*
X197315170Y-184964757D01*
X197315170Y-184964757D02*
X197386598Y-185036185D01*
X197386598Y-185036185D02*
X197458027Y-185179042D01*
X197458027Y-185179042D02*
X197458027Y-185321900D01*
X197458027Y-185321900D02*
X197386598Y-185536185D01*
X197386598Y-185536185D02*
X196529455Y-186393328D01*
X196529455Y-186393328D02*
X197458027Y-186393328D01*
X197743741Y-186536185D02*
X198886598Y-186536185D01*
X199172312Y-185036185D02*
X199243740Y-184964757D01*
X199243740Y-184964757D02*
X199386598Y-184893328D01*
X199386598Y-184893328D02*
X199743740Y-184893328D01*
X199743740Y-184893328D02*
X199886598Y-184964757D01*
X199886598Y-184964757D02*
X199958026Y-185036185D01*
X199958026Y-185036185D02*
X200029455Y-185179042D01*
X200029455Y-185179042D02*
X200029455Y-185321900D01*
X200029455Y-185321900D02*
X199958026Y-185536185D01*
X199958026Y-185536185D02*
X199100883Y-186393328D01*
X199100883Y-186393328D02*
X200029455Y-186393328D01*
X200315169Y-186536185D02*
X201458026Y-186536185D01*
X202600883Y-186393328D02*
X201743740Y-186393328D01*
X202172311Y-186393328D02*
X202172311Y-184893328D01*
X202172311Y-184893328D02*
X202029454Y-185107614D01*
X202029454Y-185107614D02*
X201886597Y-185250471D01*
X201886597Y-185250471D02*
X201743740Y-185321900D01*
X203243739Y-186250471D02*
X203315168Y-186321900D01*
X203315168Y-186321900D02*
X203243739Y-186393328D01*
X203243739Y-186393328D02*
X203172311Y-186321900D01*
X203172311Y-186321900D02*
X203243739Y-186250471D01*
X203243739Y-186250471D02*
X203243739Y-186393328D01*
X203958025Y-186393328D02*
X203958025Y-184893328D01*
X204100883Y-185821900D02*
X204529454Y-186393328D01*
X204529454Y-185393328D02*
X203958025Y-185964757D01*
X205172311Y-186393328D02*
X205172311Y-185393328D01*
X205172311Y-184893328D02*
X205100883Y-184964757D01*
X205100883Y-184964757D02*
X205172311Y-185036185D01*
X205172311Y-185036185D02*
X205243740Y-184964757D01*
X205243740Y-184964757D02*
X205172311Y-184893328D01*
X205172311Y-184893328D02*
X205172311Y-185036185D01*
X206529455Y-186321900D02*
X206386597Y-186393328D01*
X206386597Y-186393328D02*
X206100883Y-186393328D01*
X206100883Y-186393328D02*
X205958026Y-186321900D01*
X205958026Y-186321900D02*
X205886597Y-186250471D01*
X205886597Y-186250471D02*
X205815169Y-186107614D01*
X205815169Y-186107614D02*
X205815169Y-185679042D01*
X205815169Y-185679042D02*
X205886597Y-185536185D01*
X205886597Y-185536185D02*
X205958026Y-185464757D01*
X205958026Y-185464757D02*
X206100883Y-185393328D01*
X206100883Y-185393328D02*
X206386597Y-185393328D01*
X206386597Y-185393328D02*
X206529455Y-185464757D01*
X207815169Y-186393328D02*
X207815169Y-185607614D01*
X207815169Y-185607614D02*
X207743740Y-185464757D01*
X207743740Y-185464757D02*
X207600883Y-185393328D01*
X207600883Y-185393328D02*
X207315169Y-185393328D01*
X207315169Y-185393328D02*
X207172311Y-185464757D01*
X207815169Y-186321900D02*
X207672311Y-186393328D01*
X207672311Y-186393328D02*
X207315169Y-186393328D01*
X207315169Y-186393328D02*
X207172311Y-186321900D01*
X207172311Y-186321900D02*
X207100883Y-186179042D01*
X207100883Y-186179042D02*
X207100883Y-186036185D01*
X207100883Y-186036185D02*
X207172311Y-185893328D01*
X207172311Y-185893328D02*
X207315169Y-185821900D01*
X207315169Y-185821900D02*
X207672311Y-185821900D01*
X207672311Y-185821900D02*
X207815169Y-185750471D01*
X209172312Y-186393328D02*
X209172312Y-184893328D01*
X209172312Y-186321900D02*
X209029454Y-186393328D01*
X209029454Y-186393328D02*
X208743740Y-186393328D01*
X208743740Y-186393328D02*
X208600883Y-186321900D01*
X208600883Y-186321900D02*
X208529454Y-186250471D01*
X208529454Y-186250471D02*
X208458026Y-186107614D01*
X208458026Y-186107614D02*
X208458026Y-185679042D01*
X208458026Y-185679042D02*
X208529454Y-185536185D01*
X208529454Y-185536185D02*
X208600883Y-185464757D01*
X208600883Y-185464757D02*
X208743740Y-185393328D01*
X208743740Y-185393328D02*
X209029454Y-185393328D01*
X209029454Y-185393328D02*
X209172312Y-185464757D01*
X209529455Y-186536185D02*
X210672312Y-186536185D01*
X211029454Y-185393328D02*
X211029454Y-186893328D01*
X211029454Y-185464757D02*
X211172312Y-185393328D01*
X211172312Y-185393328D02*
X211458026Y-185393328D01*
X211458026Y-185393328D02*
X211600883Y-185464757D01*
X211600883Y-185464757D02*
X211672312Y-185536185D01*
X211672312Y-185536185D02*
X211743740Y-185679042D01*
X211743740Y-185679042D02*
X211743740Y-186107614D01*
X211743740Y-186107614D02*
X211672312Y-186250471D01*
X211672312Y-186250471D02*
X211600883Y-186321900D01*
X211600883Y-186321900D02*
X211458026Y-186393328D01*
X211458026Y-186393328D02*
X211172312Y-186393328D01*
X211172312Y-186393328D02*
X211029454Y-186321900D01*
X213029455Y-186321900D02*
X212886597Y-186393328D01*
X212886597Y-186393328D02*
X212600883Y-186393328D01*
X212600883Y-186393328D02*
X212458026Y-186321900D01*
X212458026Y-186321900D02*
X212386597Y-186250471D01*
X212386597Y-186250471D02*
X212315169Y-186107614D01*
X212315169Y-186107614D02*
X212315169Y-185679042D01*
X212315169Y-185679042D02*
X212386597Y-185536185D01*
X212386597Y-185536185D02*
X212458026Y-185464757D01*
X212458026Y-185464757D02*
X212600883Y-185393328D01*
X212600883Y-185393328D02*
X212886597Y-185393328D01*
X212886597Y-185393328D02*
X213029455Y-185464757D01*
X213672311Y-186393328D02*
X213672311Y-184893328D01*
X213672311Y-185464757D02*
X213815169Y-185393328D01*
X213815169Y-185393328D02*
X214100883Y-185393328D01*
X214100883Y-185393328D02*
X214243740Y-185464757D01*
X214243740Y-185464757D02*
X214315169Y-185536185D01*
X214315169Y-185536185D02*
X214386597Y-185679042D01*
X214386597Y-185679042D02*
X214386597Y-186107614D01*
X214386597Y-186107614D02*
X214315169Y-186250471D01*
X214315169Y-186250471D02*
X214243740Y-186321900D01*
X214243740Y-186321900D02*
X214100883Y-186393328D01*
X214100883Y-186393328D02*
X213815169Y-186393328D01*
X213815169Y-186393328D02*
X213672311Y-186321900D01*
D10*
D11*
X177002200Y-181507200D02*
X285002200Y-181507200D01*
D10*
D11*
X178386598Y-183621900D02*
X178600884Y-183693328D01*
X178600884Y-183693328D02*
X178958026Y-183693328D01*
X178958026Y-183693328D02*
X179100884Y-183621900D01*
X179100884Y-183621900D02*
X179172312Y-183550471D01*
X179172312Y-183550471D02*
X179243741Y-183407614D01*
X179243741Y-183407614D02*
X179243741Y-183264757D01*
X179243741Y-183264757D02*
X179172312Y-183121900D01*
X179172312Y-183121900D02*
X179100884Y-183050471D01*
X179100884Y-183050471D02*
X178958026Y-182979042D01*
X178958026Y-182979042D02*
X178672312Y-182907614D01*
X178672312Y-182907614D02*
X178529455Y-182836185D01*
X178529455Y-182836185D02*
X178458026Y-182764757D01*
X178458026Y-182764757D02*
X178386598Y-182621900D01*
X178386598Y-182621900D02*
X178386598Y-182479042D01*
X178386598Y-182479042D02*
X178458026Y-182336185D01*
X178458026Y-182336185D02*
X178529455Y-182264757D01*
X178529455Y-182264757D02*
X178672312Y-182193328D01*
X178672312Y-182193328D02*
X179029455Y-182193328D01*
X179029455Y-182193328D02*
X179243741Y-182264757D01*
X179886597Y-183693328D02*
X179886597Y-182193328D01*
X180529455Y-183693328D02*
X180529455Y-182907614D01*
X180529455Y-182907614D02*
X180458026Y-182764757D01*
X180458026Y-182764757D02*
X180315169Y-182693328D01*
X180315169Y-182693328D02*
X180100883Y-182693328D01*
X180100883Y-182693328D02*
X179958026Y-182764757D01*
X179958026Y-182764757D02*
X179886597Y-182836185D01*
X181815169Y-183621900D02*
X181672312Y-183693328D01*
X181672312Y-183693328D02*
X181386598Y-183693328D01*
X181386598Y-183693328D02*
X181243740Y-183621900D01*
X181243740Y-183621900D02*
X181172312Y-183479042D01*
X181172312Y-183479042D02*
X181172312Y-182907614D01*
X181172312Y-182907614D02*
X181243740Y-182764757D01*
X181243740Y-182764757D02*
X181386598Y-182693328D01*
X181386598Y-182693328D02*
X181672312Y-182693328D01*
X181672312Y-182693328D02*
X181815169Y-182764757D01*
X181815169Y-182764757D02*
X181886598Y-182907614D01*
X181886598Y-182907614D02*
X181886598Y-183050471D01*
X181886598Y-183050471D02*
X181172312Y-183193328D01*
X183100883Y-183621900D02*
X182958026Y-183693328D01*
X182958026Y-183693328D02*
X182672312Y-183693328D01*
X182672312Y-183693328D02*
X182529454Y-183621900D01*
X182529454Y-183621900D02*
X182458026Y-183479042D01*
X182458026Y-183479042D02*
X182458026Y-182907614D01*
X182458026Y-182907614D02*
X182529454Y-182764757D01*
X182529454Y-182764757D02*
X182672312Y-182693328D01*
X182672312Y-182693328D02*
X182958026Y-182693328D01*
X182958026Y-182693328D02*
X183100883Y-182764757D01*
X183100883Y-182764757D02*
X183172312Y-182907614D01*
X183172312Y-182907614D02*
X183172312Y-183050471D01*
X183172312Y-183050471D02*
X182458026Y-183193328D01*
X183600883Y-182693328D02*
X184172311Y-182693328D01*
X183815168Y-182193328D02*
X183815168Y-183479042D01*
X183815168Y-183479042D02*
X183886597Y-183621900D01*
X183886597Y-183621900D02*
X184029454Y-183693328D01*
X184029454Y-183693328D02*
X184172311Y-183693328D01*
X184672311Y-183550471D02*
X184743740Y-183621900D01*
X184743740Y-183621900D02*
X184672311Y-183693328D01*
X184672311Y-183693328D02*
X184600883Y-183621900D01*
X184600883Y-183621900D02*
X184672311Y-183550471D01*
X184672311Y-183550471D02*
X184672311Y-183693328D01*
X184672311Y-182764757D02*
X184743740Y-182836185D01*
X184743740Y-182836185D02*
X184672311Y-182907614D01*
X184672311Y-182907614D02*
X184600883Y-182836185D01*
X184600883Y-182836185D02*
X184672311Y-182764757D01*
X184672311Y-182764757D02*
X184672311Y-182907614D01*
D10*
D11*
X197002200Y-191507200D02*
X197002200Y-194507200D01*
D10*
D11*
X261002200Y-191507200D02*
X261002200Y-198007200D01*
D14*
%TO.P,TP1,1,1*%
%TO.N,Net-(J15-S21)*%
X174420000Y-95730000D03*
%TD*%
%TO.P,TP2,1,1*%
%TO.N,Net-(J15-S23)*%
X167520000Y-102250000D03*
%TD*%
D15*
%TO.P,J1,1,Pin_1*%
%TO.N,SZG5V*%
X126520000Y-114960000D03*
D16*
%TO.P,J1,2,Pin_2*%
%TO.N,GND*%
X126520000Y-117500000D03*
%TD*%
D17*
%TO.P,J13,1,In*%
%TO.N,Net-(J13-In)*%
X179672000Y-116843200D03*
D18*
%TO.P,J13,2,Ext*%
%TO.N,GND*%
X177132000Y-114303200D03*
X177132000Y-119383200D03*
X182212000Y-114303200D03*
X182212000Y-119383200D03*
%TD*%
D19*
%TO.P,R4,1*%
%TO.N,/Inputs/STOP2P*%
X167500000Y-91733400D03*
%TO.P,R4,2*%
%TO.N,/Inputs/STOP2N*%
X167500000Y-89908400D03*
%TD*%
D20*
%TO.P,R18,1*%
%TO.N,SZG33*%
X115669500Y-109495000D03*
%TO.P,R18,2*%
%TO.N,/SYZYGY/R_GA*%
X117494500Y-109495000D03*
%TD*%
D15*
%TO.P,J8,1,Pin_1*%
%TO.N,/Inputs/STOP4P*%
X171818000Y-118118200D03*
D16*
%TO.P,J8,2,Pin_2*%
%TO.N,/Inputs/STOP4N*%
X171818000Y-115578200D03*
%TD*%
D15*
%TO.P,J7,1,Pin_1*%
%TO.N,/Inputs/STOP3P*%
X171818000Y-109444100D03*
D16*
%TO.P,J7,2,Pin_2*%
%TO.N,/Inputs/STOP3N*%
X171818000Y-106904100D03*
%TD*%
D17*
%TO.P,J11,1,In*%
%TO.N,Net-(J11-In)*%
X179672000Y-90820900D03*
D18*
%TO.P,J11,2,Ext*%
%TO.N,GND*%
X177132000Y-88280900D03*
X177132000Y-93360900D03*
X182212000Y-88280900D03*
X182212000Y-93360900D03*
%TD*%
D21*
%TO.P,R8,1*%
%TO.N,/Inputs/STOP3P*%
X169278000Y-109434100D03*
%TO.P,R8,2*%
%TO.N,TVDD33*%
X169278000Y-111259100D03*
%TD*%
D15*
%TO.P,J2,1,Pin_1*%
%TO.N,/SYZYGY/MOSI_B*%
X153642000Y-86035000D03*
D16*
%TO.P,J2,2,Pin_2*%
%TO.N,/SYZYGY/MISO_B*%
X153642000Y-83495000D03*
%TO.P,J2,3,Pin_3*%
%TO.N,/SYZYGY/SS_N_B*%
X156182000Y-86035000D03*
%TO.P,J2,4,Pin_4*%
%TO.N,/SYZYGY/SCK_B*%
X156182000Y-83495000D03*
%TO.P,J2,5,Pin_5*%
%TO.N,GND*%
X158722000Y-86035000D03*
%TO.P,J2,6,Pin_6*%
%TO.N,/SYZYGY/INTERRUPT_N_B*%
X158722000Y-83495000D03*
%TD*%
D22*
%TO.P,C7,1*%
%TO.N,DVDD33*%
X146292000Y-108745000D03*
%TO.P,C7,2*%
%TO.N,GND*%
X144567000Y-108745000D03*
%TD*%
D23*
%TO.P,C10,1*%
%TO.N,TVDD33*%
X156367000Y-90895000D03*
%TO.P,C10,2*%
%TO.N,GND*%
X158092000Y-90895000D03*
%TD*%
D21*
%TO.P,R38,1*%
%TO.N,/Inputs/STOP3P*%
X174400000Y-109387500D03*
%TO.P,R38,2*%
%TO.N,GND*%
X174400000Y-111212500D03*
%TD*%
D19*
%TO.P,R2,1*%
%TO.N,/Inputs/REFCLKP*%
X167500000Y-100407500D03*
%TO.P,R2,2*%
%TO.N,/Inputs/REFCLKN*%
X167500000Y-98582500D03*
%TD*%
D24*
%TO.P,U3,1,IN*%
%TO.N,SZG5V*%
X139600000Y-120200000D03*
%TO.P,U3,2,GND*%
%TO.N,GND*%
X141900000Y-120200000D03*
%TO.P,U3,3,OUT*%
%TO.N,/Power/DVDD33O*%
X144200000Y-120200000D03*
D25*
%TO.P,U3,4,GND*%
%TO.N,GND*%
X141900000Y-114400000D03*
%TD*%
D26*
%TO.P,C1,1*%
%TO.N,Net-(U2-BYP)*%
X133600000Y-79800000D03*
%TO.P,C1,2*%
%TO.N,/Power/TVDD33O*%
X133600000Y-78075000D03*
%TD*%
D19*
%TO.P,R10,1*%
%TO.N,/Inputs/REFCLKN*%
X169024000Y-98220000D03*
%TO.P,R10,2*%
%TO.N,TVDD33*%
X169024000Y-96395000D03*
%TD*%
D23*
%TO.P,C27,1*%
%TO.N,GND*%
X126517500Y-81980000D03*
%TO.P,C27,2*%
%TO.N,/SYZYGY/VIO*%
X128242500Y-81980000D03*
%TD*%
D20*
%TO.P,R74,1*%
%TO.N,/SYZYGY/DISABLEP_B*%
X164067500Y-83400000D03*
%TO.P,R74,2*%
%TO.N,TVDD33*%
X165892500Y-83400000D03*
%TD*%
D27*
%TO.P,C2,1*%
%TO.N,/Power/TVDD33O*%
X135287500Y-78075000D03*
%TO.P,C2,2*%
%TO.N,GND*%
X135287500Y-79800000D03*
%TD*%
D20*
%TO.P,R23,1*%
%TO.N,/Power/TVDD33O*%
X134057500Y-81720000D03*
%TO.P,R23,2*%
%TO.N,TVDD33*%
X135882500Y-81720000D03*
%TD*%
D28*
%TO.P,C20,1*%
%TO.N,/gpx2/TVDD18*%
X158283000Y-112043000D03*
%TO.P,C20,2*%
%TO.N,GND*%
X156333000Y-112043000D03*
%TD*%
D29*
%TO.P,C13,1*%
%TO.N,SZG5V*%
X133000000Y-114997349D03*
D30*
%TO.P,C13,2*%
%TO.N,GND*%
X133000000Y-119997349D03*
%TD*%
D20*
%TO.P,R30,1*%
%TO.N,Net-(D3-K)*%
X124777500Y-84760000D03*
%TO.P,R30,2*%
%TO.N,GND*%
X126602500Y-84760000D03*
%TD*%
D21*
%TO.P,R17,1*%
%TO.N,/Inputs/STOP2P*%
X169024000Y-92085900D03*
%TO.P,R17,2*%
%TO.N,TVDD33*%
X169024000Y-93910900D03*
%TD*%
D20*
%TO.P,R76,1*%
%TO.N,Net-(U1-DISABLEN)*%
X164067500Y-81900000D03*
%TO.P,R76,2*%
%TO.N,TVDD33*%
X165892500Y-81900000D03*
%TD*%
D15*
%TO.P,J16,1,Pin_1*%
%TO.N,GND*%
X116500000Y-117260000D03*
D16*
%TO.P,J16,2,Pin_2*%
X116500000Y-119800000D03*
%TD*%
D31*
%TO.P,U5,1,PA4*%
%TO.N,/SYZYGY/MCU_SCL_USCK*%
X133982000Y-107995000D03*
%TO.P,U5,2,PA3*%
%TO.N,unconnected-(U5-PA3-Pad2)*%
X133482000Y-107995000D03*
%TO.P,U5,3,PA2*%
%TO.N,unconnected-(U5-PA2-Pad3)*%
X132982000Y-107995000D03*
%TO.P,U5,4,PA1*%
%TO.N,unconnected-(U5-PA1-Pad4)*%
X132482000Y-107995000D03*
%TO.P,U5,5,AREF/PA0*%
%TO.N,/SYZYGY/R_GA*%
X131982000Y-107995000D03*
D32*
%TO.P,U5,6,NC*%
%TO.N,unconnected-(U5-NC-Pad6)*%
X130982000Y-108995000D03*
%TO.P,U5,7,NC*%
%TO.N,unconnected-(U5-NC-Pad7)*%
X130982000Y-109495000D03*
%TO.P,U5,8,GND*%
%TO.N,GND*%
X130982000Y-109995000D03*
%TO.P,U5,9,VCC*%
%TO.N,SZG33*%
X130982000Y-110495000D03*
%TO.P,U5,10,NC*%
%TO.N,unconnected-(U5-NC-Pad10)*%
X130982000Y-110995000D03*
D31*
%TO.P,U5,11,XTAL1/PB0*%
%TO.N,unconnected-(U5-XTAL1{slash}PB0-Pad11)*%
X131982000Y-111995000D03*
%TO.P,U5,12,XTAL2/PB1*%
%TO.N,unconnected-(U5-XTAL2{slash}PB1-Pad12)*%
X132482000Y-111995000D03*
%TO.P,U5,13,~{RESET}/PB3*%
%TO.N,/SYZYGY/MCU_RESET_B*%
X132982000Y-111995000D03*
%TO.P,U5,14,PB2*%
%TO.N,unconnected-(U5-PB2-Pad14)*%
X133482000Y-111995000D03*
%TO.P,U5,15,PA7*%
%TO.N,unconnected-(U5-PA7-Pad15)*%
X133982000Y-111995000D03*
D32*
%TO.P,U5,16,PA6*%
%TO.N,/SYZYGY/MCU_SDA_MOSI*%
X134982000Y-110995000D03*
%TO.P,U5,17,NC*%
%TO.N,unconnected-(U5-NC-Pad17)*%
X134982000Y-110495000D03*
%TO.P,U5,18,NC*%
%TO.N,unconnected-(U5-NC-Pad18)*%
X134982000Y-109995000D03*
%TO.P,U5,19,NC*%
%TO.N,unconnected-(U5-NC-Pad19)*%
X134982000Y-109495000D03*
%TO.P,U5,20,PA5*%
%TO.N,/SYZYGY/MCU_MISO*%
X134982000Y-108995000D03*
D33*
%TO.P,U5,21,GND*%
%TO.N,GND*%
X132982000Y-109995000D03*
%TD*%
D34*
%TO.P,C14,1*%
%TO.N,/gpx2/CVDD18*%
X154361000Y-112809000D03*
%TO.P,C14,2*%
%TO.N,GND*%
X151111000Y-112809000D03*
%TD*%
D15*
%TO.P,J14,1,Pin_1*%
%TO.N,GND*%
X157480000Y-118600000D03*
D16*
%TO.P,J14,2,Pin_2*%
%TO.N,/SYZYGY/MCU_RESET_B*%
X157480000Y-116060000D03*
%TO.P,J14,3,Pin_3*%
%TO.N,/SYZYGY/MCU_SDA_MOSI*%
X160020000Y-118600000D03*
%TO.P,J14,4,Pin_4*%
%TO.N,/SYZYGY/MCU_SCL_USCK*%
X160020000Y-116060000D03*
%TO.P,J14,5,Pin_5*%
%TO.N,SZG33*%
X162560000Y-118600000D03*
%TO.P,J14,6,Pin_6*%
%TO.N,/SYZYGY/MCU_MISO*%
X162560000Y-116060000D03*
%TD*%
D28*
%TO.P,C18,1*%
%TO.N,/gpx2/DVDD18*%
X146404500Y-112043000D03*
%TO.P,C18,2*%
%TO.N,GND*%
X144454500Y-112043000D03*
%TD*%
D21*
%TO.P,R11,1*%
%TO.N,/Inputs/REFCLKP*%
X169260000Y-100787500D03*
%TO.P,R11,2*%
%TO.N,TVDD33*%
X169260000Y-102612500D03*
%TD*%
%TO.P,R34,1*%
%TO.N,/Inputs/STOP1P*%
X174400000Y-83500000D03*
%TO.P,R34,2*%
%TO.N,GND*%
X174400000Y-85325000D03*
%TD*%
D15*
%TO.P,J4,1,Pin_1*%
%TO.N,/Inputs/REFCLKP*%
X171818000Y-100770000D03*
D16*
%TO.P,J4,2,Pin_2*%
%TO.N,/Inputs/REFCLKN*%
X171818000Y-98230000D03*
%TD*%
D23*
%TO.P,C21,1*%
%TO.N,/gpx2/TVDD18*%
X156163800Y-89269400D03*
%TO.P,C21,2*%
%TO.N,GND*%
X157888800Y-89269400D03*
%TD*%
D20*
%TO.P,R24,1*%
%TO.N,/Power/DVDD33O*%
X149256500Y-118254000D03*
%TO.P,R24,2*%
%TO.N,DVDD33*%
X151081500Y-118254000D03*
%TD*%
D35*
%TO.P,C8,1*%
%TO.N,DVDD33*%
X149129200Y-88892000D03*
%TO.P,C8,2*%
%TO.N,GND*%
X149129200Y-86942000D03*
%TD*%
D21*
%TO.P,R40,1*%
%TO.N,/Inputs/STOP4P*%
X174400000Y-118087500D03*
%TO.P,R40,2*%
%TO.N,GND*%
X174400000Y-119912500D03*
%TD*%
D35*
%TO.P,C19,1*%
%TO.N,/gpx2/DVDD18*%
X150958000Y-88933000D03*
%TO.P,C19,2*%
%TO.N,GND*%
X150958000Y-86983000D03*
%TD*%
D27*
%TO.P,C12,1*%
%TO.N,GND*%
X136410000Y-87547500D03*
%TO.P,C12,2*%
%TO.N,DVDD33*%
X136410000Y-89272500D03*
%TD*%
D20*
%TO.P,R70,1*%
%TO.N,/SYZYGY/REFRESP_B*%
X163987500Y-80436668D03*
%TO.P,R70,2*%
%TO.N,TVDD33*%
X165812500Y-80436668D03*
%TD*%
D19*
%TO.P,R13,1*%
%TO.N,/Inputs/STOP2N*%
X169024000Y-89545900D03*
%TO.P,R13,2*%
%TO.N,TVDD33*%
X169024000Y-87720900D03*
%TD*%
D20*
%TO.P,R26,1*%
%TO.N,Net-(D2-K)*%
X126597500Y-120060000D03*
%TO.P,R26,2*%
%TO.N,GND*%
X128422500Y-120060000D03*
%TD*%
D19*
%TO.P,R37,1*%
%TO.N,/Inputs/STOP2P*%
X174400000Y-90612500D03*
%TO.P,R37,2*%
%TO.N,Net-(J11-In)*%
X174400000Y-88787500D03*
%TD*%
D36*
%TO.P,D3,1,K*%
%TO.N,Net-(D3-K)*%
X124320000Y-86417500D03*
%TO.P,D3,2,A*%
%TO.N,/SYZYGY/VIO*%
X124320000Y-88467500D03*
%TD*%
D20*
%TO.P,R72,1*%
%TO.N,Net-(U1-RSTIDXN)*%
X163987500Y-78936668D03*
%TO.P,R72,2*%
%TO.N,TVDD33*%
X165812500Y-78936668D03*
%TD*%
D26*
%TO.P,C24,1*%
%TO.N,SZG33*%
X126482000Y-111395000D03*
%TO.P,C24,2*%
%TO.N,GND*%
X126482000Y-109670000D03*
%TD*%
D27*
%TO.P,C11,1*%
%TO.N,GND*%
X126270000Y-86447500D03*
%TO.P,C11,2*%
%TO.N,/SYZYGY/VIO*%
X126270000Y-88172500D03*
%TD*%
D21*
%TO.P,R19,1*%
%TO.N,/Inputs/STOP4P*%
X169278000Y-118108200D03*
%TO.P,R19,2*%
%TO.N,TVDD33*%
X169278000Y-119933200D03*
%TD*%
D15*
%TO.P,J3,1,Pin_1*%
%TO.N,Net-(J15-S21)*%
X116480000Y-84945000D03*
D16*
%TO.P,J3,2,Pin_2*%
%TO.N,Net-(J15-S23)*%
X116480000Y-82405000D03*
%TO.P,J3,3,Pin_3*%
%TO.N,Net-(J15-S25)*%
X116480000Y-79865000D03*
%TD*%
D21*
%TO.P,R9,1*%
%TO.N,SZG33*%
X128200000Y-110587500D03*
%TO.P,R9,2*%
%TO.N,/SYZYGY/MCU_RESET_B*%
X128200000Y-112412500D03*
%TD*%
D20*
%TO.P,R25,1*%
%TO.N,/Power/DVDD33O*%
X149256500Y-119778000D03*
%TO.P,R25,2*%
%TO.N,RVDD33*%
X151081500Y-119778000D03*
%TD*%
D37*
%TO.P,U1,1,FRAME1N*%
%TO.N,/SYZYGY/FRAME1N*%
X145034000Y-95745000D03*
%TO.P,U1,2,FRAME1P*%
%TO.N,/SYZYGY/FRAME1P*%
X145034000Y-96245000D03*
%TO.P,U1,3,SDO1N*%
%TO.N,/SYZYGY/SDO1N*%
X145034000Y-96745000D03*
%TO.P,U1,4,SDO1P*%
%TO.N,/SYZYGY/SDO1P*%
X145034000Y-97245000D03*
%TO.P,U1,5,FRAME2N*%
%TO.N,/SYZYGY/FRAME2N*%
X145034000Y-97745000D03*
%TO.P,U1,6,FRAME2P*%
%TO.N,/SYZYGY/FRAME2P*%
X145034000Y-98245000D03*
%TO.P,U1,7,SDO2N*%
%TO.N,/SYZYGY/SDO2N*%
X145034000Y-98745000D03*
%TO.P,U1,8,SDO2P*%
%TO.N,/SYZYGY/SDO2P*%
X145034000Y-99245000D03*
%TO.P,U1,9,FRAME3N*%
%TO.N,/SYZYGY/FRAME3N*%
X145034000Y-99745000D03*
%TO.P,U1,10,FRAME3P*%
%TO.N,/SYZYGY/FRAME3P*%
X145034000Y-100245000D03*
%TO.P,U1,11,SDO3N*%
%TO.N,/SYZYGY/SDO3N*%
X145034000Y-100745000D03*
%TO.P,U1,12,SDO3P*%
%TO.N,/SYZYGY/SDO3P*%
X145034000Y-101245000D03*
%TO.P,U1,13,FRAME4N*%
%TO.N,/SYZYGY/FRAME4N*%
X145034000Y-101745000D03*
%TO.P,U1,14,FRAME4P*%
%TO.N,/SYZYGY/FRAME4P*%
X145034000Y-102245000D03*
%TO.P,U1,15,SDO4N*%
%TO.N,/SYZYGY/SDO4N*%
X145034000Y-102745000D03*
%TO.P,U1,16,SDO4P*%
%TO.N,/SYZYGY/SDO4P*%
X145034000Y-103245000D03*
D38*
%TO.P,U1,17,LCLKOUTN*%
%TO.N,/SYZYGY/LCLKOUTN*%
X146954000Y-105165000D03*
%TO.P,U1,18,LCLKOUTP*%
%TO.N,/SYZYGY/LCLKOUTP*%
X147454000Y-105165000D03*
%TO.P,U1,19,DGND*%
%TO.N,GND*%
X147954000Y-105165000D03*
%TO.P,U1,20,DVDD33*%
%TO.N,DVDD33*%
X148454000Y-105165000D03*
%TO.P,U1,21,DGND__1*%
%TO.N,GND*%
X148954000Y-105165000D03*
%TO.P,U1,22,DVDD18*%
%TO.N,/gpx2/DVDD18*%
X149454000Y-105165000D03*
%TO.P,U1,23,RVDD33*%
%TO.N,RVDD33*%
X149954000Y-105165000D03*
%TO.P,U1,24,DVDD18O*%
%TO.N,/gpx2/DVDD18O*%
X150454000Y-105165000D03*
%TO.P,U1,25,TVDD18O*%
%TO.N,/gpx2/TVDD18O*%
X150954000Y-105165000D03*
%TO.P,U1,26,CVDD18O*%
%TO.N,/gpx2/CVDD18O*%
X151454000Y-105165000D03*
%TO.P,U1,27,RGND*%
%TO.N,GND*%
X151954000Y-105165000D03*
%TO.P,U1,28,CGND*%
X152454000Y-105165000D03*
%TO.P,U1,29,CVDD18*%
%TO.N,/gpx2/CVDD18*%
X152954000Y-105165000D03*
%TO.P,U1,30,TVDD18*%
%TO.N,/gpx2/TVDD18*%
X153454000Y-105165000D03*
%TO.P,U1,31,TGND*%
%TO.N,GND*%
X153954000Y-105165000D03*
%TO.P,U1,32,TVDD33*%
%TO.N,TVDD33*%
X154454000Y-105165000D03*
D37*
%TO.P,U1,33,STOP4P*%
%TO.N,/Inputs/STOP4P*%
X156374000Y-103245000D03*
%TO.P,U1,34,STOP4N*%
%TO.N,/Inputs/STOP4N*%
X156374000Y-102745000D03*
%TO.P,U1,35,STOP3P*%
%TO.N,/Inputs/STOP3P*%
X156374000Y-102245000D03*
%TO.P,U1,36,STOP3N*%
%TO.N,/Inputs/STOP3N*%
X156374000Y-101745000D03*
%TO.P,U1,37,TGND__1*%
%TO.N,GND*%
X156374000Y-101245000D03*
%TO.P,U1,38,DISABLEP*%
%TO.N,/SYZYGY/DISABLEP_B*%
X156374000Y-100745000D03*
%TO.P,U1,39,DISABLEN*%
%TO.N,Net-(U1-DISABLEN)*%
X156374000Y-100245000D03*
%TO.P,U1,40,REFCLKP*%
%TO.N,/Inputs/REFCLKP*%
X156374000Y-99745000D03*
%TO.P,U1,41,REFCLKN*%
%TO.N,/Inputs/REFCLKN*%
X156374000Y-99245000D03*
%TO.P,U1,42,RSTIDXP*%
%TO.N,/SYZYGY/REFRESP_B*%
X156374000Y-98745000D03*
%TO.P,U1,43,RSTIDXN*%
%TO.N,Net-(U1-RSTIDXN)*%
X156374000Y-98245000D03*
%TO.P,U1,44,TVDD33__1*%
%TO.N,TVDD33*%
X156374000Y-97745000D03*
%TO.P,U1,45,STOP2P*%
%TO.N,/Inputs/STOP2P*%
X156374000Y-97245000D03*
%TO.P,U1,46,STOP2N*%
%TO.N,/Inputs/STOP2N*%
X156374000Y-96745000D03*
%TO.P,U1,47,STOP1P*%
%TO.N,/Inputs/STOP1P*%
X156374000Y-96245000D03*
%TO.P,U1,48,STOP1N*%
%TO.N,/Inputs/STOP1N*%
X156374000Y-95745000D03*
D38*
%TO.P,U1,49,TVDD33__2*%
%TO.N,TVDD33*%
X154454000Y-93825000D03*
%TO.P,U1,50,TGND__2*%
%TO.N,GND*%
X153954000Y-93825000D03*
%TO.P,U1,51,TVDD18__1*%
%TO.N,/gpx2/TVDD18*%
X153454000Y-93825000D03*
%TO.P,U1,52,REFOSCI*%
%TO.N,Net-(U1-REFOSCI)*%
X152954000Y-93825000D03*
%TO.P,U1,53,REFOSCO*%
%TO.N,Net-(U1-REFOSCO)*%
X152454000Y-93825000D03*
%TO.P,U1,54,PARITY*%
%TO.N,/SYZYGY/PARITY_B*%
X151954000Y-93825000D03*
%TO.P,U1,55,~{INTERRUPT}*%
%TO.N,/SYZYGY/INTERRUPT_N_B*%
X151454000Y-93825000D03*
%TO.P,U1,56,~{SSN}*%
%TO.N,/SYZYGY/SS_N_B*%
X150954000Y-93825000D03*
%TO.P,U1,57,SCK*%
%TO.N,/SYZYGY/SCK_B*%
X150454000Y-93825000D03*
%TO.P,U1,58,MOSI*%
%TO.N,/SYZYGY/MOSI_B*%
X149954000Y-93825000D03*
%TO.P,U1,59,MISO*%
%TO.N,/SYZYGY/MISO_B*%
X149454000Y-93825000D03*
%TO.P,U1,60,DVDD18__1*%
%TO.N,/gpx2/DVDD18*%
X148954000Y-93825000D03*
%TO.P,U1,61,DVDD33__1*%
%TO.N,DVDD33*%
X148454000Y-93825000D03*
%TO.P,U1,62,DGND__2*%
%TO.N,GND*%
X147954000Y-93825000D03*
%TO.P,U1,63,LCLKINP*%
%TO.N,/SYZYGY/LCLKINP*%
X147454000Y-93825000D03*
%TO.P,U1,64,LCLKINN*%
%TO.N,/SYZYGY/LCLKINN*%
X146954000Y-93825000D03*
%TD*%
D39*
%TO.P,C4,1*%
%TO.N,RVDD33*%
X152750000Y-119778000D03*
%TO.P,C4,2*%
%TO.N,GND*%
X154700000Y-119778000D03*
%TD*%
D23*
%TO.P,C25,1*%
%TO.N,/SYZYGY/R_GA*%
X118009500Y-111125000D03*
%TO.P,C25,2*%
%TO.N,GND*%
X119734500Y-111125000D03*
%TD*%
D40*
%TO.P,X-OSC1,*%
%TO.N,*%
X140840000Y-79787500D03*
D41*
X145920000Y-79787500D03*
D40*
%TO.P,X-OSC1,1,1*%
%TO.N,Net-(U1-REFOSCO)*%
X140840000Y-83787500D03*
%TO.P,X-OSC1,2,2*%
%TO.N,Net-(U1-REFOSCI)*%
X145920000Y-83787500D03*
%TD*%
D26*
%TO.P,C26,1*%
%TO.N,GND*%
X136370000Y-85252500D03*
%TO.P,C26,2*%
%TO.N,DVDD33*%
X136370000Y-83527500D03*
%TD*%
D21*
%TO.P,R36,1*%
%TO.N,/Inputs/STOP2P*%
X174400000Y-92087500D03*
%TO.P,R36,2*%
%TO.N,GND*%
X174400000Y-93912500D03*
%TD*%
D19*
%TO.P,R14,1*%
%TO.N,/Inputs/STOP3N*%
X169278000Y-106894100D03*
%TO.P,R14,2*%
%TO.N,TVDD33*%
X169278000Y-105069100D03*
%TD*%
D39*
%TO.P,C6,1*%
%TO.N,DVDD33*%
X152750000Y-118000000D03*
%TO.P,C6,2*%
%TO.N,GND*%
X154700000Y-118000000D03*
%TD*%
D22*
%TO.P,C16,1*%
%TO.N,/gpx2/TVDD18*%
X156646500Y-110269000D03*
%TO.P,C16,2*%
%TO.N,GND*%
X154921500Y-110269000D03*
%TD*%
D19*
%TO.P,R6,1*%
%TO.N,/Inputs/STOP4P*%
X167754000Y-117755700D03*
%TO.P,R6,2*%
%TO.N,/Inputs/STOP4N*%
X167754000Y-115930700D03*
%TD*%
D28*
%TO.P,C3,1*%
%TO.N,/Power/TVDD33O*%
X132275000Y-81600000D03*
%TO.P,C3,2*%
%TO.N,GND*%
X130325000Y-81600000D03*
%TD*%
D42*
%TO.P,R20,1*%
%TO.N,/gpx2/DVDD18O*%
X149838500Y-110269000D03*
%TO.P,R20,2*%
%TO.N,/gpx2/DVDD18*%
X148013500Y-110269000D03*
%TD*%
D22*
%TO.P,C17,1*%
%TO.N,/gpx2/DVDD18*%
X146292000Y-110265000D03*
%TO.P,C17,2*%
%TO.N,GND*%
X144567000Y-110265000D03*
%TD*%
D20*
%TO.P,R22,1*%
%TO.N,/gpx2/CVDD18O*%
X151466000Y-108745000D03*
%TO.P,R22,2*%
%TO.N,/gpx2/CVDD18*%
X153291000Y-108745000D03*
%TD*%
D19*
%TO.P,R15,1*%
%TO.N,/Inputs/STOP4N*%
X169278000Y-115568200D03*
%TO.P,R15,2*%
%TO.N,TVDD33*%
X169278000Y-113743200D03*
%TD*%
%TO.P,R35,1*%
%TO.N,/Inputs/STOP1P*%
X174400000Y-82000000D03*
%TO.P,R35,2*%
%TO.N,Net-(J10-In)*%
X174400000Y-80175000D03*
%TD*%
%TO.P,R39,1*%
%TO.N,/Inputs/STOP3P*%
X174400000Y-107912500D03*
%TO.P,R39,2*%
%TO.N,Net-(J12-In)*%
X174400000Y-106087500D03*
%TD*%
%TO.P,R41,1*%
%TO.N,/Inputs/STOP4P*%
X174400000Y-116600000D03*
%TO.P,R41,2*%
%TO.N,Net-(J13-In)*%
X174400000Y-114775000D03*
%TD*%
D21*
%TO.P,R33,1*%
%TO.N,/Inputs/REFCLKP*%
X174400000Y-100900000D03*
%TO.P,R33,2*%
%TO.N,GND*%
X174400000Y-102725000D03*
%TD*%
D43*
%TO.P,D2,1,K*%
%TO.N,Net-(D2-K)*%
X124850000Y-120550000D03*
%TO.P,D2,2,A*%
%TO.N,SZG5V*%
X122800000Y-120550000D03*
%TD*%
D22*
%TO.P,C22,1*%
%TO.N,Net-(U1-REFOSCO)*%
X140062500Y-86200000D03*
%TO.P,C22,2*%
%TO.N,GND*%
X138337500Y-86200000D03*
%TD*%
%TO.P,C23,1*%
%TO.N,GND*%
X146725000Y-86200000D03*
%TO.P,C23,2*%
%TO.N,Net-(U1-REFOSCI)*%
X145000000Y-86200000D03*
%TD*%
D15*
%TO.P,J5,1,Pin_1*%
%TO.N,/Inputs/STOP1P*%
X171818000Y-83421800D03*
D16*
%TO.P,J5,2,Pin_2*%
%TO.N,/Inputs/STOP1N*%
X171818000Y-80881800D03*
%TD*%
D17*
%TO.P,J10,1,In*%
%TO.N,Net-(J10-In)*%
X179705000Y-82169000D03*
D18*
%TO.P,J10,2,Ext*%
%TO.N,GND*%
X177165000Y-79629000D03*
X177165000Y-84709000D03*
X182245000Y-79629000D03*
X182245000Y-84709000D03*
%TD*%
D44*
%TO.P,U6,1,VCCA*%
%TO.N,/SYZYGY/VIO*%
X128601152Y-83409999D03*
%TO.P,U6,2,A1*%
%TO.N,/SYZYGY/DISABLEP_A*%
X128601152Y-84060000D03*
%TO.P,U6,3,A2*%
%TO.N,/SYZYGY/REFRESP_A*%
X128601152Y-84710001D03*
%TO.P,U6,4,A3Y*%
%TO.N,/SYZYGY/INTERRUPT_A*%
X128601152Y-85360000D03*
%TO.P,U6,5,A4Y*%
%TO.N,/SYZYGY/PARITY_A*%
X128601152Y-86009999D03*
%TO.P,U6,6,NC*%
%TO.N,unconnected-(U6-NC-Pad6)*%
X128601152Y-86660000D03*
%TO.P,U6,7,GND*%
%TO.N,GND*%
X128601152Y-87309999D03*
%TO.P,U6,8,OE*%
%TO.N,Net-(J15-S27)*%
X134501048Y-87310001D03*
%TO.P,U6,9,NC*%
%TO.N,unconnected-(U6-NC-Pad9)*%
X134501048Y-86660000D03*
%TO.P,U6,10,B4*%
%TO.N,/SYZYGY/PARITY_B*%
X134501048Y-86010001D03*
%TO.P,U6,11,B3*%
%TO.N,/SYZYGY/INTERRUPT_N_B*%
X134501048Y-85360000D03*
%TO.P,U6,12,B2Y*%
%TO.N,/SYZYGY/REFRESP_B*%
X134501048Y-84710001D03*
%TO.P,U6,13,B1Y*%
%TO.N,/SYZYGY/DISABLEP_B*%
X134501048Y-84060000D03*
%TO.P,U6,14,VCCB*%
%TO.N,DVDD33*%
X134501048Y-83410001D03*
%TD*%
D45*
%TO.P,U2,1,VIN*%
%TO.N,SZG5V*%
X129225000Y-78000000D03*
%TO.P,U2,2,GND*%
%TO.N,GND*%
X129225000Y-78950000D03*
%TO.P,U2,3,~{SHDN}*%
%TO.N,SZG5V*%
X129225000Y-79900000D03*
%TO.P,U2,4,BYP*%
%TO.N,Net-(U2-BYP)*%
X131500000Y-79900000D03*
%TO.P,U2,5,VOUT*%
%TO.N,/Power/TVDD33O*%
X131500000Y-78000000D03*
%TD*%
D27*
%TO.P,C5,1*%
%TO.N,RVDD33*%
X148692000Y-112075000D03*
%TO.P,C5,2*%
%TO.N,GND*%
X148692000Y-113800000D03*
%TD*%
D42*
%TO.P,R1,1*%
%TO.N,Net-(U1-REFOSCI)*%
X143425000Y-86200000D03*
%TO.P,R1,2*%
%TO.N,Net-(U1-REFOSCO)*%
X141600000Y-86200000D03*
%TD*%
D19*
%TO.P,R3,1*%
%TO.N,/Inputs/STOP1P*%
X167500000Y-83059300D03*
%TO.P,R3,2*%
%TO.N,/Inputs/STOP1N*%
X167500000Y-81234300D03*
%TD*%
%TO.P,R7,1*%
%TO.N,/SYZYGY/LCLKINP*%
X143200000Y-94912500D03*
%TO.P,R7,2*%
%TO.N,/SYZYGY/LCLKINN*%
X143200000Y-93087500D03*
%TD*%
%TO.P,R32,1*%
%TO.N,/Inputs/REFCLKP*%
X174400000Y-99400000D03*
%TO.P,R32,2*%
%TO.N,Net-(J9-In)*%
X174400000Y-97575000D03*
%TD*%
D44*
%TO.P,U4,1,VCCA*%
%TO.N,/SYZYGY/VIO*%
X128631152Y-89129999D03*
%TO.P,U4,2,A1*%
%TO.N,/SYZYGY/SS_N_A*%
X128631152Y-89780000D03*
%TO.P,U4,3,A2*%
%TO.N,/SYZYGY/SCK_A*%
X128631152Y-90430001D03*
%TO.P,U4,4,A3*%
%TO.N,/SYZYGY/MOSI_A*%
X128631152Y-91080000D03*
%TO.P,U4,5,A4Y*%
%TO.N,/SYZYGY/MISO_A*%
X128631152Y-91729999D03*
%TO.P,U4,6,NC*%
%TO.N,unconnected-(U4-NC-Pad6)*%
X128631152Y-92380000D03*
%TO.P,U4,7,GND*%
%TO.N,GND*%
X128631152Y-93029999D03*
%TO.P,U4,8,OE*%
%TO.N,Net-(J15-S27)*%
X134531048Y-93030001D03*
%TO.P,U4,9,NC*%
%TO.N,unconnected-(U4-NC-Pad9)*%
X134531048Y-92380000D03*
%TO.P,U4,10,B4*%
%TO.N,/SYZYGY/MISO_B*%
X134531048Y-91730001D03*
%TO.P,U4,11,B3Y*%
%TO.N,/SYZYGY/MOSI_B*%
X134531048Y-91080000D03*
%TO.P,U4,12,B2Y*%
%TO.N,/SYZYGY/SCK_B*%
X134531048Y-90430001D03*
%TO.P,U4,13,B1Y*%
%TO.N,/SYZYGY/SS_N_B*%
X134531048Y-89780000D03*
%TO.P,U4,14,VCCB*%
%TO.N,DVDD33*%
X134531048Y-89130001D03*
%TD*%
D19*
%TO.P,R12,1*%
%TO.N,/Inputs/STOP1N*%
X169044000Y-80871800D03*
%TO.P,R12,2*%
%TO.N,TVDD33*%
X169044000Y-79046800D03*
%TD*%
%TO.P,R5,1*%
%TO.N,/Inputs/STOP3P*%
X167754000Y-109081600D03*
%TO.P,R5,2*%
%TO.N,/Inputs/STOP3N*%
X167754000Y-107256600D03*
%TD*%
D20*
%TO.P,R21,1*%
%TO.N,/gpx2/TVDD18O*%
X154875500Y-108745000D03*
%TO.P,R21,2*%
%TO.N,/gpx2/TVDD18*%
X156700500Y-108745000D03*
%TD*%
D46*
%TO.P,C9,1*%
%TO.N,TVDD33*%
X158324000Y-108278000D03*
%TO.P,C9,2*%
%TO.N,GND*%
X158324000Y-110228000D03*
%TD*%
D22*
%TO.P,C15,1*%
%TO.N,/gpx2/CVDD18*%
X153241000Y-110269000D03*
%TO.P,C15,2*%
%TO.N,GND*%
X151516000Y-110269000D03*
%TD*%
D21*
%TO.P,R16,1*%
%TO.N,/Inputs/STOP1P*%
X169044000Y-83411800D03*
%TO.P,R16,2*%
%TO.N,TVDD33*%
X169044000Y-85236800D03*
%TD*%
D17*
%TO.P,J9,1,In*%
%TO.N,Net-(J9-In)*%
X179672000Y-99495000D03*
D18*
%TO.P,J9,2,Ext*%
%TO.N,GND*%
X177132000Y-96955000D03*
X177132000Y-102035000D03*
X182212000Y-96955000D03*
X182212000Y-102035000D03*
%TD*%
D17*
%TO.P,J12,1,In*%
%TO.N,Net-(J12-In)*%
X179672000Y-108169100D03*
D18*
%TO.P,J12,2,Ext*%
%TO.N,GND*%
X177132000Y-105629100D03*
X177132000Y-110709100D03*
X182212000Y-105629100D03*
X182212000Y-110709100D03*
%TD*%
D15*
%TO.P,J6,1,Pin_1*%
%TO.N,/Inputs/STOP2P*%
X171818000Y-92095900D03*
D16*
%TO.P,J6,2,Pin_2*%
%TO.N,/Inputs/STOP2N*%
X171818000Y-89555900D03*
%TD*%
D47*
%TO.P,J15,MH*%
%TO.N,N/C*%
X121882000Y-110340000D03*
X121882000Y-88650000D03*
%TD*%
D48*
%TO.N,Net-(J15-S21)*%
X115930000Y-99270000D03*
%TO.N,SZG5V*%
X117900000Y-107940000D03*
%TO.N,Net-(J15-S21)*%
X172390000Y-95770000D03*
%TO.N,Net-(J15-S23)*%
X167530000Y-103710000D03*
%TO.N,TVDD33*%
X169278000Y-120937000D03*
X158242000Y-106795000D03*
X161200000Y-83200000D03*
X155022000Y-97696000D03*
X169278000Y-112428000D03*
X169024000Y-86520000D03*
X169024000Y-95156000D03*
X156367000Y-91920000D03*
X169278000Y-103792000D03*
X165900000Y-85600000D03*
%TO.N,GND*%
X152482000Y-103792000D03*
X125250000Y-82070000D03*
X159647000Y-110228000D03*
X120640000Y-96000000D03*
X150962778Y-101305778D03*
X121981920Y-89745454D03*
X157308000Y-113493000D03*
X125765000Y-84745765D03*
X129890000Y-86930000D03*
X141900000Y-117200000D03*
X137430000Y-87520000D03*
X148400000Y-95200000D03*
X138850000Y-85250000D03*
X152700000Y-112800000D03*
X154100000Y-116900000D03*
X136160000Y-79140000D03*
X120097000Y-108618000D03*
X130665500Y-78800000D03*
X146700000Y-87500000D03*
X121390000Y-105830000D03*
X149200000Y-85800000D03*
X130160000Y-93030000D03*
X145900000Y-113600000D03*
X125520000Y-86406249D03*
X137380000Y-84720000D03*
%TO.N,DVDD33*%
X147612000Y-107445000D03*
X137620000Y-89360000D03*
X133110000Y-83730000D03*
X149142000Y-90585000D03*
%TO.N,SZG33*%
X129600000Y-110600000D03*
X117610000Y-89890000D03*
%TO.N,/SYZYGY/R_GA*%
X116200000Y-108340000D03*
%TO.N,/SYZYGY/MCU_SCL_USCK*%
X142000000Y-110695000D03*
X135782000Y-107895000D03*
%TO.N,/SYZYGY/MCU_MISO*%
X141052860Y-110596390D03*
%TO.N,/SYZYGY/MCU_SDA_MOSI*%
X141100000Y-111395000D03*
%TO.N,/SYZYGY/MCU_RESET_B*%
X141600000Y-112195000D03*
%TO.N,/SYZYGY/SDO4N*%
X126000000Y-104700000D03*
%TO.N,/SYZYGY/SDO1N*%
X119500000Y-101500000D03*
%TO.N,/SYZYGY/SDO2N*%
X119500000Y-104700000D03*
%TO.N,/SYZYGY/LCLKINN*%
X119360000Y-93510000D03*
%TO.N,/SYZYGY/FRAME2N*%
X119500000Y-103100000D03*
%TO.N,/SYZYGY/FRAME3P*%
X126000000Y-100700000D03*
%TO.N,/SYZYGY/SDO2P*%
X119500000Y-105500000D03*
%TO.N,/SYZYGY/FRAME1P*%
X119500000Y-100700000D03*
%TO.N,/SYZYGY/FRAME1N*%
X119500000Y-99900000D03*
%TO.N,/SYZYGY/LCLKOUTN*%
X146292576Y-101672662D03*
%TO.N,/SYZYGY/LCLKOUTP*%
X146892576Y-102291823D03*
%TO.N,/SYZYGY/SDO3N*%
X126000000Y-101500000D03*
%TO.N,/SYZYGY/FRAME4N*%
X126000000Y-103100000D03*
%TO.N,/SYZYGY/SDO1P*%
X119500000Y-102300000D03*
%TO.N,/SYZYGY/VIO*%
X130110000Y-88170000D03*
%TO.N,/SYZYGY/FRAME2P*%
X119500000Y-103900000D03*
%TO.N,/SYZYGY/FRAME3N*%
X126000000Y-99900000D03*
%TO.N,Net-(D3-K)*%
X123620000Y-84710000D03*
X122710000Y-86390000D03*
%TO.N,/SYZYGY/SDO3P*%
X126000000Y-102300000D03*
%TO.N,/SYZYGY/FRAME4P*%
X126000000Y-103900000D03*
%TO.N,/SYZYGY/SDO4P*%
X126000000Y-105500000D03*
%TO.N,/SYZYGY/LCLKINP*%
X119360000Y-94270000D03*
%TO.N,Net-(U1-RSTIDXN)*%
X158757001Y-97820000D03*
X161882000Y-85295000D03*
%TO.N,Net-(U1-DISABLEN)*%
X163782000Y-85295000D03*
X158882000Y-100395000D03*
%TO.N,Net-(U1-REFOSCO)*%
X152411090Y-92711090D03*
X147600000Y-90400000D03*
%TO.N,Net-(U1-REFOSCI)*%
X153015100Y-91973490D03*
X147600000Y-89600000D03*
%TO.N,/gpx2/TVDD18*%
X156162000Y-87905000D03*
X159732000Y-112045000D03*
%TO.N,/gpx2/DVDD18*%
X148762000Y-108005000D03*
X150000000Y-90500000D03*
%TO.N,/gpx2/TVDD18O*%
X154006000Y-107475000D03*
X155276000Y-103919000D03*
%TO.N,/SYZYGY/MISO_A*%
X123246998Y-92830000D03*
%TO.N,/SYZYGY/SS_N_A*%
X121447000Y-93202340D03*
%TO.N,/SYZYGY/DISABLEP_A*%
X119570000Y-98295000D03*
%TO.N,/SYZYGY/PARITY_A*%
X119640000Y-92420000D03*
%TO.N,/SYZYGY/SCK_A*%
X123278784Y-91489570D03*
%TO.N,/SYZYGY/REFRESP_A*%
X119520000Y-99099361D03*
%TO.N,/SYZYGY/MOSI_A*%
X122646999Y-92093912D03*
%TO.N,/SYZYGY/MOSI_B*%
X133020000Y-90900000D03*
%TO.N,/SYZYGY/REFRESP_B*%
X162882000Y-85295000D03*
X158332000Y-98670000D03*
%TO.N,/SYZYGY/SS_N_B*%
X148442000Y-96220000D03*
X144210000Y-91469461D03*
%TO.N,/SYZYGY/SCK_B*%
X133000000Y-89930000D03*
%TO.N,/SYZYGY/DISABLEP_B*%
X158310000Y-101160000D03*
X164640000Y-85450000D03*
%TO.N,/SYZYGY/PARITY_B*%
X146620000Y-91000000D03*
X152070000Y-95410000D03*
%TO.N,Net-(J15-S27)*%
X132930000Y-87370000D03*
%TO.N,/SYZYGY/INTERRUPT_A*%
X120340000Y-91380000D03*
%TD*%
D49*
%TO.N,Net-(J13-In)*%
X175242063Y-114775000D02*
X177310263Y-116843200D01*
X177310263Y-116843200D02*
X179672000Y-116843200D01*
X174400000Y-114775000D02*
X175242063Y-114775000D01*
%TO.N,Net-(J12-In)*%
X177310263Y-108169100D02*
X179672000Y-108169100D01*
X175228663Y-106087500D02*
X177310263Y-108169100D01*
X174400000Y-106087500D02*
X175228663Y-106087500D01*
%TO.N,Net-(J11-In)*%
X175276863Y-88787500D02*
X177310263Y-90820900D01*
X177310263Y-90820900D02*
X179672000Y-90820900D01*
X174400000Y-88787500D02*
X175276863Y-88787500D01*
%TO.N,Net-(J10-In)*%
X175285000Y-80175000D02*
X177279000Y-82169000D01*
X174400000Y-80175000D02*
X175285000Y-80175000D01*
X177279000Y-82169000D02*
X179705000Y-82169000D01*
%TO.N,Net-(J9-In)*%
X177310263Y-99495000D02*
X179672000Y-99495000D01*
X175390263Y-97575000D02*
X177310263Y-99495000D01*
X174400000Y-97575000D02*
X175390263Y-97575000D01*
%TO.N,/SYZYGY/R_GA*%
X117355000Y-109495000D02*
X116200000Y-108340000D01*
X117494500Y-109495000D02*
X117355000Y-109495000D01*
D50*
%TO.N,SZG33*%
X116840000Y-90660000D02*
X117610000Y-89890000D01*
X116840000Y-97544900D02*
X116840000Y-90660000D01*
X115450000Y-108029339D02*
X116950000Y-106529339D01*
X116950000Y-97654900D02*
X116840000Y-97544900D01*
X116950000Y-106529339D02*
X116950000Y-97654900D01*
X117818000Y-112895000D02*
X115450000Y-110527000D01*
X126482000Y-111695000D02*
X125282000Y-112895000D01*
X125282000Y-112895000D02*
X117818000Y-112895000D01*
X115450000Y-110527000D02*
X115450000Y-108029339D01*
X126482000Y-111395000D02*
X126482000Y-111695000D01*
D51*
%TO.N,Net-(J15-S21)*%
X115930000Y-85495000D02*
X116480000Y-84945000D01*
D49*
X115930000Y-99270000D02*
X115930000Y-85495000D01*
D52*
%TO.N,SZG5V*%
X118445000Y-82356086D02*
X121401086Y-79400000D01*
X118445000Y-90361727D02*
X118445000Y-82356086D01*
X118675000Y-98283884D02*
X117615000Y-97223884D01*
X118675000Y-105841727D02*
X118675000Y-98283884D01*
X118700000Y-105866727D02*
X118675000Y-105841727D01*
X117615000Y-97223884D02*
X117615000Y-91191727D01*
X118700000Y-107140000D02*
X118700000Y-105866727D01*
X117900000Y-107940000D02*
X118700000Y-107140000D01*
X117615000Y-91191727D02*
X118445000Y-90361727D01*
D51*
%TO.N,Net-(J15-S21)*%
X172390000Y-95770000D02*
X172400000Y-95730000D01*
X172400000Y-95730000D02*
X172390000Y-95720000D01*
D49*
X174420000Y-95730000D02*
X172390000Y-95770000D01*
D51*
%TO.N,Net-(J15-S23)*%
X167530000Y-103710000D02*
X167520000Y-103670000D01*
D49*
X167520000Y-102250000D02*
X167530000Y-103710000D01*
%TO.N,Net-(U2-BYP)*%
X131500000Y-79900000D02*
X133500000Y-79900000D01*
X133500000Y-79900000D02*
X133600000Y-79800000D01*
D53*
%TO.N,TVDD33*%
X169024000Y-86520000D02*
X169024000Y-85256800D01*
D54*
X155211000Y-105165000D02*
X154454000Y-105165000D01*
D53*
X169024000Y-85256800D02*
X169044000Y-85236800D01*
X165812500Y-80100000D02*
X167990800Y-80100000D01*
X169024000Y-96395000D02*
X169024000Y-95156000D01*
D54*
X158324000Y-108278000D02*
X155211000Y-105165000D01*
D53*
X167990800Y-80100000D02*
X169044000Y-79046800D01*
X169278000Y-102839000D02*
X169024000Y-102585000D01*
X169278000Y-113743200D02*
X169278000Y-112428000D01*
X156367000Y-91920000D02*
X156359000Y-91920000D01*
D50*
X136110000Y-81720000D02*
X139768332Y-78061668D01*
D53*
X169278000Y-112428000D02*
X169278000Y-111259100D01*
D50*
X161200000Y-82100000D02*
X157161668Y-78061668D01*
D53*
X165812500Y-80436668D02*
X165812500Y-78936668D01*
X165892500Y-81900000D02*
X165892500Y-80133334D01*
D54*
X158324000Y-106877000D02*
X158242000Y-106795000D01*
D53*
X169278000Y-105069100D02*
X169278000Y-103792000D01*
X169024000Y-95156000D02*
X169024000Y-93910900D01*
D54*
X156374000Y-97745000D02*
X155071000Y-97745000D01*
D53*
X169278000Y-119933200D02*
X169278000Y-120937000D01*
D50*
X157161668Y-78061668D02*
X139768332Y-78061668D01*
D54*
X154454000Y-93825000D02*
X155079000Y-93200000D01*
D53*
X135882500Y-81720000D02*
X136110000Y-81720000D01*
X165892500Y-83330000D02*
X165892500Y-85592500D01*
X169024000Y-87720900D02*
X169024000Y-86520000D01*
X165892500Y-85592500D02*
X165900000Y-85600000D01*
D54*
X155071000Y-97745000D02*
X155022000Y-97696000D01*
D53*
X156367000Y-91920000D02*
X156367000Y-90895000D01*
D54*
X158324000Y-108278000D02*
X158324000Y-106877000D01*
D50*
X161200000Y-83200000D02*
X161200000Y-82100000D01*
D53*
X156359000Y-91920000D02*
X155079000Y-93200000D01*
X169278000Y-103792000D02*
X169278000Y-102839000D01*
X165892500Y-83330000D02*
X165892500Y-81563332D01*
D49*
%TO.N,GND*%
X136370000Y-85252500D02*
X136847500Y-85252500D01*
X125375000Y-82070000D02*
X125250000Y-82070000D01*
D50*
X158092000Y-89472600D02*
X157888800Y-89269400D01*
D49*
X130693500Y-78828000D02*
X130665500Y-78800000D01*
D50*
X126482000Y-109670000D02*
X126830000Y-109670000D01*
D49*
X126588265Y-84745765D02*
X126602500Y-84760000D01*
D50*
X174400000Y-119912500D02*
X176602700Y-119912500D01*
D49*
X148692000Y-113800000D02*
X146100000Y-113800000D01*
D50*
X158722000Y-88436200D02*
X158722000Y-86035000D01*
X130337500Y-79128000D02*
X130515500Y-78950000D01*
D49*
X129890000Y-86930000D02*
X130020000Y-87060000D01*
D50*
X141900000Y-120200000D02*
X141900000Y-117200000D01*
D49*
X176442000Y-102725000D02*
X177132000Y-102035000D01*
D50*
X124762000Y-111390000D02*
X126482000Y-109670000D01*
D49*
X136847500Y-85252500D02*
X137380000Y-84720000D01*
X176628600Y-111212500D02*
X177132000Y-110709100D01*
X125765000Y-84745765D02*
X126588265Y-84745765D01*
D54*
X128631152Y-93029999D02*
X130110001Y-93029999D01*
X152454000Y-103820000D02*
X152454000Y-105165000D01*
D50*
X128422500Y-119402500D02*
X126520000Y-117500000D01*
X158092000Y-90895000D02*
X158092000Y-89472600D01*
D54*
X152454000Y-103764000D02*
X152482000Y-103792000D01*
D50*
X126900000Y-109600000D02*
X129100000Y-109600000D01*
X157308000Y-113018000D02*
X156333000Y-112043000D01*
X144454500Y-112154500D02*
X145900000Y-113600000D01*
D49*
X137430000Y-87520000D02*
X137457500Y-87547500D01*
D50*
X130110000Y-93030000D02*
X130160000Y-93030000D01*
D54*
X152482000Y-103792000D02*
X152454000Y-103820000D01*
D50*
X151111000Y-112809000D02*
X152691000Y-112809000D01*
D54*
X128601152Y-87309999D02*
X129510001Y-87309999D01*
X150962778Y-101305778D02*
X151900000Y-100368556D01*
D50*
X119544500Y-110795000D02*
X120139500Y-111390000D01*
D54*
X153332444Y-103693000D02*
X152454000Y-103693000D01*
D53*
X149129200Y-86942000D02*
X149129200Y-85870800D01*
D54*
X147954000Y-94675444D02*
X147954000Y-93825000D01*
D53*
X135460000Y-79800000D02*
X136120000Y-79140000D01*
D50*
X126830000Y-109670000D02*
X126900000Y-109600000D01*
D49*
X146725000Y-86200000D02*
X146725000Y-87475000D01*
D54*
X148300000Y-95000000D02*
X148400000Y-95200000D01*
D50*
X174400000Y-85325000D02*
X176549000Y-85325000D01*
X144454500Y-112043000D02*
X144454500Y-112154500D01*
X129225000Y-78950000D02*
X130515500Y-78950000D01*
X174400000Y-111212500D02*
X176628600Y-111212500D01*
X154921500Y-110631500D02*
X156333000Y-112043000D01*
D54*
X151954000Y-104193000D02*
X152454000Y-103693000D01*
D49*
X146725000Y-87475000D02*
X146700000Y-87500000D01*
D54*
X151900000Y-100368556D02*
X151900000Y-96754000D01*
D53*
X150958000Y-86983000D02*
X149170200Y-86983000D01*
X126517500Y-81980000D02*
X125340000Y-81980000D01*
D54*
X150962778Y-101305778D02*
X148891778Y-103376778D01*
X151954000Y-105165000D02*
X151954000Y-104193000D01*
X148278556Y-95000000D02*
X147954000Y-94675444D01*
D49*
X125520000Y-86406249D02*
X125561251Y-86447500D01*
X176580400Y-93912500D02*
X177132000Y-93360900D01*
D54*
X153954000Y-94700000D02*
X153954000Y-93825000D01*
D50*
X130160000Y-93030000D02*
X130160000Y-92980000D01*
D49*
X125340000Y-81980000D02*
X125250000Y-82070000D01*
D50*
X130160000Y-92980000D02*
X130130000Y-93010000D01*
D54*
X148954000Y-103439000D02*
X148954000Y-104957893D01*
D50*
X174400000Y-102725000D02*
X176442000Y-102725000D01*
D49*
X146100000Y-113800000D02*
X145900000Y-113600000D01*
X138337500Y-85762500D02*
X138850000Y-85250000D01*
D50*
X144567000Y-110265000D02*
X144567000Y-111930500D01*
D54*
X147954000Y-105165000D02*
X147954000Y-104314556D01*
D49*
X125561251Y-86447500D02*
X126270000Y-86447500D01*
D50*
X120139500Y-111390000D02*
X124762000Y-111390000D01*
D54*
X148400000Y-95200000D02*
X148278556Y-95000000D01*
D50*
X144567000Y-108745000D02*
X144567000Y-110265000D01*
X151516000Y-112404000D02*
X151111000Y-112809000D01*
D54*
X130532000Y-109995000D02*
X130137000Y-109600000D01*
X153954000Y-104314556D02*
X153332444Y-103693000D01*
X152454000Y-103693000D02*
X152454000Y-103764000D01*
D49*
X136410000Y-87547500D02*
X137402500Y-87547500D01*
D50*
X130300000Y-81495500D02*
X130387500Y-81408000D01*
X159647000Y-110228000D02*
X158324000Y-110228000D01*
X141900000Y-117200000D02*
X141900000Y-114400000D01*
D54*
X148891778Y-103376778D02*
X148954000Y-103439000D01*
D50*
X128422500Y-120060000D02*
X128422500Y-119402500D01*
D53*
X130636000Y-78770500D02*
X130665500Y-78800000D01*
D54*
X151023556Y-101245000D02*
X156374000Y-101245000D01*
D50*
X130337500Y-81587500D02*
X130337500Y-79128000D01*
X157308000Y-113493000D02*
X157308000Y-113018000D01*
D49*
X154700000Y-118000000D02*
X154100000Y-117400000D01*
X135287500Y-79800000D02*
X135460000Y-79800000D01*
D50*
X154921500Y-110269000D02*
X154921500Y-110631500D01*
D54*
X151900000Y-96754000D02*
X153954000Y-94700000D01*
D49*
X136160000Y-79100000D02*
X136120000Y-79140000D01*
X154700000Y-118000000D02*
X154700000Y-119778000D01*
X176549000Y-85325000D02*
X177165000Y-84709000D01*
D53*
X129510001Y-87309999D02*
X129890000Y-86930000D01*
D50*
X174400000Y-93912500D02*
X176580400Y-93912500D01*
D53*
X149129200Y-85870800D02*
X149200000Y-85800000D01*
D50*
X144567000Y-111930500D02*
X144454500Y-112043000D01*
D54*
X150962778Y-101305778D02*
X151023556Y-101245000D01*
D49*
X130515500Y-78950000D02*
X130665500Y-78800000D01*
X137402500Y-87547500D02*
X137430000Y-87520000D01*
X154100000Y-117400000D02*
X154100000Y-116900000D01*
D53*
X119544500Y-110795000D02*
X119544500Y-109170500D01*
D54*
X157888800Y-90691800D02*
X158092000Y-90895000D01*
D53*
X119544500Y-109170500D02*
X120097000Y-108618000D01*
D54*
X130137000Y-109600000D02*
X129100000Y-109600000D01*
D49*
X136120000Y-79140000D02*
X136160000Y-79140000D01*
D50*
X130110001Y-93029999D02*
X130110000Y-93030000D01*
X152691000Y-112809000D02*
X152700000Y-112800000D01*
D54*
X147954000Y-104314556D02*
X148891778Y-103376778D01*
D53*
X149170200Y-86983000D02*
X149129200Y-86942000D01*
D49*
X130325000Y-81520500D02*
X130300000Y-81495500D01*
X138337500Y-86200000D02*
X138337500Y-85762500D01*
D50*
X157888800Y-89269400D02*
X158722000Y-88436200D01*
X130325000Y-81600000D02*
X130337500Y-81587500D01*
D49*
X176602700Y-119912500D02*
X177132000Y-119383200D01*
D54*
X153954000Y-105165000D02*
X153954000Y-104314556D01*
X130982000Y-109995000D02*
X130532000Y-109995000D01*
X132982000Y-109995000D02*
X130982000Y-109995000D01*
D50*
X151516000Y-110269000D02*
X151516000Y-112404000D01*
D49*
X136160000Y-79140000D02*
X136160000Y-79100000D01*
D53*
%TO.N,RVDD33*%
X152750000Y-119778000D02*
X154072000Y-121100000D01*
X154072000Y-121100000D02*
X155350000Y-121100000D01*
X148901000Y-109296000D02*
X148901000Y-111866000D01*
X149850000Y-108347000D02*
X148901000Y-109296000D01*
X153137500Y-114737500D02*
X149637500Y-114737500D01*
X149637500Y-113020500D02*
X148692000Y-112075000D01*
D54*
X149850000Y-106326551D02*
X149954000Y-106222551D01*
D53*
X149850000Y-106459000D02*
X149850000Y-108347000D01*
X155750000Y-117350000D02*
X153137500Y-114737500D01*
X151081500Y-119778000D02*
X152750000Y-119778000D01*
D54*
X149954000Y-106222551D02*
X149954000Y-105165000D01*
D53*
X155750000Y-120700000D02*
X155750000Y-117350000D01*
D54*
X149850000Y-106459000D02*
X149850000Y-106326551D01*
D53*
X149637500Y-114737500D02*
X149637500Y-113020500D01*
X148901000Y-111866000D02*
X148692000Y-112075000D01*
X155350000Y-121100000D02*
X155750000Y-120700000D01*
%TO.N,DVDD33*%
X151081500Y-118254000D02*
X152496000Y-118254000D01*
X149129200Y-88892000D02*
X149129200Y-90572200D01*
X133429999Y-83410001D02*
X133110000Y-83730000D01*
X147210334Y-116400000D02*
X143404500Y-112594166D01*
X143404500Y-108461858D02*
X143996358Y-107870000D01*
D54*
X148454000Y-93825000D02*
X148454000Y-92372600D01*
D53*
X136410000Y-89272500D02*
X137532500Y-89272500D01*
X134501048Y-83410001D02*
X136252501Y-83410001D01*
X149129200Y-91168200D02*
X148468800Y-91828600D01*
X134501048Y-83410001D02*
X133429999Y-83410001D01*
X145417000Y-107870000D02*
X146292000Y-108745000D01*
X152496000Y-118254000D02*
X152750000Y-118000000D01*
X149129200Y-90597800D02*
X149129200Y-91168200D01*
X136267501Y-89130001D02*
X136410000Y-89272500D01*
X149129200Y-90572200D02*
X149142000Y-90585000D01*
X137532500Y-89272500D02*
X137620000Y-89360000D01*
X143996358Y-107870000D02*
X145417000Y-107870000D01*
X148418000Y-91879400D02*
X148418000Y-92336600D01*
X148360000Y-106677000D02*
X147612000Y-107425000D01*
X134531048Y-89130001D02*
X136267501Y-89130001D01*
X150800000Y-116400000D02*
X147210334Y-116400000D01*
X149142000Y-90585000D02*
X149129200Y-90597800D01*
X148468800Y-91828600D02*
X148418000Y-91879400D01*
X151081500Y-118254000D02*
X151081500Y-116681500D01*
D54*
X148454000Y-92372600D02*
X148418000Y-92336600D01*
D53*
X143404500Y-112594166D02*
X143404500Y-108461858D01*
X136252501Y-83410001D02*
X136370000Y-83527500D01*
X151081500Y-116681500D02*
X150800000Y-116400000D01*
X147592000Y-107445000D02*
X146292000Y-108745000D01*
X147612000Y-107425000D02*
X147612000Y-107445000D01*
X147612000Y-107445000D02*
X147592000Y-107445000D01*
D54*
X148454000Y-106677000D02*
X148454000Y-105165000D01*
D52*
%TO.N,SZG5V*%
X129225000Y-79900000D02*
X128500000Y-79900000D01*
X128300000Y-78000000D02*
X129225000Y-78000000D01*
X128000000Y-79400000D02*
X128000000Y-78300000D01*
X137497349Y-114997349D02*
X139600000Y-117100000D01*
X129330293Y-114997349D02*
X129277642Y-115050000D01*
X133000000Y-114997349D02*
X137497349Y-114997349D01*
X128500000Y-79900000D02*
X128000000Y-79400000D01*
X122800000Y-118770000D02*
X126520000Y-115050000D01*
X139600000Y-117100000D02*
X139600000Y-120200000D01*
X128000000Y-78300000D02*
X128300000Y-78000000D01*
X122800000Y-120550000D02*
X122800000Y-118770000D01*
X129277642Y-115050000D02*
X126520000Y-115050000D01*
X129330293Y-114997349D02*
X133000000Y-114997349D01*
D50*
%TO.N,SZG33*%
X129787500Y-110587500D02*
X129800000Y-110600000D01*
X127392500Y-111395000D02*
X128200000Y-110587500D01*
X128200000Y-110587500D02*
X129787500Y-110587500D01*
X126482000Y-111395000D02*
X127392500Y-111395000D01*
D54*
X130982000Y-110495000D02*
X129880000Y-110495000D01*
X129880000Y-110495000D02*
X129787500Y-110587500D01*
D49*
%TO.N,/SYZYGY/R_GA*%
X117494500Y-110470000D02*
X117819500Y-110795000D01*
X117494500Y-109495000D02*
X119114500Y-107875000D01*
X119114500Y-107875000D02*
X131862000Y-107875000D01*
X131862000Y-107875000D02*
X131982000Y-107995000D01*
X117494500Y-109495000D02*
X117494500Y-110470000D01*
D51*
%TO.N,/Inputs/REFCLKN*%
X161365301Y-100212500D02*
X161365301Y-99612500D01*
D49*
X167862500Y-98220000D02*
X167500000Y-98582500D01*
D51*
X159882801Y-98260000D02*
X160082801Y-98260000D01*
X163882801Y-98260000D02*
X164082801Y-98260000D01*
X160882801Y-100495000D02*
X161082801Y-100495000D01*
X160600301Y-99095000D02*
X160600301Y-100212500D01*
X157609001Y-99377500D02*
X159082801Y-99377500D01*
X160600301Y-98777500D02*
X160600301Y-99095000D01*
X162882801Y-100495000D02*
X163082801Y-100495000D01*
X162600301Y-98777500D02*
X162600301Y-99377500D01*
X164882801Y-99377500D02*
X165082801Y-99377500D01*
X162600301Y-99377500D02*
X162600301Y-100212500D01*
D49*
X169034000Y-98230000D02*
X169024000Y-98220000D01*
D51*
X163365301Y-100212500D02*
X163365301Y-99612500D01*
X166768749Y-98582500D02*
X167500000Y-98582500D01*
X161365301Y-99612500D02*
X161365301Y-98777500D01*
X169024000Y-98220000D02*
X167862500Y-98220000D01*
X163365301Y-99612500D02*
X163365301Y-98777500D01*
X157476501Y-99245000D02*
X157609001Y-99377500D01*
X159365301Y-99095000D02*
X159365301Y-98777500D01*
X165555044Y-99377500D02*
X165973749Y-99377500D01*
X164600301Y-98777500D02*
X164600301Y-99095000D01*
X156374000Y-99245000D02*
X157476501Y-99245000D01*
X161882801Y-98260000D02*
X162082801Y-98260000D01*
X165082801Y-99377500D02*
X165555044Y-99377500D01*
X165973749Y-99377500D02*
X166768749Y-98582500D01*
X171818000Y-98230000D02*
X169034000Y-98230000D01*
X159082801Y-99377500D02*
G75*
G03*
X159365300Y-99095000I-1J282500D01*
G01*
X159365301Y-98777500D02*
G75*
G02*
X159882801Y-98260001I517499J0D01*
G01*
X162600301Y-100212500D02*
G75*
G03*
X162882801Y-100494999I282499J0D01*
G01*
X160600301Y-100212500D02*
G75*
G03*
X160882801Y-100494999I282499J0D01*
G01*
X163082801Y-100495000D02*
G75*
G03*
X163365300Y-100212500I-1J282500D01*
G01*
X164600301Y-99095000D02*
G75*
G03*
X164882801Y-99377499I282499J0D01*
G01*
X160082801Y-98260000D02*
G75*
G02*
X160600300Y-98777500I-1J-517500D01*
G01*
X163365301Y-98777500D02*
G75*
G02*
X163882801Y-98260001I517499J0D01*
G01*
X161082801Y-100495000D02*
G75*
G03*
X161365300Y-100212500I-1J282500D01*
G01*
X162082801Y-98260000D02*
G75*
G02*
X162600300Y-98777500I-1J-517500D01*
G01*
X164082801Y-98260000D02*
G75*
G02*
X164600300Y-98777500I-1J-517500D01*
G01*
X161365301Y-98777500D02*
G75*
G02*
X161882801Y-98260001I517499J0D01*
G01*
%TO.N,/Inputs/REFCLKP*%
X159600301Y-99095000D02*
X159600301Y-98777500D01*
X163882801Y-98495000D02*
X164082801Y-98495000D01*
X157609001Y-99612500D02*
X159082801Y-99612500D01*
X171818000Y-100770000D02*
X169034000Y-100770000D01*
X161882801Y-98495000D02*
X162082801Y-98495000D01*
X161600301Y-100212500D02*
X161600301Y-99612500D01*
X157476501Y-99745000D02*
X157609001Y-99612500D01*
X160365301Y-99095000D02*
X160365301Y-100212500D01*
X165082801Y-99612500D02*
X165555044Y-99612500D01*
X159882801Y-98495000D02*
X160082801Y-98495000D01*
X162365301Y-98777500D02*
X162365301Y-99377500D01*
X166768749Y-100407500D02*
X167500000Y-100407500D01*
X165555044Y-99612500D02*
X165973749Y-99612500D01*
D49*
X169034000Y-100770000D02*
X169024000Y-100760000D01*
D51*
X162882801Y-100730000D02*
X163082801Y-100730000D01*
X164882801Y-99612500D02*
X165082801Y-99612500D01*
D49*
X167852500Y-100760000D02*
X167500000Y-100407500D01*
D51*
X163600301Y-100212500D02*
X163600301Y-99612500D01*
X171948000Y-100900000D02*
X171818000Y-100770000D01*
D49*
X174400000Y-99400000D02*
X174400000Y-100900000D01*
D51*
X165973749Y-99612500D02*
X166768749Y-100407500D01*
D49*
X174400000Y-100900000D02*
X171948000Y-100900000D01*
D51*
X160365301Y-98777500D02*
X160365301Y-99095000D01*
X160882801Y-100730000D02*
X161082801Y-100730000D01*
X156374000Y-99745000D02*
X157476501Y-99745000D01*
X164365301Y-98777500D02*
X164365301Y-99095000D01*
X163600301Y-99612500D02*
X163600301Y-98777500D01*
X161600301Y-99612500D02*
X161600301Y-98777500D01*
X162365301Y-99377500D02*
X162365301Y-100212500D01*
X169024000Y-100760000D02*
X167852500Y-100760000D01*
X162082801Y-98495000D02*
G75*
G02*
X162365300Y-98777500I-1J-282500D01*
G01*
X164365301Y-99095000D02*
G75*
G03*
X164882801Y-99612499I517499J0D01*
G01*
X159600301Y-98777500D02*
G75*
G02*
X159882801Y-98495001I282499J0D01*
G01*
X164082801Y-98495000D02*
G75*
G02*
X164365300Y-98777500I-1J-282500D01*
G01*
X159082801Y-99612500D02*
G75*
G03*
X159600300Y-99095000I-1J517500D01*
G01*
X162365301Y-100212500D02*
G75*
G03*
X162882801Y-100729999I517499J0D01*
G01*
X163600301Y-98777500D02*
G75*
G02*
X163882801Y-98495001I282499J0D01*
G01*
X161082801Y-100730000D02*
G75*
G03*
X161600300Y-100212500I-1J517500D01*
G01*
X160082801Y-98495000D02*
G75*
G02*
X160365300Y-98777500I-1J-282500D01*
G01*
X163082801Y-100730000D02*
G75*
G03*
X163600300Y-100212500I-1J517500D01*
G01*
X160365301Y-100212500D02*
G75*
G03*
X160882801Y-100729999I517499J0D01*
G01*
X161600301Y-98777500D02*
G75*
G02*
X161882801Y-98495001I282499J0D01*
G01*
D49*
%TO.N,/Inputs/STOP1P*%
X174400000Y-83500000D02*
X171896200Y-83500000D01*
X167852500Y-83411800D02*
X167500000Y-83059300D01*
D51*
X167500000Y-83059300D02*
X168691500Y-83059300D01*
D49*
X169054000Y-83421800D02*
X169044000Y-83411800D01*
D51*
X156969000Y-96245000D02*
X156374000Y-96245000D01*
X157643672Y-96112500D02*
X157101500Y-96112500D01*
X171818000Y-83421800D02*
X169054000Y-83421800D01*
D49*
X174400000Y-82000000D02*
X174400000Y-83500000D01*
X171896200Y-83500000D02*
X171818000Y-83421800D01*
D51*
X167500000Y-83059300D02*
X167500000Y-86256172D01*
X167500000Y-86256172D02*
X157643672Y-96112500D01*
X157101500Y-96112500D02*
X156969000Y-96245000D01*
D49*
X168691500Y-83059300D02*
X169044000Y-83411800D01*
D51*
%TO.N,/Inputs/STOP1N*%
X167265000Y-83901744D02*
X167265000Y-86158828D01*
X156969000Y-95745000D02*
X156374000Y-95745000D01*
X157101500Y-95877500D02*
X156969000Y-95745000D01*
X167500000Y-81234300D02*
X168681500Y-81234300D01*
D49*
X169054000Y-80881800D02*
X169044000Y-80871800D01*
D51*
X167265000Y-81469300D02*
X167265000Y-82216856D01*
X167500000Y-81234300D02*
X167265000Y-81469300D01*
X166850000Y-83486744D02*
X167265000Y-83901744D01*
X167265000Y-86158828D02*
X157546328Y-95877500D01*
X171818000Y-80881800D02*
X169054000Y-80881800D01*
X166850000Y-82631856D02*
X166850000Y-83486744D01*
X167265000Y-82216856D02*
X166850000Y-82631856D01*
D49*
X168681500Y-81234300D02*
X169044000Y-80871800D01*
D51*
X157546328Y-95877500D02*
X157101500Y-95877500D01*
%TO.N,/Inputs/STOP2P*%
X164867243Y-95108443D02*
X165063466Y-95304666D01*
X166281457Y-93694229D02*
X166477680Y-93890452D01*
X157476501Y-97245000D02*
X156374000Y-97245000D01*
X164105333Y-94346534D02*
X164501312Y-94742513D01*
X167500000Y-91733400D02*
X167500000Y-92076172D01*
X164190187Y-96177946D02*
X163993965Y-95981724D01*
D49*
X174400000Y-90612500D02*
X174400000Y-92087500D01*
D51*
X165063465Y-96036524D02*
X164922045Y-96177945D01*
X165125335Y-94284664D02*
X165042249Y-94201579D01*
D49*
X171826400Y-92087500D02*
X171818000Y-92095900D01*
D51*
X164246755Y-93805599D02*
X164105333Y-93947020D01*
X162463672Y-97112500D02*
X161111214Y-97112500D01*
X165408179Y-94567510D02*
X165125336Y-94284667D01*
X169024000Y-92085900D02*
X167852500Y-92085900D01*
X157609001Y-97112500D02*
X157476501Y-97245000D01*
D49*
X171678900Y-92095900D02*
X171668900Y-92085900D01*
D51*
X164501312Y-94742513D02*
X164584398Y-94825599D01*
X164584401Y-94825600D02*
X164784158Y-95025357D01*
X164784158Y-95025357D02*
X164867243Y-95108443D01*
X171668900Y-92085900D02*
X169024000Y-92085900D01*
D49*
X171818000Y-92095900D02*
X171678900Y-92095900D01*
X174400000Y-92087500D02*
X171826400Y-92087500D01*
D51*
X166477679Y-94622310D02*
X166336259Y-94763731D01*
X167500000Y-92076172D02*
X166281457Y-93294715D01*
X165042249Y-94201579D02*
X164646269Y-93805599D01*
X163453029Y-96123143D02*
X162463672Y-97112500D01*
X164584398Y-94825599D02*
X164584401Y-94825600D01*
X165604401Y-94763732D02*
X165408179Y-94567510D01*
X165125336Y-94284667D02*
X165125335Y-94284664D01*
D49*
X167852500Y-92085900D02*
X167500000Y-91733400D01*
D51*
X161111214Y-97112500D02*
X157609001Y-97112500D01*
X163594451Y-95981724D02*
X163453029Y-96123143D01*
X166336259Y-94763731D02*
G75*
G02*
X165604372Y-94763762I-365959J365931D01*
G01*
X166477680Y-93890452D02*
G75*
G02*
X166477699Y-94622329I-365980J-365948D01*
G01*
X164105333Y-93947020D02*
G75*
G03*
X164105310Y-94346557I199767J-199780D01*
G01*
X164646269Y-93805599D02*
G75*
G03*
X164246755Y-93805599I-199757J-199757D01*
G01*
X163993965Y-95981724D02*
G75*
G03*
X163594451Y-95981724I-199757J-199754D01*
G01*
X164922045Y-96177945D02*
G75*
G02*
X164190172Y-96177962I-365945J365945D01*
G01*
X165063466Y-95304666D02*
G75*
G02*
X165063471Y-96036529I-365966J-365934D01*
G01*
X166281457Y-93294715D02*
G75*
G03*
X166281429Y-93694257I199743J-199785D01*
G01*
D49*
%TO.N,/Inputs/STOP2N*%
X169034000Y-89555900D02*
X169024000Y-89545900D01*
D51*
X161111214Y-96877500D02*
X157609001Y-96877500D01*
X171818000Y-89555900D02*
X169034000Y-89555900D01*
X166115285Y-93860402D02*
X166311508Y-94056625D01*
X164418227Y-94991770D02*
X164418228Y-94991773D01*
D49*
X167862500Y-89545900D02*
X167500000Y-89908400D01*
D51*
X157476501Y-96745000D02*
X156374000Y-96745000D01*
X169024000Y-89545900D02*
X167862500Y-89545900D01*
X165291506Y-94118493D02*
X165208421Y-94035407D01*
X166850000Y-91305956D02*
X166850000Y-92160844D01*
X165291509Y-94118495D02*
X165291506Y-94118493D01*
X163286858Y-95956972D02*
X162366328Y-96877500D01*
X166966492Y-92277336D02*
X166115285Y-93128543D01*
X164080584Y-93639427D02*
X163939162Y-93780848D01*
X164418228Y-94991773D02*
X164617985Y-95191530D01*
X167265000Y-90143400D02*
X167265000Y-90890956D01*
X163939162Y-94512705D02*
X164335141Y-94908684D01*
X165574352Y-94401338D02*
X165291509Y-94118495D01*
X166115285Y-93128543D02*
X166115286Y-93128544D01*
X164897294Y-95870352D02*
X164755872Y-96011775D01*
X165770574Y-94597560D02*
X165574352Y-94401338D01*
X165208421Y-94035407D02*
X164812441Y-93639427D01*
X164335141Y-94908684D02*
X164418227Y-94991770D01*
X167265000Y-90890956D02*
X166850000Y-91305956D01*
X166311508Y-94456139D02*
X166170088Y-94597560D01*
X164617985Y-95191530D02*
X164701071Y-95274615D01*
X164701071Y-95274615D02*
X164897294Y-95470838D01*
X162366328Y-96877500D02*
X161111214Y-96877500D01*
X167500000Y-89908400D02*
X167265000Y-90143400D01*
X157609001Y-96877500D02*
X157476501Y-96745000D01*
X166850000Y-92160844D02*
X166966492Y-92277336D01*
X164356358Y-96011775D02*
X164160136Y-95815553D01*
X163428280Y-95815552D02*
X163286858Y-95956972D01*
X164812441Y-93639427D02*
G75*
G03*
X164080583Y-93639426I-365929J-365927D01*
G01*
X164755872Y-96011775D02*
G75*
G02*
X164356358Y-96011775I-199757J199761D01*
G01*
X163939162Y-93780848D02*
G75*
G03*
X163939138Y-94512728I365938J-365952D01*
G01*
X166115286Y-93128544D02*
G75*
G03*
X166115258Y-93860429I365914J-365956D01*
G01*
X166170088Y-94597560D02*
G75*
G02*
X165770574Y-94597560I-199757J199754D01*
G01*
X164897294Y-95470838D02*
G75*
G02*
X164897299Y-95870357I-199794J-199762D01*
G01*
X166311508Y-94056625D02*
G75*
G02*
X166311526Y-94456157I-199708J-199775D01*
G01*
X164160136Y-95815553D02*
G75*
G03*
X163428273Y-95815544I-365936J-365947D01*
G01*
%TO.N,/Inputs/STOP3N*%
X165549330Y-104389330D02*
X165549329Y-104389329D01*
X163071172Y-101745000D02*
X156374000Y-101745000D01*
X167754000Y-107256600D02*
X167754000Y-106427828D01*
X165317752Y-105303265D02*
X165176330Y-105161843D01*
D49*
X169288000Y-106904100D02*
X169278000Y-106894100D01*
D51*
X165176330Y-104762329D02*
X165266487Y-104672173D01*
X166539282Y-105213110D02*
X166539280Y-105213109D01*
X165632415Y-104306244D02*
X165922329Y-104016330D01*
X165049050Y-103143051D02*
X164759136Y-103432964D01*
X164393206Y-103798891D02*
X164303049Y-103889048D01*
X163762113Y-103348112D02*
X163852270Y-103257956D01*
X169278000Y-106894100D02*
X168116500Y-106894100D01*
X164476293Y-103715807D02*
X164393206Y-103798891D01*
X165807424Y-105213110D02*
X165717266Y-105303265D01*
D49*
X168116500Y-106894100D02*
X167754000Y-107256600D01*
D51*
X163710849Y-102384678D02*
X163299800Y-101973628D01*
X171818000Y-106904100D02*
X169288000Y-106904100D01*
X163299800Y-101973628D02*
X163071172Y-101745000D01*
X165266487Y-104672173D02*
X165549330Y-104389330D01*
X163903535Y-103889048D02*
X163762113Y-103747626D01*
X165922329Y-103284473D02*
X165780907Y-103143051D01*
X165549329Y-104389329D02*
X165632415Y-104306244D01*
X167754000Y-106427828D02*
X166539282Y-105213110D01*
X164759136Y-103432964D02*
X164476293Y-103715807D01*
X163852269Y-102526098D02*
X163710849Y-102384678D01*
X165780907Y-103143051D02*
G75*
G03*
X165049051Y-103143051I-365928J-365927D01*
G01*
X163762113Y-103747626D02*
G75*
G02*
X163762144Y-103348143I199787J199726D01*
G01*
X165717266Y-105303265D02*
G75*
G02*
X165317752Y-105303265I-199757J199754D01*
G01*
X165176330Y-105161843D02*
G75*
G02*
X165176344Y-104762343I199770J199743D01*
G01*
X165922329Y-104016330D02*
G75*
G03*
X165922331Y-103284472I-365929J365930D01*
G01*
X166539280Y-105213109D02*
G75*
G03*
X165807472Y-105213157I-365880J-365891D01*
G01*
X163852270Y-103257956D02*
G75*
G03*
X163852297Y-102526071I-365970J365956D01*
G01*
X164303049Y-103889048D02*
G75*
G02*
X163903535Y-103889048I-199757J199754D01*
G01*
D49*
%TO.N,/Inputs/STOP3P*%
X171874600Y-109387500D02*
X171818000Y-109444100D01*
D51*
X165756157Y-103450644D02*
X165614735Y-103309222D01*
X163133628Y-102139800D02*
X162973829Y-101980001D01*
D49*
X174400000Y-109387500D02*
X171874600Y-109387500D01*
D51*
X165215221Y-103309222D02*
X164925307Y-103599135D01*
X165100315Y-104506000D02*
X165383158Y-104223157D01*
X171818000Y-109444100D02*
X169288000Y-109444100D01*
X156559000Y-102060000D02*
X156374000Y-102245000D01*
X167104000Y-106829156D02*
X167407984Y-106525172D01*
X165973595Y-105379280D02*
X165883439Y-105469437D01*
X164925307Y-103599135D02*
X164642464Y-103881978D01*
X157241955Y-101980001D02*
X157161956Y-102060000D01*
X165151581Y-105469436D02*
X165010159Y-105328014D01*
X163686099Y-102692271D02*
X163544678Y-102550849D01*
X164642464Y-103881978D02*
X164559380Y-103965065D01*
X167519000Y-106525172D02*
X166373110Y-105379282D01*
X169278000Y-109434100D02*
X168106500Y-109434100D01*
X167104000Y-107684044D02*
X167104000Y-106829156D01*
X165466244Y-104140072D02*
X165756157Y-103850158D01*
X167519000Y-108099044D02*
X167104000Y-107684044D01*
D49*
X168106500Y-109434100D02*
X167754000Y-109081600D01*
D51*
X163544678Y-102550849D02*
X163133628Y-102139800D01*
X167754000Y-109081600D02*
X167519000Y-108846600D01*
X163595942Y-103181941D02*
X163686099Y-103091785D01*
X167407984Y-106525172D02*
X167519000Y-106525172D01*
X165010160Y-104596158D02*
X165100315Y-104506000D01*
D49*
X169288000Y-109444100D02*
X169278000Y-109434100D01*
D51*
X162973829Y-101980001D02*
X157241955Y-101980001D01*
D49*
X174400000Y-107912500D02*
X174400000Y-109387500D01*
D51*
X157161956Y-102060000D02*
X156559000Y-102060000D01*
X166373110Y-105379282D02*
X166373109Y-105379280D01*
X165383158Y-104223158D02*
X165466244Y-104140072D01*
X163737365Y-104055221D02*
X163595943Y-103913799D01*
X167519000Y-108846600D02*
X167519000Y-108099044D01*
X165383158Y-104223157D02*
X165383158Y-104223158D01*
X164559380Y-103965065D02*
X164469223Y-104055222D01*
X165756157Y-103850158D02*
G75*
G03*
X165756158Y-103450643I-199757J199758D01*
G01*
X164469223Y-104055222D02*
G75*
G02*
X163737371Y-104055216I-365923J365922D01*
G01*
X165010159Y-105328014D02*
G75*
G02*
X165010173Y-104596171I365941J365914D01*
G01*
X165883439Y-105469437D02*
G75*
G02*
X165151571Y-105469447I-365939J365937D01*
G01*
X166373109Y-105379280D02*
G75*
G03*
X165973595Y-105379280I-199757J-199761D01*
G01*
X163686099Y-103091785D02*
G75*
G03*
X163686127Y-102692243I-199799J199785D01*
G01*
X165614735Y-103309222D02*
G75*
G03*
X165215221Y-103309222I-199757J-199757D01*
G01*
X163595943Y-103913799D02*
G75*
G02*
X163595972Y-103181971I365957J365899D01*
G01*
D49*
%TO.N,/Inputs/STOP4P*%
X171848700Y-118087500D02*
X171818000Y-118118200D01*
D51*
X171818000Y-118118200D02*
X169288000Y-118118200D01*
X167519000Y-115088256D02*
X167519000Y-113175172D01*
X167519000Y-116773144D02*
X167104000Y-116358144D01*
X174400000Y-118087500D02*
X171848700Y-118087500D01*
X167519000Y-117520700D02*
X167519000Y-116773144D01*
X167754000Y-117755700D02*
X167519000Y-117520700D01*
X157101500Y-103112500D02*
X156969000Y-103245000D01*
D49*
X171983685Y-118508200D02*
X171818000Y-118508200D01*
X174400000Y-116600000D02*
X174400000Y-118087500D01*
X169288000Y-118118200D02*
X169278000Y-118108200D01*
D51*
X157456328Y-103112500D02*
X157101500Y-103112500D01*
X167104000Y-116358144D02*
X167104000Y-115503256D01*
X169278000Y-118108200D02*
X168106500Y-118108200D01*
X167104000Y-115503256D02*
X167519000Y-115088256D01*
D49*
X168106500Y-118108200D02*
X167754000Y-117755700D01*
D51*
X167519000Y-113175172D02*
X157456328Y-103112500D01*
X156969000Y-103245000D02*
X156374000Y-103245000D01*
%TO.N,/Inputs/STOP4N*%
X157101500Y-102877500D02*
X156969000Y-102745000D01*
X167754000Y-113077828D02*
X157553672Y-102877500D01*
X157553672Y-102877500D02*
X157101500Y-102877500D01*
X169278000Y-115568200D02*
X168116500Y-115568200D01*
D49*
X169288000Y-115578200D02*
X169278000Y-115568200D01*
D51*
X171818000Y-115578200D02*
X169288000Y-115578200D01*
D49*
X168116500Y-115568200D02*
X167754000Y-115930700D01*
D51*
X156969000Y-102745000D02*
X156374000Y-102745000D01*
X167754000Y-115930700D02*
X167754000Y-113077828D01*
D49*
%TO.N,/SYZYGY/MCU_SCL_USCK*%
X136887000Y-109000000D02*
X135882000Y-107995000D01*
X140305000Y-109000000D02*
X136887000Y-109000000D01*
X142000000Y-110695000D02*
X140305000Y-109000000D01*
X135882000Y-107995000D02*
X133982000Y-107995000D01*
%TO.N,/SYZYGY/MCU_MISO*%
X141052860Y-110596390D02*
X137917704Y-110596390D01*
X136316314Y-108995000D02*
X134982000Y-108995000D01*
X137917704Y-110596390D02*
X136316314Y-108995000D01*
%TO.N,/SYZYGY/MCU_SDA_MOSI*%
X141100000Y-111395000D02*
X135382000Y-111395000D01*
X135382000Y-111395000D02*
X134982000Y-110995000D01*
%TO.N,/SYZYGY/MCU_RESET_B*%
X135669500Y-113307500D02*
X132045541Y-113307500D01*
X132038041Y-113300000D02*
X129087500Y-113300000D01*
X129087500Y-113300000D02*
X128200000Y-112412500D01*
X132334000Y-113307500D02*
X132045541Y-113307500D01*
X132045541Y-113307500D02*
X132038041Y-113300000D01*
X136782000Y-112195000D02*
X141600000Y-112195000D01*
X132982000Y-112659500D02*
X132334000Y-113307500D01*
X136782000Y-112195000D02*
X135669500Y-113307500D01*
X132982000Y-111995000D02*
X132982000Y-112659500D01*
D51*
%TO.N,/SYZYGY/SDO4N*%
X138046214Y-104514999D02*
X138578714Y-104514999D01*
X132929965Y-104982499D02*
X132929965Y-105333751D01*
X137046214Y-105450000D02*
X137578714Y-105450000D01*
X133694963Y-105333751D02*
X133694963Y-105217501D01*
X135694963Y-105333751D02*
X135694963Y-105217501D01*
X129046214Y-105450000D02*
X129578714Y-105450000D01*
X133046214Y-105450000D02*
X133578714Y-105450000D01*
X132046214Y-104514998D02*
X132578714Y-104514998D01*
X129694963Y-105333751D02*
X129694963Y-105217501D01*
X135046214Y-105450000D02*
X135578714Y-105450000D01*
X143856328Y-102877500D02*
X144306500Y-102877500D01*
X132929965Y-104866249D02*
X132929965Y-104982499D01*
X140544566Y-104982499D02*
X141751329Y-104982499D01*
X131046214Y-105450000D02*
X131578714Y-105450000D01*
X144306500Y-102877500D02*
X144439000Y-102745000D01*
X139046214Y-104982499D02*
X139578714Y-104982499D01*
X131694963Y-105333751D02*
X131694963Y-105217501D01*
X139578714Y-104982499D02*
X140544566Y-104982499D01*
X137694963Y-105333751D02*
X137694963Y-105217501D01*
X134929965Y-104866249D02*
X134929965Y-104982499D01*
X141751329Y-104982499D02*
X143856328Y-102877500D01*
X126000000Y-104700000D02*
X126282499Y-104982499D01*
X136929965Y-104866249D02*
X136929965Y-104982499D01*
X135694963Y-105217501D02*
X135694963Y-104866249D01*
X136929965Y-104982499D02*
X136929965Y-105333751D01*
X134046214Y-104514998D02*
X134578714Y-104514998D01*
X136046214Y-104514998D02*
X136578714Y-104514998D01*
X134929965Y-104982499D02*
X134929965Y-105333751D01*
X130929965Y-104982499D02*
X130929965Y-105333751D01*
X133694963Y-105217501D02*
X133694963Y-104866249D01*
X130046214Y-104514998D02*
X130578714Y-104514998D01*
X128929965Y-104866250D02*
X128929965Y-104982499D01*
X137694963Y-105217501D02*
X137694963Y-104866250D01*
X131694963Y-105217501D02*
X131694963Y-104866249D01*
X128929965Y-104982499D02*
X128929965Y-105333751D01*
X126282499Y-104982499D02*
X127578714Y-104982499D01*
X144439000Y-102745000D02*
X145034000Y-102745000D01*
D49*
X145034000Y-102745000D02*
X145009001Y-102769999D01*
D51*
X129694963Y-105217501D02*
X129694963Y-104866249D01*
X130929965Y-104866249D02*
X130929965Y-104982499D01*
X128046214Y-104514999D02*
X128578714Y-104514999D01*
X137578714Y-105450000D02*
G75*
G03*
X137695000Y-105333751I-14J116300D01*
G01*
X136929965Y-105333751D02*
G75*
G03*
X137046214Y-105449935I116235J51D01*
G01*
X130578714Y-104514998D02*
G75*
G02*
X130929902Y-104866249I-14J-351202D01*
G01*
X135578714Y-105450000D02*
G75*
G03*
X135695000Y-105333751I-14J116300D01*
G01*
X135694963Y-104866249D02*
G75*
G02*
X136046214Y-104514963I351237J49D01*
G01*
X130929965Y-105333751D02*
G75*
G03*
X131046214Y-105449935I116235J51D01*
G01*
X138929965Y-104866250D02*
G75*
G03*
X139046214Y-104982435I116235J50D01*
G01*
X129694963Y-104866249D02*
G75*
G02*
X130046214Y-104514963I351237J49D01*
G01*
X136578714Y-104514998D02*
G75*
G02*
X136929902Y-104866249I-14J-351202D01*
G01*
X127578714Y-104982499D02*
G75*
G03*
X127694999Y-104866250I-14J116299D01*
G01*
X129578714Y-105450000D02*
G75*
G03*
X129695000Y-105333751I-14J116300D01*
G01*
X138578714Y-104514999D02*
G75*
G02*
X138929901Y-104866250I-14J-351201D01*
G01*
X137694963Y-104866250D02*
G75*
G02*
X138046214Y-104514963I351237J50D01*
G01*
X131578714Y-105450000D02*
G75*
G03*
X131695000Y-105333751I-14J116300D01*
G01*
X134929965Y-105333751D02*
G75*
G03*
X135046214Y-105449935I116235J51D01*
G01*
X128578714Y-104514999D02*
G75*
G02*
X128929901Y-104866250I-14J-351201D01*
G01*
X133694963Y-104866249D02*
G75*
G02*
X134046214Y-104514963I351237J49D01*
G01*
X127694963Y-104866250D02*
G75*
G02*
X128046214Y-104514963I351237J50D01*
G01*
X132929965Y-105333751D02*
G75*
G03*
X133046214Y-105449935I116235J51D01*
G01*
X128929965Y-105333751D02*
G75*
G03*
X129046214Y-105449935I116235J51D01*
G01*
X131694963Y-104866249D02*
G75*
G02*
X132046214Y-104514963I351237J49D01*
G01*
X134578714Y-104514998D02*
G75*
G02*
X134929902Y-104866249I-14J-351202D01*
G01*
X133578714Y-105450000D02*
G75*
G03*
X133695000Y-105333751I-14J116300D01*
G01*
X132578714Y-104514998D02*
G75*
G02*
X132929902Y-104866249I-14J-351202D01*
G01*
D49*
%TO.N,/SYZYGY/INTERRUPT_N_B*%
X152110000Y-82600000D02*
X152910000Y-81800000D01*
X157027000Y-81800000D02*
X158722000Y-83495000D01*
X157435000Y-86647000D02*
X157435000Y-84782000D01*
X138920000Y-83139044D02*
X139994094Y-82064950D01*
X152910000Y-81800000D02*
X157027000Y-81800000D01*
X157435000Y-84782000D02*
X158722000Y-83495000D01*
X151454000Y-93825000D02*
X151454000Y-92819650D01*
X155326300Y-88287188D02*
X155326300Y-87850700D01*
X135173278Y-85360000D02*
X135903278Y-86090000D01*
X148985049Y-82064950D02*
X149520099Y-82600000D01*
X138920000Y-84120000D02*
X138920000Y-83139044D01*
X155992000Y-87185000D02*
X156897000Y-87185000D01*
X139994094Y-82064950D02*
X148985049Y-82064950D01*
X152200000Y-92073650D02*
X152200000Y-91413488D01*
X156897000Y-87185000D02*
X157435000Y-86647000D01*
X136950000Y-86090000D02*
X138920000Y-84120000D01*
X135903278Y-86090000D02*
X136950000Y-86090000D01*
X152200000Y-91413488D02*
X155326300Y-88287188D01*
X149520099Y-82600000D02*
X152110000Y-82600000D01*
X155326300Y-87850700D02*
X155992000Y-87185000D01*
X151454000Y-92819650D02*
X152200000Y-92073650D01*
X134501048Y-85360000D02*
X135173278Y-85360000D01*
D51*
%TO.N,/SYZYGY/SDO1N*%
X124590159Y-96877500D02*
X126516615Y-96877500D01*
X128516615Y-96877500D02*
X128623958Y-96877500D01*
X143798999Y-96877500D02*
X143931499Y-96745000D01*
X127944115Y-96877500D02*
X128516615Y-96877500D01*
X119972659Y-101495000D02*
X124590159Y-96877500D01*
X126944115Y-96450000D02*
X127516615Y-96450000D01*
X119500000Y-101495000D02*
X119972659Y-101495000D01*
X128623958Y-96877500D02*
X143798999Y-96877500D01*
X143931499Y-96745000D02*
X145034000Y-96745000D01*
X127516615Y-96450000D02*
G75*
G02*
X127847900Y-96781250I-15J-331300D01*
G01*
X126612865Y-96781250D02*
G75*
G02*
X126944115Y-96450065I331235J-50D01*
G01*
X127847865Y-96781250D02*
G75*
G03*
X127944115Y-96877435I96235J50D01*
G01*
X126516615Y-96877500D02*
G75*
G03*
X126612900Y-96781250I-15J96300D01*
G01*
%TO.N,/SYZYGY/SDO2N*%
X119917659Y-104745000D02*
X119500000Y-104745000D01*
X125785159Y-98877500D02*
X119917659Y-104745000D01*
X143931499Y-98745000D02*
X143798999Y-98877500D01*
X145034000Y-98745000D02*
X143931499Y-98745000D01*
X143798999Y-98877500D02*
X125785159Y-98877500D01*
%TO.N,/SYZYGY/LCLKINN*%
X142468749Y-93087500D02*
X141673749Y-93882500D01*
X143200000Y-93500000D02*
X143200000Y-93087500D01*
X119732500Y-93882500D02*
X119360000Y-93510000D01*
X141673749Y-93882500D02*
X119732500Y-93882500D01*
X143200000Y-93087500D02*
X142468749Y-93087500D01*
X146700000Y-94500000D02*
X144200000Y-94500000D01*
X144200000Y-94500000D02*
X143200000Y-93500000D01*
X146954000Y-93825000D02*
X146954000Y-94246000D01*
X146954000Y-94246000D02*
X146700000Y-94500000D01*
%TO.N,/SYZYGY/FRAME2N*%
X132900000Y-97877500D02*
X143798999Y-97877500D01*
X125185159Y-97877500D02*
X130100000Y-97877500D01*
X143931499Y-97745000D02*
X145034000Y-97745000D01*
X119967659Y-103095000D02*
X125185159Y-97877500D01*
X132440000Y-97877500D02*
X132900000Y-97877500D01*
X119500000Y-103100000D02*
X119967659Y-103095000D01*
X130455000Y-97522500D02*
X131270000Y-97522500D01*
X143798999Y-97877500D02*
X143931499Y-97745000D01*
X131625000Y-97877500D02*
X132440000Y-97877500D01*
X119500000Y-103095000D02*
X119500000Y-103100000D01*
X131270000Y-97522500D02*
G75*
G02*
X131565000Y-97817500I0J-295000D01*
G01*
X130160000Y-97817500D02*
G75*
G02*
X130455000Y-97522500I295000J0D01*
G01*
X131565000Y-97817500D02*
G75*
G03*
X131625000Y-97877500I60000J0D01*
G01*
X130100000Y-97877500D02*
G75*
G03*
X130160000Y-97817500I0J60000D01*
G01*
%TO.N,/SYZYGY/FRAME3P*%
X131756250Y-100112500D02*
X131756250Y-99756250D01*
X130521250Y-99877500D02*
X130521250Y-100233750D01*
X137877500Y-99635000D02*
X138400000Y-99635000D01*
X133756250Y-100112500D02*
X133756250Y-99756250D01*
X133877500Y-99635000D02*
X134400000Y-99635000D01*
X130877500Y-100590000D02*
X131400000Y-100590000D01*
X135877500Y-99635000D02*
X136400000Y-99635000D01*
X132877500Y-100590000D02*
X133400000Y-100590000D01*
X139877500Y-99635000D02*
X140400000Y-99635000D01*
X135756250Y-100233750D02*
X135756250Y-100112500D01*
X130521250Y-99756250D02*
X130521250Y-99877500D01*
X140877500Y-100590000D02*
X141400000Y-100590000D01*
X143798999Y-100112500D02*
X143931499Y-100245000D01*
X134521250Y-99756250D02*
X134521250Y-99877500D01*
X134877500Y-100590000D02*
X135400000Y-100590000D01*
X133756250Y-100233750D02*
X133756250Y-100112500D01*
X132521250Y-99756250D02*
X132521250Y-99877500D01*
X131756250Y-100233750D02*
X131756250Y-100112500D01*
X136521250Y-99877500D02*
X136521250Y-100233750D01*
X138521250Y-99756250D02*
X138521250Y-99877500D01*
X127748671Y-100417501D02*
X128053672Y-100112500D01*
X136521250Y-99756250D02*
X136521250Y-99877500D01*
X126000000Y-100700000D02*
X126282499Y-100417501D01*
X139756250Y-100233750D02*
X139756250Y-100112500D01*
X141877500Y-100112500D02*
X142400000Y-100112500D01*
X136877500Y-100590000D02*
X137400000Y-100590000D01*
X143931499Y-100245000D02*
X145034000Y-100245000D01*
X142831621Y-100112500D02*
X143798999Y-100112500D01*
X144866341Y-100245000D02*
X145034000Y-100245000D01*
X140521250Y-99756250D02*
X140521250Y-99877500D01*
X138877500Y-100590000D02*
X139400000Y-100590000D01*
X131877500Y-99635000D02*
X132400000Y-99635000D01*
X135756250Y-100112500D02*
X135756250Y-99756250D01*
X132521250Y-99877500D02*
X132521250Y-100233750D01*
X139756250Y-100112500D02*
X139756250Y-99756250D01*
X128053672Y-100112500D02*
X129400000Y-100112500D01*
X138521250Y-99877500D02*
X138521250Y-100233750D01*
X142400000Y-100112500D02*
X142831621Y-100112500D01*
X129877500Y-99635000D02*
X130400000Y-99635000D01*
X137756250Y-100112500D02*
X137756250Y-99756250D01*
X137756250Y-100233750D02*
X137756250Y-100112500D01*
X126282499Y-100417501D02*
X127748671Y-100417501D01*
X140521250Y-99877500D02*
X140521250Y-100233750D01*
X134521250Y-99877500D02*
X134521250Y-100233750D01*
X133756250Y-99756250D02*
G75*
G02*
X133877500Y-99634950I121250J50D01*
G01*
X133400000Y-100590000D02*
G75*
G03*
X133756200Y-100233750I0J356200D01*
G01*
X134521250Y-100233750D02*
G75*
G03*
X134877500Y-100590050I356250J-50D01*
G01*
X135756250Y-99756250D02*
G75*
G02*
X135877500Y-99634950I121250J50D01*
G01*
X129400000Y-100112500D02*
G75*
G03*
X129756200Y-99756250I0J356200D01*
G01*
X138521250Y-100233750D02*
G75*
G03*
X138877500Y-100590050I356250J-50D01*
G01*
X141400000Y-100590000D02*
G75*
G03*
X141756200Y-100233750I0J356200D01*
G01*
X136521250Y-100233750D02*
G75*
G03*
X136877500Y-100590050I356250J-50D01*
G01*
X141756250Y-100233750D02*
G75*
G02*
X141877500Y-100112450I121250J50D01*
G01*
X139756250Y-99756250D02*
G75*
G02*
X139877500Y-99634950I121250J50D01*
G01*
X140400000Y-99635000D02*
G75*
G02*
X140521200Y-99756250I0J-121200D01*
G01*
X130521250Y-100233750D02*
G75*
G03*
X130877500Y-100590050I356250J-50D01*
G01*
X140521250Y-100233750D02*
G75*
G03*
X140877500Y-100590050I356250J-50D01*
G01*
X132521250Y-100233750D02*
G75*
G03*
X132877500Y-100590050I356250J-50D01*
G01*
X139400000Y-100590000D02*
G75*
G03*
X139756200Y-100233750I0J356200D01*
G01*
X136400000Y-99635000D02*
G75*
G02*
X136521200Y-99756250I0J-121200D01*
G01*
X131756250Y-99756250D02*
G75*
G02*
X131877500Y-99634950I121250J50D01*
G01*
X131400000Y-100590000D02*
G75*
G03*
X131756200Y-100233750I0J356200D01*
G01*
X130400000Y-99635000D02*
G75*
G02*
X130521200Y-99756250I0J-121200D01*
G01*
X135400000Y-100590000D02*
G75*
G03*
X135756200Y-100233750I0J356200D01*
G01*
X129756250Y-99756250D02*
G75*
G02*
X129877500Y-99634950I121250J50D01*
G01*
X137756250Y-99756250D02*
G75*
G02*
X137877500Y-99634950I121250J50D01*
G01*
X137400000Y-100590000D02*
G75*
G03*
X137756200Y-100233750I0J356200D01*
G01*
X134400000Y-99635000D02*
G75*
G02*
X134521200Y-99756250I0J-121200D01*
G01*
X132400000Y-99635000D02*
G75*
G02*
X132521200Y-99756250I0J-121200D01*
G01*
X138400000Y-99635000D02*
G75*
G02*
X138521200Y-99756250I0J-121200D01*
G01*
%TO.N,/SYZYGY/SDO2P*%
X143931499Y-99245000D02*
X143798999Y-99112500D01*
X119495000Y-105500000D02*
X119500000Y-105495000D01*
X119500000Y-105495000D02*
X119500000Y-105500000D01*
X145034000Y-99245000D02*
X143931499Y-99245000D01*
X125882500Y-99112500D02*
X119500000Y-105495000D01*
X119500000Y-105500000D02*
X119495000Y-105500000D01*
X143798999Y-99112500D02*
X125882500Y-99112500D01*
%TO.N,/SYZYGY/FRAME1P*%
X123898616Y-96301384D02*
X124087500Y-96112500D01*
X121688073Y-98009884D02*
X122144156Y-97553802D01*
X122354522Y-97679313D02*
X122354519Y-97679310D01*
X119500000Y-100700000D02*
X121688071Y-98511929D01*
X122897224Y-97804821D02*
X123353307Y-97348737D01*
X121688071Y-98511929D02*
X121688072Y-98511930D01*
X122229010Y-97553801D02*
X122271437Y-97596228D01*
X122354519Y-97679310D02*
X122396946Y-97721736D01*
X143931499Y-96245000D02*
X145034000Y-96245000D01*
X124087500Y-96112500D02*
X143798999Y-96112500D01*
X123353307Y-96846691D02*
X123809392Y-96390607D01*
X122396946Y-97721736D02*
X122480031Y-97804821D01*
X143798999Y-96112500D02*
X143931499Y-96245000D01*
X122271437Y-97596228D02*
X122354522Y-97679313D01*
X123809392Y-96390607D02*
X123898616Y-96301384D01*
X122144156Y-97553802D02*
G75*
G02*
X122229027Y-97553784I42444J-42398D01*
G01*
X121688072Y-98511930D02*
G75*
G03*
X121688106Y-98094703I-208572J208630D01*
G01*
X123353307Y-97348737D02*
G75*
G03*
X123353348Y-96931504I-208607J208637D01*
G01*
X123353307Y-96931544D02*
G75*
G02*
X123353289Y-96846673I42393J42444D01*
G01*
X121688073Y-98094736D02*
G75*
G02*
X121688063Y-98009874I42427J42436D01*
G01*
X122480031Y-97804821D02*
G75*
G03*
X122897224Y-97804822I208597J208598D01*
G01*
%TO.N,/SYZYGY/FRAME1N*%
X122520691Y-97513142D02*
X122520690Y-97513139D01*
X119967659Y-99900000D02*
X121521900Y-98345759D01*
X123187137Y-96680520D02*
X123643222Y-96224437D01*
X123643222Y-96224437D02*
X123732445Y-96135214D01*
X143931499Y-95745000D02*
X145034000Y-95745000D01*
X122437606Y-97430057D02*
X122520691Y-97513142D01*
X123732445Y-96135214D02*
X123990159Y-95877500D01*
X143798999Y-95877500D02*
X143931499Y-95745000D01*
X122731054Y-97638651D02*
X123187137Y-97182567D01*
X122395179Y-97387630D02*
X122437606Y-97430057D01*
X121521900Y-98345759D02*
X121521901Y-98345759D01*
X122563116Y-97555566D02*
X122646201Y-97638651D01*
X123990159Y-95877500D02*
X143798999Y-95877500D01*
X119500000Y-99900000D02*
X119967659Y-99900000D01*
X122520690Y-97513139D02*
X122563116Y-97555566D01*
X121521902Y-97843713D02*
X121977985Y-97387631D01*
X121977985Y-97387631D02*
G75*
G02*
X122395197Y-97387612I208615J-208569D01*
G01*
X123187137Y-97182567D02*
G75*
G03*
X123187178Y-97097674I-42437J42467D01*
G01*
X121521901Y-98260907D02*
G75*
G02*
X121521891Y-97843703I208599J208607D01*
G01*
X123187137Y-97097714D02*
G75*
G02*
X123187120Y-96680503I208563J208614D01*
G01*
X121521901Y-98345759D02*
G75*
G03*
X121521934Y-98260874I-42401J42459D01*
G01*
X122646201Y-97638651D02*
G75*
G03*
X122731054Y-97638652I42427J42429D01*
G01*
%TO.N,/SYZYGY/LCLKOUTN*%
X146954000Y-105165000D02*
X146954000Y-104394384D01*
X146292576Y-103732960D02*
X146292576Y-101672662D01*
X146954000Y-104394384D02*
X146292576Y-103732960D01*
%TO.N,/SYZYGY/LCLKOUTP*%
X147454000Y-105165000D02*
X147544000Y-105075000D01*
X146530000Y-103638044D02*
X147454000Y-104562044D01*
X146530000Y-103540000D02*
X146530000Y-103638044D01*
X146527577Y-102656822D02*
X146527577Y-103537577D01*
X146892576Y-102291823D02*
X146527577Y-102656822D01*
X146527577Y-103537577D02*
X146530000Y-103540000D01*
X147454000Y-104562044D02*
X147454000Y-105165000D01*
%TO.N,/SYZYGY/SDO3N*%
X128826251Y-101782499D02*
X128826251Y-102108751D01*
X139591249Y-102017501D02*
X139591249Y-101691250D01*
X129917500Y-101364998D02*
X130500000Y-101364998D01*
X142025665Y-101708163D02*
X142856328Y-100877500D01*
X143931499Y-100745000D02*
X145034000Y-100745000D01*
X133591249Y-102017501D02*
X133591249Y-101691249D01*
X136826251Y-101782499D02*
X136826251Y-102108751D01*
X137591249Y-102108751D02*
X137591249Y-102017501D01*
X142856328Y-100877500D02*
X143798999Y-100877500D01*
X143798999Y-100877500D02*
X143931499Y-100745000D01*
X137917500Y-101364998D02*
X138500000Y-101364998D01*
X134826251Y-101691249D02*
X134826251Y-101782499D01*
X132917500Y-102200000D02*
X133500000Y-102200000D01*
X129591249Y-102108751D02*
X129591249Y-102017501D01*
X138917500Y-102200000D02*
X139500000Y-102200000D01*
X132826251Y-101691249D02*
X132826251Y-101782499D01*
X126000000Y-101500000D02*
X126282499Y-101782499D01*
X138826251Y-101782499D02*
X138826251Y-102108751D01*
X126282499Y-101782499D02*
X127500000Y-101782499D01*
X130917500Y-102200000D02*
X131500000Y-102200000D01*
X134826251Y-101782499D02*
X134826251Y-102108751D01*
X131917500Y-101364998D02*
X132500000Y-101364998D01*
X129591249Y-102017501D02*
X129591249Y-101691249D01*
X132826251Y-101782499D02*
X132826251Y-102108751D01*
X134917500Y-102200000D02*
X135500000Y-102200000D01*
X137591249Y-102017501D02*
X137591249Y-101691249D01*
X128917500Y-102200000D02*
X129500000Y-102200000D01*
X138826251Y-101691249D02*
X138826251Y-101782499D01*
X139591249Y-102108751D02*
X139591249Y-102017501D01*
X131591249Y-102017501D02*
X131591249Y-101691249D01*
X133917500Y-101364998D02*
X134500000Y-101364998D01*
X131591249Y-102108751D02*
X131591249Y-102017501D01*
X135917500Y-101364998D02*
X136500000Y-101364998D01*
X130826251Y-101691249D02*
X130826251Y-101782499D01*
X141500000Y-101782499D02*
X141951329Y-101782499D01*
X135591249Y-102108751D02*
X135591249Y-102017501D01*
X133591249Y-102108751D02*
X133591249Y-102017501D01*
X128826251Y-101691250D02*
X128826251Y-101782499D01*
X139917500Y-101364999D02*
X140500000Y-101364999D01*
X136917500Y-102200000D02*
X137500000Y-102200000D01*
X140917500Y-101782499D02*
X141500000Y-101782499D01*
X135591249Y-102017501D02*
X135591249Y-101691249D01*
X127917500Y-101364999D02*
X128500000Y-101364999D01*
X141951329Y-101782499D02*
X142025665Y-101708163D01*
X136826251Y-101691249D02*
X136826251Y-101782499D01*
X130826251Y-101782499D02*
X130826251Y-102108751D01*
X134500000Y-101364998D02*
G75*
G02*
X134826302Y-101691249I0J-326302D01*
G01*
X128500000Y-101364999D02*
G75*
G02*
X128826301Y-101691250I0J-326301D01*
G01*
X138500000Y-101364998D02*
G75*
G02*
X138826302Y-101691249I0J-326302D01*
G01*
X134826251Y-102108751D02*
G75*
G03*
X134917500Y-102200049I91249J-49D01*
G01*
X136826251Y-102108751D02*
G75*
G03*
X136917500Y-102200049I91249J-49D01*
G01*
X131500000Y-102200000D02*
G75*
G03*
X131591200Y-102108751I0J91200D01*
G01*
X128826251Y-102108751D02*
G75*
G03*
X128917500Y-102200049I91249J-49D01*
G01*
X132500000Y-101364998D02*
G75*
G02*
X132826302Y-101691249I0J-326302D01*
G01*
X137591249Y-101691249D02*
G75*
G02*
X137917500Y-101365049I326251J-51D01*
G01*
X133591249Y-101691249D02*
G75*
G02*
X133917500Y-101365049I326251J-51D01*
G01*
X140500000Y-101364999D02*
G75*
G02*
X140826301Y-101691250I0J-326301D01*
G01*
X132826251Y-102108751D02*
G75*
G03*
X132917500Y-102200049I91249J-49D01*
G01*
X136500000Y-101364998D02*
G75*
G02*
X136826302Y-101691249I0J-326302D01*
G01*
X139500000Y-102200000D02*
G75*
G03*
X139591200Y-102108751I0J91200D01*
G01*
X127500000Y-101782499D02*
G75*
G03*
X127591199Y-101691250I0J91199D01*
G01*
X140826251Y-101691250D02*
G75*
G03*
X140917500Y-101782549I91249J-50D01*
G01*
X130826251Y-102108751D02*
G75*
G03*
X130917500Y-102200049I91249J-49D01*
G01*
X130500000Y-101364998D02*
G75*
G02*
X130826302Y-101691249I0J-326302D01*
G01*
X137500000Y-102200000D02*
G75*
G03*
X137591200Y-102108751I0J91200D01*
G01*
X133500000Y-102200000D02*
G75*
G03*
X133591200Y-102108751I0J91200D01*
G01*
X129591249Y-101691249D02*
G75*
G02*
X129917500Y-101365049I326251J-51D01*
G01*
X135591249Y-101691249D02*
G75*
G02*
X135917500Y-101365049I326251J-51D01*
G01*
X129500000Y-102200000D02*
G75*
G03*
X129591200Y-102108751I0J91200D01*
G01*
X131591249Y-101691249D02*
G75*
G02*
X131917500Y-101365049I326251J-51D01*
G01*
X127591249Y-101691250D02*
G75*
G02*
X127917500Y-101365049I326251J-50D01*
G01*
X135500000Y-102200000D02*
G75*
G03*
X135591200Y-102108751I0J91200D01*
G01*
X139591249Y-101691250D02*
G75*
G02*
X139917500Y-101365049I326251J-50D01*
G01*
X138826251Y-102108751D02*
G75*
G03*
X138917500Y-102200049I91249J-49D01*
G01*
%TO.N,/SYZYGY/FRAME4N*%
X136821251Y-103382499D02*
X136821251Y-103703751D01*
X135586249Y-103703751D02*
X135586249Y-103617501D01*
X134821251Y-103382499D02*
X134821251Y-103703751D01*
X135586249Y-103617501D02*
X135586249Y-103296249D01*
X137586249Y-103703751D02*
X137586249Y-103617501D01*
X132821251Y-103382499D02*
X132821251Y-103703751D01*
X126000000Y-103100000D02*
X126282499Y-103382499D01*
X139586249Y-103617501D02*
X139586249Y-103296250D01*
X143456328Y-101877500D02*
X143798999Y-101877500D01*
X128821251Y-103296250D02*
X128821251Y-103382499D01*
X133586249Y-103703751D02*
X133586249Y-103617501D01*
X135907500Y-102974998D02*
X136500000Y-102974998D01*
X133907500Y-102974998D02*
X134500000Y-102974998D01*
X131907500Y-102974998D02*
X132500000Y-102974998D01*
X129907500Y-102974998D02*
X130500000Y-102974998D01*
X137907500Y-102974998D02*
X138500000Y-102974998D01*
X129586249Y-103703751D02*
X129586249Y-103617501D01*
X127907500Y-102974999D02*
X128500000Y-102974999D01*
X137586249Y-103617501D02*
X137586249Y-103296249D01*
X128821251Y-103382499D02*
X128821251Y-103703751D01*
X134907500Y-103790000D02*
X135500000Y-103790000D01*
X132821251Y-103296249D02*
X132821251Y-103382499D01*
X130821251Y-103382499D02*
X130821251Y-103703751D01*
X139586249Y-103703751D02*
X139586249Y-103617501D01*
X131586249Y-103617501D02*
X131586249Y-103296249D01*
X130821251Y-103296249D02*
X130821251Y-103382499D01*
X141951329Y-103382499D02*
X142466914Y-102866914D01*
X139907500Y-102974999D02*
X140500000Y-102974999D01*
X136907500Y-103790000D02*
X137500000Y-103790000D01*
X138821251Y-103382499D02*
X138821251Y-103703751D01*
X143798999Y-101877500D02*
X143931499Y-101745000D01*
X132907500Y-103790000D02*
X133500000Y-103790000D01*
X138821251Y-103296249D02*
X138821251Y-103382499D01*
X130907500Y-103790000D02*
X131500000Y-103790000D01*
X126282499Y-103382499D02*
X127500000Y-103382499D01*
X140907500Y-103382499D02*
X141500000Y-103382499D01*
X143931499Y-101745000D02*
X145034000Y-101745000D01*
X129586249Y-103617501D02*
X129586249Y-103296249D01*
X136821251Y-103296249D02*
X136821251Y-103382499D01*
X133586249Y-103617501D02*
X133586249Y-103296249D01*
X138907500Y-103790000D02*
X139500000Y-103790000D01*
X134821251Y-103296249D02*
X134821251Y-103382499D01*
X142466914Y-102866914D02*
X143456328Y-101877500D01*
X141500000Y-103382499D02*
X141951329Y-103382499D01*
X131586249Y-103703751D02*
X131586249Y-103617501D01*
X128907500Y-103790000D02*
X129500000Y-103790000D01*
X134500000Y-102974998D02*
G75*
G02*
X134821202Y-103296249I0J-321202D01*
G01*
X129586249Y-103296249D02*
G75*
G02*
X129907500Y-102974949I321251J49D01*
G01*
X131500000Y-103790000D02*
G75*
G03*
X131586200Y-103703751I0J86200D01*
G01*
X139500000Y-103790000D02*
G75*
G03*
X139586200Y-103703751I0J86200D01*
G01*
X128821251Y-103703751D02*
G75*
G03*
X128907500Y-103790049I86249J-49D01*
G01*
X137586249Y-103296249D02*
G75*
G02*
X137907500Y-102974949I321251J49D01*
G01*
X138500000Y-102974998D02*
G75*
G02*
X138821202Y-103296249I0J-321202D01*
G01*
X133586249Y-103296249D02*
G75*
G02*
X133907500Y-102974949I321251J49D01*
G01*
X136500000Y-102974998D02*
G75*
G02*
X136821202Y-103296249I0J-321202D01*
G01*
X130821251Y-103703751D02*
G75*
G03*
X130907500Y-103790049I86249J-49D01*
G01*
X129500000Y-103790000D02*
G75*
G03*
X129586200Y-103703751I0J86200D01*
G01*
X127500000Y-103382499D02*
G75*
G03*
X127586299Y-103296250I0J86299D01*
G01*
X135586249Y-103296249D02*
G75*
G02*
X135907500Y-102974949I321251J49D01*
G01*
X128500000Y-102974999D02*
G75*
G02*
X128821201Y-103296250I0J-321201D01*
G01*
X134821251Y-103703751D02*
G75*
G03*
X134907500Y-103790049I86249J-49D01*
G01*
X140500000Y-102974999D02*
G75*
G02*
X140821201Y-103296250I0J-321201D01*
G01*
X132821251Y-103703751D02*
G75*
G03*
X132907500Y-103790049I86249J-49D01*
G01*
X133500000Y-103790000D02*
G75*
G03*
X133586200Y-103703751I0J86200D01*
G01*
X140821251Y-103296250D02*
G75*
G03*
X140907500Y-103382449I86249J50D01*
G01*
X135500000Y-103790000D02*
G75*
G03*
X135586200Y-103703751I0J86200D01*
G01*
X139586249Y-103296250D02*
G75*
G02*
X139907500Y-102974949I321251J50D01*
G01*
X131586249Y-103296249D02*
G75*
G02*
X131907500Y-102974949I321251J49D01*
G01*
X130500000Y-102974998D02*
G75*
G02*
X130821202Y-103296249I0J-321202D01*
G01*
X132500000Y-102974998D02*
G75*
G02*
X132821202Y-103296249I0J-321202D01*
G01*
X136821251Y-103703751D02*
G75*
G03*
X136907500Y-103790049I86249J-49D01*
G01*
X127586249Y-103296250D02*
G75*
G02*
X127907500Y-102974949I321251J50D01*
G01*
X138821251Y-103703751D02*
G75*
G03*
X138907500Y-103790049I86249J-49D01*
G01*
X137500000Y-103790000D02*
G75*
G03*
X137586200Y-103703751I0J86200D01*
G01*
%TO.N,/SYZYGY/SDO1P*%
X124687500Y-97112500D02*
X126516615Y-97112500D01*
X126944115Y-96685000D02*
X127516615Y-96685000D01*
X128516615Y-97112500D02*
X128623958Y-97112500D01*
X143798999Y-97112500D02*
X143931499Y-97245000D01*
X143931499Y-97245000D02*
X145034000Y-97245000D01*
X119500000Y-102300000D02*
X124687500Y-97112500D01*
X127944115Y-97112500D02*
X128516615Y-97112500D01*
X128623958Y-97112500D02*
X143798999Y-97112500D01*
X126847865Y-96781250D02*
G75*
G02*
X126944115Y-96685065I96235J-50D01*
G01*
X127612865Y-96781250D02*
G75*
G03*
X127944115Y-97112435I331235J50D01*
G01*
X126516615Y-97112500D02*
G75*
G03*
X126847900Y-96781250I-15J331300D01*
G01*
X127516615Y-96685000D02*
G75*
G02*
X127612900Y-96781250I-15J-96300D01*
G01*
D53*
%TO.N,/SYZYGY/VIO*%
X130112500Y-88172500D02*
X130110000Y-88170000D01*
X129588651Y-88172500D02*
X128631152Y-89129999D01*
X128601152Y-83409999D02*
X128601152Y-82338652D01*
X130110000Y-88170000D02*
X130107500Y-88172500D01*
X129430600Y-83409999D02*
X128601152Y-83409999D01*
X130166029Y-88172500D02*
X131110000Y-87228529D01*
X126270000Y-88172500D02*
X130166029Y-88172500D01*
X131110000Y-87228529D02*
X131110000Y-85089399D01*
X130107500Y-88172500D02*
X129588651Y-88172500D01*
D49*
X128601152Y-82338652D02*
X128242500Y-81980000D01*
D53*
X124320000Y-88467500D02*
X125975000Y-88467500D01*
X131110000Y-85089399D02*
X129430600Y-83409999D01*
X130166029Y-88172500D02*
X130112500Y-88172500D01*
D51*
%TO.N,/SYZYGY/FRAME2P*%
X125282500Y-98112500D02*
X130100000Y-98112500D01*
X143798999Y-98112500D02*
X143931499Y-98245000D01*
X119500000Y-103895000D02*
X119500000Y-103900000D01*
X143931499Y-98245000D02*
X145034000Y-98245000D01*
X132440000Y-98112500D02*
X132900000Y-98112500D01*
X119495000Y-103900000D02*
X125282500Y-98112500D01*
X131625000Y-98112500D02*
X132440000Y-98112500D01*
X130455000Y-97757500D02*
X131270000Y-97757500D01*
X119500000Y-103895000D02*
X119500000Y-103895000D01*
X119500000Y-103900000D02*
X119495000Y-103900000D01*
X132900000Y-98112500D02*
X143798999Y-98112500D01*
X131270000Y-97757500D02*
G75*
G02*
X131330000Y-97817500I0J-60000D01*
G01*
X131330000Y-97817500D02*
G75*
G03*
X131625000Y-98112500I295000J0D01*
G01*
X130395000Y-97817500D02*
G75*
G02*
X130455000Y-97757500I60000J0D01*
G01*
X130100000Y-98112500D02*
G75*
G03*
X130395000Y-97817500I0J295000D01*
G01*
%TO.N,/SYZYGY/FRAME3N*%
X140877500Y-100355000D02*
X141400000Y-100355000D01*
X137521250Y-100112500D02*
X137521250Y-99756250D01*
X140756250Y-99877500D02*
X140756250Y-100233750D01*
X139521250Y-100233750D02*
X139521250Y-100112500D01*
X136756250Y-99877500D02*
X136756250Y-100233750D01*
X131521250Y-100112500D02*
X131521250Y-99756250D01*
X129877500Y-99400000D02*
X130400000Y-99400000D01*
X130756250Y-99756250D02*
X130756250Y-99877500D01*
X139877500Y-99400000D02*
X140400000Y-99400000D01*
X134756250Y-99756250D02*
X134756250Y-99877500D01*
X138756250Y-99756250D02*
X138756250Y-99877500D01*
X130877500Y-100355000D02*
X131400000Y-100355000D01*
X138877500Y-100355000D02*
X139400000Y-100355000D01*
X131877500Y-99400000D02*
X132400000Y-99400000D01*
X136877500Y-100355000D02*
X137400000Y-100355000D01*
X133877500Y-99400000D02*
X134400000Y-99400000D01*
X142400000Y-99877500D02*
X142831621Y-99877500D01*
X127651329Y-100182499D02*
X127956328Y-99877500D01*
X126282499Y-100182499D02*
X127651329Y-100182499D01*
X126000000Y-99900000D02*
X126282499Y-100182499D01*
X139521250Y-100112500D02*
X139521250Y-99756250D01*
X142831621Y-99877500D02*
X143798999Y-99877500D01*
X130756250Y-99877500D02*
X130756250Y-100233750D01*
X137877500Y-99400000D02*
X138400000Y-99400000D01*
X134756250Y-99877500D02*
X134756250Y-100233750D01*
X140756250Y-99756250D02*
X140756250Y-99877500D01*
X127956328Y-99877500D02*
X129400000Y-99877500D01*
X131521250Y-100233750D02*
X131521250Y-100112500D01*
X143798999Y-99877500D02*
X143931499Y-99745000D01*
X133521250Y-100112500D02*
X133521250Y-99756250D01*
X141877500Y-99877500D02*
X142400000Y-99877500D01*
X135521250Y-100233750D02*
X135521250Y-100112500D01*
X132756250Y-99877500D02*
X132756250Y-100233750D01*
X134877500Y-100355000D02*
X135400000Y-100355000D01*
X143931499Y-99745000D02*
X145034000Y-99745000D01*
X137521250Y-100233750D02*
X137521250Y-100112500D01*
X132877500Y-100355000D02*
X133400000Y-100355000D01*
X136756250Y-99756250D02*
X136756250Y-99877500D01*
X138756250Y-99877500D02*
X138756250Y-100233750D01*
X132756250Y-99756250D02*
X132756250Y-99877500D01*
X133521250Y-100233750D02*
X133521250Y-100112500D01*
X135521250Y-100112500D02*
X135521250Y-99756250D01*
X135877500Y-99400000D02*
X136400000Y-99400000D01*
X130756250Y-100233750D02*
G75*
G03*
X130877500Y-100355050I121250J-50D01*
G01*
X132400000Y-99400000D02*
G75*
G02*
X132756200Y-99756250I0J-356200D01*
G01*
X131521250Y-99756250D02*
G75*
G02*
X131877500Y-99399950I356250J50D01*
G01*
X133400000Y-100355000D02*
G75*
G03*
X133521200Y-100233750I0J121200D01*
G01*
X136400000Y-99400000D02*
G75*
G02*
X136756200Y-99756250I0J-356200D01*
G01*
X135521250Y-99756250D02*
G75*
G02*
X135877500Y-99399950I356250J50D01*
G01*
X129400000Y-99877500D02*
G75*
G03*
X129521200Y-99756250I0J121200D01*
G01*
X139521250Y-99756250D02*
G75*
G02*
X139877500Y-99399950I356250J50D01*
G01*
X140400000Y-99400000D02*
G75*
G02*
X140756200Y-99756250I0J-356200D01*
G01*
X137521250Y-99756250D02*
G75*
G02*
X137877500Y-99399950I356250J50D01*
G01*
X138756250Y-100233750D02*
G75*
G03*
X138877500Y-100355050I121250J-50D01*
G01*
X136756250Y-100233750D02*
G75*
G03*
X136877500Y-100355050I121250J-50D01*
G01*
X133521250Y-99756250D02*
G75*
G02*
X133877500Y-99399950I356250J50D01*
G01*
X138400000Y-99400000D02*
G75*
G02*
X138756200Y-99756250I0J-356200D01*
G01*
X134756250Y-100233750D02*
G75*
G03*
X134877500Y-100355050I121250J-50D01*
G01*
X129521250Y-99756250D02*
G75*
G02*
X129877500Y-99399950I356250J50D01*
G01*
X137400000Y-100355000D02*
G75*
G03*
X137521200Y-100233750I0J121200D01*
G01*
X135400000Y-100355000D02*
G75*
G03*
X135521200Y-100233750I0J121200D01*
G01*
X132756250Y-100233750D02*
G75*
G03*
X132877500Y-100355050I121250J-50D01*
G01*
X141521250Y-100233750D02*
G75*
G02*
X141877500Y-99877450I356250J50D01*
G01*
X131400000Y-100355000D02*
G75*
G03*
X131521200Y-100233750I0J121200D01*
G01*
X134400000Y-99400000D02*
G75*
G02*
X134756200Y-99756250I0J-356200D01*
G01*
X140756250Y-100233750D02*
G75*
G03*
X140877500Y-100355050I121250J-50D01*
G01*
X141400000Y-100355000D02*
G75*
G03*
X141521200Y-100233750I0J121200D01*
G01*
X130400000Y-99400000D02*
G75*
G02*
X130756200Y-99756250I0J-356200D01*
G01*
X139400000Y-100355000D02*
G75*
G03*
X139521200Y-100233750I0J121200D01*
G01*
D49*
%TO.N,Net-(D2-K)*%
X125340000Y-120060000D02*
X124850000Y-120550000D01*
D50*
X126597500Y-120060000D02*
X125340000Y-120060000D01*
D49*
%TO.N,Net-(D3-K)*%
X122737500Y-86417500D02*
X122710000Y-86390000D01*
X122710000Y-86390000D02*
X122682500Y-86417500D01*
X122682500Y-86417500D02*
X122672500Y-86417500D01*
X122672500Y-86417500D02*
X122670000Y-86420000D01*
X124837500Y-84650000D02*
X123610000Y-84650000D01*
X123550000Y-84710000D02*
X123590000Y-84670000D01*
X123620000Y-84710000D02*
X123550000Y-84710000D01*
X124320000Y-86417500D02*
X122737500Y-86417500D01*
X123620000Y-84640000D02*
X123620000Y-84710000D01*
X123610000Y-84650000D02*
X123620000Y-84640000D01*
D51*
%TO.N,/SYZYGY/SDO3P*%
X128591249Y-101782499D02*
X128591249Y-102108751D01*
X129826251Y-102017501D02*
X129826251Y-101691249D01*
X131826251Y-102108751D02*
X131826251Y-102017501D01*
X137826251Y-102108751D02*
X137826251Y-102017501D01*
X130591249Y-101782499D02*
X130591249Y-102108751D01*
X142048671Y-102017501D02*
X142191837Y-101874335D01*
X134591249Y-101782499D02*
X134591249Y-102108751D01*
X137917500Y-101600000D02*
X138500000Y-101600000D01*
X132591249Y-101691249D02*
X132591249Y-101782499D01*
X138917500Y-102435002D02*
X139500000Y-102435002D01*
X135826251Y-102017501D02*
X135826251Y-101691249D01*
X134591249Y-101691249D02*
X134591249Y-101782499D01*
X133917500Y-101600000D02*
X134500000Y-101600000D01*
X141500000Y-102017501D02*
X142048671Y-102017501D01*
X128591249Y-101691250D02*
X128591249Y-101782499D01*
X129826251Y-102108751D02*
X129826251Y-102017501D01*
X134917500Y-102435002D02*
X135500000Y-102435002D01*
X142953672Y-101112500D02*
X143798999Y-101112500D01*
X126282499Y-102017501D02*
X127500000Y-102017501D01*
X139826251Y-102017501D02*
X139826251Y-101691250D01*
X139917500Y-101600001D02*
X140500000Y-101600001D01*
X132917500Y-102435002D02*
X133500000Y-102435002D01*
X131826251Y-102017501D02*
X131826251Y-101691249D01*
X126000000Y-102300000D02*
X126282499Y-102017501D01*
X130591249Y-101691249D02*
X130591249Y-101782499D01*
X136591249Y-101782499D02*
X136591249Y-102108751D01*
X137826251Y-102017501D02*
X137826251Y-101691249D01*
X138591249Y-101691249D02*
X138591249Y-101782499D01*
X135917500Y-101600000D02*
X136500000Y-101600000D01*
X129917500Y-101600000D02*
X130500000Y-101600000D01*
X127917500Y-101600001D02*
X128500000Y-101600001D01*
X140917500Y-102017501D02*
X141500000Y-102017501D01*
X139826251Y-102108751D02*
X139826251Y-102017501D01*
X131917500Y-101600000D02*
X132500000Y-101600000D01*
X132591249Y-101782499D02*
X132591249Y-102108751D01*
X133826251Y-102108751D02*
X133826251Y-102017501D01*
X135826251Y-102108751D02*
X135826251Y-102017501D01*
X136917500Y-102435002D02*
X137500000Y-102435002D01*
X143931499Y-101245000D02*
X145034000Y-101245000D01*
X130917500Y-102435002D02*
X131500000Y-102435002D01*
X133826251Y-102017501D02*
X133826251Y-101691249D01*
X142191837Y-101874335D02*
X142953672Y-101112500D01*
X143798999Y-101112500D02*
X143931499Y-101245000D01*
X128917500Y-102435002D02*
X129500000Y-102435002D01*
X136591249Y-101691249D02*
X136591249Y-101782499D01*
X138591249Y-101782499D02*
X138591249Y-102108751D01*
X128591249Y-102108751D02*
G75*
G03*
X128917500Y-102434951I326251J51D01*
G01*
X140500000Y-101600001D02*
G75*
G02*
X140591199Y-101691250I0J-91199D01*
G01*
X133500000Y-102435002D02*
G75*
G03*
X133826302Y-102108751I0J326302D01*
G01*
X128500000Y-101600001D02*
G75*
G02*
X128591199Y-101691250I0J-91199D01*
G01*
X133826251Y-101691249D02*
G75*
G02*
X133917500Y-101599951I91249J49D01*
G01*
X127500000Y-102017501D02*
G75*
G03*
X127826301Y-101691250I0J326301D01*
G01*
X140591249Y-101691250D02*
G75*
G03*
X140917500Y-102017451I326251J50D01*
G01*
X131826251Y-101691249D02*
G75*
G02*
X131917500Y-101599951I91249J49D01*
G01*
X129500000Y-102435002D02*
G75*
G03*
X129826302Y-102108751I0J326302D01*
G01*
X134500000Y-101600000D02*
G75*
G02*
X134591200Y-101691249I0J-91200D01*
G01*
X132591249Y-102108751D02*
G75*
G03*
X132917500Y-102434951I326251J51D01*
G01*
X137826251Y-101691249D02*
G75*
G02*
X137917500Y-101599951I91249J49D01*
G01*
X139826251Y-101691250D02*
G75*
G02*
X139917500Y-101599951I91249J50D01*
G01*
X134591249Y-102108751D02*
G75*
G03*
X134917500Y-102434951I326251J51D01*
G01*
X130591249Y-102108751D02*
G75*
G03*
X130917500Y-102434951I326251J51D01*
G01*
X136591249Y-102108751D02*
G75*
G03*
X136917500Y-102434951I326251J51D01*
G01*
X135826251Y-101691249D02*
G75*
G02*
X135917500Y-101599951I91249J49D01*
G01*
X136500000Y-101600000D02*
G75*
G02*
X136591200Y-101691249I0J-91200D01*
G01*
X137500000Y-102435002D02*
G75*
G03*
X137826302Y-102108751I0J326302D01*
G01*
X129826251Y-101691249D02*
G75*
G02*
X129917500Y-101599951I91249J49D01*
G01*
X132500000Y-101600000D02*
G75*
G02*
X132591200Y-101691249I0J-91200D01*
G01*
X138500000Y-101600000D02*
G75*
G02*
X138591200Y-101691249I0J-91200D01*
G01*
X127826251Y-101691250D02*
G75*
G02*
X127917500Y-101599951I91249J50D01*
G01*
X131500000Y-102435002D02*
G75*
G03*
X131826302Y-102108751I0J326302D01*
G01*
X130500000Y-101600000D02*
G75*
G02*
X130591200Y-101691249I0J-91200D01*
G01*
X135500000Y-102435002D02*
G75*
G03*
X135826302Y-102108751I0J326302D01*
G01*
X139500000Y-102435002D02*
G75*
G03*
X139826302Y-102108751I0J326302D01*
G01*
X138591249Y-102108751D02*
G75*
G03*
X138917500Y-102434951I326251J51D01*
G01*
%TO.N,/SYZYGY/FRAME4P*%
X137821251Y-103617501D02*
X137821251Y-103296249D01*
X143553672Y-102112500D02*
X143798999Y-102112500D01*
X138586249Y-103296249D02*
X138586249Y-103382499D01*
X128907500Y-104025002D02*
X129500000Y-104025002D01*
X131907500Y-103210000D02*
X132500000Y-103210000D01*
X138586249Y-103382499D02*
X138586249Y-103703751D01*
X135907500Y-103210000D02*
X136500000Y-103210000D01*
X132586249Y-103382499D02*
X132586249Y-103703751D01*
X130586249Y-103382499D02*
X130586249Y-103703751D01*
X134586249Y-103382499D02*
X134586249Y-103703751D01*
X131821251Y-103617501D02*
X131821251Y-103296249D01*
X129821251Y-103703751D02*
X129821251Y-103617501D01*
X137907500Y-103210000D02*
X138500000Y-103210000D01*
X130586249Y-103296249D02*
X130586249Y-103382499D01*
X136586249Y-103382499D02*
X136586249Y-103703751D01*
X132586249Y-103296249D02*
X132586249Y-103382499D01*
X142048671Y-103617501D02*
X142633086Y-103033086D01*
X140907500Y-103617501D02*
X141500000Y-103617501D01*
X128586249Y-103296250D02*
X128586249Y-103382499D01*
X127907500Y-103210001D02*
X128500000Y-103210001D01*
X137821251Y-103703751D02*
X137821251Y-103617501D01*
X135821251Y-103703751D02*
X135821251Y-103617501D01*
X133821251Y-103617501D02*
X133821251Y-103296249D01*
X143798999Y-102112500D02*
X143931499Y-102245000D01*
X133907500Y-103210000D02*
X134500000Y-103210000D01*
X136586249Y-103296249D02*
X136586249Y-103382499D01*
X126282499Y-103617501D02*
X127500000Y-103617501D01*
X139821251Y-103703751D02*
X139821251Y-103617501D01*
X129907500Y-103210000D02*
X130500000Y-103210000D01*
X139907500Y-103210001D02*
X140500000Y-103210001D01*
X138907500Y-104025002D02*
X139500000Y-104025002D01*
X130907500Y-104025002D02*
X131500000Y-104025002D01*
X131821251Y-103703751D02*
X131821251Y-103617501D01*
X126000000Y-103900000D02*
X126282499Y-103617501D01*
X139821251Y-103617501D02*
X139821251Y-103296250D01*
X128586249Y-103382499D02*
X128586249Y-103703751D01*
X143931499Y-102245000D02*
X145034000Y-102245000D01*
X134586249Y-103296249D02*
X134586249Y-103382499D01*
X142633086Y-103033086D02*
X143553672Y-102112500D01*
X129821251Y-103617501D02*
X129821251Y-103296249D01*
X141500000Y-103617501D02*
X142048671Y-103617501D01*
X133821251Y-103703751D02*
X133821251Y-103617501D01*
X136907500Y-104025002D02*
X137500000Y-104025002D01*
X132907500Y-104025002D02*
X133500000Y-104025002D01*
X135821251Y-103617501D02*
X135821251Y-103296249D01*
X134907500Y-104025002D02*
X135500000Y-104025002D01*
X135500000Y-104025002D02*
G75*
G03*
X135821202Y-103703751I0J321202D01*
G01*
X139500000Y-104025002D02*
G75*
G03*
X139821202Y-103703751I0J321202D01*
G01*
X138586249Y-103703751D02*
G75*
G03*
X138907500Y-104025051I321251J-49D01*
G01*
X131821251Y-103296249D02*
G75*
G02*
X131907500Y-103209951I86249J49D01*
G01*
X139821251Y-103296250D02*
G75*
G02*
X139907500Y-103210051I86249J-50D01*
G01*
X138500000Y-103210000D02*
G75*
G02*
X138586200Y-103296249I0J-86200D01*
G01*
X129500000Y-104025002D02*
G75*
G03*
X129821202Y-103703751I0J321202D01*
G01*
X131500000Y-104025002D02*
G75*
G03*
X131821202Y-103703751I0J321202D01*
G01*
X133500000Y-104025002D02*
G75*
G03*
X133821202Y-103703751I0J321202D01*
G01*
X134586249Y-103703751D02*
G75*
G03*
X134907500Y-104025051I321251J-49D01*
G01*
X133821251Y-103296249D02*
G75*
G02*
X133907500Y-103209951I86249J49D01*
G01*
X134500000Y-103210000D02*
G75*
G02*
X134586200Y-103296249I0J-86200D01*
G01*
X135821251Y-103296249D02*
G75*
G02*
X135907500Y-103209951I86249J49D01*
G01*
X136586249Y-103703751D02*
G75*
G03*
X136907500Y-104025051I321251J-49D01*
G01*
X128500000Y-103210001D02*
G75*
G02*
X128586299Y-103296250I0J-86299D01*
G01*
X132586249Y-103703751D02*
G75*
G03*
X132907500Y-104025051I321251J-49D01*
G01*
X127500000Y-103617501D02*
G75*
G03*
X127821201Y-103296250I0J321201D01*
G01*
X127821251Y-103296250D02*
G75*
G02*
X127907500Y-103210051I86249J-50D01*
G01*
X129821251Y-103296249D02*
G75*
G02*
X129907500Y-103209951I86249J49D01*
G01*
X130500000Y-103210000D02*
G75*
G02*
X130586200Y-103296249I0J-86200D01*
G01*
X140500000Y-103210001D02*
G75*
G02*
X140586299Y-103296250I0J-86299D01*
G01*
X137821251Y-103296249D02*
G75*
G02*
X137907500Y-103209951I86249J49D01*
G01*
X130586249Y-103703751D02*
G75*
G03*
X130907500Y-104025051I321251J-49D01*
G01*
X140586249Y-103296250D02*
G75*
G03*
X140907500Y-103617551I321251J-50D01*
G01*
X136500000Y-103210000D02*
G75*
G02*
X136586200Y-103296249I0J-86200D01*
G01*
X132500000Y-103210000D02*
G75*
G02*
X132586200Y-103296249I0J-86200D01*
G01*
X128586249Y-103703751D02*
G75*
G03*
X128907500Y-104025051I321251J-49D01*
G01*
X137500000Y-104025002D02*
G75*
G03*
X137821202Y-103703751I0J321202D01*
G01*
%TO.N,/SYZYGY/SDO4P*%
X144306500Y-103112500D02*
X144439000Y-103245000D01*
X134694963Y-104866249D02*
X134694963Y-104982499D01*
X136694963Y-104866249D02*
X136694963Y-104982499D01*
X126000000Y-105500000D02*
X126282499Y-105217501D01*
X141848671Y-105217501D02*
X143953672Y-103112500D01*
X133046214Y-105685002D02*
X133578714Y-105685002D01*
X128046214Y-104750001D02*
X128578714Y-104750001D01*
X133929965Y-105333751D02*
X133929965Y-105217501D01*
X128694963Y-104982499D02*
X128694963Y-105333751D01*
X137046214Y-105685002D02*
X137578714Y-105685002D01*
D49*
X145009001Y-103220001D02*
X144975199Y-103220001D01*
D51*
X137929965Y-105217501D02*
X137929965Y-104866250D01*
X139046214Y-105217501D02*
X139578714Y-105217501D01*
X135929965Y-105217501D02*
X135929965Y-104866249D01*
X131046214Y-105685002D02*
X131578714Y-105685002D01*
X143953672Y-103112500D02*
X144306500Y-103112500D01*
X133929965Y-105217501D02*
X133929965Y-104866249D01*
X134694963Y-104982499D02*
X134694963Y-105333751D01*
X132046214Y-104750000D02*
X132578714Y-104750000D01*
X129929965Y-105333751D02*
X129929965Y-105217501D01*
X140544566Y-105217501D02*
X141848671Y-105217501D01*
X128694963Y-104866250D02*
X128694963Y-104982499D01*
X138046214Y-104750001D02*
X138578714Y-104750001D01*
X131929965Y-105333751D02*
X131929965Y-105217501D01*
X135046214Y-105685002D02*
X135578714Y-105685002D01*
X132694963Y-104866249D02*
X132694963Y-104982499D01*
X129046214Y-105685002D02*
X129578714Y-105685002D01*
X144439000Y-103245000D02*
X145034000Y-103245000D01*
X131929965Y-105217501D02*
X131929965Y-104866249D01*
X136046214Y-104750000D02*
X136578714Y-104750000D01*
D49*
X145034000Y-103245000D02*
X145009001Y-103220001D01*
D51*
X137929965Y-105333751D02*
X137929965Y-105217501D01*
X130694963Y-104866249D02*
X130694963Y-104982499D01*
X129929965Y-105217501D02*
X129929965Y-104866249D01*
X130694963Y-104982499D02*
X130694963Y-105333751D01*
X139578714Y-105217501D02*
X140544566Y-105217501D01*
X126282499Y-105217501D02*
X127578714Y-105217501D01*
X132694963Y-104982499D02*
X132694963Y-105333751D01*
X130046214Y-104750000D02*
X130578714Y-104750000D01*
X135929965Y-105333751D02*
X135929965Y-105217501D01*
X136694963Y-104982499D02*
X136694963Y-105333751D01*
X134046214Y-104750000D02*
X134578714Y-104750000D01*
X132694963Y-105333751D02*
G75*
G03*
X133046214Y-105685037I351237J-49D01*
G01*
X127929965Y-104866250D02*
G75*
G02*
X128046214Y-104750065I116235J-50D01*
G01*
X134694963Y-105333751D02*
G75*
G03*
X135046214Y-105685037I351237J-49D01*
G01*
X128578714Y-104750001D02*
G75*
G02*
X128694999Y-104866250I-14J-116299D01*
G01*
X138694963Y-104866250D02*
G75*
G03*
X139046214Y-105217537I351237J-50D01*
G01*
X129578714Y-105685002D02*
G75*
G03*
X129929902Y-105333751I-14J351202D01*
G01*
X132578714Y-104750000D02*
G75*
G02*
X132695000Y-104866249I-14J-116300D01*
G01*
X130578714Y-104750000D02*
G75*
G02*
X130695000Y-104866249I-14J-116300D01*
G01*
X137578714Y-105685002D02*
G75*
G03*
X137929902Y-105333751I-14J351202D01*
G01*
X130694963Y-105333751D02*
G75*
G03*
X131046214Y-105685037I351237J-49D01*
G01*
X134578714Y-104750000D02*
G75*
G02*
X134695000Y-104866249I-14J-116300D01*
G01*
X135578714Y-105685002D02*
G75*
G03*
X135929902Y-105333751I-14J351202D01*
G01*
X131929965Y-104866249D02*
G75*
G02*
X132046214Y-104750065I116235J-51D01*
G01*
X128694963Y-105333751D02*
G75*
G03*
X129046214Y-105685037I351237J-49D01*
G01*
X127578714Y-105217501D02*
G75*
G03*
X127929901Y-104866250I-14J351201D01*
G01*
X133578714Y-105685002D02*
G75*
G03*
X133929902Y-105333751I-14J351202D01*
G01*
X138578714Y-104750001D02*
G75*
G02*
X138694999Y-104866250I-14J-116299D01*
G01*
X137929965Y-104866250D02*
G75*
G02*
X138046214Y-104750065I116235J-50D01*
G01*
X136578714Y-104750000D02*
G75*
G02*
X136695000Y-104866249I-14J-116300D01*
G01*
X133929965Y-104866249D02*
G75*
G02*
X134046214Y-104750065I116235J-51D01*
G01*
X136694963Y-105333751D02*
G75*
G03*
X137046214Y-105685037I351237J-49D01*
G01*
X129929965Y-104866249D02*
G75*
G02*
X130046214Y-104750065I116235J-51D01*
G01*
X131578714Y-105685002D02*
G75*
G03*
X131929902Y-105333751I-14J351202D01*
G01*
X135929965Y-104866249D02*
G75*
G02*
X136046214Y-104750065I116235J-51D01*
G01*
%TO.N,/SYZYGY/LCLKINP*%
X142468749Y-94912500D02*
X141673749Y-94117500D01*
X147454000Y-93825000D02*
X147454000Y-94559999D01*
X143200000Y-94912500D02*
X142468749Y-94912500D01*
X141673749Y-94117500D02*
X119512500Y-94117500D01*
X147278999Y-94735000D02*
X143377500Y-94735000D01*
X143377500Y-94735000D02*
X143200000Y-94912500D01*
X119512500Y-94117500D02*
X119360000Y-94270000D01*
X147454000Y-94559999D02*
X147278999Y-94735000D01*
D49*
%TO.N,Net-(U1-RSTIDXN)*%
X157908471Y-98245000D02*
X156374000Y-98245000D01*
X158507001Y-98070000D02*
X158083471Y-98070000D01*
X163160832Y-78936668D02*
X163987500Y-78936668D01*
X161882000Y-80215500D02*
X163160832Y-78936668D01*
X158757001Y-97820000D02*
X158732001Y-97795000D01*
X158083471Y-98070000D02*
X157908471Y-98245000D01*
X161882000Y-80215500D02*
X161882000Y-85295000D01*
X158757001Y-97820000D02*
X158507001Y-98070000D01*
X158732001Y-97795000D02*
X158682000Y-97795000D01*
%TO.N,Net-(U1-DISABLEN)*%
X163280000Y-84793000D02*
X163280000Y-82687500D01*
X163280000Y-84793000D02*
X163782000Y-85295000D01*
X156374000Y-100245000D02*
X158332000Y-100245000D01*
X163782000Y-85295000D02*
X163782000Y-85195000D01*
X158332000Y-100245000D02*
X158882000Y-100395000D01*
X163280000Y-82687500D02*
X164067500Y-81900000D01*
%TO.N,Net-(U1-REFOSCO)*%
X146300000Y-90400000D02*
X147600000Y-90400000D01*
X152454000Y-92754000D02*
X152411090Y-92711090D01*
X152454000Y-93825000D02*
X152454000Y-92754000D01*
X140062500Y-84545000D02*
X140720000Y-83887500D01*
X141600000Y-86200000D02*
X142100000Y-86200000D01*
X140062500Y-86200000D02*
X141600000Y-86200000D01*
X147600000Y-90400000D02*
X147600000Y-90200000D01*
X140062500Y-86200000D02*
X140062500Y-84545000D01*
X142100000Y-86200000D02*
X146300000Y-90400000D01*
%TO.N,Net-(U1-REFOSCI)*%
X143425000Y-86925000D02*
X146400000Y-89900000D01*
X152954000Y-93016709D02*
X153014000Y-92956709D01*
X153014000Y-92014000D02*
X153000000Y-92000000D01*
X143425000Y-86200000D02*
X143425000Y-86925000D01*
X145000000Y-86200000D02*
X143425000Y-86200000D01*
X147551471Y-89600000D02*
X147600000Y-89600000D01*
X153014000Y-92956709D02*
X153014000Y-92014000D01*
X145000000Y-86200000D02*
X145000000Y-84687500D01*
X147600000Y-89600000D02*
X147579657Y-89679657D01*
X146400000Y-89900000D02*
X147251471Y-89900000D01*
X147251471Y-89900000D02*
X147551471Y-89600000D01*
X152954000Y-93825000D02*
X152954000Y-93016709D01*
X145000000Y-84687500D02*
X145800000Y-83887500D01*
D53*
%TO.N,/Power/TVDD33O*%
X136715000Y-78075000D02*
X135287500Y-78075000D01*
X134057500Y-81720000D02*
X134932500Y-80845000D01*
X135287500Y-77925500D02*
X133572500Y-77925500D01*
X134932500Y-80845000D02*
X135688142Y-80845000D01*
X134057500Y-81720000D02*
X132395000Y-81720000D01*
X137070000Y-78430000D02*
X136715000Y-78075000D01*
X133572500Y-77925500D02*
X133557500Y-77940500D01*
X137070000Y-79463142D02*
X137070000Y-78430000D01*
X135395000Y-77818000D02*
X135287500Y-77925500D01*
X133557500Y-77940500D02*
X131795000Y-77940500D01*
X132395000Y-81720000D02*
X132275000Y-81600000D01*
X135688142Y-80845000D02*
X137070000Y-79463142D01*
D54*
%TO.N,/gpx2/CVDD18*%
X152990000Y-106459000D02*
X152954000Y-106423000D01*
D53*
X153241000Y-108795000D02*
X153291000Y-108745000D01*
X153241000Y-110269000D02*
X153241000Y-108795000D01*
X153291000Y-106760000D02*
X152990000Y-106459000D01*
X153191000Y-110269000D02*
X153191000Y-111639000D01*
X153191000Y-111639000D02*
X154361000Y-112809000D01*
X153291000Y-110169000D02*
X153191000Y-110269000D01*
X153291000Y-108745000D02*
X153291000Y-106760000D01*
D54*
X152954000Y-106423000D02*
X152954000Y-105165000D01*
%TO.N,/gpx2/TVDD18*%
X154700000Y-92600000D02*
X153828556Y-92600000D01*
X153454000Y-93346000D02*
X153454000Y-93825000D01*
X158283000Y-112043000D02*
X159670000Y-112043000D01*
D53*
X155100000Y-92200000D02*
X155100000Y-90278500D01*
X158283000Y-111905500D02*
X156646500Y-110269000D01*
X154700000Y-92600000D02*
X155100000Y-92200000D01*
D54*
X153454000Y-106110200D02*
X153454000Y-105165000D01*
X156163800Y-89269400D02*
X156163800Y-87976800D01*
X159670000Y-112043000D02*
X159672000Y-112045000D01*
X153828556Y-92600000D02*
X153464000Y-92964556D01*
D53*
X155100000Y-90278500D02*
X156191500Y-89187000D01*
D54*
X156162000Y-87975000D02*
X156162000Y-87905000D01*
X156163800Y-87976800D02*
X156162000Y-87975000D01*
X159672000Y-112045000D02*
X159732000Y-112045000D01*
D53*
X156646500Y-110269000D02*
X156646500Y-108799000D01*
D54*
X153464000Y-93336000D02*
X153454000Y-93346000D01*
D53*
X158283000Y-112043000D02*
X158283000Y-111905500D01*
X156646500Y-108799000D02*
X156700500Y-108745000D01*
D54*
X153752000Y-106408200D02*
X153454000Y-106110200D01*
X156162000Y-87905000D02*
X156092000Y-87905000D01*
D53*
X154371236Y-106415736D02*
X153795264Y-106415736D01*
D54*
X156092000Y-87905000D02*
X156152000Y-87965000D01*
X159732000Y-112045000D02*
X159732000Y-112105000D01*
D53*
X156700500Y-108745000D02*
X154371236Y-106415736D01*
D54*
X153464000Y-92964556D02*
X153464000Y-93336000D01*
X159732000Y-112105000D02*
X159672000Y-112045000D01*
%TO.N,/gpx2/DVDD18*%
X149180000Y-106289444D02*
X149444000Y-106025444D01*
X148954000Y-92974556D02*
X148954000Y-93825000D01*
D49*
X146292000Y-111930500D02*
X146404500Y-112043000D01*
D53*
X148742000Y-108005000D02*
X148013500Y-108733500D01*
X148013500Y-110269000D02*
X146296000Y-110269000D01*
D54*
X149018000Y-92285800D02*
X149018000Y-92910556D01*
D53*
X150667000Y-88933000D02*
X150000000Y-89600000D01*
X148762000Y-108005000D02*
X148742000Y-108005000D01*
X150000000Y-90500000D02*
X149842000Y-90658000D01*
D54*
X149444000Y-106025444D02*
X149444000Y-105175000D01*
D53*
X149180000Y-107567000D02*
X148762000Y-107985000D01*
X150958000Y-88933000D02*
X150667000Y-88933000D01*
D54*
X149018000Y-92910556D02*
X148954000Y-92974556D01*
D53*
X149842000Y-91461800D02*
X149018000Y-92285800D01*
X146296000Y-110269000D02*
X146292000Y-110265000D01*
X149842000Y-90658000D02*
X149842000Y-91461800D01*
X146404500Y-110377500D02*
X146292000Y-110265000D01*
X150000000Y-89600000D02*
X150000000Y-90500000D01*
D54*
X149180000Y-106459000D02*
X149180000Y-106289444D01*
X149444000Y-105175000D02*
X149454000Y-105165000D01*
D53*
X146404500Y-112043000D02*
X146404500Y-110377500D01*
X148762000Y-107985000D02*
X148762000Y-108005000D01*
X149180000Y-106459000D02*
X149180000Y-107567000D01*
X148013500Y-108733500D02*
X148013500Y-110269000D01*
%TO.N,/gpx2/DVDD18O*%
X149838500Y-110269000D02*
X150472685Y-109634815D01*
D54*
X150454000Y-106463000D02*
X150454000Y-105165000D01*
D53*
X150472685Y-109634815D02*
X150472685Y-106481684D01*
%TO.N,/gpx2/TVDD18O*%
X154875500Y-108745000D02*
X154875500Y-108344500D01*
X154875500Y-108344500D02*
X154006000Y-107475000D01*
D54*
X155276000Y-103919000D02*
X154133000Y-102776000D01*
X152492556Y-102776000D02*
X150954000Y-104314556D01*
X154133000Y-102776000D02*
X152492556Y-102776000D01*
X150954000Y-104314556D02*
X150954000Y-105165000D01*
D53*
%TO.N,/gpx2/CVDD18O*%
X151466000Y-106459000D02*
X151454000Y-106447000D01*
X151466000Y-108745000D02*
X151466000Y-106459000D01*
D54*
X151454000Y-106447000D02*
X151454000Y-105165000D01*
D53*
%TO.N,/Power/DVDD33O*%
X148834500Y-120200000D02*
X149256500Y-119778000D01*
X149256500Y-118254000D02*
X149256500Y-119778000D01*
X144200000Y-120200000D02*
X148834500Y-120200000D01*
D49*
%TO.N,/SYZYGY/MISO_A*%
X126449102Y-93010000D02*
X127729103Y-91729999D01*
X127729103Y-91729999D02*
X128631152Y-91729999D01*
X123246998Y-92830000D02*
X123390000Y-92973002D01*
X123426998Y-93010000D02*
X126449102Y-93010000D01*
X123390000Y-92973002D02*
X123390000Y-93010000D01*
X123246998Y-92830000D02*
X123426998Y-93010000D01*
%TO.N,/SYZYGY/SS_N_A*%
X125170000Y-89780000D02*
X128631152Y-89780000D01*
X121447000Y-93202340D02*
X121447000Y-92283000D01*
X124732500Y-89342500D02*
X125170000Y-89780000D01*
X122562000Y-89898776D02*
X123118276Y-89342500D01*
X123118276Y-89342500D02*
X124732500Y-89342500D01*
X122562000Y-91168000D02*
X122562000Y-89898776D01*
X121447000Y-92283000D02*
X122562000Y-91168000D01*
%TO.N,/SYZYGY/DISABLEP_A*%
X123554716Y-83080000D02*
X127300000Y-83080000D01*
X127300000Y-83080000D02*
X127599103Y-83379103D01*
X127990000Y-84060000D02*
X128601152Y-84060000D01*
X119300000Y-90701817D02*
X119300000Y-89551471D01*
X119300000Y-89551471D02*
X119070000Y-89321471D01*
X119070000Y-89321471D02*
X119070000Y-87564716D01*
X127599103Y-83887399D02*
X127771704Y-84060000D01*
X127771704Y-84060000D02*
X128601152Y-84060000D01*
X119070000Y-87564716D02*
X123554716Y-83080000D01*
X118240000Y-96965000D02*
X118240000Y-91761817D01*
X119570000Y-98295000D02*
X118240000Y-96965000D01*
X118240000Y-91761817D02*
X119300000Y-90701817D01*
X127599103Y-83379103D02*
X127599103Y-83887399D01*
%TO.N,/SYZYGY/PARITY_A*%
X127515779Y-86009999D02*
X128601152Y-86009999D01*
X120388529Y-92180000D02*
X120940000Y-91628529D01*
X121580000Y-87300000D02*
X122350000Y-87300000D01*
X119640000Y-92180000D02*
X120388529Y-92180000D01*
X120940000Y-91628529D02*
X120940000Y-91131471D01*
X120730000Y-90921471D02*
X120730000Y-88150000D01*
X120940000Y-91131471D02*
X120730000Y-90921471D01*
X127515779Y-86009999D02*
X127515779Y-86505943D01*
X126721722Y-87300000D02*
X122350000Y-87300000D01*
X120730000Y-88150000D02*
X121580000Y-87300000D01*
X127515779Y-86505943D02*
X126721722Y-87300000D01*
X119640000Y-92420000D02*
X119640000Y-92180000D01*
%TO.N,/SYZYGY/SCK_A*%
X123278784Y-91489570D02*
X123309214Y-91520000D01*
X123309214Y-91520000D02*
X123995686Y-91520000D01*
X123995686Y-91520000D02*
X125085685Y-90430001D01*
X125085685Y-90430001D02*
X128631152Y-90430001D01*
%TO.N,/SYZYGY/REFRESP_A*%
X119749168Y-99099361D02*
X120170000Y-98678529D01*
X118760000Y-96511471D02*
X118760000Y-92130000D01*
X127134314Y-83480000D02*
X127199103Y-83544789D01*
X127199103Y-83544789D02*
X127199103Y-84053085D01*
X127199103Y-84053085D02*
X127856019Y-84710001D01*
X119800000Y-87400402D02*
X123720402Y-83480000D01*
X120170000Y-98678529D02*
X120170000Y-97921471D01*
X123720402Y-83480000D02*
X127134314Y-83480000D01*
X119800000Y-91090000D02*
X119800000Y-87400402D01*
X119520000Y-99099361D02*
X119749168Y-99099361D01*
X118760000Y-92130000D02*
X119800000Y-91090000D01*
X120170000Y-97921471D02*
X118760000Y-96511471D01*
X127856019Y-84710001D02*
X128601152Y-84710001D01*
%TO.N,/SYZYGY/MOSI_A*%
X122646999Y-92093912D02*
X124496088Y-92093912D01*
X124496088Y-92093912D02*
X125510000Y-91080000D01*
X125510000Y-91080000D02*
X128631152Y-91080000D01*
%TO.N,/SYZYGY/MOSI_B*%
X133020000Y-90900000D02*
X133020000Y-90880000D01*
X133020000Y-90880000D02*
X133010000Y-90870000D01*
X149954000Y-93825000D02*
X149954000Y-92622592D01*
X151633430Y-90283000D02*
X153642000Y-88274430D01*
X151000000Y-90865686D02*
X151582686Y-90283000D01*
X133220000Y-91080000D02*
X133040000Y-90900000D01*
X151582686Y-90283000D02*
X151633430Y-90283000D01*
X134531048Y-91080000D02*
X133350000Y-91080000D01*
X153642000Y-88274430D02*
X153642000Y-86035000D01*
X151000000Y-91576592D02*
X151000000Y-90865686D01*
X149954000Y-92622592D02*
X151000000Y-91576592D01*
X133040000Y-90900000D02*
X133020000Y-90900000D01*
%TO.N,/SYZYGY/REFRESP_B*%
X158332000Y-98745000D02*
X156374000Y-98745000D01*
X161698471Y-85960000D02*
X162217000Y-85960000D01*
X133110000Y-82530000D02*
X137480000Y-82530000D01*
X149651471Y-81600000D02*
X150451471Y-81600000D01*
X151051471Y-81000000D02*
X158710000Y-81000000D01*
X132740001Y-84710001D02*
X132450000Y-84420000D01*
X134611048Y-84710001D02*
X132740001Y-84710001D01*
X163427498Y-80436668D02*
X163987500Y-80436668D01*
X158332000Y-98670000D02*
X158357000Y-98695000D01*
X158382000Y-98695000D02*
X158332000Y-98745000D01*
X158357000Y-98695000D02*
X158382000Y-98695000D01*
X137480000Y-82530000D02*
X138820000Y-81190000D01*
X150451471Y-81600000D02*
X151051471Y-81000000D01*
X162880000Y-85293000D02*
X162882000Y-85295000D01*
X132450000Y-84420000D02*
X132450000Y-83190000D01*
X162882000Y-85295000D02*
X162882000Y-85195000D01*
X138820000Y-81190000D02*
X149241471Y-81190000D01*
X162217000Y-85960000D02*
X162882000Y-85295000D01*
X160600000Y-84270000D02*
X161080000Y-84750000D01*
X162880000Y-80984166D02*
X162880000Y-85293000D01*
X160600000Y-82890000D02*
X160600000Y-84270000D01*
X161080000Y-85341529D02*
X161698471Y-85960000D01*
X161080000Y-84750000D02*
X161080000Y-85341529D01*
X158710000Y-81000000D02*
X160600000Y-82890000D01*
X162880000Y-80984166D02*
X163427498Y-80436668D01*
X149241471Y-81190000D02*
X149651471Y-81600000D01*
X132450000Y-83190000D02*
X133110000Y-82530000D01*
%TO.N,/SYZYGY/SS_N_B*%
X144210000Y-91469461D02*
X144019461Y-91660000D01*
X154442000Y-88605802D02*
X154442000Y-88000686D01*
X135433097Y-89780000D02*
X134531048Y-89780000D01*
X150954000Y-94604732D02*
X149338732Y-96220000D01*
X150954000Y-93825000D02*
X150954000Y-92753964D01*
X150954000Y-92753964D02*
X151800000Y-91907964D01*
X137313097Y-91660000D02*
X135433097Y-89780000D01*
X149338732Y-96220000D02*
X148442000Y-96220000D01*
X154442000Y-88000686D02*
X156182000Y-86260686D01*
X144019461Y-91660000D02*
X137313097Y-91660000D01*
X156182000Y-86260686D02*
X156182000Y-86035000D01*
X151800000Y-91907964D02*
X151800000Y-91247802D01*
X150954000Y-93825000D02*
X150954000Y-94604732D01*
X151800000Y-91247802D02*
X154442000Y-88605802D01*
%TO.N,/SYZYGY/SCK_B*%
X133000000Y-89830000D02*
X133040000Y-89870000D01*
X150454000Y-92688278D02*
X151400000Y-91742278D01*
X151400000Y-91082116D02*
X154042000Y-88440116D01*
X150454000Y-93825000D02*
X150454000Y-92688278D01*
X133100000Y-89930000D02*
X133000000Y-89930000D01*
X151400000Y-91742278D02*
X151400000Y-91082116D01*
X134531048Y-90430001D02*
X133600001Y-90430001D01*
X154982000Y-86895000D02*
X154982000Y-84695000D01*
X133600001Y-90430001D02*
X133100000Y-89930000D01*
X133000000Y-89930000D02*
X133000000Y-89830000D01*
X154982000Y-84695000D02*
X156182000Y-83495000D01*
X154042000Y-87835000D02*
X154982000Y-86895000D01*
X154042000Y-88440116D02*
X154042000Y-87835000D01*
%TO.N,/SYZYGY/DISABLEP_B*%
X152348529Y-81400000D02*
X158380000Y-81400000D01*
X164382000Y-85543529D02*
X164382000Y-83714500D01*
X161530000Y-86360000D02*
X163565529Y-86360000D01*
X159950000Y-82970000D02*
X159950000Y-84780000D01*
X158380000Y-81400000D02*
X159950000Y-82970000D01*
X139670000Y-81590000D02*
X149075785Y-81590000D01*
X135903278Y-84365000D02*
X136886471Y-84365000D01*
X158310000Y-101220000D02*
X158310000Y-101220000D01*
X164067500Y-83400000D02*
X164640000Y-83972500D01*
X134706048Y-84155000D02*
X135693278Y-84155000D01*
X138180000Y-83080000D02*
X139670000Y-81590000D01*
X136886471Y-84365000D02*
X137131471Y-84120000D01*
X164382000Y-83714500D02*
X164067500Y-83400000D01*
X149685785Y-82200000D02*
X151548529Y-82200000D01*
X151548529Y-82200000D02*
X152348529Y-81400000D01*
X158310000Y-101160000D02*
X158310000Y-101220000D01*
X137550000Y-84120000D02*
X138180000Y-83490000D01*
X135693278Y-84155000D02*
X135903278Y-84365000D01*
X156374000Y-100745000D02*
X157835000Y-100745000D01*
X134611048Y-84060000D02*
X134706048Y-84155000D01*
X158250000Y-101160000D02*
X158310000Y-101160000D01*
X157835000Y-100745000D02*
X158250000Y-101160000D01*
X138180000Y-83490000D02*
X138180000Y-83080000D01*
X159950000Y-84780000D02*
X161530000Y-86360000D01*
X137131471Y-84120000D02*
X137550000Y-84120000D01*
X149075785Y-81590000D02*
X149685785Y-82200000D01*
X163565529Y-86360000D02*
X164382000Y-85543529D01*
X164640000Y-83972500D02*
X164640000Y-85450000D01*
%TO.N,/SYZYGY/MISO_B*%
X136817412Y-91730001D02*
X137187411Y-92100000D01*
X148304200Y-91095800D02*
X148304200Y-85847271D01*
X147300000Y-92100000D02*
X148304200Y-91095800D01*
X150600000Y-90700000D02*
X151417000Y-89883000D01*
X149454000Y-93825000D02*
X149454000Y-93110952D01*
X148304200Y-85847271D02*
X150656471Y-83495000D01*
X149468000Y-93096952D02*
X149468000Y-92542906D01*
X149454000Y-93110952D02*
X149468000Y-93096952D01*
X152082000Y-89268744D02*
X152082000Y-85055000D01*
X134531048Y-91730001D02*
X136817412Y-91730001D01*
X152082000Y-85055000D02*
X153642000Y-83495000D01*
X151417000Y-89883000D02*
X151467744Y-89883000D01*
X137187411Y-92100000D02*
X147300000Y-92100000D01*
X150656471Y-83495000D02*
X153642000Y-83495000D01*
X150600000Y-91410906D02*
X150600000Y-90700000D01*
X151467744Y-89883000D02*
X152082000Y-89268744D01*
X149468000Y-92542906D02*
X150600000Y-91410906D01*
%TO.N,/SYZYGY/PARITY_B*%
X151954000Y-95294000D02*
X152070000Y-95410000D01*
X135257593Y-86010001D02*
X134501048Y-86010001D01*
X137413278Y-86580000D02*
X135827592Y-86580000D01*
X146300000Y-91000000D02*
X142360000Y-87060000D01*
X135827592Y-86580000D02*
X135257593Y-86010001D01*
X151954000Y-93825000D02*
X151954000Y-95294000D01*
X137893278Y-87060000D02*
X137413278Y-86580000D01*
X146620000Y-91000000D02*
X146300000Y-91000000D01*
X142360000Y-87060000D02*
X137893278Y-87060000D01*
%TO.N,Net-(J15-S27)*%
X132989999Y-87310001D02*
X132930000Y-87370000D01*
X134501048Y-87310001D02*
X132989999Y-87310001D01*
X132400000Y-87900000D02*
X132400000Y-91801002D01*
X133628999Y-93030001D02*
X134531048Y-93030001D01*
X132989999Y-87310001D02*
X132400000Y-87900000D01*
X132400000Y-91801002D02*
X133628999Y-93030001D01*
%TO.N,/SYZYGY/INTERRUPT_A*%
X120330000Y-87450000D02*
X120330000Y-91370000D01*
X120330000Y-91370000D02*
X120340000Y-91380000D01*
X127376722Y-85360000D02*
X127196722Y-85540000D01*
X128601152Y-85360000D02*
X127376722Y-85360000D01*
X127196722Y-85540000D02*
X122240000Y-85540000D01*
X122240000Y-85540000D02*
X120330000Y-87450000D01*
D52*
%TO.N,SZG5V*%
X121401086Y-79400000D02*
X128000000Y-79400000D01*
%TD*%
M02*
