%TF.GenerationSoftware,KiCad,Pcbnew,8.0.4*%
%TF.CreationDate,2025-07-14T14:53:05+02:00*%
%TF.ProjectId,syzygy_gpx2_2_1,73797a79-6779-45f6-9770-78325f325f31,rev?*%
%TF.SameCoordinates,Original*%
%TF.FileFunction,Drillmap*%
%TF.FilePolarity,Positive*%
%FSLAX45Y45*%
G04 Gerber Fmt 4.5, Leading zero omitted, Abs format (unit mm)*
G04 Created by KiCad (PCBNEW 8.0.4) date 2025-07-14 14:53:05*
%MOMM*%
%LPD*%
G01*
G04 APERTURE LIST*
%ADD10C,0.050000*%
%ADD11C,0.200000*%
%ADD12C,0.100000*%
%ADD13C,0.120000*%
%ADD14C,0.170000*%
G04 APERTURE END LIST*
D10*
X11438200Y-7699500D02*
X18438200Y-7699500D01*
X18438200Y-12199500D01*
X11438200Y-12199500D01*
X11438200Y-7699500D01*
D11*
D12*
X11578000Y-9912000D02*
X11608000Y-9942000D01*
X11608000Y-9912000D02*
X11578000Y-9942000D01*
X11605000Y-10819000D02*
X11635000Y-10849000D01*
X11635000Y-10819000D02*
X11605000Y-10849000D01*
X11746000Y-8974000D02*
X11776000Y-9004000D01*
X11776000Y-8974000D02*
X11746000Y-9004000D01*
X11775000Y-10779000D02*
X11805000Y-10809000D01*
X11805000Y-10779000D02*
X11775000Y-10809000D01*
X11921000Y-9336000D02*
X11951000Y-9366000D01*
X11951000Y-9336000D02*
X11921000Y-9366000D01*
X11921000Y-9412000D02*
X11951000Y-9442000D01*
X11951000Y-9412000D02*
X11921000Y-9442000D01*
X11935000Y-9975000D02*
X11965000Y-10005000D01*
X11965000Y-9975000D02*
X11935000Y-10005000D01*
X11935000Y-10055000D02*
X11965000Y-10085000D01*
X11965000Y-10055000D02*
X11935000Y-10085000D01*
X11935000Y-10135000D02*
X11965000Y-10165000D01*
X11965000Y-10135000D02*
X11935000Y-10165000D01*
X11935000Y-10215000D02*
X11965000Y-10245000D01*
X11965000Y-10215000D02*
X11935000Y-10245000D01*
X11935000Y-10295000D02*
X11965000Y-10325000D01*
X11965000Y-10295000D02*
X11935000Y-10325000D01*
X11935000Y-10375000D02*
X11965000Y-10405000D01*
X11965000Y-10375000D02*
X11935000Y-10405000D01*
X11935000Y-10455000D02*
X11965000Y-10485000D01*
X11965000Y-10455000D02*
X11935000Y-10485000D01*
X11935000Y-10535000D02*
X11965000Y-10565000D01*
X11965000Y-10535000D02*
X11935000Y-10565000D01*
X11937000Y-9894936D02*
X11967000Y-9924936D01*
X11967000Y-9894936D02*
X11937000Y-9924936D01*
X11942000Y-9814500D02*
X11972000Y-9844500D01*
X11972000Y-9814500D02*
X11942000Y-9844500D01*
X11949000Y-9227000D02*
X11979000Y-9257000D01*
X11979000Y-9227000D02*
X11949000Y-9257000D01*
X11994700Y-10846800D02*
X12024700Y-10876800D01*
X12024700Y-10846800D02*
X11994700Y-10876800D01*
X12019000Y-9123000D02*
X12049000Y-9153000D01*
X12049000Y-9123000D02*
X12019000Y-9153000D01*
X12049000Y-9585000D02*
X12079000Y-9615000D01*
X12079000Y-9585000D02*
X12049000Y-9615000D01*
X12124000Y-10568000D02*
X12154000Y-10598000D01*
X12154000Y-10568000D02*
X12124000Y-10598000D01*
X12129700Y-9305234D02*
X12159700Y-9335234D01*
X12159700Y-9305234D02*
X12129700Y-9335234D01*
X12183192Y-8959545D02*
X12213192Y-8989545D01*
X12213192Y-8959545D02*
X12183192Y-8989545D01*
X12249700Y-9194391D02*
X12279700Y-9224391D01*
X12279700Y-9194391D02*
X12249700Y-9224391D01*
X12256000Y-8624000D02*
X12286000Y-8654000D01*
X12286000Y-8624000D02*
X12256000Y-8654000D01*
X12309700Y-9268000D02*
X12339700Y-9298000D01*
X12339700Y-9268000D02*
X12309700Y-9298000D01*
X12312878Y-9133957D02*
X12342878Y-9163957D01*
X12342878Y-9133957D02*
X12312878Y-9163957D01*
X12347000Y-8456000D02*
X12377000Y-8486000D01*
X12377000Y-8456000D02*
X12347000Y-8486000D01*
X12510000Y-8192000D02*
X12540000Y-8222000D01*
X12540000Y-8192000D02*
X12510000Y-8222000D01*
X12537000Y-8625625D02*
X12567000Y-8655625D01*
X12567000Y-8625625D02*
X12537000Y-8655625D01*
X12561500Y-8459577D02*
X12591500Y-8489577D01*
X12591500Y-8459577D02*
X12561500Y-8489577D01*
X12585000Y-9975000D02*
X12615000Y-10005000D01*
X12615000Y-9975000D02*
X12585000Y-10005000D01*
X12585000Y-10055000D02*
X12615000Y-10085000D01*
X12615000Y-10055000D02*
X12585000Y-10085000D01*
X12585000Y-10135000D02*
X12615000Y-10165000D01*
X12615000Y-10135000D02*
X12585000Y-10165000D01*
X12585000Y-10215000D02*
X12615000Y-10245000D01*
X12615000Y-10215000D02*
X12585000Y-10245000D01*
X12585000Y-10295000D02*
X12615000Y-10325000D01*
X12615000Y-10295000D02*
X12585000Y-10325000D01*
X12585000Y-10375000D02*
X12615000Y-10405000D01*
X12615000Y-10375000D02*
X12585000Y-10405000D01*
X12585000Y-10455000D02*
X12615000Y-10485000D01*
X12615000Y-10455000D02*
X12585000Y-10485000D01*
X12585000Y-10535000D02*
X12615000Y-10565000D01*
X12615000Y-10535000D02*
X12585000Y-10565000D01*
X12945000Y-11045000D02*
X12975000Y-11075000D01*
X12975000Y-11045000D02*
X12945000Y-11075000D01*
X12974000Y-8678000D02*
X13004000Y-8708000D01*
X13004000Y-8678000D02*
X12974000Y-8708000D01*
X12996000Y-8802000D02*
X13026000Y-8832000D01*
X13026000Y-8802000D02*
X12996000Y-8832000D01*
X13001000Y-9288000D02*
X13031000Y-9318000D01*
X13031000Y-9288000D02*
X13001000Y-9318000D01*
X13051550Y-7865000D02*
X13081550Y-7895000D01*
X13081550Y-7865000D02*
X13051550Y-7895000D01*
X13278000Y-8722000D02*
X13308000Y-8752000D01*
X13308000Y-8722000D02*
X13278000Y-8752000D01*
X13285000Y-8978000D02*
X13315000Y-9008000D01*
X13315000Y-8978000D02*
X13285000Y-9008000D01*
X13287000Y-9075000D02*
X13317000Y-9105000D01*
X13317000Y-9075000D02*
X13287000Y-9105000D01*
X13296000Y-8358000D02*
X13326000Y-8388000D01*
X13326000Y-8358000D02*
X13296000Y-8388000D01*
X13563200Y-10774500D02*
X13593200Y-10804500D01*
X13593200Y-10774500D02*
X13563200Y-10804500D01*
X13601000Y-7899000D02*
X13631000Y-7929000D01*
X13631000Y-7899000D02*
X13601000Y-7929000D01*
X13723000Y-8457000D02*
X13753000Y-8487000D01*
X13753000Y-8457000D02*
X13723000Y-8487000D01*
X13728000Y-8737000D02*
X13758000Y-8767000D01*
X13758000Y-8737000D02*
X13728000Y-8767000D01*
X13747000Y-8921000D02*
X13777000Y-8951000D01*
X13777000Y-8921000D02*
X13747000Y-8951000D01*
X13870000Y-8510000D02*
X13900000Y-8540000D01*
X13900000Y-8510000D02*
X13870000Y-8540000D01*
X14090286Y-11044639D02*
X14120286Y-11074639D01*
X14120286Y-11044639D02*
X14090286Y-11074639D01*
X14095000Y-11124500D02*
X14125000Y-11154500D01*
X14125000Y-11124500D02*
X14095000Y-11154500D01*
X14145000Y-11204500D02*
X14175000Y-11234500D01*
X14175000Y-11204500D02*
X14145000Y-11234500D01*
X14175000Y-11705000D02*
X14205000Y-11735000D01*
X14205000Y-11705000D02*
X14175000Y-11735000D01*
X14185000Y-11054500D02*
X14215000Y-11084500D01*
X14215000Y-11054500D02*
X14185000Y-11084500D01*
X14406000Y-9131946D02*
X14436000Y-9161946D01*
X14436000Y-9131946D02*
X14406000Y-9161946D01*
X14575000Y-11345000D02*
X14605000Y-11375000D01*
X14605000Y-11345000D02*
X14575000Y-11375000D01*
X14614258Y-10152266D02*
X14644258Y-10182266D01*
X14644258Y-10152266D02*
X14614258Y-10182266D01*
X14647000Y-9085000D02*
X14677000Y-9115000D01*
X14677000Y-9085000D02*
X14647000Y-9115000D01*
X14655000Y-8735000D02*
X14685000Y-8765000D01*
X14685000Y-8735000D02*
X14655000Y-8765000D01*
X14674258Y-10214182D02*
X14704258Y-10244182D01*
X14704258Y-10214182D02*
X14674258Y-10244182D01*
X14745000Y-8945000D02*
X14775000Y-8975000D01*
X14775000Y-8945000D02*
X14745000Y-8975000D01*
X14745000Y-9025000D02*
X14775000Y-9055000D01*
X14775000Y-9025000D02*
X14745000Y-9055000D01*
X14746200Y-10729500D02*
X14776200Y-10759500D01*
X14776200Y-10729500D02*
X14746200Y-10759500D01*
X14825000Y-9505000D02*
X14855000Y-9535000D01*
X14855000Y-9505000D02*
X14825000Y-9535000D01*
X14829200Y-9607000D02*
X14859200Y-9637000D01*
X14859200Y-9607000D02*
X14829200Y-9637000D01*
X14861200Y-10785500D02*
X14891200Y-10815500D01*
X14891200Y-10785500D02*
X14861200Y-10815500D01*
X14899200Y-9043500D02*
X14929200Y-9073500D01*
X14929200Y-9043500D02*
X14899200Y-9073500D01*
X14905000Y-8565000D02*
X14935000Y-8595000D01*
X14935000Y-8565000D02*
X14905000Y-8595000D01*
X14985000Y-9035000D02*
X15015000Y-9065000D01*
X15015000Y-9035000D02*
X14985000Y-9065000D01*
X15081278Y-10115578D02*
X15111278Y-10145578D01*
X15111278Y-10115578D02*
X15081278Y-10145578D01*
X15192000Y-9526000D02*
X15222000Y-9556000D01*
X15222000Y-9526000D02*
X15192000Y-9556000D01*
X15226109Y-9256109D02*
X15256109Y-9286109D01*
X15256109Y-9256109D02*
X15226109Y-9286109D01*
X15233200Y-10364200D02*
X15263200Y-10394200D01*
X15263200Y-10364200D02*
X15233200Y-10394200D01*
X15255000Y-11265000D02*
X15285000Y-11295000D01*
X15285000Y-11265000D02*
X15255000Y-11295000D01*
X15286510Y-9182349D02*
X15316510Y-9212349D01*
X15316510Y-9182349D02*
X15286510Y-9212349D01*
X15385600Y-10732500D02*
X15415600Y-10762500D01*
X15415600Y-10732500D02*
X15385600Y-10762500D01*
X15395000Y-11675000D02*
X15425000Y-11705000D01*
X15425000Y-11675000D02*
X15395000Y-11705000D01*
X15487200Y-9754600D02*
X15517200Y-9784600D01*
X15517200Y-9754600D02*
X15487200Y-9784600D01*
X15512600Y-10376900D02*
X15542600Y-10406900D01*
X15542600Y-10376900D02*
X15512600Y-10406900D01*
X15601200Y-8775500D02*
X15631200Y-8805500D01*
X15631200Y-8775500D02*
X15601200Y-8805500D01*
X15621700Y-9177000D02*
X15651700Y-9207000D01*
X15651700Y-9177000D02*
X15621700Y-9207000D01*
X15715800Y-11334300D02*
X15745800Y-11364300D01*
X15745800Y-11334300D02*
X15715800Y-11364300D01*
X15809200Y-10664500D02*
X15839200Y-10694500D01*
X15839200Y-10664500D02*
X15809200Y-10694500D01*
X15816000Y-10101000D02*
X15846000Y-10131000D01*
X15846000Y-10101000D02*
X15816000Y-10131000D01*
X15818200Y-9852000D02*
X15848200Y-9882000D01*
X15848200Y-9852000D02*
X15818200Y-9882000D01*
X15860700Y-9767000D02*
X15890700Y-9797000D01*
X15890700Y-9767000D02*
X15860700Y-9797000D01*
X15873200Y-10024500D02*
X15903200Y-10054500D01*
X15903200Y-10024500D02*
X15873200Y-10054500D01*
X15949700Y-11007800D02*
X15979700Y-11037800D01*
X15979700Y-11007800D02*
X15949700Y-11037800D01*
X15958200Y-11189500D02*
X15988200Y-11219500D01*
X15988200Y-11189500D02*
X15958200Y-11219500D01*
X16105000Y-8305000D02*
X16135000Y-8335000D01*
X16135000Y-8305000D02*
X16105000Y-8335000D01*
X16173200Y-8514500D02*
X16203200Y-8544500D01*
X16203200Y-8514500D02*
X16173200Y-8544500D01*
X16273200Y-8514500D02*
X16303200Y-8544500D01*
X16303200Y-8514500D02*
X16273200Y-8544500D01*
X16363200Y-8514500D02*
X16393200Y-8544500D01*
X16393200Y-8514500D02*
X16363200Y-8544500D01*
X16449000Y-8530000D02*
X16479000Y-8560000D01*
X16479000Y-8530000D02*
X16449000Y-8560000D01*
X16575000Y-8545000D02*
X16605000Y-8575000D01*
X16605000Y-8545000D02*
X16575000Y-8575000D01*
X16738000Y-10356000D02*
X16768000Y-10386000D01*
X16768000Y-10356000D02*
X16738000Y-10386000D01*
X16887400Y-8637000D02*
X16917400Y-8667000D01*
X16917400Y-8637000D02*
X16887400Y-8667000D01*
X16887400Y-9500600D02*
X16917400Y-9530600D01*
X16917400Y-9500600D02*
X16887400Y-9530600D01*
X16912800Y-10364200D02*
X16942800Y-10394200D01*
X16942800Y-10364200D02*
X16912800Y-10394200D01*
X16912800Y-11227800D02*
X16942800Y-11257800D01*
X16942800Y-11227800D02*
X16912800Y-11257800D01*
X16912800Y-12078700D02*
X16942800Y-12108700D01*
X16942800Y-12078700D02*
X16912800Y-12108700D01*
X17224000Y-9562000D02*
X17254000Y-9592000D01*
X17254000Y-9562000D02*
X17224000Y-9592000D01*
X12228200Y-8865000D02*
G75*
G02*
X12148200Y-8865000I-40000J0D01*
G01*
X12148200Y-8865000D02*
G75*
G02*
X12228200Y-8865000I40000J0D01*
G01*
X12228200Y-11034000D02*
G75*
G02*
X12148200Y-11034000I-40000J0D01*
G01*
X12148200Y-11034000D02*
G75*
G02*
X12228200Y-11034000I40000J0D01*
G01*
X13340000Y-11499735D02*
G75*
G02*
X13260000Y-11499735I-40000J0D01*
G01*
X13260000Y-11499735D02*
G75*
G02*
X13340000Y-11499735I40000J0D01*
G01*
X13340000Y-11999735D02*
G75*
G02*
X13260000Y-11999735I-40000J0D01*
G01*
X13260000Y-11999735D02*
G75*
G02*
X13340000Y-11999735I40000J0D01*
G01*
X11648000Y-7936500D02*
X11648000Y-8036500D01*
X11598000Y-7986500D02*
X11698000Y-7986500D01*
X11648000Y-8190500D02*
X11648000Y-8290500D01*
X11598000Y-8240500D02*
X11698000Y-8240500D01*
X11648000Y-8444500D02*
X11648000Y-8544500D01*
X11598000Y-8494500D02*
X11698000Y-8494500D01*
X11650000Y-11676000D02*
X11650000Y-11776000D01*
X11600000Y-11726000D02*
X11700000Y-11726000D01*
X11650000Y-11930000D02*
X11650000Y-12030000D01*
X11600000Y-11980000D02*
X11700000Y-11980000D01*
X12652000Y-11446000D02*
X12652000Y-11546000D01*
X12602000Y-11496000D02*
X12702000Y-11496000D01*
X12652000Y-11700000D02*
X12652000Y-11800000D01*
X12602000Y-11750000D02*
X12702000Y-11750000D01*
X15364200Y-8299500D02*
X15364200Y-8399500D01*
X15314200Y-8349500D02*
X15414200Y-8349500D01*
X15364200Y-8553500D02*
X15364200Y-8653500D01*
X15314200Y-8603500D02*
X15414200Y-8603500D01*
X15618200Y-8299500D02*
X15618200Y-8399500D01*
X15568200Y-8349500D02*
X15668200Y-8349500D01*
X15618200Y-8553500D02*
X15618200Y-8653500D01*
X15568200Y-8603500D02*
X15668200Y-8603500D01*
X15748000Y-11556000D02*
X15748000Y-11656000D01*
X15698000Y-11606000D02*
X15798000Y-11606000D01*
X15748000Y-11810000D02*
X15748000Y-11910000D01*
X15698000Y-11860000D02*
X15798000Y-11860000D01*
X15872200Y-8299500D02*
X15872200Y-8399500D01*
X15822200Y-8349500D02*
X15922200Y-8349500D01*
X15872200Y-8553500D02*
X15872200Y-8653500D01*
X15822200Y-8603500D02*
X15922200Y-8603500D01*
X16002000Y-11556000D02*
X16002000Y-11656000D01*
X15952000Y-11606000D02*
X16052000Y-11606000D01*
X16002000Y-11810000D02*
X16002000Y-11910000D01*
X15952000Y-11860000D02*
X16052000Y-11860000D01*
X16256000Y-11556000D02*
X16256000Y-11656000D01*
X16206000Y-11606000D02*
X16306000Y-11606000D01*
X16256000Y-11810000D02*
X16256000Y-11910000D01*
X16206000Y-11860000D02*
X16306000Y-11860000D01*
X17181800Y-8038180D02*
X17181800Y-8138180D01*
X17131800Y-8088180D02*
X17231800Y-8088180D01*
X17181800Y-8292180D02*
X17181800Y-8392180D01*
X17131800Y-8342180D02*
X17231800Y-8342180D01*
X17181800Y-8905590D02*
X17181800Y-9005590D01*
X17131800Y-8955590D02*
X17231800Y-8955590D01*
X17181800Y-9159590D02*
X17181800Y-9259590D01*
X17131800Y-9209590D02*
X17231800Y-9209590D01*
X17181800Y-9773000D02*
X17181800Y-9873000D01*
X17131800Y-9823000D02*
X17231800Y-9823000D01*
X17181800Y-10027000D02*
X17181800Y-10127000D01*
X17131800Y-10077000D02*
X17231800Y-10077000D01*
X17181800Y-10640410D02*
X17181800Y-10740410D01*
X17131800Y-10690410D02*
X17231800Y-10690410D01*
X17181800Y-10894410D02*
X17181800Y-10994410D01*
X17131800Y-10944410D02*
X17231800Y-10944410D01*
X17181800Y-11507820D02*
X17181800Y-11607820D01*
X17131800Y-11557820D02*
X17231800Y-11557820D01*
X17181800Y-11761820D02*
X17181800Y-11861820D01*
X17131800Y-11811820D02*
X17231800Y-11811820D01*
D13*
X18009627Y-9124517D02*
X18009627Y-9039663D01*
X17924773Y-9039663D01*
X17924773Y-9124517D01*
X18009627Y-9124517D01*
X18009627Y-9991927D02*
X18009627Y-9907073D01*
X17924773Y-9907073D01*
X17924773Y-9991927D01*
X18009627Y-9991927D01*
X18009627Y-10859337D02*
X18009627Y-10774483D01*
X17924773Y-10774483D01*
X17924773Y-10859337D01*
X18009627Y-10859337D01*
X18009627Y-11726747D02*
X18009627Y-11641893D01*
X17924773Y-11641893D01*
X17924773Y-11726747D01*
X18009627Y-11726747D01*
X18012927Y-8259327D02*
X18012927Y-8174473D01*
X17928073Y-8174473D01*
X17928073Y-8259327D01*
X18012927Y-8259327D01*
D14*
X17713200Y-8913090D02*
X17798200Y-8828090D01*
X17713200Y-8743090D01*
X17628200Y-8828090D01*
X17713200Y-8913090D01*
X17713200Y-9421090D02*
X17798200Y-9336090D01*
X17713200Y-9251090D01*
X17628200Y-9336090D01*
X17713200Y-9421090D01*
X17713200Y-9780500D02*
X17798200Y-9695500D01*
X17713200Y-9610500D01*
X17628200Y-9695500D01*
X17713200Y-9780500D01*
X17713200Y-10288500D02*
X17798200Y-10203500D01*
X17713200Y-10118500D01*
X17628200Y-10203500D01*
X17713200Y-10288500D01*
X17713200Y-10647910D02*
X17798200Y-10562910D01*
X17713200Y-10477910D01*
X17628200Y-10562910D01*
X17713200Y-10647910D01*
X17713200Y-11155910D02*
X17798200Y-11070910D01*
X17713200Y-10985910D01*
X17628200Y-11070910D01*
X17713200Y-11155910D01*
X17713200Y-11515320D02*
X17798200Y-11430320D01*
X17713200Y-11345320D01*
X17628200Y-11430320D01*
X17713200Y-11515320D01*
X17713200Y-12023320D02*
X17798200Y-11938320D01*
X17713200Y-11853320D01*
X17628200Y-11938320D01*
X17713200Y-12023320D01*
X17716500Y-8047900D02*
X17801500Y-7962900D01*
X17716500Y-7877900D01*
X17631500Y-7962900D01*
X17716500Y-8047900D01*
X17716500Y-8555900D02*
X17801500Y-8470900D01*
X17716500Y-8385900D01*
X17631500Y-8470900D01*
X17716500Y-8555900D01*
X18221200Y-8913090D02*
X18306200Y-8828090D01*
X18221200Y-8743090D01*
X18136200Y-8828090D01*
X18221200Y-8913090D01*
X18221200Y-9421090D02*
X18306200Y-9336090D01*
X18221200Y-9251090D01*
X18136200Y-9336090D01*
X18221200Y-9421090D01*
X18221200Y-9780500D02*
X18306200Y-9695500D01*
X18221200Y-9610500D01*
X18136200Y-9695500D01*
X18221200Y-9780500D01*
X18221200Y-10288500D02*
X18306200Y-10203500D01*
X18221200Y-10118500D01*
X18136200Y-10203500D01*
X18221200Y-10288500D01*
X18221200Y-10647910D02*
X18306200Y-10562910D01*
X18221200Y-10477910D01*
X18136200Y-10562910D01*
X18221200Y-10647910D01*
X18221200Y-11155910D02*
X18306200Y-11070910D01*
X18221200Y-10985910D01*
X18136200Y-11070910D01*
X18221200Y-11155910D01*
X18221200Y-11515320D02*
X18306200Y-11430320D01*
X18221200Y-11345320D01*
X18136200Y-11430320D01*
X18221200Y-11515320D01*
X18221200Y-12023320D02*
X18306200Y-11938320D01*
X18221200Y-11853320D01*
X18136200Y-11938320D01*
X18221200Y-12023320D01*
X18224500Y-8047900D02*
X18309500Y-7962900D01*
X18224500Y-7877900D01*
X18139500Y-7962900D01*
X18224500Y-8047900D01*
X18224500Y-8555900D02*
X18309500Y-8470900D01*
X18224500Y-8385900D01*
X18139500Y-8470900D01*
X18224500Y-8555900D01*
D11*
X11696477Y-12513484D02*
X11696477Y-12313484D01*
X11696477Y-12313484D02*
X11744096Y-12313484D01*
X11744096Y-12313484D02*
X11772667Y-12323008D01*
X11772667Y-12323008D02*
X11791715Y-12342055D01*
X11791715Y-12342055D02*
X11801239Y-12361103D01*
X11801239Y-12361103D02*
X11810762Y-12399198D01*
X11810762Y-12399198D02*
X11810762Y-12427769D01*
X11810762Y-12427769D02*
X11801239Y-12465865D01*
X11801239Y-12465865D02*
X11791715Y-12484912D01*
X11791715Y-12484912D02*
X11772667Y-12503960D01*
X11772667Y-12503960D02*
X11744096Y-12513484D01*
X11744096Y-12513484D02*
X11696477Y-12513484D01*
X11896477Y-12513484D02*
X11896477Y-12380150D01*
X11896477Y-12418246D02*
X11906001Y-12399198D01*
X11906001Y-12399198D02*
X11915524Y-12389674D01*
X11915524Y-12389674D02*
X11934572Y-12380150D01*
X11934572Y-12380150D02*
X11953620Y-12380150D01*
X12020286Y-12513484D02*
X12020286Y-12380150D01*
X12020286Y-12313484D02*
X12010762Y-12323008D01*
X12010762Y-12323008D02*
X12020286Y-12332531D01*
X12020286Y-12332531D02*
X12029810Y-12323008D01*
X12029810Y-12323008D02*
X12020286Y-12313484D01*
X12020286Y-12313484D02*
X12020286Y-12332531D01*
X12144096Y-12513484D02*
X12125048Y-12503960D01*
X12125048Y-12503960D02*
X12115524Y-12484912D01*
X12115524Y-12484912D02*
X12115524Y-12313484D01*
X12248858Y-12513484D02*
X12229810Y-12503960D01*
X12229810Y-12503960D02*
X12220286Y-12484912D01*
X12220286Y-12484912D02*
X12220286Y-12313484D01*
X12477429Y-12513484D02*
X12477429Y-12313484D01*
X12477429Y-12313484D02*
X12544096Y-12456341D01*
X12544096Y-12456341D02*
X12610762Y-12313484D01*
X12610762Y-12313484D02*
X12610762Y-12513484D01*
X12791715Y-12513484D02*
X12791715Y-12408722D01*
X12791715Y-12408722D02*
X12782191Y-12389674D01*
X12782191Y-12389674D02*
X12763143Y-12380150D01*
X12763143Y-12380150D02*
X12725048Y-12380150D01*
X12725048Y-12380150D02*
X12706001Y-12389674D01*
X12791715Y-12503960D02*
X12772667Y-12513484D01*
X12772667Y-12513484D02*
X12725048Y-12513484D01*
X12725048Y-12513484D02*
X12706001Y-12503960D01*
X12706001Y-12503960D02*
X12696477Y-12484912D01*
X12696477Y-12484912D02*
X12696477Y-12465865D01*
X12696477Y-12465865D02*
X12706001Y-12446817D01*
X12706001Y-12446817D02*
X12725048Y-12437293D01*
X12725048Y-12437293D02*
X12772667Y-12437293D01*
X12772667Y-12437293D02*
X12791715Y-12427769D01*
X12886953Y-12380150D02*
X12886953Y-12580150D01*
X12886953Y-12389674D02*
X12906001Y-12380150D01*
X12906001Y-12380150D02*
X12944096Y-12380150D01*
X12944096Y-12380150D02*
X12963143Y-12389674D01*
X12963143Y-12389674D02*
X12972667Y-12399198D01*
X12972667Y-12399198D02*
X12982191Y-12418246D01*
X12982191Y-12418246D02*
X12982191Y-12475388D01*
X12982191Y-12475388D02*
X12972667Y-12494436D01*
X12972667Y-12494436D02*
X12963143Y-12503960D01*
X12963143Y-12503960D02*
X12944096Y-12513484D01*
X12944096Y-12513484D02*
X12906001Y-12513484D01*
X12906001Y-12513484D02*
X12886953Y-12503960D01*
X13067905Y-12494436D02*
X13077429Y-12503960D01*
X13077429Y-12503960D02*
X13067905Y-12513484D01*
X13067905Y-12513484D02*
X13058382Y-12503960D01*
X13058382Y-12503960D02*
X13067905Y-12494436D01*
X13067905Y-12494436D02*
X13067905Y-12513484D01*
X13067905Y-12389674D02*
X13077429Y-12399198D01*
X13077429Y-12399198D02*
X13067905Y-12408722D01*
X13067905Y-12408722D02*
X13058382Y-12399198D01*
X13058382Y-12399198D02*
X13067905Y-12389674D01*
X13067905Y-12389674D02*
X13067905Y-12408722D01*
D12*
X11405700Y-12827000D02*
X11435700Y-12857000D01*
X11435700Y-12827000D02*
X11405700Y-12857000D01*
D11*
X11734572Y-12733484D02*
X11753620Y-12733484D01*
X11753620Y-12733484D02*
X11772667Y-12743008D01*
X11772667Y-12743008D02*
X11782191Y-12752531D01*
X11782191Y-12752531D02*
X11791715Y-12771579D01*
X11791715Y-12771579D02*
X11801239Y-12809674D01*
X11801239Y-12809674D02*
X11801239Y-12857293D01*
X11801239Y-12857293D02*
X11791715Y-12895388D01*
X11791715Y-12895388D02*
X11782191Y-12914436D01*
X11782191Y-12914436D02*
X11772667Y-12923960D01*
X11772667Y-12923960D02*
X11753620Y-12933484D01*
X11753620Y-12933484D02*
X11734572Y-12933484D01*
X11734572Y-12933484D02*
X11715524Y-12923960D01*
X11715524Y-12923960D02*
X11706001Y-12914436D01*
X11706001Y-12914436D02*
X11696477Y-12895388D01*
X11696477Y-12895388D02*
X11686953Y-12857293D01*
X11686953Y-12857293D02*
X11686953Y-12809674D01*
X11686953Y-12809674D02*
X11696477Y-12771579D01*
X11696477Y-12771579D02*
X11706001Y-12752531D01*
X11706001Y-12752531D02*
X11715524Y-12743008D01*
X11715524Y-12743008D02*
X11734572Y-12733484D01*
X11886953Y-12914436D02*
X11896477Y-12923960D01*
X11896477Y-12923960D02*
X11886953Y-12933484D01*
X11886953Y-12933484D02*
X11877429Y-12923960D01*
X11877429Y-12923960D02*
X11886953Y-12914436D01*
X11886953Y-12914436D02*
X11886953Y-12933484D01*
X11963143Y-12733484D02*
X12086953Y-12733484D01*
X12086953Y-12733484D02*
X12020286Y-12809674D01*
X12020286Y-12809674D02*
X12048858Y-12809674D01*
X12048858Y-12809674D02*
X12067905Y-12819198D01*
X12067905Y-12819198D02*
X12077429Y-12828722D01*
X12077429Y-12828722D02*
X12086953Y-12847769D01*
X12086953Y-12847769D02*
X12086953Y-12895388D01*
X12086953Y-12895388D02*
X12077429Y-12914436D01*
X12077429Y-12914436D02*
X12067905Y-12923960D01*
X12067905Y-12923960D02*
X12048858Y-12933484D01*
X12048858Y-12933484D02*
X11991715Y-12933484D01*
X11991715Y-12933484D02*
X11972667Y-12923960D01*
X11972667Y-12923960D02*
X11963143Y-12914436D01*
X12210762Y-12733484D02*
X12229810Y-12733484D01*
X12229810Y-12733484D02*
X12248858Y-12743008D01*
X12248858Y-12743008D02*
X12258382Y-12752531D01*
X12258382Y-12752531D02*
X12267905Y-12771579D01*
X12267905Y-12771579D02*
X12277429Y-12809674D01*
X12277429Y-12809674D02*
X12277429Y-12857293D01*
X12277429Y-12857293D02*
X12267905Y-12895388D01*
X12267905Y-12895388D02*
X12258382Y-12914436D01*
X12258382Y-12914436D02*
X12248858Y-12923960D01*
X12248858Y-12923960D02*
X12229810Y-12933484D01*
X12229810Y-12933484D02*
X12210762Y-12933484D01*
X12210762Y-12933484D02*
X12191715Y-12923960D01*
X12191715Y-12923960D02*
X12182191Y-12914436D01*
X12182191Y-12914436D02*
X12172667Y-12895388D01*
X12172667Y-12895388D02*
X12163143Y-12857293D01*
X12163143Y-12857293D02*
X12163143Y-12809674D01*
X12163143Y-12809674D02*
X12172667Y-12771579D01*
X12172667Y-12771579D02*
X12182191Y-12752531D01*
X12182191Y-12752531D02*
X12191715Y-12743008D01*
X12191715Y-12743008D02*
X12210762Y-12733484D01*
X12401239Y-12733484D02*
X12420286Y-12733484D01*
X12420286Y-12733484D02*
X12439334Y-12743008D01*
X12439334Y-12743008D02*
X12448858Y-12752531D01*
X12448858Y-12752531D02*
X12458382Y-12771579D01*
X12458382Y-12771579D02*
X12467905Y-12809674D01*
X12467905Y-12809674D02*
X12467905Y-12857293D01*
X12467905Y-12857293D02*
X12458382Y-12895388D01*
X12458382Y-12895388D02*
X12448858Y-12914436D01*
X12448858Y-12914436D02*
X12439334Y-12923960D01*
X12439334Y-12923960D02*
X12420286Y-12933484D01*
X12420286Y-12933484D02*
X12401239Y-12933484D01*
X12401239Y-12933484D02*
X12382191Y-12923960D01*
X12382191Y-12923960D02*
X12372667Y-12914436D01*
X12372667Y-12914436D02*
X12363143Y-12895388D01*
X12363143Y-12895388D02*
X12353620Y-12857293D01*
X12353620Y-12857293D02*
X12353620Y-12809674D01*
X12353620Y-12809674D02*
X12363143Y-12771579D01*
X12363143Y-12771579D02*
X12372667Y-12752531D01*
X12372667Y-12752531D02*
X12382191Y-12743008D01*
X12382191Y-12743008D02*
X12401239Y-12733484D01*
X12553620Y-12933484D02*
X12553620Y-12800150D01*
X12553620Y-12819198D02*
X12563143Y-12809674D01*
X12563143Y-12809674D02*
X12582191Y-12800150D01*
X12582191Y-12800150D02*
X12610763Y-12800150D01*
X12610763Y-12800150D02*
X12629810Y-12809674D01*
X12629810Y-12809674D02*
X12639334Y-12828722D01*
X12639334Y-12828722D02*
X12639334Y-12933484D01*
X12639334Y-12828722D02*
X12648858Y-12809674D01*
X12648858Y-12809674D02*
X12667905Y-12800150D01*
X12667905Y-12800150D02*
X12696477Y-12800150D01*
X12696477Y-12800150D02*
X12715524Y-12809674D01*
X12715524Y-12809674D02*
X12725048Y-12828722D01*
X12725048Y-12828722D02*
X12725048Y-12933484D01*
X12820286Y-12933484D02*
X12820286Y-12800150D01*
X12820286Y-12819198D02*
X12829810Y-12809674D01*
X12829810Y-12809674D02*
X12848858Y-12800150D01*
X12848858Y-12800150D02*
X12877429Y-12800150D01*
X12877429Y-12800150D02*
X12896477Y-12809674D01*
X12896477Y-12809674D02*
X12906001Y-12828722D01*
X12906001Y-12828722D02*
X12906001Y-12933484D01*
X12906001Y-12828722D02*
X12915524Y-12809674D01*
X12915524Y-12809674D02*
X12934572Y-12800150D01*
X12934572Y-12800150D02*
X12963143Y-12800150D01*
X12963143Y-12800150D02*
X12982191Y-12809674D01*
X12982191Y-12809674D02*
X12991715Y-12828722D01*
X12991715Y-12828722D02*
X12991715Y-12933484D01*
X13382191Y-12723960D02*
X13210763Y-12981103D01*
X13639334Y-12733484D02*
X13658382Y-12733484D01*
X13658382Y-12733484D02*
X13677429Y-12743008D01*
X13677429Y-12743008D02*
X13686953Y-12752531D01*
X13686953Y-12752531D02*
X13696477Y-12771579D01*
X13696477Y-12771579D02*
X13706001Y-12809674D01*
X13706001Y-12809674D02*
X13706001Y-12857293D01*
X13706001Y-12857293D02*
X13696477Y-12895388D01*
X13696477Y-12895388D02*
X13686953Y-12914436D01*
X13686953Y-12914436D02*
X13677429Y-12923960D01*
X13677429Y-12923960D02*
X13658382Y-12933484D01*
X13658382Y-12933484D02*
X13639334Y-12933484D01*
X13639334Y-12933484D02*
X13620286Y-12923960D01*
X13620286Y-12923960D02*
X13610763Y-12914436D01*
X13610763Y-12914436D02*
X13601239Y-12895388D01*
X13601239Y-12895388D02*
X13591715Y-12857293D01*
X13591715Y-12857293D02*
X13591715Y-12809674D01*
X13591715Y-12809674D02*
X13601239Y-12771579D01*
X13601239Y-12771579D02*
X13610763Y-12752531D01*
X13610763Y-12752531D02*
X13620286Y-12743008D01*
X13620286Y-12743008D02*
X13639334Y-12733484D01*
X13791715Y-12914436D02*
X13801239Y-12923960D01*
X13801239Y-12923960D02*
X13791715Y-12933484D01*
X13791715Y-12933484D02*
X13782191Y-12923960D01*
X13782191Y-12923960D02*
X13791715Y-12914436D01*
X13791715Y-12914436D02*
X13791715Y-12933484D01*
X13925048Y-12733484D02*
X13944096Y-12733484D01*
X13944096Y-12733484D02*
X13963144Y-12743008D01*
X13963144Y-12743008D02*
X13972667Y-12752531D01*
X13972667Y-12752531D02*
X13982191Y-12771579D01*
X13982191Y-12771579D02*
X13991715Y-12809674D01*
X13991715Y-12809674D02*
X13991715Y-12857293D01*
X13991715Y-12857293D02*
X13982191Y-12895388D01*
X13982191Y-12895388D02*
X13972667Y-12914436D01*
X13972667Y-12914436D02*
X13963144Y-12923960D01*
X13963144Y-12923960D02*
X13944096Y-12933484D01*
X13944096Y-12933484D02*
X13925048Y-12933484D01*
X13925048Y-12933484D02*
X13906001Y-12923960D01*
X13906001Y-12923960D02*
X13896477Y-12914436D01*
X13896477Y-12914436D02*
X13886953Y-12895388D01*
X13886953Y-12895388D02*
X13877429Y-12857293D01*
X13877429Y-12857293D02*
X13877429Y-12809674D01*
X13877429Y-12809674D02*
X13886953Y-12771579D01*
X13886953Y-12771579D02*
X13896477Y-12752531D01*
X13896477Y-12752531D02*
X13906001Y-12743008D01*
X13906001Y-12743008D02*
X13925048Y-12733484D01*
X14182191Y-12933484D02*
X14067906Y-12933484D01*
X14125048Y-12933484D02*
X14125048Y-12733484D01*
X14125048Y-12733484D02*
X14106001Y-12762055D01*
X14106001Y-12762055D02*
X14086953Y-12781103D01*
X14086953Y-12781103D02*
X14067906Y-12790627D01*
X14372667Y-12933484D02*
X14258382Y-12933484D01*
X14315525Y-12933484D02*
X14315525Y-12733484D01*
X14315525Y-12733484D02*
X14296477Y-12762055D01*
X14296477Y-12762055D02*
X14277429Y-12781103D01*
X14277429Y-12781103D02*
X14258382Y-12790627D01*
X14486953Y-12819198D02*
X14467906Y-12809674D01*
X14467906Y-12809674D02*
X14458382Y-12800150D01*
X14458382Y-12800150D02*
X14448858Y-12781103D01*
X14448858Y-12781103D02*
X14448858Y-12771579D01*
X14448858Y-12771579D02*
X14458382Y-12752531D01*
X14458382Y-12752531D02*
X14467906Y-12743008D01*
X14467906Y-12743008D02*
X14486953Y-12733484D01*
X14486953Y-12733484D02*
X14525048Y-12733484D01*
X14525048Y-12733484D02*
X14544096Y-12743008D01*
X14544096Y-12743008D02*
X14553620Y-12752531D01*
X14553620Y-12752531D02*
X14563144Y-12771579D01*
X14563144Y-12771579D02*
X14563144Y-12781103D01*
X14563144Y-12781103D02*
X14553620Y-12800150D01*
X14553620Y-12800150D02*
X14544096Y-12809674D01*
X14544096Y-12809674D02*
X14525048Y-12819198D01*
X14525048Y-12819198D02*
X14486953Y-12819198D01*
X14486953Y-12819198D02*
X14467906Y-12828722D01*
X14467906Y-12828722D02*
X14458382Y-12838246D01*
X14458382Y-12838246D02*
X14448858Y-12857293D01*
X14448858Y-12857293D02*
X14448858Y-12895388D01*
X14448858Y-12895388D02*
X14458382Y-12914436D01*
X14458382Y-12914436D02*
X14467906Y-12923960D01*
X14467906Y-12923960D02*
X14486953Y-12933484D01*
X14486953Y-12933484D02*
X14525048Y-12933484D01*
X14525048Y-12933484D02*
X14544096Y-12923960D01*
X14544096Y-12923960D02*
X14553620Y-12914436D01*
X14553620Y-12914436D02*
X14563144Y-12895388D01*
X14563144Y-12895388D02*
X14563144Y-12857293D01*
X14563144Y-12857293D02*
X14553620Y-12838246D01*
X14553620Y-12838246D02*
X14544096Y-12828722D01*
X14544096Y-12828722D02*
X14525048Y-12819198D01*
X14639334Y-12733484D02*
X14639334Y-12771579D01*
X14715525Y-12733484D02*
X14715525Y-12771579D01*
X15010763Y-13009674D02*
X15001239Y-13000150D01*
X15001239Y-13000150D02*
X14982191Y-12971579D01*
X14982191Y-12971579D02*
X14972668Y-12952531D01*
X14972668Y-12952531D02*
X14963144Y-12923960D01*
X14963144Y-12923960D02*
X14953620Y-12876341D01*
X14953620Y-12876341D02*
X14953620Y-12838246D01*
X14953620Y-12838246D02*
X14963144Y-12790627D01*
X14963144Y-12790627D02*
X14972668Y-12762055D01*
X14972668Y-12762055D02*
X14982191Y-12743008D01*
X14982191Y-12743008D02*
X15001239Y-12714436D01*
X15001239Y-12714436D02*
X15010763Y-12704912D01*
X15191715Y-12933484D02*
X15077429Y-12933484D01*
X15134572Y-12933484D02*
X15134572Y-12733484D01*
X15134572Y-12733484D02*
X15115525Y-12762055D01*
X15115525Y-12762055D02*
X15096477Y-12781103D01*
X15096477Y-12781103D02*
X15077429Y-12790627D01*
X15315525Y-12733484D02*
X15334572Y-12733484D01*
X15334572Y-12733484D02*
X15353620Y-12743008D01*
X15353620Y-12743008D02*
X15363144Y-12752531D01*
X15363144Y-12752531D02*
X15372668Y-12771579D01*
X15372668Y-12771579D02*
X15382191Y-12809674D01*
X15382191Y-12809674D02*
X15382191Y-12857293D01*
X15382191Y-12857293D02*
X15372668Y-12895388D01*
X15372668Y-12895388D02*
X15363144Y-12914436D01*
X15363144Y-12914436D02*
X15353620Y-12923960D01*
X15353620Y-12923960D02*
X15334572Y-12933484D01*
X15334572Y-12933484D02*
X15315525Y-12933484D01*
X15315525Y-12933484D02*
X15296477Y-12923960D01*
X15296477Y-12923960D02*
X15286953Y-12914436D01*
X15286953Y-12914436D02*
X15277429Y-12895388D01*
X15277429Y-12895388D02*
X15267906Y-12857293D01*
X15267906Y-12857293D02*
X15267906Y-12809674D01*
X15267906Y-12809674D02*
X15277429Y-12771579D01*
X15277429Y-12771579D02*
X15286953Y-12752531D01*
X15286953Y-12752531D02*
X15296477Y-12743008D01*
X15296477Y-12743008D02*
X15315525Y-12733484D01*
X15448858Y-12733484D02*
X15582191Y-12733484D01*
X15582191Y-12733484D02*
X15496477Y-12933484D01*
X15810763Y-12933484D02*
X15810763Y-12733484D01*
X15896477Y-12933484D02*
X15896477Y-12828722D01*
X15896477Y-12828722D02*
X15886953Y-12809674D01*
X15886953Y-12809674D02*
X15867906Y-12800150D01*
X15867906Y-12800150D02*
X15839334Y-12800150D01*
X15839334Y-12800150D02*
X15820287Y-12809674D01*
X15820287Y-12809674D02*
X15810763Y-12819198D01*
X16020287Y-12933484D02*
X16001239Y-12923960D01*
X16001239Y-12923960D02*
X15991715Y-12914436D01*
X15991715Y-12914436D02*
X15982191Y-12895388D01*
X15982191Y-12895388D02*
X15982191Y-12838246D01*
X15982191Y-12838246D02*
X15991715Y-12819198D01*
X15991715Y-12819198D02*
X16001239Y-12809674D01*
X16001239Y-12809674D02*
X16020287Y-12800150D01*
X16020287Y-12800150D02*
X16048858Y-12800150D01*
X16048858Y-12800150D02*
X16067906Y-12809674D01*
X16067906Y-12809674D02*
X16077430Y-12819198D01*
X16077430Y-12819198D02*
X16086953Y-12838246D01*
X16086953Y-12838246D02*
X16086953Y-12895388D01*
X16086953Y-12895388D02*
X16077430Y-12914436D01*
X16077430Y-12914436D02*
X16067906Y-12923960D01*
X16067906Y-12923960D02*
X16048858Y-12933484D01*
X16048858Y-12933484D02*
X16020287Y-12933484D01*
X16201239Y-12933484D02*
X16182191Y-12923960D01*
X16182191Y-12923960D02*
X16172668Y-12904912D01*
X16172668Y-12904912D02*
X16172668Y-12733484D01*
X16353620Y-12923960D02*
X16334572Y-12933484D01*
X16334572Y-12933484D02*
X16296477Y-12933484D01*
X16296477Y-12933484D02*
X16277430Y-12923960D01*
X16277430Y-12923960D02*
X16267906Y-12904912D01*
X16267906Y-12904912D02*
X16267906Y-12828722D01*
X16267906Y-12828722D02*
X16277430Y-12809674D01*
X16277430Y-12809674D02*
X16296477Y-12800150D01*
X16296477Y-12800150D02*
X16334572Y-12800150D01*
X16334572Y-12800150D02*
X16353620Y-12809674D01*
X16353620Y-12809674D02*
X16363144Y-12828722D01*
X16363144Y-12828722D02*
X16363144Y-12847769D01*
X16363144Y-12847769D02*
X16267906Y-12866817D01*
X16439334Y-12923960D02*
X16458382Y-12933484D01*
X16458382Y-12933484D02*
X16496477Y-12933484D01*
X16496477Y-12933484D02*
X16515525Y-12923960D01*
X16515525Y-12923960D02*
X16525049Y-12904912D01*
X16525049Y-12904912D02*
X16525049Y-12895388D01*
X16525049Y-12895388D02*
X16515525Y-12876341D01*
X16515525Y-12876341D02*
X16496477Y-12866817D01*
X16496477Y-12866817D02*
X16467906Y-12866817D01*
X16467906Y-12866817D02*
X16448858Y-12857293D01*
X16448858Y-12857293D02*
X16439334Y-12838246D01*
X16439334Y-12838246D02*
X16439334Y-12828722D01*
X16439334Y-12828722D02*
X16448858Y-12809674D01*
X16448858Y-12809674D02*
X16467906Y-12800150D01*
X16467906Y-12800150D02*
X16496477Y-12800150D01*
X16496477Y-12800150D02*
X16515525Y-12809674D01*
X16591715Y-13009674D02*
X16601239Y-13000150D01*
X16601239Y-13000150D02*
X16620287Y-12971579D01*
X16620287Y-12971579D02*
X16629811Y-12952531D01*
X16629811Y-12952531D02*
X16639334Y-12923960D01*
X16639334Y-12923960D02*
X16648858Y-12876341D01*
X16648858Y-12876341D02*
X16648858Y-12838246D01*
X16648858Y-12838246D02*
X16639334Y-12790627D01*
X16639334Y-12790627D02*
X16629811Y-12762055D01*
X16629811Y-12762055D02*
X16620287Y-12743008D01*
X16620287Y-12743008D02*
X16601239Y-12714436D01*
X16601239Y-12714436D02*
X16591715Y-12704912D01*
D12*
X11435700Y-13106000D02*
G75*
G02*
X11355700Y-13106000I-40000J0D01*
G01*
X11355700Y-13106000D02*
G75*
G02*
X11435700Y-13106000I40000J0D01*
G01*
D11*
X11734572Y-12997484D02*
X11753620Y-12997484D01*
X11753620Y-12997484D02*
X11772667Y-13007008D01*
X11772667Y-13007008D02*
X11782191Y-13016531D01*
X11782191Y-13016531D02*
X11791715Y-13035579D01*
X11791715Y-13035579D02*
X11801239Y-13073674D01*
X11801239Y-13073674D02*
X11801239Y-13121293D01*
X11801239Y-13121293D02*
X11791715Y-13159388D01*
X11791715Y-13159388D02*
X11782191Y-13178436D01*
X11782191Y-13178436D02*
X11772667Y-13187960D01*
X11772667Y-13187960D02*
X11753620Y-13197484D01*
X11753620Y-13197484D02*
X11734572Y-13197484D01*
X11734572Y-13197484D02*
X11715524Y-13187960D01*
X11715524Y-13187960D02*
X11706001Y-13178436D01*
X11706001Y-13178436D02*
X11696477Y-13159388D01*
X11696477Y-13159388D02*
X11686953Y-13121293D01*
X11686953Y-13121293D02*
X11686953Y-13073674D01*
X11686953Y-13073674D02*
X11696477Y-13035579D01*
X11696477Y-13035579D02*
X11706001Y-13016531D01*
X11706001Y-13016531D02*
X11715524Y-13007008D01*
X11715524Y-13007008D02*
X11734572Y-12997484D01*
X11886953Y-13178436D02*
X11896477Y-13187960D01*
X11896477Y-13187960D02*
X11886953Y-13197484D01*
X11886953Y-13197484D02*
X11877429Y-13187960D01*
X11877429Y-13187960D02*
X11886953Y-13178436D01*
X11886953Y-13178436D02*
X11886953Y-13197484D01*
X12010762Y-13083198D02*
X11991715Y-13073674D01*
X11991715Y-13073674D02*
X11982191Y-13064150D01*
X11982191Y-13064150D02*
X11972667Y-13045103D01*
X11972667Y-13045103D02*
X11972667Y-13035579D01*
X11972667Y-13035579D02*
X11982191Y-13016531D01*
X11982191Y-13016531D02*
X11991715Y-13007008D01*
X11991715Y-13007008D02*
X12010762Y-12997484D01*
X12010762Y-12997484D02*
X12048858Y-12997484D01*
X12048858Y-12997484D02*
X12067905Y-13007008D01*
X12067905Y-13007008D02*
X12077429Y-13016531D01*
X12077429Y-13016531D02*
X12086953Y-13035579D01*
X12086953Y-13035579D02*
X12086953Y-13045103D01*
X12086953Y-13045103D02*
X12077429Y-13064150D01*
X12077429Y-13064150D02*
X12067905Y-13073674D01*
X12067905Y-13073674D02*
X12048858Y-13083198D01*
X12048858Y-13083198D02*
X12010762Y-13083198D01*
X12010762Y-13083198D02*
X11991715Y-13092722D01*
X11991715Y-13092722D02*
X11982191Y-13102246D01*
X11982191Y-13102246D02*
X11972667Y-13121293D01*
X11972667Y-13121293D02*
X11972667Y-13159388D01*
X11972667Y-13159388D02*
X11982191Y-13178436D01*
X11982191Y-13178436D02*
X11991715Y-13187960D01*
X11991715Y-13187960D02*
X12010762Y-13197484D01*
X12010762Y-13197484D02*
X12048858Y-13197484D01*
X12048858Y-13197484D02*
X12067905Y-13187960D01*
X12067905Y-13187960D02*
X12077429Y-13178436D01*
X12077429Y-13178436D02*
X12086953Y-13159388D01*
X12086953Y-13159388D02*
X12086953Y-13121293D01*
X12086953Y-13121293D02*
X12077429Y-13102246D01*
X12077429Y-13102246D02*
X12067905Y-13092722D01*
X12067905Y-13092722D02*
X12048858Y-13083198D01*
X12210762Y-12997484D02*
X12229810Y-12997484D01*
X12229810Y-12997484D02*
X12248858Y-13007008D01*
X12248858Y-13007008D02*
X12258382Y-13016531D01*
X12258382Y-13016531D02*
X12267905Y-13035579D01*
X12267905Y-13035579D02*
X12277429Y-13073674D01*
X12277429Y-13073674D02*
X12277429Y-13121293D01*
X12277429Y-13121293D02*
X12267905Y-13159388D01*
X12267905Y-13159388D02*
X12258382Y-13178436D01*
X12258382Y-13178436D02*
X12248858Y-13187960D01*
X12248858Y-13187960D02*
X12229810Y-13197484D01*
X12229810Y-13197484D02*
X12210762Y-13197484D01*
X12210762Y-13197484D02*
X12191715Y-13187960D01*
X12191715Y-13187960D02*
X12182191Y-13178436D01*
X12182191Y-13178436D02*
X12172667Y-13159388D01*
X12172667Y-13159388D02*
X12163143Y-13121293D01*
X12163143Y-13121293D02*
X12163143Y-13073674D01*
X12163143Y-13073674D02*
X12172667Y-13035579D01*
X12172667Y-13035579D02*
X12182191Y-13016531D01*
X12182191Y-13016531D02*
X12191715Y-13007008D01*
X12191715Y-13007008D02*
X12210762Y-12997484D01*
X12401239Y-12997484D02*
X12420286Y-12997484D01*
X12420286Y-12997484D02*
X12439334Y-13007008D01*
X12439334Y-13007008D02*
X12448858Y-13016531D01*
X12448858Y-13016531D02*
X12458382Y-13035579D01*
X12458382Y-13035579D02*
X12467905Y-13073674D01*
X12467905Y-13073674D02*
X12467905Y-13121293D01*
X12467905Y-13121293D02*
X12458382Y-13159388D01*
X12458382Y-13159388D02*
X12448858Y-13178436D01*
X12448858Y-13178436D02*
X12439334Y-13187960D01*
X12439334Y-13187960D02*
X12420286Y-13197484D01*
X12420286Y-13197484D02*
X12401239Y-13197484D01*
X12401239Y-13197484D02*
X12382191Y-13187960D01*
X12382191Y-13187960D02*
X12372667Y-13178436D01*
X12372667Y-13178436D02*
X12363143Y-13159388D01*
X12363143Y-13159388D02*
X12353620Y-13121293D01*
X12353620Y-13121293D02*
X12353620Y-13073674D01*
X12353620Y-13073674D02*
X12363143Y-13035579D01*
X12363143Y-13035579D02*
X12372667Y-13016531D01*
X12372667Y-13016531D02*
X12382191Y-13007008D01*
X12382191Y-13007008D02*
X12401239Y-12997484D01*
X12553620Y-13197484D02*
X12553620Y-13064150D01*
X12553620Y-13083198D02*
X12563143Y-13073674D01*
X12563143Y-13073674D02*
X12582191Y-13064150D01*
X12582191Y-13064150D02*
X12610763Y-13064150D01*
X12610763Y-13064150D02*
X12629810Y-13073674D01*
X12629810Y-13073674D02*
X12639334Y-13092722D01*
X12639334Y-13092722D02*
X12639334Y-13197484D01*
X12639334Y-13092722D02*
X12648858Y-13073674D01*
X12648858Y-13073674D02*
X12667905Y-13064150D01*
X12667905Y-13064150D02*
X12696477Y-13064150D01*
X12696477Y-13064150D02*
X12715524Y-13073674D01*
X12715524Y-13073674D02*
X12725048Y-13092722D01*
X12725048Y-13092722D02*
X12725048Y-13197484D01*
X12820286Y-13197484D02*
X12820286Y-13064150D01*
X12820286Y-13083198D02*
X12829810Y-13073674D01*
X12829810Y-13073674D02*
X12848858Y-13064150D01*
X12848858Y-13064150D02*
X12877429Y-13064150D01*
X12877429Y-13064150D02*
X12896477Y-13073674D01*
X12896477Y-13073674D02*
X12906001Y-13092722D01*
X12906001Y-13092722D02*
X12906001Y-13197484D01*
X12906001Y-13092722D02*
X12915524Y-13073674D01*
X12915524Y-13073674D02*
X12934572Y-13064150D01*
X12934572Y-13064150D02*
X12963143Y-13064150D01*
X12963143Y-13064150D02*
X12982191Y-13073674D01*
X12982191Y-13073674D02*
X12991715Y-13092722D01*
X12991715Y-13092722D02*
X12991715Y-13197484D01*
X13382191Y-12987960D02*
X13210763Y-13245103D01*
X13639334Y-12997484D02*
X13658382Y-12997484D01*
X13658382Y-12997484D02*
X13677429Y-13007008D01*
X13677429Y-13007008D02*
X13686953Y-13016531D01*
X13686953Y-13016531D02*
X13696477Y-13035579D01*
X13696477Y-13035579D02*
X13706001Y-13073674D01*
X13706001Y-13073674D02*
X13706001Y-13121293D01*
X13706001Y-13121293D02*
X13696477Y-13159388D01*
X13696477Y-13159388D02*
X13686953Y-13178436D01*
X13686953Y-13178436D02*
X13677429Y-13187960D01*
X13677429Y-13187960D02*
X13658382Y-13197484D01*
X13658382Y-13197484D02*
X13639334Y-13197484D01*
X13639334Y-13197484D02*
X13620286Y-13187960D01*
X13620286Y-13187960D02*
X13610763Y-13178436D01*
X13610763Y-13178436D02*
X13601239Y-13159388D01*
X13601239Y-13159388D02*
X13591715Y-13121293D01*
X13591715Y-13121293D02*
X13591715Y-13073674D01*
X13591715Y-13073674D02*
X13601239Y-13035579D01*
X13601239Y-13035579D02*
X13610763Y-13016531D01*
X13610763Y-13016531D02*
X13620286Y-13007008D01*
X13620286Y-13007008D02*
X13639334Y-12997484D01*
X13791715Y-13178436D02*
X13801239Y-13187960D01*
X13801239Y-13187960D02*
X13791715Y-13197484D01*
X13791715Y-13197484D02*
X13782191Y-13187960D01*
X13782191Y-13187960D02*
X13791715Y-13178436D01*
X13791715Y-13178436D02*
X13791715Y-13197484D01*
X13925048Y-12997484D02*
X13944096Y-12997484D01*
X13944096Y-12997484D02*
X13963144Y-13007008D01*
X13963144Y-13007008D02*
X13972667Y-13016531D01*
X13972667Y-13016531D02*
X13982191Y-13035579D01*
X13982191Y-13035579D02*
X13991715Y-13073674D01*
X13991715Y-13073674D02*
X13991715Y-13121293D01*
X13991715Y-13121293D02*
X13982191Y-13159388D01*
X13982191Y-13159388D02*
X13972667Y-13178436D01*
X13972667Y-13178436D02*
X13963144Y-13187960D01*
X13963144Y-13187960D02*
X13944096Y-13197484D01*
X13944096Y-13197484D02*
X13925048Y-13197484D01*
X13925048Y-13197484D02*
X13906001Y-13187960D01*
X13906001Y-13187960D02*
X13896477Y-13178436D01*
X13896477Y-13178436D02*
X13886953Y-13159388D01*
X13886953Y-13159388D02*
X13877429Y-13121293D01*
X13877429Y-13121293D02*
X13877429Y-13073674D01*
X13877429Y-13073674D02*
X13886953Y-13035579D01*
X13886953Y-13035579D02*
X13896477Y-13016531D01*
X13896477Y-13016531D02*
X13906001Y-13007008D01*
X13906001Y-13007008D02*
X13925048Y-12997484D01*
X14058382Y-12997484D02*
X14182191Y-12997484D01*
X14182191Y-12997484D02*
X14115525Y-13073674D01*
X14115525Y-13073674D02*
X14144096Y-13073674D01*
X14144096Y-13073674D02*
X14163144Y-13083198D01*
X14163144Y-13083198D02*
X14172667Y-13092722D01*
X14172667Y-13092722D02*
X14182191Y-13111769D01*
X14182191Y-13111769D02*
X14182191Y-13159388D01*
X14182191Y-13159388D02*
X14172667Y-13178436D01*
X14172667Y-13178436D02*
X14163144Y-13187960D01*
X14163144Y-13187960D02*
X14144096Y-13197484D01*
X14144096Y-13197484D02*
X14086953Y-13197484D01*
X14086953Y-13197484D02*
X14067906Y-13187960D01*
X14067906Y-13187960D02*
X14058382Y-13178436D01*
X14372667Y-13197484D02*
X14258382Y-13197484D01*
X14315525Y-13197484D02*
X14315525Y-12997484D01*
X14315525Y-12997484D02*
X14296477Y-13026055D01*
X14296477Y-13026055D02*
X14277429Y-13045103D01*
X14277429Y-13045103D02*
X14258382Y-13054627D01*
X14553620Y-12997484D02*
X14458382Y-12997484D01*
X14458382Y-12997484D02*
X14448858Y-13092722D01*
X14448858Y-13092722D02*
X14458382Y-13083198D01*
X14458382Y-13083198D02*
X14477429Y-13073674D01*
X14477429Y-13073674D02*
X14525048Y-13073674D01*
X14525048Y-13073674D02*
X14544096Y-13083198D01*
X14544096Y-13083198D02*
X14553620Y-13092722D01*
X14553620Y-13092722D02*
X14563144Y-13111769D01*
X14563144Y-13111769D02*
X14563144Y-13159388D01*
X14563144Y-13159388D02*
X14553620Y-13178436D01*
X14553620Y-13178436D02*
X14544096Y-13187960D01*
X14544096Y-13187960D02*
X14525048Y-13197484D01*
X14525048Y-13197484D02*
X14477429Y-13197484D01*
X14477429Y-13197484D02*
X14458382Y-13187960D01*
X14458382Y-13187960D02*
X14448858Y-13178436D01*
X14639334Y-12997484D02*
X14639334Y-13035579D01*
X14715525Y-12997484D02*
X14715525Y-13035579D01*
X15010763Y-13273674D02*
X15001239Y-13264150D01*
X15001239Y-13264150D02*
X14982191Y-13235579D01*
X14982191Y-13235579D02*
X14972668Y-13216531D01*
X14972668Y-13216531D02*
X14963144Y-13187960D01*
X14963144Y-13187960D02*
X14953620Y-13140341D01*
X14953620Y-13140341D02*
X14953620Y-13102246D01*
X14953620Y-13102246D02*
X14963144Y-13054627D01*
X14963144Y-13054627D02*
X14972668Y-13026055D01*
X14972668Y-13026055D02*
X14982191Y-13007008D01*
X14982191Y-13007008D02*
X15001239Y-12978436D01*
X15001239Y-12978436D02*
X15010763Y-12968912D01*
X15172668Y-13064150D02*
X15172668Y-13197484D01*
X15125048Y-12987960D02*
X15077429Y-13130817D01*
X15077429Y-13130817D02*
X15201239Y-13130817D01*
X15429810Y-13197484D02*
X15429810Y-12997484D01*
X15515525Y-13197484D02*
X15515525Y-13092722D01*
X15515525Y-13092722D02*
X15506001Y-13073674D01*
X15506001Y-13073674D02*
X15486953Y-13064150D01*
X15486953Y-13064150D02*
X15458382Y-13064150D01*
X15458382Y-13064150D02*
X15439334Y-13073674D01*
X15439334Y-13073674D02*
X15429810Y-13083198D01*
X15639334Y-13197484D02*
X15620287Y-13187960D01*
X15620287Y-13187960D02*
X15610763Y-13178436D01*
X15610763Y-13178436D02*
X15601239Y-13159388D01*
X15601239Y-13159388D02*
X15601239Y-13102246D01*
X15601239Y-13102246D02*
X15610763Y-13083198D01*
X15610763Y-13083198D02*
X15620287Y-13073674D01*
X15620287Y-13073674D02*
X15639334Y-13064150D01*
X15639334Y-13064150D02*
X15667906Y-13064150D01*
X15667906Y-13064150D02*
X15686953Y-13073674D01*
X15686953Y-13073674D02*
X15696477Y-13083198D01*
X15696477Y-13083198D02*
X15706001Y-13102246D01*
X15706001Y-13102246D02*
X15706001Y-13159388D01*
X15706001Y-13159388D02*
X15696477Y-13178436D01*
X15696477Y-13178436D02*
X15686953Y-13187960D01*
X15686953Y-13187960D02*
X15667906Y-13197484D01*
X15667906Y-13197484D02*
X15639334Y-13197484D01*
X15820287Y-13197484D02*
X15801239Y-13187960D01*
X15801239Y-13187960D02*
X15791715Y-13168912D01*
X15791715Y-13168912D02*
X15791715Y-12997484D01*
X15972668Y-13187960D02*
X15953620Y-13197484D01*
X15953620Y-13197484D02*
X15915525Y-13197484D01*
X15915525Y-13197484D02*
X15896477Y-13187960D01*
X15896477Y-13187960D02*
X15886953Y-13168912D01*
X15886953Y-13168912D02*
X15886953Y-13092722D01*
X15886953Y-13092722D02*
X15896477Y-13073674D01*
X15896477Y-13073674D02*
X15915525Y-13064150D01*
X15915525Y-13064150D02*
X15953620Y-13064150D01*
X15953620Y-13064150D02*
X15972668Y-13073674D01*
X15972668Y-13073674D02*
X15982191Y-13092722D01*
X15982191Y-13092722D02*
X15982191Y-13111769D01*
X15982191Y-13111769D02*
X15886953Y-13130817D01*
X16058382Y-13187960D02*
X16077430Y-13197484D01*
X16077430Y-13197484D02*
X16115525Y-13197484D01*
X16115525Y-13197484D02*
X16134572Y-13187960D01*
X16134572Y-13187960D02*
X16144096Y-13168912D01*
X16144096Y-13168912D02*
X16144096Y-13159388D01*
X16144096Y-13159388D02*
X16134572Y-13140341D01*
X16134572Y-13140341D02*
X16115525Y-13130817D01*
X16115525Y-13130817D02*
X16086953Y-13130817D01*
X16086953Y-13130817D02*
X16067906Y-13121293D01*
X16067906Y-13121293D02*
X16058382Y-13102246D01*
X16058382Y-13102246D02*
X16058382Y-13092722D01*
X16058382Y-13092722D02*
X16067906Y-13073674D01*
X16067906Y-13073674D02*
X16086953Y-13064150D01*
X16086953Y-13064150D02*
X16115525Y-13064150D01*
X16115525Y-13064150D02*
X16134572Y-13073674D01*
X16210763Y-13273674D02*
X16220287Y-13264150D01*
X16220287Y-13264150D02*
X16239334Y-13235579D01*
X16239334Y-13235579D02*
X16248858Y-13216531D01*
X16248858Y-13216531D02*
X16258382Y-13187960D01*
X16258382Y-13187960D02*
X16267906Y-13140341D01*
X16267906Y-13140341D02*
X16267906Y-13102246D01*
X16267906Y-13102246D02*
X16258382Y-13054627D01*
X16258382Y-13054627D02*
X16248858Y-13026055D01*
X16248858Y-13026055D02*
X16239334Y-13007008D01*
X16239334Y-13007008D02*
X16220287Y-12978436D01*
X16220287Y-12978436D02*
X16210763Y-12968912D01*
D12*
X11385700Y-13320000D02*
X11385700Y-13420000D01*
X11335700Y-13370000D02*
X11435700Y-13370000D01*
D11*
X11801239Y-13461484D02*
X11686953Y-13461484D01*
X11744096Y-13461484D02*
X11744096Y-13261484D01*
X11744096Y-13261484D02*
X11725048Y-13290055D01*
X11725048Y-13290055D02*
X11706001Y-13309103D01*
X11706001Y-13309103D02*
X11686953Y-13318627D01*
X11886953Y-13442436D02*
X11896477Y-13451960D01*
X11896477Y-13451960D02*
X11886953Y-13461484D01*
X11886953Y-13461484D02*
X11877429Y-13451960D01*
X11877429Y-13451960D02*
X11886953Y-13442436D01*
X11886953Y-13442436D02*
X11886953Y-13461484D01*
X12020286Y-13261484D02*
X12039334Y-13261484D01*
X12039334Y-13261484D02*
X12058382Y-13271008D01*
X12058382Y-13271008D02*
X12067905Y-13280531D01*
X12067905Y-13280531D02*
X12077429Y-13299579D01*
X12077429Y-13299579D02*
X12086953Y-13337674D01*
X12086953Y-13337674D02*
X12086953Y-13385293D01*
X12086953Y-13385293D02*
X12077429Y-13423388D01*
X12077429Y-13423388D02*
X12067905Y-13442436D01*
X12067905Y-13442436D02*
X12058382Y-13451960D01*
X12058382Y-13451960D02*
X12039334Y-13461484D01*
X12039334Y-13461484D02*
X12020286Y-13461484D01*
X12020286Y-13461484D02*
X12001239Y-13451960D01*
X12001239Y-13451960D02*
X11991715Y-13442436D01*
X11991715Y-13442436D02*
X11982191Y-13423388D01*
X11982191Y-13423388D02*
X11972667Y-13385293D01*
X11972667Y-13385293D02*
X11972667Y-13337674D01*
X11972667Y-13337674D02*
X11982191Y-13299579D01*
X11982191Y-13299579D02*
X11991715Y-13280531D01*
X11991715Y-13280531D02*
X12001239Y-13271008D01*
X12001239Y-13271008D02*
X12020286Y-13261484D01*
X12210762Y-13261484D02*
X12229810Y-13261484D01*
X12229810Y-13261484D02*
X12248858Y-13271008D01*
X12248858Y-13271008D02*
X12258382Y-13280531D01*
X12258382Y-13280531D02*
X12267905Y-13299579D01*
X12267905Y-13299579D02*
X12277429Y-13337674D01*
X12277429Y-13337674D02*
X12277429Y-13385293D01*
X12277429Y-13385293D02*
X12267905Y-13423388D01*
X12267905Y-13423388D02*
X12258382Y-13442436D01*
X12258382Y-13442436D02*
X12248858Y-13451960D01*
X12248858Y-13451960D02*
X12229810Y-13461484D01*
X12229810Y-13461484D02*
X12210762Y-13461484D01*
X12210762Y-13461484D02*
X12191715Y-13451960D01*
X12191715Y-13451960D02*
X12182191Y-13442436D01*
X12182191Y-13442436D02*
X12172667Y-13423388D01*
X12172667Y-13423388D02*
X12163143Y-13385293D01*
X12163143Y-13385293D02*
X12163143Y-13337674D01*
X12163143Y-13337674D02*
X12172667Y-13299579D01*
X12172667Y-13299579D02*
X12182191Y-13280531D01*
X12182191Y-13280531D02*
X12191715Y-13271008D01*
X12191715Y-13271008D02*
X12210762Y-13261484D01*
X12401239Y-13261484D02*
X12420286Y-13261484D01*
X12420286Y-13261484D02*
X12439334Y-13271008D01*
X12439334Y-13271008D02*
X12448858Y-13280531D01*
X12448858Y-13280531D02*
X12458382Y-13299579D01*
X12458382Y-13299579D02*
X12467905Y-13337674D01*
X12467905Y-13337674D02*
X12467905Y-13385293D01*
X12467905Y-13385293D02*
X12458382Y-13423388D01*
X12458382Y-13423388D02*
X12448858Y-13442436D01*
X12448858Y-13442436D02*
X12439334Y-13451960D01*
X12439334Y-13451960D02*
X12420286Y-13461484D01*
X12420286Y-13461484D02*
X12401239Y-13461484D01*
X12401239Y-13461484D02*
X12382191Y-13451960D01*
X12382191Y-13451960D02*
X12372667Y-13442436D01*
X12372667Y-13442436D02*
X12363143Y-13423388D01*
X12363143Y-13423388D02*
X12353620Y-13385293D01*
X12353620Y-13385293D02*
X12353620Y-13337674D01*
X12353620Y-13337674D02*
X12363143Y-13299579D01*
X12363143Y-13299579D02*
X12372667Y-13280531D01*
X12372667Y-13280531D02*
X12382191Y-13271008D01*
X12382191Y-13271008D02*
X12401239Y-13261484D01*
X12553620Y-13461484D02*
X12553620Y-13328150D01*
X12553620Y-13347198D02*
X12563143Y-13337674D01*
X12563143Y-13337674D02*
X12582191Y-13328150D01*
X12582191Y-13328150D02*
X12610763Y-13328150D01*
X12610763Y-13328150D02*
X12629810Y-13337674D01*
X12629810Y-13337674D02*
X12639334Y-13356722D01*
X12639334Y-13356722D02*
X12639334Y-13461484D01*
X12639334Y-13356722D02*
X12648858Y-13337674D01*
X12648858Y-13337674D02*
X12667905Y-13328150D01*
X12667905Y-13328150D02*
X12696477Y-13328150D01*
X12696477Y-13328150D02*
X12715524Y-13337674D01*
X12715524Y-13337674D02*
X12725048Y-13356722D01*
X12725048Y-13356722D02*
X12725048Y-13461484D01*
X12820286Y-13461484D02*
X12820286Y-13328150D01*
X12820286Y-13347198D02*
X12829810Y-13337674D01*
X12829810Y-13337674D02*
X12848858Y-13328150D01*
X12848858Y-13328150D02*
X12877429Y-13328150D01*
X12877429Y-13328150D02*
X12896477Y-13337674D01*
X12896477Y-13337674D02*
X12906001Y-13356722D01*
X12906001Y-13356722D02*
X12906001Y-13461484D01*
X12906001Y-13356722D02*
X12915524Y-13337674D01*
X12915524Y-13337674D02*
X12934572Y-13328150D01*
X12934572Y-13328150D02*
X12963143Y-13328150D01*
X12963143Y-13328150D02*
X12982191Y-13337674D01*
X12982191Y-13337674D02*
X12991715Y-13356722D01*
X12991715Y-13356722D02*
X12991715Y-13461484D01*
X13382191Y-13251960D02*
X13210763Y-13509103D01*
X13639334Y-13261484D02*
X13658382Y-13261484D01*
X13658382Y-13261484D02*
X13677429Y-13271008D01*
X13677429Y-13271008D02*
X13686953Y-13280531D01*
X13686953Y-13280531D02*
X13696477Y-13299579D01*
X13696477Y-13299579D02*
X13706001Y-13337674D01*
X13706001Y-13337674D02*
X13706001Y-13385293D01*
X13706001Y-13385293D02*
X13696477Y-13423388D01*
X13696477Y-13423388D02*
X13686953Y-13442436D01*
X13686953Y-13442436D02*
X13677429Y-13451960D01*
X13677429Y-13451960D02*
X13658382Y-13461484D01*
X13658382Y-13461484D02*
X13639334Y-13461484D01*
X13639334Y-13461484D02*
X13620286Y-13451960D01*
X13620286Y-13451960D02*
X13610763Y-13442436D01*
X13610763Y-13442436D02*
X13601239Y-13423388D01*
X13601239Y-13423388D02*
X13591715Y-13385293D01*
X13591715Y-13385293D02*
X13591715Y-13337674D01*
X13591715Y-13337674D02*
X13601239Y-13299579D01*
X13601239Y-13299579D02*
X13610763Y-13280531D01*
X13610763Y-13280531D02*
X13620286Y-13271008D01*
X13620286Y-13271008D02*
X13639334Y-13261484D01*
X13791715Y-13442436D02*
X13801239Y-13451960D01*
X13801239Y-13451960D02*
X13791715Y-13461484D01*
X13791715Y-13461484D02*
X13782191Y-13451960D01*
X13782191Y-13451960D02*
X13791715Y-13442436D01*
X13791715Y-13442436D02*
X13791715Y-13461484D01*
X13925048Y-13261484D02*
X13944096Y-13261484D01*
X13944096Y-13261484D02*
X13963144Y-13271008D01*
X13963144Y-13271008D02*
X13972667Y-13280531D01*
X13972667Y-13280531D02*
X13982191Y-13299579D01*
X13982191Y-13299579D02*
X13991715Y-13337674D01*
X13991715Y-13337674D02*
X13991715Y-13385293D01*
X13991715Y-13385293D02*
X13982191Y-13423388D01*
X13982191Y-13423388D02*
X13972667Y-13442436D01*
X13972667Y-13442436D02*
X13963144Y-13451960D01*
X13963144Y-13451960D02*
X13944096Y-13461484D01*
X13944096Y-13461484D02*
X13925048Y-13461484D01*
X13925048Y-13461484D02*
X13906001Y-13451960D01*
X13906001Y-13451960D02*
X13896477Y-13442436D01*
X13896477Y-13442436D02*
X13886953Y-13423388D01*
X13886953Y-13423388D02*
X13877429Y-13385293D01*
X13877429Y-13385293D02*
X13877429Y-13337674D01*
X13877429Y-13337674D02*
X13886953Y-13299579D01*
X13886953Y-13299579D02*
X13896477Y-13280531D01*
X13896477Y-13280531D02*
X13906001Y-13271008D01*
X13906001Y-13271008D02*
X13925048Y-13261484D01*
X14058382Y-13261484D02*
X14182191Y-13261484D01*
X14182191Y-13261484D02*
X14115525Y-13337674D01*
X14115525Y-13337674D02*
X14144096Y-13337674D01*
X14144096Y-13337674D02*
X14163144Y-13347198D01*
X14163144Y-13347198D02*
X14172667Y-13356722D01*
X14172667Y-13356722D02*
X14182191Y-13375769D01*
X14182191Y-13375769D02*
X14182191Y-13423388D01*
X14182191Y-13423388D02*
X14172667Y-13442436D01*
X14172667Y-13442436D02*
X14163144Y-13451960D01*
X14163144Y-13451960D02*
X14144096Y-13461484D01*
X14144096Y-13461484D02*
X14086953Y-13461484D01*
X14086953Y-13461484D02*
X14067906Y-13451960D01*
X14067906Y-13451960D02*
X14058382Y-13442436D01*
X14277429Y-13461484D02*
X14315525Y-13461484D01*
X14315525Y-13461484D02*
X14334572Y-13451960D01*
X14334572Y-13451960D02*
X14344096Y-13442436D01*
X14344096Y-13442436D02*
X14363144Y-13413865D01*
X14363144Y-13413865D02*
X14372667Y-13375769D01*
X14372667Y-13375769D02*
X14372667Y-13299579D01*
X14372667Y-13299579D02*
X14363144Y-13280531D01*
X14363144Y-13280531D02*
X14353620Y-13271008D01*
X14353620Y-13271008D02*
X14334572Y-13261484D01*
X14334572Y-13261484D02*
X14296477Y-13261484D01*
X14296477Y-13261484D02*
X14277429Y-13271008D01*
X14277429Y-13271008D02*
X14267906Y-13280531D01*
X14267906Y-13280531D02*
X14258382Y-13299579D01*
X14258382Y-13299579D02*
X14258382Y-13347198D01*
X14258382Y-13347198D02*
X14267906Y-13366246D01*
X14267906Y-13366246D02*
X14277429Y-13375769D01*
X14277429Y-13375769D02*
X14296477Y-13385293D01*
X14296477Y-13385293D02*
X14334572Y-13385293D01*
X14334572Y-13385293D02*
X14353620Y-13375769D01*
X14353620Y-13375769D02*
X14363144Y-13366246D01*
X14363144Y-13366246D02*
X14372667Y-13347198D01*
X14544096Y-13328150D02*
X14544096Y-13461484D01*
X14496477Y-13251960D02*
X14448858Y-13394817D01*
X14448858Y-13394817D02*
X14572667Y-13394817D01*
X14639334Y-13261484D02*
X14639334Y-13299579D01*
X14715525Y-13261484D02*
X14715525Y-13299579D01*
X15010763Y-13537674D02*
X15001239Y-13528150D01*
X15001239Y-13528150D02*
X14982191Y-13499579D01*
X14982191Y-13499579D02*
X14972668Y-13480531D01*
X14972668Y-13480531D02*
X14963144Y-13451960D01*
X14963144Y-13451960D02*
X14953620Y-13404341D01*
X14953620Y-13404341D02*
X14953620Y-13366246D01*
X14953620Y-13366246D02*
X14963144Y-13318627D01*
X14963144Y-13318627D02*
X14972668Y-13290055D01*
X14972668Y-13290055D02*
X14982191Y-13271008D01*
X14982191Y-13271008D02*
X15001239Y-13242436D01*
X15001239Y-13242436D02*
X15010763Y-13232912D01*
X15077429Y-13280531D02*
X15086953Y-13271008D01*
X15086953Y-13271008D02*
X15106001Y-13261484D01*
X15106001Y-13261484D02*
X15153620Y-13261484D01*
X15153620Y-13261484D02*
X15172668Y-13271008D01*
X15172668Y-13271008D02*
X15182191Y-13280531D01*
X15182191Y-13280531D02*
X15191715Y-13299579D01*
X15191715Y-13299579D02*
X15191715Y-13318627D01*
X15191715Y-13318627D02*
X15182191Y-13347198D01*
X15182191Y-13347198D02*
X15067906Y-13461484D01*
X15067906Y-13461484D02*
X15191715Y-13461484D01*
X15286953Y-13461484D02*
X15325048Y-13461484D01*
X15325048Y-13461484D02*
X15344096Y-13451960D01*
X15344096Y-13451960D02*
X15353620Y-13442436D01*
X15353620Y-13442436D02*
X15372668Y-13413865D01*
X15372668Y-13413865D02*
X15382191Y-13375769D01*
X15382191Y-13375769D02*
X15382191Y-13299579D01*
X15382191Y-13299579D02*
X15372668Y-13280531D01*
X15372668Y-13280531D02*
X15363144Y-13271008D01*
X15363144Y-13271008D02*
X15344096Y-13261484D01*
X15344096Y-13261484D02*
X15306001Y-13261484D01*
X15306001Y-13261484D02*
X15286953Y-13271008D01*
X15286953Y-13271008D02*
X15277429Y-13280531D01*
X15277429Y-13280531D02*
X15267906Y-13299579D01*
X15267906Y-13299579D02*
X15267906Y-13347198D01*
X15267906Y-13347198D02*
X15277429Y-13366246D01*
X15277429Y-13366246D02*
X15286953Y-13375769D01*
X15286953Y-13375769D02*
X15306001Y-13385293D01*
X15306001Y-13385293D02*
X15344096Y-13385293D01*
X15344096Y-13385293D02*
X15363144Y-13375769D01*
X15363144Y-13375769D02*
X15372668Y-13366246D01*
X15372668Y-13366246D02*
X15382191Y-13347198D01*
X15620287Y-13461484D02*
X15620287Y-13261484D01*
X15706001Y-13461484D02*
X15706001Y-13356722D01*
X15706001Y-13356722D02*
X15696477Y-13337674D01*
X15696477Y-13337674D02*
X15677430Y-13328150D01*
X15677430Y-13328150D02*
X15648858Y-13328150D01*
X15648858Y-13328150D02*
X15629810Y-13337674D01*
X15629810Y-13337674D02*
X15620287Y-13347198D01*
X15829810Y-13461484D02*
X15810763Y-13451960D01*
X15810763Y-13451960D02*
X15801239Y-13442436D01*
X15801239Y-13442436D02*
X15791715Y-13423388D01*
X15791715Y-13423388D02*
X15791715Y-13366246D01*
X15791715Y-13366246D02*
X15801239Y-13347198D01*
X15801239Y-13347198D02*
X15810763Y-13337674D01*
X15810763Y-13337674D02*
X15829810Y-13328150D01*
X15829810Y-13328150D02*
X15858382Y-13328150D01*
X15858382Y-13328150D02*
X15877430Y-13337674D01*
X15877430Y-13337674D02*
X15886953Y-13347198D01*
X15886953Y-13347198D02*
X15896477Y-13366246D01*
X15896477Y-13366246D02*
X15896477Y-13423388D01*
X15896477Y-13423388D02*
X15886953Y-13442436D01*
X15886953Y-13442436D02*
X15877430Y-13451960D01*
X15877430Y-13451960D02*
X15858382Y-13461484D01*
X15858382Y-13461484D02*
X15829810Y-13461484D01*
X16010763Y-13461484D02*
X15991715Y-13451960D01*
X15991715Y-13451960D02*
X15982191Y-13432912D01*
X15982191Y-13432912D02*
X15982191Y-13261484D01*
X16163144Y-13451960D02*
X16144096Y-13461484D01*
X16144096Y-13461484D02*
X16106001Y-13461484D01*
X16106001Y-13461484D02*
X16086953Y-13451960D01*
X16086953Y-13451960D02*
X16077430Y-13432912D01*
X16077430Y-13432912D02*
X16077430Y-13356722D01*
X16077430Y-13356722D02*
X16086953Y-13337674D01*
X16086953Y-13337674D02*
X16106001Y-13328150D01*
X16106001Y-13328150D02*
X16144096Y-13328150D01*
X16144096Y-13328150D02*
X16163144Y-13337674D01*
X16163144Y-13337674D02*
X16172668Y-13356722D01*
X16172668Y-13356722D02*
X16172668Y-13375769D01*
X16172668Y-13375769D02*
X16077430Y-13394817D01*
X16248858Y-13451960D02*
X16267906Y-13461484D01*
X16267906Y-13461484D02*
X16306001Y-13461484D01*
X16306001Y-13461484D02*
X16325049Y-13451960D01*
X16325049Y-13451960D02*
X16334572Y-13432912D01*
X16334572Y-13432912D02*
X16334572Y-13423388D01*
X16334572Y-13423388D02*
X16325049Y-13404341D01*
X16325049Y-13404341D02*
X16306001Y-13394817D01*
X16306001Y-13394817D02*
X16277430Y-13394817D01*
X16277430Y-13394817D02*
X16258382Y-13385293D01*
X16258382Y-13385293D02*
X16248858Y-13366246D01*
X16248858Y-13366246D02*
X16248858Y-13356722D01*
X16248858Y-13356722D02*
X16258382Y-13337674D01*
X16258382Y-13337674D02*
X16277430Y-13328150D01*
X16277430Y-13328150D02*
X16306001Y-13328150D01*
X16306001Y-13328150D02*
X16325049Y-13337674D01*
X16401239Y-13537674D02*
X16410763Y-13528150D01*
X16410763Y-13528150D02*
X16429811Y-13499579D01*
X16429811Y-13499579D02*
X16439334Y-13480531D01*
X16439334Y-13480531D02*
X16448858Y-13451960D01*
X16448858Y-13451960D02*
X16458382Y-13404341D01*
X16458382Y-13404341D02*
X16458382Y-13366246D01*
X16458382Y-13366246D02*
X16448858Y-13318627D01*
X16448858Y-13318627D02*
X16439334Y-13290055D01*
X16439334Y-13290055D02*
X16429811Y-13271008D01*
X16429811Y-13271008D02*
X16410763Y-13242436D01*
X16410763Y-13242436D02*
X16401239Y-13232912D01*
D13*
X11418127Y-13676427D02*
X11418127Y-13591573D01*
X11333273Y-13591573D01*
X11333273Y-13676427D01*
X11418127Y-13676427D01*
D11*
X11801239Y-13725484D02*
X11686953Y-13725484D01*
X11744096Y-13725484D02*
X11744096Y-13525484D01*
X11744096Y-13525484D02*
X11725048Y-13554055D01*
X11725048Y-13554055D02*
X11706001Y-13573103D01*
X11706001Y-13573103D02*
X11686953Y-13582627D01*
X11886953Y-13706436D02*
X11896477Y-13715960D01*
X11896477Y-13715960D02*
X11886953Y-13725484D01*
X11886953Y-13725484D02*
X11877429Y-13715960D01*
X11877429Y-13715960D02*
X11886953Y-13706436D01*
X11886953Y-13706436D02*
X11886953Y-13725484D01*
X11972667Y-13544531D02*
X11982191Y-13535008D01*
X11982191Y-13535008D02*
X12001239Y-13525484D01*
X12001239Y-13525484D02*
X12048858Y-13525484D01*
X12048858Y-13525484D02*
X12067905Y-13535008D01*
X12067905Y-13535008D02*
X12077429Y-13544531D01*
X12077429Y-13544531D02*
X12086953Y-13563579D01*
X12086953Y-13563579D02*
X12086953Y-13582627D01*
X12086953Y-13582627D02*
X12077429Y-13611198D01*
X12077429Y-13611198D02*
X11963143Y-13725484D01*
X11963143Y-13725484D02*
X12086953Y-13725484D01*
X12210762Y-13525484D02*
X12229810Y-13525484D01*
X12229810Y-13525484D02*
X12248858Y-13535008D01*
X12248858Y-13535008D02*
X12258382Y-13544531D01*
X12258382Y-13544531D02*
X12267905Y-13563579D01*
X12267905Y-13563579D02*
X12277429Y-13601674D01*
X12277429Y-13601674D02*
X12277429Y-13649293D01*
X12277429Y-13649293D02*
X12267905Y-13687388D01*
X12267905Y-13687388D02*
X12258382Y-13706436D01*
X12258382Y-13706436D02*
X12248858Y-13715960D01*
X12248858Y-13715960D02*
X12229810Y-13725484D01*
X12229810Y-13725484D02*
X12210762Y-13725484D01*
X12210762Y-13725484D02*
X12191715Y-13715960D01*
X12191715Y-13715960D02*
X12182191Y-13706436D01*
X12182191Y-13706436D02*
X12172667Y-13687388D01*
X12172667Y-13687388D02*
X12163143Y-13649293D01*
X12163143Y-13649293D02*
X12163143Y-13601674D01*
X12163143Y-13601674D02*
X12172667Y-13563579D01*
X12172667Y-13563579D02*
X12182191Y-13544531D01*
X12182191Y-13544531D02*
X12191715Y-13535008D01*
X12191715Y-13535008D02*
X12210762Y-13525484D01*
X12401239Y-13525484D02*
X12420286Y-13525484D01*
X12420286Y-13525484D02*
X12439334Y-13535008D01*
X12439334Y-13535008D02*
X12448858Y-13544531D01*
X12448858Y-13544531D02*
X12458382Y-13563579D01*
X12458382Y-13563579D02*
X12467905Y-13601674D01*
X12467905Y-13601674D02*
X12467905Y-13649293D01*
X12467905Y-13649293D02*
X12458382Y-13687388D01*
X12458382Y-13687388D02*
X12448858Y-13706436D01*
X12448858Y-13706436D02*
X12439334Y-13715960D01*
X12439334Y-13715960D02*
X12420286Y-13725484D01*
X12420286Y-13725484D02*
X12401239Y-13725484D01*
X12401239Y-13725484D02*
X12382191Y-13715960D01*
X12382191Y-13715960D02*
X12372667Y-13706436D01*
X12372667Y-13706436D02*
X12363143Y-13687388D01*
X12363143Y-13687388D02*
X12353620Y-13649293D01*
X12353620Y-13649293D02*
X12353620Y-13601674D01*
X12353620Y-13601674D02*
X12363143Y-13563579D01*
X12363143Y-13563579D02*
X12372667Y-13544531D01*
X12372667Y-13544531D02*
X12382191Y-13535008D01*
X12382191Y-13535008D02*
X12401239Y-13525484D01*
X12553620Y-13725484D02*
X12553620Y-13592150D01*
X12553620Y-13611198D02*
X12563143Y-13601674D01*
X12563143Y-13601674D02*
X12582191Y-13592150D01*
X12582191Y-13592150D02*
X12610763Y-13592150D01*
X12610763Y-13592150D02*
X12629810Y-13601674D01*
X12629810Y-13601674D02*
X12639334Y-13620722D01*
X12639334Y-13620722D02*
X12639334Y-13725484D01*
X12639334Y-13620722D02*
X12648858Y-13601674D01*
X12648858Y-13601674D02*
X12667905Y-13592150D01*
X12667905Y-13592150D02*
X12696477Y-13592150D01*
X12696477Y-13592150D02*
X12715524Y-13601674D01*
X12715524Y-13601674D02*
X12725048Y-13620722D01*
X12725048Y-13620722D02*
X12725048Y-13725484D01*
X12820286Y-13725484D02*
X12820286Y-13592150D01*
X12820286Y-13611198D02*
X12829810Y-13601674D01*
X12829810Y-13601674D02*
X12848858Y-13592150D01*
X12848858Y-13592150D02*
X12877429Y-13592150D01*
X12877429Y-13592150D02*
X12896477Y-13601674D01*
X12896477Y-13601674D02*
X12906001Y-13620722D01*
X12906001Y-13620722D02*
X12906001Y-13725484D01*
X12906001Y-13620722D02*
X12915524Y-13601674D01*
X12915524Y-13601674D02*
X12934572Y-13592150D01*
X12934572Y-13592150D02*
X12963143Y-13592150D01*
X12963143Y-13592150D02*
X12982191Y-13601674D01*
X12982191Y-13601674D02*
X12991715Y-13620722D01*
X12991715Y-13620722D02*
X12991715Y-13725484D01*
X13382191Y-13515960D02*
X13210763Y-13773103D01*
X13639334Y-13525484D02*
X13658382Y-13525484D01*
X13658382Y-13525484D02*
X13677429Y-13535008D01*
X13677429Y-13535008D02*
X13686953Y-13544531D01*
X13686953Y-13544531D02*
X13696477Y-13563579D01*
X13696477Y-13563579D02*
X13706001Y-13601674D01*
X13706001Y-13601674D02*
X13706001Y-13649293D01*
X13706001Y-13649293D02*
X13696477Y-13687388D01*
X13696477Y-13687388D02*
X13686953Y-13706436D01*
X13686953Y-13706436D02*
X13677429Y-13715960D01*
X13677429Y-13715960D02*
X13658382Y-13725484D01*
X13658382Y-13725484D02*
X13639334Y-13725484D01*
X13639334Y-13725484D02*
X13620286Y-13715960D01*
X13620286Y-13715960D02*
X13610763Y-13706436D01*
X13610763Y-13706436D02*
X13601239Y-13687388D01*
X13601239Y-13687388D02*
X13591715Y-13649293D01*
X13591715Y-13649293D02*
X13591715Y-13601674D01*
X13591715Y-13601674D02*
X13601239Y-13563579D01*
X13601239Y-13563579D02*
X13610763Y-13544531D01*
X13610763Y-13544531D02*
X13620286Y-13535008D01*
X13620286Y-13535008D02*
X13639334Y-13525484D01*
X13791715Y-13706436D02*
X13801239Y-13715960D01*
X13801239Y-13715960D02*
X13791715Y-13725484D01*
X13791715Y-13725484D02*
X13782191Y-13715960D01*
X13782191Y-13715960D02*
X13791715Y-13706436D01*
X13791715Y-13706436D02*
X13791715Y-13725484D01*
X13925048Y-13525484D02*
X13944096Y-13525484D01*
X13944096Y-13525484D02*
X13963144Y-13535008D01*
X13963144Y-13535008D02*
X13972667Y-13544531D01*
X13972667Y-13544531D02*
X13982191Y-13563579D01*
X13982191Y-13563579D02*
X13991715Y-13601674D01*
X13991715Y-13601674D02*
X13991715Y-13649293D01*
X13991715Y-13649293D02*
X13982191Y-13687388D01*
X13982191Y-13687388D02*
X13972667Y-13706436D01*
X13972667Y-13706436D02*
X13963144Y-13715960D01*
X13963144Y-13715960D02*
X13944096Y-13725484D01*
X13944096Y-13725484D02*
X13925048Y-13725484D01*
X13925048Y-13725484D02*
X13906001Y-13715960D01*
X13906001Y-13715960D02*
X13896477Y-13706436D01*
X13896477Y-13706436D02*
X13886953Y-13687388D01*
X13886953Y-13687388D02*
X13877429Y-13649293D01*
X13877429Y-13649293D02*
X13877429Y-13601674D01*
X13877429Y-13601674D02*
X13886953Y-13563579D01*
X13886953Y-13563579D02*
X13896477Y-13544531D01*
X13896477Y-13544531D02*
X13906001Y-13535008D01*
X13906001Y-13535008D02*
X13925048Y-13525484D01*
X14163144Y-13592150D02*
X14163144Y-13725484D01*
X14115525Y-13515960D02*
X14067906Y-13658817D01*
X14067906Y-13658817D02*
X14191715Y-13658817D01*
X14248858Y-13525484D02*
X14382191Y-13525484D01*
X14382191Y-13525484D02*
X14296477Y-13725484D01*
X14448858Y-13544531D02*
X14458382Y-13535008D01*
X14458382Y-13535008D02*
X14477429Y-13525484D01*
X14477429Y-13525484D02*
X14525048Y-13525484D01*
X14525048Y-13525484D02*
X14544096Y-13535008D01*
X14544096Y-13535008D02*
X14553620Y-13544531D01*
X14553620Y-13544531D02*
X14563144Y-13563579D01*
X14563144Y-13563579D02*
X14563144Y-13582627D01*
X14563144Y-13582627D02*
X14553620Y-13611198D01*
X14553620Y-13611198D02*
X14439334Y-13725484D01*
X14439334Y-13725484D02*
X14563144Y-13725484D01*
X14639334Y-13525484D02*
X14639334Y-13563579D01*
X14715525Y-13525484D02*
X14715525Y-13563579D01*
X15010763Y-13801674D02*
X15001239Y-13792150D01*
X15001239Y-13792150D02*
X14982191Y-13763579D01*
X14982191Y-13763579D02*
X14972668Y-13744531D01*
X14972668Y-13744531D02*
X14963144Y-13715960D01*
X14963144Y-13715960D02*
X14953620Y-13668341D01*
X14953620Y-13668341D02*
X14953620Y-13630246D01*
X14953620Y-13630246D02*
X14963144Y-13582627D01*
X14963144Y-13582627D02*
X14972668Y-13554055D01*
X14972668Y-13554055D02*
X14982191Y-13535008D01*
X14982191Y-13535008D02*
X15001239Y-13506436D01*
X15001239Y-13506436D02*
X15010763Y-13496912D01*
X15182191Y-13525484D02*
X15086953Y-13525484D01*
X15086953Y-13525484D02*
X15077429Y-13620722D01*
X15077429Y-13620722D02*
X15086953Y-13611198D01*
X15086953Y-13611198D02*
X15106001Y-13601674D01*
X15106001Y-13601674D02*
X15153620Y-13601674D01*
X15153620Y-13601674D02*
X15172668Y-13611198D01*
X15172668Y-13611198D02*
X15182191Y-13620722D01*
X15182191Y-13620722D02*
X15191715Y-13639769D01*
X15191715Y-13639769D02*
X15191715Y-13687388D01*
X15191715Y-13687388D02*
X15182191Y-13706436D01*
X15182191Y-13706436D02*
X15172668Y-13715960D01*
X15172668Y-13715960D02*
X15153620Y-13725484D01*
X15153620Y-13725484D02*
X15106001Y-13725484D01*
X15106001Y-13725484D02*
X15086953Y-13715960D01*
X15086953Y-13715960D02*
X15077429Y-13706436D01*
X15429810Y-13725484D02*
X15429810Y-13525484D01*
X15515525Y-13725484D02*
X15515525Y-13620722D01*
X15515525Y-13620722D02*
X15506001Y-13601674D01*
X15506001Y-13601674D02*
X15486953Y-13592150D01*
X15486953Y-13592150D02*
X15458382Y-13592150D01*
X15458382Y-13592150D02*
X15439334Y-13601674D01*
X15439334Y-13601674D02*
X15429810Y-13611198D01*
X15639334Y-13725484D02*
X15620287Y-13715960D01*
X15620287Y-13715960D02*
X15610763Y-13706436D01*
X15610763Y-13706436D02*
X15601239Y-13687388D01*
X15601239Y-13687388D02*
X15601239Y-13630246D01*
X15601239Y-13630246D02*
X15610763Y-13611198D01*
X15610763Y-13611198D02*
X15620287Y-13601674D01*
X15620287Y-13601674D02*
X15639334Y-13592150D01*
X15639334Y-13592150D02*
X15667906Y-13592150D01*
X15667906Y-13592150D02*
X15686953Y-13601674D01*
X15686953Y-13601674D02*
X15696477Y-13611198D01*
X15696477Y-13611198D02*
X15706001Y-13630246D01*
X15706001Y-13630246D02*
X15706001Y-13687388D01*
X15706001Y-13687388D02*
X15696477Y-13706436D01*
X15696477Y-13706436D02*
X15686953Y-13715960D01*
X15686953Y-13715960D02*
X15667906Y-13725484D01*
X15667906Y-13725484D02*
X15639334Y-13725484D01*
X15820287Y-13725484D02*
X15801239Y-13715960D01*
X15801239Y-13715960D02*
X15791715Y-13696912D01*
X15791715Y-13696912D02*
X15791715Y-13525484D01*
X15972668Y-13715960D02*
X15953620Y-13725484D01*
X15953620Y-13725484D02*
X15915525Y-13725484D01*
X15915525Y-13725484D02*
X15896477Y-13715960D01*
X15896477Y-13715960D02*
X15886953Y-13696912D01*
X15886953Y-13696912D02*
X15886953Y-13620722D01*
X15886953Y-13620722D02*
X15896477Y-13601674D01*
X15896477Y-13601674D02*
X15915525Y-13592150D01*
X15915525Y-13592150D02*
X15953620Y-13592150D01*
X15953620Y-13592150D02*
X15972668Y-13601674D01*
X15972668Y-13601674D02*
X15982191Y-13620722D01*
X15982191Y-13620722D02*
X15982191Y-13639769D01*
X15982191Y-13639769D02*
X15886953Y-13658817D01*
X16058382Y-13715960D02*
X16077430Y-13725484D01*
X16077430Y-13725484D02*
X16115525Y-13725484D01*
X16115525Y-13725484D02*
X16134572Y-13715960D01*
X16134572Y-13715960D02*
X16144096Y-13696912D01*
X16144096Y-13696912D02*
X16144096Y-13687388D01*
X16144096Y-13687388D02*
X16134572Y-13668341D01*
X16134572Y-13668341D02*
X16115525Y-13658817D01*
X16115525Y-13658817D02*
X16086953Y-13658817D01*
X16086953Y-13658817D02*
X16067906Y-13649293D01*
X16067906Y-13649293D02*
X16058382Y-13630246D01*
X16058382Y-13630246D02*
X16058382Y-13620722D01*
X16058382Y-13620722D02*
X16067906Y-13601674D01*
X16067906Y-13601674D02*
X16086953Y-13592150D01*
X16086953Y-13592150D02*
X16115525Y-13592150D01*
X16115525Y-13592150D02*
X16134572Y-13601674D01*
X16210763Y-13801674D02*
X16220287Y-13792150D01*
X16220287Y-13792150D02*
X16239334Y-13763579D01*
X16239334Y-13763579D02*
X16248858Y-13744531D01*
X16248858Y-13744531D02*
X16258382Y-13715960D01*
X16258382Y-13715960D02*
X16267906Y-13668341D01*
X16267906Y-13668341D02*
X16267906Y-13630246D01*
X16267906Y-13630246D02*
X16258382Y-13582627D01*
X16258382Y-13582627D02*
X16248858Y-13554055D01*
X16248858Y-13554055D02*
X16239334Y-13535008D01*
X16239334Y-13535008D02*
X16220287Y-13506436D01*
X16220287Y-13506436D02*
X16210763Y-13496912D01*
D14*
X11350700Y-13983000D02*
X11435700Y-13898000D01*
X11350700Y-13813000D01*
X11265700Y-13898000D01*
X11350700Y-13983000D01*
D11*
X11801239Y-13989484D02*
X11686953Y-13989484D01*
X11744096Y-13989484D02*
X11744096Y-13789484D01*
X11744096Y-13789484D02*
X11725048Y-13818055D01*
X11725048Y-13818055D02*
X11706001Y-13837103D01*
X11706001Y-13837103D02*
X11686953Y-13846627D01*
X11886953Y-13970436D02*
X11896477Y-13979960D01*
X11896477Y-13979960D02*
X11886953Y-13989484D01*
X11886953Y-13989484D02*
X11877429Y-13979960D01*
X11877429Y-13979960D02*
X11886953Y-13970436D01*
X11886953Y-13970436D02*
X11886953Y-13989484D01*
X11963143Y-13789484D02*
X12096477Y-13789484D01*
X12096477Y-13789484D02*
X12010762Y-13989484D01*
X12210762Y-13789484D02*
X12229810Y-13789484D01*
X12229810Y-13789484D02*
X12248858Y-13799008D01*
X12248858Y-13799008D02*
X12258382Y-13808531D01*
X12258382Y-13808531D02*
X12267905Y-13827579D01*
X12267905Y-13827579D02*
X12277429Y-13865674D01*
X12277429Y-13865674D02*
X12277429Y-13913293D01*
X12277429Y-13913293D02*
X12267905Y-13951388D01*
X12267905Y-13951388D02*
X12258382Y-13970436D01*
X12258382Y-13970436D02*
X12248858Y-13979960D01*
X12248858Y-13979960D02*
X12229810Y-13989484D01*
X12229810Y-13989484D02*
X12210762Y-13989484D01*
X12210762Y-13989484D02*
X12191715Y-13979960D01*
X12191715Y-13979960D02*
X12182191Y-13970436D01*
X12182191Y-13970436D02*
X12172667Y-13951388D01*
X12172667Y-13951388D02*
X12163143Y-13913293D01*
X12163143Y-13913293D02*
X12163143Y-13865674D01*
X12163143Y-13865674D02*
X12172667Y-13827579D01*
X12172667Y-13827579D02*
X12182191Y-13808531D01*
X12182191Y-13808531D02*
X12191715Y-13799008D01*
X12191715Y-13799008D02*
X12210762Y-13789484D01*
X12401239Y-13789484D02*
X12420286Y-13789484D01*
X12420286Y-13789484D02*
X12439334Y-13799008D01*
X12439334Y-13799008D02*
X12448858Y-13808531D01*
X12448858Y-13808531D02*
X12458382Y-13827579D01*
X12458382Y-13827579D02*
X12467905Y-13865674D01*
X12467905Y-13865674D02*
X12467905Y-13913293D01*
X12467905Y-13913293D02*
X12458382Y-13951388D01*
X12458382Y-13951388D02*
X12448858Y-13970436D01*
X12448858Y-13970436D02*
X12439334Y-13979960D01*
X12439334Y-13979960D02*
X12420286Y-13989484D01*
X12420286Y-13989484D02*
X12401239Y-13989484D01*
X12401239Y-13989484D02*
X12382191Y-13979960D01*
X12382191Y-13979960D02*
X12372667Y-13970436D01*
X12372667Y-13970436D02*
X12363143Y-13951388D01*
X12363143Y-13951388D02*
X12353620Y-13913293D01*
X12353620Y-13913293D02*
X12353620Y-13865674D01*
X12353620Y-13865674D02*
X12363143Y-13827579D01*
X12363143Y-13827579D02*
X12372667Y-13808531D01*
X12372667Y-13808531D02*
X12382191Y-13799008D01*
X12382191Y-13799008D02*
X12401239Y-13789484D01*
X12553620Y-13989484D02*
X12553620Y-13856150D01*
X12553620Y-13875198D02*
X12563143Y-13865674D01*
X12563143Y-13865674D02*
X12582191Y-13856150D01*
X12582191Y-13856150D02*
X12610763Y-13856150D01*
X12610763Y-13856150D02*
X12629810Y-13865674D01*
X12629810Y-13865674D02*
X12639334Y-13884722D01*
X12639334Y-13884722D02*
X12639334Y-13989484D01*
X12639334Y-13884722D02*
X12648858Y-13865674D01*
X12648858Y-13865674D02*
X12667905Y-13856150D01*
X12667905Y-13856150D02*
X12696477Y-13856150D01*
X12696477Y-13856150D02*
X12715524Y-13865674D01*
X12715524Y-13865674D02*
X12725048Y-13884722D01*
X12725048Y-13884722D02*
X12725048Y-13989484D01*
X12820286Y-13989484D02*
X12820286Y-13856150D01*
X12820286Y-13875198D02*
X12829810Y-13865674D01*
X12829810Y-13865674D02*
X12848858Y-13856150D01*
X12848858Y-13856150D02*
X12877429Y-13856150D01*
X12877429Y-13856150D02*
X12896477Y-13865674D01*
X12896477Y-13865674D02*
X12906001Y-13884722D01*
X12906001Y-13884722D02*
X12906001Y-13989484D01*
X12906001Y-13884722D02*
X12915524Y-13865674D01*
X12915524Y-13865674D02*
X12934572Y-13856150D01*
X12934572Y-13856150D02*
X12963143Y-13856150D01*
X12963143Y-13856150D02*
X12982191Y-13865674D01*
X12982191Y-13865674D02*
X12991715Y-13884722D01*
X12991715Y-13884722D02*
X12991715Y-13989484D01*
X13382191Y-13779960D02*
X13210763Y-14037103D01*
X13639334Y-13789484D02*
X13658382Y-13789484D01*
X13658382Y-13789484D02*
X13677429Y-13799008D01*
X13677429Y-13799008D02*
X13686953Y-13808531D01*
X13686953Y-13808531D02*
X13696477Y-13827579D01*
X13696477Y-13827579D02*
X13706001Y-13865674D01*
X13706001Y-13865674D02*
X13706001Y-13913293D01*
X13706001Y-13913293D02*
X13696477Y-13951388D01*
X13696477Y-13951388D02*
X13686953Y-13970436D01*
X13686953Y-13970436D02*
X13677429Y-13979960D01*
X13677429Y-13979960D02*
X13658382Y-13989484D01*
X13658382Y-13989484D02*
X13639334Y-13989484D01*
X13639334Y-13989484D02*
X13620286Y-13979960D01*
X13620286Y-13979960D02*
X13610763Y-13970436D01*
X13610763Y-13970436D02*
X13601239Y-13951388D01*
X13601239Y-13951388D02*
X13591715Y-13913293D01*
X13591715Y-13913293D02*
X13591715Y-13865674D01*
X13591715Y-13865674D02*
X13601239Y-13827579D01*
X13601239Y-13827579D02*
X13610763Y-13808531D01*
X13610763Y-13808531D02*
X13620286Y-13799008D01*
X13620286Y-13799008D02*
X13639334Y-13789484D01*
X13791715Y-13970436D02*
X13801239Y-13979960D01*
X13801239Y-13979960D02*
X13791715Y-13989484D01*
X13791715Y-13989484D02*
X13782191Y-13979960D01*
X13782191Y-13979960D02*
X13791715Y-13970436D01*
X13791715Y-13970436D02*
X13791715Y-13989484D01*
X13925048Y-13789484D02*
X13944096Y-13789484D01*
X13944096Y-13789484D02*
X13963144Y-13799008D01*
X13963144Y-13799008D02*
X13972667Y-13808531D01*
X13972667Y-13808531D02*
X13982191Y-13827579D01*
X13982191Y-13827579D02*
X13991715Y-13865674D01*
X13991715Y-13865674D02*
X13991715Y-13913293D01*
X13991715Y-13913293D02*
X13982191Y-13951388D01*
X13982191Y-13951388D02*
X13972667Y-13970436D01*
X13972667Y-13970436D02*
X13963144Y-13979960D01*
X13963144Y-13979960D02*
X13944096Y-13989484D01*
X13944096Y-13989484D02*
X13925048Y-13989484D01*
X13925048Y-13989484D02*
X13906001Y-13979960D01*
X13906001Y-13979960D02*
X13896477Y-13970436D01*
X13896477Y-13970436D02*
X13886953Y-13951388D01*
X13886953Y-13951388D02*
X13877429Y-13913293D01*
X13877429Y-13913293D02*
X13877429Y-13865674D01*
X13877429Y-13865674D02*
X13886953Y-13827579D01*
X13886953Y-13827579D02*
X13896477Y-13808531D01*
X13896477Y-13808531D02*
X13906001Y-13799008D01*
X13906001Y-13799008D02*
X13925048Y-13789484D01*
X14163144Y-13789484D02*
X14125048Y-13789484D01*
X14125048Y-13789484D02*
X14106001Y-13799008D01*
X14106001Y-13799008D02*
X14096477Y-13808531D01*
X14096477Y-13808531D02*
X14077429Y-13837103D01*
X14077429Y-13837103D02*
X14067906Y-13875198D01*
X14067906Y-13875198D02*
X14067906Y-13951388D01*
X14067906Y-13951388D02*
X14077429Y-13970436D01*
X14077429Y-13970436D02*
X14086953Y-13979960D01*
X14086953Y-13979960D02*
X14106001Y-13989484D01*
X14106001Y-13989484D02*
X14144096Y-13989484D01*
X14144096Y-13989484D02*
X14163144Y-13979960D01*
X14163144Y-13979960D02*
X14172667Y-13970436D01*
X14172667Y-13970436D02*
X14182191Y-13951388D01*
X14182191Y-13951388D02*
X14182191Y-13903769D01*
X14182191Y-13903769D02*
X14172667Y-13884722D01*
X14172667Y-13884722D02*
X14163144Y-13875198D01*
X14163144Y-13875198D02*
X14144096Y-13865674D01*
X14144096Y-13865674D02*
X14106001Y-13865674D01*
X14106001Y-13865674D02*
X14086953Y-13875198D01*
X14086953Y-13875198D02*
X14077429Y-13884722D01*
X14077429Y-13884722D02*
X14067906Y-13903769D01*
X14353620Y-13789484D02*
X14315525Y-13789484D01*
X14315525Y-13789484D02*
X14296477Y-13799008D01*
X14296477Y-13799008D02*
X14286953Y-13808531D01*
X14286953Y-13808531D02*
X14267906Y-13837103D01*
X14267906Y-13837103D02*
X14258382Y-13875198D01*
X14258382Y-13875198D02*
X14258382Y-13951388D01*
X14258382Y-13951388D02*
X14267906Y-13970436D01*
X14267906Y-13970436D02*
X14277429Y-13979960D01*
X14277429Y-13979960D02*
X14296477Y-13989484D01*
X14296477Y-13989484D02*
X14334572Y-13989484D01*
X14334572Y-13989484D02*
X14353620Y-13979960D01*
X14353620Y-13979960D02*
X14363144Y-13970436D01*
X14363144Y-13970436D02*
X14372667Y-13951388D01*
X14372667Y-13951388D02*
X14372667Y-13903769D01*
X14372667Y-13903769D02*
X14363144Y-13884722D01*
X14363144Y-13884722D02*
X14353620Y-13875198D01*
X14353620Y-13875198D02*
X14334572Y-13865674D01*
X14334572Y-13865674D02*
X14296477Y-13865674D01*
X14296477Y-13865674D02*
X14277429Y-13875198D01*
X14277429Y-13875198D02*
X14267906Y-13884722D01*
X14267906Y-13884722D02*
X14258382Y-13903769D01*
X14467906Y-13989484D02*
X14506001Y-13989484D01*
X14506001Y-13989484D02*
X14525048Y-13979960D01*
X14525048Y-13979960D02*
X14534572Y-13970436D01*
X14534572Y-13970436D02*
X14553620Y-13941865D01*
X14553620Y-13941865D02*
X14563144Y-13903769D01*
X14563144Y-13903769D02*
X14563144Y-13827579D01*
X14563144Y-13827579D02*
X14553620Y-13808531D01*
X14553620Y-13808531D02*
X14544096Y-13799008D01*
X14544096Y-13799008D02*
X14525048Y-13789484D01*
X14525048Y-13789484D02*
X14486953Y-13789484D01*
X14486953Y-13789484D02*
X14467906Y-13799008D01*
X14467906Y-13799008D02*
X14458382Y-13808531D01*
X14458382Y-13808531D02*
X14448858Y-13827579D01*
X14448858Y-13827579D02*
X14448858Y-13875198D01*
X14448858Y-13875198D02*
X14458382Y-13894246D01*
X14458382Y-13894246D02*
X14467906Y-13903769D01*
X14467906Y-13903769D02*
X14486953Y-13913293D01*
X14486953Y-13913293D02*
X14525048Y-13913293D01*
X14525048Y-13913293D02*
X14544096Y-13903769D01*
X14544096Y-13903769D02*
X14553620Y-13894246D01*
X14553620Y-13894246D02*
X14563144Y-13875198D01*
X14639334Y-13789484D02*
X14639334Y-13827579D01*
X14715525Y-13789484D02*
X14715525Y-13827579D01*
X15010763Y-14065674D02*
X15001239Y-14056150D01*
X15001239Y-14056150D02*
X14982191Y-14027579D01*
X14982191Y-14027579D02*
X14972668Y-14008531D01*
X14972668Y-14008531D02*
X14963144Y-13979960D01*
X14963144Y-13979960D02*
X14953620Y-13932341D01*
X14953620Y-13932341D02*
X14953620Y-13894246D01*
X14953620Y-13894246D02*
X14963144Y-13846627D01*
X14963144Y-13846627D02*
X14972668Y-13818055D01*
X14972668Y-13818055D02*
X14982191Y-13799008D01*
X14982191Y-13799008D02*
X15001239Y-13770436D01*
X15001239Y-13770436D02*
X15010763Y-13760912D01*
X15077429Y-13808531D02*
X15086953Y-13799008D01*
X15086953Y-13799008D02*
X15106001Y-13789484D01*
X15106001Y-13789484D02*
X15153620Y-13789484D01*
X15153620Y-13789484D02*
X15172668Y-13799008D01*
X15172668Y-13799008D02*
X15182191Y-13808531D01*
X15182191Y-13808531D02*
X15191715Y-13827579D01*
X15191715Y-13827579D02*
X15191715Y-13846627D01*
X15191715Y-13846627D02*
X15182191Y-13875198D01*
X15182191Y-13875198D02*
X15067906Y-13989484D01*
X15067906Y-13989484D02*
X15191715Y-13989484D01*
X15315525Y-13789484D02*
X15334572Y-13789484D01*
X15334572Y-13789484D02*
X15353620Y-13799008D01*
X15353620Y-13799008D02*
X15363144Y-13808531D01*
X15363144Y-13808531D02*
X15372668Y-13827579D01*
X15372668Y-13827579D02*
X15382191Y-13865674D01*
X15382191Y-13865674D02*
X15382191Y-13913293D01*
X15382191Y-13913293D02*
X15372668Y-13951388D01*
X15372668Y-13951388D02*
X15363144Y-13970436D01*
X15363144Y-13970436D02*
X15353620Y-13979960D01*
X15353620Y-13979960D02*
X15334572Y-13989484D01*
X15334572Y-13989484D02*
X15315525Y-13989484D01*
X15315525Y-13989484D02*
X15296477Y-13979960D01*
X15296477Y-13979960D02*
X15286953Y-13970436D01*
X15286953Y-13970436D02*
X15277429Y-13951388D01*
X15277429Y-13951388D02*
X15267906Y-13913293D01*
X15267906Y-13913293D02*
X15267906Y-13865674D01*
X15267906Y-13865674D02*
X15277429Y-13827579D01*
X15277429Y-13827579D02*
X15286953Y-13808531D01*
X15286953Y-13808531D02*
X15296477Y-13799008D01*
X15296477Y-13799008D02*
X15315525Y-13789484D01*
X15620287Y-13989484D02*
X15620287Y-13789484D01*
X15706001Y-13989484D02*
X15706001Y-13884722D01*
X15706001Y-13884722D02*
X15696477Y-13865674D01*
X15696477Y-13865674D02*
X15677430Y-13856150D01*
X15677430Y-13856150D02*
X15648858Y-13856150D01*
X15648858Y-13856150D02*
X15629810Y-13865674D01*
X15629810Y-13865674D02*
X15620287Y-13875198D01*
X15829810Y-13989484D02*
X15810763Y-13979960D01*
X15810763Y-13979960D02*
X15801239Y-13970436D01*
X15801239Y-13970436D02*
X15791715Y-13951388D01*
X15791715Y-13951388D02*
X15791715Y-13894246D01*
X15791715Y-13894246D02*
X15801239Y-13875198D01*
X15801239Y-13875198D02*
X15810763Y-13865674D01*
X15810763Y-13865674D02*
X15829810Y-13856150D01*
X15829810Y-13856150D02*
X15858382Y-13856150D01*
X15858382Y-13856150D02*
X15877430Y-13865674D01*
X15877430Y-13865674D02*
X15886953Y-13875198D01*
X15886953Y-13875198D02*
X15896477Y-13894246D01*
X15896477Y-13894246D02*
X15896477Y-13951388D01*
X15896477Y-13951388D02*
X15886953Y-13970436D01*
X15886953Y-13970436D02*
X15877430Y-13979960D01*
X15877430Y-13979960D02*
X15858382Y-13989484D01*
X15858382Y-13989484D02*
X15829810Y-13989484D01*
X16010763Y-13989484D02*
X15991715Y-13979960D01*
X15991715Y-13979960D02*
X15982191Y-13960912D01*
X15982191Y-13960912D02*
X15982191Y-13789484D01*
X16163144Y-13979960D02*
X16144096Y-13989484D01*
X16144096Y-13989484D02*
X16106001Y-13989484D01*
X16106001Y-13989484D02*
X16086953Y-13979960D01*
X16086953Y-13979960D02*
X16077430Y-13960912D01*
X16077430Y-13960912D02*
X16077430Y-13884722D01*
X16077430Y-13884722D02*
X16086953Y-13865674D01*
X16086953Y-13865674D02*
X16106001Y-13856150D01*
X16106001Y-13856150D02*
X16144096Y-13856150D01*
X16144096Y-13856150D02*
X16163144Y-13865674D01*
X16163144Y-13865674D02*
X16172668Y-13884722D01*
X16172668Y-13884722D02*
X16172668Y-13903769D01*
X16172668Y-13903769D02*
X16077430Y-13922817D01*
X16248858Y-13979960D02*
X16267906Y-13989484D01*
X16267906Y-13989484D02*
X16306001Y-13989484D01*
X16306001Y-13989484D02*
X16325049Y-13979960D01*
X16325049Y-13979960D02*
X16334572Y-13960912D01*
X16334572Y-13960912D02*
X16334572Y-13951388D01*
X16334572Y-13951388D02*
X16325049Y-13932341D01*
X16325049Y-13932341D02*
X16306001Y-13922817D01*
X16306001Y-13922817D02*
X16277430Y-13922817D01*
X16277430Y-13922817D02*
X16258382Y-13913293D01*
X16258382Y-13913293D02*
X16248858Y-13894246D01*
X16248858Y-13894246D02*
X16248858Y-13884722D01*
X16248858Y-13884722D02*
X16258382Y-13865674D01*
X16258382Y-13865674D02*
X16277430Y-13856150D01*
X16277430Y-13856150D02*
X16306001Y-13856150D01*
X16306001Y-13856150D02*
X16325049Y-13865674D01*
X16401239Y-14065674D02*
X16410763Y-14056150D01*
X16410763Y-14056150D02*
X16429811Y-14027579D01*
X16429811Y-14027579D02*
X16439334Y-14008531D01*
X16439334Y-14008531D02*
X16448858Y-13979960D01*
X16448858Y-13979960D02*
X16458382Y-13932341D01*
X16458382Y-13932341D02*
X16458382Y-13894246D01*
X16458382Y-13894246D02*
X16448858Y-13846627D01*
X16448858Y-13846627D02*
X16439334Y-13818055D01*
X16439334Y-13818055D02*
X16429811Y-13799008D01*
X16429811Y-13799008D02*
X16410763Y-13770436D01*
X16410763Y-13770436D02*
X16401239Y-13760912D01*
M02*
